0
SECTION
2
HEADER
9
$INSUNITS
70
4
9
$ACADVER
1
AC1014
9
$HANDSEED
5
FFFF
0
ENDSEC
0
SECTION
2
TABLES
0
TABLE
2
VPORT
5
8
100
AcDbSymbolTable
0
ENDTAB
0
TABLE
2
LTYPE
5
5
100
AcDbSymbolTable
0
LTYPE
5
14
100
AcDbSymbolTableRecord
100
AcDbLinetypeTableRecord
2
BYBLOCK
70
0
0
LTYPE
5
15
100
AcDbSymbolTableRecord
100
AcDbLinetypeTableRecord
2
BYLAYER
70
0
0
ENDTAB
0
TABLE
2
LAYER
5
2
100
AcDbSymbolTable
70
2
0
LAYER
5
50
100
AcDbSymbolTableRecord
100
AcDbLayerTableRecord
2
0
70
0
6
CONTINUOUS
0
ENDTAB
0
TABLE
2
STYLE
5
3
100
AcDbSymbolTable
70
1
0
STYLE
5
11
100
AcDbSymbolTableRecord
100
AcDbTextStyleTableRecord
2
STANDARD
70
0
0
ENDTAB
0
TABLE
2
VIEW
5
6
100
AcDbSymbolTable
70
0
0
ENDTAB
0
TABLE
2
UCS
5
7
100
AcDbSymbolTable
70
0
0
ENDTAB
0
TABLE
2
APPID
5
9
100
AcDbSymbolTable
70
2
0
APPID
5
12
100
AcDbSymbolTableRecord
100
AcDbRegAppTableRecord
2
ACAD
70
0
0
ENDTAB
0
TABLE
2
DIMSTYLE
5
A
100
AcDbSymbolTable
70
1
0
ENDTAB
0
TABLE
2
BLOCK_RECORD
5
1
100
AcDbSymbolTable
70
1
0
BLOCK_RECORD
5
1F
100
AcDbSymbolTableRecord
100
AcDbBlockTableRecord
2
*MODEL_SPACE
0
BLOCK_RECORD
5
1B
100
AcDbSymbolTableRecord
100
AcDbBlockTableRecord
2
*PAPER_SPACE
0
ENDTAB
0
ENDSEC
0
SECTION
2
BLOCKS
0
BLOCK
5
20
100
AcDbEntity
100
AcDbBlockBegin
2
*MODEL_SPACE
0
ENDBLK
5
21
100
AcDbEntity
100
AcDbBlockEnd
0
BLOCK
5
1C
100
AcDbEntity
100
AcDbBlockBegin
2
*PAPER_SPACE
0
ENDBLK
5
1D
100
AcDbEntity
100
AcDbBlockEnd
0
ENDSEC
0
SECTION
2
ENTITIES
0
CIRCLE
5
100
100
AcDbEntity
8
0
100
AcDbCircle
10
-615.83747979110558
20
-80.69551763220197
30
0
40
1.9999999999999574
210
0
220
0
230
1
0
CIRCLE
5
101
100
AcDbEntity
8
0
100
AcDbCircle
10
-404.59457295828713
20
59.240247715394133
30
0
40
1.9999999999999574
210
0
220
0
230
1
0
CIRCLE
5
102
100
AcDbEntity
8
0
100
AcDbCircle
10
-600.48532058826424
20
-128.16969866120249
30
0
40
1.9999999999999574
210
0
220
0
230
1
0
CIRCLE
5
103
100
AcDbEntity
8
0
100
AcDbCircle
10
-486.15048042932506
20
-209.84790948348333
30
0
40
1.9999999999999574
210
0
220
0
230
1
0
CIRCLE
5
104
100
AcDbEntity
8
0
100
AcDbCircle
10
-502.85038733863479
20
-209.85475789683085
30
0
40
1.9999999999999574
210
0
220
0
230
1
0
CIRCLE
5
105
100
AcDbEntity
8
0
100
AcDbCircle
10
-388.51074110452851
20
-128.17090711269628
30
0
40
1.9999999999999574
210
0
220
0
230
1
0
CIRCLE
5
106
100
AcDbEntity
8
0
100
AcDbCircle
10
-584.4054270417131
20
59.240247715394233
30
0
40
1.9999999999999574
210
0
220
0
230
1
0
CIRCLE
5
107
100
AcDbEntity
8
0
100
AcDbCircle
10
-415.17907806544707
20
-170.26380089345577
30
0
40
1.9999999999999574
210
0
220
0
230
1
0
CIRCLE
5
108
100
AcDbEntity
8
0
100
AcDbCircle
10
-494.49999999999994
20
96.749999999999972
30
0
40
1.9999999999999574
210
0
220
0
230
1
0
CIRCLE
5
109
100
AcDbEntity
8
0
100
AcDbCircle
10
-620.99669627541743
20
-31.044259039040281
30
0
40
1.9999999999999574
210
0
220
0
230
1
0
CIRCLE
5
110
100
AcDbEntity
8
0
100
AcDbCircle
10
-377.26121336651687
20
17.761229290648615
30
0
40
1.9999999999999574
210
0
220
0
230
1
0
CIRCLE
5
111
100
AcDbEntity
8
0
100
AcDbCircle
10
-611.7387866334833
20
17.761229290648721
30
0
40
1.9999999999999574
210
0
220
0
230
1
0
CIRCLE
5
112
100
AcDbEntity
8
0
100
AcDbCircle
10
-373.16468124668398
20
-80.694413423990738
30
0
40
1.9999999999999574
210
0
220
0
230
1
0
CIRCLE
5
113
100
AcDbEntity
8
0
100
AcDbCircle
10
-534.70517707501745
20
-200.85187907626644
30
0
40
1.9999999999999574
210
0
220
0
230
1
0
CIRCLE
5
114
100
AcDbEntity
8
0
100
AcDbCircle
10
-445.79176833428136
20
86.996555272516161
30
0
40
1.9999999999999574
210
0
220
0
230
1
0
CIRCLE
5
115
100
AcDbEntity
8
0
100
AcDbCircle
10
-368.00326421087055
20
-31.044259172247735
30
0
40
1.9999999999999574
210
0
220
0
230
1
0
CIRCLE
5
116
100
AcDbEntity
8
0
100
AcDbCircle
10
-543.20823166571859
20
86.996555272516218
30
0
40
1.9999999999999574
210
0
220
0
230
1
0
CIRCLE
5
117
100
AcDbEntity
8
0
100
AcDbCircle
10
-573.81641107677888
20
-170.26018358410846
30
0
40
1.9999999999999574
210
0
220
0
230
1
0
CIRCLE
5
118
100
AcDbEntity
8
0
100
AcDbCircle
10
-454.29231105525298
20
-200.85676857048966
30
0
40
1.9999999999999574
210
0
220
0
230
1
0
LWPOLYLINE
5
119
100
AcDbEntity
8
0
100
AcDbPolyline
90
4
70
1
43
0.0
10
-591.65499999999997
20
-32.607500000000037
10
-588.7974999999999
20
-32.607500000000009
42
0.99999999999999989
10
-588.7974999999999
20
-26.892499999999995
10
-591.65499999999997
20
-26.892499999999995
42
0.99999999999999989
0
CIRCLE
5
120
100
AcDbEntity
8
0
100
AcDbCircle
10
-494.5
20
-29.750000000000018
30
0
40
2.857499999999991
210
0
220
0
230
1
0
LWPOLYLINE
5
121
100
AcDbEntity
8
0
100
AcDbPolyline
90
4
70
1
43
0.0
10
-400.20250000000021
20
-32.607499999999995
42
-0.99999999999999989
10
-400.20250000000004
20
-26.892500000000009
10
-397.34499999999997
20
-26.892499999999995
42
-0.99999999999999989
10
-397.34499999999997
20
-32.607500000000044
0
ARC
5
122
100
AcDbEntity
8
0
100
AcDbCircle
10
-494.5
20
-29.750000000000018
30
0
40
130.49999999999997
210
0
220
0
230
1
100
AcDbArc
50
0
51
180
0
ELLIPSE
5
123
100
AcDbEntity
8
0
100
AcDbEllipse
10
-494.5
20
-29.750000000000018
30
0
11
0
21
184.5
31
0.0
40
0.70731707317073178
41
1.5707963267948966
42
4.7123889803846897
0
ENDSEC
0
SECTION
2
OBJECTS
0
DICTIONARY
5
C
100
AcDbDictionary
3
ACAD_GROUP
350
D
3
ACAD_MLINESTYLE
350
17
0
DICTIONARY
5
D
100
AcDbDictionary
0
DICTIONARY
5
1A
330
C
100
AcDbDictionary
0
DICTIONARY
5
17
100
AcDbDictionary
0
ENDSEC
0
EOF
