<?xml version="1.0" encoding="UTF-8" standalone="no"?>
<!-- Created with Inkscape (http://www.inkscape.org/) -->

<svg
   xmlns:dc="http://purl.org/dc/elements/1.1/"
   xmlns:cc="http://creativecommons.org/ns#"
   xmlns:rdf="http://www.w3.org/1999/02/22-rdf-syntax-ns#"
   xmlns:svg="http://www.w3.org/2000/svg"
   xmlns="http://www.w3.org/2000/svg"
   xmlns:sodipodi="http://sodipodi.sourceforge.net/DTD/sodipodi-0.dtd"
   xmlns:inkscape="http://www.inkscape.org/namespaces/inkscape"
   width="744.09448819"
   height="1052.3622047"
   id="svg2"
   version="1.1"
   inkscape:version="0.48.2 r9819"
   sodipodi:docname="New document 1">
  <sodipodi:namedview
     id="base"
     pagecolor="#ffffff"
     bordercolor="#666666"
     borderopacity="1.0"
     inkscape:pageopacity="0.0"
     inkscape:pageshadow="2"
     inkscape:zoom="0.175"
     inkscape:cx="156.73857"
     inkscape:cy="-1296.5648"
     inkscape:document-units="px"
     inkscape:current-layer="layer4"
     showgrid="false"
     inkscape:window-width="1107"
     inkscape:window-height="909"
     inkscape:window-x="262"
     inkscape:window-y="525"
     inkscape:window-maximized="0" />
  <defs
     id="defs4">
    <symbol
       id="*PAPER_SPACE" />
    <symbol
       id="*MODEL_SPACE" />
    <pattern
       height="8"
       width="8"
       patternUnits="userSpaceOnUse"
       y="0"
       x="0"
       id="Hatch">
      <path
         linecap="square"
         stroke="#000000"
         stroke-width="0.25"
         d="M8 4 l-4,4"
         id="path2995" />
      <path
         linecap="square"
         stroke="#000000"
         stroke-width="0.25"
         d="M6 2 l-4,4"
         id="path2997" />
      <path
         linecap="square"
         stroke="#000000"
         stroke-width="0.25"
         d="M4 0 l-4,4"
         id="path2999" />
    </pattern>
    <marker
       refY="0.0"
       refX="0.0"
       style="overflow:visible"
       id="DistanceX"
       orient="auto">
      <path
         style="stroke:#000000; stroke-width:0.5"
         d="M 3,-3 L -3,3 M 0,-5 L  0,5"
         id="path2992" />
    </marker>
  </defs>
  <metadata
     id="metadata7">
    <rdf:RDF>
      <cc:Work
         rdf:about="">
        <dc:format>image/svg+xml</dc:format>
        <dc:type
           rdf:resource="http://purl.org/dc/dcmitype/StillImage" />
        <dc:title></dc:title>
      </cc:Work>
    </rdf:RDF>
  </metadata>
  <g
     id="layer1"
     inkscape:groupmode="layer"
     inkscape:label="Layer 1"
     style="display:inline" />
  <g
     inkscape:groupmode="layer"
     id="layer4"
     inkscape:label="orange"
     style="display:inline">
    <path
       inkscape:connector-curvature="0"
       style="fill:none;stroke:#f36e3d;stroke-opacity:1;display:inline"
       d="m 614.2889,1487.6395 -11.1434,-1.6069 -10.9643,-2.6238 -10.6263,-3.5627 -10.1296,-4.4235 -9.474,-5.2062 -8.6595,-5.9112 -7.6862,-6.5378 -3.4284,-3.4795 -3.1255,-3.6069 -4.7628,-5.8863 -0.2748,15.9893 -0.2747,15.9893 -48.97532,0 -48.9752,0 0,-274.5001 0,-274.49998 49,0 49.00002,0 0,118.61368 0,118.6136 8.85889,-8.3636 5.7155,-5.0459 6.04921,-4.6608 6.3827,-4.2755 6.7161,-3.8902 7.04909,-3.5047 7.382,-3.1191 7.7148,-2.7334 8.0472,-2.3477 5.4633,-1.2678 5.5025,-0.8485 6.5521,-0.5461 8.6121,-0.3606 9.4709,-0.085 8.85401,0.3682 8.37919,0.8507 8.0467,1.3623 7.8562,1.9033 7.8079,2.4732 7.9018,3.0726 8.1378,3.701 7.1295,3.7069 6.9126,4.0999 6.6877,4.4828 6.4546,4.856 6.2133,5.2193 5.9639,5.5728 5.7063,5.9164 5.4407,6.2502 5.1668,6.574 4.88472,6.8882 4.5947,7.1923 4.2963,7.4867 3.9899,7.7712 3.6752,8.0458 3.3526,8.3107 3.0216,8.5656 3.03921,10.1021 2.52569,10.2141 2.0139,10.3046 1.5036,10.3734 0.9948,10.4207 0.4878,10.4463 -0.018,10.4504 -0.5215,10.4328 -1.0238,10.3937 -1.5245,10.3329 -2.0235,10.2505 -2.521,10.1466 -3.0168,10.0211 -3.5111,9.8739 -4.0037,9.7052 -4.4948,9.5148 -4.3632,8.1714 -4.6703,7.7995 -4.97112,7.4226 -5.2655,7.0405 -5.5538,6.6535 -5.8356,6.2613 -6.1113,5.864 -6.3805,5.4616 -6.6436,5.0543 -6.9004,4.6417 -7.1507,4.2242 -7.3949,3.8015 -7.6327,3.3737 -7.8643,2.9409 -8.0896,2.503 -8.3085,2.06 -7.9716,1.3256 -10.5713,1.3051 -9.8652,0.924 -5.853,0.1823 -10,-0.9758 0,0"
       id="path5582" />
    <path
       inkscape:connector-curvature="0"
       style="fill:none;stroke:#f36e3d;stroke-opacity:1;display:inline"
       d="m 621.9904,1399.1936 5.4702,-1.6495 5.3193,-2.1182 5.153,-2.5685 4.9715,-3.0008 4.7747,-3.4146 4.5625,-3.8104 4.3351,-4.1879 4.0922,-4.5471 3.8342,-4.8882 3.5608,-5.211 3.272,-5.5155 2.968,-5.802 2.6487,-6.07 2.314,-6.32 1.964,-6.5516 1.5988,-6.765 0.89,-5.3967 0.5947,-5.9466 0.3198,-12.7401 -0.814,-12.531 -0.8222,-5.6851 -1.0939,-5.0307 -1.9095,-6.4994 -2.2134,-6.2494 -2.5065,-5.9874 -2.7888,-5.7136 -3.0604,-5.428 -3.3213,-5.1305 -3.5714,-4.821 -3.8107,-4.4998 -4.0393,-4.1666 -4.2572,-3.8216 -4.4642,-3.4647 -4.6606,-3.096 -4.8461,-2.7153 -5.021,-2.3229 -5.185,-1.9184 -5.3383,-1.5022 -7.6621,-1.1608 -9.0184,-0.3785 -8.9586,0.4019 -7.4825,1.1804 -4.2137,1.2274 -4.3054,1.5827 -8.5963,4.0736 -8.0946,5.0215 -3.6781,2.7676 -3.3354,2.8863 -5.8877,6.0131 -5.2987,6.467 -4.7027,6.876 -4.0996,7.24 -3.4897,7.5594 -2.8726,7.8337 -2.2486,8.0633 -1.6176,8.248 -0.9796,8.3879 -0.3345,8.4828 0.3174,8.5331 0.9765,8.5383 1.6426,8.4988 2.3156,8.4144 2.9956,8.2851 3.6826,8.111 3.7486,6.8526 4.0738,6.2863 4.4178,5.7389 4.7806,5.2103 5.1624,4.7006 5.5631,4.2096 5.9826,3.7375 6.4209,3.2841 4.3755,1.8557 4.4028,1.4199 5.4323,1.2567 7.4641,1.3663 4.6704,0.2067 6.6992,-0.3529 7.0648,-0.7761 5.7675,-1.0629 0,0"
       id="path5580" />
    <path
       inkscape:connector-curvature="0"
       style="fill:none;stroke:#f36e3d;stroke-opacity:1;display:inline"
       d="m 907.14042,1486.7487 -9.6896,-1.3408 -9.6558,-1.9681 -9.5695,-2.576 -9.4309,-3.1647 -9.2397,-3.7338 -8.99621,-4.2836 -8.7001,-4.8141 -8.35179,-5.3251 -8.2368,-6.3661 -9.7061,-8.4397 -8.44351,-8.0336 -2.89429,-3.0895 -1.55411,-2.058 -0.084,-0.7685 0.4422,-1.2783 2.9447,-4.7886 6.4974,-8.9354 11.0167,-14.487 15.6249,-20.089 6.9548,-8.3851 1.473,1.0143 2.4456,2.5093 3.8311,3.9639 4.7246,4.2499 5.3793,4.3657 5.7955,4.3113 5.973,4.0864 5.9118,3.6914 5.612,3.1259 5.0735,2.3903 6.91171,2.3188 7.76209,1.6856 7.8482,0.9249 7.1702,0.036 5.5154,-0.7469 5.2603,-1.4375 4.933,-2.0784 4.5332,-2.6699 4.061,-3.2118 3.5166,-3.7042 2.8996,-4.147 2.2103,-4.5404 1.1098,-3.3775 0.7755,-3.5356 0.4423,-3.621 0.1101,-3.6338 -0.2208,-3.5739 -0.5507,-3.4414 -0.8795,-3.2364 -1.2072,-2.9587 -2.4099,-4.1874 -3.0501,-3.8459 -3.8957,-3.6366 -4.9464,-3.5594 -6.2025,-3.614 -7.6639,-3.801 -9.3304,-4.1198 -11.2022,-4.5709 -13.8931,-5.7124 -12.019,-5.4069 -10.3401,-5.2246 -8.8561,-5.1661 -7.5674,-5.2309 -6.4738,-5.4193 -5.5753,-5.7313 -4.8718,-6.1666 -4.4453,-7.0863 -3.7052,-7.7254 -2.9497,-8.2875 -2.179,-8.7728 -1.3929,-9.1808 -0.5914,-9.5121 0.2253,-9.7662 1.0573,-9.9434 1.5447,-8.5521 2.0518,-8.2176 2.5488,-7.8715 3.0356,-7.5139 3.5122,-7.1449 3.9788,-6.7645 4.4351,-6.3725 4.8813,-5.9691 5.3174,-5.5541 5.7433,-5.1279 6.159,-4.6899 6.5646,-4.2407 6.96,-3.78 7.3454,-3.3076 7.7205,-2.824 8.0855,-2.3288 4.9417,-0.9957 5.8903,-0.7778 13.6509,-0.8739 14.5191,0.081 6.9755,0.4154 6.461,0.6746 10.646,1.6788 10.4619,2.1952 10.1957,2.6832 9.8474,3.1424 9.41699,3.5731 8.9048,3.9752 8.3103,4.3487 7.6339,4.6936 3.9182,2.5186 2.7448,1.9802 0.8808,0.9621 0.5255,1.036 0.1494,1.1796 -0.2472,1.3927 -1.767,3.7029 -3.6016,5.3897 -13.3681,18.0651 -11.0264,14.7683 -6.5174,8.3165 -3.35969,3.4786 -0.918,0.4294 -0.6353,-0.175 -7.5532,-5.991 -6.5075,-4.529 -7.3793,-4.2189 -7.717,-3.3679 -7.5114,-2.313 -7.2356,-1.2615 -6.8895,-0.2132 -6.4729,0.832 -5.9861,1.8737 -5.4289,2.9122 -2.4835,1.8446 -2.3178,2.103 -2.924,3.3284 -2.314,3.5062 -1.6961,3.6442 -1.0702,3.7429 -0.4365,3.802 0.2051,3.8216 0.8546,3.8016 1.5121,3.7421 2.1066,3.5433 2.7722,3.2953 3.6687,3.1865 4.7958,3.2167 6.1537,3.3861 7.7421,3.6946 21.1726,8.8712 14.254,5.8783 12.2494,5.5078 10.48869,5.2917 8.9719,5.2298 7.6988,5.3224 6.6696,5.5692 5.8842,5.9705 5.3426,6.5259 4.3476,6.4495 3.7509,6.9454 3.1548,7.3788 2.5597,7.7502 1.9653,8.0593 1.3717,8.3061 0.7788,8.4907 0.1868,8.613 -0.4045,8.6731 -0.995,8.6709 -1.5847,8.6066 -2.1736,8.4799 -2.7617,8.2911 -3.3491,8.0399 -3.9357,7.7266 -4.5214,7.3509 -5.3495,6.9797 -6.8462,7.5392 -7.507,7.238 -7.3318,6.0762 -5.0766,3.5699 -5.36359,3.3409 -5.6256,3.1054 -5.8622,2.8635 -6.0737,2.6151 -6.26,2.3603 -12.978,3.9301 -13.4207,2.8331 -13.6618,1.6846 -6.8583,0.3955 -6.843,0.089 -6.8025,-0.224 -6.7367,-0.5435 0,0"
       id="path5578" />
    <path
       inkscape:connector-curvature="0"
       style="fill:none;stroke:#f36e3d;stroke-opacity:1;display:inline"
       d="m 174.78808,1486.0786 -8.22704,-1.106 -8.05882,-1.536 -7.8847,-1.9622 -7.70468,-2.3847 -7.51875,-2.8038 -7.3269,-3.2189 -7.12916,-3.6304 -6.92551,-4.0383 -6.71595,-4.4425 -6.50049,-4.8431 -6.279115,-5.2399 -6.05184,-5.6331 -5.81866,-6.0226 -5.57956,-6.4085 -5.33457,-6.7906 -5.08366,-7.1692 -4.52556,-7.1092 -4.23026,-7.4402 -3.92753,-7.7405 -3.61739,-8.0099 -3.29981,-8.2485 -2.97483,-8.4563 -2.64241,-8.6333 -2.30257,-8.7795 -1.95532,-8.8949 -1.60064,-8.9795 -1.23853,-9.0332 -0.86901,-9.0562 -0.49206,-9.0484 -0.10769,-9.0097 0.2841,-8.9402 0.68331,-8.84 1.05133,-8.7796 1.36584,-8.6226 1.6774,-8.459 1.98599,-8.2887 2.29161,-8.112 2.59427,-7.9284 2.89397,-7.7384 3.19069,-7.5417 3.48446,-7.3385 3.77526,-7.1286 4.0631,-6.912 4.34797,-6.689 4.62988,-6.4593 4.90882,-6.2229 5.1848,-5.98 5.45781,-5.7304 8.35572,-7.8653 8.506595,-6.9803 8.73814,-6.1385 9.05039,-5.34 9.44333,-4.5849 9.91695,-3.8731 10.47128,-3.2045 11.1063,-2.5793 5.32037,-0.8177 6.34307,-0.5845 14.32807,-0.469 14.14029,0.4646 6.10835,0.5825 4.99175,0.8161 9.13248,2.275 8.81192,2.8032 8.47732,3.3241 8.12867,3.838 7.76596,4.3444 7.3892,4.8438 6.9984,5.3358 6.59355,5.8207 7.6843,7.0594 0.25,-15.4956 0,-15.5 48,0 48,0 0,171.5 0,171.5 -48,0 -48,0 0,-16.1487 0,-16.1486 -8.4681,8.5639 -7.05347,6.5316 -7.61123,5.9061 -8.12986,5.2618 -8.60939,4.5985 -9.04979,3.9165 -9.45106,3.2155 -9.81323,2.4957 -10.13627,1.757 -6.98618,0.5901 -8.7411,0.2687 -8.79685,-0.072 -7.15347,-0.4313 0,3e-4"
       id="path5576" />
    <path
       inkscape:connector-curvature="0"
       style="fill:none;stroke:#f36e3d;stroke-opacity:1;display:inline"
       d="m 227.58028,1398.2212 5.78156,-1.4548 5.64746,-1.9961 5.49244,-2.5131 5.31649,-3.0061 5.11962,-3.4749 4.90182,-3.9195 4.66311,-4.3399 4.40346,-4.7363 4.12289,-5.1084 3.82142,-5.4563 3.499,-5.7802 3.15567,-6.0799 2.7914,-6.3554 2.40623,-6.6067 2.00013,-6.8339 1.57309,-7.037 1.09836,-9.1039 0.3551,-10.7367 -0.38588,-10.7662 -1.12458,-9.1922 -1.96908,-8.3357 -2.69958,-8.255 -3.36252,-8.0542 -3.95789,-7.733 -4.4857,-7.2916 -4.94593,-6.73 -5.3386,-6.0482 -5.6637,-5.2462 -5.81372,-4.3817 -6.05016,-3.7374 -6.24777,-3.0953 -6.40655,-2.4555 -6.5265,-1.8181 -6.60762,-1.1829 -6.64993,-0.5501 -6.65339,0.081 -6.61803,0.7087 -6.54384,1.3346 -6.43084,1.9582 -6.27897,2.5795 -6.08833,3.1985 -5.85881,3.8152 -5.59049,4.4295 -5.28334,5.0416 -4.74622,5.3773 -4.32175,5.7493 -3.89021,6.0843 -3.45159,6.3824 -3.00587,6.6432 -2.55307,6.8672 -2.09319,7.0541 -1.62622,7.204 -1.15217,7.3167 -0.67102,7.3926 -0.1828,7.4313 0.31251,7.4331 0.81492,7.3978 1.32439,7.3254 1.84096,7.216 2.36462,7.0697 3.17974,7.6372 3.59694,7.1544 3.99186,6.6575 4.36452,6.1463 4.71492,5.621 5.04304,5.0815 5.34889,4.5278 5.63248,3.96 5.89379,3.3779 6.13285,2.7818 6.34962,2.1713 6.54414,1.5469 6.71638,0.908 6.86636,0.2552 6.99408,-0.4119 7.09949,-1.0931 1e-4,0"
       id="path5574" />
    <path
       inkscape:connector-curvature="0"
       style="fill:none;stroke:#f36e3d;stroke-opacity:1;display:inline"
       d="m -234.21192,1301.7731 0,-183 51.5,0 51.5,0 0,137.9935 0,137.9934 72.249995,0.2566 72.25,0.2565 0.2603,44.75 0.2603,44.7501 -124.010295,0 -124.0103,0 0,-183.0001 0,0"
       id="path5572" />
    <path
       inkscape:connector-curvature="0"
       style="fill:none;stroke:#f36e3d;stroke-opacity:1;display:inline"
       d="m -970.71192,1472.1076 -17.31176,-8.8422 1.34554,-3.3659 3.42527,-7.026 3.62287,-6.9531 1.93831,-3.1473 17.60685,8.5497 17.68468,8.958 -1.31277,3.4101 -3.47814,7.0157 -3.72541,6.9128 -2.05456,3.1007 -17.74088,-8.6125 0,0"
       id="path5570" />
    <path
       inkscape:connector-curvature="0"
       style="fill:none;stroke:#f36e3d;stroke-opacity:1;display:inline"
       d="m -870.46194,1271.2146 -11.82969,-6.1155 -4.92031,-2.8332 18.91647,-38.3072 41.65345,-83.3104 41.74647,-83.1248 19.19554,-37.7502 6.05642,2.697 11.78109,5.9954 11.48435,6.1503 5.16621,3.1618 -5.18072,10.969 -13.66654,27.6807 -41.53694,83.0866 -41.71935,82.7041 -13.89457,27.2025 -5.49995,10.2996 -5.62792,-2.5204 -12.12401,-5.9853 0,0"
       id="path5558" />
    <path
       inkscape:connector-curvature="0"
       style="fill:none;stroke:#f36e3d;stroke-opacity:1;display:inline"
       d="m -749.46194,1218.0448 -2.52462,-0.3742 -0.67848,-0.6148 -0.32235,-1.2642 0.32438,-5.5703 1.45107,-11.448 1.99887,-16.75 0.69708,-0.5916 2.30927,-0.3857 10.77101,-0.2727 11.74467,-0.2478 10.29911,-0.836 10.02936,-1.5628 10.9354,-2.4285 8.00227,-2.173 7.82922,-2.5205 7.6491,-2.858 7.46191,-3.1855 7.26764,-3.5029 7.0663,-3.8102 6.85789,-4.1076 6.64241,-4.3948 6.41984,-4.672 6.19022,-4.9391 5.95351,-5.1962 5.70973,-5.4433 5.45888,-5.6803 5.20095,-5.9072 4.93596,-6.1241 4.66389,-6.3309 4.38474,-6.5278 4.09853,-6.7144 3.80523,-6.8912 3.50487,-7.0578 3.19744,-7.2144 2.88292,-7.3609 2.56134,-7.4973 2.23269,-7.6238 1.89696,-7.7402 1.55415,-7.8465 1.20428,-7.9428 0.84733,-8.029 0.48331,-8.1052 0.11221,-8.1713 -0.26595,-8.22738 -0.6512,-8.2734 -0.96458,-7.8771 -1.27048,-7.6749 -1.58771,-7.5125 -1.91631,-7.3901 -2.25625,-7.3078 -2.60754,-7.2654 -2.97018,-7.263 -3.34418,-7.3006 -3.81581,-7.4741 -4.11611,-7.2266 -4.40549,-6.9744 -4.68402,-6.7176 -4.95161,-6.456 -5.20836,-6.1899 -5.45418,-5.9189 -5.68912,-5.6434 -5.91317,-5.3631 -6.12633,-5.0783 -6.3286,-4.7886 -6.51996,-4.4944 -6.70044,-4.1954 -6.87003,-3.8917 -7.02873,-3.5835 -7.17652,-3.2705 -7.31345,-2.9528 -7.43945,-2.6304 -7.55459,-2.3035 -7.65882,-1.9717 -7.75215,-1.6354 -7.83461,-1.2943 -7.90617,-0.9486 -7.96682,-0.5981 -8.01662,-0.2431 -8.05549,0.1167 -8.08347,0.4811 -8.10058,0.8503 -8.10677,1.2241 -8.10209,1.6025 -8.08651,1.9857 -8.06004,2.3736 -5.38345,1.9234 -6.16922,2.5465 -13.5391,6.3787 -13.21222,7.1202 -5.76062,3.4733 -4.81141,3.221 -6.12499,4.6061 -5.92466,4.8701 -5.71485,5.1206 -5.49559,5.3576 -5.26688,5.5811 -5.02869,5.7912 -4.78106,5.9878 -4.52395,6.1709 -4.25739,6.3405 -3.98137,6.4967 -3.69589,6.6393 -3.40095,6.7685 -3.09655,6.8843 -2.78269,6.9864 -2.45936,7.0752 -2.12658,7.1505 -2.59756,10.4698 -1.78794,9.6903 -1.13666,9.9755 -0.6437,11.3253 -0.12707,8.21078 0.21859,8.1278 0.56243,8.0392 0.90445,7.9449 1.24465,7.8451 1.58305,7.7396 1.91961,7.6287 2.25436,7.5121 2.58731,7.3899 2.91842,7.2622 3.24773,7.1287 3.57521,6.9898 3.90088,6.8452 4.22474,6.6951 4.54677,6.5394 4.86699,6.378 5.13812,6.6317 2.13708,3.1487 -3.80047,4.0479 -9.1373,8.7936 -12.93779,12.1731 -6.67349,-7.7882 -9.16561,-11.602 -8.40265,-12.4839 -7.58704,-13.2466 -6.71876,-13.8902 -5.79781,-14.4148 -4.8242,-14.8203 -3.79793,-15.1066 -2.719,-15.2739 -1.16162,-12.6488 -0.48914,-15.1053 0.20764,-14.96578 0.92873,-12.2301 1.35401,-9.0908 1.68287,-8.947 2.00972,-8.7991 2.33457,-8.647 2.65741,-8.4906 2.97826,-8.33 3.29709,-8.1654 3.61394,-7.9963 3.92876,-7.8232 4.2416,-7.6459 4.55243,-7.4643 4.86125,-7.2785 5.16807,-7.0886 5.47289,-6.8945 5.77571,-6.6961 6.07652,-6.4935 11.29947,-10.8855 11.73587,-9.9014 12.1951,-8.9305 12.67718,-7.9728 13.18208,-7.0284 13.70982,-6.0972 14.26039,-5.1793 14.8338,-4.2747 13.10553,-2.925 12.7077,-1.9787 13.05236,-1.1217 14.1395,-0.354 12.26804,0.1935 10.52204,0.6647 10.13045,1.2623 11.09327,1.9863 13.254,3.0935 12.98706,3.9429 12.68367,4.7615 12.34385,5.5495 11.96759,6.307 11.55488,7.0337 11.10574,7.7297 10.62016,8.3953 10.09813,9.03 9.53968,9.6342 8.94478,10.2077 8.31345,10.7506 7.64566,11.2628 6.94145,11.7443 6.2008,12.1953 5.4237,12.6155 3.5541,9.7112 3.05307,9.7342 2.55962,9.7984 2.07372,9.9037 1.5954,10.0504 1.12464,10.238 0.66147,10.4669 0.20585,10.73688 -0.34045,12.826 -0.9905,12.368 -1.66432,12.0121 -2.36194,11.7582 -3.08334,11.6064 -3.82853,11.5567 -4.59751,11.6091 -5.39028,11.7635 -6.65153,12.5676 -7.40494,12.017 -8.12299,11.4424 -8.80569,10.8433 -9.45305,10.2202 -10.06505,9.5726 -10.64171,8.9009 -11.18301,8.2049 -11.68896,7.4847 -12.15956,6.7403 -12.59481,5.9715 -12.99471,5.1785 -13.35926,4.3612 -13.68846,3.5198 -13.98231,2.6541 -14.24082,1.7641 -8.89802,0.5928 -9.40424,0.2593 -8.81562,-0.085 -7.13212,-0.439 0,0"
       id="path5556" />
  </g>
  <g
     inkscape:groupmode="layer"
     id="layer3"
     inkscape:label="gray"
     style="display:inline">
    <path
       inkscape:connector-curvature="0"
       style="fill:none;stroke:#000000;stroke-opacity:1;display:inline"
       d="m -907.44323,1457.8547 -10.09836,-2.5526 -11.65129,-3.7652 -15.1482,-5.6614 -20.58907,-8.2415 -20.74515,-8.2721 -16.5807,-6.2411 -11.6835,-3.946 -3.7764,-1.0299 -2.2774,-0.357 -1.7989,0.4786 -1.1212,1.1712 -0.3703,0.4544 -0.4582,-0.3755 -1.2361,-3.3289 -1.9705,-4.8163 -2.7355,-4.6782 -1.6446,-2.4332 -0.8326,-1.6998 -0.1302,-1.3087 0.4627,-1.2601 1.1331,-1.2381 2.0947,-1.5318 5.952,-3.3792 6.4317,-2.8581 2.6945,-0.8805 1.9728,-0.3262 4.5718,0.3388 5.7821,1.0233 6.97275,1.7016 8.14368,2.3739 19.72158,6.7401 24.16941,9.3557 35.97517,14.0971 12.32787,4.4477 7.96297,2.4924 3.35934,0.8183 1.99243,0.2688 1.14252,-0.2831 0.80962,-0.8374 0.65791,-0.7351 0.51779,-0.03 1.14452,2.435 1.82844,3.991 2.8005,4.977 3.49274,5.6792 -1.71183,3.5898 -1.06662,1.8663 -1.2893,1.3332 -1.80323,1.0217 -2.60843,0.9321 -6.7815,1.4338 -7.83815,0.565 -8.2251,-0.3144 -7.94231,-1.2042 0,-10e-5"
       id="path5568" />
    <path
       inkscape:connector-curvature="0"
       style="fill:none;stroke:#000000;stroke-opacity:1;display:inline"
       d="m -872.71192,1416.1745 -6.04424,-0.9729 -6.19045,-1.3023 -13.7722,-3.9019 -17.2151,-6.1461 -22.56341,-9.0085 -28.31707,-11.421 -17.58971,-6.3826 -5.57887,-1.5569 -3.86515,-0.6031 -2.47413,0.2486 -1.40583,0.9983 -0.65131,0.717 -0.4487,-0.084 -0.67294,-3.1049 -0.4916,-2.0536 -0.92417,-2.396 -2.7527,-4.9346 -1.8451,-2.8169 -0.9389,-1.9257 -0.1723,-1.4597 0.4546,-1.4195 1.1388,-1.4379 2.0249,-1.5977 5.78212,-3.239 6.54906,-2.5703 2.9835,-0.7617 2.4809,-0.2674 4.58253,0.2872 5.32169,0.8508 6.31343,1.4939 7.5577,2.2166 19.85845,6.9197 27.8662,10.7656 25.95542,10.1461 17.13773,6.2959 10.25822,3.1112 3.15497,0.5694 2.16189,0.023 1.91688,-0.1634 1.19252,0.1713 0.69221,0.5975 0.41592,1.1151 1.53887,3.3264 2.92848,4.9242 3.91804,6.062 -2.02998,3.552 -1.25106,1.8566 -1.46713,1.3214 -2.02773,1.0166 -2.93287,0.9424 -5.12608,1.1305 -5.66043,0.761 -5.40777,0.315 -4.3681,-0.2075 0,0"
       id="path5566" />
    <path
       inkscape:connector-curvature="0"
       style="fill:none;stroke:#000000;stroke-opacity:1;display:inline"
       d="m -736.04206,1406.5234 -14.93303,-39.2502 -14.16291,-37.7121 -0.42582,-3.5861 0.43077,-7.7949 4.37745,-39.119 6.0397,-48.8611 0.20645,-0.6656 0.42611,-0.5055 2.32735,-0.6184 5.65457,-0.2418 10.61418,-0.041 10.10546,-0.1594 9.58612,-0.4939 9.20914,-0.8515 8.97457,-1.2318 8.88236,-1.6351 8.93254,-2.0611 9.12509,-2.5102 9.46004,-2.9819 13.35046,-4.9394 12.95788,-5.7693 12.53212,-6.5636 12.0732,-7.3223 11.5811,-8.0454 11.05582,-8.733 10.49739,-9.3849 9.90577,-10.0013 9.28099,-10.5821 8.62304,-11.1273 7.93191,-11.6369 7.20761,-12.1109 6.45014,-12.5494 5.6595,-12.9522 4.83569,-13.3195 3.97871,-13.6512 3.48806,-14.5965 1.97765,-12.0472 0.88286,-13.1605 0.20371,-17.93658 -0.27133,-18.4152 -1.04229,-14.1769 -0.91446,-6.3794 -1.23224,-6.3764 -3.58456,-14.1521 -2.76794,-9.187 -3.11929,-9.0273 -3.46407,-8.8578 -3.80225,-8.6787 -4.13385,-8.4898 -4.45886,-8.2911 -4.77729,-8.0827 -5.08912,-7.8646 -5.39437,-7.6367 -5.69303,-7.3991 -5.98511,-7.1518 -6.2706,-6.8946 -6.5495,-6.6279 -6.82181,-6.3512 -7.08754,-6.065 -7.34668,-5.7689 -11.52619,-8.1303 -11.90273,-7.3614 -12.2435,-6.5867 -12.54849,-5.806 -12.8177,-5.0194 -13.05114,-4.2269 -13.24879,-3.4286 -13.41068,-2.6244 -13.53678,-1.8142 -13.62712,-0.9982 -13.68165,-0.1762 -13.70041,0.6515 -13.68342,1.4853 -13.63063,2.3249 -13.54206,3.1704 -13.41773,4.0217 -10.79567,3.898 -10.52485,4.3991 -10.2405,4.8885 -9.94264,5.3661 -9.63125,5.8317 -9.30634,6.2857 -8.96792,6.7278 -8.61596,7.1581 -8.2505,7.5765 -7.8715,7.9833 -7.47899,8.3781 -7.07295,8.7611 -6.6534,9.1323 -6.22032,9.4918 -5.77373,9.8394 -5.3136,10.1752 -5.64829,12.2729 -4.83363,12.1929 -4.03794,12.1943 -3.26122,12.2771 -2.50349,12.4412 -1.76471,12.6866 -1.04491,13.0134 -0.34409,13.4216 0.21808,10.32668 0.65279,10.2141 1.08527,10.0957 1.51557,9.9712 1.94365,9.8406 2.36952,9.704 2.7932,9.5615 3.21466,9.4129 3.63393,9.2584 4.05097,9.0977 4.46584,8.9312 4.87847,8.7585 5.28892,8.5798 5.69716,8.3953 6.10318,8.2045 6.50701,8.0079 5.46204,6.4386 -35.94321,33.8507 -35.9432,33.8507 -43.74693,13.1107 -43.7469,13.1107 -2,-2.3448 -15.326,-22.793 -13.3261,-20.4482 27.7285,-33.3177 29.2103,-35.0449 0.6363,-1.3205 -0.2494,-2.2833 -1.3785,-4.2182 -2.7509,-7.125 -4.9975,-13.8931 -4.6789,-14.8385 -4.7019,-15.7616 -44.2079,-10.4507 -44.1964,-10.3631 -2.0082,-27.2336 -1.7699,-27.07128 42.0083,-15.7658 42.7021,-16.357 1.1013,-4.6769 1.6734,-10.4142 2.6374,-15.0338 3.4187,-15.7835 3.9753,-17.1322 -9.6735,-9.7186 -23.2575,-22.2215 -32.931,-31.125 11.9016,-24.2427 8.9196,-17.3864 2.8649,-4.9539 1.3965,-1.7218 45.1973,7.4402 43.918,7.2596 2.58204,-3.4094 7.09329,-9.0873 7.25528,-8.7531 7.31918,-8.3041 7.28498,-7.7403 7.86007,-8.3165 3.26923,-3.9672 -12.5,-42.9613 -12.4912,-43.2164 1.77999,-1.6 4.8398,-3.5248 15.90311,-10.742 22.5141,-14.74193 34.2271,28.58603 24.52941,20.3354 10.91139,8.7496 1.49496,-0.2094 3.17323,-0.9391 9.51918,-3.462 13.62895,-4.8896 14.5491,-4.581 10.95202,-3.4832 3.49813,-1.3734 1.4825,-0.877 3.39077,-13.4536 7.12956,-30.41882 7.08833,-30.21705 3.29164,-12.96865 2.56164,-0.50785 6.15413,-0.62189 18.29344,-1.29871 18.2864,-0.89333 6.14535,-0.11516 2.54932,0.20157 10.68865,27.1461 20.61391,54.50049 0.64059,1.2866 0.85966,0.9257 1.1486,0.6185 1.50743,0.3651 28.17806,4.6546 10.78406,2.1633 8.75011,2.0855 12.57341,3.3223 31.29841,-33.2317 31.29841,-33.23174 24.06503,11.92835 24.33649,12.19979 -7.22137,45.1453 -5.06137,31.9147 -1.36033,9.8817 -0.28662,3.8349 8.60719,6.734 8.86056,7.2277 10.60659,9.2529 9.76085,8.9606 6.32335,6.3505 3.62598,4.142 43,-12.8364 44,-12.8541 1.56421,1.7667 3.51976,4.8237 10.81892,15.8703 8.04649,12.2473 4.28745,6.9872 1.4675,3.4265 -0.0303,0.909 -0.38309,0.656 -56.1587,68.0129 -0.009,1.2372 0.58466,2.4317 2.62492,7.3311 3.9829,10.616 4.31662,12.7087 3.61652,11.6296 1.88255,7.3786 0.76692,2.9767 0.97619,1.7306 13.36212,3.4997 30.54584,7.2304 30.5069,7.1628 13.26846,3.3376 0.52504,2.4762 0.69989,6.1185 1.56293,18.3253 1.17827,18.3793 0.21904,6.1858 -0.14814,2.5706 -42.7986,16.45338 -42.20346,15.8618 -0.62039,5.5466 -1.34379,9.796 -1.94419,11.2388 -2.33239,11.5506 -2.50834,10.7316 -2.37388,9.9532 -0.79664,4.5929 28.82654,27.6014 32.83165,31.0487 4.33165,4.223 -12.08565,24.1552 -8.69391,17.0596 -3.93103,7.0956 -87.45816,-14.5383 -1.45934,-0.046 -1.39893,0.7307 -1.7198,1.8196 -2.42193,3.2203 -5.31817,7.0015 -6.20637,7.4459 -7.28966,8.1153 -8.56804,9.0097 -10.95169,11.2582 12.80999,43.1576 9.2967,32.4212 2.17449,8.67 0.4485,3.3567 -7.16141,5.1589 -14.93016,10.0366 -14.95542,9.7798 -7.23717,4.3885 -10.65291,-8.5421 -24.76115,-20.5172 -34.80792,-29.0451 -11.19208,4.4351 -18.39154,6.7367 -18.17962,5.3845 -9.75306,2.8612 -10.48243,43.7875 -7.37752,30.9174 -3.54262,13.3695 -1.87963,0.4429 -4.51776,0.5607 -14.24111,1.1867 -26.50483,1.8771 -6.67804,0.5599 -1.97406,-5.2503 0,0"
       id="path5564" />
    <path
       inkscape:connector-curvature="0"
       style="fill:none;stroke:#000000;stroke-opacity:1;display:inline"
       d="m -867.71199,1370.9075 -9.57259,-2.7971 -12.14741,-4.2582 -17.43094,-6.725 -25.42316,-10.1977 -21.65556,-8.4481 -13.34444,-4.6437 -7.4259,-1.9345 -1.75,2.0458 -1.75,2.0457 -0.01,-2.3608 -0.68522,-3.1461 -1.66039,-4.1549 -2.07036,-3.9377 -1.91512,-2.4945 -1.17157,-1.4554 -0.48734,-1.5721 0.4785,-1.9894 1.19805,-1.9821 1.56145,-1.5224 1.5687,-0.6104 2.51777,-0.8817 3.67553,-2.114 2.05031,-1.1897 2.22543,-0.9187 2.46712,-0.6312 2.77538,-0.3269 3.15018,-0.01 3.59156,0.3314 8.77352,1.7423 11.33779,3.2923 14.43457,4.9758 18.06385,6.7926 22.22565,8.7426 24.34387,9.4595 16.02952,5.5835 5.24388,1.4448 3.58168,0.6036 2.0583,-0.195 0.50125,-0.3836 0.17245,-0.5673 0.307,0.067 0.81642,1.1065 2.664,4.5765 5.1375,9.1272 0.65639,1.2288 0.1435,1.1132 -0.40358,1.3173 -0.98486,1.8407 -1.12917,1.6024 -1.40552,1.3279 -1.76386,1.0786 -2.20418,0.8543 -6.05735,1.1364 -8.8026,0.5406 -6.42473,0.087 -4.99033,-0.2917 -4.90779,-0.8227 -6.17715,-1.506 0,0"
       id="path5562" />
    <path
       inkscape:connector-curvature="0"
       style="fill:none;stroke:#000000;stroke-opacity:1;display:inline"
       d="m -833.71199,1331.3765 -11.31673,-2.5201 -12.16479,-3.7574 -16.64299,-6.2568 -24.75132,-10.018 -18.56269,-7.4213 -15.21128,-5.6826 -11.00465,-3.6397 -3.65756,-0.9587 -2.28518,-0.3339 -1.19718,0.1368 -1.02135,0.4217 -0.83674,0.7013 -0.64338,0.9755 -0.90984,1.5761 -0.0845,-1.3261 -0.0202,-3.0805 -0.57497,-2.6736 -1.34092,-2.8787 -2.31804,-3.6958 -2.11553,-3.2941 -1.04691,-2.1201 -0.15318,-1.4692 0.56562,-1.3415 2.08914,-2.0829 3.20522,-1.9631 7.4844,-3.8891 1.74462,-0.8304 1.98857,-0.5992 4.84316,-0.4709 6.22141,0.5555 7.86793,1.6498 9.78274,2.8119 11.96581,4.0419 14.41717,5.3395 17.13681,6.7051 37.95467,14.7899 11.59323,4.1706 7.4638,2.3172 4.81968,0.9313 1.25411,-0.2596 1.05617,-0.7494 0.91723,-0.7319 0.59175,-0.087 0.42514,0.6446 0.41745,1.4635 1.59842,3.7614 2.87978,5.1165 3.79226,6.0815 -1.86289,3.6312 -1.15029,1.8902 -1.36273,1.3515 -1.88326,1.0397 -2.71188,0.9549 -6.13764,1.3277 -7.06912,0.6404 -7.27706,-0.075 -6.76144,-0.8199 0,1e-4"
       id="path5560" />
    <path
       inkscape:connector-curvature="0"
       style="fill:none;stroke:#000000;stroke-opacity:1;display:inline"
       d="m 1064.7881,1141.2733 0,-14.5 -5.5,0 -3.0531,-0.058 -1.6469,-0.3054 -0.6719,-0.7485 -0.1281,-1.3878 0,-2.5 13.5,0 13.5,0 0,2.5 -0.1281,1.3878 -0.6719,0.7485 -1.6469,0.3054 -3.0531,0.058 -5.5,0 0,14.5 0,14.5 -2.5,0 -2.5,0 0,-14.5 0,0"
       id="path5554" />
    <path
       inkscape:connector-curvature="0"
       style="fill:none;stroke:#000000;stroke-opacity:1;display:inline"
       d="m 1087.7881,1138.7158 0,-17.0575 4.1135,0.3075 4.1134,0.3075 4.8007,12 3.6396,8.2697 1.1681,1.9737 0.3745,0.3559 0.2171,-0.099 4.9242,-12 4.3255,-10.5 4.1617,-0.3075 4.1617,-0.3075 0,17.0575 0,17.0575 -2.4718,0 -2.4718,0 -0.2782,-13.7291 -0.2782,-13.7292 -5.4313,13.775 -4.2699,10.1116 -1.5861,2.5167 -0.7253,0.6221 -0.7065,0.1973 -0.7076,-0.2279 -0.7285,-0.6535 -1.5992,-2.5855 -4.3219,-10.2975 -5.3012,-13.5 -0.061,13.75 -0.061,13.75 -2.5,0 -2.5,0 0,-17.0575 -5e-4,0"
       id="path5552" />
    <path
       inkscape:connector-curvature="0"
       style="fill:none;stroke:#000000;stroke-opacity:1;display:inline"
       d="m 155.28806,1026.5762 -33.2172,-87.01318 -2.2173,-5.8589 10.1798,0.2846 10.1797,0.2846 23.0375,61.7395 16.42736,43.60658 7.14514,18.1434 7.16373,-18.1316 16.47227,-43.60788 23.1011,-61.75 10.2093,-0.286 7.24124,0.054 2.00408,0.2332 0.61858,0.3507 -37.27643,97.23228 -29.56807,75.894 -9.45996,-23.8542 -22.04084,-57.3214 0,0"
       id="path5550" />
    <path
       inkscape:connector-curvature="0"
       style="fill:none;stroke:#000000;stroke-opacity:1;display:inline"
       d="m -151.22242,1039.3566 -63.48952,-66.41668 -0.25746,62.91668 -0.25745,62.9167 -9.49255,0 -9.49254,0 0.0271,-86.25 0.0271,-86.24998 3.69165,4 64.22294,67.4033 60.53129,63.40328 0.2574,-63.65328 0.2574,-63.6533 8.992595,0 8.9926,0 0,85.99998 -0.2605,86 -63.749975,-66.4167 -8e-5,0"
       id="path5548" />
    <path
       inkscape:connector-curvature="0"
       style="fill:none;stroke:#000000;stroke-opacity:1;display:inline"
       d="m 12.848655,1100.7492 -7.09992,-1.2945 -6.93191,-1.8754 -6.72867,-2.4382 -6.49019,-2.983 -6.21647,-3.5098 -5.90752,-4.0187 -5.56332,-4.5095 -5.1839,-4.9822 -3.93255,-4.338 -3.54146,-4.3851 -3.16907,-4.4652 -2.8154,-4.578 -2.48043,-4.7238 -2.1642,-4.9024 -1.86665,-5.1138 -1.58784,-5.3583 -0.9123,-4.4554 -0.63044,-5.2343 -0.42603,-11.7671 0.66923,-11.7674 0.73863,-5.23488 1.00441,-4.4561 2.03617,-6.2547 2.45953,-6.016 2.86455,-5.7616 3.25123,-5.4916 3.61958,-5.2058 3.96958,-4.9042 4.30124,-4.5871 4.61457,-4.2541 4.90955,-3.9054 5.1862,-3.5411 5.4445,-3.1611 5.68447,-2.7652 5.90609,-2.3538 6.10938,-1.9266 6.29433,-1.4836 6.46093,-1.025 9.85015,-0.6072 9.76881,0.5414 9.59679,1.6574 9.3341,2.7413 8.98071,3.7926 8.53666,4.8117 8.0019,5.7985 7.37648,6.7528 3.61965,3.9467 3.31858,4.0906 3.01964,4.2221 2.72286,4.3407 2.428225,4.4469 2.13571,4.5403 3.40246,9.3105 2.25813,9.53268 1.13093,9.6538 0.0209,9.6738 -1.07208,9.5928 -2.14789,9.4106 -3.20658,9.1274 -4.248135,8.743 -5.27256,8.2576 -6.27985,7.6711 -3.51231,3.584 -3.75771,3.3995 -4.00097,3.2023 -4.24209,2.9925 -4.48107,2.77 -4.7179,2.535 -8.62516,3.7497 -8.09874,2.7083 -7.88968,1.4813 -9.06178,0.8824 -9.01493,0.21 -7.74911,-0.5361 0,0"
       id="path5546" />
    <path
       inkscape:connector-curvature="0"
       style="fill:none;stroke:#000000;stroke-opacity:1;display:inline"
       d="m 39.288095,1082.6674 8.49261,-2.6894 7.97382,-3.7041 7.38756,-4.6557 6.73381,-5.5442 6.01259,-6.3696 5.2239,-7.1321 4.36773,-7.8313 3.44408,-8.4677 1.21522,-4.0792 0.7186,-4.0124 0.34267,-4.9666 0.0874,-6.9418 -0.0881,-6.9176 -0.34141,-4.9787 -0.71041,-4.0305 -1.19509,-4.07318 -3.03854,-7.708 -3.73849,-7.1093 -4.3782,-6.487 -4.95767,-5.8415 -5.47687,-5.1726 -5.93584,-4.4802 -6.33457,-3.7644 -6.67303,-3.0254 -6.95127,-2.2629 -7.16924,-1.4769 -7.32698,-0.6678 -7.42447,0.165 -7.46171,1.0209 -7.43871,1.9004 -7.35545,2.8032 -7.21196,3.7293 -6.09363,4.404 -6.5988,6.0284 -6.03078,6.5812 -4.38959,6.0626 -2.78709,5.2114 -2.30816,5.3457 -1.83287,5.452 -1.36121,5.53008 -0.89317,5.5801 -0.42879,5.6021 0.032,5.5961 0.4891,5.5618 0.94259,5.4996 1.39245,5.4093 1.83867,5.2908 2.28126,5.1443 2.72021,4.9698 3.15554,4.767 3.58722,4.5364 4.01527,4.2775 4.05,3.6787 4.25985,3.3157 4.46003,2.9479 4.65053,2.5752 4.83136,2.1976 5.00252,1.8151 5.164,1.4279 5.31581,1.0356 5.49072,0.4637 6.40115,-0.052 6.39115,-0.526 5.46068,-0.9584 0,0"
       id="path5544" />
    <path
       inkscape:connector-curvature="0"
       style="fill:none;stroke:#000000;stroke-opacity:1;display:inline"
       d="m 235.2123,1097.0597 13.52381,-31.3521 25.68123,-57.8971 24.99721,-55.66628 8.22914,-18.0041 3.24261,-6.6554 31.48141,72.4834 40.95039,95.55528 1.3679,3.25 -10.27791,0 -10.2779,0 -26.8873,-64.4505 -19.13985,-45.36738 -8.26065,-18.5698 -27.7129,64.20048 -27.1997,63.6872 -10.1918,0.2863 -8.53044,-0.031 -1.09305,-0.5003 0.0978,-0.9689 0,0"
       id="path5261" />
    <g
       transform="translate(-496.85006,466.6043)"
       style="font-size:22px;font-style:normal;font-variant:normal;font-weight:normal;font-stretch:normal;line-height:125%;letter-spacing:0px;word-spacing:0px;fill:none;stroke:#000000;stroke-opacity:1;display:inline;font-family:Futura-Medium;-inkscape-font-specification:Futura-Medium"
       id="text5255">
      <path
         inkscape:connector-curvature="0"
         d="m -545.58786,1106.8523 3.20046,-0.6721 2.87894,-1.1855 2.55742,-1.6989 2.23591,-2.2123 1.81571,-2.5858 1.29695,-2.8192 0.77818,-3.0528 0.25941,-3.2863 -0.55,-4.4399 -1.64988,-4.1911 -2.60422,-3.6104 -1.60533,-1.4631 -1.80749,-1.2349 -3.4553,-1.5568 -3.72437,-0.8508 -9.33775,-0.4977 -9.46314,0 0,62.5818 7.80151,0 0,-26.477 3.23713,0 18.42727,26.477 9.4606,0 -19.75201,-27.2242 m -11.37299,-28.3869 2.07703,0 6.22348,0.4154 2.79099,0.6023 2.56242,0.9758 2.20967,1.4425 1.73288,2.0023 1.12081,2.583 0.37364,3.1845 -0.34229,3.2473 -1.02678,2.6039 -1.61827,2.0128 -2.11658,1.4738 -2.47978,1.0173 -2.70772,0.643 -6.30706,0.456 -2.49244,0 0,-22.6599"
         style="font-size:83px;fill:none;stroke:#000000;stroke-opacity:1;font-family:Futura-Medium;-inkscape-font-specification:Futura-Medium"
         id="path5300" />
      <path
         inkscape:connector-curvature="0"
         d="m -486.41287,1115.9 0,-1.1626 -0.29052,-4.3544 -0.87151,-3.9344 -1.45248,-3.5144 -2.03347,-3.0944 -2.58855,-2.5238 -3.1176,-1.8028 -3.64666,-1.0816 -4.17573,-0.3606 -4.29994,0.3631 -3.77102,1.0893 -3.24211,1.8154 -2.71319,2.5415 -2.14264,3.1226 -1.53046,3.5584 -0.91828,3.9942 -0.30609,4.4301 0.33213,4.1709 0.9964,3.8801 1.61888,3.4965 2.19956,3.0196 2.7492,2.4696 3.26784,1.8465 3.74529,1.1513 4.18161,0.3837 2.80381,-0.1764 2.68446,-0.529 2.5651,-0.8818 2.44574,-1.2345 2.25891,-1.5457 2.00467,-1.8155 1.75044,-2.0853 1.49621,-2.355 -6.30707,-3.569 -2.39747,3.3299 -2.5418,2.3554 -2.97751,1.401 -3.70444,0.467 -2.45302,-0.2387 -2.2146,-0.7159 -1.97618,-1.1932 -1.73776,-1.6706 -1.42147,-1.9973 -1.02727,-2.1735 -0.63308,-2.3498 -0.23889,-2.5259 29.63056,0 m -29.21515,-5.6434 0.47967,-2.024 0.7754,-1.8368 1.07113,-1.6498 1.36685,-1.4626 1.59512,-1.1979 1.75597,-0.8557 1.91682,-0.5134 2.07767,-0.1712 2.10124,0.1634 1.90399,0.4902 1.70674,0.8168 1.5095,1.1436 1.27596,1.4239 1.00621,1.6575 0.73647,1.8912 0.46671,2.1248 -21.74545,0"
         style="font-size:83px;fill:none;stroke:#000000;stroke-opacity:1;font-family:Futura-Medium;-inkscape-font-specification:Futura-Medium"
         id="path5302" />
      <path
         inkscape:connector-curvature="0"
         d="m -463.23123,1128.7649 -2.67656,-0.2594 -2.3862,-0.7782 -2.09587,-1.2969 -1.80551,-1.8157 -1.45282,-2.1789 -1.03772,-2.3865 -0.62263,-2.5939 -0.20754,-2.8016 0.21007,-2.7623 0.63023,-2.5601 1.05039,-2.3577 1.47054,-2.1554 1.81818,-1.7974 2.09333,-1.2839 2.36848,-0.7703 2.64363,-0.2568 2.75474,0.2516 2.45364,0.7549 2.15254,1.2582 1.85145,1.7614 1.48825,2.1297 1.06305,2.3629 0.63783,2.596 0.21263,2.8292 -0.21009,2.8695 -0.63024,2.6305 -1.05038,2.3917 -1.47052,2.1528 -1.83879,1.7792 -2.15508,1.2708 -2.47137,0.7624 -2.78766,0.2542 0,0 m 12.20126,5.3116 7.4697,0 0,-72.0449 -7.4697,0 0,39.6737 -0.16717,0 -2.66597,-3.1848 -3.18517,-2.4168 -3.64178,-1.5245 -4.03562,-0.5082 -3.90172,0.4151 -3.56924,1.2452 -3.15386,1.9508 -2.65548,2.5313 -2.12642,3.0396 -1.56664,3.4752 -0.96506,3.7659 -0.32168,3.9115 0.31124,4.1186 0.93371,3.8906 1.5356,3.5693 2.11693,3.1544 2.67701,2.6252 3.21592,1.981 3.69304,1.2443 4.10847,0.4148 3.84945,-0.498 3.57972,-1.4942 3.16428,-2.3446 2.60327,-3.0493 0.16717,0 0,6.0588"
         style="font-size:83px;fill:none;stroke:#000000;stroke-opacity:1;font-family:Futura-Medium;-inkscape-font-specification:Futura-Medium"
         id="path5304" />
      <path
         inkscape:connector-curvature="0"
         d="m -424.66693,1095.2336 -7.4697,0 0,38.8429 7.4697,0 0,-38.8429 m -3.73358,-22.9917 -1.99218,0.3838 -1.66035,1.1512 -1.12084,1.6908 -0.37361,2.0023 0.37361,1.9295 1.12084,1.6394 1.66035,1.1209 1.99218,0.3736 1.99185,-0.3736 1.65941,-1.1209 1.11987,-1.6394 0.37331,-1.9295 -0.37331,-2.0023 -1.11987,-1.6908 -1.65941,-1.1512 -1.99185,-0.3838 0,0"
         style="font-size:83px;fill:none;stroke:#000000;stroke-opacity:1;font-family:Futura-Medium;-inkscape-font-specification:Futura-Medium"
         id="path5306" />
      <path
         inkscape:connector-curvature="0"
         d="m -391.05963,1100.877 -1.87853,-2.8739 -2.47943,-2.1476 -2.95629,-1.3384 -3.30898,-0.4461 -2.28014,0.2049 -2.10885,0.6145 -1.93756,1.0243 -1.76626,1.4339 -1.47054,1.7297 -1.05039,1.9115 -0.63023,2.0931 -0.21007,2.2749 0.45656,3.248 1.3697,2.4385 2.32399,2.0441 3.31944,2.0644 7.30252,3.9008 2.11756,1.8667 0.46731,1.0272 0.1558,1.3386 -0.42556,2.1888 -1.27659,1.7538 -1.8991,1.1521 -2.29295,0.3841 -2.27208,-0.3217 -1.83638,-0.965 -1.54574,-1.5666 -1.40009,-2.1265 -6.39066,2.9053 0.89239,1.891 1.18274,1.6884 1.47307,1.486 1.76342,1.2835 3.94191,1.7734 2.06452,0.4433 2.1269,0.1478 2.60482,-0.2384 2.50036,-0.7153 2.30308,-1.1512 2.01308,-1.5464 1.66034,-1.8991 1.24497,-2.2093 0.77791,-2.4585 0.25933,-2.6467 -0.15049,-1.9708 -0.45142,-1.7634 -0.75236,-1.556 -1.0533,-1.3487 -2.84295,-2.3449 -3.71362,-2.0548 -1.65909,-0.7472 -3.3109,-1.566 -2.29327,-1.3799 -1.33836,-1.4627 -0.44611,-1.8149 0.31123,-1.4637 0.93372,-1.2352 1.32821,-0.8406 1.49477,-0.2802 1.52578,0.2387 1.42132,0.7162 1.19269,1.0898 0.84001,1.3596 6.05884,-3.2372"
         style="font-size:83px;fill:none;stroke:#000000;stroke-opacity:1;font-family:Futura-Medium;-inkscape-font-specification:Futura-Medium"
         id="path5308" />
      <path
         inkscape:connector-curvature="0"
         d="m -352.23444,1096.6445 -2.29298,-1.1006 -2.5627,-0.8093 -2.70775,-0.4977 -2.72798,-0.1659 -4.27502,0.3838 -4.02548,1.1512 -3.65191,1.8671 -3.15416,2.5313 -2.58362,3.1023 -1.94024,3.5797 -1.21392,3.984 -0.40464,4.3152 0.40464,4.1709 1.21392,3.8801 1.9298,3.4965 2.55227,3.0196 3.10224,2.4696 3.57971,1.8465 3.92195,1.1513 4.12906,0.3837 2.87853,-0.1608 2.74398,-0.4826 2.60943,-0.8042 2.47487,-1.1259 0,-9.5442 -2.37561,2.2518 -2.56241,1.6085 -2.74921,0.965 -2.936,0.3217 -2.81476,-0.2438 -2.55006,-0.7314 -2.28535,-1.219 -2.02066,-1.7066 -1.65229,-2.0801 -1.1802,-2.3398 -0.70812,-2.5995 -0.23604,-2.8591 0.24918,-2.6032 0.74754,-2.5007 1.19365,-2.3141 1.58754,-2.0439 1.92947,-1.7116 2.21952,-1.3178 2.43764,-0.8406 2.58395,-0.2802 3.15431,0.3269 2.90514,0.9807 2.65597,1.6346 2.4068,2.2883 0,-9.6277"
         style="font-size:83px;fill:none;stroke:#000000;stroke-opacity:1;font-family:Futura-Medium;-inkscape-font-specification:Futura-Medium"
         id="path5310" />
      <path
         inkscape:connector-curvature="0"
         d="m -326.88712,1094.071 -4.12873,0.3942 -3.92101,1.1826 -3.57876,1.888 -3.10192,2.5104 -2.54214,3.0605 -1.8994,3.5379 -1.18353,3.9115 -0.39451,4.1813 0.39451,4.1813 1.18353,3.9115 1.8994,3.5379 2.54214,3.0605 3.10192,2.5105 3.57876,1.8879 3.92101,1.1826 4.12873,0.3942 4.18127,-0.3942 3.91154,-1.1826 3.54833,-1.8879 3.09182,-2.5105 2.5418,-3.0605 1.89848,-3.5379 1.18254,-3.9115 0.39422,-4.1813 -0.39422,-4.1813 -1.18254,-3.9115 -1.89848,-3.5379 -2.5418,-3.0605 -3.09182,-2.5104 -3.54833,-1.888 -3.91154,-1.1826 -4.18127,-0.3942 0,0 m 0,7.1379 2.65706,0.2593 2.48992,0.7779 2.27172,1.2551 2.00265,1.6907 1.64988,2.0439 1.21363,2.3141 0.74656,2.5216 0.24889,2.6659 -0.25934,2.6153 -0.77791,2.5317 -1.23452,2.3341 -1.62899,2.0226 -1.97129,1.6698 -2.26128,1.276 -2.48992,0.8093 -2.65706,0.2697 -2.6555,-0.2697 -2.4902,-0.8093 -2.26195,-1.276 -1.97063,-1.6698 -1.62838,-2.0226 -1.23513,-2.3341 -0.77889,-2.5317 -0.25962,-2.6153 0.25962,-2.6659 0.77889,-2.5216 1.23513,-2.3141 1.62838,-2.0439 1.98108,-1.6907 2.29329,-1.2551 2.50065,-0.7779 2.60326,-0.2593 0,0"
         style="font-size:83px;fill:none;stroke:#000000;stroke-opacity:1;font-family:Futura-Medium;-inkscape-font-specification:Futura-Medium"
         id="path5312" />
      <path
         inkscape:connector-curvature="0"
         d="m -297.24896,1095.2336 -8.3841,0 19.50379,40.1702 19.5899,-40.1702 -8.38409,0 -11.20581,24.2354 -11.11969,-24.2354"
         style="font-size:83px;fill:none;stroke:#000000;stroke-opacity:1;font-family:Futura-Medium;-inkscape-font-specification:Futura-Medium"
         id="path5314" />
      <path
         inkscape:connector-curvature="0"
         d="m -228.33475,1115.9 0,-1.1626 -0.29052,-4.3544 -0.8715,-3.9344 -1.45249,-3.5144 -2.03347,-3.0944 -2.58854,-2.5238 -3.1176,-1.8028 -3.64667,-1.0816 -4.17572,-0.3606 -4.29994,0.3631 -3.77103,1.0893 -3.2421,1.8154 -2.71319,2.5415 -2.14265,3.1226 -1.53046,3.5584 -0.91828,3.9942 -0.30609,4.4301 0.33214,4.1709 0.9964,3.8801 1.61888,3.4965 2.19956,3.0196 2.7492,2.4696 3.26784,1.8465 3.74528,1.1513 4.18161,0.3837 2.80381,-0.1764 2.68446,-0.529 2.5651,-0.8818 2.44575,-1.2345 2.2589,-1.5457 2.00468,-1.8155 1.75044,-2.0853 1.4962,-2.355 -6.30707,-3.569 -2.39747,3.3299 -2.5418,2.3554 -2.97751,1.401 -3.70443,0.467 -2.45303,-0.2387 -2.2146,-0.7159 -1.97617,-1.1932 -1.73776,-1.6706 -1.42147,-1.9973 -1.02728,-2.1735 -0.63308,-2.3498 -0.23888,-2.5259 29.63055,0 m -29.21515,-5.6434 0.47968,-2.024 0.7754,-1.8368 1.07112,-1.6498 1.36686,-1.4626 1.59512,-1.1979 1.75597,-0.8557 1.91682,-0.5134 2.07767,-0.1712 2.10123,0.1634 1.90399,0.4902 1.70675,0.8168 1.5095,1.1436 1.27596,1.4239 1.00621,1.6575 0.73646,1.8912 0.46672,2.1248 -21.74546,0"
         style="font-size:83px;fill:none;stroke:#000000;stroke-opacity:1;font-family:Futura-Medium;-inkscape-font-specification:Futura-Medium"
         id="path5316" />
      <path
         inkscape:connector-curvature="0"
         d="m -213.95261,1095.2336 -7.46969,0 0,38.8429 7.46969,0 0,-19.0909 0.33182,-5.1039 0.47714,-2.2619 0.76781,-2.0542 1.1414,-1.7636 1.598,-1.39 2.09601,-0.9023 2.63555,-0.3008 2.51015,0.3939 2.05425,1.1816 3.40429,-6.8061 -3.03007,-1.4305 -3.11235,-0.4768 -3.43439,0.4981 -2.99806,1.4941 -2.43767,2.3654 -1.75311,3.1121 -0.25077,0 0,-6.3071"
         style="font-size:83px;fill:none;stroke:#000000;stroke-opacity:1;font-family:Futura-Medium;-inkscape-font-specification:Futura-Medium"
         id="path5318" />
      <path
         inkscape:connector-curvature="0"
         d="m -160.19815,1102.2043 7.30252,0 0,-6.9707 -7.30252,0 0,-14.8583 -7.4697,0 0,14.8583 -4.06793,0 0,6.9707 4.06793,0 0,31.8722 7.4697,0 0,-31.8722"
         style="font-size:83px;fill:none;stroke:#000000;stroke-opacity:1;font-family:Futura-Medium;-inkscape-font-specification:Futura-Medium"
         id="path5320" />
      <path
         inkscape:connector-curvature="0"
         d="m -148.80743,1062.0316 0,72.0449 7.46969,0 0,-17.8447 0.2077,-6.0588 0.37361,-2.3547 0.70544,-2.2515 1.16166,-1.982 1.74237,-1.5464 2.37559,-0.9964 3.06141,-0.3321 2.42498,0.1686 1.96335,0.5058 1.50173,0.843 1.04011,1.1802 0.70811,1.5381 0.50579,1.9169 0.40467,4.9696 0,22.2444 7.46969,0 0,-23.1563 -0.15549,-3.5594 -0.46635,-3.2061 -0.86092,-2.8426 -1.33895,-2.469 -1.85795,-2.0229 -2.41769,-1.5043 -3.01867,-0.9337 -3.66074,-0.3112 -3.53825,0.4151 -3.30961,1.2452 -2.81191,2.0128 -2.04504,2.7175 -0.16464,0 0,-38.43 -7.46969,0"
         style="font-size:83px;fill:none;stroke:#000000;stroke-opacity:1;font-family:Futura-Medium;-inkscape-font-specification:Futura-Medium"
         id="path5322" />
      <path
         inkscape:connector-curvature="0"
         d="m -71.250763,1115.9 0,-1.1626 -0.29052,-4.3544 -0.871504,-3.9344 -1.452486,-3.5144 -2.03347,-3.0944 -2.588543,-2.5238 -3.117602,-1.8028 -3.646663,-1.0816 -4.175726,-0.3606 -4.299943,0.3631 -3.771023,1.0893 -3.242107,1.8154 -2.71319,2.5415 -2.14264,3.1226 -1.53047,3.5584 -0.91827,3.9942 -0.30609,4.4301 0.33213,4.1709 0.9964,3.8801 1.61888,3.4965 2.19956,3.0196 2.7492,2.4696 3.267844,1.8465 3.745283,1.1513 4.181612,0.3837 2.803813,-0.1764 2.684456,-0.529 2.5651,-0.8818 2.445746,-1.2345 2.258904,-1.5457 2.004672,-1.8155 1.750439,-2.0853 1.496208,-2.355 -6.307068,-3.569 -2.397468,3.3299 -2.541802,2.3554 -2.977512,1.401 -3.704434,0.467 -2.453022,-0.2387 -2.2146,-0.7159 -1.97618,-1.1932 -1.737759,-1.6706 -1.421471,-1.9973 -1.027271,-2.1735 -0.63308,-2.3498 -0.23889,-2.5259 29.630557,0 m -29.215147,-5.6434 0.479671,-2.024 0.7754,-1.8368 1.071127,-1.6498 1.366854,-1.4626 1.595122,-1.1979 1.75597,-0.8557 1.91682,-0.5134 2.077669,-0.1712 2.101234,0.1634 1.903989,0.4902 1.706744,0.8168 1.509499,1.1436 1.275961,1.4239 1.006212,1.6575 0.736464,1.8912 0.466715,2.1248 -21.745451,0"
         style="font-size:83px;fill:none;stroke:#000000;stroke-opacity:1;font-family:Futura-Medium;-inkscape-font-specification:Futura-Medium"
         id="path5324" />
      <path
         inkscape:connector-curvature="0"
         d="m -31.713806,1095.2336 -7.469696,0 0,61.0874 7.469696,0 0,-61.0874 m -3.733582,-22.9917 -1.992178,0.3838 -1.660349,1.1512 -1.120838,1.6908 -0.373607,2.0023 0.373607,1.9295 1.120838,1.6394 1.660349,1.1209 1.992178,0.3736 1.991847,-0.3736 1.659414,-1.1209 1.119872,-1.6394 0.373307,-1.9295 -0.373307,-2.0023 -1.119872,-1.6908 -1.659414,-1.1512 -1.991847,-0.3838 0,0"
         style="font-size:83px;fill:none;stroke:#000000;stroke-opacity:1;font-family:Futura-Medium;-inkscape-font-specification:Futura-Medium"
         id="path5326" />
      <path
         inkscape:connector-curvature="0"
         d="m -2.5062561,1094.071 -4.1287369,0.3942 -3.921007,1.1826 -3.578762,1.888 -3.101917,2.5104 -2.542145,3.0605 -1.899399,3.5379 -1.183526,3.9115 -0.394507,4.1813 0.394507,4.1813 1.183526,3.9115 1.899399,3.5379 2.542145,3.0605 3.101917,2.5105 3.578762,1.8879 3.921007,1.1826 4.1287369,0.3942 4.1812621,-0.3942 3.9115419,-1.1826 3.5483334,-1.8879 3.0918187,-2.5105 2.541794,-3.0605 1.898483,-3.5379 1.182543,-3.9115 0.394224,-4.1813 -0.394224,-4.1813 -1.182543,-3.9115 -1.898483,-3.5379 -2.541794,-3.0605 -3.0918187,-2.5104 -3.5483334,-1.888 -3.9115419,-1.1826 -4.1812621,-0.3942 0,0 m 0,7.1379 2.65705514,0.2593 2.48991756,0.7779 2.2717251,1.2551 2.0026431,1.6907 1.6498811,2.0439 1.2136291,2.3141 0.746563,2.5216 0.24889,2.6659 -0.259338,2.6153 -0.7779089,2.5317 -1.2345259,2.3341 -1.6289842,2.0226 -1.9712977,1.6698 -2.2612767,1.276 -2.48991756,0.8093 -2.65705514,0.2697 -2.6555057,-0.2697 -2.4902005,-0.8093 -2.2619435,-1.276 -1.9706312,-1.6698 -1.628384,-2.0226 -1.235126,-2.3341 -0.778892,-2.5317 -0.259621,-2.6153 0.259621,-2.6659 0.778892,-2.5216 1.235126,-2.3141 1.628384,-2.0439 1.9810797,-1.6907 2.2932888,-1.2551 2.5006489,-0.7779 2.6032635,-0.2593 0,0"
         style="font-size:83px;fill:none;stroke:#000000;stroke-opacity:1;font-family:Futura-Medium;-inkscape-font-specification:Futura-Medium"
         id="path5328" />
      <path
         inkscape:connector-curvature="0"
         d="m 36.508911,1127.4377 -15.27121,28.8833 8.465149,0 31.456818,-61.0874 -8.381561,0 -12.201264,24.6508 -13.113128,-24.6508 -8.715912,0 17.761108,32.2041"
         style="font-size:83px;fill:none;stroke:#000000;stroke-opacity:1;font-family:Futura-Medium;-inkscape-font-specification:Futura-Medium"
         id="path5330" />
      <path
         inkscape:connector-curvature="0"
         d="m 106.43124,1094.071 -4.12873,0.3942 -3.92101,1.1826 -3.578762,1.888 -3.101917,2.5104 -2.542145,3.0605 -1.899399,3.5379 -1.183526,3.9115 -0.394507,4.1813 0.394507,4.1813 1.183526,3.9115 1.899399,3.5379 2.542145,3.0605 3.101917,2.5105 3.578762,1.8879 3.92101,1.1826 4.12873,0.3942 4.18127,-0.3942 3.91154,-1.1826 3.54833,-1.8879 3.09182,-2.5105 2.5418,-3.0605 1.89848,-3.5379 1.18254,-3.9115 0.39422,-4.1813 -0.39422,-4.1813 -1.18254,-3.9115 -1.89848,-3.5379 -2.5418,-3.0605 -3.09182,-2.5104 -3.54833,-1.888 -3.91154,-1.1826 -4.18127,-0.3942 0,0 m 0,7.1379 2.65706,0.2593 2.48992,0.7779 2.27172,1.2551 2.00264,1.6907 1.64989,2.0439 1.21362,2.3141 0.74656,2.5216 0.2489,2.6659 -0.25934,2.6153 -0.77791,2.5317 -1.23452,2.3341 -1.62899,2.0226 -1.9713,1.6698 -2.26127,1.276 -2.48992,0.8093 -2.65706,0.2697 -2.6555,-0.2697 -2.4902,-0.8093 -2.261946,-1.276 -1.970631,-1.6698 -1.628384,-2.0226 -1.235126,-2.3341 -0.778892,-2.5317 -0.259621,-2.6153 0.259621,-2.6659 0.778892,-2.5216 1.235126,-2.3141 1.628384,-2.0439 1.98108,-1.6907 2.293287,-1.2551 2.50065,-0.7779 2.60326,-0.2593 0,0"
         style="font-size:83px;fill:none;stroke:#000000;stroke-opacity:1;font-family:Futura-Medium;-inkscape-font-specification:Futura-Medium"
         id="path5332" />
      <path
         inkscape:connector-curvature="0"
         d="m 153.16687,1062.0316 -2.55261,-0.7466 -2.67795,-0.2489 -3.22605,0.2907 -2.70741,0.872 -2.19925,1.3906 -1.7015,1.8465 -1.24528,2.2408 -0.83048,2.5731 -0.46734,2.8841 -0.15577,3.1734 0,18.9263 -3.40177,0 0,6.9707 3.40177,0 0,31.8722 7.47223,0 0,-31.8722 10.29141,0 0,-6.9707 -10.29141,0 0,-16.6846 0.12411,-3.693 0.62184,-3.1954 0.6535,-1.4418 0.96506,-1.1722 1.29718,-0.7779 1.64992,-0.2593 2.0327,0.3736 2.61528,1.0372 0.33182,0.1647 0,-7.5533"
         style="font-size:83px;fill:none;stroke:#000000;stroke-opacity:1;font-family:Futura-Medium;-inkscape-font-specification:Futura-Medium"
         id="path5334" />
      <path
         inkscape:connector-curvature="0"
         d="m 187.97986,1095.2336 -7.4697,0 0,38.8429 7.4697,0 0,-19.0909 0.29129,-5.1039 1.12083,-4.4821 1.06827,-1.9088 1.54575,-1.4942 2.04377,-0.965 2.56241,-0.3217 2.17991,0.3011 1.72212,0.9033 1.29622,1.3805 0.90238,1.7325 0.87134,3.9413 0.16591,4.5251 0,20.5828 7.4697,0 0,-19.0909 0.24949,-5.1875 0.40493,-2.2929 0.71591,-2.1474 1.08914,-1.8775 1.52487,-1.4837 2.01304,-0.965 2.55389,-0.3217 2.10517,0.2492 1.6702,0.7475 1.27626,1.1623 0.92362,1.4935 0.99545,3.5689 0.24823,4.149 0,21.9962 7.47223,0 0,-23.2399 -0.15582,-3.4134 -0.46729,-3.1026 -0.83054,-2.7913 -1.24522,-2.4798 -1.72245,-2.0748 -2.26189,-1.5764 -2.81194,-0.9955 -3.37228,-0.3318 -3.54681,0.4667 -3.34031,1.4001 -2.88443,2.1891 -2.17895,2.8337 -2.13785,-2.9366 -2.59372,-2.1685 -3.02944,-1.3384 -3.4448,-0.4461 -2.99778,0.4252 -2.85336,1.2757 -2.50067,1.9399 -1.93961,2.418 -0.16717,0 0,-4.8962"
         style="font-size:83px;fill:none;stroke:#000000;stroke-opacity:1;font-family:Futura-Medium;-inkscape-font-specification:Futura-Medium"
         id="path5336" />
      <path
         inkscape:connector-curvature="0"
         d="m 261.23557,1128.7649 -2.67656,-0.2594 -2.38621,-0.7782 -2.09586,-1.2969 -1.80552,-1.8157 -1.45281,-2.1789 -1.03773,-2.3865 -0.62263,-2.5939 -0.20754,-2.8016 0.21007,-2.7623 0.63023,-2.5601 1.05039,-2.3577 1.47055,-2.1554 1.81818,-1.7974 2.09333,-1.2839 2.36848,-0.7703 2.64363,-0.2568 2.75473,0.2516 2.45364,0.7549 2.15255,1.2582 1.85145,1.7614 1.48825,2.1297 1.06305,2.3629 0.63783,2.596 0.21263,2.8292 -0.21009,2.8695 -0.63024,2.6305 -1.05038,2.3917 -1.47053,2.1528 -1.83878,1.7792 -2.15508,1.2708 -2.47137,0.7624 -2.78766,0.2542 0,0 m 19.67095,-33.5313 -7.46969,0 0,6.4717 -0.16718,0 -2.60327,-3.1848 -3.16427,-2.4168 -3.64178,-1.5245 -4.03562,-0.5082 -3.96441,0.4046 -3.59014,1.2139 -3.15386,1.9298 -2.65548,2.5523 -2.12643,3.071 -1.56663,3.4856 -0.96506,3.7659 -0.32168,3.9115 0.31124,4.0664 0.93371,3.901 1.5356,3.6006 2.11692,3.1649 2.67702,2.6252 3.21591,1.981 3.69305,1.2443 4.10847,0.4148 3.90169,-0.498 3.56927,-1.4942 3.13293,-2.3446 2.59282,-3.0493 0.16718,0 0,6.0588 7.46969,0 0,-38.8429"
         style="font-size:83px;fill:none;stroke:#000000;stroke-opacity:1;font-family:Futura-Medium;-inkscape-font-specification:Futura-Medium"
         id="path5338" />
      <path
         inkscape:connector-curvature="0"
         d="m 298.63724,1062.0316 -7.4697,0 0,72.0449 7.4697,0 0,-15.1065 2.57348,-2.5735 13.86036,17.68 9.71136,0 -18.2601,-22.7409 16.60101,-16.102 -9.87601,0 -14.6101,14.6076 0,-47.8096"
         style="font-size:83px;fill:none;stroke:#000000;stroke-opacity:1;font-family:Futura-Medium;-inkscape-font-specification:Futura-Medium"
         id="path5340" />
      <path
         inkscape:connector-curvature="0"
         d="m 338.21979,1095.2336 -7.4697,0 0,38.8429 7.4697,0 0,-38.8429 m -3.73358,-22.9917 -1.99218,0.3838 -1.66035,1.1512 -1.12084,1.6908 -0.37361,2.0023 0.37361,1.9295 1.12084,1.6394 1.66035,1.1209 1.99218,0.3736 1.99184,-0.3736 1.65942,-1.1209 1.11987,-1.6394 0.37331,-1.9295 -0.37331,-2.0023 -1.11987,-1.6908 -1.65942,-1.1512 -1.99184,-0.3838 0,0"
         style="font-size:83px;fill:none;stroke:#000000;stroke-opacity:1;font-family:Futura-Medium;-inkscape-font-specification:Futura-Medium"
         id="path5342" />
      <path
         inkscape:connector-curvature="0"
         d="m 357.63492,1095.2336 -7.4697,0 0,38.8429 7.4697,0 0,-17.8447 0.2077,-6.0588 0.3736,-2.3547 0.70544,-2.2515 1.16167,-1.982 1.74237,-1.5464 2.37558,-0.9964 3.06142,-0.3321 2.42498,0.1686 1.96335,0.5058 1.50173,0.843 1.04011,1.1802 0.7081,1.5381 0.5058,1.9169 0.40466,4.9696 0,22.2444 7.4697,0 0,-23.1563 -0.15549,-3.5594 -0.46635,-3.2061 -0.86092,-2.8426 -1.33896,-2.469 -1.85795,-2.0229 -2.41768,-1.5043 -3.01868,-0.9337 -3.66074,-0.3112 -3.53824,0.4151 -3.30961,1.2452 -2.81191,2.0128 -2.04504,2.7175 -0.16464,0 0,-5.228"
         style="font-size:83px;fill:none;stroke:#000000;stroke-opacity:1;font-family:Futura-Medium;-inkscape-font-specification:Futura-Medium"
         id="path5344" />
      <path
         inkscape:connector-curvature="0"
         d="m 410.2926,1128.7649 -2.67655,-0.2594 -2.38621,-0.7782 -2.09586,-1.2969 -1.80552,-1.8157 -1.45282,-2.1789 -1.03772,-2.3865 -0.62263,-2.5939 -0.20754,-2.8016 0.21015,-2.7623 0.63047,-2.5601 1.05078,-2.3577 1.4711,-2.1554 1.81858,-1.7974 2.09325,-1.2839 2.36792,-0.7703 2.6426,-0.2568 2.75482,0.2516 2.45388,0.7549 2.15294,1.2582 1.852,1.7614 1.48881,2.1297 1.06344,2.3629 0.63807,2.596 0.21271,2.8292 -0.21009,2.8695 -0.63024,2.6305 -1.05038,2.3917 -1.47053,2.1528 -1.83894,1.7792 -2.15555,1.2708 -2.47217,0.7624 -2.78877,0.2542 0,0 m 19.67096,-33.5313 -7.46969,0 0,6.6389 -0.16718,0 -2.66596,-3.3102 -3.18517,-2.4586 -3.64178,-1.5245 -4.03562,-0.5082 -3.89982,0.4151 -3.56861,1.2452 -3.15418,1.9508 -2.65643,2.5313 -2.12737,3.0396 -1.56695,3.4752 -0.96506,3.7659 -0.32168,3.9115 0.31123,4.1186 0.93371,3.8906 1.53561,3.5693 2.11692,3.1544 2.67701,2.6252 3.21592,1.981 3.69304,1.2443 4.10847,0.4148 3.84945,-0.498 3.57972,-1.4942 3.16428,-2.3446 2.60327,-3.0493 0.16718,0 0,7.3861 -0.49773,5.7688 -0.67442,2.3759 -1.02773,2.0644 -1.45299,1.7012 -1.95004,1.2864 -2.47916,0.8093 -3.04016,0.2698 -2.48706,-0.1816 -2.23312,-0.5445 -1.97919,-0.9075 -1.72525,-1.2705 -1.39851,-1.5922 -0.99894,-1.8726 -0.59936,-2.1529 -0.19978,-2.4333 -7.4697,0 0.39736,3.854 1.0249,3.4289 1.65244,3.0036 2.27998,2.5784 2.78308,2.0701 3.16176,1.4786 3.54045,0.8872 3.91913,0.2957 5.04278,-0.4151 4.17085,-1.2453 3.33018,-2.0026 2.52096,-2.6871 1.80502,-3.3097 1.1826,-3.87 0.65347,-4.4406 0.21787,-5.0213 0,-38.0957"
         style="font-size:83px;fill:none;stroke:#000000;stroke-opacity:1;font-family:Futura-Medium;-inkscape-font-specification:Futura-Medium"
         id="path5346" />
      <path
         inkscape:connector-curvature="0"
         d="m 472.19052,1102.2043 7.30252,0 0,-6.9707 -7.30252,0 0,-14.8583 -7.46969,0 0,14.8583 -4.06794,0 0,6.9707 4.06794,0 0,31.8722 7.46969,0 0,-31.8722"
         style="font-size:83px;fill:none;stroke:#000000;stroke-opacity:1;font-family:Futura-Medium;-inkscape-font-specification:Futura-Medium"
         id="path5348" />
      <path
         inkscape:connector-curvature="0"
         d="m 483.58124,1062.0316 0,72.0449 7.46969,0 0,-17.8447 0.20771,-6.0588 0.3736,-2.3547 0.70544,-2.2515 1.16166,-1.982 1.74237,-1.5464 2.37559,-0.9964 3.06141,-0.3321 2.42498,0.1686 1.96335,0.5058 1.50174,0.843 1.04011,1.1802 0.7081,1.5381 0.5058,1.9169 0.40466,4.9696 0,22.2444 7.46969,0 0,-23.1563 -0.15548,-3.5594 -0.46636,-3.2061 -0.86092,-2.8426 -1.33895,-2.469 -1.85795,-2.0229 -2.41769,-1.5043 -3.01868,-0.9337 -3.66073,-0.3112 -3.53824,0.4151 -3.30961,1.2452 -2.81192,2.0128 -2.04503,2.7175 -0.16465,0 0,-38.43 -7.46969,0"
         style="font-size:83px;fill:none;stroke:#000000;stroke-opacity:1;font-family:Futura-Medium;-inkscape-font-specification:Futura-Medium"
         id="path5350" />
      <path
         inkscape:connector-curvature="0"
         d="m 536.15533,1095.2336 -7.46969,0 0,38.8429 7.46969,0 0,-38.8429 m -3.73358,-22.9917 -1.99218,0.3838 -1.66034,1.1512 -1.12085,1.6908 -0.3736,2.0023 0.3736,1.9295 1.12085,1.6394 1.66034,1.1209 1.99218,0.3736 1.99185,-0.3736 1.65941,-1.1209 1.11988,-1.6394 0.3733,-1.9295 -0.3733,-2.0023 -1.11988,-1.6908 -1.65941,-1.1512 -1.99185,-0.3838 0,0"
         style="font-size:83px;fill:none;stroke:#000000;stroke-opacity:1;font-family:Futura-Medium;-inkscape-font-specification:Futura-Medium"
         id="path5352" />
      <path
         inkscape:connector-curvature="0"
         d="m 555.57047,1095.2336 -7.4697,0 0,38.8429 7.4697,0 0,-17.8447 0.2077,-6.0588 0.3736,-2.3547 0.70544,-2.2515 1.16167,-1.982 1.74237,-1.5464 2.37558,-0.9964 3.06141,-0.3321 2.42498,0.1686 1.96335,0.5058 1.50174,0.843 1.04011,1.1802 0.7081,1.5381 0.5058,1.9169 0.40466,4.9696 0,22.2444 7.46969,0 0,-23.1563 -0.15548,-3.5594 -0.46636,-3.2061 -0.86091,-2.8426 -1.33896,-2.469 -1.85795,-2.0229 -2.41769,-1.5043 -3.01868,-0.9337 -3.66073,-0.3112 -3.53824,0.4151 -3.30961,1.2452 -2.81192,2.0128 -2.04503,2.7175 -0.16464,0 0,-5.228"
         style="font-size:83px;fill:none;stroke:#000000;stroke-opacity:1;font-family:Futura-Medium;-inkscape-font-specification:Futura-Medium"
         id="path5354" />
      <path
         inkscape:connector-curvature="0"
         d="m 608.22815,1128.7649 -2.67656,-0.2594 -2.3862,-0.7782 -2.09587,-1.2969 -1.80551,-1.8157 -1.45282,-2.1789 -1.03772,-2.3865 -0.62263,-2.5939 -0.20754,-2.8016 0.21015,-2.7623 0.63047,-2.5601 1.05078,-2.3577 1.4711,-2.1554 1.81858,-1.7974 2.09325,-1.2839 2.36792,-0.7703 2.6426,-0.2568 2.75481,0.2516 2.45388,0.7549 2.15294,1.2582 1.85201,1.7614 1.4888,2.1297 1.06344,2.3629 0.63808,2.596 0.21271,2.8292 -0.2101,2.8695 -0.63024,2.6305 -1.05038,2.3917 -1.47052,2.1528 -1.83894,1.7792 -2.15555,1.2708 -2.47217,0.7624 -2.78877,0.2542 0,0 m 19.67096,-33.5313 -7.4697,0 0,6.6389 -0.16717,0 -2.66597,-3.3102 -3.18517,-2.4586 -3.64178,-1.5245 -4.03562,-0.5082 -3.89982,0.4151 -3.56861,1.2452 -3.15417,1.9508 -2.65643,2.5313 -2.12737,3.0396 -1.56695,3.4752 -0.96506,3.7659 -0.32169,3.9115 0.31124,4.1186 0.93371,3.8906 1.5356,3.5693 2.11693,3.1544 2.67701,2.6252 3.21592,1.981 3.69304,1.2443 4.10847,0.4148 3.84945,-0.498 3.57972,-1.4942 3.16427,-2.3446 2.60328,-3.0493 0.16717,0 0,7.3861 -0.49772,5.7688 -0.67443,2.3759 -1.02772,2.0644 -1.45299,1.7012 -1.95004,1.2864 -2.47916,0.8093 -3.04016,0.2698 -2.48706,-0.1816 -2.23312,-0.5445 -1.97919,-0.9075 -1.72525,-1.2705 -1.39852,-1.5922 -0.99894,-1.8726 -0.59936,-2.1529 -0.19978,-2.4333 -7.46969,0 0.39735,3.854 1.0249,3.4289 1.65244,3.0036 2.27998,2.5784 2.78308,2.0701 3.16177,1.4786 3.54044,0.8872 3.91913,0.2957 5.04278,-0.4151 4.17086,-1.2453 3.33018,-2.0026 2.52096,-2.6871 1.80501,-3.3097 1.18261,-3.87 0.65347,-4.4406 0.21787,-5.0213 0,-38.0957"
         style="font-size:83px;fill:none;stroke:#000000;stroke-opacity:1;font-family:Futura-Medium;-inkscape-font-specification:Futura-Medium"
         id="path5356" />
      <path
         inkscape:connector-curvature="0"
         d="m 659.24701,1100.877 -1.87853,-2.8739 -2.47943,-2.1476 -2.95629,-1.3384 -3.30898,-0.4461 -2.28014,0.2049 -2.10885,0.6145 -1.93755,1.0243 -1.76626,1.4339 -1.47055,1.7297 -1.05039,1.9115 -0.63023,2.0931 -0.21007,2.2749 0.45656,3.248 1.3697,2.4385 2.32398,2.0441 3.31945,2.0644 7.30253,3.9008 2.11755,1.8667 0.46731,1.0272 0.1558,1.3386 -0.42556,2.1888 -1.27659,1.7538 -1.8991,1.1521 -2.29295,0.3841 -2.27208,-0.3217 -1.83638,-0.965 -1.54574,-1.5666 -1.40009,-2.1265 -6.39065,2.9053 0.89239,1.891 1.18273,1.6884 1.47308,1.486 1.76341,1.2835 3.94191,1.7734 2.06452,0.4433 2.1269,0.1478 2.60482,-0.2384 2.50036,-0.7153 2.30308,-1.1512 2.01308,-1.5464 1.66034,-1.8991 1.24497,-2.2093 0.77791,-2.4585 0.25933,-2.6467 -0.15049,-1.9708 -0.45142,-1.7634 -0.75236,-1.556 -1.0533,-1.3487 -2.84295,-2.3449 -3.71362,-2.0548 -1.65909,-0.7472 -3.3109,-1.566 -2.29327,-1.3799 -1.33836,-1.4627 -0.44611,-1.8149 0.31123,-1.4637 0.93372,-1.2352 1.32821,-0.8406 1.49477,-0.2802 1.52578,0.2387 1.42132,0.7162 1.19269,1.0898 0.84001,1.3596 6.05884,-3.2372"
         style="font-size:83px;fill:none;stroke:#000000;stroke-opacity:1;font-family:Futura-Medium;-inkscape-font-specification:Futura-Medium"
         id="path5358" />
      <path
         inkscape:connector-curvature="0"
         d="m 710.27853,1128.7649 -2.67655,-0.2594 -2.38621,-0.7782 -2.09586,-1.2969 -1.80552,-1.8157 -1.45281,-2.1789 -1.03773,-2.3865 -0.62263,-2.5939 -0.20754,-2.8016 0.21007,-2.7623 0.63023,-2.5601 1.05039,-2.3577 1.47055,-2.1554 1.81818,-1.7974 2.09333,-1.2839 2.36847,-0.7703 2.64363,-0.2568 2.75474,0.2516 2.45364,0.7549 2.15255,1.2582 1.85145,1.7614 1.48825,2.1297 1.06304,2.3629 0.63784,2.596 0.21263,2.8292 -0.2101,2.8695 -0.63024,2.6305 -1.05038,2.3917 -1.47052,2.1528 -1.83878,1.7792 -2.15508,1.2708 -2.47137,0.7624 -2.78767,0.2542 0,0 m 19.67096,-33.5313 -7.46969,0 0,6.4717 -0.16718,0 -2.60327,-3.1848 -3.16428,-2.4168 -3.64178,-1.5245 -4.03561,-0.5082 -3.96441,0.4046 -3.59014,1.2139 -3.15386,1.9298 -2.65549,2.5523 -2.12642,3.071 -1.56663,3.4856 -0.96506,3.7659 -0.32168,3.9115 0.31123,4.0664 0.93372,3.901 1.5356,3.6006 2.11692,3.1649 2.67702,2.6252 3.21591,1.981 3.69304,1.2443 4.10848,0.4148 3.90169,-0.498 3.56927,-1.4942 3.13293,-2.3446 2.59282,-3.0493 0.16718,0 0,6.0588 7.46969,0 0,-38.8429"
         style="font-size:83px;fill:none;stroke:#000000;stroke-opacity:1;font-family:Futura-Medium;-inkscape-font-specification:Futura-Medium"
         id="path5360" />
      <path
         inkscape:connector-curvature="0"
         d="m 748.26279,1102.2043 7.30252,0 0,-6.9707 -7.30252,0 0,-14.8583 -7.4697,0 0,14.8583 -4.06793,0 0,6.9707 4.06793,0 0,31.8722 7.4697,0 0,-31.8722"
         style="font-size:83px;fill:none;stroke:#000000;stroke-opacity:1;font-family:Futura-Medium;-inkscape-font-specification:Futura-Medium"
         id="path5362" />
      <path
         inkscape:connector-curvature="0"
         d="m 783.64569,1062.0316 0,72.0449 7.4697,0 0,-17.8447 0.2077,-6.0588 0.3736,-2.3547 0.70544,-2.2515 1.16167,-1.982 1.74237,-1.5464 2.37558,-0.9964 3.06141,-0.3321 2.42498,0.1686 1.96335,0.5058 1.50174,0.843 1.04011,1.1802 0.7081,1.5381 0.5058,1.9169 0.40466,4.9696 0,22.2444 7.4697,0 0,-23.1563 -0.15549,-3.5594 -0.46635,-3.2061 -0.86092,-2.8426 -1.33896,-2.469 -1.85795,-2.0229 -2.41768,-1.5043 -3.01868,-0.9337 -3.66074,-0.3112 -3.53824,0.4151 -3.30961,1.2452 -2.81192,2.0128 -2.04503,2.7175 -0.16464,0 0,-38.43 -7.4697,0"
         style="font-size:83px;fill:none;stroke:#000000;stroke-opacity:1;font-family:Futura-Medium;-inkscape-font-specification:Futura-Medium"
         id="path5364" />
      <path
         inkscape:connector-curvature="0"
         d="m 835.63974,1102.2043 7.30252,0 0,-6.9707 -7.30252,0 0,-14.8583 -7.4697,0 0,14.8583 -4.06793,0 0,6.9707 4.06793,0 0,31.8722 7.4697,0 0,-31.8722"
         style="font-size:83px;fill:none;stroke:#000000;stroke-opacity:1;font-family:Futura-Medium;-inkscape-font-specification:Futura-Medium"
         id="path5366" />
      <path
         inkscape:connector-curvature="0"
         d="m 855.57919,1102.2043 7.30252,0 0,-6.9707 -7.30252,0 0,-14.8583 -7.46969,0 0,14.8583 -4.06794,0 0,6.9707 4.06794,0 0,31.8722 7.46969,0 0,-31.8722"
         style="font-size:83px;fill:none;stroke:#000000;stroke-opacity:1;font-family:Futura-Medium;-inkscape-font-specification:Futura-Medium"
         id="path5368" />
      <path
         inkscape:connector-curvature="0"
         d="m 885.72647,1128.7649 -2.67648,-0.2594 -2.38597,-0.7782 -2.09546,-1.2969 -1.80496,-1.8157 -1.45227,-2.1789 -1.03733,-2.3865 -0.62239,-2.5939 -0.20746,-2.8016 0.21007,-2.7623 0.63023,-2.5601 1.05039,-2.3577 1.47055,-2.1554 1.81802,-1.7974 2.09286,-1.2839 2.36768,-0.7703 2.64252,-0.2568 2.75481,0.2516 2.45388,0.7549 2.15294,1.2582 1.85201,1.7614 1.4888,2.1297 1.06344,2.3629 0.63808,2.596 0.21271,2.8292 -0.2101,2.8695 -0.63024,2.6305 -1.05038,2.3917 -1.47052,2.1528 -1.83894,1.7792 -2.15555,1.2708 -2.47217,0.7624 -2.78877,0.2542 0,0 m -11.86944,-33.5313 -7.4697,0 0,61.0874 7.4697,0 0,-28.3033 0.16717,0 2.60324,3.0493 3.16431,2.3446 3.57969,1.4942 3.84948,0.498 4.11888,-0.4148 3.72442,-1.2443 3.23678,-1.9706 2.65615,-2.5938 2.08555,-3.1335 1.52519,-3.5902 0.93368,-3.922 0.31127,-4.129 -0.32172,-3.9115 -0.96503,-3.7659 -1.56666,-3.4752 -2.12639,-3.0396 -2.65552,-2.5313 -3.15382,-1.9508 -3.56928,-1.2452 -3.90169,-0.4151 -4.03565,0.5082 -3.64174,1.5245 -3.18521,2.4168 -2.66593,3.1848 -0.16717,0 0,-6.4717"
         style="font-size:83px;fill:none;stroke:#000000;stroke-opacity:1;font-family:Futura-Medium;-inkscape-font-specification:Futura-Medium"
         id="path5370" />
      <path
         inkscape:connector-curvature="0"
         d="m 934.83295,1100.877 -1.87853,-2.8739 -2.47943,-2.1476 -2.95629,-1.3384 -3.30898,-0.4461 -2.28014,0.2049 -2.10885,0.6145 -1.93756,1.0243 -1.76626,1.4339 -1.47054,1.7297 -1.05039,1.9115 -0.63023,2.0931 -0.21007,2.2749 0.45656,3.248 1.3697,2.4385 2.32398,2.0441 3.31945,2.0644 7.30252,3.9008 2.11756,1.8667 0.46731,1.0272 0.15579,1.3386 -0.42555,2.1888 -1.27659,1.7538 -1.8991,1.1521 -2.29295,0.3841 -2.27207,-0.3217 -1.83639,-0.965 -1.54574,-1.5666 -1.40009,-2.1265 -6.39066,2.9053 0.89239,1.891 1.18274,1.6884 1.47307,1.486 1.76342,1.2835 3.94191,1.7734 2.06452,0.4433 2.1269,0.1478 2.60482,-0.2384 2.50036,-0.7153 2.30307,-1.1512 2.01309,-1.5464 1.66033,-1.8991 1.24497,-2.2093 0.77792,-2.4585 0.25933,-2.6467 -0.15049,-1.9708 -0.45142,-1.7634 -0.75237,-1.556 -1.0533,-1.3487 -2.84294,-2.3449 -3.71362,-2.0548 -1.65909,-0.7472 -3.3109,-1.566 -2.29327,-1.3799 -1.33836,-1.4627 -0.44611,-1.8149 0.31123,-1.4637 0.93372,-1.2352 1.32821,-0.8406 1.49477,-0.2802 1.52578,0.2387 1.42132,0.7162 1.19269,1.0898 0.84001,1.3596 6.05884,-3.2372"
         style="font-size:83px;fill:none;stroke:#000000;stroke-opacity:1;font-family:Futura-Medium;-inkscape-font-specification:Futura-Medium"
         id="path5372" />
      <path
         inkscape:connector-curvature="0"
         d="m 951.99374,1125.776 -1.8459,0.3632 -1.55586,1.0895 -1.05815,1.567 -0.35271,1.7955 0.35271,1.8459 1.05815,1.5559 1.55586,1.0581 1.8459,0.3527 1.84779,-0.3527 1.55651,-1.0581 1.05813,-1.5559 0.35273,-1.8459 -0.35273,-1.7955 -1.05813,-1.567 -1.55651,-1.0895 -1.84779,-0.3632 0,0 m 0,-31.705 -1.8459,0.3632 -1.55586,1.0894 -1.05815,1.5664 -0.35271,1.7936 0.35271,1.8478 1.05815,1.5565 1.55586,1.0582 1.8459,0.3527 1.84779,-0.3527 1.55651,-1.0582 1.05813,-1.5565 0.35273,-1.8478 -0.35273,-1.7936 -1.05813,-1.5664 -1.55651,-1.0894 -1.84779,-0.3632 0,0"
         style="font-size:83px;fill:none;stroke:#000000;stroke-opacity:1;font-family:Futura-Medium;-inkscape-font-specification:Futura-Medium"
         id="path5374" />
      <path
         inkscape:connector-curvature="0"
         d="m 1001.1357,1062.0316 -34.52678,79.8465 5.89166,2.657 34.61032,-79.8464 -5.9752,-2.6571"
         style="font-size:83px;fill:none;stroke:#000000;stroke-opacity:1;font-family:Futura-Medium;-inkscape-font-specification:Futura-Medium"
         id="path5376" />
      <path
         inkscape:connector-curvature="0"
         d="m 1046.8505,1062.0316 -34.5267,79.8465 5.8916,2.657 34.6104,-79.8464 -5.9753,-2.6571"
         style="font-size:83px;fill:none;stroke:#000000;stroke-opacity:1;font-family:Futura-Medium;-inkscape-font-specification:Futura-Medium"
         id="path5378" />
      <path
         inkscape:connector-curvature="0"
         d="m 1067.9982,1095.2336 -7.4697,0 0,38.8429 7.4697,0 0,-17.8447 0.2077,-6.0588 0.3736,-2.3547 0.7054,-2.2515 1.1617,-1.982 1.7424,-1.5464 2.3756,-0.9964 3.0614,-0.3321 2.425,0.1686 1.9633,0.5058 1.5018,0.843 1.0401,1.1802 0.7081,1.5381 0.5058,1.9169 0.4046,4.9696 0,22.2444 7.4697,0 0,-23.1563 -0.1555,-3.5594 -0.4663,-3.2061 -0.8609,-2.8426 -1.339,-2.469 -1.858,-2.0229 -2.4176,-1.5043 -3.0187,-0.9337 -3.6608,-0.3112 -3.5382,0.4151 -3.3096,1.2452 -2.8119,2.0128 -2.0451,2.7175 -0.1646,0 0,-5.228"
         style="font-size:83px;fill:none;stroke:#000000;stroke-opacity:1;font-family:Futura-Medium;-inkscape-font-specification:Futura-Medium"
         id="path5380" />
      <path
         inkscape:connector-curvature="0"
         d="m 1121.2359,1094.071 -4.1287,0.3942 -3.921,1.1826 -3.5788,1.888 -3.1019,2.5104 -2.5421,3.0605 -1.8994,3.5379 -1.1836,3.9115 -0.3945,4.1813 0.3945,4.1813 1.1836,3.9115 1.8994,3.5379 2.5421,3.0605 3.1019,2.5105 3.5788,1.8879 3.921,1.1826 4.1287,0.3942 4.1813,-0.3942 3.9115,-1.1826 3.5484,-1.8879 3.0918,-2.5105 2.5418,-3.0605 1.8985,-3.5379 1.1825,-3.9115 0.3942,-4.1813 -0.3942,-4.1813 -1.1825,-3.9115 -1.8985,-3.5379 -2.5418,-3.0605 -3.0918,-2.5104 -3.5484,-1.888 -3.9115,-1.1826 -4.1813,-0.3942 0,0 m 0,7.1379 2.6571,0.2593 2.4899,0.7779 2.2718,1.2551 2.0026,1.6907 1.6499,2.0439 1.2136,2.3141 0.7466,2.5216 0.2488,2.6659 -0.2593,2.6153 -0.7779,2.5317 -1.2345,2.3341 -1.629,2.0226 -1.9713,1.6698 -2.2613,1.276 -2.4899,0.8093 -2.6571,0.2697 -2.6555,-0.2697 -2.4902,-0.8093 -2.2619,-1.276 -1.9706,-1.6698 -1.6284,-2.0226 -1.2352,-2.3341 -0.7789,-2.5317 -0.2596,-2.6153 0.2596,-2.6659 0.7789,-2.5216 1.2352,-2.3141 1.6284,-2.0439 1.981,-1.6907 2.2933,-1.2551 2.5007,-0.7779 2.6032,-0.2593 0,0"
         style="font-size:83px;fill:none;stroke:#000000;stroke-opacity:1;font-family:Futura-Medium;-inkscape-font-specification:Futura-Medium"
         id="path5382" />
      <path
         inkscape:connector-curvature="0"
         d="m 1150.8741,1095.2336 -8.3841,0 19.5038,40.1702 19.5899,-40.1702 -8.3841,0 -11.2058,24.2354 -11.1197,-24.2354"
         style="font-size:83px;fill:none;stroke:#000000;stroke-opacity:1;font-family:Futura-Medium;-inkscape-font-specification:Futura-Medium"
         id="path5384" />
      <path
         inkscape:connector-curvature="0"
         d="m 1202.4426,1128.7649 -2.6766,-0.2594 -2.3862,-0.7782 -2.0958,-1.2969 -1.8055,-1.8157 -1.4529,-2.1789 -1.0377,-2.3865 -0.6227,-2.5939 -0.2075,-2.8016 0.2101,-2.7623 0.6302,-2.5601 1.0504,-2.3577 1.4706,-2.1554 1.8182,-1.7974 2.0933,-1.2839 2.3685,-0.7703 2.6436,-0.2568 2.7547,0.2516 2.4537,0.7549 2.1525,1.2582 1.8515,1.7614 1.4882,2.1297 1.0631,2.3629 0.6378,2.596 0.2126,2.8292 -0.2101,2.8695 -0.6302,2.6305 -1.0504,2.3917 -1.4705,2.1528 -1.8388,1.7792 -2.1551,1.2708 -2.4714,0.7624 -2.7876,0.2542 0,0 m 19.671,-33.5313 -7.4697,0 0,6.4717 -0.1672,0 -2.6033,-3.1848 -3.1643,-2.4168 -3.6417,-1.5245 -4.0357,-0.5082 -3.9644,0.4046 -3.5901,1.2139 -3.1539,1.9298 -2.6555,2.5523 -2.1264,3.071 -1.5666,3.4856 -0.9651,3.7659 -0.3217,3.9115 0.3113,4.0664 0.9337,3.901 1.5356,3.6006 2.1169,3.1649 2.6771,2.6252 3.2159,1.981 3.693,1.2443 4.1085,0.4148 3.9017,-0.498 3.5692,-1.4942 3.133,-2.3446 2.5928,-3.0493 0.1672,0 0,6.0588 7.4697,0 0,-38.8429"
         style="font-size:83px;fill:none;stroke:#000000;stroke-opacity:1;font-family:Futura-Medium;-inkscape-font-specification:Futura-Medium"
         id="path5386" />
      <path
         inkscape:connector-curvature="0"
         d="m 1231.4627,1104.3624 0,6.226 18.1765,0 0,-6.226 -18.1765,0"
         style="font-size:83px;fill:none;stroke:#000000;stroke-opacity:1;font-family:Futura-Medium;-inkscape-font-specification:Futura-Medium"
         id="path5388" />
      <path
         inkscape:connector-curvature="0"
         d="m 1267.2382,1062.0316 -7.4697,0 0,72.0449 7.4697,0 0,-72.0449"
         style="font-size:83px;fill:none;stroke:#000000;stroke-opacity:1;font-family:Futura-Medium;-inkscape-font-specification:Futura-Medium"
         id="path5390" />
      <path
         inkscape:connector-curvature="0"
         d="m 1294.6828,1128.7649 -2.6765,-0.2594 -2.3862,-0.7782 -2.0959,-1.2969 -1.8055,-1.8157 -1.4528,-2.1789 -1.0377,-2.3865 -0.6227,-2.5939 -0.2075,-2.8016 0.2101,-2.7623 0.6302,-2.5601 1.0504,-2.3577 1.4705,-2.1554 1.8182,-1.7974 2.0933,-1.2839 2.3685,-0.7703 2.6436,-0.2568 2.7547,0.2516 2.4537,0.7549 2.1525,1.2582 1.8515,1.7614 1.4882,2.1297 1.0631,2.3629 0.6378,2.596 0.2127,2.8292 -0.2101,2.8695 -0.6303,2.6305 -1.0504,2.3917 -1.4705,2.1528 -1.8388,1.7792 -2.155,1.2708 -2.4714,0.7624 -2.7877,0.2542 0,0 m 19.671,-33.5313 -7.4697,0 0,6.4717 -0.1672,0 -2.6032,-3.1848 -3.1643,-2.4168 -3.6418,-1.5245 -4.0356,-0.5082 -3.9644,0.4046 -3.5902,1.2139 -3.1538,1.9298 -2.6555,2.5523 -2.1264,3.071 -1.5667,3.4856 -0.965,3.7659 -0.3217,3.9115 0.3112,4.0664 0.9337,3.901 1.5356,3.6006 2.117,3.1649 2.677,2.6252 3.2159,1.981 3.693,1.2443 4.1085,0.4148 3.9017,-0.498 3.5693,-1.4942 3.1329,-2.3446 2.5928,-3.0493 0.1672,0 0,6.0588 7.4697,0 0,-38.8429"
         style="font-size:83px;fill:none;stroke:#000000;stroke-opacity:1;font-family:Futura-Medium;-inkscape-font-specification:Futura-Medium"
         id="path5392" />
      <path
         inkscape:connector-curvature="0"
         d="m 1342.8749,1128.7649 -2.6765,-0.2594 -2.3859,-0.7782 -2.0955,-1.2969 -1.805,-1.8157 -1.4522,-2.1789 -1.0373,-2.3865 -0.6224,-2.5939 -0.2075,-2.8016 0.2101,-2.7623 0.6302,-2.5601 1.0504,-2.3577 1.4705,-2.1554 1.818,-1.7974 2.0929,-1.2839 2.3677,-0.7703 2.6425,-0.2568 2.7548,0.2516 2.4539,0.7549 2.1529,1.2582 1.852,1.7614 1.4888,2.1297 1.0635,2.3629 0.6381,2.596 0.2127,2.8292 -0.2101,2.8695 -0.6303,2.6305 -1.0504,2.3917 -1.4705,2.1528 -1.8389,1.7792 -2.1556,1.2708 -2.4721,0.7624 -2.7888,0.2542 0,0 m -19.3391,5.3116 7.4697,0 0,-6.0588 0.1671,0 2.6033,3.0493 3.1643,2.3446 3.5797,1.4942 3.8495,0.498 4.1189,-0.4148 3.7244,-1.2443 3.2368,-1.9706 2.6561,-2.5938 2.0855,-3.1335 1.5252,-3.5902 0.9337,-3.922 0.3113,-4.129 -0.3218,-3.9115 -0.965,-3.7659 -1.5666,-3.4752 -2.1264,-3.0396 -2.6555,-2.5313 -3.1539,-1.9508 -3.5692,-1.2452 -3.9017,-0.4151 -4.0357,0.5082 -3.6417,1.5245 -3.1852,2.4168 -2.666,3.1848 -0.1671,0 0,-39.6737 -7.4697,0 0,72.0449"
         style="font-size:83px;fill:none;stroke:#000000;stroke-opacity:1;font-family:Futura-Medium;-inkscape-font-specification:Futura-Medium"
         id="path5394" />
      <path
         inkscape:connector-curvature="0"
         d="m 1391.9814,1100.877 -1.8785,-2.8739 -2.4795,-2.1476 -2.9563,-1.3384 -3.3089,-0.4461 -2.2801,0.2049 -2.1089,0.6145 -1.9375,1.0243 -1.7663,1.4339 -1.4706,1.7297 -1.0504,1.9115 -0.6302,2.0931 -0.2101,2.2749 0.4566,3.248 1.3697,2.4385 2.324,2.0441 3.3194,2.0644 7.3025,3.9008 2.1176,1.8667 0.4673,1.0272 0.1558,1.3386 -0.4255,2.1888 -1.2767,1.7538 -1.899,1.1521 -2.293,0.3841 -2.2721,-0.3217 -1.8364,-0.965 -1.5457,-1.5666 -1.4001,-2.1265 -6.3906,2.9053 0.8923,1.891 1.1828,1.6884 1.4731,1.486 1.7634,1.2835 3.9419,1.7734 2.0645,0.4433 2.1269,0.1478 2.6048,-0.2384 2.5004,-0.7153 2.303,-1.1512 2.0131,-1.5464 1.6604,-1.8991 1.2449,-2.2093 0.778,-2.4585 0.2593,-2.6467 -0.1505,-1.9708 -0.4514,-1.7634 -0.7524,-1.556 -1.0533,-1.3487 -2.843,-2.3449 -3.7136,-2.0548 -1.659,-0.7472 -3.3109,-1.566 -2.2933,-1.3799 -1.3384,-1.4627 -0.4461,-1.8149 0.3113,-1.4637 0.9337,-1.2352 1.3282,-0.8406 1.4947,-0.2802 1.5258,0.2387 1.4213,0.7162 1.1927,1.0898 0.84,1.3596 6.0589,-3.2372"
         style="font-size:83px;fill:none;stroke:#000000;stroke-opacity:1;font-family:Futura-Medium;-inkscape-font-specification:Futura-Medium"
         id="path5396" />
      <path
         inkscape:connector-curvature="0"
         d="m 1409.1422,1125.776 -1.8459,0.3632 -1.5559,1.0895 -1.0581,1.567 -0.3527,1.7955 0.3527,1.8459 1.0581,1.5559 1.5559,1.0581 1.8459,0.3527 1.8478,-0.3527 1.5565,-1.0581 1.0581,-1.5559 0.3527,-1.8459 -0.3527,-1.7955 -1.0581,-1.567 -1.5565,-1.0895 -1.8478,-0.3632 0,0"
         style="font-size:83px;fill:none;stroke:#000000;stroke-opacity:1;font-family:Futura-Medium;-inkscape-font-specification:Futura-Medium"
         id="path5398" />
      <path
         inkscape:connector-curvature="0"
         d="m 1443.5094,1094.071 -4.1288,0.3942 -3.921,1.1826 -3.5788,1.888 -3.1019,2.5104 -2.5421,3.0605 -1.8994,3.5379 -1.1835,3.9115 -0.3945,4.1813 0.3945,4.1813 1.1835,3.9115 1.8994,3.5379 2.5421,3.0605 3.1019,2.5105 3.5788,1.8879 3.921,1.1826 4.1288,0.3942 4.1813,-0.3942 3.9115,-1.1826 3.5483,-1.8879 3.0918,-2.5105 2.5418,-3.0605 1.8985,-3.5379 1.1825,-3.9115 0.3943,-4.1813 -0.3943,-4.1813 -1.1825,-3.9115 -1.8985,-3.5379 -2.5418,-3.0605 -3.0918,-2.5104 -3.5483,-1.888 -3.9115,-1.1826 -4.1813,-0.3942 0,0 m 0,7.1379 2.657,0.2593 2.4899,0.7779 2.2718,1.2551 2.0026,1.6907 1.6499,2.0439 1.2136,2.3141 0.7466,2.5216 0.2489,2.6659 -0.2594,2.6153 -0.7779,2.5317 -1.2345,2.3341 -1.629,2.0226 -1.9713,1.6698 -2.2613,1.276 -2.4899,0.8093 -2.657,0.2697 -2.6555,-0.2697 -2.4902,-0.8093 -2.262,-1.276 -1.9706,-1.6698 -1.6284,-2.0226 -1.2351,-2.3341 -0.7789,-2.5317 -0.2596,-2.6153 0.2596,-2.6659 0.7789,-2.5216 1.2351,-2.3141 1.6284,-2.0439 1.9811,-1.6907 2.2933,-1.2551 2.5007,-0.7779 2.6032,-0.2593 0,0"
         style="font-size:83px;fill:none;stroke:#000000;stroke-opacity:1;font-family:Futura-Medium;-inkscape-font-specification:Futura-Medium"
         id="path5400" />
      <path
         inkscape:connector-curvature="0"
         d="m 1478.9556,1095.2336 -7.4697,0 0,38.8429 7.4697,0 0,-19.0909 0.3318,-5.1039 0.4772,-2.2619 0.7678,-2.0542 1.1414,-1.7636 1.598,-1.39 2.0959,-0.9023 2.6356,-0.3008 2.5102,0.3939 2.0542,1.1816 3.4043,-6.8061 -3.0301,-1.4305 -3.1123,-0.4768 -3.4344,0.4981 -2.9981,1.4941 -2.4376,2.3654 -1.7531,3.1121 -0.2508,0 0,-6.3071"
         style="font-size:83px;fill:none;stroke:#000000;stroke-opacity:1;font-family:Futura-Medium;-inkscape-font-specification:Futura-Medium"
         id="path5402" />
      <path
         inkscape:connector-curvature="0"
         d="m 1516.8512,1128.7649 -2.6766,-0.2594 -2.3862,-0.7782 -2.0958,-1.2969 -1.8055,-1.8157 -1.4529,-2.1789 -1.0377,-2.3865 -0.6227,-2.5939 -0.2075,-2.8016 0.2102,-2.7623 0.6305,-2.5601 1.0507,-2.3577 1.4711,-2.1554 1.8186,-1.7974 2.0933,-1.2839 2.3679,-0.7703 2.6426,-0.2568 2.7548,0.2516 2.4539,0.7549 2.1529,1.2582 1.852,1.7614 1.4888,2.1297 1.0635,2.3629 0.6381,2.596 0.2127,2.8292 -0.2101,2.8695 -0.6303,2.6305 -1.0504,2.3917 -1.4705,2.1528 -1.8389,1.7792 -2.1556,1.2708 -2.4721,0.7624 -2.7888,0.2542 0,0 m 19.671,-33.5313 -7.4697,0 0,6.6389 -0.1672,0 -2.666,-3.3102 -3.1852,-2.4586 -3.6417,-1.5245 -4.0356,-0.5082 -3.8998,0.4151 -3.5687,1.2452 -3.1541,1.9508 -2.6565,2.5313 -2.1273,3.0396 -1.567,3.4752 -0.9651,3.7659 -0.3217,3.9115 0.3113,4.1186 0.9337,3.8906 1.5356,3.5693 2.1169,3.1544 2.6771,2.6252 3.2159,1.981 3.693,1.2443 4.1085,0.4148 3.8494,-0.498 3.5797,-1.4942 3.1643,-2.3446 2.6033,-3.0493 0.1672,0 0,7.3861 -0.4978,5.7688 -0.6744,2.3759 -1.0277,2.0644 -1.453,1.7012 -1.95,1.2864 -2.4792,0.8093 -3.0402,0.2698 -2.487,-0.1816 -2.2331,-0.5445 -1.9792,-0.9075 -1.7253,-1.2705 -1.3985,-1.5922 -0.999,-1.8726 -0.5993,-2.1529 -0.1998,-2.4333 -7.4697,0 0.3974,3.854 1.0249,3.4289 1.6524,3.0036 2.28,2.5784 2.7831,2.0701 3.1618,1.4786 3.5404,0.8872 3.9191,0.2957 5.0428,-0.4151 4.1709,-1.2453 3.3301,-2.0026 2.521,-2.6871 1.805,-3.3097 1.1826,-3.87 0.6535,-4.4406 0.2179,-5.0213 0,-38.0957"
         style="font-size:83px;fill:none;stroke:#000000;stroke-opacity:1;font-family:Futura-Medium;-inkscape-font-specification:Futura-Medium"
         id="path5404" />
    </g>
  </g>
  <g
     inkscape:label="border"
     id="layer2"
     inkscape:groupmode="layer"
     style="display:inline">
    <rect
       y="504.77332"
       x="-1211.7791"
       height="1163.6957"
       width="2392.0413"
       id="rect6358"
       style="color:#000000;fill:none;stroke:#f36e3d;stroke-width:1.25px;stroke-linecap:round;stroke-linejoin:round;stroke-miterlimit:4;stroke-opacity:1;stroke-dasharray:none;stroke-dashoffset:0;marker:none;visibility:visible;display:inline;overflow:visible;enable-background:accumulate" />
    <path
       inkscape:connector-curvature="0"
       id="rect6358-1"
       d="m 1174.98,494.50732 -89.1867,0.2869 -89.18758,0.0213 -178.3757,-0.027 -2030.68752,0.0625 -3.1093,0.89035 -2.3748,1.6858 -1.7263,2.31293 -1.1638,2.77171 -0.6873,3.06216 -0.2969,3.18427 0.2334,6.06153 -0.2227,577.03193 0.066,577.0306 1.2179,3.3273 2.0254,2.5703 2.6604,1.8839 3.1227,1.2679 3.4124,0.7227 3.5295,0.2481 3.4737,-0.1559 3.2455,-0.4893 491.64056,0.2398 491.64074,-0.021 1396.4374,-0.031 3.3306,-1.2187 2.5711,-2.0258 1.8829,-2.6602 1.2662,-3.1223 0.7207,-3.4119 0.2467,-3.5291 -0.156,-3.4736 -0.4872,-3.2459 0.2394,-486.2342 0,-486.23448 -0.049,-90.47276 -0.097,-45.23189 -0.3475,-45.2017 -0.9983,-2.06518 -1.3823,-1.73448 -1.6964,-1.41473 -1.9401,-1.10592 -2.1138,-0.80808 -2.2172,-0.52117 -4.4643,-0.22544 0,-2e-4"
       style="color:#000000;fill:none;stroke:#f36e3d;stroke-width:1.25px;stroke-linecap:round;stroke-linejoin:round;stroke-miterlimit:4;stroke-opacity:1;stroke-dasharray:none;stroke-dashoffset:0;marker:none;visibility:visible;display:inline;overflow:visible;enable-background:accumulate" />
  </g>
</svg>
