  0
SECTION
  2
BLOCKS
  0
ENDSEC
  0
SECTION
  2
ENTITIES
  0
LINE
  8
0
 10
-7.45425
 20
24.1694
 11
-6.91957
 21
24.0727
  0
LINE
  8
0
 10
-6.91957
 20
24.0727
 11
-5.70825
 21
24.0727
  0
LINE
  8
0
 10
-5.70825
 20
24.0727
 11
-5.19569
 21
24.1165
  0
LINE
  8
0
 10
-5.19569
 20
24.1165
 11
-4.82202
 21
24.2225
  0
LINE
  8
0
 10
-4.82202
 20
24.2225
 11
-4.21635
 21
25.2716
  0
LINE
  8
0
 10
-4.21635
 20
25.2716
 11
-4.06166
 21
25.5575
  0
LINE
  8
0
 10
-4.06166
 20
25.5575
 11
-4.21315
 21
25.8199
  0
LINE
  8
0
 10
-4.21315
 20
25.8199
 11
-4.19405
 21
25.8216
  0
LINE
  8
0
 10
-4.19405
 20
25.8216
 11
-3.82211
 21
25.9281
  0
LINE
  8
0
 10
-3.82211
 20
25.9281
 11
-3.21645
 21
26.9771
  0
LINE
  8
0
 10
-3.21645
 20
26.9771
 11
-3.0619
 21
27.2622
  0
LINE
  8
0
 10
-3.0619
 20
27.2622
 11
-3.21571
 21
27.5286
  0
LINE
  8
0
 10
-3.21571
 20
27.5286
 11
-3.00488
 21
27.5885
  0
LINE
  8
0
 10
-3.00488
 20
27.5885
 11
-2.39922
 21
28.6375
  0
LINE
  8
0
 10
-2.39922
 20
28.6375
 11
-2.24438
 21
28.9237
  0
LINE
  8
0
 10
-2.24438
 20
28.9237
 11
-2.36731
 21
29.1366
  0
LINE
  8
0
 10
-2.36731
 20
29.1366
 11
-2.04301
 21
29.2286
  0
LINE
  8
0
 10
-2.04301
 20
29.2286
 11
-1.82516
 21
28.6467
  0
LINE
  8
0
 10
-1.82516
 20
28.6467
 11
-1.20209
 21
27.0147
  0
LINE
  8
0
 10
-1.20209
 20
27.0147
 11
-0.59642
 21
25.9657
  0
LINE
  8
0
 10
-0.59642
 20
25.9657
 11
0.614883
 21
25.9657
  0
LINE
  8
0
 10
0.614883
 20
25.9657
 11
2.7411
 21
26.1063
  0
LINE
  8
0
 10
2.7411
 20
26.1063
 11
3.34677
 21
27.1554
  0
LINE
  8
0
 10
3.34677
 20
27.1554
 11
3.94701
 21
29.7322
  0
LINE
  8
0
 10
3.94701
 20
29.7322
 11
4.71498
 21
29.9504
  0
LINE
  8
0
 10
4.71498
 20
29.9504
 11
5.00783
 21
30.0636
  0
LINE
  8
0
 10
5.00783
 20
30.0636
 11
7.39516
 21
28.0754
  0
LINE
  8
0
 10
7.39516
 20
28.0754
 11
8.60649
 21
28.0754
  0
LINE
  8
0
 10
8.60649
 20
28.0754
 11
10.3934
 21
29.25
  0
LINE
  8
0
 10
10.3934
 20
29.25
 11
10.9991
 21
30.2991
  0
LINE
  8
0
 10
10.9991
 20
30.2991
 11
10.0697
 21
33.432
  0
LINE
  8
0
 10
10.0697
 20
33.432
 11
10.6747
 21
34.1102
  0
LINE
  8
0
 10
10.6747
 20
34.1102
 11
10.9284
 21
34.4476
  0
LINE
  8
0
 10
10.9284
 20
34.4476
 11
13.4178
 21
34.0317
  0
LINE
  8
0
 10
13.4178
 20
34.0317
 11
14.6292
 21
34.0317
  0
LINE
  8
0
 10
14.6292
 20
34.0317
 11
15.2348
 21
35.0807
  0
LINE
  8
0
 10
15.2348
 20
35.0807
 11
16.1779
 21
36.9918
  0
LINE
  8
0
 10
16.1779
 20
36.9918
 11
15.5723
 21
38.0408
  0
LINE
  8
0
 10
15.5723
 20
38.0408
 11
13.6612
 21
39.8433
  0
LINE
  8
0
 10
13.6612
 20
39.8433
 11
13.7291
 21
40.0858
  0
LINE
  8
0
 10
13.7291
 20
40.0858
 11
13.8035
 21
40.4002
  0
LINE
  8
0
 10
13.8035
 20
40.4002
 11
13.8697
 21
40.7145
  0
LINE
  8
0
 10
13.8697
 20
40.7145
 11
13.9365
 21
41.0999
  0
LINE
  8
0
 10
13.9365
 20
41.0999
 11
16.8214
 21
42.1887
  0
LINE
  8
0
 10
16.8214
 20
42.1887
 11
17.427
 21
43.2377
  0
LINE
  8
0
 10
17.427
 20
43.2377
 11
17.2865
 21
45.364
  0
LINE
  8
0
 10
17.2865
 20
45.364
 11
16.6808
 21
46.413
  0
LINE
  8
0
 10
16.6808
 20
46.413
 11
13.4992
 21
47.1539
  0
LINE
  8
0
 10
13.4992
 20
47.1539
 11
13.4395
 21
47.341
  0
LINE
  8
0
 10
13.4395
 20
47.341
 11
13.0937
 21
48.2388
  0
LINE
  8
0
 10
13.0937
 20
48.2388
 11
14.7119
 21
50.1844
  0
LINE
  8
0
 10
14.7119
 20
50.1844
 11
15.3175
 21
51.2334
  0
LINE
  8
0
 10
15.3175
 20
51.2334
 11
14.7119
 21
52.2825
  0
LINE
  8
0
 10
14.7119
 20
52.2825
 11
13.5372
 21
54.0612
  0
LINE
  8
0
 10
13.5372
 20
54.0612
 11
12.3258
 21
54.0612
  0
LINE
  8
0
 10
12.3258
 20
54.0612
 11
9.78194
 21
53.3292
  0
LINE
  8
0
 10
9.78194
 20
53.3292
 11
9.14482
 21
53.949
  0
LINE
  8
0
 10
9.14482
 20
53.949
 11
8.84875
 21
54.1854
  0
LINE
  8
0
 10
8.84875
 20
54.1854
 11
9.36111
 21
57.2519
  0
LINE
  8
0
 10
9.36111
 20
57.2519
 11
8.75545
 21
58.3009
  0
LINE
  8
0
 10
8.75545
 20
58.3009
 11
6.84442
 21
59.244
  0
LINE
  8
0
 10
6.84442
 20
59.244
 11
5.6331
 21
59.244
  0
LINE
  8
0
 10
5.6331
 20
59.244
 11
3.39107
 21
56.8671
  0
LINE
  8
0
 10
3.39107
 20
56.8671
 11
3.12607
 21
56.9335
  0
LINE
  8
0
 10
3.12607
 20
56.9335
 11
2.09984
 21
57.0846
  0
LINE
  8
0
 10
2.09984
 20
57.0846
 11
1.83284
 21
57.798
  0
LINE
  8
0
 10
1.83284
 20
57.798
 11
1.80795
 21
57.8559
  0
LINE
  8
0
 10
1.80795
 20
57.8559
 11
1.20399
 21
59.4442
  0
LINE
  8
0
 10
1.20399
 20
59.4442
 11
0.598328
 21
60.4932
  0
LINE
  8
0
 10
0.598328
 20
60.4932
 11
-0.612976
 21
60.4932
  0
LINE
  8
0
 10
-0.612976
 20
60.4932
 11
-2.73906
 21
60.3526
  0
LINE
  8
0
 10
-2.73906
 20
60.3526
 11
-3.34471
 21
59.3036
  0
LINE
  8
0
 10
-3.34471
 20
59.3036
 11
-3.94493
 21
56.7269
  0
LINE
  8
0
 10
-3.94493
 20
56.7269
 11
-4.71323
 21
56.5087
  0
LINE
  8
0
 10
-4.71323
 20
56.5087
 11
-5.00592
 21
56.3954
  0
LINE
  8
0
 10
-5.00592
 20
56.3954
 11
-7.39311
 21
58.3837
  0
LINE
  8
0
 10
-7.39311
 20
58.3837
 11
-8.60443
 21
58.3837
  0
LINE
  8
0
 10
-8.60443
 20
58.3837
 11
-10.3914
 21
57.2089
  0
LINE
  8
0
 10
-10.3914
 20
57.2089
 11
-10.997
 21
56.1599
  0
LINE
  8
0
 10
-10.997
 20
56.1599
 11
-10.0697
 21
53.0338
  0
LINE
  8
0
 10
-10.0697
 20
53.0338
 11
-10.259
 21
52.841
  0
LINE
  8
0
 10
-10.259
 20
52.841
 11
-10.6727
 21
52.3528
  0
LINE
  8
0
 10
-10.6727
 20
52.3528
 11
-10.6925
 21
52.3184
  0
LINE
  8
0
 10
-10.6925
 20
52.3184
 11
-10.9254
 21
52.0112
  0
LINE
  8
0
 10
-10.9254
 20
52.0112
 11
-13.4158
 21
52.4272
  0
LINE
  8
0
 10
-13.4158
 20
52.4272
 11
-14.6272
 21
52.4272
  0
LINE
  8
0
 10
-14.6272
 20
52.4272
 11
-15.2328
 21
51.3782
  0
LINE
  8
0
 10
-15.2328
 20
51.3782
 11
-16.1759
 21
49.4671
  0
LINE
  8
0
 10
-16.1759
 20
49.4671
 11
-15.5703
 21
48.4181
  0
LINE
  8
0
 10
-15.5703
 20
48.4181
 11
-13.6582
 21
46.6147
  0
LINE
  8
0
 10
-13.6582
 20
46.6147
 11
-13.7022
 21
46.4559
  0
LINE
  8
0
 10
-13.7022
 20
46.4559
 11
-13.7602
 21
46.2243
  0
LINE
  8
0
 10
-13.7602
 20
46.2243
 11
-13.8636
 21
45.7693
  0
LINE
  8
0
 10
-13.8636
 20
45.7693
 11
-13.9345
 21
45.3592
  0
LINE
  8
0
 10
-13.9345
 20
45.3592
 11
-16.8195
 21
44.2702
  0
LINE
  8
0
 10
-16.8195
 20
44.2702
 11
-17.4251
 21
43.2212
  0
LINE
  8
0
 10
-17.4251
 20
43.2212
 11
-17.2843
 21
41.0951
  0
LINE
  8
0
 10
-17.2843
 20
41.0951
 11
-16.6786
 21
40.0461
  0
LINE
  8
0
 10
-16.6786
 20
40.0461
 11
-13.4776
 21
39.3004
  0
LINE
  8
0
 10
-13.4776
 20
39.3004
 11
-13.0885
 21
38.2254
  0
LINE
  8
0
 10
-13.0885
 20
38.2254
 11
-14.7099
 21
36.2786
  0
LINE
  8
0
 10
-14.7099
 20
36.2786
 11
-15.3155
 21
35.2296
  0
LINE
  8
0
 10
-15.3155
 20
35.2296
 11
-15.3155
 21
35.2214
  0
LINE
  8
0
 10
-15.3155
 20
35.2214
 11
-14.7099
 21
34.1723
  0
LINE
  8
0
 10
-14.7099
 20
34.1723
 11
-13.535
 21
32.3978
  0
LINE
  8
0
 10
-13.535
 20
32.3978
 11
-12.3237
 21
32.3978
  0
LINE
  8
0
 10
-12.3237
 20
32.3978
 11
-9.7558
 21
33.1566
  0
LINE
  8
0
 10
-9.7558
 20
33.1566
 11
-10.0757
 21
32.6025
  0
LINE
  8
0
 10
-10.0757
 20
32.6025
 11
-10.1945
 21
32.3824
  0
LINE
  8
0
 10
-10.1945
 20
32.3824
 11
-10.0667
 21
32.1611
  0
LINE
  8
0
 10
-10.0667
 20
32.1611
 11
-10.4358
 21
32.0099
  0
LINE
  8
0
 10
-10.4358
 20
32.0099
 11
-11.0414
 21
30.9609
  0
LINE
  8
0
 10
-11.0414
 20
30.9609
 11
-11.1602
 21
30.7407
  0
LINE
  8
0
 10
-11.1602
 20
30.7407
 11
-10.9956
 21
30.4557
  0
LINE
  8
0
 10
-10.9956
 20
30.4557
 11
-11.2531
 21
30.3492
  0
LINE
  8
0
 10
-11.2531
 20
30.3492
 11
-11.8587
 21
29.3002
  0
LINE
  8
0
 10
-11.8587
 20
29.3002
 11
-11.9778
 21
29.0799
  0
LINE
  8
0
 10
-11.9778
 20
29.0799
 11
-11.8262
 21
28.8174
  0
LINE
  8
0
 10
-11.8262
 20
28.8174
 11
-11.93
 21
28.7775
  0
LINE
  8
0
 10
-11.93
 20
28.7775
 11
-12.2531
 21
28.644
  0
LINE
  8
0
 10
-12.2531
 20
28.644
 11
-12.8587
 21
27.595
  0
LINE
  8
0
 10
-12.8587
 20
27.595
 11
-12.9778
 21
27.375
  0
LINE
  8
0
 10
-12.9778
 20
27.375
 11
-12.6526
 21
26.8117
  0
LINE
  8
0
 10
-12.6526
 20
26.8117
 11
-12.6665
 21
26.581
  0
LINE
  8
0
 10
-12.6665
 20
26.581
 11
-12.0609
 21
25.532
  0
LINE
  8
0
 10
-12.0609
 20
25.532
 11
-11.1986
 21
25.5319
  0
LINE
  8
0
 10
-11.1986
 20
25.5319
 11
-10.9969
 21
25.4636
  0
LINE
  8
0
 10
-10.9969
 20
25.4636
 11
-10.972
 21
25.4535
  0
LINE
  8
0
 10
-10.972
 20
25.4535
 11
-11.2094
 21
24.9786
  0
LINE
  8
0
 10
-11.2094
 20
24.9786
 11
-10.6038
 21
23.9296
  0
LINE
  8
0
 10
-10.6038
 20
23.9296
 11
-9.20737
 21
23.231
  0
LINE
  8
0
 10
-9.20737
 20
23.231
 11
-7.99603
 21
23.231
  0
LINE
  8
0
 10
-7.99603
 20
23.231
 11
-7.45425
 21
24.1694
  0
LINE
  8
0
 10
-0.951599
 20
37.1495
 11
1.35019
 21
41.7499
  0
LINE
  8
0
 10
1.35019
 20
41.7499
 11
0.744522
 21
42.7989
  0
LINE
  8
0
 10
0.744522
 20
42.7989
 11
-0.651306
 21
43.498
  0
LINE
  8
0
 10
-0.651306
 20
43.498
 11
-1.86264
 21
43.498
  0
LINE
  8
0
 10
-1.86264
 20
43.498
 11
-2.46829
 21
42.4489
  0
LINE
  8
0
 10
-2.46829
 20
42.4489
 11
-4.30713
 21
38.7734
  0
LINE
  8
0
 10
-4.30713
 20
38.7734
 11
-4.6937
 21
39.443
  0
LINE
  8
0
 10
-4.6937
 20
39.443
 11
-5.24074
 21
40.1636
  0
LINE
  8
0
 10
-5.24074
 20
40.1636
 11
-5.44199
 21
40.5618
  0
LINE
  8
0
 10
-5.44199
 20
40.5618
 11
-5.80804
 21
41.8202
  0
LINE
  8
0
 10
-5.80804
 20
41.8202
 11
-5.93535
 21
43.1635
  0
LINE
  8
0
 10
-5.93535
 20
43.1635
 11
-5.7915
 21
44.5908
  0
LINE
  8
0
 10
-5.7915
 20
44.5908
 11
-5.37885
 21
45.92
  0
LINE
  8
0
 10
-5.37885
 20
45.92
 11
-5.22552
 21
46.2025
  0
LINE
  8
0
 10
-5.22552
 20
46.2025
 11
-4.46693
 21
47.122
  0
LINE
  8
0
 10
-4.46693
 20
47.122
 11
-3.41884
 21
47.9867
  0
LINE
  8
0
 10
-3.41884
 20
47.9867
 11
-2.21591
 21
48.6396
  0
LINE
  8
0
 10
-2.21591
 20
48.6396
 11
-0.886566
 21
49.0522
  0
LINE
  8
0
 10
-0.886566
 20
49.0522
 11
-0.0651398
 21
49.135
  0
LINE
  8
0
 10
-0.0651398
 20
49.135
 11
0.756348
 21
49.0522
  0
LINE
  8
0
 10
0.756348
 20
49.0522
 11
2.08569
 21
48.6396
  0
LINE
  8
0
 10
2.08569
 20
48.6396
 11
3.28862
 21
47.9867
  0
LINE
  8
0
 10
3.28862
 20
47.9867
 11
4.33656
 21
47.122
  0
LINE
  8
0
 10
4.33656
 20
47.122
 11
5.09547
 21
46.2021
  0
LINE
  8
0
 10
5.09547
 20
46.2021
 11
5.24863
 21
45.92
  0
LINE
  8
0
 10
5.24863
 20
45.92
 11
5.66113
 21
44.5908
  0
LINE
  8
0
 10
5.66113
 20
44.5908
 11
5.80511
 21
43.1635
  0
LINE
  8
0
 10
5.80511
 20
43.1635
 11
5.66113
 21
41.7364
  0
LINE
  8
0
 10
5.66113
 20
41.7364
 11
5.24863
 21
40.4071
  0
LINE
  8
0
 10
5.24863
 20
40.4071
 11
5.09566
 21
40.1253
  0
LINE
  8
0
 10
5.09566
 20
40.1253
 11
4.33656
 21
39.2052
  0
LINE
  8
0
 10
4.33656
 20
39.2052
 11
3.28862
 21
38.3405
  0
LINE
  8
0
 10
3.28862
 20
38.3405
 11
2.08569
 21
37.6877
  0
LINE
  8
0
 10
2.08569
 20
37.6877
 11
0.756348
 21
37.275
  0
LINE
  8
0
 10
0.756348
 20
37.275
 11
-0.4879
 21
37.1495
  0
LINE
  8
0
 10
-0.4879
 20
37.1495
 11
-0.951599
 21
37.1495
  0
LINE
  8
0
 10
-7.2686
 20
33.8991
 11
-7.59555
 21
33.916
  0
LINE
  8
0
 10
-7.59555
 20
33.916
 11
-8.34357
 21
33.916
  0
LINE
  8
0
 10
-8.34357
 20
33.916
 11
-6.4994
 21
35.6693
  0
LINE
  8
0
 10
-6.4994
 20
35.6693
 11
-5.89374
 21
36.7183
  0
LINE
  8
0
 10
-5.89374
 20
36.7183
 11
-5.91147
 21
36.749
  0
LINE
  8
0
 10
-5.91147
 20
36.749
 11
-5.34584
 21
36.749
  0
LINE
  8
0
 10
-5.34584
 20
36.749
 11
-5.29808
 21
36.7926
  0
LINE
  8
0
 10
-5.29808
 20
36.7926
 11
-6.79857
 21
33.7934
  0
LINE
  8
0
 10
-6.79857
 20
33.7934
 11
-7.2686
 21
33.8991
  0
LINE
  8
0
 10
-2.24432
 20
32.332
 11
-2.82085
 21
32.332
  0
LINE
  8
0
 10
-2.82085
 20
32.332
 11
-3.0352
 21
32.3862
  0
LINE
  8
0
 10
-3.0352
 20
32.3862
 11
-3.28589
 21
32.4841
  0
LINE
  8
0
 10
-3.28589
 20
32.4841
 11
-1.9021
 21
35.2498
  0
LINE
  8
0
 10
-1.9021
 20
35.2498
 11
-1.91165
 21
35.1795
  0
LINE
  8
0
 10
-1.91165
 20
35.1795
 11
-1.55487
 21
34.5615
  0
LINE
  8
0
 10
-1.55487
 20
34.5615
 11
-2.06268
 21
33.682
  0
LINE
  8
0
 10
-2.06268
 20
33.682
 11
-2.23419
 21
32.3145
  0
LINE
  8
0
 10
-2.23419
 20
32.3145
 11
-2.24432
 21
32.332
  0
LINE
  8
0
 10
35.5247
 20
31.6629
 11
34.457
 21
32.0797
  0
LINE
  8
0
 10
34.457
 20
32.0797
 11
33.388
 21
32.4648
  0
LINE
  8
0
 10
33.388
 20
32.4648
 11
32.8187
 21
31.3474
  0
LINE
  8
0
 10
32.8187
 20
31.3474
 11
34.2175
 21
30.7801
  0
LINE
  8
0
 10
34.2175
 20
30.7801
 11
34.9432
 21
30.5217
  0
LINE
  8
0
 10
34.9432
 20
30.5217
 11
35.5247
 21
31.6629
  0
LINE
  8
0
 10
34.6663
 20
29.9784
 11
33.491
 21
30.4366
  0
LINE
  8
0
 10
33.491
 20
30.4366
 11
32.531
 21
30.7828
  0
LINE
  8
0
 10
32.531
 20
30.7828
 11
31.9599
 21
29.662
  0
LINE
  8
0
 10
31.9599
 20
29.662
 11
33.2514
 21
29.1388
  0
LINE
  8
0
 10
33.2514
 20
29.1388
 11
34.0869
 21
28.8411
  0
LINE
  8
0
 10
34.0869
 20
28.8411
 11
34.6663
 21
29.9784
  0
LINE
  8
0
 10
33.8253
 20
28.3276
 11
32.6737
 21
28.777
  0
LINE
  8
0
 10
32.6737
 20
28.777
 11
31.6895
 21
29.1312
  0
LINE
  8
0
 10
31.6895
 20
29.1312
 11
31.1187
 21
28.0112
  0
LINE
  8
0
 10
31.1187
 20
28.0112
 11
32.4342
 21
27.4781
  0
LINE
  8
0
 10
32.4342
 20
27.4781
 11
33.2451
 21
27.189
  0
LINE
  8
0
 10
33.2451
 20
27.189
 11
33.8253
 21
28.3276
  0
LINE
  8
0
 10
32.9347
 20
26.5798
 11
31.674
 21
27.0717
  0
LINE
  8
0
 10
31.674
 20
27.0717
 11
30.8004
 21
27.3864
  0
LINE
  8
0
 10
30.8004
 20
27.3864
 11
30.2275
 21
26.262
  0
LINE
  8
0
 10
30.2275
 20
26.262
 11
31.4342
 21
25.7733
  0
LINE
  8
0
 10
31.4342
 20
25.7733
 11
32.3564
 21
25.4448
  0
LINE
  8
0
 10
32.3564
 20
25.4448
 11
32.9347
 21
26.5798
  0
LINE
  8
0
 10
-7.33722
 20
-16.1279
 11
-7.06392
 21
-16.1773
  0
LINE
  8
0
 10
-7.06392
 20
-16.1773
 11
-5.56392
 21
-16.1773
  0
LINE
  8
0
 10
-5.56392
 20
-16.1773
 11
-5.05136
 21
-16.1335
  0
LINE
  8
0
 10
-5.05136
 20
-16.1335
 11
-4.67769
 21
-16.0275
  0
LINE
  8
0
 10
-4.67769
 20
-16.0275
 11
-3.92769
 21
-14.7284
  0
LINE
  8
0
 10
-3.92769
 20
-14.7284
 11
-3.77299
 21
-14.4425
  0
LINE
  8
0
 10
-3.77299
 20
-14.4425
 11
-3.81924
 21
-14.3624
  0
LINE
  8
0
 10
-3.81924
 20
-14.3624
 11
-3.67776
 21
-14.3219
  0
LINE
  8
0
 10
-3.67776
 20
-14.3219
 11
-2.92776
 21
-13.0229
  0
LINE
  8
0
 10
-2.92776
 20
-13.0229
 11
-2.77324
 21
-12.7378
  0
LINE
  8
0
 10
-2.77324
 20
-12.7378
 11
-2.83891
 21
-12.6241
  0
LINE
  8
0
 10
-2.83891
 20
-12.6241
 11
-2.11041
 21
-11.3623
  0
LINE
  8
0
 10
-2.11041
 20
-11.3623
 11
-1.49077
 21
-12.9853
  0
LINE
  8
0
 10
-1.49077
 20
-12.9853
 11
-0.740768
 21
-14.2843
  0
LINE
  8
0
 10
-0.740768
 20
-14.2843
 11
0.759216
 21
-14.2843
  0
LINE
  8
0
 10
0.759216
 20
-14.2843
 11
2.88544
 21
-14.1437
  0
LINE
  8
0
 10
2.88544
 20
-14.1437
 11
3.63544
 21
-12.8446
  0
LINE
  8
0
 10
3.63544
 20
-12.8446
 11
4.18355
 21
-10.4916
  0
LINE
  8
0
 10
4.18355
 20
-10.4916
 11
4.85933
 21
-10.2996
  0
LINE
  8
0
 10
4.85933
 20
-10.2996
 11
4.955
 21
-10.2626
  0
LINE
  8
0
 10
4.955
 20
-10.2626
 11
7.25082
 21
-12.1746
  0
LINE
  8
0
 10
7.25082
 20
-12.1746
 11
8.75082
 21
-12.1746
  0
LINE
  8
0
 10
8.75082
 20
-12.1746
 11
10.5378
 21
-11
  0
LINE
  8
0
 10
10.5378
 20
-11
 11
11.2878
 21
-9.70093
  0
LINE
  8
0
 10
11.2878
 20
-9.70093
 11
10.378
 21
-6.63419
  0
LINE
  8
0
 10
10.378
 20
-6.63419
 11
10.819
 21
-6.13976
  0
LINE
  8
0
 10
10.819
 20
-6.13976
 11
11.0405
 21
-5.84526
  0
LINE
  8
0
 10
11.0405
 20
-5.84526
 11
13.2735
 21
-6.21826
  0
LINE
  8
0
 10
13.2735
 20
-6.21826
 11
14.7735
 21
-6.21826
  0
LINE
  8
0
 10
14.7735
 20
-6.21826
 11
15.5235
 21
-4.91924
  0
LINE
  8
0
 10
15.5235
 20
-4.91924
 11
16.4666
 21
-3.00819
  0
LINE
  8
0
 10
16.4666
 20
-3.00819
 11
15.7166
 21
-1.70917
  0
LINE
  8
0
 10
15.7166
 20
-1.70917
 11
13.9751
 21
-0.0666199
  0
LINE
  8
0
 10
13.9751
 20
-0.0666199
 11
14.0178
 21
0.0858307
  0
LINE
  8
0
 10
14.0178
 20
0.0858307
 11
14.0922
 21
0.400192
  0
LINE
  8
0
 10
14.0922
 20
0.400192
 11
14.1584
 21
0.714539
  0
LINE
  8
0
 10
14.1584
 20
0.714539
 11
14.189
 21
0.890656
  0
LINE
  8
0
 10
14.189
 20
0.890656
 11
16.9657
 21
1.93871
  0
LINE
  8
0
 10
16.9657
 20
1.93871
 11
17.7157
 21
3.23773
  0
LINE
  8
0
 10
17.7157
 20
3.23773
 11
17.5752
 21
5.36395
  0
LINE
  8
0
 10
17.5752
 20
5.36395
 11
16.8252
 21
6.66299
  0
LINE
  8
0
 10
16.8252
 20
6.66299
 11
13.7099
 21
7.38849
  0
LINE
  8
0
 10
13.7099
 20
7.38849
 11
13.4026
 21
8.18654
  0
LINE
  8
0
 10
13.4026
 20
8.18654
 11
14.8562
 21
9.9344
  0
LINE
  8
0
 10
14.8562
 20
9.9344
 11
15.6062
 21
11.2334
  0
LINE
  8
0
 10
15.6062
 20
11.2334
 11
14.8562
 21
12.5325
  0
LINE
  8
0
 10
14.8562
 20
12.5325
 11
13.6815
 21
14.3112
  0
LINE
  8
0
 10
13.6815
 20
14.3112
 11
12.1815
 21
14.3112
  0
LINE
  8
0
 10
12.1815
 20
14.3112
 11
9.86037
 21
13.6433
  0
LINE
  8
0
 10
9.86037
 20
13.6433
 11
9.28915
 21
14.199
  0
LINE
  8
0
 10
9.28915
 20
14.199
 11
9.15729
 21
14.3043
  0
LINE
  8
0
 10
9.15729
 20
14.3043
 11
9.6498
 21
17.2519
  0
LINE
  8
0
 10
9.6498
 20
17.2519
 11
8.8998
 21
18.5509
  0
LINE
  8
0
 10
8.8998
 20
18.5509
 11
6.98877
 21
19.494
  0
LINE
  8
0
 10
6.98877
 20
19.494
 11
5.48877
 21
19.494
  0
LINE
  8
0
 10
5.48877
 20
19.494
 11
3.30193
 21
17.1756
  0
LINE
  8
0
 10
3.30193
 20
17.1756
 11
3.2704
 21
17.1835
  0
LINE
  8
0
 10
3.2704
 20
17.1835
 11
2.29791
 21
17.3267
  0
LINE
  8
0
 10
2.29791
 20
17.3267
 11
2.12152
 21
17.798
  0
LINE
  8
0
 10
2.12152
 20
17.798
 11
2.09662
 21
17.8559
  0
LINE
  8
0
 10
2.09662
 20
17.8559
 11
1.49268
 21
19.4442
  0
LINE
  8
0
 10
1.49268
 20
19.4442
 11
0.742676
 21
20.7432
  0
LINE
  8
0
 10
0.742676
 20
20.7432
 11
-0.757309
 21
20.7432
  0
LINE
  8
0
 10
-0.757309
 20
20.7432
 11
-2.88339
 21
20.6026
  0
LINE
  8
0
 10
-2.88339
 20
20.6026
 11
-3.63339
 21
19.3036
  0
LINE
  8
0
 10
-3.63339
 20
19.3036
 11
-4.18147
 21
16.9507
  0
LINE
  8
0
 10
-4.18147
 20
16.9507
 11
-4.85756
 21
16.7587
  0
LINE
  8
0
 10
-4.85756
 20
16.7587
 11
-4.95312
 21
16.7217
  0
LINE
  8
0
 10
-4.95312
 20
16.7217
 11
-7.24878
 21
18.6337
  0
LINE
  8
0
 10
-7.24878
 20
18.6337
 11
-8.74878
 21
18.6337
  0
LINE
  8
0
 10
-8.74878
 20
18.6337
 11
-10.5357
 21
17.4589
  0
LINE
  8
0
 10
-10.5357
 20
17.4589
 11
-11.2857
 21
16.1599
  0
LINE
  8
0
 10
-11.2857
 20
16.1599
 11
-10.3818
 21
13.1129
  0
LINE
  8
0
 10
-10.3818
 20
13.1129
 11
-10.4033
 21
13.091
  0
LINE
  8
0
 10
-10.4033
 20
13.091
 11
-10.817
 21
12.6028
  0
LINE
  8
0
 10
-10.817
 20
12.6028
 11
-10.8369
 21
12.5684
  0
LINE
  8
0
 10
-10.8369
 20
12.5684
 11
-11.0373
 21
12.304
  0
LINE
  8
0
 10
-11.0373
 20
12.304
 11
-13.2715
 21
12.6772
  0
LINE
  8
0
 10
-13.2715
 20
12.6772
 11
-14.7715
 21
12.6772
  0
LINE
  8
0
 10
-14.7715
 20
12.6772
 11
-15.5215
 21
11.3782
  0
LINE
  8
0
 10
-15.5215
 20
11.3782
 11
-16.4646
 21
9.46713
  0
LINE
  8
0
 10
-16.4646
 20
9.46713
 11
-15.7146
 21
8.16809
  0
LINE
  8
0
 10
-15.7146
 20
8.16809
 11
-13.9719
 21
6.52443
  0
LINE
  8
0
 10
-13.9719
 20
6.52443
 11
-13.9909
 21
6.45586
  0
LINE
  8
0
 10
-13.9909
 20
6.45586
 11
-14.0489
 21
6.22426
  0
LINE
  8
0
 10
-14.0489
 20
6.22426
 11
-14.1523
 21
5.76929
  0
LINE
  8
0
 10
-14.1523
 20
5.76929
 11
-14.187
 21
5.56839
  0
LINE
  8
0
 10
-14.187
 20
5.56839
 11
-16.9638
 21
4.52022
  0
LINE
  8
0
 10
-16.9638
 20
4.52022
 11
-17.7138
 21
3.22118
  0
LINE
  8
0
 10
-17.7138
 20
3.22118
 11
-17.573
 21
1.09511
  0
LINE
  8
0
 10
-17.573
 20
1.09511
 11
-16.823
 21
-0.203918
  0
LINE
  8
0
 10
-16.823
 20
-0.203918
 11
-13.6808
 21
-0.935867
  0
LINE
  8
0
 10
-13.6808
 20
-0.935867
 11
-13.3966
 21
-1.72113
  0
LINE
  8
0
 10
-13.3966
 20
-1.72113
 11
-14.8542
 21
-3.47136
  0
LINE
  8
0
 10
-14.8542
 20
-3.47136
 11
-15.6042
 21
-4.7704
  0
LINE
  8
0
 10
-15.6042
 20
-4.7704
 11
-15.6042
 21
-4.77859
  0
LINE
  8
0
 10
-15.6042
 20
-4.77859
 11
-14.8542
 21
-6.07764
  0
LINE
  8
0
 10
-14.8542
 20
-6.07764
 11
-13.6794
 21
-7.85216
  0
LINE
  8
0
 10
-13.6794
 20
-7.85216
 11
-12.1794
 21
-7.85216
  0
LINE
  8
0
 10
-12.1794
 20
-7.85216
 11
-10.3076
 21
-7.29909
  0
LINE
  8
0
 10
-10.3076
 20
-7.29909
 11
-10.3644
 21
-7.39745
  0
LINE
  8
0
 10
-10.3644
 20
-7.39745
 11
-10.4832
 21
-7.61761
  0
LINE
  8
0
 10
-10.4832
 20
-7.61761
 11
-10.4448
 21
-7.68413
  0
LINE
  8
0
 10
-10.4448
 20
-7.68413
 11
-10.5801
 21
-7.74007
  0
LINE
  8
0
 10
-10.5801
 20
-7.74007
 11
-11.3301
 21
-9.03911
  0
LINE
  8
0
 10
-11.3301
 20
-9.03911
 11
-11.4489
 21
-9.25928
  0
LINE
  8
0
 10
-11.4489
 20
-9.25928
 11
-11.373
 21
-9.3907
  0
LINE
  8
0
 10
-11.373
 20
-9.3907
 11
-11.3974
 21
-9.40076
  0
LINE
  8
0
 10
-11.3974
 20
-9.40076
 11
-12.1474
 21
-10.6998
  0
LINE
  8
0
 10
-12.1474
 20
-10.6998
 11
-12.2665
 21
-10.9201
  0
LINE
  8
0
 10
-12.2665
 20
-10.9201
 11
-12.205
 21
-11.0265
  0
LINE
  8
0
 10
-12.205
 20
-11.0265
 11
-12.3974
 21
-11.106
  0
LINE
  8
0
 10
-12.3974
 20
-11.106
 11
-13.1474
 21
-12.405
  0
LINE
  8
0
 10
-13.1474
 20
-12.405
 11
-13.2665
 21
-12.625
  0
LINE
  8
0
 10
-13.2665
 20
-12.625
 11
-12.9413
 21
-13.1883
  0
LINE
  8
0
 10
-12.9413
 20
-13.1883
 11
-12.9552
 21
-13.419
  0
LINE
  8
0
 10
-12.9552
 20
-13.419
 11
-12.2052
 21
-14.718
  0
LINE
  8
0
 10
-12.2052
 20
-14.718
 11
-11.3464
 21
-14.718
  0
LINE
  8
0
 10
-11.3464
 20
-14.718
 11
-11.4981
 21
-15.0214
  0
LINE
  8
0
 10
-11.4981
 20
-15.0214
 11
-10.7481
 21
-16.3204
  0
LINE
  8
0
 10
-10.7481
 20
-16.3204
 11
-9.3517
 21
-17.019
  0
LINE
  8
0
 10
-9.3517
 20
-17.019
 11
-7.8517
 21
-17.019
  0
LINE
  8
0
 10
-7.8517
 20
-17.019
 11
-7.33722
 21
-16.1279
  0
LINE
  8
0
 10
1.63885
 20
1.74989
 11
0.888855
 21
3.04893
  0
LINE
  8
0
 10
0.888855
 20
3.04893
 11
-0.506973
 21
3.74796
  0
LINE
  8
0
 10
-0.506973
 20
3.74796
 11
-2.00697
 21
3.74796
  0
LINE
  8
0
 10
-2.00697
 20
3.74796
 11
-2.75697
 21
2.44893
  0
LINE
  8
0
 10
-2.75697
 20
2.44893
 11
-4.32776
 21
-0.690811
  0
LINE
  8
0
 10
-4.32776
 20
-0.690811
 11
-4.54935
 21
-0.307007
  0
LINE
  8
0
 10
-4.54935
 20
-0.307007
 11
-5.04262
 21
0.342773
  0
LINE
  8
0
 10
-5.04262
 20
0.342773
 11
-5.15331
 21
0.561768
  0
LINE
  8
0
 10
-5.15331
 20
0.561768
 11
-5.51938
 21
1.82021
  0
LINE
  8
0
 10
-5.51938
 20
1.82021
 11
-5.64667
 21
3.16347
  0
LINE
  8
0
 10
-5.64667
 20
3.16347
 11
-5.50282
 21
4.59081
  0
LINE
  8
0
 10
-5.50282
 20
4.59081
 11
-5.09018
 21
5.92001
  0
LINE
  8
0
 10
-5.09018
 20
5.92001
 11
-5.05589
 21
5.98317
  0
LINE
  8
0
 10
-5.05589
 20
5.98317
 11
-4.3226
 21
6.87201
  0
LINE
  8
0
 10
-4.3226
 20
6.87201
 11
-3.27451
 21
7.73669
  0
LINE
  8
0
 10
-3.27451
 20
7.73669
 11
-2.07158
 21
8.38959
  0
LINE
  8
0
 10
-2.07158
 20
8.38959
 11
-0.742233
 21
8.80222
  0
LINE
  8
0
 10
-0.742233
 20
8.80222
 11
-0.0651398
 21
8.87047
  0
LINE
  8
0
 10
-0.0651398
 20
8.87047
 11
0.612
 21
8.80222
  0
LINE
  8
0
 10
0.612
 20
8.80222
 11
1.94135
 21
8.38959
  0
LINE
  8
0
 10
1.94135
 20
8.38959
 11
3.14429
 21
7.73669
  0
LINE
  8
0
 10
3.14429
 20
7.73669
 11
4.19223
 21
6.87201
  0
LINE
  8
0
 10
4.19223
 20
6.87201
 11
4.92593
 21
5.98267
  0
LINE
  8
0
 10
4.92593
 20
5.98267
 11
4.95995
 21
5.92001
  0
LINE
  8
0
 10
4.95995
 20
5.92001
 11
5.37245
 21
4.59081
  0
LINE
  8
0
 10
5.37245
 20
4.59081
 11
5.51645
 21
3.16347
  0
LINE
  8
0
 10
5.51645
 20
3.16347
 11
5.37245
 21
1.73642
  0
LINE
  8
0
 10
5.37245
 20
1.73642
 11
4.95995
 21
0.407074
  0
LINE
  8
0
 10
4.95995
 20
0.407074
 11
4.92615
 21
0.344818
  0
LINE
  8
0
 10
4.92615
 20
0.344818
 11
4.19223
 21
-0.544754
  0
LINE
  8
0
 10
4.19223
 20
-0.544754
 11
3.14429
 21
-1.40945
  0
LINE
  8
0
 10
3.14429
 20
-1.40945
 11
1.94135
 21
-2.06233
  0
LINE
  8
0
 10
1.94135
 20
-2.06233
 11
0.612
 21
-2.47498
  0
LINE
  8
0
 10
0.612
 20
-2.47498
 11
-0.532822
 21
-2.59048
  0
LINE
  8
0
 10
-0.532822
 20
-2.59048
 11
1.63885
 21
1.74989
  0
LINE
  8
0
 10
-7.12427
 20
-5.85085
 11
-7.45122
 21
-5.83401
  0
LINE
  8
0
 10
-7.45122
 20
-5.83401
 11
-7.67332
 21
-5.83401
  0
LINE
  8
0
 10
-7.67332
 20
-5.83401
 11
-6.35507
 21
-4.58072
  0
LINE
  8
0
 10
-6.35507
 20
-4.58072
 11
-5.74652
 21
-3.52669
  0
LINE
  8
0
 10
-5.74652
 20
-3.52669
 11
-6.93102
 21
-5.89432
  0
LINE
  8
0
 10
-6.93102
 20
-5.89432
 11
-7.12427
 21
-5.85085
  0
LINE
  8
0
 10
-2.67651
 20
-7.41794
 11
-2.89087
 21
-7.36375
  0
LINE
  8
0
 10
-2.89087
 20
-7.36375
 11
-2.91615
 21
-7.35387
  0
LINE
  8
0
 10
-2.91615
 20
-7.35387
 11
-1.90475
 21
-5.33246
  0
LINE
  8
0
 10
-1.90475
 20
-5.33246
 11
-1.84355
 21
-5.43846
  0
LINE
  8
0
 10
-1.84355
 20
-5.43846
 11
-2.35136
 21
-6.31801
  0
LINE
  8
0
 10
-2.35136
 20
-6.31801
 11
-2.4893
 21
-7.41794
  0
LINE
  8
0
 10
-2.4893
 20
-7.41794
 11
-2.67651
 21
-7.41794
  0
LINE
  8
0
 10
42.1354
 20
-13.2196
 11
42.3229
 21
-13.1694
  0
LINE
  8
0
 10
42.3229
 20
-13.1694
 11
42.4602
 21
-13.0321
  0
LINE
  8
0
 10
42.4602
 20
-13.0321
 11
42.5104
 21
-12.8446
  0
LINE
  8
0
 10
42.5104
 20
-12.8446
 11
43.2617
 21
-9.61943
  0
LINE
  8
0
 10
43.2617
 20
-9.61943
 11
44.2968
 21
-9.32533
  0
LINE
  8
0
 10
44.2968
 20
-9.32533
 11
45.1609
 21
-8.99133
  0
LINE
  8
0
 10
45.1609
 20
-8.99133
 11
47.8133
 21
-11.2003
  0
LINE
  8
0
 10
47.8133
 20
-11.2003
 11
48.0008
 21
-11.2506
  0
LINE
  8
0
 10
48.0008
 20
-11.2506
 11
48.1883
 21
-11.2003
  0
LINE
  8
0
 10
48.1883
 20
-11.2003
 11
49.9753
 21
-10.0257
  0
LINE
  8
0
 10
49.9753
 20
-10.0257
 11
50.1126
 21
-9.88843
  0
LINE
  8
0
 10
50.1126
 20
-9.88843
 11
50.1628
 21
-9.70093
  0
LINE
  8
0
 10
50.1628
 20
-9.70093
 11
50.1126
 21
-9.51343
  0
LINE
  8
0
 10
50.1126
 20
-9.51343
 11
49.1734
 21
-6.34769
  0
LINE
  8
0
 10
49.1734
 20
-6.34769
 11
49.4044
 21
-6.12085
  0
LINE
  8
0
 10
49.4044
 20
-6.12085
 11
49.5417
 21
-5.98358
  0
LINE
  8
0
 10
49.5417
 20
-5.98358
 11
50.3938
 21
-5.02821
  0
LINE
  8
0
 10
50.3938
 20
-5.02821
 11
50.6212
 21
-4.72589
  0
LINE
  8
0
 10
50.6212
 20
-4.72589
 11
54.0235
 21
-5.29424
  0
LINE
  8
0
 10
54.0235
 20
-5.29424
 11
54.211
 21
-5.24399
  0
LINE
  8
0
 10
54.211
 20
-5.24399
 11
54.3483
 21
-5.10674
  0
LINE
  8
0
 10
54.3483
 20
-5.10674
 11
55.2914
 21
-3.19569
  0
LINE
  8
0
 10
55.2914
 20
-3.19569
 11
55.3416
 21
-3.00819
  0
LINE
  8
0
 10
55.3416
 20
-3.00819
 11
55.2914
 21
-2.82069
  0
LINE
  8
0
 10
55.2914
 20
-2.82069
 11
55.1541
 21
-2.68343
  0
LINE
  8
0
 10
55.1541
 20
-2.68343
 11
52.7536
 21
-0.419327
  0
LINE
  8
0
 10
52.7536
 20
-0.419327
 11
52.8426
 21
-0.101654
  0
LINE
  8
0
 10
52.8426
 20
-0.101654
 11
52.8928
 21
0.0858307
  0
LINE
  8
0
 10
52.8928
 20
0.0858307
 11
52.9672
 21
0.400192
  0
LINE
  8
0
 10
52.9672
 20
0.400192
 11
53.0334
 21
0.714539
  0
LINE
  8
0
 10
53.0334
 20
0.714539
 11
53.141
 21
1.33505
  0
LINE
  8
0
 10
53.141
 20
1.33505
 11
53.1839
 21
1.69789
  0
LINE
  8
0
 10
53.1839
 20
1.69789
 11
56.4032
 21
2.91298
  0
LINE
  8
0
 10
56.4032
 20
2.91298
 11
56.5404
 21
3.05023
  0
LINE
  8
0
 10
56.5404
 20
3.05023
 11
56.5907
 21
3.23773
  0
LINE
  8
0
 10
56.5907
 20
3.23773
 11
56.4502
 21
5.36395
  0
LINE
  8
0
 10
56.4502
 20
5.36395
 11
56.4
 21
5.55145
  0
LINE
  8
0
 10
56.4
 20
5.55145
 11
56.2627
 21
5.68871
  0
LINE
  8
0
 10
56.2627
 20
5.68871
 11
56.0752
 21
5.73895
  0
LINE
  8
0
 10
56.0752
 20
5.73895
 11
52.8567
 21
6.48851
  0
LINE
  8
0
 10
52.8567
 20
6.48851
 11
52.7853
 21
6.7702
  0
LINE
  8
0
 10
52.7853
 20
6.7702
 11
52.7351
 21
6.9577
  0
LINE
  8
0
 10
52.7351
 20
6.9577
 11
52.553
 21
7.52855
  0
LINE
  8
0
 10
52.553
 20
7.52855
 11
52.2215
 21
8.38921
  0
LINE
  8
0
 10
52.2215
 20
8.38921
 11
54.4309
 21
11.0459
  0
LINE
  8
0
 10
54.4309
 20
11.0459
 11
54.4812
 21
11.2334
  0
LINE
  8
0
 10
54.4812
 20
11.2334
 11
54.4309
 21
11.4209
  0
LINE
  8
0
 10
54.4309
 20
11.4209
 11
53.2563
 21
13.1997
  0
LINE
  8
0
 10
53.2563
 20
13.1997
 11
53.119
 21
13.337
  0
LINE
  8
0
 10
53.119
 20
13.337
 11
52.9315
 21
13.3872
  0
LINE
  8
0
 10
52.9315
 20
13.3872
 11
52.744
 21
13.337
  0
LINE
  8
0
 10
52.744
 20
13.337
 11
49.5547
 21
12.4192
  0
LINE
  8
0
 10
49.5547
 20
12.4192
 11
48.7267
 21
13.2248
  0
LINE
  8
0
 10
48.7267
 20
13.2248
 11
47.9548
 21
13.8408
  0
LINE
  8
0
 10
47.9548
 20
13.8408
 11
48.5248
 21
17.2519
  0
LINE
  8
0
 10
48.5248
 20
17.2519
 11
48.4745
 21
17.4394
  0
LINE
  8
0
 10
48.4745
 20
17.4394
 11
48.3373
 21
17.5767
  0
LINE
  8
0
 10
48.3373
 20
17.5767
 11
46.4263
 21
18.5197
  0
LINE
  8
0
 10
46.4263
 20
18.5197
 11
46.2388
 21
18.57
  0
LINE
  8
0
 10
46.2388
 20
18.57
 11
46.0513
 21
18.5197
  0
LINE
  8
0
 10
46.0513
 20
18.5197
 11
45.914
 21
18.3825
  0
LINE
  8
0
 10
45.914
 20
18.3825
 11
43.6455
 21
15.9774
  0
LINE
  8
0
 10
43.6455
 20
15.9774
 11
42.5204
 21
16.2595
  0
LINE
  8
0
 10
42.5204
 20
16.2595
 11
41.5375
 21
16.4042
  0
LINE
  8
0
 10
41.5375
 20
16.4042
 11
40.9463
 21
17.9855
  0
LINE
  8
0
 10
40.9463
 20
17.9855
 11
40.9214
 21
18.0434
  0
LINE
  8
0
 10
40.9214
 20
18.0434
 11
40.3174
 21
19.6317
  0
LINE
  8
0
 10
40.3174
 20
19.6317
 11
40.1802
 21
19.7689
  0
LINE
  8
0
 10
40.1802
 20
19.7689
 11
39.9927
 21
19.8192
  0
LINE
  8
0
 10
39.9927
 20
19.8192
 11
37.8666
 21
19.6786
  0
LINE
  8
0
 10
37.8666
 20
19.6786
 11
37.6791
 21
19.6283
  0
LINE
  8
0
 10
37.6791
 20
19.6283
 11
37.5418
 21
19.4911
  0
LINE
  8
0
 10
37.5418
 20
19.4911
 11
37.4916
 21
19.3036
  0
LINE
  8
0
 10
37.4916
 20
19.3036
 11
36.7403
 21
16.0784
  0
LINE
  8
0
 10
36.7403
 20
16.0784
 11
35.7049
 21
15.7844
  0
LINE
  8
0
 10
35.7049
 20
15.7844
 11
34.8411
 21
15.4503
  0
LINE
  8
0
 10
34.8411
 20
15.4503
 11
32.1887
 21
17.6594
  0
LINE
  8
0
 10
32.1887
 20
17.6594
 11
32.0012
 21
17.7097
  0
LINE
  8
0
 10
32.0012
 20
17.7097
 11
31.8137
 21
17.6594
  0
LINE
  8
0
 10
31.8137
 20
17.6594
 11
30.0267
 21
16.4846
  0
LINE
  8
0
 10
30.0267
 20
16.4846
 11
29.8895
 21
16.3474
  0
LINE
  8
0
 10
29.8895
 20
16.3474
 11
29.8393
 21
16.1599
  0
LINE
  8
0
 10
29.8393
 20
16.1599
 11
29.8895
 21
15.9724
  0
LINE
  8
0
 10
29.8895
 20
15.9724
 11
30.8299
 21
12.8024
  0
LINE
  8
0
 10
30.8299
 20
12.8024
 11
30.0219
 21
11.9795
  0
LINE
  8
0
 10
30.0219
 20
11.9795
 11
29.6082
 21
11.4913
  0
LINE
  8
0
 10
29.6082
 20
11.4913
 11
29.6048
 21
11.4786
  0
LINE
  8
0
 10
29.6048
 20
11.4786
 11
29.382
 21
11.1846
  0
LINE
  8
0
 10
29.382
 20
11.1846
 11
25.9785
 21
11.7532
  0
LINE
  8
0
 10
25.9785
 20
11.7532
 11
25.791
 21
11.7029
  0
LINE
  8
0
 10
25.791
 20
11.7029
 11
25.6538
 21
11.5657
  0
LINE
  8
0
 10
25.6538
 20
11.5657
 11
24.7107
 21
9.65463
  0
LINE
  8
0
 10
24.7107
 20
9.65463
 11
24.6604
 21
9.46713
  0
LINE
  8
0
 10
24.6604
 20
9.46713
 11
24.7107
 21
9.27963
  0
LINE
  8
0
 10
24.7107
 20
9.27963
 11
24.8479
 21
9.14238
  0
LINE
  8
0
 10
24.8479
 20
9.14238
 11
27.2492
 21
6.87755
  0
LINE
  8
0
 10
27.2492
 20
6.87755
 11
27.1341
 21
6.45586
  0
LINE
  8
0
 10
27.1341
 20
6.45586
 11
27.0761
 21
6.22426
  0
LINE
  8
0
 10
27.0761
 20
6.22426
 11
26.9727
 21
5.76929
  0
LINE
  8
0
 10
26.9727
 20
5.76929
 11
26.8611
 21
5.12401
  0
LINE
  8
0
 10
26.8611
 20
5.12401
 11
26.8181
 21
4.76118
  0
LINE
  8
0
 10
26.8181
 20
4.76118
 11
23.5987
 21
3.54594
  0
LINE
  8
0
 10
23.5987
 20
3.54594
 11
23.4615
 21
3.40868
  0
LINE
  8
0
 10
23.4615
 20
3.40868
 11
23.4112
 21
3.22118
  0
LINE
  8
0
 10
23.4112
 20
3.22118
 11
23.552
 21
1.09511
  0
LINE
  8
0
 10
23.552
 20
1.09511
 11
23.6022
 21
0.907608
  0
LINE
  8
0
 10
23.6022
 20
0.907608
 11
23.7395
 21
0.770355
  0
LINE
  8
0
 10
23.7395
 20
0.770355
 11
23.927
 21
0.720108
  0
LINE
  8
0
 10
23.927
 20
0.720108
 11
27.146
 21
-0.0296936
  0
LINE
  8
0
 10
27.146
 20
-0.0296936
 11
27.2167
 21
-0.307175
  0
LINE
  8
0
 10
27.2167
 20
-0.307175
 11
27.267
 21
-0.494675
  0
LINE
  8
0
 10
27.267
 20
-0.494675
 11
27.7846
 21
-1.925
  0
LINE
  8
0
 10
27.7846
 20
-1.925
 11
25.571
 21
-4.5829
  0
LINE
  8
0
 10
25.571
 20
-4.5829
 11
25.5208
 21
-4.7704
  0
LINE
  8
0
 10
25.5208
 20
-4.7704
 11
25.5208
 21
-4.77859
  0
LINE
  8
0
 10
25.5208
 20
-4.77859
 11
25.571
 21
-4.96609
  0
LINE
  8
0
 10
25.571
 20
-4.96609
 11
26.7458
 21
-6.74062
  0
LINE
  8
0
 10
26.7458
 20
-6.74062
 11
26.8831
 21
-6.87787
  0
LINE
  8
0
 10
26.8831
 20
-6.87787
 11
27.0706
 21
-6.92812
  0
LINE
  8
0
 10
27.0706
 20
-6.92812
 11
27.2581
 21
-6.87787
  0
LINE
  8
0
 10
27.2581
 20
-6.87787
 11
30.7161
 21
-5.85614
  0
LINE
  8
0
 10
30.7161
 20
-5.85614
 11
33.0824
 21
-3.60645
  0
LINE
  8
0
 10
33.0824
 20
-3.60645
 11
33.2197
 21
-3.46918
  0
LINE
  8
0
 10
33.2197
 20
-3.46918
 11
33.2699
 21
-3.28168
  0
LINE
  8
0
 10
33.2699
 20
-3.28168
 11
33.2197
 21
-3.09418
  0
LINE
  8
0
 10
33.2197
 20
-3.09418
 11
32.7921
 21
-2.61166
  0
LINE
  8
0
 10
32.7921
 20
-2.61166
 11
32.2306
 21
-1.85141
  0
LINE
  8
0
 10
32.2306
 20
-1.85141
 11
31.7493
 21
-1.04413
  0
LINE
  8
0
 10
31.7493
 20
-1.04413
 11
31.3507
 21
-0.196136
  0
LINE
  8
0
 10
31.3507
 20
-0.196136
 11
31.05
 21
0.650696
  0
LINE
  8
0
 10
31.05
 20
0.650696
 11
30.8623
 21
1.40932
  0
LINE
  8
0
 10
30.8623
 20
1.40932
 11
30.7275
 21
2.34169
  0
LINE
  8
0
 10
30.7275
 20
2.34169
 11
30.6858
 21
3.2896
  0
LINE
  8
0
 10
30.6858
 20
3.2896
 11
30.739
 21
4.23691
  0
LINE
  8
0
 10
30.739
 20
4.23691
 11
30.8849
 21
5.16753
  0
LINE
  8
0
 10
30.8849
 20
5.16753
 11
31.0758
 21
5.90106
  0
LINE
  8
0
 10
31.0758
 20
5.90106
 11
31.3948
 21
6.76654
  0
LINE
  8
0
 10
31.3948
 20
6.76654
 11
31.8036
 21
7.60971
  0
LINE
  8
0
 10
31.8036
 20
7.60971
 11
32.2946
 21
8.41127
  0
LINE
  8
0
 10
32.2946
 20
8.41127
 11
32.8652
 21
9.16493
  0
LINE
  8
0
 10
32.8652
 20
9.16493
 11
33.4321
 21
9.7773
  0
LINE
  8
0
 10
33.4321
 20
9.7773
 11
34.0896
 21
10.3598
  0
LINE
  8
0
 10
34.0896
 20
10.3598
 11
34.8577
 21
10.9156
  0
LINE
  8
0
 10
34.8577
 20
10.9156
 11
35.6731
 21
11.3921
  0
LINE
  8
0
 10
35.6731
 20
11.3921
 11
36.5296
 21
11.7867
  0
LINE
  8
0
 10
36.5296
 20
11.7867
 11
37.3758
 21
12.0811
  0
LINE
  8
0
 10
37.3758
 20
12.0811
 11
38.1533
 21
12.2697
  0
LINE
  8
0
 10
38.1533
 20
12.2697
 11
39.095
 21
12.4031
  0
LINE
  8
0
 10
39.095
 20
12.4031
 11
40.0524
 21
12.4444
  0
LINE
  8
0
 10
40.0524
 20
12.4444
 11
41.0422
 21
12.3891
  0
LINE
  8
0
 10
41.0422
 20
12.3891
 11
42.0029
 21
12.2382
  0
LINE
  8
0
 10
42.0029
 20
12.2382
 11
42.7541
 21
12.0421
  0
LINE
  8
0
 10
42.7541
 20
12.0421
 11
43.6297
 21
11.719
  0
LINE
  8
0
 10
43.6297
 20
11.719
 11
44.4738
 21
11.3103
  0
LINE
  8
0
 10
44.4738
 20
11.3103
 11
45.2693
 21
10.8253
  0
LINE
  8
0
 10
45.2693
 20
10.8253
 11
46.0116
 21
10.2691
  0
LINE
  8
0
 10
46.0116
 20
10.2691
 11
46.6222
 21
9.71303
  0
LINE
  8
0
 10
46.6222
 20
9.71303
 11
47.1792
 21
9.09901
  0
LINE
  8
0
 10
47.1792
 20
9.09901
 11
47.7322
 21
8.35767
  0
LINE
  8
0
 10
47.7322
 20
8.35767
 11
48.2125
 21
7.56444
  0
LINE
  8
0
 10
48.2125
 20
7.56444
 11
48.6152
 21
6.72392
  0
LINE
  8
0
 10
48.6152
 20
6.72392
 11
48.9264
 21
5.86632
  0
LINE
  8
0
 10
48.9264
 20
5.86632
 11
49.1183
 21
5.10849
  0
LINE
  8
0
 10
49.1183
 20
5.10849
 11
49.2594
 21
4.15575
  0
LINE
  8
0
 10
49.2594
 20
4.15575
 11
49.3035
 21
3.17519
  0
LINE
  8
0
 10
49.3035
 20
3.17519
 11
49.2477
 21
2.19536
  0
LINE
  8
0
 10
49.2477
 20
2.19536
 11
49.0952
 21
1.24423
  0
LINE
  8
0
 10
49.0952
 20
1.24423
 11
48.9001
 21
0.511475
  0
LINE
  8
0
 10
48.9001
 20
0.511475
 11
48.5704
 21
-0.364441
  0
LINE
  8
0
 10
48.5704
 20
-0.364441
 11
48.1575
 21
-1.20015
  0
LINE
  8
0
 10
48.1575
 20
-1.20015
 11
47.6677
 21
-1.98764
  0
LINE
  8
0
 10
47.6677
 20
-1.98764
 11
47.1058
 21
-2.7224
  0
LINE
  8
0
 10
47.1058
 20
-2.7224
 11
46.558
 21
-3.31207
  0
LINE
  8
0
 10
46.558
 20
-3.31207
 11
45.9225
 21
-3.877
  0
LINE
  8
0
 10
45.9225
 20
-3.877
 11
45.1737
 21
-4.42441
  0
LINE
  8
0
 10
45.1737
 20
-4.42441
 11
44.3724
 21
-4.90004
  0
LINE
  8
0
 10
44.3724
 20
-4.90004
 11
43.5234
 21
-5.29863
  0
LINE
  8
0
 10
43.5234
 20
-5.29863
 11
42.6659
 21
-5.60359
  0
LINE
  8
0
 10
42.6659
 20
-5.60359
 11
41.8898
 21
-5.79639
  0
LINE
  8
0
 10
41.8898
 20
-5.79639
 11
40.9274
 21
-5.93599
  0
LINE
  8
0
 10
40.9274
 20
-5.93599
 11
39.937
 21
-5.97963
  0
LINE
  8
0
 10
39.937
 20
-5.97963
 11
39.1486
 21
-5.94301
  0
LINE
  8
0
 10
39.1486
 20
-5.94301
 11
38.9611
 21
-5.99326
  0
LINE
  8
0
 10
38.9611
 20
-5.99326
 11
38.8239
 21
-6.13051
  0
LINE
  8
0
 10
38.8239
 20
-6.13051
 11
38.7736
 21
-6.31801
  0
LINE
  8
0
 10
38.7736
 20
-6.31801
 11
38.3602
 21
-9.61406
  0
LINE
  8
0
 10
38.3602
 20
-9.61406
 11
38.4105
 21
-9.80156
  0
LINE
  8
0
 10
38.4105
 20
-9.80156
 11
39.0559
 21
-11.5264
  0
LINE
  8
0
 10
39.0559
 20
-11.5264
 11
39.6845
 21
-13.1728
  0
LINE
  8
0
 10
39.6845
 20
-13.1728
 11
39.8217
 21
-13.31
  0
LINE
  8
0
 10
39.8217
 20
-13.31
 11
40.0092
 21
-13.3603
  0
LINE
  8
0
 10
40.0092
 20
-13.3603
 11
42.1354
 21
-13.2196
  0
LINE
  8
0
 10
40.8593
 20
-5.00331
 11
41.6623
 21
-4.88071
  0
LINE
  8
0
 10
41.6623
 20
-4.88071
 11
42.5311
 21
-4.65636
  0
LINE
  8
0
 10
42.5311
 20
-4.65636
 11
43.2741
 21
-4.38449
  0
LINE
  8
0
 10
43.2741
 20
-4.38449
 11
43.981
 21
-4.04391
  0
LINE
  8
0
 10
43.981
 20
-4.04391
 11
44.6478
 21
-3.63873
  0
LINE
  8
0
 10
44.6478
 20
-3.63873
 11
45.2704
 21
-3.17322
  0
LINE
  8
0
 10
45.2704
 20
-3.17322
 11
45.8447
 21
-2.65128
  0
LINE
  8
0
 10
45.8447
 20
-2.65128
 11
45.9133
 21
-2.58266
  0
LINE
  8
0
 10
45.9133
 20
-2.58266
 11
46.4353
 21
-2.00829
  0
LINE
  8
0
 10
46.4353
 20
-2.00829
 11
46.9008
 21
-1.38573
  0
LINE
  8
0
 10
46.9008
 20
-1.38573
 11
47.306
 21
-0.718933
  0
LINE
  8
0
 10
47.306
 20
-0.718933
 11
47.6465
 21
-0.0120087
  0
LINE
  8
0
 10
47.6465
 20
-0.0120087
 11
47.9184
 21
0.730942
  0
LINE
  8
0
 10
47.9184
 20
0.730942
 11
48.1429
 21
1.59975
  0
LINE
  8
0
 10
48.1429
 20
1.59975
 11
48.2654
 21
2.40277
  0
LINE
  8
0
 10
48.2654
 20
2.40277
 11
48.3071
 21
3.22968
  0
LINE
  8
0
 10
48.3071
 20
3.22968
 11
48.2654
 21
4.05658
  0
LINE
  8
0
 10
48.2654
 20
4.05658
 11
48.1429
 21
4.85962
  0
LINE
  8
0
 10
48.1429
 20
4.85962
 11
47.9184
 21
5.72826
  0
LINE
  8
0
 10
47.9184
 20
5.72826
 11
47.6465
 21
6.47139
  0
LINE
  8
0
 10
47.6465
 20
6.47139
 11
47.306
 21
7.17831
  0
LINE
  8
0
 10
47.306
 20
7.17831
 11
46.9008
 21
7.84511
  0
LINE
  8
0
 10
46.9008
 20
7.84511
 11
46.4353
 21
8.46767
  0
LINE
  8
0
 10
46.4353
 20
8.46767
 11
45.9133
 21
9.04204
  0
LINE
  8
0
 10
45.9133
 20
9.04204
 11
45.8447
 21
9.11066
  0
LINE
  8
0
 10
45.8447
 20
9.11066
 11
45.2704
 21
9.63258
  0
LINE
  8
0
 10
45.2704
 20
9.63258
 11
44.6478
 21
10.0981
  0
LINE
  8
0
 10
44.6478
 20
10.0981
 11
43.981
 21
10.5033
  0
LINE
  8
0
 10
43.981
 20
10.5033
 11
43.2741
 21
10.8437
  0
LINE
  8
0
 10
43.2741
 20
10.8437
 11
42.5311
 21
11.1157
  0
LINE
  8
0
 10
42.5311
 20
11.1157
 11
41.6623
 21
11.3401
  0
LINE
  8
0
 10
41.6623
 20
11.3401
 11
40.8593
 21
11.4627
  0
LINE
  8
0
 10
40.8593
 20
11.4627
 11
40.0324
 21
11.5044
  0
LINE
  8
0
 10
40.0324
 20
11.5044
 11
39.2055
 21
11.4627
  0
LINE
  8
0
 10
39.2055
 20
11.4627
 11
38.4026
 21
11.3401
  0
LINE
  8
0
 10
38.4026
 20
11.3401
 11
37.5338
 21
11.1157
  0
LINE
  8
0
 10
37.5338
 20
11.1157
 11
36.7907
 21
10.8437
  0
LINE
  8
0
 10
36.7907
 20
10.8437
 11
36.0837
 21
10.5033
  0
LINE
  8
0
 10
36.0837
 20
10.5033
 11
35.4169
 21
10.0981
  0
LINE
  8
0
 10
35.4169
 20
10.0981
 11
34.7944
 21
9.63258
  0
LINE
  8
0
 10
34.7944
 20
9.63258
 11
34.22
 21
9.11066
  0
LINE
  8
0
 10
34.22
 20
9.11066
 11
34.1514
 21
9.04204
  0
LINE
  8
0
 10
34.1514
 20
9.04204
 11
33.6295
 21
8.46767
  0
LINE
  8
0
 10
33.6295
 20
8.46767
 11
33.1639
 21
7.84511
  0
LINE
  8
0
 10
33.1639
 20
7.84511
 11
32.7588
 21
7.17831
  0
LINE
  8
0
 10
32.7588
 20
7.17831
 11
32.4183
 21
6.47139
  0
LINE
  8
0
 10
32.4183
 20
6.47139
 11
32.1463
 21
5.72826
  0
LINE
  8
0
 10
32.1463
 20
5.72826
 11
31.922
 21
4.85962
  0
LINE
  8
0
 10
31.922
 20
4.85962
 11
31.7994
 21
4.05658
  0
LINE
  8
0
 10
31.7994
 20
4.05658
 11
31.7576
 21
3.22968
  0
LINE
  8
0
 10
31.7576
 20
3.22968
 11
31.7994
 21
2.40277
  0
LINE
  8
0
 10
31.7994
 20
2.40277
 11
31.922
 21
1.59975
  0
LINE
  8
0
 10
31.922
 20
1.59975
 11
32.1463
 21
0.730957
  0
LINE
  8
0
 10
32.1463
 20
0.730957
 11
32.4183
 21
-0.0120087
  0
LINE
  8
0
 10
32.4183
 20
-0.0120087
 11
32.7588
 21
-0.718933
  0
LINE
  8
0
 10
32.7588
 20
-0.718933
 11
33.1639
 21
-1.38573
  0
LINE
  8
0
 10
33.1639
 20
-1.38573
 11
33.6295
 21
-2.00829
  0
LINE
  8
0
 10
33.6295
 20
-2.00829
 11
33.8861
 21
-2.29568
  0
LINE
  8
0
 10
33.8861
 20
-2.29568
 11
33.9547
 21
-2.36432
  0
LINE
  8
0
 10
33.9547
 20
-2.36432
 11
34.0485
 21
-2.38943
  0
LINE
  8
0
 10
34.0485
 20
-2.38943
 11
34.1422
 21
-2.36432
  0
LINE
  8
0
 10
34.1422
 20
-2.36432
 11
34.7944
 21
-1.76842
  0
LINE
  8
0
 10
34.7944
 20
-1.76842
 11
34.863
 21
-1.6998
  0
LINE
  8
0
 10
34.863
 20
-1.6998
 11
34.8881
 21
-1.60605
  0
LINE
  8
0
 10
34.8881
 20
-1.60605
 11
34.863
 21
-1.5123
  0
LINE
  8
0
 10
34.863
 20
-1.5123
 11
34.0903
 21
-0.494385
  0
LINE
  8
0
 10
34.0903
 20
-0.494385
 11
33.509
 21
0.655502
  0
LINE
  8
0
 10
33.509
 20
0.655502
 11
33.1671
 21
1.83116
  0
LINE
  8
0
 10
33.1671
 20
1.83116
 11
33.0408
 21
3.16347
  0
LINE
  8
0
 10
33.0408
 20
3.16347
 11
33.1827
 21
4.57181
  0
LINE
  8
0
 10
33.1827
 20
4.57181
 11
33.5722
 21
5.82626
  0
LINE
  8
0
 10
33.5722
 20
5.82626
 11
34.2251
 21
7.02919
  0
LINE
  8
0
 10
34.2251
 20
7.02919
 11
35.0587
 21
8.03969
  0
LINE
  8
0
 10
35.0587
 20
8.03969
 11
36.0692
 21
8.87335
  0
LINE
  8
0
 10
36.0692
 20
8.87335
 11
37.2722
 21
9.52623
  0
LINE
  8
0
 10
37.2722
 20
9.52623
 11
38.5267
 21
9.91568
  0
LINE
  8
0
 10
38.5267
 20
9.91568
 11
39.9348
 21
10.0576
  0
LINE
  8
0
 10
39.9348
 20
10.0576
 11
41.343
 21
9.91568
  0
LINE
  8
0
 10
41.343
 20
9.91568
 11
42.5976
 21
9.52623
  0
LINE
  8
0
 10
42.5976
 20
9.52623
 11
43.8005
 21
8.87335
  0
LINE
  8
0
 10
43.8005
 20
8.87335
 11
44.8109
 21
8.03969
  0
LINE
  8
0
 10
44.8109
 20
8.03969
 11
45.6445
 21
7.02919
  0
LINE
  8
0
 10
45.6445
 20
7.02919
 11
46.2976
 21
5.82626
  0
LINE
  8
0
 10
46.2976
 20
5.82626
 11
46.6869
 21
4.57184
  0
LINE
  8
0
 10
46.6869
 20
4.57184
 11
46.8289
 21
3.16347
  0
LINE
  8
0
 10
46.8289
 20
3.16347
 11
46.6869
 21
1.75537
  0
LINE
  8
0
 10
46.6869
 20
1.75537
 11
46.2976
 21
0.500824
  0
LINE
  8
0
 10
46.2976
 20
0.500824
 11
45.6445
 21
-0.70195
  0
LINE
  8
0
 10
45.6445
 20
-0.70195
 11
44.8109
 21
-1.71245
  0
LINE
  8
0
 10
44.8109
 20
-1.71245
 11
43.8005
 21
-2.54611
  0
LINE
  8
0
 10
43.8005
 20
-2.54611
 11
42.5976
 21
-3.19899
  0
LINE
  8
0
 10
42.5976
 20
-3.19899
 11
41.343
 21
-3.58844
  0
LINE
  8
0
 10
41.343
 20
-3.58844
 11
39.9348
 21
-3.73051
  0
LINE
  8
0
 10
39.9348
 20
-3.73051
 11
39.4249
 21
-3.71205
  0
LINE
  8
0
 10
39.4249
 20
-3.71205
 11
39.3311
 21
-3.73717
  0
LINE
  8
0
 10
39.3311
 20
-3.73717
 11
39.2625
 21
-3.8058
  0
LINE
  8
0
 10
39.2625
 20
-3.8058
 11
39.2374
 21
-3.89955
  0
LINE
  8
0
 10
39.2374
 20
-3.89955
 11
39.1122
 21
-4.8205
  0
LINE
  8
0
 10
39.1122
 20
-4.8205
 11
39.1373
 21
-4.91425
  0
LINE
  8
0
 10
39.1373
 20
-4.91425
 11
39.2059
 21
-4.98288
  0
LINE
  8
0
 10
39.2059
 20
-4.98288
 11
39.2997
 21
-5.008
  0
LINE
  8
0
 10
39.2997
 20
-5.008
 11
40.0324
 21
-5.04506
  0
LINE
  8
0
 10
40.0324
 20
-5.04506
 11
40.8593
 21
-5.00331
  0
LINE
  8
0
 10
35.4482
 20
-7.97482
 11
35.5168
 21
-7.90619
  0
LINE
  8
0
 10
35.5168
 20
-7.90619
 11
40.3012
 21
1.65614
  0
LINE
  8
0
 10
40.3012
 20
1.65614
 11
40.3264
 21
1.74989
  0
LINE
  8
0
 10
40.3264
 20
1.74989
 11
40.3012
 21
1.84364
  0
LINE
  8
0
 10
40.3012
 20
1.84364
 11
40.2326
 21
1.91228
  0
LINE
  8
0
 10
40.2326
 20
1.91228
 11
38.8368
 21
2.6113
  0
LINE
  8
0
 10
38.8368
 20
2.6113
 11
38.743
 21
2.63643
  0
LINE
  8
0
 10
38.743
 20
2.63643
 11
38.6493
 21
2.6113
  0
LINE
  8
0
 10
38.6493
 20
2.6113
 11
38.5806
 21
2.54266
  0
LINE
  8
0
 10
38.5806
 20
2.54266
 11
33.7963
 21
-7.0204
  0
LINE
  8
0
 10
33.7963
 20
-7.0204
 11
33.7712
 21
-7.11415
  0
LINE
  8
0
 10
33.7712
 20
-7.11415
 11
33.7963
 21
-7.2079
  0
LINE
  8
0
 10
33.7963
 20
-7.2079
 11
33.8649
 21
-7.27654
  0
LINE
  8
0
 10
33.8649
 20
-7.27654
 11
35.2607
 21
-7.97482
  0
LINE
  8
0
 10
35.2607
 20
-7.97482
 11
35.3544
 21
-7.99994
  0
LINE
  8
0
 10
35.3544
 20
-7.99994
 11
35.4482
 21
-7.97482
  0
LINE
  8
0
 10
36.891
 20
-9.83492
 11
37.2876
 21
-9.05658
  0
LINE
  8
0
 10
37.2876
 20
-9.05658
 11
37.1698
 21
-8.85614
  0
LINE
  8
0
 10
37.1698
 20
-8.85614
 11
37.15
 21
-8.71698
  0
LINE
  8
0
 10
37.15
 20
-8.71698
 11
37.0763
 21
-8.84413
  0
LINE
  8
0
 10
37.0763
 20
-8.84413
 11
36.359
 21
-8.66272
  0
LINE
  8
0
 10
36.359
 20
-8.66272
 11
34.457
 21
-7.92026
  0
LINE
  8
0
 10
34.457
 20
-7.92026
 11
32.6377
 21
-7.26503
  0
LINE
  8
0
 10
32.6377
 20
-7.26503
 11
32.1257
 21
-7.14989
  0
LINE
  8
0
 10
32.1257
 20
-7.14989
 11
31.7988
 21
-7.13306
  0
LINE
  8
0
 10
31.7988
 20
-7.13306
 11
31.4586
 21
-7.26401
  0
LINE
  8
0
 10
31.4586
 20
-7.26401
 11
31.3801
 21
-7.29646
  0
LINE
  8
0
 10
31.3801
 20
-7.29646
 11
31.1346
 21
-7.7782
  0
LINE
  8
0
 10
31.1346
 20
-7.7782
 11
31.2478
 21
-7.93256
  0
LINE
  8
0
 10
31.2478
 20
-7.93256
 11
31.3426
 21
-8.16811
  0
LINE
  8
0
 10
31.3426
 20
-8.16811
 11
31.3283
 21
-8.412
  0
LINE
  8
0
 10
31.3283
 20
-8.412
 11
31.431
 21
-8.22144
  0
LINE
  8
0
 10
31.431
 20
-8.22144
 11
31.7759
 21
-8.27065
  0
LINE
  8
0
 10
31.7759
 20
-8.27065
 11
32.392
 21
-8.47954
  0
LINE
  8
0
 10
32.392
 20
-8.47954
 11
34.2175
 21
-9.21986
  0
LINE
  8
0
 10
34.2175
 20
-9.21986
 11
35.6112
 21
-9.71616
  0
LINE
  8
0
 10
35.6112
 20
-9.71616
 11
36.4699
 21
-9.87128
  0
LINE
  8
0
 10
36.4699
 20
-9.87128
 11
36.891
 21
-9.83492
  0
LINE
  8
0
 10
36.0168
 20
-11.4687
 11
36.0657
 21
-11.4547
  0
LINE
  8
0
 10
36.0657
 20
-11.4547
 11
36.3913
 21
-10.8155
  0
LINE
  8
0
 10
36.3913
 20
-10.8155
 11
36.2046
 21
-10.4972
  0
LINE
  8
0
 10
36.2046
 20
-10.4972
 11
36.1847
 21
-10.3578
  0
LINE
  8
0
 10
36.1847
 20
-10.3578
 11
36.1102
 21
-10.4864
  0
LINE
  8
0
 10
36.1102
 20
-10.4864
 11
35.3935
 21
-10.3052
  0
LINE
  8
0
 10
35.3935
 20
-10.3052
 11
33.491
 21
-9.56337
  0
LINE
  8
0
 10
33.491
 20
-9.56337
 11
31.6719
 21
-8.90741
  0
LINE
  8
0
 10
31.6719
 20
-8.90741
 11
31.16
 21
-8.79198
  0
LINE
  8
0
 10
31.16
 20
-8.79198
 11
30.833
 21
-8.77484
  0
LINE
  8
0
 10
30.833
 20
-8.77484
 11
30.5766
 21
-8.87347
  0
LINE
  8
0
 10
30.5766
 20
-8.87347
 11
30.2449
 21
-9.52429
  0
LINE
  8
0
 10
30.2449
 20
-9.52429
 11
30.2822
 21
-9.57523
  0
LINE
  8
0
 10
30.2822
 20
-9.57523
 11
30.377
 21
-9.81078
  0
LINE
  8
0
 10
30.377
 20
-9.81078
 11
30.3625
 21
-10.0534
  0
LINE
  8
0
 10
30.3625
 20
-10.0534
 11
30.4655
 21
-9.86411
  0
LINE
  8
0
 10
30.4655
 20
-9.86411
 11
30.8103
 21
-9.91302
  0
LINE
  8
0
 10
30.8103
 20
-9.91302
 11
31.4263
 21
-10.1218
  0
LINE
  8
0
 10
31.4263
 20
-10.1218
 11
33.2514
 21
-10.8612
  0
LINE
  8
0
 10
33.2514
 20
-10.8612
 11
34.6452
 21
-11.3578
  0
LINE
  8
0
 10
34.6452
 20
-11.3578
 11
35.5041
 21
-11.5129
  0
LINE
  8
0
 10
35.5041
 20
-11.5129
 11
36.0168
 21
-11.4687
  0
LINE
  8
0
 10
35.2003
 20
-13.1294
 11
35.2145
 21
-13.1253
  0
LINE
  8
0
 10
35.2145
 20
-13.1253
 11
35.5583
 21
-12.4506
  0
LINE
  8
0
 10
35.5583
 20
-12.4506
 11
35.3868
 21
-12.1582
  0
LINE
  8
0
 10
35.3868
 20
-12.1582
 11
35.3667
 21
-12.0183
  0
LINE
  8
0
 10
35.3667
 20
-12.0183
 11
35.2933
 21
-12.1466
  0
LINE
  8
0
 10
35.2933
 20
-12.1466
 11
34.5761
 21
-11.9654
  0
LINE
  8
0
 10
34.5761
 20
-11.9654
 11
32.6737
 21
-11.223
  0
LINE
  8
0
 10
32.6737
 20
-11.223
 11
30.8486
 21
-10.5668
  0
LINE
  8
0
 10
30.8486
 20
-10.5668
 11
30.3424
 21
-10.453
  0
LINE
  8
0
 10
30.3424
 20
-10.453
 11
30.0155
 21
-10.4358
  0
LINE
  8
0
 10
30.0155
 20
-10.4358
 11
29.7234
 21
-10.5479
  0
LINE
  8
0
 10
29.7234
 20
-10.5479
 11
29.4106
 21
-11.1618
  0
LINE
  8
0
 10
29.4106
 20
-11.1618
 11
29.4643
 21
-11.2349
  0
LINE
  8
0
 10
29.4643
 20
-11.2349
 11
29.5593
 21
-11.4702
  0
LINE
  8
0
 10
29.5593
 20
-11.4702
 11
29.5453
 21
-11.7141
  0
LINE
  8
0
 10
29.5453
 20
-11.7141
 11
29.6475
 21
-11.5238
  0
LINE
  8
0
 10
29.6475
 20
-11.5238
 11
29.9926
 21
-11.5731
  0
LINE
  8
0
 10
29.9926
 20
-11.5731
 11
30.6249
 21
-11.7887
  0
LINE
  8
0
 10
30.6249
 20
-11.7887
 11
32.4342
 21
-12.5219
  0
LINE
  8
0
 10
32.4342
 20
-12.5219
 11
33.8286
 21
-13.0189
  0
LINE
  8
0
 10
33.8286
 20
-13.0189
 11
34.6877
 21
-13.1739
  0
LINE
  8
0
 10
34.6877
 20
-13.1739
 11
35.2003
 21
-13.1294
  0
LINE
  8
0
 10
34.1986
 20
-14.8345
 11
34.3682
 21
-14.7862
  0
LINE
  8
0
 10
34.3682
 20
-14.7862
 11
34.6287
 21
-14.275
  0
LINE
  8
0
 10
34.6287
 20
-14.275
 11
34.3867
 21
-13.8631
  0
LINE
  8
0
 10
34.3867
 20
-13.8631
 11
34.3666
 21
-13.7235
  0
LINE
  8
0
 10
34.3666
 20
-13.7235
 11
34.2925
 21
-13.8516
  0
LINE
  8
0
 10
34.2925
 20
-13.8516
 11
33.5761
 21
-13.6704
  0
LINE
  8
0
 10
33.5761
 20
-13.6704
 11
31.674
 21
-12.9283
  0
LINE
  8
0
 10
31.674
 20
-12.9283
 11
29.8545
 21
-12.2729
  0
LINE
  8
0
 10
29.8545
 20
-12.2729
 11
29.3427
 21
-12.1578
  0
LINE
  8
0
 10
29.3427
 20
-12.1578
 11
29.0156
 21
-12.1408
  0
LINE
  8
0
 10
29.0156
 20
-12.1408
 11
28.8865
 21
-12.1904
  0
LINE
  8
0
 10
28.8865
 20
-12.1904
 11
28.4821
 21
-12.9842
  0
LINE
  8
0
 10
28.4821
 20
-12.9842
 11
28.5594
 21
-13.1763
  0
LINE
  8
0
 10
28.5594
 20
-13.1763
 11
28.5446
 21
-13.419
  0
LINE
  8
0
 10
28.5446
 20
-13.419
 11
28.6479
 21
-13.2293
  0
LINE
  8
0
 10
28.6479
 20
-13.2293
 11
28.9929
 21
-13.2785
  0
LINE
  8
0
 10
28.9929
 20
-13.2785
 11
29.6088
 21
-13.4874
  0
LINE
  8
0
 10
29.6088
 20
-13.4874
 11
31.4342
 21
-14.2267
  0
LINE
  8
0
 10
31.4342
 20
-14.2267
 11
32.8274
 21
-14.723
  0
LINE
  8
0
 10
32.8274
 20
-14.723
 11
33.6861
 21
-14.8783
  0
LINE
  8
0
 10
33.6861
 20
-14.8783
 11
34.1986
 21
-14.8345
  0
LINE
  8
0
 10
31.492
 20
-15.8823
 11
31.5607
 21
-15.8137
  0
LINE
  8
0
 10
31.5607
 20
-15.8137
 11
31.9664
 21
-15.0023
  0
LINE
  8
0
 10
31.9664
 20
-15.0023
 11
31.9915
 21
-14.9086
  0
LINE
  8
0
 10
31.9915
 20
-14.9086
 11
31.9664
 21
-14.8148
  0
LINE
  8
0
 10
31.9664
 20
-14.8148
 11
31.8978
 21
-14.7462
  0
LINE
  8
0
 10
31.8978
 20
-14.7462
 11
30.5014
 21
-14.0478
  0
LINE
  8
0
 10
30.5014
 20
-14.0478
 11
30.4076
 21
-14.0227
  0
LINE
  8
0
 10
30.4076
 20
-14.0227
 11
30.3139
 21
-14.0478
  0
LINE
  8
0
 10
30.3139
 20
-14.0478
 11
30.2452
 21
-14.1164
  0
LINE
  8
0
 10
30.2452
 20
-14.1164
 11
29.8395
 21
-14.9276
  0
LINE
  8
0
 10
29.8395
 20
-14.9276
 11
29.8144
 21
-15.0214
  0
LINE
  8
0
 10
29.8144
 20
-15.0214
 11
29.8395
 21
-15.1151
  0
LINE
  8
0
 10
29.8395
 20
-15.1151
 11
29.9081
 21
-15.1838
  0
LINE
  8
0
 10
29.9081
 20
-15.1838
 11
31.3045
 21
-15.8823
  0
LINE
  8
0
 10
31.3045
 20
-15.8823
 11
31.3983
 21
-15.9075
  0
LINE
  8
0
 10
31.3983
 20
-15.9075
 11
31.492
 21
-15.8823
  0
ENDSEC
  0
SECTION
  2
OBJECTS
  0
DICTIONARY
  0
ENDSEC
  0
EOF
