<?xml version="1.0" encoding="UTF-8" standalone="no"?>
<!-- Created with Inkscape (http://www.inkscape.org/) -->

<svg
   xmlns:dc="http://purl.org/dc/elements/1.1/"
   xmlns:cc="http://creativecommons.org/ns#"
   xmlns:rdf="http://www.w3.org/1999/02/22-rdf-syntax-ns#"
   xmlns:svg="http://www.w3.org/2000/svg"
   xmlns="http://www.w3.org/2000/svg"
   xmlns:sodipodi="http://sodipodi.sourceforge.net/DTD/sodipodi-0.dtd"
   xmlns:inkscape="http://www.inkscape.org/namespaces/inkscape"
   width="210mm"
   height="297mm"
   viewBox="0 0 210 297"
   version="1.1"
   id="svg8"
   inkscape:version="0.92.1 r15371"
   sodipodi:docname="maker faire nova 2019.svg">
  <defs
     id="defs2" />
  <sodipodi:namedview
     id="base"
     pagecolor="#ffffff"
     bordercolor="#666666"
     borderopacity="1.0"
     inkscape:pageopacity="0.0"
     inkscape:pageshadow="2"
     inkscape:zoom="0.12374369"
     inkscape:cx="1468.0978"
     inkscape:cy="2209.1063"
     inkscape:document-units="mm"
     inkscape:current-layer="layer1"
     showgrid="false"
     inkscape:window-width="1680"
     inkscape:window-height="987"
     inkscape:window-x="1592"
     inkscape:window-y="-8"
     inkscape:window-maximized="1" />
  <metadata
     id="metadata5">
    <rdf:RDF>
      <cc:Work
         rdf:about="">
        <dc:format>image/svg+xml</dc:format>
        <dc:type
           rdf:resource="http://purl.org/dc/dcmitype/StillImage" />
        <dc:title></dc:title>
      </cc:Work>
    </rdf:RDF>
  </metadata>
  <g
     inkscape:label="Layer 1"
     inkscape:groupmode="layer"
     id="layer1">
    <path
       style="fill:none;stroke:#000000;stroke-width:0.26458332;stroke-miterlimit:4;stroke-dasharray:none;stroke-opacity:1"
       d="M -966.26707,-550.11614 V -669.17863 H -38.51069 1534.2999 l 0.1432,0.59531 c 0.079,0.32742 0.1405,53.90554 0.1373,119.0625 l -0.01,118.46718 H -38.37335 -966.26707 Z"
       id="path107"
       inkscape:connector-curvature="0"
       sodipodi:nodetypes="cccccccccc" />
    <path
       style="fill:none;stroke:#000000;stroke-width:0.26458332;stroke-miterlimit:4;stroke-dasharray:none;stroke-opacity:1"
       d="M 1515.5245,-550.90989 V -655.15572 H -38.37335 -947.21707 v 104.24583 104.24583 H -38.37335 1515.5245 Z"
       id="path105"
       inkscape:connector-curvature="0"
       sodipodi:nodetypes="ccccccccc" />
    <path
       style="fill:none;stroke-width:0.26458333;stroke:#000000;stroke-opacity:1;stroke-miterlimit:4;stroke-dasharray:none"
       d="m -438.02646,-470.37905 c -24.77587,-2.06095 -41.49497,-14.09241 -48.30011,-34.75792 -1.27272,-3.86499 -2.28423,-8.32712 -2.93883,-12.96459 -0.23784,-1.68485 -0.35206,-5.2613 -0.34645,-10.84791 0.007,-7.41528 0.0737,-8.71085 0.60095,-11.74826 2.25981,-13.01867 6.96521,-22.66532 14.99346,-30.73835 10.33023,-10.38787 25.51009,-16.49717 41.01806,-16.50814 23.89632,-0.0169 40.56433,11.57851 47.73084,33.20481 2.91771,8.80482 4.25979,18.16433 4.25979,29.70751 v 5.07826 h -37.47508 -37.47508 l 0.1733,1.65365 c 0.2721,2.59643 1.10524,6.21404 1.9876,8.63035 2.23293,6.11489 5.6665,10.15565 10.95349,12.89049 3.64146,1.88364 6.56024,2.53774 11.99459,2.68798 2.6189,0.0724 5.46719,5.3e-4 6.75005,-0.17008 8.87257,-1.18071 18.25461,-5.25983 25.63543,-11.14573 1.27362,-1.01567 2.37212,-1.84666 2.44112,-1.84666 0.12015,0 1.0277,1.38361 9.41025,14.34648 l 3.71668,5.74752 -2.03274,1.64124 c -9.69811,7.83034 -21.97089,12.81155 -36.14306,14.66956 -2.85115,0.37379 -14.29591,0.69092 -16.95426,0.46979 z"
       id="path103" />
    <path
       style="fill:none;stroke-width:0.26458333;stroke:#000000;stroke-opacity:1;stroke-miterlimit:4;stroke-dasharray:none"
       d="m -411.58202,-541.18645 c -1.67918,-12.38778 -6.67112,-19.43184 -15.46423,-21.82131 -1.30733,-0.35526 -2.73505,-0.46764 -5.95313,-0.46859 -3.70022,-10e-4 -4.48323,0.0768 -6.2177,0.61837 -8.38912,2.61949 -13.86441,9.78953 -15.98856,20.93741 l -0.35412,1.8586 h 22.06508 22.06509 z"
       id="path101" />
    <path
       style="fill:none;stroke-width:0.26458333;stroke:#000000;stroke-opacity:1;stroke-miterlimit:4;stroke-dasharray:none"
       d="m 161.84514,-470.47215 c -27.45171,-2.67004 -44.62513,-17.67374 -49.36884,-43.13149 -0.93028,-4.99246 -1.21118,-8.46618 -1.21957,-15.08125 -0.0101,-8.00837 0.53925,-12.72921 2.21697,-19.05 5.8557,-22.06131 24.37098,-37.25837 48.70712,-39.97805 3.78124,-0.42257 12.45415,-0.14579 16.27187,0.51929 10.62196,1.85044 18.82331,5.93035 25.54063,12.70572 2.95179,2.97729 4.42618,4.84885 6.50721,8.26019 2.97974,4.88453 5.02259,9.90913 6.71187,16.50848 1.77374,6.92935 2.51508,13.11654 2.81353,23.48177 l 0.18092,6.28385 h -37.61197 c -21.30547,0 -37.61198,0.10033 -37.61198,0.23142 0,0.12729 0.25014,1.70417 0.55586,3.50419 2.00123,11.78298 7.89811,18.8744 17.83268,21.44509 2.14749,0.55569 2.95267,0.61554 8.20208,0.6097 5.06281,-0.006 6.18051,-0.0851 8.58282,-0.61051 5.54649,-1.213 11.32065,-3.5109 16.6039,-6.60771 2.0551,-1.20461 6.86409,-4.7062 7.45556,-5.42864 0.56783,-0.69353 0.90049,-0.53803 1.74078,0.81371 0.42952,0.69096 3.25689,5.08535 6.283,9.7653 3.02615,4.67995 5.56554,8.6744 5.64312,8.87654 0.0918,0.23923 -0.85469,1.11824 -2.71116,2.51792 -10.33881,7.79487 -21.09444,12.08563 -34.99906,13.96224 -3.57222,0.48212 -14.94075,0.73163 -18.32734,0.40224 z"
       id="path99" />
    <path
       style="fill:none;stroke-width:0.26458333;stroke:#000000;stroke-opacity:1;stroke-miterlimit:4;stroke-dasharray:none"
       d="m 189.29415,-541.70513 c -0.59912,-5.16213 -2.31632,-10.21045 -4.67005,-13.72931 -3.73002,-5.57644 -9.01653,-8.16933 -16.66531,-8.17391 -9.26561,-0.006 -16.19798,4.90055 -19.95874,14.12499 -0.90191,2.21226 -1.96398,5.96358 -2.34897,8.29691 l -0.18553,1.12448 h 22.00966 22.00965 z"
       id="path97" />
    <path
       style="fill:none;stroke-width:0.26458333;stroke:#000000;stroke-opacity:1;stroke-miterlimit:4;stroke-dasharray:none"
       d="m -688.32229,-470.91766 c -8.7772,-0.72624 -15.97593,-3.78938 -21.33168,-9.07688 -3.93785,-3.88768 -6.5192,-8.7821 -7.81812,-14.82368 -0.66085,-3.07368 -0.66106,-10.51171 0,-13.82975 1.62454,-8.15929 5.56897,-14.72539 11.95234,-19.89647 10.99545,-8.90725 28.2566,-14.30772 54.15068,-16.94203 2.08619,-0.21223 4.06096,-0.38823 4.38838,-0.39111 0.57904,-0.005 0.59531,-0.0807 0.59531,-2.77033 0,-4.49572 -0.85272,-7.17863 -3.06295,-9.63695 -2.85681,-3.17744 -7.83537,-4.44868 -15.56864,-3.97535 -10.60206,0.64892 -20.89337,4.58704 -31.21625,11.94534 -2.48402,1.77064 -2.63829,1.84128 -2.97815,1.36378 -0.19714,-0.27697 -1.76742,-2.40859 -3.48951,-4.73692 -6.50359,-8.7931 -9.20631,-12.46352 -9.82173,-13.33842 l -0.63519,-0.903 1.30548,-1.15872 c 4.22998,-3.75444 10.11013,-7.63793 15.98986,-10.56033 7.98115,-3.96686 16.31844,-6.37749 26.59062,-7.68833 5.32591,-0.67965 18.82304,-0.68347 23.15104,-0.007 9.88806,1.54652 16.78729,4.64936 22.14965,9.96151 5.5258,5.47408 8.59131,12.35477 10.3192,23.16191 0.36288,2.26969 0.44961,7.19082 0.60627,34.3986 0.15737,27.33484 0.24508,32.28211 0.63063,35.57649 0.48731,4.16359 1.22809,7.91505 2.01411,10.19964 l 0.50089,1.45588 -16.97765,-0.0681 -16.97768,-0.0681 -0.73176,-2.8891 c -0.8655,-3.41714 -1.53223,-7.93429 -1.53728,-10.41531 -0.007,-3.27473 0.0289,-3.2721 -2.99868,-0.22213 -9.42129,9.49111 -19.69773,14.2796 -32.71645,15.24481 -3.48456,0.25834 -4.30551,0.26969 -6.48229,0.0896 z"
       id="path95" />
    <path
       style="fill:none;stroke-width:0.26458333;stroke:#000000;stroke-opacity:1;stroke-miterlimit:4;stroke-dasharray:none"
       d="m -667.77898,-496.68432 c 8.19042,-0.8328 14.63479,-3.4635 20.00075,-8.16465 l 1.38573,-1.21404 0.003,-10.64948 c 0.003,-6.78957 -0.0908,-10.64948 -0.25627,-10.64948 -0.1428,0 -2.46711,0.29928 -5.16517,0.66506 -13.11063,1.77746 -22.05604,4.62822 -27.38152,8.72608 -2.09373,1.61109 -3.29123,3.06731 -4.45106,5.41268 -0.9702,1.96196 -0.97488,1.98767 -0.96231,5.29167 0.0151,3.94319 0.39023,5.03241 2.50346,7.26681 2.86538,3.02972 7.21968,4.03761 14.32306,3.31535 z"
       id="path93" />
    <path
       style="fill:none;stroke-width:0.26458333;stroke:#000000;stroke-opacity:1;stroke-miterlimit:4;stroke-dasharray:none"
       d="m -110.86685,-471.0143 c -5.82975,-0.60016 -11.49733,-2.59282 -16.00962,-5.62881 -0.87312,-0.58747 -2.58061,-2.02993 -3.79441,-3.20547 -5.81817,-5.63478 -8.58724,-12.64208 -8.58171,-21.71652 0.008,-13.15939 5.54363,-22.95752 17.13862,-30.33573 10.69351,-6.80457 27.737516,-11.45187 49.940105,-13.61691 l 4.696354,-0.45795 -0.0093,-2.13637 c -0.04641,-10.73856 -5.816997,-15.05293 -18.919269,-14.14495 -7.772109,0.5386 -14.18384,2.37531 -21.78513,6.24057 -2.61263,1.32851 -8.15163,4.81035 -11.41878,7.17787 -0.43977,0.31867 -0.62693,0.15788 -2.00192,-1.71979 -0.83423,-1.13922 -2.18964,-2.96429 -3.01202,-4.05569 -0.82237,-1.09141 -3.37608,-4.53572 -5.67491,-7.65403 -3.70623,-5.02742 -4.1298,-5.70614 -3.73925,-5.99171 0.24225,-0.17713 1.05971,-0.85589 1.81663,-1.50835 9.98016,-8.60308 22.89413,-14.50482 36.830342,-16.83163 6.306899,-1.05302 8.600439,-1.21949 16.801041,-1.21949 9.977649,0 14.271492,0.5603 20.500604,2.67512 11.523793,3.9124 19.104873,12.42322 22.009943,24.70925 1.51249,6.39648 1.45079,4.96314 1.67458,38.89375 0.20478,31.05233 0.30657,34.48817 1.20298,40.61354 0.34076,2.32835 1.33093,6.5453 1.84827,7.87136 0.1709,0.43802 -0.73263,0.46302 -16.7391,0.46302 h -16.91972 l -0.295328,-0.99219 c -1.148451,-3.85861 -2.169663,-10.27174 -2.169663,-13.62552 v -1.8906 l -3.108854,3.04844 c -5.914734,5.79978 -11.175973,9.32659 -17.872048,11.98027 -5.941695,2.35473 -15.961067,3.72227 -22.408437,3.05852 z"
       id="path91" />
    <path
       style="fill:none;stroke-width:0.26458333;stroke:#000000;stroke-opacity:1;stroke-miterlimit:4;stroke-dasharray:none"
       d="m -89.020864,-496.68513 c 8.18544,-0.79131 15.517679,-3.88595 20.551166,-8.6738 l 0.992187,-0.94377 v -10.52964 c 0,-5.7913 -0.06988,-10.52963 -0.155257,-10.52963 -0.784278,0 -7.645982,0.94656 -10.692659,1.47503 -14.492817,2.51391 -23.266583,6.80194 -26.359273,12.88268 -2.11566,4.15973 -1.76207,9.35518 0.85397,12.5477 2.76963,3.37997 7.196904,4.5074 14.809866,3.77143 z"
       id="path89" />
    <path
       style="fill:none;stroke-width:0.26458333;stroke:#000000;stroke-opacity:1;stroke-miterlimit:4;stroke-dasharray:none"
       d="m 516.85477,-471.18022 c -9.39745,-0.39039 -17.75947,-2.38421 -25.52901,-6.08709 -12.75615,-6.07946 -21.42697,-15.99475 -25.92279,-29.64339 -4.13285,-12.54665 -4.55322,-29.02696 -1.08363,-42.48338 5.59583,-21.70276 21.93819,-35.55289 45.65626,-38.69366 16.44338,-2.17744 33.07405,1.19576 44.90746,9.1086 12.37628,8.27586 19.78393,21.20407 22.07144,38.52029 0.63886,4.8363 0.64116,16.38913 0.004,21.16667 -1.35006,10.12601 -4.75938,19.45113 -9.62496,26.32604 -2.75336,3.89042 -8.23762,9.21825 -12.22478,11.87611 -9.28746,6.19105 -20.30576,9.4941 -32.96253,9.88147 -1.89177,0.0579 -4.27302,0.0707 -5.29167,0.0283 z"
       id="path87" />
    <path
       style="fill:none;stroke-width:0.26458333;stroke:#000000;stroke-opacity:1;stroke-miterlimit:4;stroke-dasharray:none"
       d="m 522.55024,-495.36166 c 2.99381,-0.37235 4.75194,-0.89789 7.16253,-2.14102 6.84599,-3.53047 11.06141,-10.82128 12.85785,-22.2383 0.66665,-4.23677 0.66665,-15.23854 0,-19.47532 -1.35382,-8.60401 -3.83225,-14.27513 -8.12106,-18.58246 -2.55503,-2.56606 -5.08215,-4.05179 -8.61394,-5.06425 -2.78484,-0.79833 -8.76329,-0.85886 -11.62669,-0.11772 -9.37217,2.42585 -15.17398,10.35069 -17.19008,23.48036 -0.60256,3.92418 -0.8077,11.5476 -0.42627,15.84257 1.62951,18.34947 9.34484,27.95891 22.91495,28.54067 0.4404,0.0189 1.80962,-0.0912 3.04271,-0.24453 z"
       id="path85" />
    <path
       style="fill:none;stroke-width:0.26458333;stroke:#000000;stroke-opacity:1;stroke-miterlimit:4;stroke-dasharray:none"
       d="m 748.3465,-471.82977 c -11.15878,-1.17353 -20.6129,-7.49676 -24.99326,-16.71631 -2.01131,-4.23325 -2.9016,-8.52778 -2.9016,-13.99639 0,-12.67842 5.28857,-22.41384 16.13958,-29.71042 2.9333,-1.97245 9.84845,-5.34664 14.02291,-6.84237 8.98695,-3.22006 21.87303,-5.86984 34.925,-7.18166 2.25558,-0.2267 4.60706,-0.47619 5.22552,-0.55441 l 1.12448,-0.14223 -0.009,-1.90202 c -0.0375,-7.73323 -3.26718,-12.04393 -10.15494,-13.55401 -3.09147,-0.67779 -10.4126,-0.41571 -14.97124,0.53593 -8.73437,1.82335 -16.91182,5.64367 -25.34663,11.84139 -0.77102,0.56652 -1.51403,0.99227 -1.65113,0.94611 -0.13714,-0.0462 -3.46359,-4.42368 -7.39214,-9.72781 l -7.14286,-9.64388 0.5919,-0.63388 c 0.32555,-0.34863 1.66347,-1.50591 2.97315,-2.57173 7.97219,-6.48775 18.12211,-11.56269 28.31042,-14.15518 8.4523,-2.15074 13.76365,-2.76016 24.07708,-2.76259 9.02671,-0.002 11.51213,0.24766 17.31542,1.74025 15.86465,4.08034 24.76413,15.55221 26.4528,34.09901 0.16378,1.7988 0.32213,14.99506 0.38733,32.27916 0.07,18.55228 0.21944,30.49343 0.40894,32.67605 0.39928,4.59881 1.16125,9.07452 1.98302,11.64801 0.37063,1.16068 0.67538,2.25915 0.67723,2.44105 0.003,0.26119 -3.57603,0.33073 -17.02073,0.33073 h -17.02411 l -0.55067,-2.05052 c -1.11276,-4.14356 -1.91358,-9.32225 -1.91358,-12.37493 v -1.60704 l -2.84427,2.79344 c -9.32034,9.15376 -19.10458,13.7508 -31.55156,14.82421 -3.4866,0.30068 -6.0978,0.29269 -9.1468,-0.028 z"
       id="path83" />
    <path
       style="fill:none;stroke-width:0.26458333;stroke:#000000;stroke-opacity:1;stroke-miterlimit:4;stroke-dasharray:none"
       d="m 773.23916,-498.13101 c 6.63024,-1.03448 13.02025,-4.00072 17.48575,-8.11689 l 1.16422,-1.07313 v -10.31191 -10.3119 l -1.91823,0.18698 c -3.11404,0.30354 -9.75566,1.38674 -13.09811,2.1362 -13.0959,2.93641 -20.14305,7.23265 -22.28284,13.58458 -0.68353,2.02897 -0.74909,5.32759 -0.14589,7.3385 1.09855,3.66226 4.46786,6.23634 9.12159,6.96871 1.82247,0.28681 6.51015,0.0924 9.67351,-0.40114 z"
       id="path81" />
    <path
       style="fill:none;stroke-width:0.26458333;stroke:#000000;stroke-opacity:1;stroke-miterlimit:4;stroke-dasharray:none"
       d="m -895.29303,-551.10832 0.0666,-78.51511 h 22.74775 22.74774 l 1.7706,5.82084 c 0.97382,3.20145 3.33879,11.00005 5.25547,17.3302 1.91668,6.33016 4.19609,13.8311 5.06534,16.66875 0.86925,2.83766 1.88357,6.17141 2.25405,7.40834 0.37049,1.23692 1.07538,3.55864 1.56643,5.15937 0.49106,1.60073 2.96411,9.75651 5.49566,18.12396 2.53155,8.36745 6.60195,21.82151 9.04533,29.89792 2.44338,8.0764 4.53937,14.79549 4.65776,14.93131 0.11839,0.13582 0.27732,0.18489 0.35316,0.10905 0.15655,-0.15655 2.07298,-6.76487 5.81961,-20.06745 1.414,-5.02047 4.51208,-15.97422 6.88462,-24.34166 4.73509,-16.69966 9.47442,-33.4348 14.42381,-50.93229 1.76999,-6.2574 3.78845,-13.34162 4.48548,-15.74271 l 1.26731,-4.36563 23.31483,-0.0676 23.31484,-0.0676 v 78.58269 78.58269 h -16.66875 -16.66875 v -53.57813 c 0,-29.46796 -0.0993,-53.57812 -0.22061,-53.57812 -0.12133,0 -0.66873,2.29195 -1.21642,5.09323 -1.20655,6.17105 -3.73238,16.22481 -6.0988,24.27552 -1.38142,4.69967 -7.64521,24.25609 -9.53373,29.76562 -0.19953,0.58209 -1.25304,3.79677 -2.34114,7.14375 -2.81009,8.64378 -9.70348,29.77387 -11.65272,35.71875 l -1.64831,5.02709 h -15.31356 -15.31357 l -1.11762,-3.43959 c -2.40651,-7.40623 -20.33471,-62.88658 -21.93044,-67.86562 -1.86271,-5.81209 -4.54424,-15.22872 -5.71036,-20.05288 -0.81627,-3.37684 -3.68188,-16.93131 -3.68188,-17.41546 0,-0.0564 -0.11907,-0.1025 -0.26459,-0.1025 -0.17553,0 -0.26458,18.34445 -0.26458,54.50417 v 54.50417 h -15.47856 -15.47857 z"
       id="path79" />
    <path
       style="fill:none;stroke-width:0.26458333;stroke:#000000;stroke-opacity:1;stroke-miterlimit:4;stroke-dasharray:none"
       d="m -594.72638,-551.10832 0.0666,-78.51511 h 16.93333 16.93334 l 0.13229,43.10651 0.13229,43.1065 0.78118,-1.03775 c 0.42963,-0.57077 2.92995,-3.59423 5.55625,-6.7188 2.62628,-3.12457 5.66804,-6.7689 6.75944,-8.09851 6.87679,-8.37764 21.78892,-26.09247 22.04747,-26.19121 0.17042,-0.0651 8.43447,-0.0875 18.36457,-0.0498 l 18.05477,0.0685 -2.70894,3.06388 c -1.48989,1.68514 -5.92196,6.7453 -9.84901,11.2448 -3.92707,4.49949 -7.45672,8.53809 -7.8437,8.97465 -0.38695,0.43656 -4.22825,4.82758 -8.5362,9.75781 l -7.83265,8.96405 0.76857,1.35469 c 0.42269,0.74509 1.71608,3.08111 2.87422,5.19116 1.15813,2.11005 4.04243,7.3488 6.40955,11.64167 2.36715,4.29286 5.9123,10.72223 7.87816,14.28749 1.96585,3.56526 4.88344,8.86355 6.48353,11.77396 4.65551,8.46801 5.14837,9.3629 9.93154,18.03225 2.50123,4.53346 4.54771,8.31455 4.54771,8.40241 0,0.0879 -7.8839,0.12913 -17.51979,0.0917 l -17.5198,-0.068 -1.08448,-1.98438 c -2.39752,-4.38691 -13.23461,-24.32162 -14.09586,-25.92917 -0.50676,-0.94588 -1.89693,-3.50572 -3.0893,-5.68854 -1.19235,-2.18281 -3.15256,-5.78445 -4.35605,-8.00364 -1.20348,-2.2192 -2.28761,-4.0349 -2.40919,-4.0349 -0.18542,0 -2.20427,2.21011 -9.66745,10.58333 -0.45397,0.50933 -1.45973,1.64042 -2.23507,2.51355 -0.77531,0.87312 -1.50688,1.62718 -1.6257,1.67569 -0.11883,0.0485 -0.21606,7.04343 -0.21606,15.54427 v 15.45608 h -17.06608 -17.06604 z"
       id="path77" />
    <path
       style="fill:none;stroke-width:0.26458333;stroke:#000000;stroke-opacity:1;stroke-miterlimit:4;stroke-dasharray:none"
       d="m -366.19209,-529.08176 v -56.48854 h 17.06229 17.06227 l 0.0695,9.45885 0.0695,9.45885 1.76589,-2.51354 c 8.25833,-11.75479 19.81051,-18.15442 33.77983,-18.71321 l 3.79571,-0.15183 -0.19074,15.05492 c -0.10491,8.2802 -0.21799,15.08711 -0.2513,15.12647 -0.0333,0.0394 -1.53649,-0.0642 -3.34039,-0.23022 -4.02027,-0.3699 -9.98575,-0.1803 -12.73601,0.40478 -8.27262,1.75988 -15.83751,6.34294 -21.51367,13.03366 l -1.44161,1.69929 v 35.17453 35.17453 h -17.06562 -17.06563 z"
       id="path75" />
    <path
       style="fill:none;stroke-width:0.26458333;stroke:#000000;stroke-opacity:1;stroke-miterlimit:4;stroke-dasharray:none"
       d="m -231.18889,-551.10832 0.0666,-78.51511 h 51.85833 51.85833 l 0.0684,14.35365 0.0684,14.35364 h -34.66269 -34.66269 v 19.18229 19.1823 h 24.60625 24.60624 v 13.62604 13.62604 h -24.60624 -24.60625 v 31.35312 31.35313 h -17.33066 -17.33063 z"
       id="path73" />
    <path
       style="fill:none;stroke-width:0.26458333;stroke:#000000;stroke-opacity:1;stroke-miterlimit:4;stroke-dasharray:none"
       d="M -15.09001,-529.08176 V -585.5703 H 1.84332 18.77665 v 56.48854 56.48854 H 1.84332 -15.09001 Z"
       id="path71" />
    <path
       style="fill:none;stroke-width:0.26458333;stroke:#000000;stroke-opacity:1;stroke-miterlimit:4;stroke-dasharray:none"
       d="m 40.47249,-529.08176 v -56.48854 h 17.06562 17.06563 l 0.0143,9.45885 0.014,9.45885 0.63351,-0.79375 c 0.34843,-0.43656 1.5253,-1.99406 2.6153,-3.46112 2.47105,-3.32591 7.0825,-7.77548 10.26343,-9.90316 6.78659,-4.53949 15.27244,-7.11874 23.47695,-7.13576 l 2.48939,-0.005 -0.18791,15.00666 c -0.10334,8.25367 -0.22389,15.04267 -0.26789,15.08666 -0.044,0.044 -1.55593,-0.0562 -3.35984,-0.2227 -6.4844,-0.59846 -12.6507,0.0166 -17.50671,1.74628 -5.96926,2.12618 -12.25547,6.49415 -16.49222,11.4596 l -1.69235,1.98342 v 35.14921 35.1492 H 57.53808 40.47246 v -56.4885 z"
       id="path69" />
    <path
       style="fill:none;stroke-width:0.26458333;stroke:#000000;stroke-opacity:1;stroke-miterlimit:4;stroke-dasharray:none"
       d="m 641.46854,-473.18854 c -0.45866,-1.25712 -53.6761,-156.26725 -53.77471,-156.63332 -0.1179,-0.43759 0.8428,-0.46303 17.48748,-0.46303 h 17.6122 l 1.46571,4.59053 c 16.0429,50.24583 34.05399,106.51147 34.21269,106.87858 0.1421,0.32872 5.94616,-16.8736 18.72358,-55.49376 l 18.5176,-55.97016 16.33802,-0.003 c 8.98592,-10e-4 16.33802,0.0535 16.33802,0.12214 0,0.10463 -52.80403,153.88129 -53.71943,156.44245 l -0.30734,0.8599 h -16.38657 c -12.86854,0 -16.4125,-0.071 -16.50725,-0.33073 z"
       id="path67" />
    <path
       style="fill:none;stroke-width:0.26458333;stroke:#000000;stroke-opacity:1;stroke-miterlimit:4;stroke-dasharray:none"
       d="m 306.9079,-551.83783 v -78.45086 l 17.35825,0.068 17.35828,0.068 32.71411,49.80035 c 17.99278,27.39019 32.80344,49.8037 32.91258,49.8078 0.10914,0.004 0.19844,-22.43581 0.19844,-49.86648 v -49.87397 h 15.875 15.875 v 78.44896 78.44896 l -15.94115,-0.009 -15.94114,-0.009 -34.12432,-50.28306 c -18.76838,-27.65567 -34.21673,-50.34017 -34.32969,-50.40997 -0.11295,-0.0698 -0.20536,22.5615 -0.20536,50.29181 v 50.41874 h -15.875 -15.875 z"
       id="path65" />
    <path
       style="fill:none;stroke-width:0.26458333;stroke:#000000;stroke-opacity:1;stroke-miterlimit:4;stroke-dasharray:none"
       d="m 239.00171,-566.79758 c -6.24713,-1.10042 -10.87789,-5.85074 -11.78756,-12.09186 -1.09675,-7.52478 3.80638,-14.49932 11.29896,-16.07241 2.33058,-0.48931 3.494,-0.48897 5.82083,0.002 5.29378,1.11638 9.6166,5.29377 10.83739,10.47278 1.1549,4.8995 -0.27927,10.20465 -3.68142,13.61806 -3.16844,3.17894 -8.21518,4.82439 -12.4882,4.07171 z"
       id="path63" />
    <path
       style="fill:none;stroke-width:0.26458333;stroke:#000000;stroke-opacity:1;stroke-miterlimit:4;stroke-dasharray:none"
       d="m 243.70251,-568.90295 c 2.1149,-0.39471 4.50374,-1.67888 6.09754,-3.27789 4.68357,-4.69885 4.72799,-12.47332 0.099,-17.3263 -3.05573,-3.20362 -7.36518,-4.44429 -11.60304,-3.34046 -2.1504,0.5601 -3.49837,1.31204 -5.14678,2.87104 -2.59318,2.45253 -3.76428,5.27376 -3.76428,9.06838 0,5.34824 3.00596,9.75118 7.80521,11.43263 2.47801,0.86818 4.14374,1.01465 6.51232,0.5726 z"
       id="path61" />
    <path
       style="fill:none;stroke-width:0.26458333;stroke:#000000;stroke-opacity:1;stroke-miterlimit:4;stroke-dasharray:none"
       d="m 235.99956,-581.22842 v -7.82896 l 4.0349,0.0899 c 3.72827,0.0831 4.12337,0.14016 5.19919,0.75135 1.65124,0.93808 2.19713,2.06259 2.08421,4.29335 -0.0815,1.60978 -0.17643,1.86886 -0.99359,2.71198 -0.49694,0.5127 -1.06249,0.93217 -1.2568,0.93217 -0.78743,0 -0.5583,0.87848 0.9929,3.80653 l 1.62777,3.07264 -1.54482,-1.8e-4 -1.5448,-1.9e-4 -1.53683,-3.04252 -1.53686,-3.04253 h -1.4397 -1.43973 v 3.04271 3.04271 h -1.32292 -1.32292 z"
       id="path59" />
    <path
       style="fill:none;stroke-width:0.26458333;stroke:#000000;stroke-opacity:1;stroke-miterlimit:4;stroke-dasharray:none"
       d="m 243.14022,-581.94722 c 1.13792,-0.38936 1.71011,-1.44785 1.47116,-2.72155 -0.25495,-1.359 -1.08746,-1.76809 -3.6639,-1.80038 l -2.16979,-0.0272 -0.0781,2.09328 c -0.0429,1.1513 -0.0169,2.25263 0.0578,2.44739 0.17303,0.45089 3.07332,0.45649 4.38274,0.008 z"
       id="path57" />
    <path
       style="fill:none;stroke-width:0.26458333;stroke:#000000;stroke-opacity:1;stroke-miterlimit:4;stroke-dasharray:none"
       d="m -15.3546,-615.07134 v -13.62605 H 1.71103 18.77665 v 13.62605 13.62604 H 1.71103 -15.3546 Z"
       id="path44" />
    <g
       aria-label="2019"
       style="font-style:normal;font-variant:normal;font-weight:bold;font-stretch:normal;font-size:207.1599884px;line-height:1.25;font-family:sans-serif;-inkscape-font-specification:'sans-serif Bold';font-variant-ligatures:normal;font-variant-caps:normal;font-variant-numeric:normal;font-feature-settings:normal;text-align:start;letter-spacing:0px;word-spacing:0px;writing-mode:lr-tb;text-anchor:start;fill:none;fill-opacity:1;stroke:#000000;stroke-width:0.26458332;stroke-miterlimit:4;stroke-dasharray:none;stroke-opacity:1"
       id="text50">
      <path
         d="M 1025.6068,-471.71918 H 907.35973 v -24.88347 q 13.55441,-9.81178 27.10882,-20.83738 13.65557,-11.02561 21.84891,-19.01664 12.23943,-11.83483 17.3982,-20.63508 5.15877,-8.80025 5.15877,-17.3982 0,-10.31754 -6.67605,-15.88092 -6.57491,-5.66453 -19.01664,-5.66453 -9.30602,0 -19.62356,3.84379 -10.21638,3.84379 -19.01664,9.81177 h -3.23687 v -33.48142 q 7.18182,-3.13572 21.14084,-6.27144 14.06017,-3.13573 28.12035,-3.13573 28.32265,0 43.19204,11.93598 14.8694,11.83482 14.8694,33.58258 0,14.26248 -7.1818,27.10882 -7.0807,12.84635 -21.74777,26.50191 -9.20486,8.4968 -18.51088,15.67862 -9.30601,7.08066 -13.25095,9.91293 h 67.6709 z"
         style="font-style:normal;font-variant:normal;font-weight:bold;font-stretch:normal;font-size:207.1599884px;font-family:sans-serif;-inkscape-font-specification:'sans-serif Bold';fill:none;stroke:#000000;stroke-width:0.26458332;stroke-miterlimit:4;stroke-dasharray:none;stroke-opacity:1"
         id="path914" />
      <path
         d="m 1171.8731,-547.07767 q 0,19.01664 -3.4392,34.08834 -3.4392,14.97054 -10.7221,24.58002 -7.4853,9.81177 -19.219,14.86939 -11.7337,4.95647 -28.9296,4.95647 -16.8924,0 -28.8284,-5.05762 -11.9359,-5.05762 -19.3201,-14.97055 -7.4852,-9.91293 -10.8233,-24.58002 -3.338,-14.76824 -3.338,-33.78488 0,-19.62355 3.4392,-34.08833 3.4392,-14.46479 10.9244,-24.47887 7.4853,-9.91293 19.4213,-14.86939 11.936,-4.95647 28.5249,-4.95647 17.2971,0 29.0308,5.15877 11.7336,5.05762 19.2189,15.17285 7.3841,9.91293 10.7222,24.47887 3.338,14.46478 3.338,33.48142 z m -39.146,0 q 0,-27.31113 -5.361,-38.8425 -5.3611,-11.63252 -17.8029,-11.63252 -12.4417,0 -17.8028,11.63252 -5.361,11.53137 -5.361,39.04481 0,26.80537 5.4622,38.64019 5.4622,11.83482 17.7016,11.83482 12.2395,0 17.7017,-11.83482 5.4622,-11.83482 5.4622,-38.8425 z"
         style="font-style:normal;font-variant:normal;font-weight:bold;font-stretch:normal;font-size:207.1599884px;font-family:sans-serif;-inkscape-font-specification:'sans-serif Bold';fill:none;stroke:#000000;stroke-width:0.26458332;stroke-miterlimit:4;stroke-dasharray:none;stroke-opacity:1"
         id="path916" />
      <path
         d="m 1310.6541,-471.71918 h -100.5454 v -26.29961 h 31.7618 v -79.60689 h -31.7618 v -24.58001 q 7.2829,0 13.959,-0.80922 6.676,-0.91037 11.1268,-3.03457 5.2599,-2.52881 7.8898,-6.5749 2.63,-4.0461 3.0346,-10.11524 h 33.4814 v 124.72083 h 31.0538 z"
         style="font-style:normal;font-variant:normal;font-weight:bold;font-stretch:normal;font-size:207.1599884px;font-family:sans-serif;-inkscape-font-specification:'sans-serif Bold';fill:none;stroke:#000000;stroke-width:0.26458332;stroke-miterlimit:4;stroke-dasharray:none;stroke-opacity:1"
         id="path918" />
      <path
         d="m 1464.2033,-555.47331 q 0,18.91548 -4.8553,35.20101 -4.8553,16.28553 -14.7682,27.41228 -10.7222,12.03713 -26.6031,18.10627 -15.8809,5.96799 -37.0217,5.96799 -7.4853,0 -16.1844,-0.91037 -8.6991,-0.91037 -11.4302,-1.61844 v -29.63763 h 4.0461 q 3.0345,1.41613 8.5979,3.03457 5.6646,1.61843 15.3752,1.61843 7.8899,0 15.4763,-1.92189 7.5864,-2.02305 13.0486,-6.27144 5.968,-4.55186 9.8118,-11.32907 3.8438,-6.87836 5.1588,-16.48783 -8.8003,5.05762 -16.3867,7.78873 -7.4853,2.62996 -18.7132,2.62996 -8.4968,0 -16.2855,-2.02304 -7.6876,-2.1242 -14.0602,-6.47375 -8.3956,-5.96799 -13.4532,-15.67862 -4.9565,-9.81177 -4.9565,-24.68117 0,-24.17541 16.7913,-39.34826 16.8924,-15.274 44.2036,-15.274 14.0601,0 24.8834,3.74264 10.9245,3.64148 18.8144,11.22791 9.2048,8.6991 13.8578,22.15236 4.653,13.45326 4.653,32.77336 z m -38.7413,-5.66453 q 0,-12.34059 -2.4277,-20.23047 -2.3265,-7.99104 -6.4737,-12.34059 -2.9334,-3.23687 -6.7772,-4.653 -3.8438,-1.41614 -8.0922,-1.41614 -3.9449,0 -7.5864,1.41614 -3.5404,1.31498 -6.8784,4.653 -3.1357,3.23688 -5.1588,8.4968 -1.9219,5.25992 -1.9219,12.54289 0,7.08066 2.1242,11.93598 2.1242,4.75416 5.8669,7.58642 3.5403,2.73111 8.2945,3.84379 4.8553,1.11268 10.5198,1.11268 4.5519,0 9.9129,-1.11268 5.3611,-1.21383 8.2945,-2.42766 0,-1.11267 0.1012,-3.13572 0.2023,-2.1242 0.2023,-6.27144 z"
         style="font-style:normal;font-variant:normal;font-weight:bold;font-stretch:normal;font-size:207.1599884px;font-family:sans-serif;-inkscape-font-specification:'sans-serif Bold';fill:none;stroke:#000000;stroke-width:0.26458332;stroke-miterlimit:4;stroke-dasharray:none;stroke-opacity:1"
         id="path920" />
    </g>
  </g>
</svg>
