  0
SECTION
  2
HEADER
  9
$ACADVER
  1
AC1014
  9
$HANDSEED
  5
FFFF
  9
$MEASUREMENT
 70
     1
  0
ENDSEC
  0
SECTION
  2
TABLES
  0
TABLE
  2
VPORT
  5
8
330
0
100
AcDbSymbolTable
 70
     4
  0
VPORT
  5
2E
330
8
100
AcDbSymbolTableRecord
100
AcDbViewportTableRecord
  2
*ACTIVE
 70
     0
 10
0.0
 20
0.0
 11
1.0
 21
1.0
 12
210.0
 22
148.5
 13
0.0
 23
0.0
 14
10.0
 24
10.0
 15
10.0
 25
10.0
 16
0.0
 26
0.0
 36
1.0
 17
0.0
 27
0.0
 37
0.0
 40
341.0
 41
1.24
 42
50.0
 43
0.0
 44
0.0
 50
0.0
 51
0.0
 71
     0
 72
   100
 73
     1
 74
     3
 75
     0
 76
     0
 77
     0
 78
     0
  0
ENDTAB
  0
TABLE
  2
LTYPE
  5
5
330
0
100
AcDbSymbolTable
 70
     1
  0
LTYPE
  5
14
330
5
100
AcDbSymbolTableRecord
100
AcDbLinetypeTableRecord
  2
BYBLOCK
 70
     0
  3

 72
    65
 73
     0
 40
0.0
  0
LTYPE
  5
15
330
5
100
AcDbSymbolTableRecord
100
AcDbLinetypeTableRecord
  2
BYLAYER
 70
     0
  3

 72
    65
 73
     0
 40
0.0
  0
LTYPE
  5
16
330
5
100
AcDbSymbolTableRecord
100
AcDbLinetypeTableRecord
  2
CONTINUOUS
 70
     0
  3
Solid line
 72
    65
 73
     0
 40
0.0
  0
ENDTAB
  0
TABLE
  2
LAYER
  5
2
100
AcDbSymbolTable
 70
3
  0
LAYER
  5
50
100
AcDbSymbolTableRecord
100
AcDbLayerTableRecord
  2
0
 70
0
  6
CONTINUOUS
  0
LAYER
  5
51
100
AcDbSymbolTableRecord
100
AcDbLayerTableRecord
  2
makey
 70
0
  6
CONTINUOUS
  0
LAYER
  5
52
100
AcDbSymbolTableRecord
100
AcDbLayerTableRecord
  2
outline
 70
0
  6
CONTINUOUS
  0
ENDTAB
  0
TABLE
  2
STYLE
  5
3
330
0
100
AcDbSymbolTable
 70
     1
  0
STYLE
  5
11
330
3
100
AcDbSymbolTableRecord
100
AcDbTextStyleTableRecord
  2
STANDARD
 70
     0
 40
0.0
 41
1.0
 50
0.0
 71
     0
 42
2.5
  3
txt
  4

  0
ENDTAB
  0
TABLE
  2
VIEW
  5
6
330
0
100
AcDbSymbolTable
 70
     0
  0
ENDTAB
  0
TABLE
  2
UCS
  5
7
330
0
100
AcDbSymbolTable
 70
     0
  0
ENDTAB
  0
TABLE
  2
APPID
  5
9
330
0
100
AcDbSymbolTable
 70
     2
  0
APPID
  5
12
330
9
100
AcDbSymbolTableRecord
100
AcDbRegAppTableRecord
  2
ACAD
 70
     0
  0
ENDTAB
  0
TABLE
  2
DIMSTYLE
  5
A
330
0
100
AcDbSymbolTable
 70
     1
  0
DIMSTYLE
105
27
330
A
100
AcDbSymbolTableRecord
100
AcDbDimStyleTableRecord
  2
ISO-25
 70
     0
  3

  4

  5

  6

  7

 40
1.0
 41
2.5
 42
0.625
 43
3.75
 44
1.25
 45
0.0
 46
0.0
 47
0.0
 48
0.0
140
2.5
141
2.5
142
0.0
143
0.03937007874016
144
1.0
145
0.0
146
1.0
147
0.625
 71
     0
 72
     0
 73
     0
 74
     0
 75
     0
 76
     0
 77
     1
 78
     8
170
     0
171
     3
172
     1
173
     0
174
     0
175
     0
176
     0
177
     0
178
     0
270
     2
271
     2
272
     2
273
     2
274
     3
340
11
275
     0
280
     0
281
     0
282
     0
283
     0
284
     8
285
     0
286
     0
287
     3
288
     0
  0
ENDTAB
  0
TABLE
  2
BLOCK_RECORD
  5
1
330
0
100
AcDbSymbolTable
 70
     1
  0
BLOCK_RECORD
  5
1F
330
1
100
AcDbSymbolTableRecord
100
AcDbBlockTableRecord
  2
*MODEL_SPACE
  0
BLOCK_RECORD
  5
1B
330
1
100
AcDbSymbolTableRecord
100
AcDbBlockTableRecord
  2
*PAPER_SPACE
  0
ENDTAB
  0
ENDSEC
  0
SECTION
  2
BLOCKS
  0
BLOCK
  5
20
330
1F
100
AcDbEntity
  8
0
100
AcDbBlockBegin
  2
*MODEL_SPACE
 70
     0
 10
0.0
 20
0.0
 30
0.0
  3
*MODEL_SPACE
  1

  0
ENDBLK
  5
21
330
1F
100
AcDbEntity
  8
0
100
AcDbBlockEnd
  0
BLOCK
  5
1C
330
1B
100
AcDbEntity
 67
     1
  8
0
100
AcDbBlockBegin
  2
*PAPER_SPACE
  1

  0
ENDBLK
  5
1D
330
1B
100
AcDbEntity
 67
     1
  8
0
100
AcDbBlockEnd
  0
ENDSEC
  0
SECTION
  2
ENTITIES
  0
LINE
  5
100
100
AcDbEntity
  8
makey
 62
7
100
AcDbLine
 10
-4.690176
 20
-7.919141
 30
0.0
 11
-4.711078
 21
-7.669469
 31
0.0
  0
LINE
  5
101
100
AcDbEntity
  8
makey
 62
7
100
AcDbLine
 10
-4.711078
 20
-7.669469
 30
0.0
 11
-4.711078
 21
-7.440705
 31
0.0
  0
LINE
  5
102
100
AcDbEntity
  8
makey
 62
7
100
AcDbLine
 10
-4.711078
 20
-7.440705
 30
0.0
 11
-4.399073
 21
-7.204419
 31
0.0
  0
LINE
  5
103
100
AcDbEntity
  8
makey
 62
7
100
AcDbLine
 10
-4.399073
 20
-7.204419
 30
0.0
 11
-4.087068
 21
-6.968135
 31
0.0
  0
LINE
  5
104
100
AcDbEntity
  8
makey
 62
7
100
AcDbLine
 10
-4.087068
 20
-6.968135
 30
0.0
 11
-2.298503
 21
-6.968135
 31
0.0
  0
LINE
  5
105
100
AcDbEntity
  8
makey
 62
7
100
AcDbLine
 10
-2.298503
 20
-6.968135
 30
0.0
 11
-0.509938
 21
-6.968135
 31
0.0
  0
LINE
  5
106
100
AcDbEntity
  8
makey
 62
7
100
AcDbLine
 10
-0.509938
 20
-6.968135
 30
0.0
 11
-0.509938
 21
-7.454088
 31
0.0
  0
LINE
  5
107
100
AcDbEntity
  8
makey
 62
7
100
AcDbLine
 10
-0.509938
 20
-7.454088
 30
0.0
 11
-0.509938
 21
-7.940040
 31
0.0
  0
LINE
  5
108
100
AcDbEntity
  8
makey
 62
7
100
AcDbLine
 10
-0.509938
 20
-7.940040
 30
0.0
 11
-2.589607
 21
-7.940040
 31
0.0
  0
LINE
  5
109
100
AcDbEntity
  8
makey
 62
7
100
AcDbLine
 10
-2.589607
 20
-7.940040
 30
0.0
 11
-4.690177
 21
-7.919138
 31
0.0
  0
LINE
  5
10a
100
AcDbEntity
  8
makey
 62
7
100
AcDbLine
 10
-4.690177
 20
-7.919138
 30
0.0
 11
-4.690177
 21
-7.919138
 31
0.0
  0
LINE
  5
10b
100
AcDbEntity
  8
makey
 62
7
100
AcDbLine
 10
0.483090
 20
-7.919315
 30
0.0
 11
0.461967
 21
-7.433143
 31
0.0
  0
LINE
  5
10c
100
AcDbEntity
  8
makey
 62
7
100
AcDbLine
 10
0.461967
 20
-7.433143
 30
0.0
 11
0.461967
 21
-6.968090
 31
0.0
  0
LINE
  5
10d
100
AcDbEntity
  8
makey
 62
7
100
AcDbLine
 10
0.461967
 20
-6.968090
 30
0.0
 11
2.256857
 21
-6.968620
 31
0.0
  0
LINE
  5
10e
100
AcDbEntity
  8
makey
 62
7
100
AcDbLine
 10
2.256857
 20
-6.968620
 30
0.0
 11
4.051747
 21
-6.969149
 31
0.0
  0
LINE
  5
10f
100
AcDbEntity
  8
makey
 62
7
100
AcDbLine
 10
4.051747
 20
-6.969149
 30
0.0
 11
4.358694
 21
-7.206856
 31
0.0
  0
LINE
  5
110
100
AcDbEntity
  8
makey
 62
7
100
AcDbLine
 10
4.358694
 20
-7.206856
 30
0.0
 11
4.665641
 21
-7.444560
 31
0.0
  0
LINE
  5
111
100
AcDbEntity
  8
makey
 62
7
100
AcDbLine
 10
4.665641
 20
-7.444560
 30
0.0
 11
4.656536
 21
-7.684667
 31
0.0
  0
LINE
  5
112
100
AcDbEntity
  8
makey
 62
7
100
AcDbLine
 10
4.656536
 20
-7.684667
 30
0.0
 11
4.647432
 21
-7.924752
 31
0.0
  0
LINE
  5
113
100
AcDbEntity
  8
makey
 62
7
100
AcDbLine
 10
4.647432
 20
-7.924752
 30
0.0
 11
2.575823
 21
-7.932822
 31
0.0
  0
LINE
  5
114
100
AcDbEntity
  8
makey
 62
7
100
AcDbLine
 10
2.575823
 20
-7.932822
 30
0.0
 11
0.483092
 21
-7.919752
 31
0.0
  0
LINE
  5
115
100
AcDbEntity
  8
makey
 62
7
100
AcDbLine
 10
0.483092
 20
-7.919752
 30
0.0
 11
0.483092
 21
-7.919664
 31
0.0
  0
LINE
  5
116
100
AcDbEntity
  8
makey
 62
7
100
AcDbLine
 10
-3.958633
 20
-6.756662
 30
0.0
 11
-3.536065
 21
-4.374081
 31
0.0
  0
LINE
  5
117
100
AcDbEntity
  8
makey
 62
7
100
AcDbLine
 10
-3.536065
 20
-4.374081
 30
0.0
 11
-3.250855
 21
-4.343048
 31
0.0
  0
LINE
  5
118
100
AcDbEntity
  8
makey
 62
7
100
AcDbLine
 10
-3.250855
 20
-4.343048
 30
0.0
 11
-2.206174
 21
-4.334899
 31
0.0
  0
LINE
  5
119
100
AcDbEntity
  8
makey
 62
7
100
AcDbLine
 10
-2.206174
 20
-4.334899
 30
0.0
 11
-0.890670
 21
-4.334899
 31
0.0
  0
LINE
  5
11a
100
AcDbEntity
  8
makey
 62
7
100
AcDbLine
 10
-0.890670
 20
-4.334899
 30
0.0
 11
-0.872398
 21
-4.499496
 31
0.0
  0
LINE
  5
11b
100
AcDbEntity
  8
makey
 62
7
100
AcDbLine
 10
-0.872398
 20
-4.499496
 30
0.0
 11
-0.792014
 21
-5.588971
 31
0.0
  0
LINE
  5
11c
100
AcDbEntity
  8
makey
 62
7
100
AcDbLine
 10
-0.792014
 20
-5.588971
 30
0.0
 11
-0.712895
 21
-6.662769
 31
0.0
  0
LINE
  5
11d
100
AcDbEntity
  8
makey
 62
7
100
AcDbLine
 10
-0.712895
 20
-6.662769
 30
0.0
 11
-0.695888
 21
-6.811693
 31
0.0
  0
LINE
  5
11e
100
AcDbEntity
  8
makey
 62
7
100
AcDbLine
 10
-0.695888
 20
-6.811693
 30
0.0
 11
-2.327261
 21
-6.811693
 31
0.0
  0
LINE
  5
11f
100
AcDbEntity
  8
makey
 62
7
100
AcDbLine
 10
-2.327261
 20
-6.811693
 30
0.0
 11
-3.718405
 21
-6.803596
 31
0.0
  0
LINE
  5
120
100
AcDbEntity
  8
makey
 62
7
100
AcDbLine
 10
-3.718405
 20
-6.803596
 30
0.0
 11
-3.919529
 21
-6.787113
 31
0.0
  0
LINE
  5
121
100
AcDbEntity
  8
makey
 62
7
100
AcDbLine
 10
-3.919529
 20
-6.787113
 30
0.0
 11
-3.958633
 21
-6.756680
 31
0.0
  0
LINE
  5
122
100
AcDbEntity
  8
makey
 62
7
100
AcDbLine
 10
-3.958633
 20
-6.756680
 30
0.0
 11
-3.958633
 21
-6.756680
 31
0.0
  0
LINE
  5
123
100
AcDbEntity
  8
makey
 62
7
100
AcDbLine
 10
0.672395
 20
-6.788184
 30
0.0
 11
0.747333
 21
-5.588982
 31
0.0
  0
LINE
  5
124
100
AcDbEntity
  8
makey
 62
7
100
AcDbLine
 10
0.747333
 20
-5.588982
 30
0.0
 11
0.836599
 21
-4.374097
 31
0.0
  0
LINE
  5
125
100
AcDbEntity
  8
makey
 62
7
100
AcDbLine
 10
0.836599
 20
-4.374097
 30
0.0
 11
1.109003
 21
-4.342990
 31
0.0
  0
LINE
  5
126
100
AcDbEntity
  8
makey
 62
7
100
AcDbLine
 10
1.109003
 20
-4.342990
 30
0.0
 11
2.153115
 21
-4.334920
 31
0.0
  0
LINE
  5
127
100
AcDbEntity
  8
makey
 62
7
100
AcDbLine
 10
2.153115
 20
-4.334920
 30
0.0
 11
3.483114
 21
-4.359315
 31
0.0
  0
LINE
  5
128
100
AcDbEntity
  8
makey
 62
7
100
AcDbLine
 10
3.483114
 20
-4.359315
 30
0.0
 11
3.910665
 21
-6.743533
 31
0.0
  0
LINE
  5
129
100
AcDbEntity
  8
makey
 62
7
100
AcDbLine
 10
3.910665
 20
-6.743533
 30
0.0
 11
3.910665
 21
-6.811714
 31
0.0
  0
LINE
  5
12a
100
AcDbEntity
  8
makey
 62
7
100
AcDbLine
 10
3.910665
 20
-6.811714
 30
0.0
 11
2.297898
 21
-6.811714
 31
0.0
  0
LINE
  5
12b
100
AcDbEntity
  8
makey
 62
7
100
AcDbLine
 10
2.297898
 20
-6.811714
 30
0.0
 11
0.672395
 21
-6.788034
 31
0.0
  0
LINE
  5
12c
100
AcDbEntity
  8
makey
 62
7
100
AcDbLine
 10
0.672395
 20
-6.788034
 30
0.0
 11
0.672395
 21
-6.788034
 31
0.0
  0
LINE
  5
12d
100
AcDbEntity
  8
makey
 62
7
100
AcDbLine
 10
-4.986709
 20
-5.806072
 30
0.0
 11
-5.488393
 21
-5.704097
 31
0.0
  0
LINE
  5
12e
100
AcDbEntity
  8
makey
 62
7
100
AcDbLine
 10
-5.488393
 20
-5.704097
 30
0.0
 11
-5.933583
 21
-5.535052
 31
0.0
  0
LINE
  5
12f
100
AcDbEntity
  8
makey
 62
7
100
AcDbLine
 10
-5.933583
 20
-5.535052
 30
0.0
 11
-6.325551
 21
-5.297350
 31
0.0
  0
LINE
  5
130
100
AcDbEntity
  8
makey
 62
7
100
AcDbLine
 10
-6.325551
 20
-5.297350
 30
0.0
 11
-6.667564
 21
-4.989396
 31
0.0
  0
LINE
  5
131
100
AcDbEntity
  8
makey
 62
7
100
AcDbLine
 10
-6.667564
 20
-4.989396
 30
0.0
 11
-6.972400
 21
-4.561353
 31
0.0
  0
LINE
  5
132
100
AcDbEntity
  8
makey
 62
7
100
AcDbLine
 10
-6.972400
 20
-4.561353
 30
0.0
 11
-7.082178
 21
-4.347205
 31
0.0
  0
LINE
  5
133
100
AcDbEntity
  8
makey
 62
7
100
AcDbLine
 10
-7.082178
 20
-4.347205
 30
0.0
 11
-7.125165
 21
-4.199221
 31
0.0
  0
LINE
  5
134
100
AcDbEntity
  8
makey
 62
7
100
AcDbLine
 10
-7.125165
 20
-4.199221
 30
0.0
 11
-7.088988
 21
-4.170593
 31
0.0
  0
LINE
  5
135
100
AcDbEntity
  8
makey
 62
7
100
AcDbLine
 10
-7.088988
 20
-4.170593
 30
0.0
 11
-6.916350
 21
-4.154771
 31
0.0
  0
LINE
  5
136
100
AcDbEntity
  8
makey
 62
7
100
AcDbLine
 10
-6.916350
 20
-4.154771
 30
0.0
 11
-5.777038
 21
-4.146648
 31
0.0
  0
LINE
  5
137
100
AcDbEntity
  8
makey
 62
7
100
AcDbLine
 10
-5.777038
 20
-4.146648
 30
0.0
 11
-4.428911
 21
-4.146648
 31
0.0
  0
LINE
  5
138
100
AcDbEntity
  8
makey
 62
7
100
AcDbLine
 10
-4.428911
 20
-4.146648
 30
0.0
 11
-4.428911
 21
-4.993148
 31
0.0
  0
LINE
  5
139
100
AcDbEntity
  8
makey
 62
7
100
AcDbLine
 10
-4.428911
 20
-4.993148
 30
0.0
 11
-4.428911
 21
-5.839645
 31
0.0
  0
LINE
  5
13a
100
AcDbEntity
  8
makey
 62
7
100
AcDbLine
 10
-4.428911
 20
-5.839645
 30
0.0
 11
-4.609184
 21
-5.835676
 31
0.0
  0
LINE
  5
13b
100
AcDbEntity
  8
makey
 62
7
100
AcDbLine
 10
-4.609184
 20
-5.835676
 30
0.0
 11
-4.986709
 21
-5.806083
 31
0.0
  0
LINE
  5
13c
100
AcDbEntity
  8
makey
 62
7
100
AcDbLine
 10
-4.986709
 20
-5.806083
 30
0.0
 11
-4.986709
 21
-5.806078
 31
0.0
  0
LINE
  5
13d
100
AcDbEntity
  8
makey
 62
7
100
AcDbLine
 10
4.380941
 20
-4.993185
 30
0.0
 11
4.380941
 21
-4.146685
 31
0.0
  0
LINE
  5
13e
100
AcDbEntity
  8
makey
 62
7
100
AcDbLine
 10
4.380941
 20
-4.146685
 30
0.0
 11
5.729068
 21
-4.146685
 31
0.0
  0
LINE
  5
13f
100
AcDbEntity
  8
makey
 62
7
100
AcDbLine
 10
5.729068
 20
-4.146685
 30
0.0
 11
6.598001
 21
-4.147214
 31
0.0
  0
LINE
  5
140
100
AcDbEntity
  8
makey
 62
7
100
AcDbLine
 10
6.598001
 20
-4.147214
 30
0.0
 11
6.994562
 21
-4.173461
 31
0.0
  0
LINE
  5
141
100
AcDbEntity
  8
makey
 62
7
100
AcDbLine
 10
6.994562
 20
-4.173461
 30
0.0
 11
7.063632
 21
-4.207976
 31
0.0
  0
LINE
  5
142
100
AcDbEntity
  8
makey
 62
7
100
AcDbLine
 10
7.063632
 20
-4.207976
 30
0.0
 11
7.072131
 21
-4.262996
 31
0.0
  0
LINE
  5
143
100
AcDbEntity
  8
makey
 62
7
100
AcDbLine
 10
7.072131
 20
-4.262996
 30
0.0
 11
6.984068
 21
-4.453274
 31
0.0
  0
LINE
  5
144
100
AcDbEntity
  8
makey
 62
7
100
AcDbLine
 10
6.984068
 20
-4.453274
 30
0.0
 11
6.831618
 21
-4.727527
 31
0.0
  0
LINE
  5
145
100
AcDbEntity
  8
makey
 62
7
100
AcDbLine
 10
6.831618
 20
-4.727527
 30
0.0
 11
6.647898
 21
-4.972164
 31
0.0
  0
LINE
  5
146
100
AcDbEntity
  8
makey
 62
7
100
AcDbLine
 10
6.647898
 20
-4.972164
 30
0.0
 11
6.433187
 21
-5.186995
 31
0.0
  0
LINE
  5
147
100
AcDbEntity
  8
makey
 62
7
100
AcDbLine
 10
6.433187
 20
-5.186995
 30
0.0
 11
6.187766
 21
-5.371843
 31
0.0
  0
LINE
  5
148
100
AcDbEntity
  8
makey
 62
7
100
AcDbLine
 10
6.187766
 20
-5.371843
 30
0.0
 11
5.911914
 21
-5.526521
 31
0.0
  0
LINE
  5
149
100
AcDbEntity
  8
makey
 62
7
100
AcDbLine
 10
5.911914
 20
-5.526521
 30
0.0
 11
5.605911
 21
-5.650852
 31
0.0
  0
LINE
  5
14a
100
AcDbEntity
  8
makey
 62
7
100
AcDbLine
 10
5.605911
 20
-5.650852
 30
0.0
 11
5.270037
 21
-5.744652
 31
0.0
  0
LINE
  5
14b
100
AcDbEntity
  8
makey
 62
7
100
AcDbLine
 10
5.270037
 20
-5.744652
 30
0.0
 11
4.904571
 21
-5.807739
 31
0.0
  0
LINE
  5
14c
100
AcDbEntity
  8
makey
 62
7
100
AcDbLine
 10
4.904571
 20
-5.807739
 30
0.0
 11
4.515015
 21
-5.839778
 31
0.0
  0
LINE
  5
14d
100
AcDbEntity
  8
makey
 62
7
100
AcDbLine
 10
4.515015
 20
-5.839778
 30
0.0
 11
4.380948
 21
-5.839778
 31
0.0
  0
LINE
  5
14e
100
AcDbEntity
  8
makey
 62
7
100
AcDbLine
 10
4.380948
 20
-5.839778
 30
0.0
 11
4.380948
 21
-4.993280
 31
0.0
  0
LINE
  5
14f
100
AcDbEntity
  8
makey
 62
7
100
AcDbLine
 10
-3.394301
 20
-2.845692
 30
0.0
 11
-3.394301
 21
-1.544593
 31
0.0
  0
LINE
  5
150
100
AcDbEntity
  8
makey
 62
7
100
AcDbLine
 10
-3.394301
 20
-1.544593
 30
0.0
 11
-2.469423
 21
-1.544593
 31
0.0
  0
LINE
  5
151
100
AcDbEntity
  8
makey
 62
7
100
AcDbLine
 10
-2.469423
 20
-1.544593
 30
0.0
 11
-1.544545
 21
-1.544593
 31
0.0
  0
LINE
  5
152
100
AcDbEntity
  8
makey
 62
7
100
AcDbLine
 10
-1.544545
 20
-1.544593
 30
0.0
 11
-1.544545
 21
-2.845692
 31
0.0
  0
LINE
  5
153
100
AcDbEntity
  8
makey
 62
7
100
AcDbLine
 10
-1.544545
 20
-2.845692
 30
0.0
 11
-1.544545
 21
-4.146791
 31
0.0
  0
LINE
  5
154
100
AcDbEntity
  8
makey
 62
7
100
AcDbLine
 10
-1.544545
 20
-4.146791
 30
0.0
 11
-2.469423
 21
-4.146791
 31
0.0
  0
LINE
  5
155
100
AcDbEntity
  8
makey
 62
7
100
AcDbLine
 10
-2.469423
 20
-4.146791
 30
0.0
 11
-3.394301
 21
-4.146791
 31
0.0
  0
LINE
  5
156
100
AcDbEntity
  8
makey
 62
7
100
AcDbLine
 10
-3.394301
 20
-4.146791
 30
0.0
 11
-3.394301
 21
-2.845692
 31
0.0
  0
LINE
  5
157
100
AcDbEntity
  8
makey
 62
7
100
AcDbLine
 10
1.496578
 20
-2.845692
 30
0.0
 11
1.496578
 21
-1.544593
 31
0.0
  0
LINE
  5
158
100
AcDbEntity
  8
makey
 62
7
100
AcDbLine
 10
1.496578
 20
-1.544593
 30
0.0
 11
2.437132
 21
-1.544593
 31
0.0
  0
LINE
  5
159
100
AcDbEntity
  8
makey
 62
7
100
AcDbLine
 10
2.437132
 20
-1.544593
 30
0.0
 11
3.377686
 21
-1.544593
 31
0.0
  0
LINE
  5
15a
100
AcDbEntity
  8
makey
 62
7
100
AcDbLine
 10
3.377686
 20
-1.544593
 30
0.0
 11
3.377686
 21
-2.845692
 31
0.0
  0
LINE
  5
15b
100
AcDbEntity
  8
makey
 62
7
100
AcDbLine
 10
3.377686
 20
-2.845692
 30
0.0
 11
3.377686
 21
-4.146791
 31
0.0
  0
LINE
  5
15c
100
AcDbEntity
  8
makey
 62
7
100
AcDbLine
 10
3.377686
 20
-4.146791
 30
0.0
 11
2.437131
 21
-4.146791
 31
0.0
  0
LINE
  5
15d
100
AcDbEntity
  8
makey
 62
7
100
AcDbLine
 10
2.437131
 20
-4.146791
 30
0.0
 11
1.496577
 21
-4.146791
 31
0.0
  0
LINE
  5
15e
100
AcDbEntity
  8
makey
 62
7
100
AcDbLine
 10
1.496577
 20
-4.146791
 30
0.0
 11
1.496577
 21
-2.845692
 31
0.0
  0
LINE
  5
15f
100
AcDbEntity
  8
makey
 62
7
100
AcDbLine
 10
-7.125165
 20
-3.927218
 30
0.0
 11
-6.825059
 21
-0.723151
 31
0.0
  0
LINE
  5
160
100
AcDbEntity
  8
makey
 62
7
100
AcDbLine
 10
-6.825059
 20
-0.723151
 30
0.0
 11
-6.806187
 21
-0.575776
 31
0.0
  0
LINE
  5
161
100
AcDbEntity
  8
makey
 62
7
100
AcDbLine
 10
-6.806187
 20
-0.575776
 30
0.0
 11
-6.644320
 21
-0.566383
 31
0.0
  0
LINE
  5
162
100
AcDbEntity
  8
makey
 62
7
100
AcDbLine
 10
-6.644320
 20
-0.566383
 30
0.0
 11
-6.482453
 21
-0.556990
 31
0.0
  0
LINE
  5
163
100
AcDbEntity
  8
makey
 62
7
100
AcDbLine
 10
-6.482453
 20
-0.556990
 30
0.0
 11
-6.473735
 21
-0.126770
 31
0.0
  0
LINE
  5
164
100
AcDbEntity
  8
makey
 62
7
100
AcDbLine
 10
-6.473735
 20
-0.126770
 30
0.0
 11
-6.465016
 21
0.303451
 31
0.0
  0
LINE
  5
165
100
AcDbEntity
  8
makey
 62
7
100
AcDbLine
 10
-6.465016
 20
0.303451
 30
0.0
 11
-6.912659
 21
0.312155
 31
0.0
  0
LINE
  5
166
100
AcDbEntity
  8
makey
 62
7
100
AcDbLine
 10
-6.912659
 20
0.312155
 30
0.0
 11
-7.360301
 21
0.320860
 31
0.0
  0
LINE
  5
167
100
AcDbEntity
  8
makey
 62
7
100
AcDbLine
 10
-7.360301
 20
0.320860
 30
0.0
 11
-7.357840
 21
0.853842
 31
0.0
  0
LINE
  5
168
100
AcDbEntity
  8
makey
 62
7
100
AcDbLine
 10
-7.357840
 20
0.853842
 30
0.0
 11
-7.341957
 21
1.352767
 31
0.0
  0
LINE
  5
169
100
AcDbEntity
  8
makey
 62
7
100
AcDbLine
 10
-7.341957
 20
1.352767
 30
0.0
 11
-7.256832
 21
1.675963
 31
0.0
  0
LINE
  5
16a
100
AcDbEntity
  8
makey
 62
7
100
AcDbLine
 10
-7.256832
 20
1.675963
 30
0.0
 11
-7.112359
 21
2.043046
 31
0.0
  0
LINE
  5
16b
100
AcDbEntity
  8
makey
 62
7
100
AcDbLine
 10
-7.112359
 20
2.043046
 30
0.0
 11
-6.943903
 21
2.356400
 31
0.0
  0
LINE
  5
16c
100
AcDbEntity
  8
makey
 62
7
100
AcDbLine
 10
-6.943903
 20
2.356400
 30
0.0
 11
-6.739830
 21
2.634499
 31
0.0
  0
LINE
  5
16d
100
AcDbEntity
  8
makey
 62
7
100
AcDbLine
 10
-6.739830
 20
2.634499
 30
0.0
 11
-6.488504
 21
2.895809
 31
0.0
  0
LINE
  5
16e
100
AcDbEntity
  8
makey
 62
7
100
AcDbLine
 10
-6.488504
 20
2.895809
 30
0.0
 11
-6.090512
 21
3.193955
 31
0.0
  0
LINE
  5
16f
100
AcDbEntity
  8
makey
 62
7
100
AcDbLine
 10
-6.090512
 20
3.193955
 30
0.0
 11
-5.635954
 21
3.399859
 31
0.0
  0
LINE
  5
170
100
AcDbEntity
  8
makey
 62
7
100
AcDbLine
 10
-5.635954
 20
3.399859
 30
0.0
 11
-5.331141
 21
3.471876
 31
0.0
  0
LINE
  5
171
100
AcDbEntity
  8
makey
 62
7
100
AcDbLine
 10
-5.331141
 20
3.471876
 30
0.0
 11
-4.797294
 21
3.496059
 31
0.0
  0
LINE
  5
172
100
AcDbEntity
  8
makey
 62
7
100
AcDbLine
 10
-4.797294
 20
3.496059
 30
0.0
 11
-4.209448
 21
3.508944
 31
0.0
  0
LINE
  5
173
100
AcDbEntity
  8
makey
 62
7
100
AcDbLine
 10
-4.209448
 20
3.508944
 30
0.0
 11
-4.209448
 21
1.907066
 31
0.0
  0
LINE
  5
174
100
AcDbEntity
  8
makey
 62
7
100
AcDbLine
 10
-4.209448
 20
1.907066
 30
0.0
 11
-4.209448
 21
0.305189
 31
0.0
  0
LINE
  5
175
100
AcDbEntity
  8
makey
 62
7
100
AcDbLine
 10
-4.209448
 20
0.305189
 30
0.0
 11
-4.648373
 21
0.305189
 31
0.0
  0
LINE
  5
176
100
AcDbEntity
  8
makey
 62
7
100
AcDbLine
 10
-4.648373
 20
0.305189
 30
0.0
 11
-5.087298
 21
0.305189
 31
0.0
  0
LINE
  5
177
100
AcDbEntity
  8
makey
 62
7
100
AcDbLine
 10
-5.087298
 20
0.305189
 30
0.0
 11
-5.087298
 21
-0.133736
 31
0.0
  0
LINE
  5
178
100
AcDbEntity
  8
makey
 62
7
100
AcDbLine
 10
-5.087298
 20
-0.133736
 30
0.0
 11
-5.087298
 21
-0.572659
 31
0.0
  0
LINE
  5
179
100
AcDbEntity
  8
makey
 62
7
100
AcDbLine
 10
-5.087298
 20
-0.572659
 30
0.0
 11
-4.922029
 21
-0.572659
 31
0.0
  0
LINE
  5
17a
100
AcDbEntity
  8
makey
 62
7
100
AcDbLine
 10
-4.922029
 20
-0.572659
 30
0.0
 11
-4.756761
 21
-0.572659
 31
0.0
  0
LINE
  5
17b
100
AcDbEntity
  8
makey
 62
7
100
AcDbLine
 10
-4.756761
 20
-0.572659
 30
0.0
 11
-4.604959
 21
-2.195116
 31
0.0
  0
LINE
  5
17c
100
AcDbEntity
  8
makey
 62
7
100
AcDbLine
 10
-4.604959
 20
-2.195116
 30
0.0
 11
-4.437115
 21
-3.903790
 31
0.0
  0
LINE
  5
17d
100
AcDbEntity
  8
makey
 62
7
100
AcDbLine
 10
-4.437115
 20
-3.903790
 30
0.0
 11
-4.421071
 21
-3.990004
 31
0.0
  0
LINE
  5
17e
100
AcDbEntity
  8
makey
 62
7
100
AcDbLine
 10
-4.421071
 20
-3.990004
 30
0.0
 11
-5.773117
 21
-3.990004
 31
0.0
  0
LINE
  5
17f
100
AcDbEntity
  8
makey
 62
7
100
AcDbLine
 10
-5.773117
 20
-3.990004
 30
0.0
 11
-6.948623
 21
-3.981802
 31
0.0
  0
LINE
  5
180
100
AcDbEntity
  8
makey
 62
7
100
AcDbLine
 10
-6.948623
 20
-3.981802
 30
0.0
 11
-7.101212
 21
-3.963096
 31
0.0
  0
LINE
  5
181
100
AcDbEntity
  8
makey
 62
7
100
AcDbLine
 10
-7.101212
 20
-3.963096
 30
0.0
 11
-7.125162
 21
-3.927173
 31
0.0
  0
LINE
  5
182
100
AcDbEntity
  8
makey
 62
7
100
AcDbLine
 10
-7.125162
 20
-3.927173
 30
0.0
 11
-7.125162
 21
-3.927165
 31
0.0
  0
LINE
  5
183
100
AcDbEntity
  8
makey
 62
7
100
AcDbLine
 10
4.394789
 20
-3.919440
 30
0.0
 11
4.553783
 21
-2.281309
 31
0.0
  0
LINE
  5
184
100
AcDbEntity
  8
makey
 62
7
100
AcDbLine
 10
4.553783
 20
-2.281309
 30
0.0
 11
4.711964
 21
-0.644808
 31
0.0
  0
LINE
  5
185
100
AcDbEntity
  8
makey
 62
7
100
AcDbLine
 10
4.711964
 20
-0.644808
 30
0.0
 11
4.753215
 21
-0.586594
 31
0.0
  0
LINE
  5
186
100
AcDbEntity
  8
makey
 62
7
100
AcDbLine
 10
4.753215
 20
-0.586594
 30
0.0
 11
4.890599
 21
-0.566433
 31
0.0
  0
LINE
  5
187
100
AcDbEntity
  8
makey
 62
7
100
AcDbLine
 10
4.890599
 20
-0.566433
 30
0.0
 11
5.055008
 21
-0.556961
 31
0.0
  0
LINE
  5
188
100
AcDbEntity
  8
makey
 62
7
100
AcDbLine
 10
5.055008
 20
-0.556961
 30
0.0
 11
5.063726
 21
-0.126741
 31
0.0
  0
LINE
  5
189
100
AcDbEntity
  8
makey
 62
7
100
AcDbLine
 10
5.063726
 20
-0.126741
 30
0.0
 11
5.072444
 21
0.303480
 31
0.0
  0
LINE
  5
18a
100
AcDbEntity
  8
makey
 62
7
100
AcDbLine
 10
5.072444
 20
0.303480
 30
0.0
 11
4.624802
 21
0.312185
 31
0.0
  0
LINE
  5
18b
100
AcDbEntity
  8
makey
 62
7
100
AcDbLine
 10
4.624802
 20
0.312185
 30
0.0
 11
4.177160
 21
0.320889
 31
0.0
  0
LINE
  5
18c
100
AcDbEntity
  8
makey
 62
7
100
AcDbLine
 10
4.177160
 20
0.320889
 30
0.0
 11
4.169034
 21
1.911993
 31
0.0
  0
LINE
  5
18d
100
AcDbEntity
  8
makey
 62
7
100
AcDbLine
 10
4.169034
 20
1.911993
 30
0.0
 11
4.160909
 21
3.503097
 31
0.0
  0
LINE
  5
18e
100
AcDbEntity
  8
makey
 62
7
100
AcDbLine
 10
4.160909
 20
3.503097
 30
0.0
 11
4.664474
 21
3.503097
 31
0.0
  0
LINE
  5
18f
100
AcDbEntity
  8
makey
 62
7
100
AcDbLine
 10
4.664474
 20
3.503097
 30
0.0
 11
5.058263
 21
3.493148
 31
0.0
  0
LINE
  5
190
100
AcDbEntity
  8
makey
 62
7
100
AcDbLine
 10
5.058263
 20
3.493148
 30
0.0
 11
5.362501
 21
3.456855
 31
0.0
  0
LINE
  5
191
100
AcDbEntity
  8
makey
 62
7
100
AcDbLine
 10
5.362501
 20
3.456855
 30
0.0
 11
5.627981
 21
3.384529
 31
0.0
  0
LINE
  5
192
100
AcDbEntity
  8
makey
 62
7
100
AcDbLine
 10
5.627981
 20
3.384529
 30
0.0
 11
5.905497
 21
3.266485
 31
0.0
  0
LINE
  5
193
100
AcDbEntity
  8
makey
 62
7
100
AcDbLine
 10
5.905497
 20
3.266485
 30
0.0
 11
6.330152
 21
2.994933
 31
0.0
  0
LINE
  5
194
100
AcDbEntity
  8
makey
 62
7
100
AcDbLine
 10
6.330152
 20
2.994933
 30
0.0
 11
6.703856
 21
2.619991
 31
0.0
  0
LINE
  5
195
100
AcDbEntity
  8
makey
 62
7
100
AcDbLine
 10
6.703856
 20
2.619991
 30
0.0
 11
7.010752
 21
2.161095
 31
0.0
  0
LINE
  5
196
100
AcDbEntity
  8
makey
 62
7
100
AcDbLine
 10
7.010752
 20
2.161095
 30
0.0
 11
7.234986
 21
1.637665
 31
0.0
  0
LINE
  5
197
100
AcDbEntity
  8
makey
 62
7
100
AcDbLine
 10
7.234986
 20
1.637665
 30
0.0
 11
7.295462
 21
1.355527
 31
0.0
  0
LINE
  5
198
100
AcDbEntity
  8
makey
 62
7
100
AcDbLine
 10
7.295462
 20
1.355527
 30
0.0
 11
7.320483
 21
0.861708
 31
0.0
  0
LINE
  5
199
100
AcDbEntity
  8
makey
 62
7
100
AcDbLine
 10
7.320483
 20
0.861708
 30
0.0
 11
7.335006
 21
0.305213
 31
0.0
  0
LINE
  5
19a
100
AcDbEntity
  8
makey
 62
7
100
AcDbLine
 10
7.335006
 20
0.305213
 30
0.0
 11
6.876017
 21
0.305213
 31
0.0
  0
LINE
  5
19b
100
AcDbEntity
  8
makey
 62
7
100
AcDbLine
 10
6.876017
 20
0.305213
 30
0.0
 11
6.417035
 21
0.305213
 31
0.0
  0
LINE
  5
19c
100
AcDbEntity
  8
makey
 62
7
100
AcDbLine
 10
6.417035
 20
0.305213
 30
0.0
 11
6.425758
 21
-0.125876
 31
0.0
  0
LINE
  5
19d
100
AcDbEntity
  8
makey
 62
7
100
AcDbLine
 10
6.425758
 20
-0.125876
 30
0.0
 11
6.434481
 21
-0.556961
 31
0.0
  0
LINE
  5
19e
100
AcDbEntity
  8
makey
 62
7
100
AcDbLine
 10
6.434481
 20
-0.556961
 30
0.0
 11
6.599078
 21
-0.566433
 31
0.0
  0
LINE
  5
19f
100
AcDbEntity
  8
makey
 62
7
100
AcDbLine
 10
6.599078
 20
-0.566433
 30
0.0
 11
6.766002
 21
-0.582097
 31
0.0
  0
LINE
  5
1a0
100
AcDbEntity
  8
makey
 62
7
100
AcDbLine
 10
6.766002
 20
-0.582097
 30
0.0
 11
6.931591
 21
-2.289130
 31
0.0
  0
LINE
  5
1a1
100
AcDbEntity
  8
makey
 62
7
100
AcDbLine
 10
6.931591
 20
-2.289130
 30
0.0
 11
7.094852
 21
-3.989967
 31
0.0
  0
LINE
  5
1a2
100
AcDbEntity
  8
makey
 62
7
100
AcDbLine
 10
7.094852
 20
-3.989967
 30
0.0
 11
5.737299
 21
-3.989967
 31
0.0
  0
LINE
  5
1a3
100
AcDbEntity
  8
makey
 62
7
100
AcDbLine
 10
5.737299
 20
-3.989967
 30
0.0
 11
4.379745
 21
-3.989967
 31
0.0
  0
LINE
  5
1a4
100
AcDbEntity
  8
makey
 62
7
100
AcDbLine
 10
4.379745
 20
-3.989967
 30
0.0
 11
4.394784
 21
-3.919416
 31
0.0
  0
LINE
  5
1a5
100
AcDbEntity
  8
makey
 62
7
100
AcDbLine
 10
-1.301126
 20
-2.351823
 30
0.0
 11
-1.309411
 21
-1.372079
 31
0.0
  0
LINE
  5
1a6
100
AcDbEntity
  8
makey
 62
7
100
AcDbLine
 10
-1.309411
 20
-1.372079
 30
0.0
 11
-2.249964
 21
-1.356416
 31
0.0
  0
LINE
  5
1a7
100
AcDbEntity
  8
makey
 62
7
100
AcDbLine
 10
-2.249964
 20
-1.356416
 30
0.0
 11
-3.190518
 21
-1.340752
 31
0.0
  0
LINE
  5
1a8
100
AcDbEntity
  8
makey
 62
7
100
AcDbLine
 10
-3.190518
 20
-1.340752
 30
0.0
 11
-3.367389
 21
-1.253892
 31
0.0
  0
LINE
  5
1a9
100
AcDbEntity
  8
makey
 62
7
100
AcDbLine
 10
-3.367389
 20
-1.253892
 30
0.0
 11
-3.662703
 21
-1.034251
 31
0.0
  0
LINE
  5
1aa
100
AcDbEntity
  8
makey
 62
7
100
AcDbLine
 10
-3.662703
 20
-1.034251
 30
0.0
 11
-3.875213
 21
-0.734899
 31
0.0
  0
LINE
  5
1ab
100
AcDbEntity
  8
makey
 62
7
100
AcDbLine
 10
-3.875213
 20
-0.734899
 30
0.0
 11
-3.914209
 21
-0.615162
 31
0.0
  0
LINE
  5
1ac
100
AcDbEntity
  8
makey
 62
7
100
AcDbLine
 10
-3.914209
 20
-0.615162
 30
0.0
 11
-3.934341
 21
-0.333703
 31
0.0
  0
LINE
  5
1ad
100
AcDbEntity
  8
makey
 62
7
100
AcDbLine
 10
-3.934341
 20
-0.333703
 30
0.0
 11
-3.942961
 21
1.559290
 31
0.0
  0
LINE
  5
1ae
100
AcDbEntity
  8
makey
 62
7
100
AcDbLine
 10
-3.942961
 20
1.559290
 30
0.0
 11
-3.942961
 21
3.706887
 31
0.0
  0
LINE
  5
1af
100
AcDbEntity
  8
makey
 62
7
100
AcDbLine
 10
-3.942961
 20
3.706887
 30
0.0
 11
-3.850700
 21
3.888970
 31
0.0
  0
LINE
  5
1b0
100
AcDbEntity
  8
makey
 62
7
100
AcDbLine
 10
-3.850700
 20
3.888970
 30
0.0
 11
-3.640804
 21
4.172905
 31
0.0
  0
LINE
  5
1b1
100
AcDbEntity
  8
makey
 62
7
100
AcDbLine
 10
-3.640804
 20
4.172905
 30
0.0
 11
-3.335363
 21
4.376711
 31
0.0
  0
LINE
  5
1b2
100
AcDbEntity
  8
makey
 62
7
100
AcDbLine
 10
-3.335363
 20
4.376711
 30
0.0
 11
-3.159166
 21
4.459327
 31
0.0
  0
LINE
  5
1b3
100
AcDbEntity
  8
makey
 62
7
100
AcDbLine
 10
-3.159166
 20
4.459327
 30
0.0
 11
-0.023985
 21
4.459327
 31
0.0
  0
LINE
  5
1b4
100
AcDbEntity
  8
makey
 62
7
100
AcDbLine
 10
-0.023985
 20
4.459327
 30
0.0
 11
3.111194
 21
4.459327
 31
0.0
  0
LINE
  5
1b5
100
AcDbEntity
  8
makey
 62
7
100
AcDbLine
 10
3.111194
 20
4.459327
 30
0.0
 11
3.285059
 21
4.377777
 31
0.0
  0
LINE
  5
1b6
100
AcDbEntity
  8
makey
 62
7
100
AcDbLine
 10
3.285059
 20
4.377777
 30
0.0
 11
3.579347
 21
4.185531
 31
0.0
  0
LINE
  5
1b7
100
AcDbEntity
  8
makey
 62
7
100
AcDbLine
 10
3.579347
 20
4.185531
 30
0.0
 11
3.788139
 21
3.903938
 31
0.0
  0
LINE
  5
1b8
100
AcDbEntity
  8
makey
 62
7
100
AcDbLine
 10
3.788139
 20
3.903938
 30
0.0
 11
3.894989
 21
3.706887
 31
0.0
  0
LINE
  5
1b9
100
AcDbEntity
  8
makey
 62
7
100
AcDbLine
 10
3.894989
 20
3.706887
 30
0.0
 11
3.894989
 21
1.559287
 31
0.0
  0
LINE
  5
1ba
100
AcDbEntity
  8
makey
 62
7
100
AcDbLine
 10
3.894989
 20
1.559287
 30
0.0
 11
3.894989
 21
-0.588309
 31
0.0
  0
LINE
  5
1bb
100
AcDbEntity
  8
makey
 62
7
100
AcDbLine
 10
3.894989
 20
-0.588309
 30
0.0
 11
3.803063
 21
-0.769850
 31
0.0
  0
LINE
  5
1bc
100
AcDbEntity
  8
makey
 62
7
100
AcDbLine
 10
3.803063
 20
-0.769850
 30
0.0
 11
3.583410
 21
-1.065093
 31
0.0
  0
LINE
  5
1bd
100
AcDbEntity
  8
makey
 62
7
100
AcDbLine
 10
3.583410
 20
-1.065093
 30
0.0
 11
3.289136
 21
-1.273006
 31
0.0
  0
LINE
  5
1be
100
AcDbEntity
  8
makey
 62
7
100
AcDbLine
 10
3.289136
 20
-1.273006
 30
0.0
 11
3.027208
 21
-1.332217
 31
0.0
  0
LINE
  5
1bf
100
AcDbEntity
  8
makey
 62
7
100
AcDbLine
 10
3.027208
 20
-1.332217
 30
0.0
 11
2.209830
 21
-1.350314
 31
0.0
  0
LINE
  5
1c0
100
AcDbEntity
  8
makey
 62
7
100
AcDbLine
 10
2.209830
 20
-1.350314
 30
0.0
 11
1.277114
 21
-1.359866
 31
0.0
  0
LINE
  5
1c1
100
AcDbEntity
  8
makey
 62
7
100
AcDbLine
 10
1.277114
 20
-1.359866
 30
0.0
 11
1.277114
 21
-2.345730
 31
0.0
  0
LINE
  5
1c2
100
AcDbEntity
  8
makey
 62
7
100
AcDbLine
 10
1.277114
 20
-2.345730
 30
0.0
 11
1.277114
 21
-3.331594
 31
0.0
  0
LINE
  5
1c3
100
AcDbEntity
  8
makey
 62
7
100
AcDbLine
 10
1.277114
 20
-3.331594
 30
0.0
 11
-0.007862
 21
-3.331594
 31
0.0
  0
LINE
  5
1c4
100
AcDbEntity
  8
makey
 62
7
100
AcDbLine
 10
-0.007862
 20
-3.331594
 30
0.0
 11
-1.292839
 21
-3.331594
 31
0.0
  0
LINE
  5
1c5
100
AcDbEntity
  8
makey
 62
7
100
AcDbLine
 10
-1.292839
 20
-3.331594
 30
0.0
 11
-1.301124
 21
-2.351850
 31
0.0
  0
LINE
  5
1c6
100
AcDbEntity
  8
makey
 62
7
100
AcDbLine
 10
2.914295
 20
-0.832810
 30
0.0
 11
3.211524
 21
-0.623009
 31
0.0
  0
LINE
  5
1c7
100
AcDbEntity
  8
makey
 62
7
100
AcDbLine
 10
3.211524
 20
-0.623009
 30
0.0
 11
3.435356
 21
-0.338757
 31
0.0
  0
LINE
  5
1c8
100
AcDbEntity
  8
makey
 62
7
100
AcDbLine
 10
3.435356
 20
-0.338757
 30
0.0
 11
3.518767
 21
-0.180740
 31
0.0
  0
LINE
  5
1c9
100
AcDbEntity
  8
makey
 62
7
100
AcDbLine
 10
3.518767
 20
-0.180740
 30
0.0
 11
3.518767
 21
1.543611
 31
0.0
  0
LINE
  5
1ca
100
AcDbEntity
  8
makey
 62
7
100
AcDbLine
 10
3.518767
 20
1.543611
 30
0.0
 11
3.518767
 21
3.267959
 31
0.0
  0
LINE
  5
1cb
100
AcDbEntity
  8
makey
 62
7
100
AcDbLine
 10
3.518767
 20
3.267959
 30
0.0
 11
3.431616
 21
3.445428
 31
0.0
  0
LINE
  5
1cc
100
AcDbEntity
  8
makey
 62
7
100
AcDbLine
 10
3.431616
 20
3.445428
 30
0.0
 11
3.221760
 21
3.729424
 31
0.0
  0
LINE
  5
1cd
100
AcDbEntity
  8
makey
 62
7
100
AcDbLine
 10
3.221760
 20
3.729424
 30
0.0
 11
2.911170
 21
3.937786
 31
0.0
  0
LINE
  5
1ce
100
AcDbEntity
  8
makey
 62
7
100
AcDbLine
 10
2.911170
 20
3.937786
 30
0.0
 11
2.734972
 21
4.020402
 31
0.0
  0
LINE
  5
1cf
100
AcDbEntity
  8
makey
 62
7
100
AcDbLine
 10
2.734972
 20
4.020402
 30
0.0
 11
-0.023985
 21
4.020402
 31
0.0
  0
LINE
  5
1d0
100
AcDbEntity
  8
makey
 62
7
100
AcDbLine
 10
-0.023985
 20
4.020402
 30
0.0
 11
-2.782942
 21
4.020402
 31
0.0
  0
LINE
  5
1d1
100
AcDbEntity
  8
makey
 62
7
100
AcDbLine
 10
-2.782942
 20
4.020402
 30
0.0
 11
-2.959140
 21
3.937786
 31
0.0
  0
LINE
  5
1d2
100
AcDbEntity
  8
makey
 62
7
100
AcDbLine
 10
-2.959140
 20
3.937786
 30
0.0
 11
-3.267716
 21
3.731943
 31
0.0
  0
LINE
  5
1d3
100
AcDbEntity
  8
makey
 62
7
100
AcDbLine
 10
-3.267716
 20
3.731943
 30
0.0
 11
-3.482955
 21
3.458059
 31
0.0
  0
LINE
  5
1d4
100
AcDbEntity
  8
makey
 62
7
100
AcDbLine
 10
-3.482955
 20
3.458059
 30
0.0
 11
-3.566737
 21
3.299312
 31
0.0
  0
LINE
  5
1d5
100
AcDbEntity
  8
makey
 62
7
100
AcDbLine
 10
-3.566737
 20
3.299312
 30
0.0
 11
-3.575635
 21
1.623915
 31
0.0
  0
LINE
  5
1d6
100
AcDbEntity
  8
makey
 62
7
100
AcDbLine
 10
-3.575635
 20
1.623915
 30
0.0
 11
-3.574391
 21
0.195262
 31
0.0
  0
LINE
  5
1d7
100
AcDbEntity
  8
makey
 62
7
100
AcDbLine
 10
-3.574391
 20
0.195262
 30
0.0
 11
-3.531488
 21
-0.220128
 31
0.0
  0
LINE
  5
1d8
100
AcDbEntity
  8
makey
 62
7
100
AcDbLine
 10
-3.531488
 20
-0.220128
 30
0.0
 11
-3.358829
 21
-0.518745
 31
0.0
  0
LINE
  5
1d9
100
AcDbEntity
  8
makey
 62
7
100
AcDbLine
 10
-3.358829
 20
-0.518745
 30
0.0
 11
-3.092775
 21
-0.763027
 31
0.0
  0
LINE
  5
1da
100
AcDbEntity
  8
makey
 62
7
100
AcDbLine
 10
-3.092775
 20
-0.763027
 30
0.0
 11
-2.911782
 21
-0.851524
 31
0.0
  0
LINE
  5
1db
100
AcDbEntity
  8
makey
 62
7
100
AcDbLine
 10
-2.911782
 20
-0.851524
 30
0.0
 11
-2.537297
 21
-0.895630
 31
0.0
  0
LINE
  5
1dc
100
AcDbEntity
  8
makey
 62
7
100
AcDbLine
 10
-2.537297
 20
-0.895630
 30
0.0
 11
0.023037
 21
-0.907907
 31
0.0
  0
LINE
  5
1dd
100
AcDbEntity
  8
makey
 62
7
100
AcDbLine
 10
0.023037
 20
-0.907907
 30
0.0
 11
2.766319
 21
-0.901822
 31
0.0
  0
LINE
  5
1de
100
AcDbEntity
  8
makey
 62
7
100
AcDbLine
 10
2.766319
 20
-0.901822
 30
0.0
 11
2.914290
 21
-0.832797
 31
0.0
  0
LINE
  5
1df
100
AcDbEntity
  8
makey
 62
7
100
AcDbLine
 10
-2.742090
 20
-0.654674
 30
0.0
 11
-2.953599
 21
-0.568375
 31
0.0
  0
LINE
  5
1e0
100
AcDbEntity
  8
makey
 62
7
100
AcDbLine
 10
-2.953599
 20
-0.568375
 30
0.0
 11
-3.125933
 21
-0.438388
 31
0.0
  0
LINE
  5
1e1
100
AcDbEntity
  8
makey
 62
7
100
AcDbLine
 10
-3.125933
 20
-0.438388
 30
0.0
 11
-3.253147
 21
-0.270626
 31
0.0
  0
LINE
  5
1e2
100
AcDbEntity
  8
makey
 62
7
100
AcDbLine
 10
-3.253147
 20
-0.270626
 30
0.0
 11
-3.329298
 21
-0.070993
 31
0.0
  0
LINE
  5
1e3
100
AcDbEntity
  8
makey
 62
7
100
AcDbLine
 10
-3.329298
 20
-0.070993
 30
0.0
 11
-3.362189
 21
0.721169
 31
0.0
  0
LINE
  5
1e4
100
AcDbEntity
  8
makey
 62
7
100
AcDbLine
 10
-3.362189
 20
0.721169
 30
0.0
 11
-3.362956
 21
1.372246
 31
0.0
  0
LINE
  5
1e5
100
AcDbEntity
  8
makey
 62
7
100
AcDbLine
 10
-3.362956
 20
1.372246
 30
0.0
 11
-2.555648
 21
1.363885
 31
0.0
  0
LINE
  5
1e6
100
AcDbEntity
  8
makey
 62
7
100
AcDbLine
 10
-2.555648
 20
1.363885
 30
0.0
 11
-1.748339
 21
1.355524
 31
0.0
  0
LINE
  5
1e7
100
AcDbEntity
  8
makey
 62
7
100
AcDbLine
 10
-1.748339
 20
1.355524
 30
0.0
 11
-1.739934
 21
0.610920
 31
0.0
  0
LINE
  5
1e8
100
AcDbEntity
  8
makey
 62
7
100
AcDbLine
 10
-1.739934
 20
0.610920
 30
0.0
 11
-1.731528
 21
-0.133686
 31
0.0
  0
LINE
  5
1e9
100
AcDbEntity
  8
makey
 62
7
100
AcDbLine
 10
-1.731528
 20
-0.133686
 30
0.0
 11
-1.402902
 21
-0.133686
 31
0.0
  0
LINE
  5
1ea
100
AcDbEntity
  8
makey
 62
7
100
AcDbLine
 10
-1.402902
 20
-0.133686
 30
0.0
 11
-1.074275
 21
-0.133686
 31
0.0
  0
LINE
  5
1eb
100
AcDbEntity
  8
makey
 62
7
100
AcDbLine
 10
-1.074275
 20
-0.133686
 30
0.0
 11
-1.071423
 21
0.987142
 31
0.0
  0
LINE
  5
1ec
100
AcDbEntity
  8
makey
 62
7
100
AcDbLine
 10
-1.071423
 20
0.987142
 30
0.0
 11
-1.068570
 21
2.107967
 31
0.0
  0
LINE
  5
1ed
100
AcDbEntity
  8
makey
 62
7
100
AcDbLine
 10
-1.068570
 20
2.107967
 30
0.0
 11
-1.007409
 21
1.872829
 31
0.0
  0
LINE
  5
1ee
100
AcDbEntity
  8
makey
 62
7
100
AcDbLine
 10
-1.007409
 20
1.872829
 30
0.0
 11
-0.724848
 21
0.948576
 31
0.0
  0
LINE
  5
1ef
100
AcDbEntity
  8
makey
 62
7
100
AcDbLine
 10
-0.724848
 20
0.948576
 30
0.0
 11
-0.442411
 21
0.061844
 31
0.0
  0
LINE
  5
1f0
100
AcDbEntity
  8
makey
 62
7
100
AcDbLine
 10
-0.442411
 20
0.061844
 30
0.0
 11
-0.381372
 21
-0.135776
 31
0.0
  0
LINE
  5
1f1
100
AcDbEntity
  8
makey
 62
7
100
AcDbLine
 10
-0.381372
 20
-0.135776
 30
0.0
 11
-0.047173
 21
-0.126886
 31
0.0
  0
LINE
  5
1f2
100
AcDbEntity
  8
makey
 62
7
100
AcDbLine
 10
-0.047173
 20
-0.126886
 30
0.0
 11
0.287026
 21
-0.117996
 31
0.0
  0
LINE
  5
1f3
100
AcDbEntity
  8
makey
 62
7
100
AcDbLine
 10
0.287026
 20
-0.117996
 30
0.0
 11
0.516652
 21
0.587420
 31
0.0
  0
LINE
  5
1f4
100
AcDbEntity
  8
makey
 62
7
100
AcDbLine
 10
0.516652
 20
0.587420
 30
0.0
 11
0.852886
 21
1.669055
 31
0.0
  0
LINE
  5
1f5
100
AcDbEntity
  8
makey
 62
7
100
AcDbLine
 10
0.852886
 20
1.669055
 30
0.0
 11
0.959493
 21
2.045277
 31
0.0
  0
LINE
  5
1f6
100
AcDbEntity
  8
makey
 62
7
100
AcDbLine
 10
0.959493
 20
2.045277
 30
0.0
 11
0.969380
 21
0.963639
 31
0.0
  0
LINE
  5
1f7
100
AcDbEntity
  8
makey
 62
7
100
AcDbLine
 10
0.969380
 20
0.963639
 30
0.0
 11
0.979266
 21
-0.117996
 31
0.0
  0
LINE
  5
1f8
100
AcDbEntity
  8
makey
 62
7
100
AcDbLine
 10
0.979266
 20
-0.117996
 30
0.0
 11
1.331974
 21
-0.126860
 31
0.0
  0
LINE
  5
1f9
100
AcDbEntity
  8
makey
 62
7
100
AcDbLine
 10
1.331974
 20
-0.126860
 30
0.0
 11
1.684681
 21
-0.135723
 31
0.0
  0
LINE
  5
1fa
100
AcDbEntity
  8
makey
 62
7
100
AcDbLine
 10
1.684681
 20
-0.135723
 30
0.0
 11
1.684681
 21
0.617747
 31
0.0
  0
LINE
  5
1fb
100
AcDbEntity
  8
makey
 62
7
100
AcDbLine
 10
1.684681
 20
0.617747
 30
0.0
 11
1.684681
 21
1.371216
 31
0.0
  0
LINE
  5
1fc
100
AcDbEntity
  8
makey
 62
7
100
AcDbLine
 10
1.684681
 20
1.371216
 30
0.0
 11
2.484152
 21
1.371216
 31
0.0
  0
LINE
  5
1fd
100
AcDbEntity
  8
makey
 62
7
100
AcDbLine
 10
2.484152
 20
1.371216
 30
0.0
 11
3.283623
 21
1.371216
 31
0.0
  0
LINE
  5
1fe
100
AcDbEntity
  8
makey
 62
7
100
AcDbLine
 10
3.283623
 20
1.371216
 30
0.0
 11
3.283623
 21
0.630854
 31
0.0
  0
LINE
  5
1ff
100
AcDbEntity
  8
makey
 62
7
100
AcDbLine
 10
3.283623
 20
0.630854
 30
0.0
 11
3.283623
 21
-0.109508
 31
0.0
  0
LINE
  5
200
100
AcDbEntity
  8
makey
 62
7
100
AcDbLine
 10
3.283623
 20
-0.109508
 30
0.0
 11
3.200186
 21
-0.262808
 31
0.0
  0
LINE
  5
201
100
AcDbEntity
  8
makey
 62
7
100
AcDbLine
 10
3.200186
 20
-0.262808
 30
0.0
 11
3.033315
 21
-0.474694
 31
0.0
  0
LINE
  5
202
100
AcDbEntity
  8
makey
 62
7
100
AcDbLine
 10
3.033315
 20
-0.474694
 30
0.0
 11
2.789820
 21
-0.629065
 31
0.0
  0
LINE
  5
203
100
AcDbEntity
  8
makey
 62
7
100
AcDbLine
 10
2.789820
 20
-0.629065
 30
0.0
 11
2.652583
 21
-0.658058
 31
0.0
  0
LINE
  5
204
100
AcDbEntity
  8
makey
 62
7
100
AcDbLine
 10
2.652583
 20
-0.658058
 30
0.0
 11
2.275033
 21
-0.674886
 31
0.0
  0
LINE
  5
205
100
AcDbEntity
  8
makey
 62
7
100
AcDbLine
 10
2.275033
 20
-0.674886
 30
0.0
 11
0.038712
 21
-0.688538
 31
0.0
  0
LINE
  5
206
100
AcDbEntity
  8
makey
 62
7
100
AcDbLine
 10
0.038712
 20
-0.688538
 30
0.0
 11
-2.080695
 21
-0.685205
 31
0.0
  0
LINE
  5
207
100
AcDbEntity
  8
makey
 62
7
100
AcDbLine
 10
-2.080695
 20
-0.685205
 30
0.0
 11
-2.742091
 21
-0.654637
 31
0.0
  0
LINE
  5
208
100
AcDbEntity
  8
makey
 62
7
100
AcDbLine
 10
-2.742091
 20
-0.654637
 30
0.0
 11
-2.742092
 21
-0.654645
 31
0.0
  0
LINE
  5
209
100
AcDbEntity
  8
makey
 62
7
100
AcDbLine
 10
-0.390333
 20
2.006206
 30
0.0
 11
-0.753762
 21
3.205300
 31
0.0
  0
LINE
  5
20a
100
AcDbEntity
  8
makey
 62
7
100
AcDbLine
 10
-0.753762
 20
3.205300
 30
0.0
 11
-1.243214
 21
3.213925
 31
0.0
  0
LINE
  5
20b
100
AcDbEntity
  8
makey
 62
7
100
AcDbLine
 10
-1.243214
 20
3.213925
 30
0.0
 11
-1.732665
 21
3.222551
 31
0.0
  0
LINE
  5
20c
100
AcDbEntity
  8
makey
 62
7
100
AcDbLine
 10
-1.732665
 20
3.222551
 30
0.0
 11
-1.732665
 21
2.359581
 31
0.0
  0
LINE
  5
20d
100
AcDbEntity
  8
makey
 62
7
100
AcDbLine
 10
-1.732665
 20
2.359581
 30
0.0
 11
-1.732665
 21
1.496610
 31
0.0
  0
LINE
  5
20e
100
AcDbEntity
  8
makey
 62
7
100
AcDbLine
 10
-1.732665
 20
1.496610
 30
0.0
 11
-2.550055
 21
1.496610
 31
0.0
  0
LINE
  5
20f
100
AcDbEntity
  8
makey
 62
7
100
AcDbLine
 10
-2.550055
 20
1.496610
 30
0.0
 11
-3.367444
 21
1.496610
 31
0.0
  0
LINE
  5
210
100
AcDbEntity
  8
makey
 62
7
100
AcDbLine
 10
-3.367444
 20
1.496610
 30
0.0
 11
-3.357086
 21
2.350947
 31
0.0
  0
LINE
  5
211
100
AcDbEntity
  8
makey
 62
7
100
AcDbLine
 10
-3.357086
 20
2.350947
 30
0.0
 11
-3.318066
 21
3.224604
 31
0.0
  0
LINE
  5
212
100
AcDbEntity
  8
makey
 62
7
100
AcDbLine
 10
-3.318066
 20
3.224604
 30
0.0
 11
-3.254272
 21
3.401901
 31
0.0
  0
LINE
  5
213
100
AcDbEntity
  8
makey
 62
7
100
AcDbLine
 10
-3.254272
 20
3.401901
 30
0.0
 11
-3.136126
 21
3.539755
 31
0.0
  0
LINE
  5
214
100
AcDbEntity
  8
makey
 62
7
100
AcDbLine
 10
-3.136126
 20
3.539755
 30
0.0
 11
-2.905327
 21
3.708895
 31
0.0
  0
LINE
  5
215
100
AcDbEntity
  8
makey
 62
7
100
AcDbLine
 10
-2.905327
 20
3.708895
 30
0.0
 11
-2.779794
 21
3.743217
 31
0.0
  0
LINE
  5
216
100
AcDbEntity
  8
makey
 62
7
100
AcDbLine
 10
-2.779794
 20
3.743217
 30
0.0
 11
-2.422710
 21
3.762372
 31
0.0
  0
LINE
  5
217
100
AcDbEntity
  8
makey
 62
7
100
AcDbLine
 10
-2.422710
 20
3.762372
 30
0.0
 11
-0.071019
 21
3.778327
 31
0.0
  0
LINE
  5
218
100
AcDbEntity
  8
makey
 62
7
100
AcDbLine
 10
-0.071019
 20
3.778327
 30
0.0
 11
1.655322
 21
3.782110
 31
0.0
  0
LINE
  5
219
100
AcDbEntity
  8
makey
 62
7
100
AcDbLine
 10
1.655322
 20
3.782110
 30
0.0
 11
2.523905
 21
3.763854
 31
0.0
  0
LINE
  5
21a
100
AcDbEntity
  8
makey
 62
7
100
AcDbLine
 10
2.523905
 20
3.763854
 30
0.0
 11
2.872754
 21
3.701111
 31
0.0
  0
LINE
  5
21b
100
AcDbEntity
  8
makey
 62
7
100
AcDbLine
 10
2.872754
 20
3.701111
 30
0.0
 11
3.039894
 21
3.571386
 31
0.0
  0
LINE
  5
21c
100
AcDbEntity
  8
makey
 62
7
100
AcDbLine
 10
3.039894
 20
3.571386
 30
0.0
 11
3.178954
 21
3.427762
 31
0.0
  0
LINE
  5
21d
100
AcDbEntity
  8
makey
 62
7
100
AcDbLine
 10
3.178954
 20
3.427762
 30
0.0
 11
3.251516
 21
3.249634
 31
0.0
  0
LINE
  5
21e
100
AcDbEntity
  8
makey
 62
7
100
AcDbLine
 10
3.251516
 20
3.249634
 30
0.0
 11
3.279199
 21
2.929543
 31
0.0
  0
LINE
  5
21f
100
AcDbEntity
  8
makey
 62
7
100
AcDbLine
 10
3.279199
 20
2.929543
 30
0.0
 11
3.283623
 21
2.360046
 31
0.0
  0
LINE
  5
220
100
AcDbEntity
  8
makey
 62
7
100
AcDbLine
 10
3.283623
 20
2.360046
 30
0.0
 11
3.283623
 21
1.496621
 31
0.0
  0
LINE
  5
221
100
AcDbEntity
  8
makey
 62
7
100
AcDbLine
 10
3.283623
 20
1.496621
 30
0.0
 11
2.484158
 21
1.496621
 31
0.0
  0
LINE
  5
222
100
AcDbEntity
  8
makey
 62
7
100
AcDbLine
 10
2.484158
 20
1.496621
 30
0.0
 11
1.684687
 21
1.496621
 31
0.0
  0
LINE
  5
223
100
AcDbEntity
  8
makey
 62
7
100
AcDbLine
 10
1.684687
 20
1.496621
 30
0.0
 11
1.684687
 21
2.358797
 31
0.0
  0
LINE
  5
224
100
AcDbEntity
  8
makey
 62
7
100
AcDbLine
 10
1.684687
 20
2.358797
 30
0.0
 11
1.684687
 21
3.220971
 31
0.0
  0
LINE
  5
225
100
AcDbEntity
  8
makey
 62
7
100
AcDbLine
 10
1.684687
 20
3.220971
 30
0.0
 11
1.185490
 21
3.220971
 31
0.0
  0
LINE
  5
226
100
AcDbEntity
  8
makey
 62
7
100
AcDbLine
 10
1.185490
 20
3.220971
 30
0.0
 11
0.686293
 21
3.220971
 31
0.0
  0
LINE
  5
227
100
AcDbEntity
  8
makey
 62
7
100
AcDbLine
 10
0.686293
 20
3.220971
 30
0.0
 11
0.654401
 21
3.119078
 31
0.0
  0
LINE
  5
228
100
AcDbEntity
  8
makey
 62
7
100
AcDbLine
 10
0.654401
 20
3.119078
 30
0.0
 11
0.319307
 21
1.935546
 31
0.0
  0
LINE
  5
229
100
AcDbEntity
  8
makey
 62
7
100
AcDbLine
 10
0.319307
 20
1.935546
 30
0.0
 11
-0.005395
 21
0.830509
 31
0.0
  0
LINE
  5
22a
100
AcDbEntity
  8
makey
 62
7
100
AcDbLine
 10
-0.005395
 20
0.830509
 30
0.0
 11
-0.390325
 21
2.006200
 31
0.0
  0
LINE
  5
22b
100
AcDbEntity
  8
makey
 62
7
100
AcDbLine
 10
-0.390325
 20
2.006200
 30
0.0
 11
-0.390325
 21
2.006200
 31
0.0
  0
LINE
  5
22c
100
AcDbEntity
  8
makey
 62
7
100
AcDbLine
 10
-3.255766
 20
4.768215
 30
0.0
 11
-3.237417
 21
5.080169
 31
0.0
  0
LINE
  5
22d
100
AcDbEntity
  8
makey
 62
7
100
AcDbLine
 10
-3.237417
 20
5.080169
 30
0.0
 11
-3.155542
 21
5.535171
 31
0.0
  0
LINE
  5
22e
100
AcDbEntity
  8
makey
 62
7
100
AcDbLine
 10
-3.155542
 20
5.535171
 30
0.0
 11
-3.056187
 21
5.853533
 31
0.0
  0
LINE
  5
22f
100
AcDbEntity
  8
makey
 62
7
100
AcDbLine
 10
-3.056187
 20
5.853533
 30
0.0
 11
-2.921944
 21
6.159548
 31
0.0
  0
LINE
  5
230
100
AcDbEntity
  8
makey
 62
7
100
AcDbLine
 10
-2.921944
 20
6.159548
 30
0.0
 11
-2.755081
 21
6.450393
 31
0.0
  0
LINE
  5
231
100
AcDbEntity
  8
makey
 62
7
100
AcDbLine
 10
-2.755081
 20
6.450393
 30
0.0
 11
-2.557869
 21
6.723253
 31
0.0
  0
LINE
  5
232
100
AcDbEntity
  8
makey
 62
7
100
AcDbLine
 10
-2.557869
 20
6.723253
 30
0.0
 11
-2.332575
 21
6.975306
 31
0.0
  0
LINE
  5
233
100
AcDbEntity
  8
makey
 62
7
100
AcDbLine
 10
-2.332575
 20
6.975306
 30
0.0
 11
-2.081468
 21
7.203736
 31
0.0
  0
LINE
  5
234
100
AcDbEntity
  8
makey
 62
7
100
AcDbLine
 10
-2.081468
 20
7.203736
 30
0.0
 11
-1.806818
 21
7.405722
 31
0.0
  0
LINE
  5
235
100
AcDbEntity
  8
makey
 62
7
100
AcDbLine
 10
-1.806818
 20
7.405722
 30
0.0
 11
-1.510894
 21
7.578450
 31
0.0
  0
LINE
  5
236
100
AcDbEntity
  8
makey
 62
7
100
AcDbLine
 10
-1.510894
 20
7.578450
 30
0.0
 11
-1.121983
 21
7.748201
 31
0.0
  0
LINE
  5
237
100
AcDbEntity
  8
makey
 62
7
100
AcDbLine
 10
-1.121983
 20
7.748201
 30
0.0
 11
-0.727199
 21
7.863562
 31
0.0
  0
LINE
  5
238
100
AcDbEntity
  8
makey
 62
7
100
AcDbLine
 10
-0.727199
 20
7.863562
 30
0.0
 11
-0.330495
 21
7.926697
 31
0.0
  0
LINE
  5
239
100
AcDbEntity
  8
makey
 62
7
100
AcDbLine
 10
-0.330495
 20
7.926697
 30
0.0
 11
0.064178
 21
7.939767
 31
0.0
  0
LINE
  5
23a
100
AcDbEntity
  8
makey
 62
7
100
AcDbLine
 10
0.064178
 20
7.939767
 30
0.0
 11
0.452869
 21
7.904983
 31
0.0
  0
LINE
  5
23b
100
AcDbEntity
  8
makey
 62
7
100
AcDbLine
 10
0.452869
 20
7.904983
 30
0.0
 11
0.831627
 21
7.824496
 31
0.0
  0
LINE
  5
23c
100
AcDbEntity
  8
makey
 62
7
100
AcDbLine
 10
0.831627
 20
7.824496
 30
0.0
 11
1.196499
 21
7.700486
 31
0.0
  0
LINE
  5
23d
100
AcDbEntity
  8
makey
 62
7
100
AcDbLine
 10
1.196499
 20
7.700486
 30
0.0
 11
1.543534
 21
7.535124
 31
0.0
  0
LINE
  5
23e
100
AcDbEntity
  8
makey
 62
7
100
AcDbLine
 10
1.543534
 20
7.535124
 30
0.0
 11
1.868781
 21
7.330586
 31
0.0
  0
LINE
  5
23f
100
AcDbEntity
  8
makey
 62
7
100
AcDbLine
 10
1.868781
 20
7.330586
 30
0.0
 11
2.168288
 21
7.089045
 31
0.0
  0
LINE
  5
240
100
AcDbEntity
  8
makey
 62
7
100
AcDbLine
 10
2.168288
 20
7.089045
 30
0.0
 11
2.438104
 21
6.812674
 31
0.0
  0
LINE
  5
241
100
AcDbEntity
  8
makey
 62
7
100
AcDbLine
 10
2.438104
 20
6.812674
 30
0.0
 11
2.674277
 21
6.503649
 31
0.0
  0
LINE
  5
242
100
AcDbEntity
  8
makey
 62
7
100
AcDbLine
 10
2.674277
 20
6.503649
 30
0.0
 11
2.872855
 21
6.164146
 31
0.0
  0
LINE
  5
243
100
AcDbEntity
  8
makey
 62
7
100
AcDbLine
 10
2.872855
 20
6.164146
 30
0.0
 11
3.029888
 21
5.796333
 31
0.0
  0
LINE
  5
244
100
AcDbEntity
  8
makey
 62
7
100
AcDbLine
 10
3.029888
 20
5.796333
 30
0.0
 11
3.141423
 21
5.402392
 31
0.0
  0
LINE
  5
245
100
AcDbEntity
  8
makey
 62
7
100
AcDbLine
 10
3.141423
 20
5.402392
 30
0.0
 11
3.203509
 21
4.984491
 31
0.0
  0
LINE
  5
246
100
AcDbEntity
  8
makey
 62
7
100
AcDbLine
 10
3.203509
 20
4.984491
 30
0.0
 11
3.225234
 21
4.725839
 31
0.0
  0
LINE
  5
247
100
AcDbEntity
  8
makey
 62
7
100
AcDbLine
 10
3.225234
 20
4.725839
 30
0.0
 11
-0.007138
 21
4.725839
 31
0.0
  0
LINE
  5
248
100
AcDbEntity
  8
makey
 62
7
100
AcDbLine
 10
-0.007138
 20
4.725839
 30
0.0
 11
-2.633621
 21
4.733830
 31
0.0
  0
LINE
  5
249
100
AcDbEntity
  8
makey
 62
7
100
AcDbLine
 10
-2.633621
 20
4.733830
 30
0.0
 11
-3.255766
 21
4.768207
 31
0.0
  0
LINE
  5
24a
100
AcDbEntity
  8
makey
 62
7
100
AcDbLine
 10
-3.255766
 20
4.768207
 30
0.0
 11
-3.255766
 21
4.768207
 31
0.0
  0
LINE
  5
24b
100
AcDbEntity
  8
makey
 62
7
100
AcDbLine
 10
-1.520026
 20
5.056706
 30
0.0
 11
-1.345741
 21
5.161431
 31
0.0
  0
LINE
  5
24c
100
AcDbEntity
  8
makey
 62
7
100
AcDbLine
 10
-1.345741
 20
5.161431
 30
0.0
 11
-1.214304
 21
5.308137
 31
0.0
  0
LINE
  5
24d
100
AcDbEntity
  8
makey
 62
7
100
AcDbLine
 10
-1.214304
 20
5.308137
 30
0.0
 11
-1.131088
 21
5.488630
 31
0.0
  0
LINE
  5
24e
100
AcDbEntity
  8
makey
 62
7
100
AcDbLine
 10
-1.131088
 20
5.488630
 30
0.0
 11
-1.101466
 21
5.694725
 31
0.0
  0
LINE
  5
24f
100
AcDbEntity
  8
makey
 62
7
100
AcDbLine
 10
-1.101466
 20
5.694725
 30
0.0
 11
-1.145964
 21
5.973061
 31
0.0
  0
LINE
  5
250
100
AcDbEntity
  8
makey
 62
7
100
AcDbLine
 10
-1.145964
 20
5.973061
 30
0.0
 11
-1.297833
 21
6.196179
 31
0.0
  0
LINE
  5
251
100
AcDbEntity
  8
makey
 62
7
100
AcDbLine
 10
-1.297833
 20
6.196179
 30
0.0
 11
-1.438359
 21
6.305442
 31
0.0
  0
LINE
  5
252
100
AcDbEntity
  8
makey
 62
7
100
AcDbLine
 10
-1.438359
 20
6.305442
 30
0.0
 11
-1.595094
 21
6.372445
 31
0.0
  0
LINE
  5
253
100
AcDbEntity
  8
makey
 62
7
100
AcDbLine
 10
-1.595094
 20
6.372445
 30
0.0
 11
-1.760190
 21
6.398718
 31
0.0
  0
LINE
  5
254
100
AcDbEntity
  8
makey
 62
7
100
AcDbLine
 10
-1.760190
 20
6.398718
 30
0.0
 11
-1.925799
 21
6.385806
 31
0.0
  0
LINE
  5
255
100
AcDbEntity
  8
makey
 62
7
100
AcDbLine
 10
-1.925799
 20
6.385806
 30
0.0
 11
-2.084073
 21
6.335252
 31
0.0
  0
LINE
  5
256
100
AcDbEntity
  8
makey
 62
7
100
AcDbLine
 10
-2.084073
 20
6.335252
 30
0.0
 11
-2.227164
 21
6.248588
 31
0.0
  0
LINE
  5
257
100
AcDbEntity
  8
makey
 62
7
100
AcDbLine
 10
-2.227164
 20
6.248588
 30
0.0
 11
-2.347226
 21
6.127350
 31
0.0
  0
LINE
  5
258
100
AcDbEntity
  8
makey
 62
7
100
AcDbLine
 10
-2.347226
 20
6.127350
 30
0.0
 11
-2.436409
 21
5.973077
 31
0.0
  0
LINE
  5
259
100
AcDbEntity
  8
makey
 62
7
100
AcDbLine
 10
-2.436409
 20
5.973077
 30
0.0
 11
-2.483309
 21
5.702422
 31
0.0
  0
LINE
  5
25a
100
AcDbEntity
  8
makey
 62
7
100
AcDbLine
 10
-2.483309
 20
5.702422
 30
0.0
 11
-2.442823
 21
5.438084
 31
0.0
  0
LINE
  5
25b
100
AcDbEntity
  8
makey
 62
7
100
AcDbLine
 10
-2.442823
 20
5.438084
 30
0.0
 11
-2.285611
 21
5.208831
 31
0.0
  0
LINE
  5
25c
100
AcDbEntity
  8
makey
 62
7
100
AcDbLine
 10
-2.285611
 20
5.208831
 30
0.0
 11
-2.057706
 21
5.059878
 31
0.0
  0
LINE
  5
25d
100
AcDbEntity
  8
makey
 62
7
100
AcDbLine
 10
-2.057706
 20
5.059878
 30
0.0
 11
-1.791660
 21
5.004681
 31
0.0
  0
LINE
  5
25e
100
AcDbEntity
  8
makey
 62
7
100
AcDbLine
 10
-1.791660
 20
5.004681
 30
0.0
 11
-1.520026
 21
5.056695
 31
0.0
  0
LINE
  5
25f
100
AcDbEntity
  8
makey
 62
7
100
AcDbLine
 10
-1.520026
 20
5.056695
 30
0.0
 11
-1.520026
 21
5.056695
 31
0.0
  0
LINE
  5
260
100
AcDbEntity
  8
makey
 62
7
100
AcDbLine
 10
2.007050
 20
5.050293
 30
0.0
 11
2.188886
 21
5.160571
 31
0.0
  0
LINE
  5
261
100
AcDbEntity
  8
makey
 62
7
100
AcDbLine
 10
2.188886
 20
5.160571
 30
0.0
 11
2.327058
 21
5.315447
 31
0.0
  0
LINE
  5
262
100
AcDbEntity
  8
makey
 62
7
100
AcDbLine
 10
2.327058
 20
5.315447
 30
0.0
 11
2.414416
 21
5.504040
 31
0.0
  0
LINE
  5
263
100
AcDbEntity
  8
makey
 62
7
100
AcDbLine
 10
2.414416
 20
5.504040
 30
0.0
 11
2.443810
 21
5.715450
 31
0.0
  0
LINE
  5
264
100
AcDbEntity
  8
makey
 62
7
100
AcDbLine
 10
2.443810
 20
5.715450
 30
0.0
 11
2.411532
 21
5.919401
 31
0.0
  0
LINE
  5
265
100
AcDbEntity
  8
makey
 62
7
100
AcDbLine
 10
2.411532
 20
5.919401
 30
0.0
 11
2.325949
 21
6.094098
 31
0.0
  0
LINE
  5
266
100
AcDbEntity
  8
makey
 62
7
100
AcDbLine
 10
2.325949
 20
6.094098
 30
0.0
 11
2.198095
 21
6.234414
 31
0.0
  0
LINE
  5
267
100
AcDbEntity
  8
makey
 62
7
100
AcDbLine
 10
2.198095
 20
6.234414
 30
0.0
 11
2.039000
 21
6.335239
 31
0.0
  0
LINE
  5
268
100
AcDbEntity
  8
makey
 62
7
100
AcDbLine
 10
2.039000
 20
6.335239
 30
0.0
 11
1.859698
 21
6.391447
 31
0.0
  0
LINE
  5
269
100
AcDbEntity
  8
makey
 62
7
100
AcDbLine
 10
1.859698
 20
6.391447
 30
0.0
 11
1.671220
 21
6.397929
 31
0.0
  0
LINE
  5
26a
100
AcDbEntity
  8
makey
 62
7
100
AcDbLine
 10
1.671220
 20
6.397929
 30
0.0
 11
1.484598
 21
6.349550
 31
0.0
  0
LINE
  5
26b
100
AcDbEntity
  8
makey
 62
7
100
AcDbLine
 10
1.484598
 20
6.349550
 30
0.0
 11
1.310865
 21
6.241198
 31
0.0
  0
LINE
  5
26c
100
AcDbEntity
  8
makey
 62
7
100
AcDbLine
 10
1.310865
 20
6.241198
 30
0.0
 11
1.195824
 21
6.124556
 31
0.0
  0
LINE
  5
26d
100
AcDbEntity
  8
makey
 62
7
100
AcDbLine
 10
1.195824
 20
6.124556
 30
0.0
 11
1.117205
 21
6.000456
 31
0.0
  0
LINE
  5
26e
100
AcDbEntity
  8
makey
 62
7
100
AcDbLine
 10
1.117205
 20
6.000456
 30
0.0
 11
1.072285
 21
5.863143
 31
0.0
  0
LINE
  5
26f
100
AcDbEntity
  8
makey
 62
7
100
AcDbLine
 10
1.072285
 20
5.863143
 30
0.0
 11
1.058340
 21
5.706848
 31
0.0
  0
LINE
  5
270
100
AcDbEntity
  8
makey
 62
7
100
AcDbLine
 10
1.058340
 20
5.706848
 30
0.0
 11
1.087133
 21
5.494163
 31
0.0
  0
LINE
  5
271
100
AcDbEntity
  8
makey
 62
7
100
AcDbLine
 10
1.087133
 20
5.494163
 30
0.0
 11
1.169478
 21
5.310452
 31
0.0
  0
LINE
  5
272
100
AcDbEntity
  8
makey
 62
7
100
AcDbLine
 10
1.169478
 20
5.310452
 30
0.0
 11
1.301894
 21
5.161121
 31
0.0
  0
LINE
  5
273
100
AcDbEntity
  8
makey
 62
7
100
AcDbLine
 10
1.301894
 20
5.161121
 30
0.0
 11
1.480901
 21
5.051565
 31
0.0
  0
LINE
  5
274
100
AcDbEntity
  8
makey
 62
7
100
AcDbLine
 10
1.480901
 20
5.051565
 30
0.0
 11
1.742551
 21
5.010756
 31
0.0
  0
LINE
  5
275
100
AcDbEntity
  8
makey
 62
7
100
AcDbLine
 10
1.742551
 20
5.010756
 30
0.0
 11
2.007051
 21
5.050298
 31
0.0
  0
LINE
  5
276
100
AcDbEntity
  8
makey
 62
7
100
AcDbLine
 10
2.007051
 20
5.050298
 30
0.0
 11
2.007051
 21
5.050301
 31
0.0
  0
LINE
  5
277
100
AcDbEntity
  8
outline
 62
7
100
AcDbLine
 10
0.048576
 20
8.175212
 30
0.0
 11
-0.326595
 21
8.162803
 31
0.0
  0
LINE
  5
278
100
AcDbEntity
  8
outline
 62
7
100
AcDbLine
 10
-0.326595
 20
8.162803
 30
0.0
 11
-0.380855
 21
8.157644
 31
0.0
  0
LINE
  5
279
100
AcDbEntity
  8
outline
 62
7
100
AcDbLine
 10
-0.380855
 20
8.157644
 30
0.0
 11
-0.751892
 21
8.098216
 31
0.0
  0
LINE
  5
27a
100
AcDbEntity
  8
outline
 62
7
100
AcDbLine
 10
-0.751892
 20
8.098216
 30
0.0
 11
-0.806152
 21
8.086336
 31
0.0
  0
LINE
  5
27b
100
AcDbEntity
  8
outline
 62
7
100
AcDbLine
 10
-0.806152
 20
8.086336
 30
0.0
 11
-1.175639
 21
7.978333
 31
0.0
  0
LINE
  5
27c
100
AcDbEntity
  8
outline
 62
7
100
AcDbLine
 10
-1.175639
 20
7.978333
 30
0.0
 11
-1.228349
 21
7.959204
 31
0.0
  0
LINE
  5
27d
100
AcDbEntity
  8
outline
 62
7
100
AcDbLine
 10
-1.228349
 20
7.959204
 30
0.0
 11
-1.595251
 21
7.799007
 31
0.0
  0
LINE
  5
27e
100
AcDbEntity
  8
outline
 62
7
100
AcDbLine
 10
-1.595251
 20
7.799007
 30
0.0
 11
-1.640210
 21
7.776279
 31
0.0
  0
LINE
  5
27f
100
AcDbEntity
  8
outline
 62
7
100
AcDbLine
 10
-1.640210
 20
7.776279
 30
0.0
 11
-1.916679
 21
7.614534
 31
0.0
  0
LINE
  5
280
100
AcDbEntity
  8
outline
 62
7
100
AcDbLine
 10
-1.916679
 20
7.614534
 30
0.0
 11
-1.955436
 21
7.589213
 31
0.0
  0
LINE
  5
281
100
AcDbEntity
  8
outline
 62
7
100
AcDbLine
 10
-1.955436
 20
7.589213
 30
0.0
 11
-2.212785
 21
7.400078
 31
0.0
  0
LINE
  5
282
100
AcDbEntity
  8
outline
 62
7
100
AcDbLine
 10
-2.212785
 20
7.400078
 30
0.0
 11
-2.247925
 21
7.371141
 31
0.0
  0
LINE
  5
283
100
AcDbEntity
  8
outline
 62
7
100
AcDbLine
 10
-2.247925
 20
7.371141
 30
0.0
 11
-2.483569
 21
7.157199
 31
0.0
  0
LINE
  5
284
100
AcDbEntity
  8
outline
 62
7
100
AcDbLine
 10
-2.483569
 20
7.157199
 30
0.0
 11
-2.515092
 21
7.125160
 31
0.0
  0
LINE
  5
285
100
AcDbEntity
  8
outline
 62
7
100
AcDbLine
 10
-2.515092
 20
7.125160
 30
0.0
 11
-2.726965
 21
6.887964
 31
0.0
  0
LINE
  5
286
100
AcDbEntity
  8
outline
 62
7
100
AcDbLine
 10
-2.726965
 20
6.887964
 30
0.0
 11
-2.755387
 21
6.852825
 31
0.0
  0
LINE
  5
287
100
AcDbEntity
  8
outline
 62
7
100
AcDbLine
 10
-2.755387
 20
6.852825
 30
0.0
 11
-2.939872
 21
6.597544
 31
0.0
  0
LINE
  5
288
100
AcDbEntity
  8
outline
 62
7
100
AcDbLine
 10
-2.939872
 20
6.597544
 30
0.0
 11
-2.964677
 21
6.558785
 31
0.0
  0
LINE
  5
289
100
AcDbEntity
  8
outline
 62
7
100
AcDbLine
 10
-2.964677
 20
6.558785
 30
0.0
 11
-3.120740
 21
6.286968
 31
0.0
  0
LINE
  5
28a
100
AcDbEntity
  8
outline
 62
7
100
AcDbLine
 10
-3.120740
 20
6.286968
 30
0.0
 11
-3.141928
 21
6.244593
 31
0.0
  0
LINE
  5
28b
100
AcDbEntity
  8
outline
 62
7
100
AcDbLine
 10
-3.141928
 20
6.244593
 30
0.0
 11
-3.267501
 21
5.958821
 31
0.0
  0
LINE
  5
28c
100
AcDbEntity
  8
outline
 62
7
100
AcDbLine
 10
-3.267501
 20
5.958821
 30
0.0
 11
-3.284554
 21
5.912832
 31
0.0
  0
LINE
  5
28d
100
AcDbEntity
  8
outline
 62
7
100
AcDbLine
 10
-3.284554
 20
5.912832
 30
0.0
 11
-3.377055
 21
5.617242
 31
0.0
  0
LINE
  5
28e
100
AcDbEntity
  8
outline
 62
7
100
AcDbLine
 10
-3.377055
 20
5.617242
 30
0.0
 11
-3.389974
 21
5.564531
 31
0.0
  0
LINE
  5
28f
100
AcDbEntity
  8
outline
 62
7
100
AcDbLine
 10
-3.389974
 20
5.564531
 30
0.0
 11
-3.467489
 21
5.133033
 31
0.0
  0
LINE
  5
290
100
AcDbEntity
  8
outline
 62
7
100
AcDbLine
 10
-3.467489
 20
5.133033
 30
0.0
 11
-3.473691
 21
5.081357
 31
0.0
  0
LINE
  5
291
100
AcDbEntity
  8
outline
 62
7
100
AcDbLine
 10
-3.473691
 20
5.081357
 30
0.0
 11
-3.490743
 21
4.794552
 31
0.0
  0
LINE
  5
292
100
AcDbEntity
  8
outline
 62
7
100
AcDbLine
 10
-3.490743
 20
4.794552
 30
0.0
 11
-3.490743
 21
4.774390
 31
0.0
  0
LINE
  5
293
100
AcDbEntity
  8
outline
 62
7
100
AcDbLine
 10
-3.490743
 20
4.774390
 30
0.0
 11
-3.672644
 21
4.434877
 31
0.0
  0
LINE
  5
294
100
AcDbEntity
  8
outline
 62
7
100
AcDbLine
 10
-3.672644
 20
4.434877
 30
0.0
 11
-3.742924
 21
4.388369
 31
0.0
  0
LINE
  5
295
100
AcDbEntity
  8
outline
 62
7
100
AcDbLine
 10
-3.742924
 20
4.388369
 30
0.0
 11
-3.851962
 21
4.284498
 31
0.0
  0
LINE
  5
296
100
AcDbEntity
  8
outline
 62
7
100
AcDbLine
 10
-3.851962
 20
4.284498
 30
0.0
 11
-4.030245
 21
4.043169
 31
0.0
  0
LINE
  5
297
100
AcDbEntity
  8
outline
 62
7
100
AcDbLine
 10
-4.030245
 20
4.043169
 30
0.0
 11
-4.069002
 21
3.980640
 31
0.0
  0
LINE
  5
298
100
AcDbEntity
  8
outline
 62
7
100
AcDbLine
 10
-4.069002
 20
3.980640
 30
0.0
 11
-4.077787
 21
3.963072
 31
0.0
  0
LINE
  5
299
100
AcDbEntity
  8
outline
 62
7
100
AcDbLine
 10
-4.077787
 20
3.963072
 30
0.0
 11
-4.431770
 21
3.740346
 31
0.0
  0
LINE
  5
29a
100
AcDbEntity
  8
outline
 62
7
100
AcDbLine
 10
-4.431770
 20
3.740346
 30
0.0
 11
-4.800223
 21
3.732091
 31
0.0
  0
LINE
  5
29b
100
AcDbEntity
  8
outline
 62
7
100
AcDbLine
 10
-4.800223
 20
3.732091
 30
0.0
 11
-4.810558
 21
3.731562
 31
0.0
  0
LINE
  5
29c
100
AcDbEntity
  8
outline
 62
7
100
AcDbLine
 10
-4.810558
 20
3.731562
 30
0.0
 11
-5.322671
 21
3.708305
 31
0.0
  0
LINE
  5
29d
100
AcDbEntity
  8
outline
 62
7
100
AcDbLine
 10
-5.322671
 20
3.708305
 30
0.0
 11
-5.403803
 21
3.696928
 31
0.0
  0
LINE
  5
29e
100
AcDbEntity
  8
outline
 62
7
100
AcDbLine
 10
-5.403803
 20
3.696928
 30
0.0
 11
-5.670454
 21
3.633883
 31
0.0
  0
LINE
  5
29f
100
AcDbEntity
  8
outline
 62
7
100
AcDbLine
 10
-5.670454
 20
3.633883
 30
0.0
 11
-5.751069
 21
3.606493
 31
0.0
  0
LINE
  5
2a0
100
AcDbEntity
  8
outline
 62
7
100
AcDbLine
 10
-5.751069
 20
3.606493
 30
0.0
 11
-6.167581
 21
3.418390
 31
0.0
  0
LINE
  5
2a1
100
AcDbEntity
  8
outline
 62
7
100
AcDbLine
 10
-6.167581
 20
3.418390
 30
0.0
 11
-6.249230
 21
3.369815
 31
0.0
  0
LINE
  5
2a2
100
AcDbEntity
  8
outline
 62
7
100
AcDbLine
 10
-6.249230
 20
3.369815
 30
0.0
 11
-6.616132
 21
3.094897
 31
0.0
  0
LINE
  5
2a3
100
AcDbEntity
  8
outline
 62
7
100
AcDbLine
 10
-6.616132
 20
3.094897
 30
0.0
 11
-6.669359
 21
3.047870
 31
0.0
  0
LINE
  5
2a4
100
AcDbEntity
  8
outline
 62
7
100
AcDbLine
 10
-6.669359
 20
3.047870
 30
0.0
 11
-6.900869
 21
2.807576
 31
0.0
  0
LINE
  5
2a5
100
AcDbEntity
  8
outline
 62
7
100
AcDbLine
 10
-6.900869
 20
2.807576
 30
0.0
 11
-6.938076
 21
2.763134
 31
0.0
  0
LINE
  5
2a6
100
AcDbEntity
  8
outline
 62
7
100
AcDbLine
 10
-6.938076
 20
2.763134
 30
0.0
 11
-7.125662
 21
2.507853
 31
0.0
  0
LINE
  5
2a7
100
AcDbEntity
  8
outline
 62
7
100
AcDbLine
 10
-7.125662
 20
2.507853
 30
0.0
 11
-7.158218
 21
2.455659
 31
0.0
  0
LINE
  5
2a8
100
AcDbEntity
  8
outline
 62
7
100
AcDbLine
 10
-7.158218
 20
2.455659
 30
0.0
 11
-7.314281
 21
2.166271
 31
0.0
  0
LINE
  5
2a9
100
AcDbEntity
  8
outline
 62
7
100
AcDbLine
 10
-7.314281
 20
2.166271
 30
0.0
 11
-7.335469
 21
2.119246
 31
0.0
  0
LINE
  5
2aa
100
AcDbEntity
  8
outline
 62
7
100
AcDbLine
 10
-7.335469
 20
2.119246
 30
0.0
 11
-7.471894
 21
1.773529
 31
0.0
  0
LINE
  5
2ab
100
AcDbEntity
  8
outline
 62
7
100
AcDbLine
 10
-7.471894
 20
1.773529
 30
0.0
 11
-7.487915
 21
1.724438
 31
0.0
  0
LINE
  5
2ac
100
AcDbEntity
  8
outline
 62
7
100
AcDbLine
 10
-7.487915
 20
1.724438
 30
0.0
 11
-7.563879
 21
1.435050
 31
0.0
  0
LINE
  5
2ad
100
AcDbEntity
  8
outline
 62
7
100
AcDbLine
 10
-7.563879
 20
1.435050
 30
0.0
 11
-7.578350
 21
1.336863
 31
0.0
  0
LINE
  5
2ae
100
AcDbEntity
  8
outline
 62
7
100
AcDbLine
 10
-7.578350
 20
1.336863
 30
0.0
 11
-7.593851
 21
0.868159
 31
0.0
  0
LINE
  5
2af
100
AcDbEntity
  8
outline
 62
7
100
AcDbLine
 10
-7.593851
 20
0.868159
 30
0.0
 11
-7.593851
 21
0.856782
 31
0.0
  0
LINE
  5
2b0
100
AcDbEntity
  8
outline
 62
7
100
AcDbLine
 10
-7.593851
 20
0.856782
 30
0.0
 11
-7.593851
 21
0.854665
 31
0.0
  0
LINE
  5
2b1
100
AcDbEntity
  8
outline
 62
7
100
AcDbLine
 10
-7.593851
 20
0.854665
 30
0.0
 11
-7.595915
 21
0.361154
 31
0.0
  0
LINE
  5
2b2
100
AcDbEntity
  8
outline
 62
7
100
AcDbLine
 10
-7.595915
 20
0.361154
 30
0.0
 11
-7.572145
 21
0.235064
 31
0.0
  0
LINE
  5
2b3
100
AcDbEntity
  8
outline
 62
7
100
AcDbLine
 10
-7.572145
 20
0.235064
 30
0.0
 11
-7.527187
 21
0.164785
 31
0.0
  0
LINE
  5
2b4
100
AcDbEntity
  8
outline
 62
7
100
AcDbLine
 10
-7.527187
 20
0.164785
 30
0.0
 11
-7.458974
 21
0.115176
 31
0.0
  0
LINE
  5
2b5
100
AcDbEntity
  8
outline
 62
7
100
AcDbLine
 10
-7.458974
 20
0.115176
 30
0.0
 11
-7.296710
 21
0.073835
 31
0.0
  0
LINE
  5
2b6
100
AcDbEntity
  8
outline
 62
7
100
AcDbLine
 10
-7.296710
 20
0.073835
 30
0.0
 11
-7.045058
 21
-0.115655
 31
0.0
  0
LINE
  5
2b7
100
AcDbEntity
  8
outline
 62
7
100
AcDbLine
 10
-7.045058
 20
-0.115655
 30
0.0
 11
-7.003704
 21
-0.427945
 31
0.0
  0
LINE
  5
2b8
100
AcDbEntity
  8
outline
 62
7
100
AcDbLine
 10
-7.003704
 20
-0.427945
 30
0.0
 11
-7.043495
 21
-0.574188
 31
0.0
  0
LINE
  5
2b9
100
AcDbEntity
  8
outline
 62
7
100
AcDbLine
 10
-7.043495
 20
-0.574188
 30
0.0
 11
-7.058997
 21
-0.691494
 31
0.0
  0
LINE
  5
2ba
100
AcDbEntity
  8
outline
 62
7
100
AcDbLine
 10
-7.058997
 20
-0.691494
 30
0.0
 11
-7.060558
 21
-0.705967
 31
0.0
  0
LINE
  5
2bb
100
AcDbEntity
  8
outline
 62
7
100
AcDbLine
 10
-7.060558
 20
-0.705967
 30
0.0
 11
-7.356664
 21
-3.873730
 31
0.0
  0
LINE
  5
2bc
100
AcDbEntity
  8
outline
 62
7
100
AcDbLine
 10
-7.356664
 20
-3.873730
 30
0.0
 11
-7.346845
 21
-4.038579
 31
0.0
  0
LINE
  5
2bd
100
AcDbEntity
  8
outline
 62
7
100
AcDbLine
 10
-7.346845
 20
-4.038579
 30
0.0
 11
-7.347877
 21
-4.100592
 31
0.0
  0
LINE
  5
2be
100
AcDbEntity
  8
outline
 62
7
100
AcDbLine
 10
-7.347877
 20
-4.100592
 30
0.0
 11
-7.357696
 21
-4.207560
 31
0.0
  0
LINE
  5
2bf
100
AcDbEntity
  8
outline
 62
7
100
AcDbLine
 10
-7.357696
 20
-4.207560
 30
0.0
 11
-7.344261
 21
-4.289211
 31
0.0
  0
LINE
  5
2c0
100
AcDbEntity
  8
outline
 62
7
100
AcDbLine
 10
-7.344261
 20
-4.289211
 30
0.0
 11
-7.313772
 21
-4.395147
 31
0.0
  0
LINE
  5
2c1
100
AcDbEntity
  8
outline
 62
7
100
AcDbLine
 10
-7.313772
 20
-4.395147
 30
0.0
 11
-7.283283
 21
-4.472662
 31
0.0
  0
LINE
  5
2c2
100
AcDbEntity
  8
outline
 62
7
100
AcDbLine
 10
-7.283283
 20
-4.472662
 30
0.0
 11
-7.189231
 21
-4.655595
 31
0.0
  0
LINE
  5
2c3
100
AcDbEntity
  8
outline
 62
7
100
AcDbLine
 10
-7.189231
 20
-4.655595
 30
0.0
 11
-7.156158
 21
-4.710372
 31
0.0
  0
LINE
  5
2c4
100
AcDbEntity
  8
outline
 62
7
100
AcDbLine
 10
-7.156158
 20
-4.710372
 30
0.0
 11
-6.872971
 21
-5.107765
 31
0.0
  0
LINE
  5
2c5
100
AcDbEntity
  8
outline
 62
7
100
AcDbLine
 10
-6.872971
 20
-5.107765
 30
0.0
 11
-6.808893
 21
-5.180110
 31
0.0
  0
LINE
  5
2c6
100
AcDbEntity
  8
outline
 62
7
100
AcDbLine
 10
-6.808893
 20
-5.180110
 30
0.0
 11
-6.497284
 21
-5.459682
 31
0.0
  0
LINE
  5
2c7
100
AcDbEntity
  8
outline
 62
7
100
AcDbLine
 10
-6.497284
 20
-5.459682
 30
0.0
 11
-6.431138
 21
-5.508773
 31
0.0
  0
LINE
  5
2c8
100
AcDbEntity
  8
outline
 62
7
100
AcDbLine
 10
-6.431138
 20
-5.508773
 30
0.0
 11
-6.071470
 21
-5.727364
 31
0.0
  0
LINE
  5
2c9
100
AcDbEntity
  8
outline
 62
7
100
AcDbLine
 10
-6.071470
 20
-5.727364
 30
0.0
 11
-5.999640
 21
-5.762506
 31
0.0
  0
LINE
  5
2ca
100
AcDbEntity
  8
outline
 62
7
100
AcDbLine
 10
-5.999640
 20
-5.762506
 30
0.0
 11
-5.587779
 21
-5.918568
 31
0.0
  0
LINE
  5
2cb
100
AcDbEntity
  8
outline
 62
7
100
AcDbLine
 10
-5.587779
 20
-5.918568
 30
0.0
 11
-5.519566
 21
-5.938729
 31
0.0
  0
LINE
  5
2cc
100
AcDbEntity
  8
outline
 62
7
100
AcDbLine
 10
-5.519566
 20
-5.938729
 30
0.0
 11
-5.045176
 21
-6.034847
 31
0.0
  0
LINE
  5
2cd
100
AcDbEntity
  8
outline
 62
7
100
AcDbLine
 10
-5.045176
 20
-6.034847
 30
0.0
 11
-4.991433
 21
-6.042599
 31
0.0
  0
LINE
  5
2ce
100
AcDbEntity
  8
outline
 62
7
100
AcDbLine
 10
-4.991433
 20
-6.042599
 30
0.0
 11
-4.634349
 21
-6.070505
 31
0.0
  0
LINE
  5
2cf
100
AcDbEntity
  8
outline
 62
7
100
AcDbLine
 10
-4.634349
 20
-6.070505
 30
0.0
 11
-4.609544
 21
-6.071563
 31
0.0
  0
LINE
  5
2d0
100
AcDbEntity
  8
outline
 62
7
100
AcDbLine
 10
-4.609544
 20
-6.071563
 30
0.0
 11
-4.552700
 21
-6.073151
 31
0.0
  0
LINE
  5
2d1
100
AcDbEntity
  8
outline
 62
7
100
AcDbLine
 10
-4.552700
 20
-6.073151
 30
0.0
 11
-4.248160
 21
-6.221931
 31
0.0
  0
LINE
  5
2d2
100
AcDbEntity
  8
outline
 62
7
100
AcDbLine
 10
-4.248160
 20
-6.221931
 30
0.0
 11
-4.161509
 21
-6.549610
 31
0.0
  0
LINE
  5
2d3
100
AcDbEntity
  8
outline
 62
7
100
AcDbLine
 10
-4.161509
 20
-6.549610
 30
0.0
 11
-4.169778
 21
-6.597669
 31
0.0
  0
LINE
  5
2d4
100
AcDbEntity
  8
outline
 62
7
100
AcDbLine
 10
-4.169778
 20
-6.597669
 30
0.0
 11
-4.325840
 21
-6.853465
 31
0.0
  0
LINE
  5
2d5
100
AcDbEntity
  8
outline
 62
7
100
AcDbLine
 10
-4.325840
 20
-6.853465
 30
0.0
 11
-4.541848
 21
-7.016763
 31
0.0
  0
LINE
  5
2d6
100
AcDbEntity
  8
outline
 62
7
100
AcDbLine
 10
-4.541848
 20
-7.016763
 30
0.0
 11
-4.650885
 21
-7.098930
 31
0.0
  0
LINE
  5
2d7
100
AcDbEntity
  8
outline
 62
7
100
AcDbLine
 10
-4.650885
 20
-7.098930
 30
0.0
 11
-4.834336
 21
-7.237939
 31
0.0
  0
LINE
  5
2d8
100
AcDbEntity
  8
outline
 62
7
100
AcDbLine
 10
-4.834336
 20
-7.237939
 30
0.0
 11
-4.890664
 21
-7.292200
 31
0.0
  0
LINE
  5
2d9
100
AcDbEntity
  8
outline
 62
7
100
AcDbLine
 10
-4.890664
 20
-7.292200
 30
0.0
 11
-4.919602
 21
-7.337158
 31
0.0
  0
LINE
  5
2da
100
AcDbEntity
  8
outline
 62
7
100
AcDbLine
 10
-4.919602
 20
-7.337158
 30
0.0
 11
-4.937689
 21
-7.387283
 31
0.0
  0
LINE
  5
2db
100
AcDbEntity
  8
outline
 62
7
100
AcDbLine
 10
-4.937689
 20
-7.387283
 30
0.0
 11
-4.946992
 21
-7.464282
 31
0.0
  0
LINE
  5
2dc
100
AcDbEntity
  8
outline
 62
7
100
AcDbLine
 10
-4.946992
 20
-7.464282
 30
0.0
 11
-4.946992
 21
-7.662201
 31
0.0
  0
LINE
  5
2dd
100
AcDbEntity
  8
outline
 62
7
100
AcDbLine
 10
-4.946992
 20
-7.662201
 30
0.0
 11
-4.945431
 21
-7.698375
 31
0.0
  0
LINE
  5
2de
100
AcDbEntity
  8
outline
 62
7
100
AcDbLine
 10
-4.945431
 20
-7.698375
 30
0.0
 11
-4.928379
 21
-7.900948
 31
0.0
  0
LINE
  5
2df
100
AcDbEntity
  8
outline
 62
7
100
AcDbLine
 10
-4.928379
 20
-7.900948
 30
0.0
 11
-4.895306
 21
-8.021870
 31
0.0
  0
LINE
  5
2e0
100
AcDbEntity
  8
outline
 62
7
100
AcDbLine
 10
-4.895306
 20
-8.021870
 30
0.0
 11
-4.846730
 21
-8.086982
 31
0.0
  0
LINE
  5
2e1
100
AcDbEntity
  8
outline
 62
7
100
AcDbLine
 10
-4.846730
 20
-8.086982
 30
0.0
 11
-4.777484
 21
-8.130908
 31
0.0
  0
LINE
  5
2e2
100
AcDbEntity
  8
outline
 62
7
100
AcDbLine
 10
-4.777484
 20
-8.130908
 30
0.0
 11
-4.653977
 21
-8.155699
 31
0.0
  0
LINE
  5
2e3
100
AcDbEntity
  8
outline
 62
7
100
AcDbLine
 10
-4.653977
 20
-8.155699
 30
0.0
 11
-2.594154
 21
-8.176363
 31
0.0
  0
LINE
  5
2e4
100
AcDbEntity
  8
outline
 62
7
100
AcDbLine
 10
-2.594154
 20
-8.176363
 30
0.0
 11
-2.589503
 21
-8.176363
 31
0.0
  0
LINE
  5
2e5
100
AcDbEntity
  8
outline
 62
7
100
AcDbLine
 10
-2.589503
 20
-8.176363
 30
0.0
 11
-0.556553
 21
-8.176363
 31
0.0
  0
LINE
  5
2e6
100
AcDbEntity
  8
outline
 62
7
100
AcDbLine
 10
-0.556553
 20
-8.176363
 30
0.0
 11
-0.411859
 21
-8.142774
 31
0.0
  0
LINE
  5
2e7
100
AcDbEntity
  8
outline
 62
7
100
AcDbLine
 10
-0.411859
 20
-8.142774
 30
0.0
 11
-0.259413
 21
-8.020817
 31
0.0
  0
LINE
  5
2e8
100
AcDbEntity
  8
outline
 62
7
100
AcDbLine
 10
-0.259413
 20
-8.020817
 30
0.0
 11
-0.010195
 21
-7.931457
 31
0.0
  0
LINE
  5
2e9
100
AcDbEntity
  8
outline
 62
7
100
AcDbLine
 10
-0.010195
 20
-7.931457
 30
0.0
 11
0.241332
 21
-8.014097
 31
0.0
  0
LINE
  5
2ea
100
AcDbEntity
  8
outline
 62
7
100
AcDbLine
 10
0.241332
 20
-8.014097
 30
0.0
 11
0.388093
 21
-8.125201
 31
0.0
  0
LINE
  5
2eb
100
AcDbEntity
  8
outline
 62
7
100
AcDbLine
 10
0.388093
 20
-8.125201
 30
0.0
 11
0.525035
 21
-8.155691
 31
0.0
  0
LINE
  5
2ec
100
AcDbEntity
  8
outline
 62
7
100
AcDbLine
 10
0.525035
 20
-8.155691
 30
0.0
 11
2.572972
 21
-8.168603
 31
0.0
  0
LINE
  5
2ed
100
AcDbEntity
  8
outline
 62
7
100
AcDbLine
 10
2.572972
 20
-8.168603
 30
0.0
 11
2.577623
 21
-8.168603
 31
0.0
  0
LINE
  5
2ee
100
AcDbEntity
  8
outline
 62
7
100
AcDbLine
 10
2.577623
 20
-8.168603
 30
0.0
 11
4.608507
 21
-8.160851
 31
0.0
  0
LINE
  5
2ef
100
AcDbEntity
  8
outline
 62
7
100
AcDbLine
 10
4.608507
 20
-8.160851
 30
0.0
 11
4.736148
 21
-8.135001
 31
0.0
  0
LINE
  5
2f0
100
AcDbEntity
  8
outline
 62
7
100
AcDbLine
 10
4.736148
 20
-8.135001
 30
0.0
 11
4.806428
 21
-8.089011
 31
0.0
  0
LINE
  5
2f1
100
AcDbEntity
  8
outline
 62
7
100
AcDbLine
 10
4.806428
 20
-8.089011
 30
0.0
 11
4.855003
 21
-8.020280
 31
0.0
  0
LINE
  5
2f2
100
AcDbEntity
  8
outline
 62
7
100
AcDbLine
 10
4.855003
 20
-8.020280
 30
0.0
 11
4.884976
 21
-7.894190
 31
0.0
  0
LINE
  5
2f3
100
AcDbEntity
  8
outline
 62
7
100
AcDbLine
 10
4.884976
 20
-7.894190
 30
0.0
 11
4.892210
 21
-7.693684
 31
0.0
  0
LINE
  5
2f4
100
AcDbEntity
  8
outline
 62
7
100
AcDbLine
 10
4.892210
 20
-7.693684
 30
0.0
 11
4.892210
 21
-7.693155
 31
0.0
  0
LINE
  5
2f5
100
AcDbEntity
  8
outline
 62
7
100
AcDbLine
 10
4.892210
 20
-7.693155
 30
0.0
 11
4.900478
 21
-7.477665
 31
0.0
  0
LINE
  5
2f6
100
AcDbEntity
  8
outline
 62
7
100
AcDbLine
 10
4.900478
 20
-7.477665
 30
0.0
 11
4.893760
 21
-7.398083
 31
0.0
  0
LINE
  5
2f7
100
AcDbEntity
  8
outline
 62
7
100
AcDbLine
 10
4.893760
 20
-7.398083
 30
0.0
 11
4.876708
 21
-7.345889
 31
0.0
  0
LINE
  5
2f8
100
AcDbEntity
  8
outline
 62
7
100
AcDbLine
 10
4.876708
 20
-7.345889
 30
0.0
 11
4.847769
 21
-7.299381
 31
0.0
  0
LINE
  5
2f9
100
AcDbEntity
  8
outline
 62
7
100
AcDbLine
 10
4.847769
 20
-7.299381
 30
0.0
 11
4.790925
 21
-7.243569
 31
0.0
  0
LINE
  5
2fa
100
AcDbEntity
  8
outline
 62
7
100
AcDbLine
 10
4.790925
 20
-7.243569
 30
0.0
 11
4.503087
 21
-7.020327
 31
0.0
  0
LINE
  5
2fb
100
AcDbEntity
  8
outline
 62
7
100
AcDbLine
 10
4.503087
 20
-7.020327
 30
0.0
 11
4.274677
 21
-6.843077
 31
0.0
  0
LINE
  5
2fc
100
AcDbEntity
  8
outline
 62
7
100
AcDbLine
 10
4.274677
 20
-6.843077
 30
0.0
 11
4.122748
 21
-6.591414
 31
0.0
  0
LINE
  5
2fd
100
AcDbEntity
  8
outline
 62
7
100
AcDbLine
 10
4.122748
 20
-6.591414
 30
0.0
 11
4.116031
 21
-6.553174
 31
0.0
  0
LINE
  5
2fe
100
AcDbEntity
  8
outline
 62
7
100
AcDbLine
 10
4.116031
 20
-6.553174
 30
0.0
 11
4.200183
 21
-6.227075
 31
0.0
  0
LINE
  5
2ff
100
AcDbEntity
  8
outline
 62
7
100
AcDbLine
 10
4.200183
 20
-6.227075
 30
0.0
 11
4.501020
 21
-6.075683
 31
0.0
  0
LINE
  5
300
100
AcDbEntity
  8
outline
 62
7
100
AcDbLine
 10
4.501020
 20
-6.075683
 30
0.0
 11
4.542361
 21
-6.074095
 31
0.0
  0
LINE
  5
301
100
AcDbEntity
  8
outline
 62
7
100
AcDbLine
 10
4.542361
 20
-6.074095
 30
0.0
 11
4.914948
 21
-6.043607
 31
0.0
  0
LINE
  5
302
100
AcDbEntity
  8
outline
 62
7
100
AcDbLine
 10
4.914948
 20
-6.043607
 30
0.0
 11
4.953705
 21
-6.038448
 31
0.0
  0
LINE
  5
303
100
AcDbEntity
  8
outline
 62
7
100
AcDbLine
 10
4.953705
 20
-6.038448
 30
0.0
 11
5.300971
 21
-5.978501
 31
0.0
  0
LINE
  5
304
100
AcDbEntity
  8
outline
 62
7
100
AcDbLine
 10
5.300971
 20
-5.978501
 30
0.0
 11
5.343346
 21
-5.969188
 31
0.0
  0
LINE
  5
305
100
AcDbEntity
  8
outline
 62
7
100
AcDbLine
 10
5.343346
 20
-5.969188
 30
0.0
 11
5.658572
 21
-5.880820
 31
0.0
  0
LINE
  5
306
100
AcDbEntity
  8
outline
 62
7
100
AcDbLine
 10
5.658572
 20
-5.880820
 30
0.0
 11
5.706114
 21
-5.864812
 31
0.0
  0
LINE
  5
307
100
AcDbEntity
  8
outline
 62
7
100
AcDbLine
 10
5.706114
 20
-5.864812
 30
0.0
 11
5.988267
 21
-5.750089
 31
0.0
  0
LINE
  5
308
100
AcDbEntity
  8
outline
 62
7
100
AcDbLine
 10
5.988267
 20
-5.750089
 30
0.0
 11
6.037877
 21
-5.726329
 31
0.0
  0
LINE
  5
309
100
AcDbEntity
  8
outline
 62
7
100
AcDbLine
 10
6.037877
 20
-5.726329
 30
0.0
 11
6.291608
 21
-5.584219
 31
0.0
  0
LINE
  5
30a
100
AcDbEntity
  8
outline
 62
7
100
AcDbLine
 10
6.291608
 20
-5.584219
 30
0.0
 11
6.340701
 21
-5.552181
 31
0.0
  0
LINE
  5
30b
100
AcDbEntity
  8
outline
 62
7
100
AcDbLine
 10
6.340701
 20
-5.552181
 30
0.0
 11
6.563426
 21
-5.384231
 31
0.0
  0
LINE
  5
30c
100
AcDbEntity
  8
outline
 62
7
100
AcDbLine
 10
6.563426
 20
-5.384231
 30
0.0
 11
6.610452
 21
-5.343925
 31
0.0
  0
LINE
  5
30d
100
AcDbEntity
  8
outline
 62
7
100
AcDbLine
 10
6.610452
 20
-5.343925
 30
0.0
 11
6.804755
 21
-5.149104
 31
0.0
  0
LINE
  5
30e
100
AcDbEntity
  8
outline
 62
7
100
AcDbLine
 10
6.804755
 20
-5.149104
 30
0.0
 11
6.845580
 21
-5.102077
 31
0.0
  0
LINE
  5
30f
100
AcDbEntity
  8
outline
 62
7
100
AcDbLine
 10
6.845580
 20
-5.102077
 30
0.0
 11
7.011978
 21
-4.880385
 31
0.0
  0
LINE
  5
310
100
AcDbEntity
  8
outline
 62
7
100
AcDbLine
 10
7.011978
 20
-4.880385
 30
0.0
 11
7.044534
 21
-4.830260
 31
0.0
  0
LINE
  5
311
100
AcDbEntity
  8
outline
 62
7
100
AcDbLine
 10
7.044534
 20
-4.830260
 30
0.0
 11
7.186127
 21
-4.574461
 31
0.0
  0
LINE
  5
312
100
AcDbEntity
  8
outline
 62
7
100
AcDbLine
 10
7.186127
 20
-4.574461
 30
0.0
 11
7.201113
 21
-4.546039
 31
0.0
  0
LINE
  5
313
100
AcDbEntity
  8
outline
 62
7
100
AcDbLine
 10
7.201113
 20
-4.546039
 30
0.0
 11
7.273977
 21
-4.388427
 31
0.0
  0
LINE
  5
314
100
AcDbEntity
  8
outline
 62
7
100
AcDbLine
 10
7.273977
 20
-4.388427
 30
0.0
 11
7.301365
 21
-4.297992
 31
0.0
  0
LINE
  5
315
100
AcDbEntity
  8
outline
 62
7
100
AcDbLine
 10
7.301365
 20
-4.297992
 30
0.0
 11
7.302397
 21
-4.174485
 31
0.0
  0
LINE
  5
316
100
AcDbEntity
  8
outline
 62
7
100
AcDbLine
 10
7.302397
 20
-4.174485
 30
0.0
 11
7.304461
 21
-4.136244
 31
0.0
  0
LINE
  5
317
100
AcDbEntity
  8
outline
 62
7
100
AcDbLine
 10
7.304461
 20
-4.136244
 30
0.0
 11
7.326165
 21
-3.926956
 31
0.0
  0
LINE
  5
318
100
AcDbEntity
  8
outline
 62
7
100
AcDbLine
 10
7.326165
 20
-3.926956
 30
0.0
 11
7.166485
 21
-2.266593
 31
0.0
  0
LINE
  5
319
100
AcDbEntity
  8
outline
 62
7
100
AcDbLine
 10
7.166485
 20
-2.266593
 30
0.0
 11
7.164924
 21
-2.227834
 31
0.0
  0
LINE
  5
31a
100
AcDbEntity
  8
outline
 62
7
100
AcDbLine
 10
7.164924
 20
-2.227834
 30
0.0
 11
7.164924
 21
-2.246963
 31
0.0
  0
LINE
  5
31b
100
AcDbEntity
  8
outline
 62
7
100
AcDbLine
 10
7.164924
 20
-2.246963
 30
0.0
 11
7.003693
 21
-0.589701
 31
0.0
  0
LINE
  5
31c
100
AcDbEntity
  8
outline
 62
7
100
AcDbLine
 10
7.003693
 20
-0.589701
 30
0.0
 11
6.964936
 21
-0.436221
 31
0.0
  0
LINE
  5
31d
100
AcDbEntity
  8
outline
 62
7
100
AcDbLine
 10
6.964936
 20
-0.436221
 30
0.0
 11
7.011651
 21
-0.126243
 31
0.0
  0
LINE
  5
31e
100
AcDbEntity
  8
outline
 62
7
100
AcDbLine
 10
7.011651
 20
-0.126243
 30
0.0
 11
7.264659
 21
0.058841
 31
0.0
  0
LINE
  5
31f
100
AcDbEntity
  8
outline
 62
7
100
AcDbLine
 10
7.264659
 20
0.058841
 30
0.0
 11
7.432608
 21
0.099663
 31
0.0
  0
LINE
  5
320
100
AcDbEntity
  8
outline
 62
7
100
AcDbLine
 10
7.432608
 20
0.099663
 30
0.0
 11
7.501337
 21
0.149791
 31
0.0
  0
LINE
  5
321
100
AcDbEntity
  8
outline
 62
7
100
AcDbLine
 10
7.501337
 20
0.149791
 30
0.0
 11
7.547330
 21
0.222136
 31
0.0
  0
LINE
  5
322
100
AcDbEntity
  8
outline
 62
7
100
AcDbLine
 10
7.547330
 20
0.222136
 30
0.0
 11
7.570068
 21
0.351846
 31
0.0
  0
LINE
  5
323
100
AcDbEntity
  8
outline
 62
7
100
AcDbLine
 10
7.570068
 20
0.351846
 30
0.0
 11
7.556116
 21
0.866026
 31
0.0
  0
LINE
  5
324
100
AcDbEntity
  8
outline
 62
7
100
AcDbLine
 10
7.556116
 20
0.866026
 30
0.0
 11
7.555587
 21
0.876874
 31
0.0
  0
LINE
  5
325
100
AcDbEntity
  8
outline
 62
7
100
AcDbLine
 10
7.555587
 20
0.876874
 30
0.0
 11
7.531817
 21
1.351264
 31
0.0
  0
LINE
  5
326
100
AcDbEntity
  8
outline
 62
7
100
AcDbLine
 10
7.531817
 20
1.351264
 30
0.0
 11
7.522514
 21
1.420511
 31
0.0
  0
LINE
  5
327
100
AcDbEntity
  8
outline
 62
7
100
AcDbLine
 10
7.522514
 20
1.420511
 30
0.0
 11
7.469804
 21
1.667523
 31
0.0
  0
LINE
  5
328
100
AcDbEntity
  8
outline
 62
7
100
AcDbLine
 10
7.469804
 20
1.667523
 30
0.0
 11
7.443965
 21
1.748658
 31
0.0
  0
LINE
  5
329
100
AcDbEntity
  8
outline
 62
7
100
AcDbLine
 10
7.443965
 20
1.748658
 30
0.0
 11
7.235192
 21
2.235965
 31
0.0
  0
LINE
  5
32a
100
AcDbEntity
  8
outline
 62
7
100
AcDbLine
 10
7.235192
 20
2.235965
 30
0.0
 11
7.196435
 21
2.307796
 31
0.0
  0
LINE
  5
32b
100
AcDbEntity
  8
outline
 62
7
100
AcDbLine
 10
7.196435
 20
2.307796
 30
0.0
 11
6.911181
 21
2.734125
 31
0.0
  0
LINE
  5
32c
100
AcDbEntity
  8
outline
 62
7
100
AcDbLine
 10
6.911181
 20
2.734125
 30
0.0
 11
6.857437
 21
2.799755
 31
0.0
  0
LINE
  5
32d
100
AcDbEntity
  8
outline
 62
7
100
AcDbLine
 10
6.857437
 20
2.799755
 30
0.0
 11
6.513273
 21
3.144954
 31
0.0
  0
LINE
  5
32e
100
AcDbEntity
  8
outline
 62
7
100
AcDbLine
 10
6.513273
 20
3.144954
 30
0.0
 11
6.438858
 21
3.205414
 31
0.0
  0
LINE
  5
32f
100
AcDbEntity
  8
outline
 62
7
100
AcDbLine
 10
6.438858
 20
3.205414
 30
0.0
 11
6.047151
 21
3.456046
 31
0.0
  0
LINE
  5
330
100
AcDbEntity
  8
outline
 62
7
100
AcDbLine
 10
6.047151
 20
3.456046
 30
0.0
 11
5.982555
 21
3.489635
 31
0.0
  0
LINE
  5
331
100
AcDbEntity
  8
outline
 62
7
100
AcDbLine
 10
5.982555
 20
3.489635
 30
0.0
 11
5.732442
 21
3.595571
 31
0.0
  0
LINE
  5
332
100
AcDbEntity
  8
outline
 62
7
100
AcDbLine
 10
5.732442
 20
3.595571
 30
0.0
 11
5.676114
 21
3.615732
 31
0.0
  0
LINE
  5
333
100
AcDbEntity
  8
outline
 62
7
100
AcDbLine
 10
5.676114
 20
3.615732
 30
0.0
 11
5.438919
 21
3.680328
 31
0.0
  0
LINE
  5
334
100
AcDbEntity
  8
outline
 62
7
100
AcDbLine
 10
5.438919
 20
3.680328
 30
0.0
 11
5.375357
 21
3.692207
 31
0.0
  0
LINE
  5
335
100
AcDbEntity
  8
outline
 62
7
100
AcDbLine
 10
5.375357
 20
3.692207
 30
0.0
 11
5.094754
 21
3.725796
 31
0.0
  0
LINE
  5
336
100
AcDbEntity
  8
outline
 62
7
100
AcDbLine
 10
5.094754
 20
3.725796
 30
0.0
 11
5.053413
 21
3.728892
 31
0.0
  0
LINE
  5
337
100
AcDbEntity
  8
outline
 62
7
100
AcDbLine
 10
5.053413
 20
3.728892
 30
0.0
 11
4.675658
 21
3.738708
 31
0.0
  0
LINE
  5
338
100
AcDbEntity
  8
outline
 62
7
100
AcDbLine
 10
4.675658
 20
3.738708
 30
0.0
 11
4.664289
 21
3.738708
 31
0.0
  0
LINE
  5
339
100
AcDbEntity
  8
outline
 62
7
100
AcDbLine
 10
4.664289
 20
3.738708
 30
0.0
 11
4.388337
 21
3.738708
 31
0.0
  0
LINE
  5
33a
100
AcDbEntity
  8
outline
 62
7
100
AcDbLine
 10
4.388337
 20
3.738708
 30
0.0
 11
4.029186
 21
3.953682
 31
0.0
  0
LINE
  5
33b
100
AcDbEntity
  8
outline
 62
7
100
AcDbLine
 10
4.029186
 20
3.953682
 30
0.0
 11
4.002314
 21
4.003807
 31
0.0
  0
LINE
  5
33c
100
AcDbEntity
  8
outline
 62
7
100
AcDbLine
 10
4.002314
 20
4.003807
 30
0.0
 11
3.969241
 21
4.055483
 31
0.0
  0
LINE
  5
33d
100
AcDbEntity
  8
outline
 62
7
100
AcDbLine
 10
3.969241
 20
4.055483
 30
0.0
 11
3.790441
 21
4.296812
 31
0.0
  0
LINE
  5
33e
100
AcDbEntity
  8
outline
 62
7
100
AcDbLine
 10
3.790441
 20
4.296812
 30
0.0
 11
3.678303
 21
4.402233
 31
0.0
  0
LINE
  5
33f
100
AcDbEntity
  8
outline
 62
7
100
AcDbLine
 10
3.678303
 20
4.402233
 30
0.0
 11
3.644197
 21
4.424458
 31
0.0
  0
LINE
  5
340
100
AcDbEntity
  8
outline
 62
7
100
AcDbLine
 10
3.644197
 20
4.424458
 30
0.0
 11
3.459712
 21
4.750536
 31
0.0
  0
LINE
  5
341
100
AcDbEntity
  8
outline
 62
7
100
AcDbLine
 10
3.459712
 20
4.750536
 30
0.0
 11
3.459712
 21
4.754663
 31
0.0
  0
LINE
  5
342
100
AcDbEntity
  8
outline
 62
7
100
AcDbLine
 10
3.459712
 20
4.754663
 30
0.0
 11
3.439040
 21
4.997543
 31
0.0
  0
LINE
  5
343
100
AcDbEntity
  8
outline
 62
7
100
AcDbLine
 10
3.439040
 20
4.997543
 30
0.0
 11
3.435939
 21
5.025448
 31
0.0
  0
LINE
  5
344
100
AcDbEntity
  8
outline
 62
7
100
AcDbLine
 10
3.435939
 20
5.025448
 30
0.0
 11
3.376511
 21
5.424390
 31
0.0
  0
LINE
  5
345
100
AcDbEntity
  8
outline
 62
7
100
AcDbLine
 10
3.376511
 20
5.424390
 30
0.0
 11
3.364626
 21
5.479685
 31
0.0
  0
LINE
  5
346
100
AcDbEntity
  8
outline
 62
7
100
AcDbLine
 10
3.364626
 20
5.479685
 30
0.0
 11
3.260240
 21
5.847620
 31
0.0
  0
LINE
  5
347
100
AcDbEntity
  8
outline
 62
7
100
AcDbLine
 10
3.260240
 20
5.847620
 30
0.0
 11
3.241637
 21
5.900846
 31
0.0
  0
LINE
  5
348
100
AcDbEntity
  8
outline
 62
7
100
AcDbLine
 10
3.241637
 20
5.900846
 30
0.0
 11
3.094876
 21
6.245013
 31
0.0
  0
LINE
  5
349
100
AcDbEntity
  8
outline
 62
7
100
AcDbLine
 10
3.094876
 20
6.245013
 30
0.0
 11
3.070071
 21
6.293588
 31
0.0
  0
LINE
  5
34a
100
AcDbEntity
  8
outline
 62
7
100
AcDbLine
 10
3.070071
 20
6.293588
 30
0.0
 11
2.884553
 21
6.611398
 31
0.0
  0
LINE
  5
34b
100
AcDbEntity
  8
outline
 62
7
100
AcDbLine
 10
2.884553
 20
6.611398
 30
0.0
 11
2.854064
 21
6.656356
 31
0.0
  0
LINE
  5
34c
100
AcDbEntity
  8
outline
 62
7
100
AcDbLine
 10
2.854064
 20
6.656356
 30
0.0
 11
2.632889
 21
6.945744
 31
0.0
  0
LINE
  5
34d
100
AcDbEntity
  8
outline
 62
7
100
AcDbLine
 10
2.632889
 20
6.945744
 30
0.0
 11
2.598265
 21
6.985534
 31
0.0
  0
LINE
  5
34e
100
AcDbEntity
  8
outline
 62
7
100
AcDbLine
 10
2.598265
 20
6.985534
 30
0.0
 11
2.345051
 21
7.245469
 31
0.0
  0
LINE
  5
34f
100
AcDbEntity
  8
outline
 62
7
100
AcDbLine
 10
2.345051
 20
7.245469
 30
0.0
 11
2.306810
 21
7.280608
 31
0.0
  0
LINE
  5
350
100
AcDbEntity
  8
outline
 62
7
100
AcDbLine
 10
2.306810
 20
7.280608
 30
0.0
 11
2.026207
 21
7.506433
 31
0.0
  0
LINE
  5
351
100
AcDbEntity
  8
outline
 62
7
100
AcDbLine
 10
2.026207
 20
7.506433
 30
0.0
 11
1.983833
 21
7.536408
 31
0.0
  0
LINE
  5
352
100
AcDbEntity
  8
outline
 62
7
100
AcDbLine
 10
1.983833
 20
7.536408
 30
0.0
 11
1.679458
 21
7.728125
 31
0.0
  0
LINE
  5
353
100
AcDbEntity
  8
outline
 62
7
100
AcDbLine
 10
1.679458
 20
7.728125
 30
0.0
 11
1.634500
 21
7.752916
 31
0.0
  0
LINE
  5
354
100
AcDbEntity
  8
outline
 62
7
100
AcDbLine
 10
1.634500
 20
7.752916
 30
0.0
 11
1.308422
 21
7.907946
 31
0.0
  0
LINE
  5
355
100
AcDbEntity
  8
outline
 62
7
100
AcDbLine
 10
1.308422
 20
7.907946
 30
0.0
 11
1.261396
 21
7.927578
 31
0.0
  0
LINE
  5
356
100
AcDbEntity
  8
outline
 62
7
100
AcDbLine
 10
1.261396
 20
7.927578
 30
0.0
 11
0.919298
 21
8.043333
 31
0.0
  0
LINE
  5
357
100
AcDbEntity
  8
outline
 62
7
100
AcDbLine
 10
0.919298
 20
8.043333
 30
0.0
 11
0.868655
 21
8.057277
 31
0.0
  0
LINE
  5
358
100
AcDbEntity
  8
outline
 62
7
100
AcDbLine
 10
0.868655
 20
8.057277
 30
0.0
 11
0.512630
 21
8.132837
 31
0.0
  0
LINE
  5
359
100
AcDbEntity
  8
outline
 62
7
100
AcDbLine
 10
0.512630
 20
8.132837
 30
0.0
 11
0.460437
 21
8.141092
 31
0.0
  0
LINE
  5
35a
100
AcDbEntity
  8
outline
 62
7
100
AcDbLine
 10
0.460437
 20
8.141092
 30
0.0
 11
0.095085
 21
8.173649
 31
0.0
  0
LINE
  5
35b
100
AcDbEntity
  8
outline
 62
7
100
AcDbLine
 10
0.095085
 20
8.173649
 30
0.0
 11
0.048576
 21
8.175236
 31
0.0
  0
LINE
  5
35c
100
AcDbEntity
  8
outline
 62
7
100
AcDbLine
 10
6.138984
 20
1.280152
 30
0.0
 11
6.138984
 21
1.093518
 31
0.0
  0
LINE
  5
35d
100
AcDbEntity
  8
outline
 62
7
100
AcDbLine
 10
6.138984
 20
1.093518
 30
0.0
 11
5.434629
 21
1.093518
 31
0.0
  0
LINE
  5
35e
100
AcDbEntity
  8
outline
 62
7
100
AcDbLine
 10
5.434629
 20
1.093518
 30
0.0
 11
5.503277
 21
1.293738
 31
0.0
  0
LINE
  5
35f
100
AcDbEntity
  8
outline
 62
7
100
AcDbLine
 10
5.503277
 20
1.293738
 30
0.0
 11
5.729243
 21
1.545447
 31
0.0
  0
LINE
  5
360
100
AcDbEntity
  8
outline
 62
7
100
AcDbLine
 10
5.729243
 20
1.545447
 30
0.0
 11
5.895856
 21
1.717066
 31
0.0
  0
LINE
  5
361
100
AcDbEntity
  8
outline
 62
7
100
AcDbLine
 10
5.895856
 20
1.717066
 30
0.0
 11
5.937331
 21
1.840058
 31
0.0
  0
LINE
  5
362
100
AcDbEntity
  8
outline
 62
7
100
AcDbLine
 10
5.937331
 20
1.840058
 30
0.0
 11
5.900862
 21
1.943031
 31
0.0
  0
LINE
  5
363
100
AcDbEntity
  8
outline
 62
7
100
AcDbLine
 10
5.900862
 20
1.943031
 30
0.0
 11
5.801466
 21
1.979501
 31
0.0
  0
LINE
  5
364
100
AcDbEntity
  8
outline
 62
7
100
AcDbLine
 10
5.801466
 20
1.979501
 30
0.0
 11
5.701354
 21
1.941602
 31
0.0
  0
LINE
  5
365
100
AcDbEntity
  8
outline
 62
7
100
AcDbLine
 10
5.701354
 20
1.941602
 30
0.0
 11
5.658450
 21
1.815745
 31
0.0
  0
LINE
  5
366
100
AcDbEntity
  8
outline
 62
7
100
AcDbLine
 10
5.658450
 20
1.815745
 30
0.0
 11
5.458227
 21
1.835774
 31
0.0
  0
LINE
  5
367
100
AcDbEntity
  8
outline
 62
7
100
AcDbLine
 10
5.458227
 20
1.835774
 30
0.0
 11
5.495233
 21
1.978256
 31
0.0
  0
LINE
  5
368
100
AcDbEntity
  8
outline
 62
7
100
AcDbLine
 10
5.495233
 20
1.978256
 30
0.0
 11
5.570495
 21
2.073897
 31
0.0
  0
LINE
  5
369
100
AcDbEntity
  8
outline
 62
7
100
AcDbLine
 10
5.570495
 20
2.073897
 30
0.0
 11
5.676684
 21
2.128064
 31
0.0
  0
LINE
  5
36a
100
AcDbEntity
  8
outline
 62
7
100
AcDbLine
 10
5.676684
 20
2.128064
 30
0.0
 11
5.806471
 21
2.146120
 31
0.0
  0
LINE
  5
36b
100
AcDbEntity
  8
outline
 62
7
100
AcDbLine
 10
5.806471
 20
2.146120
 30
0.0
 11
5.945018
 21
2.125204
 31
0.0
  0
LINE
  5
36c
100
AcDbEntity
  8
outline
 62
7
100
AcDbLine
 10
5.945018
 20
2.125204
 30
0.0
 11
6.050314
 21
2.062456
 31
0.0
  0
LINE
  5
36d
100
AcDbEntity
  8
outline
 62
7
100
AcDbLine
 10
6.050314
 20
2.062456
 30
0.0
 11
6.116816
 21
1.968602
 31
0.0
  0
LINE
  5
36e
100
AcDbEntity
  8
outline
 62
7
100
AcDbLine
 10
6.116816
 20
1.968602
 30
0.0
 11
6.138984
 21
1.854367
 31
0.0
  0
LINE
  5
36f
100
AcDbEntity
  8
outline
 62
7
100
AcDbLine
 10
6.138984
 20
1.854367
 30
0.0
 11
6.113242
 21
1.719218
 31
0.0
  0
LINE
  5
370
100
AcDbEntity
  8
outline
 62
7
100
AcDbLine
 10
6.113242
 20
1.719218
 30
0.0
 11
6.033154
 21
1.585497
 31
0.0
  0
LINE
  5
371
100
AcDbEntity
  8
outline
 62
7
100
AcDbLine
 10
6.033154
 20
1.585497
 30
0.0
 11
5.901579
 21
1.451777
 31
0.0
  0
LINE
  5
372
100
AcDbEntity
  8
outline
 62
7
100
AcDbLine
 10
5.901579
 20
1.451777
 30
0.0
 11
5.780730
 21
1.335934
 31
0.0
  0
LINE
  5
373
100
AcDbEntity
  8
outline
 62
7
100
AcDbLine
 10
5.780730
 20
1.335934
 30
0.0
 11
5.739970
 21
1.280160
 31
0.0
  0
LINE
  5
374
100
AcDbEntity
  8
outline
 62
7
100
AcDbLine
 10
5.739970
 20
1.280160
 30
0.0
 11
6.138984
 21
1.280152
 31
0.0
  0
LINE
  5
375
100
AcDbEntity
  8
outline
 62
7
100
AcDbLine
 10
5.784199
 20
0.803516
 30
0.0
 11
5.919886
 21
0.776343
 31
0.0
  0
LINE
  5
376
100
AcDbEntity
  8
outline
 62
7
100
AcDbLine
 10
5.919886
 20
0.776343
 30
0.0
 11
6.022321
 21
0.694825
 31
0.0
  0
LINE
  5
377
100
AcDbEntity
  8
outline
 62
7
100
AcDbLine
 10
6.022321
 20
0.694825
 30
0.0
 11
6.099014
 21
0.523742
 31
0.0
  0
LINE
  5
378
100
AcDbEntity
  8
outline
 62
7
100
AcDbLine
 10
6.099014
 20
0.523742
 30
0.0
 11
6.124578
 21
0.267923
 31
0.0
  0
LINE
  5
379
100
AcDbEntity
  8
outline
 62
7
100
AcDbLine
 10
6.124578
 20
0.267923
 30
0.0
 11
6.098835
 21
0.012282
 31
0.0
  0
LINE
  5
37a
100
AcDbEntity
  8
outline
 62
7
100
AcDbLine
 10
6.098835
 20
0.012282
 30
0.0
 11
6.021606
 21
-0.159694
 31
0.0
  0
LINE
  5
37b
100
AcDbEntity
  8
outline
 62
7
100
AcDbLine
 10
6.021606
 20
-0.159694
 30
0.0
 11
5.919707
 21
-0.240141
 31
0.0
  0
LINE
  5
37c
100
AcDbEntity
  8
outline
 62
7
100
AcDbLine
 10
5.919707
 20
-0.240141
 30
0.0
 11
5.784199
 21
-0.266956
 31
0.0
  0
LINE
  5
37d
100
AcDbEntity
  8
outline
 62
7
100
AcDbLine
 10
5.784199
 20
-0.266956
 30
0.0
 11
5.646010
 21
-0.237638
 31
0.0
  0
LINE
  5
37e
100
AcDbEntity
  8
outline
 62
7
100
AcDbLine
 10
5.646010
 20
-0.237638
 30
0.0
 11
5.537497
 21
-0.149682
 31
0.0
  0
LINE
  5
37f
100
AcDbEntity
  8
outline
 62
7
100
AcDbLine
 10
5.537497
 20
-0.149682
 30
0.0
 11
5.467240
 21
0.014248
 31
0.0
  0
LINE
  5
380
100
AcDbEntity
  8
outline
 62
7
100
AcDbLine
 10
5.467240
 20
0.014248
 30
0.0
 11
5.443821
 21
0.270068
 31
0.0
  0
LINE
  5
381
100
AcDbEntity
  8
outline
 62
7
100
AcDbLine
 10
5.443821
 20
0.270068
 30
0.0
 11
5.469564
 21
0.524637
 31
0.0
  0
LINE
  5
382
100
AcDbEntity
  8
outline
 62
7
100
AcDbLine
 10
5.469564
 20
0.524637
 30
0.0
 11
5.546793
 21
0.696257
 31
0.0
  0
LINE
  5
383
100
AcDbEntity
  8
outline
 62
7
100
AcDbLine
 10
5.546793
 20
0.696257
 30
0.0
 11
5.648692
 21
0.776701
 31
0.0
  0
LINE
  5
384
100
AcDbEntity
  8
outline
 62
7
100
AcDbLine
 10
5.648692
 20
0.776701
 30
0.0
 11
5.784199
 21
0.803516
 31
0.0
  0
LINE
  5
385
100
AcDbEntity
  8
outline
 62
7
100
AcDbLine
 10
5.784199
 20
0.803516
 30
0.0
 11
5.784199
 21
0.803516
 31
0.0
  0
LINE
  5
386
100
AcDbEntity
  8
outline
 62
7
100
AcDbLine
 10
5.784199
 20
0.636905
 30
0.0
 11
5.719127
 21
0.613304
 31
0.0
  0
LINE
  5
387
100
AcDbEntity
  8
outline
 62
7
100
AcDbLine
 10
5.719127
 20
0.613304
 30
0.0
 11
5.674792
 21
0.530352
 31
0.0
  0
LINE
  5
388
100
AcDbEntity
  8
outline
 62
7
100
AcDbLine
 10
5.674792
 20
0.530352
 30
0.0
 11
5.654055
 21
0.267920
 31
0.0
  0
LINE
  5
389
100
AcDbEntity
  8
outline
 62
7
100
AcDbLine
 10
5.654055
 20
0.267920
 30
0.0
 11
5.672647
 21
0.014063
 31
0.0
  0
LINE
  5
38a
100
AcDbEntity
  8
outline
 62
7
100
AcDbLine
 10
5.672647
 20
0.014063
 30
0.0
 11
5.719127
 21
-0.077464
 31
0.0
  0
LINE
  5
38b
100
AcDbEntity
  8
outline
 62
7
100
AcDbLine
 10
5.719127
 20
-0.077464
 30
0.0
 11
5.784199
 21
-0.100324
 31
0.0
  0
LINE
  5
38c
100
AcDbEntity
  8
outline
 62
7
100
AcDbLine
 10
5.784199
 20
-0.100324
 30
0.0
 11
5.849272
 21
-0.077464
 31
0.0
  0
LINE
  5
38d
100
AcDbEntity
  8
outline
 62
7
100
AcDbLine
 10
5.849272
 20
-0.077464
 30
0.0
 11
5.893607
 21
0.006199
 31
0.0
  0
LINE
  5
38e
100
AcDbEntity
  8
outline
 62
7
100
AcDbLine
 10
5.893607
 20
0.006199
 30
0.0
 11
5.914344
 21
0.267920
 31
0.0
  0
LINE
  5
38f
100
AcDbEntity
  8
outline
 62
7
100
AcDbLine
 10
5.914344
 20
0.267920
 30
0.0
 11
5.895752
 21
0.521057
 31
0.0
  0
LINE
  5
390
100
AcDbEntity
  8
outline
 62
7
100
AcDbLine
 10
5.895752
 20
0.521057
 30
0.0
 11
5.848557
 21
0.613304
 31
0.0
  0
LINE
  5
391
100
AcDbEntity
  8
outline
 62
7
100
AcDbLine
 10
5.848557
 20
0.613304
 30
0.0
 11
5.784199
 21
0.636905
 31
0.0
  0
LINE
  5
392
100
AcDbEntity
  8
outline
 62
7
100
AcDbLine
 10
5.784199
 20
0.636905
 30
0.0
 11
5.784199
 21
0.636905
 31
0.0
  0
LINE
  5
393
100
AcDbEntity
  8
outline
 62
7
100
AcDbLine
 10
6.014455
 20
-1.609556
 30
0.0
 11
5.813518
 21
-1.609556
 31
0.0
  0
LINE
  5
394
100
AcDbEntity
  8
outline
 62
7
100
AcDbLine
 10
5.813518
 20
-1.609556
 30
0.0
 11
5.813518
 21
-0.852286
 31
0.0
  0
LINE
  5
395
100
AcDbEntity
  8
outline
 62
7
100
AcDbLine
 10
5.813518
 20
-0.852286
 30
0.0
 11
5.553944
 21
-1.004599
 31
0.0
  0
LINE
  5
396
100
AcDbEntity
  8
outline
 62
7
100
AcDbLine
 10
5.553944
 20
-1.004599
 30
0.0
 11
5.553944
 21
-0.822254
 31
0.0
  0
LINE
  5
397
100
AcDbEntity
  8
outline
 62
7
100
AcDbLine
 10
5.553944
 20
-0.822254
 30
0.0
 11
5.724848
 21
-0.725001
 31
0.0
  0
LINE
  5
398
100
AcDbEntity
  8
outline
 62
7
100
AcDbLine
 10
5.724848
 20
-0.725001
 30
0.0
 11
5.851417
 21
-0.556961
 31
0.0
  0
LINE
  5
399
100
AcDbEntity
  8
outline
 62
7
100
AcDbLine
 10
5.851417
 20
-0.556961
 30
0.0
 11
6.014455
 21
-0.556961
 31
0.0
  0
LINE
  5
39a
100
AcDbEntity
  8
outline
 62
7
100
AcDbLine
 10
6.014455
 20
-0.556961
 30
0.0
 11
6.014455
 21
-1.609556
 31
0.0
  0
LINE
  5
39b
100
AcDbEntity
  8
outline
 62
7
100
AcDbLine
 10
5.454190
 20
-2.709386
 30
0.0
 11
5.648692
 21
-2.687928
 31
0.0
  0
LINE
  5
39c
100
AcDbEntity
  8
outline
 62
7
100
AcDbLine
 10
5.648692
 20
-2.687928
 30
0.0
 11
5.685876
 21
-2.775884
 31
0.0
  0
LINE
  5
39d
100
AcDbEntity
  8
outline
 62
7
100
AcDbLine
 10
5.685876
 20
-2.775884
 30
0.0
 11
5.765250
 21
-2.804493
 31
0.0
  0
LINE
  5
39e
100
AcDbEntity
  8
outline
 62
7
100
AcDbLine
 10
5.765250
 20
-2.804493
 30
0.0
 11
5.871082
 21
-2.747288
 31
0.0
  0
LINE
  5
39f
100
AcDbEntity
  8
outline
 62
7
100
AcDbLine
 10
5.871082
 20
-2.747288
 30
0.0
 11
5.926858
 21
-2.509880
 31
0.0
  0
LINE
  5
3a0
100
AcDbEntity
  8
outline
 62
7
100
AcDbLine
 10
5.926858
 20
-2.509880
 30
0.0
 11
5.841585
 21
-2.575846
 31
0.0
  0
LINE
  5
3a1
100
AcDbEntity
  8
outline
 62
7
100
AcDbLine
 10
5.841585
 20
-2.575846
 30
0.0
 11
5.737362
 21
-2.597835
 31
0.0
  0
LINE
  5
3a2
100
AcDbEntity
  8
outline
 62
7
100
AcDbLine
 10
5.737362
 20
-2.597835
 30
0.0
 11
5.622055
 21
-2.574058
 31
0.0
  0
LINE
  5
3a3
100
AcDbEntity
  8
outline
 62
7
100
AcDbLine
 10
5.622055
 20
-2.574058
 30
0.0
 11
5.523553
 21
-2.502728
 31
0.0
  0
LINE
  5
3a4
100
AcDbEntity
  8
outline
 62
7
100
AcDbLine
 10
5.523553
 20
-2.502728
 30
0.0
 11
5.456514
 21
-2.392607
 31
0.0
  0
LINE
  5
3a5
100
AcDbEntity
  8
outline
 62
7
100
AcDbLine
 10
5.456514
 20
-2.392607
 30
0.0
 11
5.434167
 21
-2.253882
 31
0.0
  0
LINE
  5
3a6
100
AcDbEntity
  8
outline
 62
7
100
AcDbLine
 10
5.434167
 20
-2.253882
 30
0.0
 11
5.457765
 21
-2.109970
 31
0.0
  0
LINE
  5
3a7
100
AcDbEntity
  8
outline
 62
7
100
AcDbLine
 10
5.457765
 20
-2.109970
 30
0.0
 11
5.528558
 21
-1.997165
 31
0.0
  0
LINE
  5
3a8
100
AcDbEntity
  8
outline
 62
7
100
AcDbLine
 10
5.528558
 20
-1.997165
 30
0.0
 11
5.636535
 21
-1.923693
 31
0.0
  0
LINE
  5
3a9
100
AcDbEntity
  8
outline
 62
7
100
AcDbLine
 10
5.636535
 20
-1.923693
 30
0.0
 11
5.770255
 21
-1.899203
 31
0.0
  0
LINE
  5
3aa
100
AcDbEntity
  8
outline
 62
7
100
AcDbLine
 10
5.770255
 20
-1.899203
 30
0.0
 11
5.915417
 21
-1.930130
 31
0.0
  0
LINE
  5
3ab
100
AcDbEntity
  8
outline
 62
7
100
AcDbLine
 10
5.915417
 20
-1.930130
 30
0.0
 11
6.031975
 21
-2.022911
 31
0.0
  0
LINE
  5
3ac
100
AcDbEntity
  8
outline
 62
7
100
AcDbLine
 10
6.031975
 20
-2.022911
 30
0.0
 11
6.108667
 21
-2.185770
 31
0.0
  0
LINE
  5
3ad
100
AcDbEntity
  8
outline
 62
7
100
AcDbLine
 10
6.108667
 20
-2.185770
 30
0.0
 11
6.134231
 21
-2.428361
 31
0.0
  0
LINE
  5
3ae
100
AcDbEntity
  8
outline
 62
7
100
AcDbLine
 10
6.134231
 20
-2.428361
 30
0.0
 11
6.107595
 21
-2.675779
 31
0.0
  0
LINE
  5
3af
100
AcDbEntity
  8
outline
 62
7
100
AcDbLine
 10
6.107595
 20
-2.675779
 30
0.0
 11
6.027684
 21
-2.843106
 31
0.0
  0
LINE
  5
3b0
100
AcDbEntity
  8
outline
 62
7
100
AcDbLine
 10
6.027684
 20
-2.843106
 30
0.0
 11
5.905048
 21
-2.938571
 31
0.0
  0
LINE
  5
3b1
100
AcDbEntity
  8
outline
 62
7
100
AcDbLine
 10
5.905048
 20
-2.938571
 30
0.0
 11
5.750233
 21
-2.970392
 31
0.0
  0
LINE
  5
3b2
100
AcDbEntity
  8
outline
 62
7
100
AcDbLine
 10
5.750233
 20
-2.970392
 30
0.0
 11
5.551441
 21
-2.905321
 31
0.0
  0
LINE
  5
3b3
100
AcDbEntity
  8
outline
 62
7
100
AcDbLine
 10
5.551441
 20
-2.905321
 30
0.0
 11
5.454190
 21
-2.709386
 31
0.0
  0
LINE
  5
3b4
100
AcDbEntity
  8
outline
 62
7
100
AcDbLine
 10
5.454190
 20
-2.709386
 30
0.0
 11
5.454190
 21
-2.709386
 31
0.0
  0
LINE
  5
3b5
100
AcDbEntity
  8
outline
 62
7
100
AcDbLine
 10
5.908981
 20
-2.270328
 30
0.0
 11
5.863931
 21
-2.119445
 31
0.0
  0
LINE
  5
3b6
100
AcDbEntity
  8
outline
 62
7
100
AcDbLine
 10
5.863931
 20
-2.119445
 30
0.0
 11
5.760959
 21
-2.065813
 31
0.0
  0
LINE
  5
3b7
100
AcDbEntity
  8
outline
 62
7
100
AcDbLine
 10
5.760959
 20
-2.065813
 30
0.0
 11
5.667999
 21
-2.110150
 31
0.0
  0
LINE
  5
3b8
100
AcDbEntity
  8
outline
 62
7
100
AcDbLine
 10
5.667999
 20
-2.110150
 30
0.0
 11
5.631530
 21
-2.253882
 31
0.0
  0
LINE
  5
3b9
100
AcDbEntity
  8
outline
 62
7
100
AcDbLine
 10
5.631530
 20
-2.253882
 30
0.0
 11
5.671574
 21
-2.403332
 31
0.0
  0
LINE
  5
3ba
100
AcDbEntity
  8
outline
 62
7
100
AcDbLine
 10
5.671574
 20
-2.403332
 30
0.0
 11
5.771686
 21
-2.450528
 31
0.0
  0
LINE
  5
3bb
100
AcDbEntity
  8
outline
 62
7
100
AcDbLine
 10
5.771686
 20
-2.450528
 30
0.0
 11
5.868937
 21
-2.404763
 31
0.0
  0
LINE
  5
3bc
100
AcDbEntity
  8
outline
 62
7
100
AcDbLine
 10
5.868937
 20
-2.404763
 30
0.0
 11
5.908981
 21
-2.270328
 31
0.0
  0
LINE
  5
3bd
100
AcDbEntity
  8
outline
 62
7
100
AcDbLine
 10
5.908981
 20
-2.270328
 30
0.0
 11
5.908981
 21
-2.270328
 31
0.0
  0
LINE
  5
3be
100
AcDbEntity
  8
outline
 62
7
100
AcDbLine
 10
-6.148161
 20
1.097814
 30
0.0
 11
-6.148161
 21
2.146120
 31
0.0
  0
LINE
  5
3bf
100
AcDbEntity
  8
outline
 62
7
100
AcDbLine
 10
-6.148161
 20
2.146120
 30
0.0
 11
-5.969931
 21
2.146120
 31
0.0
  0
LINE
  5
3c0
100
AcDbEntity
  8
outline
 62
7
100
AcDbLine
 10
-5.969931
 20
2.146120
 30
0.0
 11
-5.598616
 21
1.446056
 31
0.0
  0
LINE
  5
3c1
100
AcDbEntity
  8
outline
 62
7
100
AcDbLine
 10
-5.598616
 20
1.446056
 30
0.0
 11
-5.598616
 21
2.146120
 31
0.0
  0
LINE
  5
3c2
100
AcDbEntity
  8
outline
 62
7
100
AcDbLine
 10
-5.598616
 20
2.146120
 30
0.0
 11
-5.428431
 21
2.146120
 31
0.0
  0
LINE
  5
3c3
100
AcDbEntity
  8
outline
 62
7
100
AcDbLine
 10
-5.428431
 20
2.146120
 30
0.0
 11
-5.428431
 21
1.097814
 31
0.0
  0
LINE
  5
3c4
100
AcDbEntity
  8
outline
 62
7
100
AcDbLine
 10
-5.428431
 20
1.097814
 30
0.0
 11
-5.612232
 21
1.097814
 31
0.0
  0
LINE
  5
3c5
100
AcDbEntity
  8
outline
 62
7
100
AcDbLine
 10
-5.612232
 20
1.097814
 30
0.0
 11
-5.977975
 21
1.781429
 31
0.0
  0
LINE
  5
3c6
100
AcDbEntity
  8
outline
 62
7
100
AcDbLine
 10
-5.977975
 20
1.781429
 30
0.0
 11
-5.977975
 21
1.097814
 31
0.0
  0
LINE
  5
3c7
100
AcDbEntity
  8
outline
 62
7
100
AcDbLine
 10
-5.977975
 20
1.097814
 30
0.0
 11
-6.148161
 21
1.097814
 31
0.0
  0
LINE
  5
3c8
100
AcDbEntity
  8
outline
 62
7
100
AcDbLine
 10
-6.228303
 20
0.259462
 30
0.0
 11
-6.186840
 21
0.528331
 31
0.0
  0
LINE
  5
3c9
100
AcDbEntity
  8
outline
 62
7
100
AcDbLine
 10
-6.186840
 20
0.528331
 30
0.0
 11
-6.102675
 21
0.672063
 31
0.0
  0
LINE
  5
3ca
100
AcDbEntity
  8
outline
 62
7
100
AcDbLine
 10
-6.102675
 20
0.672063
 30
0.0
 11
-5.985093
 21
0.766453
 31
0.0
  0
LINE
  5
3cb
100
AcDbEntity
  8
outline
 62
7
100
AcDbLine
 10
-5.985093
 20
0.766453
 30
0.0
 11
-5.789534
 21
0.807928
 31
0.0
  0
LINE
  5
3cc
100
AcDbEntity
  8
outline
 62
7
100
AcDbLine
 10
-5.789534
 20
0.807928
 30
0.0
 11
-5.609137
 21
0.771995
 31
0.0
  0
LINE
  5
3cd
100
AcDbEntity
  8
outline
 62
7
100
AcDbLine
 10
-5.609137
 20
0.771995
 30
0.0
 11
-5.468966
 21
0.664196
 31
0.0
  0
LINE
  5
3ce
100
AcDbEntity
  8
outline
 62
7
100
AcDbLine
 10
-5.468966
 20
0.664196
 30
0.0
 11
-5.378458
 21
0.492397
 31
0.0
  0
LINE
  5
3cf
100
AcDbEntity
  8
outline
 62
7
100
AcDbLine
 10
-5.378458
 20
0.492397
 30
0.0
 11
-5.348289
 21
0.264464
 31
0.0
  0
LINE
  5
3d0
100
AcDbEntity
  8
outline
 62
7
100
AcDbLine
 10
-5.348289
 20
0.264464
 30
0.0
 11
-5.378149
 21
0.038143
 31
0.0
  0
LINE
  5
3d1
100
AcDbEntity
  8
outline
 62
7
100
AcDbLine
 10
-5.378149
 20
0.038143
 30
0.0
 11
-5.467729
 21
-0.133119
 31
0.0
  0
LINE
  5
3d2
100
AcDbEntity
  8
outline
 62
7
100
AcDbLine
 10
-5.467729
 20
-0.133119
 30
0.0
 11
-5.607281
 21
-0.240381
 31
0.0
  0
LINE
  5
3d3
100
AcDbEntity
  8
outline
 62
7
100
AcDbLine
 10
-5.607281
 20
-0.240381
 30
0.0
 11
-5.787058
 21
-0.276135
 31
0.0
  0
LINE
  5
3d4
100
AcDbEntity
  8
outline
 62
7
100
AcDbLine
 10
-5.787058
 20
-0.276135
 30
0.0
 11
-5.968693
 21
-0.240560
 31
0.0
  0
LINE
  5
3d5
100
AcDbEntity
  8
outline
 62
7
100
AcDbLine
 10
-5.968693
 20
-0.240560
 30
0.0
 11
-6.108864
 21
-0.133835
 31
0.0
  0
LINE
  5
3d6
100
AcDbEntity
  8
outline
 62
7
100
AcDbLine
 10
-6.108864
 20
-0.133835
 30
0.0
 11
-6.198443
 21
0.035999
 31
0.0
  0
LINE
  5
3d7
100
AcDbEntity
  8
outline
 62
7
100
AcDbLine
 10
-6.198443
 20
0.035999
 30
0.0
 11
-6.228303
 21
0.259462
 31
0.0
  0
LINE
  5
3d8
100
AcDbEntity
  8
outline
 62
7
100
AcDbLine
 10
-6.228303
 20
0.259462
 30
0.0
 11
-6.228303
 21
0.259462
 31
0.0
  0
LINE
  5
3d9
100
AcDbEntity
  8
outline
 62
7
100
AcDbLine
 10
-6.039552
 20
0.266623
 30
0.0
 11
-5.968383
 21
-0.003678
 31
0.0
  0
LINE
  5
3da
100
AcDbEntity
  8
outline
 62
7
100
AcDbLine
 10
-5.968383
 20
-0.003678
 30
0.0
 11
-5.787677
 21
-0.095211
 31
0.0
  0
LINE
  5
3db
100
AcDbEntity
  8
outline
 62
7
100
AcDbLine
 10
-5.787677
 20
-0.095211
 30
0.0
 11
-5.608209
 21
-0.004394
 31
0.0
  0
LINE
  5
3dc
100
AcDbEntity
  8
outline
 62
7
100
AcDbLine
 10
-5.608209
 20
-0.004394
 30
0.0
 11
-5.555297
 21
0.109839
 31
0.0
  0
LINE
  5
3dd
100
AcDbEntity
  8
outline
 62
7
100
AcDbLine
 10
-5.555297
 20
0.109839
 30
0.0
 11
-5.537659
 21
0.269481
 31
0.0
  0
LINE
  5
3de
100
AcDbEntity
  8
outline
 62
7
100
AcDbLine
 10
-5.537659
 20
0.269481
 30
0.0
 11
-5.606352
 21
0.538353
 31
0.0
  0
LINE
  5
3df
100
AcDbEntity
  8
outline
 62
7
100
AcDbLine
 10
-5.606352
 20
0.538353
 30
0.0
 11
-5.787677
 21
0.627021
 31
0.0
  0
LINE
  5
3e0
100
AcDbEntity
  8
outline
 62
7
100
AcDbLine
 10
-5.787677
 20
0.627021
 30
0.0
 11
-5.970240
 21
0.536921
 31
0.0
  0
LINE
  5
3e1
100
AcDbEntity
  8
outline
 62
7
100
AcDbLine
 10
-5.970240
 20
0.536921
 30
0.0
 11
-6.039552
 21
0.266623
 31
0.0
  0
LINE
  5
3e2
100
AcDbEntity
  8
outline
 62
7
100
AcDbLine
 10
-6.039552
 20
0.266623
 30
0.0
 11
-6.039552
 21
0.266623
 31
0.0
  0
LINE
  5
3e3
100
AcDbEntity
  8
outline
 62
7
100
AcDbLine
 10
-5.886401
 20
-1.614326
 30
0.0
 11
-6.210682
 21
-0.566020
 31
0.0
  0
LINE
  5
3e4
100
AcDbEntity
  8
outline
 62
7
100
AcDbLine
 10
-6.210682
 20
-0.566020
 30
0.0
 11
-6.012029
 21
-0.566020
 31
0.0
  0
LINE
  5
3e5
100
AcDbEntity
  8
outline
 62
7
100
AcDbLine
 10
-6.012029
 20
-0.566020
 30
0.0
 11
-5.782434
 21
-1.341885
 31
0.0
  0
LINE
  5
3e6
100
AcDbEntity
  8
outline
 62
7
100
AcDbLine
 10
-5.782434
 20
-1.341885
 30
0.0
 11
-5.560264
 21
-0.566020
 31
0.0
  0
LINE
  5
3e7
100
AcDbEntity
  8
outline
 62
7
100
AcDbLine
 10
-5.560264
 20
-0.566020
 30
0.0
 11
-5.365943
 21
-0.566020
 31
0.0
  0
LINE
  5
3e8
100
AcDbEntity
  8
outline
 62
7
100
AcDbLine
 10
-5.365943
 20
-0.566020
 30
0.0
 11
-5.690842
 21
-1.614326
 31
0.0
  0
LINE
  5
3e9
100
AcDbEntity
  8
outline
 62
7
100
AcDbLine
 10
-5.690842
 20
-1.614326
 30
0.0
 11
-5.886401
 21
-1.614326
 31
0.0
  0
LINE
  5
3ea
100
AcDbEntity
  8
outline
 62
7
100
AcDbLine
 10
-5.690191
 20
-1.922092
 30
0.0
 11
-5.365910
 21
-2.970398
 31
0.0
  0
LINE
  5
3eb
100
AcDbEntity
  8
outline
 62
7
100
AcDbLine
 10
-5.365910
 20
-2.970398
 30
0.0
 11
-5.564564
 21
-2.970398
 31
0.0
  0
LINE
  5
3ec
100
AcDbEntity
  8
outline
 62
7
100
AcDbLine
 10
-5.564564
 20
-2.970398
 30
0.0
 11
-5.794159
 21
-2.194534
 31
0.0
  0
LINE
  5
3ed
100
AcDbEntity
  8
outline
 62
7
100
AcDbLine
 10
-5.794159
 20
-2.194534
 30
0.0
 11
-6.016329
 21
-2.970398
 31
0.0
  0
LINE
  5
3ee
100
AcDbEntity
  8
outline
 62
7
100
AcDbLine
 10
-6.016329
 20
-2.970398
 30
0.0
 11
-6.210650
 21
-2.970398
 31
0.0
  0
LINE
  5
3ef
100
AcDbEntity
  8
outline
 62
7
100
AcDbLine
 10
-6.210650
 20
-2.970398
 30
0.0
 11
-5.885750
 21
-1.922092
 31
0.0
  0
LINE
  5
3f0
100
AcDbEntity
  8
outline
 62
7
100
AcDbLine
 10
-5.885750
 20
-1.922092
 30
0.0
 11
-5.690191
 21
-1.922092
 31
0.0
  0
ENDSEC
  0
SECTION
  2
OBJECTS
  0
DICTIONARY
  5
C
330
0
100
AcDbDictionary
  3
ACAD_GROUP
350
D
  3
ACAD_MLINESTYLE
350
17
  0
DICTIONARY
  5
D
330
C
100
AcDbDictionary
  0
DICTIONARY
  5
1A
330
C
100
AcDbDictionary
  0
DICTIONARY
  5
17
330
C
100
AcDbDictionary
  3
STANDARD
350
18
  0
DICTIONARY
  5
19
330
C
100
AcDbDictionary
  0
ENDSEC
  0
EOF
