<?xml version="1.0" encoding="UTF-8" standalone="no"?>
<!-- Created with Inkscape (http://www.inkscape.org/) -->

<svg
   xmlns:dc="http://purl.org/dc/elements/1.1/"
   xmlns:cc="http://creativecommons.org/ns#"
   xmlns:rdf="http://www.w3.org/1999/02/22-rdf-syntax-ns#"
   xmlns:svg="http://www.w3.org/2000/svg"
   xmlns="http://www.w3.org/2000/svg"
   xmlns:sodipodi="http://sodipodi.sourceforge.net/DTD/sodipodi-0.dtd"
   xmlns:inkscape="http://www.inkscape.org/namespaces/inkscape"
   inkscape:version="0.92.1 r15371"
   sodipodi:docname="makey_outlined.svg"
   id="svg832"
   version="1.1"
   viewBox="0 0 210 297"
   height="297mm"
   width="210mm">
  <sodipodi:namedview
     showguides="false"
     inkscape:window-maximized="0"
     inkscape:window-y="75"
     inkscape:window-x="1870"
     inkscape:window-height="919"
     inkscape:window-width="1226"
     showgrid="false"
     inkscape:current-layer="layer2"
     inkscape:document-units="mm"
     inkscape:cy="-77.928875"
     inkscape:cx="63.378945"
     inkscape:zoom="0.98994949"
     inkscape:pageshadow="2"
     inkscape:pageopacity="0.0"
     borderopacity="1.0"
     bordercolor="#666666"
     pagecolor="#ffffff"
     id="base">
    <sodipodi:guide
       position="-54.050594,19.843751"
       orientation="1,0"
       id="guide5129"
       inkscape:locked="false" />
  </sodipodi:namedview>
  <defs
     id="defs826" />
  <metadata
     id="metadata829">
    <rdf:RDF>
      <cc:Work
         rdf:about="">
        <dc:format>image/svg+xml</dc:format>
        <dc:type
           rdf:resource="http://purl.org/dc/dcmitype/StillImage" />
        <dc:title></dc:title>
      </cc:Work>
    </rdf:RDF>
  </metadata>
  <g
     inkscape:label="makey"
     inkscape:groupmode="layer"
     id="layer1"
     style="display:inline">
    <path
       inkscape:connector-curvature="0"
       id="path5093"
       d="m -17.726649,326.93061 -0.079,-0.94364 v -0.86462 l 1.179232,-0.89305 1.179232,-0.89304 h 6.7599297 6.7599292 v 1.83667 1.83667 h -7.860164 l -7.9391619,-0.079 v 0 m 19.5525052,6.7e-4 -0.079836,-1.8375 v -1.75768 l 6.7838354,0.002 6.7838354,0.002 1.160116,0.89842 1.160114,0.89841 -0.03441,0.90749 -0.03441,0.90741 -7.8297023,0.0305 -7.9095373,-0.0494 v -3.3e-4 m -16.7876224,-4.3956 1.597107,-9.00503 1.07796,-0.11729 3.9484033,-0.0308 h 4.971981 l 0.06906,0.6221 0.3038126,4.1177 0.2990328,4.05845 0.06428,0.56286 h -6.1658193 l -5.2578694,-0.0306 -0.76015,-0.0623 -0.147798,-0.11502 v 0 m 17.5031,0.11907 0.2832288,-4.53242 0.3373826,-4.59169 1.0295616,-0.11757 3.9462472,-0.0305 5.0267698,0.0922 1.61594,9.01122 v 0.25769 H 8.6849684 l -6.1436348,-0.0895 v 0 m -21.3887386,-3.71135 -1.896126,-0.38542 -1.682611,-0.63891 -1.481451,-0.8984 -1.292648,-1.16392 -1.152136,-1.6178 -0.41491,-0.80938 -0.16247,-0.55931 0.136731,-0.1082 0.65249,-0.0598 4.306062,-0.0307 h 5.095283 v 3.19937 3.19936 l -0.681346,-0.015 -1.426868,-0.11185 v -2e-5 m 35.405294,-3.07235 v -3.19937 h 5.095282 l 3.284154,0.002 1.498813,0.0992 0.261055,0.13045 0.03212,0.20795 -0.332835,0.71916 -0.576188,1.03655 -0.694378,0.92461 -0.811504,0.81196 -0.927575,0.69864 -1.04259,0.58461 -1.156547,0.46991 -1.269446,0.35452 -1.381288,0.23844 -1.472337,0.12109 h -0.506712 v -3.19936 m -29.386766,-8.11687 v -4.91754 h 3.495601 3.4956007 v 4.91754 4.91754 h -3.4956007 -3.495601 v -4.91754 m 18.4852116,0 v -4.91754 h 3.5548486 3.5548488 v 4.91754 4.91754 H 9.2112022 5.6563536 v -4.91754 m -32.5861106,4.08766 1.134257,-12.10986 0.07133,-0.55701 0.611781,-0.0355 0.611781,-0.0355 0.03295,-1.62603 0.03295,-1.62603 -1.691876,-0.0329 -1.691875,-0.0329 0.0093,-2.01442 0.06003,-1.8857 0.321732,-1.22153 0.546042,-1.3874 0.636683,-1.18433 0.771298,-1.05108 0.949896,-0.98763 1.50422,-1.12685 1.718013,-0.77822 1.152052,-0.27219 2.017689,-0.0914 2.22178,-0.0487 v 6.05434 6.05434 h -1.658929 -1.65893 v 1.65893 1.65892 h 0.624637 0.624637 l 0.573739,6.13212 0.634372,6.45798 0.06064,0.32585 h -5.110096 l -4.442859,-0.031 -0.576713,-0.0707 -0.09052,-0.13577 v -3e-5 m 43.539973,-0.0292 0.600923,-6.19136 0.597847,-6.1852 0.155909,-0.22002 0.519246,-0.0762 0.621389,-0.0358 0.03295,-1.62603 0.03295,-1.62603 -1.691875,-0.0329 -1.691876,-0.0329 -0.03071,-6.01362 -0.03071,-6.01362 h 1.903237 l 1.488337,0.0376 1.149876,0.13717 1.00339,0.27336 1.04888,0.44615 1.604993,1.02634 1.412425,1.4171 1.159923,1.73441 0.847497,1.97832 0.22857,1.06635 0.09457,1.8664 0.05489,2.10329 H 25.988094 24.25336 l 0.03297,1.62931 0.03297,1.6293 0.622098,0.0358 0.630894,0.0592 0.625846,6.45178 0.617052,6.42836 h -5.13091 -5.130913 l 0.05684,-0.26665 m -21.5278481,-5.92476 -0.031312,-3.70297 -3.5548488,-0.0592 -3.5548481,-0.0592 -0.66849,-0.32829 -1.116148,-0.83014 -0.803186,-1.13141 -0.147386,-0.45255 -0.07609,-1.06378 -0.03258,-7.15462 v -8.1169 l 0.348702,-0.68819 0.79331,-1.07314 1.15442,-0.77029 0.665943,-0.31225 H -0.09065124 11.758843 l 0.657129,0.30822 1.112269,0.7266 0.789134,1.06429 0.403842,0.74476 v 8.11691 8.1169 l -0.347437,0.68614 -0.830182,1.11588 -1.112216,0.78581 -0.989967,0.22379 -3.0893013,0.0684 -3.5252249,0.0361 v 3.7261 3.7261 H -0.02971521 -4.8863208 l -0.031312,-3.70297 m 15.9322918,-5.74125 1.123385,-0.79295 0.845977,-1.07434 0.315256,-0.59723 v -6.51723 -6.51722 l -0.32939,-0.67075 -0.793156,-1.07337 -1.173884,-0.78751 -0.665944,-0.31225 H -0.09065124 -10.518207 l -0.665943,0.31225 -1.166274,0.77799 -0.8135,1.03515 -0.316656,0.59999 -0.03363,6.33221 0.0047,5.39963 0.162154,1.56998 0.652571,1.12863 1.005555,0.92327 0.684068,0.33448 1.4153776,0.1667 9.67685508,0.0464 10.36830832,-0.023 0.55926,-0.26088 m -21.378442,-0.67322 -0.799406,-0.32617 -0.651341,-0.49129 -0.48081,-0.63406 -0.287812,-0.75452 -0.124314,-2.994 -0.0029,-2.46076 3.0512454,0.0316 3.0512447,0.0316 0.031769,2.81425 0.031769,2.81426 h 1.2420524 1.242052 l 0.010782,-4.2362 0.010782,-4.23619 0.231161,0.88871 1.0679452,3.49324 1.0674806,3.35143 0.2306969,0.74691 1.26311437,-0.0336 1.26311343,-0.0336 0.8678797,-2.66614 1.2708036,-4.08807 0.4029257,-1.42194 0.037366,4.08808 0.037366,4.08807 1.3330681,0.0335 1.3330682,0.0335 v -2.84776 -2.84776 h 3.0216209 3.0216218 v 2.79822 2.79822 l -0.31535,0.5794 -0.630694,0.80083 -0.920298,0.58345 -0.51869,0.10958 -1.4269604,0.0636 -8.45223522,0.0516 -8.01035748,-0.0126 -2.4997639,-0.11553 -7e-6,3e-5 m 8.8885388,-10.05676 -1.3735901,-4.53201 -1.8498955,-0.0326 -1.8498945,-0.0326 v 3.26162 3.26162 h -3.0893475 -3.0893462 l 0.03915,-3.22899 0.147476,-3.30201 0.241114,-0.6701 0.446536,-0.52102 0.872309,-0.63927 0.474455,-0.12972 1.3496101,-0.0724 8.88828087,-0.0603 6.52475413,-0.0143 3.2828323,0.069 1.3184856,0.23714 0.631709,0.4903 0.525582,0.54283 0.27425,0.67324 0.104628,1.20979 0.01672,2.15243 v 3.26334 H 9.3889435 6.3673227 v -3.25862 -3.25861 h -1.8867294 -1.88673 l -0.1205375,0.38511 -1.2664956,4.47319 -1.22722106,4.17652 -1.45485494,-4.44356 v 0 m -10.8300102,-10.43911 0.06935,-1.17904 0.309448,-1.71969 0.375516,-1.20326 0.507376,-1.15659 0.630661,-1.09926 0.7453705,-1.03128 0.8515045,-0.95264 0.9490634,-0.86336 1.0380469,-0.76341 1.1184551,-0.65283 1.4699001,-0.64158 1.4920944,-0.43601 1.4993542,-0.23862 1.49167895,-0.0494 1.46906885,0.13147 1.4315242,0.3042 1.3790439,0.4687 1.3116296,0.62499 1.2292801,0.77306 1.1319957,0.91291 1.0197764,1.04455 0.8926212,1.16797 0.750533,1.28316 0.593509,1.39016 0.42155,1.48891 0.234657,1.57947 0.08211,0.97758 H -0.02697937 l -9.92686543,-0.0302 -2.3514112,-0.12993 v 0 m 6.560277,-1.09039 0.6587129,-0.39581 0.4967699,-0.55448 0.3145181,-0.68218 0.1119576,-0.77894 -0.1681838,-1.05198 -0.5739903,-0.84328 -0.5311246,-0.41296 -0.592384,-0.25324 -0.6239835,-0.0993 -0.6259223,0.0488 -0.5982005,0.19107 -0.5408186,0.32755 -0.4537756,0.45822 -0.337072,0.58308 -0.1772596,1.02295 0.1530167,0.99907 0.5941898,0.86647 0.8613741,0.56297 1.005527,0.20862 1.0266487,-0.19659 v 0 m 13.3306815,0.0242 0.6872532,-0.4168 0.5222229,-0.58536 0.3301715,-0.71279 0.1110985,-0.79903 -0.1219964,-0.77084 -0.3234621,-0.66027 -0.4832297,-0.53033 -0.601303,-0.38107 -0.6776787,-0.21244 -0.7123583,-0.0245 -0.7053419,0.18285 -0.6566287,0.40952 -0.4347987,0.44085 -0.2971431,0.46904 -0.1697782,0.51898 -0.052703,0.59072 0.1088214,0.80385 0.3112243,0.69434 0.5004715,0.5644 0.6765624,0.41407 0.9889124,0.15424 0.999684,-0.14945 v -1e-5"
       style="fill:#fe0125;stroke-width:0.11849495" />
  </g>
  <g
     inkscape:groupmode="layer"
     id="layer2"
     inkscape:label="outline"
     style="display:inline">
    <path
       id="path5111"
       d="m 0.18359375,266.10156 -1.41796875,0.0469 -0.2050781,0.0195 -1.4023438,0.22461 -0.2050781,0.0449 -1.3964844,0.4082 -0.1992187,0.0723 -1.3867188,0.60547 -0.1699219,0.0859 -1.0449218,0.61132 -0.1464844,0.0957 -0.9726562,0.71484 -0.1328126,0.10937 -0.890625,0.8086 -0.1191406,0.12109 -0.8007816,0.89649 -0.107421,0.13281 -0.697266,0.96484 -0.09375,0.14649 -0.589844,1.02734 -0.08008,0.16016 -0.474609,1.08008 -0.06445,0.17382 -0.34961,1.11719 -0.04883,0.19922 -0.292969,1.63086 -0.02344,0.19531 -0.06445,1.08399 v 0.0762 l -0.6875,1.2832 -0.265625,0.17578 -0.41211,0.39258 -0.673828,0.91211 -0.146484,0.23633 -0.0332,0.0664 -1.337891,0.8418 -1.392578,0.0312 -0.03906,0.002 -1.935547,0.0879 -0.30664,0.043 -1.007813,0.23828 -0.304687,0.10352 -1.574219,0.71094 -0.308594,0.18359 -1.386718,1.03906 -0.201172,0.17774 -0.875,0.9082 -0.140625,0.16797 -0.708985,0.96484 -0.123047,0.19727 -0.589843,1.09375 -0.08008,0.17773 -0.515625,1.30665 -0.06055,0.18554 -0.28711,1.09375 -0.05469,0.3711 -0.05859,1.77148 v 0.043 0.008 l -0.0078,1.86524 0.08984,0.47656 0.169922,0.26562 0.257813,0.1875 0.613281,0.15625 0.951125,0.71618 0.156297,1.18031 -0.150391,0.55273 -0.05859,0.44336 -0.0059,0.0547 -1.119141,11.97265 0.03711,0.62305 -0.0039,0.23438 -0.03711,0.40429 0.05078,0.3086 0.115234,0.40039 0.115234,0.29297 0.355469,0.6914 0.125,0.20703 1.070313,1.50196 0.242187,0.27343 1.177734,1.05665 0.25,0.18554 1.359375,0.82617 0.271485,0.13282 1.55664,0.58984 0.257813,0.0762 1.792969,0.36328 0.203125,0.0293 1.349609,0.10547 0.09375,0.004 0.214844,0.006 1.151018,0.56232 0.327497,1.23847 -0.03125,0.18164 -0.589843,0.96679 -0.816407,0.61719 -0.412109,0.31055 -0.693359,0.52539 -0.212891,0.20508 -0.109375,0.16992 -0.06836,0.18945 -0.03516,0.29102 v 0.74804 l 0.0059,0.13672 0.06445,0.76563 0.125,0.45703 0.183594,0.24609 0.261718,0.16602 0.466797,0.0937 7.7851565,0.0781 h 0.017578 7.6835938 l 0.546875,-0.12695 0.57617185,-0.46094 0.94192676,-0.33774 0.95065137,0.31234 0.55468752,0.41992 0.5175781,0.11524 7.7402344,0.0488 h 0.017578 l 7.6757817,-0.0293 0.482422,-0.0977 0.265625,-0.17382 0.183593,-0.25977 0.113282,-0.47656 0.02734,-0.75782 v -0.002 l 0.03125,-0.81445 -0.02539,-0.30078 -0.06445,-0.19727 -0.109375,-0.17578 -0.214844,-0.21094 -1.087891,-0.84375 -0.863281,-0.66992 -0.574219,-0.95117 -0.02539,-0.14453 0.318057,-1.2325 1.137021,-0.57219 0.15625,-0.006 1.408203,-0.11523 0.146484,-0.0195 1.3125,-0.22657 0.160156,-0.0352 1.191407,-0.33399 0.179687,-0.0605 1.066406,-0.4336 0.1875,-0.0898 0.958985,-0.53711 0.185547,-0.12109 0.841797,-0.63477 0.177734,-0.15234 0.734375,-0.73633 0.154297,-0.17774 0.628906,-0.83789 0.123047,-0.18945 0.535156,-0.9668 0.05664,-0.10742 0.275391,-0.5957 0.103515,-0.3418 0.0039,-0.4668 0.0078,-0.14453 0.08203,-0.79101 -0.603515,-6.27539 -0.0059,-0.14649 v 0.0723 l -0.609375,-6.26367 -0.146484,-0.58008 0.176559,-1.17157 0.956253,-0.69953 0.634766,-0.15429 0.259765,-0.18946 0.173829,-0.27343 0.08594,-0.49024 -0.05273,-1.94336 -0.002,-0.041 -0.08984,-1.79297 -0.03516,-0.26172 -0.199219,-0.93359 -0.09766,-0.30665 -0.789063,-1.84179 -0.146484,-0.27149 -1.078125,-1.61132 -0.203125,-0.24805 -1.300781,-1.30469 -0.28125,-0.22851 -1.480469,-0.94727 -0.244141,-0.12695 -0.945312,-0.40039 -0.212891,-0.0762 -0.896484,-0.24414 -0.240235,-0.0449 -1.060547,-0.12695 -0.15625,-0.0117 -1.427734,-0.0371 h -0.04297 -1.042968 l -1.357422,-0.8125 -0.101563,-0.18945 -0.125,-0.19531 -0.675781,-0.91211 -0.423828,-0.39844 -0.128906,-0.084 -0.697266,-1.23242 v -0.0156 l -0.07813,-0.91797 -0.01172,-0.10547 -0.224609,-1.50781 -0.04492,-0.20899 -0.394531,-1.39062 -0.07031,-0.20117 -0.554687,-1.30079 -0.09375,-0.18359 -0.701172,-1.20117 -0.115235,-0.16992 L 9.9510747,270.74837 9.8202153,270.59798 8.863184,269.61555 8.7186528,269.48274 7.6581059,268.62923 7.4979497,268.51594 6.347559,267.79134 6.1776372,267.69764 4.9452153,267.1117 4.7674809,267.0375 3.4745122,266.6 3.2831059,266.5473 1.9375,266.26172 l -0.1972656,-0.0312 -1.3808594,-0.12305 -0.17578125,-0.006"
       style="display:inline;fill:none;stroke:#000000;stroke-width:0.11849495;stroke-opacity:1"
       inkscape:connector-curvature="0"
       sodipodi:nodetypes="cccccccccccccccccccccccccccccccccccccccccccccccccccccccccccccccccccccccccccccccccccccccccccccccccccccccccccccccccccccccccccccccccccccccccccccccccccccccccccccccccccccccccccccccccccccccccccccccccccccccccccccccccccccccccccccccccccccc" />
    <g
       id="g4623"
       transform="translate(-1.5875)">
      <path
         style="font-style:normal;font-variant:normal;font-weight:bold;font-stretch:normal;font-size:medium;line-height:1.25;font-family:Arial;-inkscape-font-specification:'Arial Bold';font-variant-ligatures:normal;font-variant-caps:normal;font-variant-numeric:normal;font-feature-settings:normal;text-align:start;letter-spacing:0px;word-spacing:0px;writing-mode:lr-tb;text-anchor:start;fill:none;fill-opacity:1;stroke:#000000;stroke-width:0.34594142;stroke-miterlimit:4;stroke-dasharray:none;stroke-opacity:1"
         d="M24.789958 292.16163L24.789958 292.86702L22.127831 292.86702L22.387287 292.11028L23.24133 291.15894L23.871052 290.5103L24.027806 290.04545L23.88997 289.65626L23.514299 289.51842L23.135926 289.66166L22.973766 290.13734L22.217019 290.06164L22.35688375 289.5231275L22.641338 289.16165L23.04268425 288.9569225L23.533219 288.88868L24.05686025 288.9677325L24.454828 289.20489L24.7061755 289.559615L24.789958 289.99137L24.692668 290.50217L24.38997 291.00757L23.892679 291.51297L23.435929 291.9508L23.281876 292.1616L24.789958 292.16163"
         id="path4526"
         inkscape:connector-curvature="0" />
      <g
         transform="translate(27.96139,38.412109)"
         id="g4598">
        <path
           inkscape:connector-curvature="0"
           id="path4543"
           d="M-4.5123486 255.55098L-3.999517475 255.65368L-3.6123603 255.96178L-3.32249925 256.6083925L-3.2258789 257.57527L-3.32317495 258.5414725L-3.6150631 259.19146L-4.000193175 259.49551L-4.5123486 259.59686L-5.034638975 259.48605L-5.4447685 259.15362L-5.710306075 258.53404L-5.7988186 257.56716L-5.70152265 256.6050125L-5.4096348 255.95637L-5.0245042 255.6523275L-4.5123486 255.55098L-4.5123486 255.55098"
           style="font-style:normal;font-variant:normal;font-weight:bold;font-stretch:normal;font-size:medium;line-height:1.25;font-family:Arial;-inkscape-font-specification:'Arial Bold';font-variant-ligatures:normal;font-variant-caps:normal;font-variant-numeric:normal;font-feature-settings:normal;text-align:start;letter-spacing:0px;word-spacing:0px;writing-mode:lr-tb;text-anchor:start;fill:none;fill-opacity:1;stroke:#000000;stroke-width:0.34594142;stroke-miterlimit:4;stroke-dasharray:none;stroke-opacity:1" />
        <path
           inkscape:connector-curvature="0"
           id="path4528"
           d="M-4.5123486 256.18069L-4.7582914 256.26989L-4.9258567 256.58341L-5.0042347 257.57528L-4.9339657 258.53474L-4.7582923 258.88067L-4.5123496 258.96707L-4.2664067 258.88067L-4.0988414 258.56446L-4.0204634 257.57528L-4.0907324 256.61854L-4.2691085 256.26989L-4.5123486 256.18069L-4.5123486 256.18069"
           style="font-style:normal;font-variant:normal;font-weight:bold;font-stretch:normal;font-size:medium;line-height:1.25;font-family:Arial;-inkscape-font-specification:'Arial Bold';font-variant-ligatures:normal;font-variant-caps:normal;font-variant-numeric:normal;font-feature-settings:normal;text-align:start;letter-spacing:0px;word-spacing:0px;writing-mode:lr-tb;text-anchor:start;fill:none;fill-opacity:1;stroke:#000000;stroke-width:0.34594142;stroke-miterlimit:4;stroke-dasharray:none;stroke-opacity:1" />
      </g>
      <path
         style="font-style:normal;font-variant:normal;font-weight:bold;font-stretch:normal;font-size:medium;line-height:1.25;font-family:Arial;-inkscape-font-specification:'Arial Bold';font-variant-ligatures:normal;font-variant-caps:normal;font-variant-numeric:normal;font-feature-settings:normal;text-align:start;letter-spacing:0px;word-spacing:0px;writing-mode:lr-tb;text-anchor:start;fill:none;fill-opacity:1;stroke:#000000;stroke-width:0.34594142;stroke-miterlimit:4;stroke-dasharray:none;stroke-opacity:1"
         d="M24.3193 303.08336L23.559851 303.08336L23.559851 300.22124L22.578783 300.79691L22.578783 300.10773L23.22472 299.74016L23.703092 299.10505L24.3193 299.10505L24.3193 303.08336"
         id="path4530"
         inkscape:connector-curvature="0" />
      <g
         transform="translate(21.819578,48.627109)"
         id="g4602">
        <path
           inkscape:connector-curvature="0"
           id="path4537"
           d="M0.38218241 258.61309L1.1173079 258.53199L1.2578466 258.86442L1.5578426 258.97255L1.9578374 258.75634L2.1686456 257.85905L1.84635245 258.1083725L1.4524386 258.19148L1.0166335075 258.101615L0.64434109 257.83202L0.39096607 257.415815L0.30650773 256.8915L0.3956957375 256.3475825L0.66325976 255.92123L1.071362515 255.6435425L1.5767613 255.55098L2.125402825 255.66787L2.5659376 256.01854L2.85579865 256.6340675L2.952419 257.55095L2.85174465 258.48607L2.5497216 259.11849L2.08621415 259.4793L1.5010866 259.59957L0.74974508 259.35363L0.38218241 258.61309L0.38218241 258.61309"
           style="font-style:normal;font-variant:normal;font-weight:bold;font-stretch:normal;font-size:medium;line-height:1.25;font-family:Arial;-inkscape-font-specification:'Arial Bold';font-variant-ligatures:normal;font-variant-caps:normal;font-variant-numeric:normal;font-feature-settings:normal;text-align:start;letter-spacing:0px;word-spacing:0px;writing-mode:lr-tb;text-anchor:start;fill:none;fill-opacity:1;stroke:#000000;stroke-width:0.34594142;stroke-miterlimit:4;stroke-dasharray:none;stroke-opacity:1" />
        <path
           inkscape:connector-curvature="0"
           id="path4532"
           d="M2.1010788 256.95366L1.9308107 256.38339L1.5416267 256.18069L1.19028 256.34826L1.0524438 256.8915L1.2037932 257.45635L1.5821666 257.63473L1.9497294 257.46176L2.1010788 256.95366L2.1010788 256.95366"
           style="font-style:normal;font-variant:normal;font-weight:bold;font-stretch:normal;font-size:medium;line-height:1.25;font-family:Arial;-inkscape-font-specification:'Arial Bold';font-variant-ligatures:normal;font-variant-caps:normal;font-variant-numeric:normal;font-feature-settings:normal;text-align:start;letter-spacing:0px;word-spacing:0px;writing-mode:lr-tb;text-anchor:start;fill:none;fill-opacity:1;stroke:#000000;stroke-width:0.34594142;stroke-miterlimit:4;stroke-dasharray:none;stroke-opacity:1" />
      </g>
    </g>
    <g
       id="g4656">
      <path
         style="font-style:normal;font-variant:normal;font-weight:bold;font-stretch:normal;font-size:medium;line-height:1.25;font-family:Arial;-inkscape-font-specification:'Arial Bold';font-variant-ligatures:normal;font-variant-caps:normal;font-variant-numeric:normal;font-feature-settings:normal;text-align:start;letter-spacing:0px;word-spacing:0px;writing-mode:lr-tb;text-anchor:start;fill:none;fill-opacity:1;stroke:#000000;stroke-width:0.32182518;stroke-miterlimit:4;stroke-dasharray:none;stroke-opacity:1"
         d="M-23.237145 292.85078L-23.237145 288.88868L-22.563517 288.88868L-21.160125 291.53459L-21.160125 288.88868L-20.516905 288.88868L-20.516905 292.85078L-21.211584 292.85078L-22.593923 290.26704L-22.593923 292.85078L-23.237145 292.85078"
         id="path4518"
         inkscape:connector-curvature="0" />
      <g
         transform="matrix(0.86543592,0,0,1,-4.6724058,38.446798)"
         id="g4594">
        <g
           id="g4573"
           style="fill:none;stroke:#000000;stroke-width:0.26458332;stroke-miterlimit:4;stroke-dasharray:none;stroke-opacity:1"
           transform="matrix(1.3074952,0,0,1.3074952,7.9345947,-78.511722)">
          <path
             style="font-style:normal;font-variant:normal;font-weight:bold;font-stretch:normal;font-size:medium;line-height:1.25;font-family:Arial;-inkscape-font-specification:'Arial Bold';font-variant-ligatures:normal;font-variant-caps:normal;font-variant-numeric:normal;font-feature-settings:normal;text-align:start;letter-spacing:0px;word-spacing:0px;writing-mode:lr-tb;text-anchor:start;fill:none;fill-opacity:1;stroke:#000000;stroke-width:0.26458332;stroke-miterlimit:4;stroke-dasharray:none;stroke-opacity:1"
             d="M-22.74265 257.04437L-22.604157 256.26716L-22.323037 255.85168L-21.930297 255.57883L-21.277106 255.45894L-20.67455925 255.56281L-20.206371 255.87442L-19.904064 256.3710325L-19.803295 257.02991L-19.9030305 257.68413L-20.202237 258.17919L-20.66835825 258.4892475L-21.268838 258.5926L-21.8755195 258.489765L-22.343708 258.18126L-22.6429145 257.6903275L-22.74265 257.04437L-22.74265 257.04437"
             id="path4557"
             inkscape:connector-curvature="0" />
          <path
             style="font-style:normal;font-variant:normal;font-weight:bold;font-stretch:normal;font-size:medium;line-height:1.25;font-family:Arial;-inkscape-font-specification:'Arial Bold';font-variant-ligatures:normal;font-variant-caps:normal;font-variant-numeric:normal;font-feature-settings:normal;text-align:start;letter-spacing:0px;word-spacing:0px;writing-mode:lr-tb;text-anchor:start;fill:none;fill-opacity:1;stroke:#000000;stroke-width:0.26458332;stroke-miterlimit:4;stroke-dasharray:none;stroke-opacity:1"
             d="M-22.112198 257.02367L-21.874486 257.80502L-21.270905 258.06961L-20.671459 257.80709L-20.49472525 257.47688L-20.435814 257.01541L-20.665258 256.23819L-21.270905 255.98188L-21.880687 256.24233L-22.112198 257.02367L-22.112198 257.02367"
             id="path4520"
             inkscape:connector-curvature="0" />
        </g>
      </g>
      <path
         style="font-style:normal;font-variant:normal;font-weight:bold;font-stretch:normal;font-size:medium;line-height:1.25;font-family:Arial;-inkscape-font-specification:'Arial Bold';font-variant-ligatures:normal;font-variant-caps:normal;font-variant-numeric:normal;font-feature-settings:normal;text-align:start;letter-spacing:0px;word-spacing:0px;writing-mode:lr-tb;text-anchor:start;fill:none;fill-opacity:1;stroke:#000000;stroke-width:0.32182518;stroke-miterlimit:4;stroke-dasharray:none;stroke-opacity:1"
         d="M-22.247816 303.10139L-23.473444 299.13929L-22.72263 299.13929L-21.854867 302.07169L-21.01517 299.13929L-20.280729 299.13929L-21.508696 303.10139L-22.247816 303.10139"
         id="path4522"
         inkscape:connector-curvature="0" />
      <path
         style="font-style:normal;font-variant:normal;font-weight:bold;font-stretch:normal;font-size:medium;line-height:1.25;font-family:Arial;-inkscape-font-specification:'Arial Bold';font-variant-ligatures:normal;font-variant-caps:normal;font-variant-numeric:normal;font-feature-settings:normal;text-align:start;letter-spacing:0px;word-spacing:0px;writing-mode:lr-tb;text-anchor:start;display:inline;fill:none;fill-opacity:1;stroke:#000000;stroke-width:0.32182518;stroke-miterlimit:4;stroke-dasharray:none;stroke-opacity:1"
         d="M-21.506233 304.2646L-20.280603 308.2267L-21.031423 308.2267L-21.899183 305.2943L-22.738883 308.2267L-23.473323 308.2267L-22.245353 304.2646L-21.506233 304.2646"
         id="path4522-9"
         inkscape:connector-curvature="0" />
    </g>
  </g>
</svg>
