  0
SECTION
  2
BLOCKS
  0
ENDSEC
  0
SECTION
  2
ENTITIES
  0
LINE
  8
0
 10
3.98253
 20
-37.8913
 11
7.92143
 21
-37.2674
  0
LINE
  8
0
 10
7.92143
 20
-37.2674
 11
11.7735
 21
-36.2352
  0
LINE
  8
0
 10
11.7735
 20
-36.2352
 11
15.4967
 21
-34.8061
  0
LINE
  8
0
 10
15.4967
 20
-34.8061
 11
19.05
 21
-32.9956
  0
LINE
  8
0
 10
19.05
 20
-32.9956
 11
22.3946
 21
-30.8235
  0
LINE
  8
0
 10
22.3946
 20
-30.8235
 11
25.4939
 21
-28.3138
  0
LINE
  8
0
 10
25.4939
 20
-28.3138
 11
28.3138
 21
-25.4939
  0
LINE
  8
0
 10
28.3138
 20
-25.4939
 11
30.8235
 21
-22.3946
  0
LINE
  8
0
 10
30.8235
 20
-22.3946
 11
32.9956
 21
-19.05
  0
LINE
  8
0
 10
32.9956
 20
-19.05
 11
34.8061
 21
-15.4967
  0
LINE
  8
0
 10
34.8061
 20
-15.4967
 11
36.2352
 21
-11.7735
  0
LINE
  8
0
 10
36.2352
 20
-11.7735
 11
37.2674
 21
-7.92143
  0
LINE
  8
0
 10
37.2674
 20
-7.92143
 11
37.8913
 21
-3.98253
  0
LINE
  8
0
 10
37.8913
 20
-3.98253
 11
38.1
 21
0
  0
LINE
  8
0
 10
38.1
 20
0
 11
37.8913
 21
3.98253
  0
LINE
  8
0
 10
37.8913
 20
3.98253
 11
37.2674
 21
7.92143
  0
LINE
  8
0
 10
37.2674
 20
7.92143
 11
36.2352
 21
11.7735
  0
LINE
  8
0
 10
36.2352
 20
11.7735
 11
34.8061
 21
15.4967
  0
LINE
  8
0
 10
34.8061
 20
15.4967
 11
32.9956
 21
19.05
  0
LINE
  8
0
 10
32.9956
 20
19.05
 11
30.8235
 21
22.3946
  0
LINE
  8
0
 10
30.8235
 20
22.3946
 11
28.3138
 21
25.4939
  0
LINE
  8
0
 10
28.3138
 20
25.4939
 11
25.4939
 21
28.3138
  0
LINE
  8
0
 10
25.4939
 20
28.3138
 11
22.3946
 21
30.8235
  0
LINE
  8
0
 10
22.3946
 20
30.8235
 11
19.05
 21
32.9956
  0
LINE
  8
0
 10
19.05
 20
32.9956
 11
15.4967
 21
34.8061
  0
LINE
  8
0
 10
15.4967
 20
34.8061
 11
11.7735
 21
36.2352
  0
LINE
  8
0
 10
11.7735
 20
36.2352
 11
7.92143
 21
37.2674
  0
LINE
  8
0
 10
7.92143
 20
37.2674
 11
3.98253
 21
37.8913
  0
LINE
  8
0
 10
3.98253
 20
37.8913
 11
0
 21
38.1
  0
LINE
  8
0
 10
0
 20
38.1
 11
-3.98253
 21
37.8913
  0
LINE
  8
0
 10
-3.98253
 20
37.8913
 11
-7.92143
 21
37.2674
  0
LINE
  8
0
 10
-7.92143
 20
37.2674
 11
-11.7735
 21
36.2352
  0
LINE
  8
0
 10
-11.7735
 20
36.2352
 11
-15.4967
 21
34.8061
  0
LINE
  8
0
 10
-15.4967
 20
34.8061
 11
-19.05
 21
32.9956
  0
LINE
  8
0
 10
-19.05
 20
32.9956
 11
-22.3946
 21
30.8235
  0
LINE
  8
0
 10
-22.3946
 20
30.8235
 11
-25.4939
 21
28.3138
  0
LINE
  8
0
 10
-25.4939
 20
28.3138
 11
-28.3138
 21
25.4939
  0
LINE
  8
0
 10
-28.3138
 20
25.4939
 11
-30.8235
 21
22.3946
  0
LINE
  8
0
 10
-30.8235
 20
22.3946
 11
-32.9956
 21
19.05
  0
LINE
  8
0
 10
-32.9956
 20
19.05
 11
-34.8061
 21
15.4967
  0
LINE
  8
0
 10
-34.8061
 20
15.4967
 11
-36.2352
 21
11.7735
  0
LINE
  8
0
 10
-36.2352
 20
11.7735
 11
-37.2674
 21
7.92143
  0
LINE
  8
0
 10
-37.2674
 20
7.92143
 11
-37.8913
 21
3.98253
  0
LINE
  8
0
 10
-37.8913
 20
3.98253
 11
-38.1
 21
0
  0
LINE
  8
0
 10
-38.1
 20
0
 11
-37.8913
 21
-3.98253
  0
LINE
  8
0
 10
-37.8913
 20
-3.98253
 11
-37.2674
 21
-7.92143
  0
LINE
  8
0
 10
-37.2674
 20
-7.92143
 11
-36.2352
 21
-11.7735
  0
LINE
  8
0
 10
-36.2352
 20
-11.7735
 11
-34.8061
 21
-15.4967
  0
LINE
  8
0
 10
-34.8061
 20
-15.4967
 11
-32.9956
 21
-19.05
  0
LINE
  8
0
 10
-32.9956
 20
-19.05
 11
-30.8235
 21
-22.3946
  0
LINE
  8
0
 10
-30.8235
 20
-22.3946
 11
-28.3138
 21
-25.4939
  0
LINE
  8
0
 10
-28.3138
 20
-25.4939
 11
-25.4939
 21
-28.3138
  0
LINE
  8
0
 10
-25.4939
 20
-28.3138
 11
-22.3946
 21
-30.8235
  0
LINE
  8
0
 10
-22.3946
 20
-30.8235
 11
-19.05
 21
-32.9956
  0
LINE
  8
0
 10
-19.05
 20
-32.9956
 11
-15.4967
 21
-34.8061
  0
LINE
  8
0
 10
-15.4967
 20
-34.8061
 11
-11.7735
 21
-36.2352
  0
LINE
  8
0
 10
-11.7735
 20
-36.2352
 11
-7.92143
 21
-37.2674
  0
LINE
  8
0
 10
-7.92143
 20
-37.2674
 11
-3.98253
 21
-37.8913
  0
LINE
  8
0
 10
-3.98253
 20
-37.8913
 11
0
 21
-38.1
  0
LINE
  8
0
 10
0
 20
-38.1
 11
3.98253
 21
-37.8913
  0
LINE
  8
0
 10
-2.27499
 20
-2.81458
 11
-3.89999
 21
0
  0
LINE
  8
0
 10
-3.89999
 20
0
 11
-2.27499
 21
2.81458
  0
LINE
  8
0
 10
-2.27499
 20
2.81458
 11
2.27499
 21
2.81458
  0
LINE
  8
0
 10
2.27499
 20
2.81458
 11
3.89999
 21
0
  0
LINE
  8
0
 10
3.89999
 20
0
 11
2.27499
 21
-2.81458
  0
LINE
  8
0
 10
2.27499
 20
-2.81458
 11
-2.27499
 21
-2.81458
  0
ENDSEC
  0
SECTION
  2
OBJECTS
  0
DICTIONARY
  0
ENDSEC
  0
EOF
