  0
SECTION
  2
HEADER
  9
$ACADVER
  1
AC1014
  9
$HANDSEED
  5
FFFF
  9
$MEASUREMENT
 70
     1
  0
ENDSEC
  0
SECTION
  2
TABLES
  0
TABLE
  2
VPORT
  5
8
330
0
100
AcDbSymbolTable
 70
     4
  0
VPORT
  5
2E
330
8
100
AcDbSymbolTableRecord
100
AcDbViewportTableRecord
  2
*ACTIVE
 70
     0
 10
0.0
 20
0.0
 11
1.0
 21
1.0
 12
210.0
 22
148.5
 13
0.0
 23
0.0
 14
10.0
 24
10.0
 15
10.0
 25
10.0
 16
0.0
 26
0.0
 36
1.0
 17
0.0
 27
0.0
 37
0.0
 40
341.0
 41
1.24
 42
50.0
 43
0.0
 44
0.0
 50
0.0
 51
0.0
 71
     0
 72
   100
 73
     1
 74
     3
 75
     0
 76
     0
 77
     0
 78
     0
  0
ENDTAB
  0
TABLE
  2
LTYPE
  5
5
330
0
100
AcDbSymbolTable
 70
     1
  0
LTYPE
  5
14
330
5
100
AcDbSymbolTableRecord
100
AcDbLinetypeTableRecord
  2
BYBLOCK
 70
     0
  3

 72
    65
 73
     0
 40
0.0
  0
LTYPE
  5
15
330
5
100
AcDbSymbolTableRecord
100
AcDbLinetypeTableRecord
  2
BYLAYER
 70
     0
  3

 72
    65
 73
     0
 40
0.0
  0
LTYPE
  5
16
330
5
100
AcDbSymbolTableRecord
100
AcDbLinetypeTableRecord
  2
CONTINUOUS
 70
     0
  3
Solid line
 72
    65
 73
     0
 40
0.0
  0
ENDTAB
  0
TABLE
  2
LAYER
  5
2
100
AcDbSymbolTable
 70
1
  0
LAYER
  5
50
100
AcDbSymbolTableRecord
100
AcDbLayerTableRecord
  2
0
 70
0
  6
CONTINUOUS
  0
ENDTAB
  0
TABLE
  2
STYLE
  5
3
330
0
100
AcDbSymbolTable
 70
     1
  0
STYLE
  5
11
330
3
100
AcDbSymbolTableRecord
100
AcDbTextStyleTableRecord
  2
STANDARD
 70
     0
 40
0.0
 41
1.0
 50
0.0
 71
     0
 42
2.5
  3
txt
  4

  0
ENDTAB
  0
TABLE
  2
VIEW
  5
6
330
0
100
AcDbSymbolTable
 70
     0
  0
ENDTAB
  0
TABLE
  2
UCS
  5
7
330
0
100
AcDbSymbolTable
 70
     0
  0
ENDTAB
  0
TABLE
  2
APPID
  5
9
330
0
100
AcDbSymbolTable
 70
     2
  0
APPID
  5
12
330
9
100
AcDbSymbolTableRecord
100
AcDbRegAppTableRecord
  2
ACAD
 70
     0
  0
ENDTAB
  0
TABLE
  2
DIMSTYLE
  5
A
330
0
100
AcDbSymbolTable
 70
     1
  0
DIMSTYLE
105
27
330
A
100
AcDbSymbolTableRecord
100
AcDbDimStyleTableRecord
  2
ISO-25
 70
     0
  3

  4

  5

  6

  7

 40
1.0
 41
2.5
 42
0.625
 43
3.75
 44
1.25
 45
0.0
 46
0.0
 47
0.0
 48
0.0
140
2.5
141
2.5
142
0.0
143
0.03937007874016
144
1.0
145
0.0
146
1.0
147
0.625
 71
     0
 72
     0
 73
     0
 74
     0
 75
     0
 76
     0
 77
     1
 78
     8
170
     0
171
     3
172
     1
173
     0
174
     0
175
     0
176
     0
177
     0
178
     0
270
     2
271
     2
272
     2
273
     2
274
     3
340
11
275
     0
280
     0
281
     0
282
     0
283
     0
284
     8
285
     0
286
     0
287
     3
288
     0
  0
ENDTAB
  0
TABLE
  2
BLOCK_RECORD
  5
1
330
0
100
AcDbSymbolTable
 70
     1
  0
BLOCK_RECORD
  5
1F
330
1
100
AcDbSymbolTableRecord
100
AcDbBlockTableRecord
  2
*MODEL_SPACE
  0
BLOCK_RECORD
  5
1B
330
1
100
AcDbSymbolTableRecord
100
AcDbBlockTableRecord
  2
*PAPER_SPACE
  0
ENDTAB
  0
ENDSEC
  0
SECTION
  2
BLOCKS
  0
BLOCK
  5
20
330
1F
100
AcDbEntity
  8
0
100
AcDbBlockBegin
  2
*MODEL_SPACE
 70
     0
 10
0.0
 20
0.0
 30
0.0
  3
*MODEL_SPACE
  1

  0
ENDBLK
  5
21
330
1F
100
AcDbEntity
  8
0
100
AcDbBlockEnd
  0
BLOCK
  5
1C
330
1B
100
AcDbEntity
 67
     1
  8
0
100
AcDbBlockBegin
  2
*PAPER_SPACE
  1

  0
ENDBLK
  5
1D
330
1B
100
AcDbEntity
 67
     1
  8
0
100
AcDbBlockEnd
  0
ENDSEC
  0
SECTION
  2
ENTITIES
  0
LWPOLYLINE
  5
100
100
AcDbEntity
  8
0
 62
7
100
AcDbPolyline
 90
12
 70
0
 10
185.592207
 20
-148.403076
 30
0.0
 10
124.942687
 20
-148.403076
 30
0.0
 10
124.942687
 20
-163.422255
 30
0.0
 10
105.975735
 20
-163.422255
 30
0.0
 10
105.975735
 20
-148.403076
 30
0.0
 10
72.616520
 20
-148.403076
 30
0.0
 10
72.616520
 20
-188.385375
 30
0.0
 10
105.975735
 20
-188.385375
 30
0.0
 10
105.975735
 20
-174.427387
 30
0.0
 10
124.942687
 20
-174.427387
 30
0.0
 10
124.942687
 20
-188.385375
 30
0.0
 10
185.592207
 20
-188.385375
 30
0.0
  0
SPLINE
  5
101
100
AcDbEntity
  8
0
 62
7
100
AcDbSpline
 70
8
 71
3
 72
8
 73
4
 74
0
 40
0
 40
0
 40
0
 40
0
 40
1
 40
1
 40
1
 40
1
 10
117.059211
 20
-188.385367
 30
0.0
 10
117.059211
 20
-187.813742
 30
0.0
 10
116.754253
 20
-187.285539
 30
0.0
 10
116.259211
 20
-186.999727
 30
0.0
  0
SPLINE
  5
102
100
AcDbEntity
  8
0
 62
7
100
AcDbSpline
 70
8
 71
3
 72
8
 73
4
 74
0
 40
0
 40
0
 40
0
 40
0
 40
1
 40
1
 40
1
 40
1
 10
116.259211
 20
-186.999727
 30
0.0
 10
115.764169
 20
-186.713914
 30
0.0
 10
115.154253
 20
-186.713914
 30
0.0
 10
114.659211
 20
-186.999727
 30
0.0
  0
SPLINE
  5
103
100
AcDbEntity
  8
0
 62
7
100
AcDbSpline
 70
8
 71
3
 72
8
 73
4
 74
0
 40
0
 40
0
 40
0
 40
0
 40
1
 40
1
 40
1
 40
1
 10
114.659211
 20
-186.999727
 30
0.0
 10
114.164169
 20
-187.285539
 30
0.0
 10
113.859211
 20
-187.813742
 30
0.0
 10
113.859211
 20
-188.385367
 30
0.0
  0
SPLINE
  5
104
100
AcDbEntity
  8
0
 62
7
100
AcDbSpline
 70
8
 71
3
 72
8
 73
4
 74
0
 40
0
 40
0
 40
0
 40
0
 40
1
 40
1
 40
1
 40
1
 10
113.859211
 20
-188.385367
 30
0.0
 10
113.859211
 20
-188.956992
 30
0.0
 10
114.164169
 20
-189.485195
 30
0.0
 10
114.659211
 20
-189.771008
 30
0.0
  0
SPLINE
  5
105
100
AcDbEntity
  8
0
 62
7
100
AcDbSpline
 70
8
 71
3
 72
8
 73
4
 74
0
 40
0
 40
0
 40
0
 40
0
 40
1
 40
1
 40
1
 40
1
 10
114.659211
 20
-189.771008
 30
0.0
 10
115.154253
 20
-190.056820
 30
0.0
 10
115.764169
 20
-190.056820
 30
0.0
 10
116.259211
 20
-189.771008
 30
0.0
  0
SPLINE
  5
106
100
AcDbEntity
  8
0
 62
7
100
AcDbSpline
 70
8
 71
3
 72
8
 73
4
 74
0
 40
0
 40
0
 40
0
 40
0
 40
1
 40
1
 40
1
 40
1
 10
116.259211
 20
-189.771008
 30
0.0
 10
116.754253
 20
-189.485195
 30
0.0
 10
117.059211
 20
-188.956992
 30
0.0
 10
117.059211
 20
-188.385367
 30
0.0
  0
LWPOLYLINE
  5
107
100
AcDbEntity
  8
0
 62
7
100
AcDbPolyline
 90
22
 70
0
 10
190.592207
 20
-229.725118
 30
0.0
 10
190.592207
 20
-266.984431
 30
0.0
 10
236.092206
 20
-287.134410
 30
0.0
 10
236.092206
 20
-337.134416
 30
0.0
 10
203.092206
 20
-337.134416
 30
0.0
 10
150.592208
 20
-266.984431
 30
0.0
 10
22.592207
 20
-266.984431
 30
0.0
 10
-30.907794
 20
-337.134416
 30
0.0
 10
-63.907792
 20
-337.134416
 30
0.0
 10
-63.907792
 20
-287.134410
 30
0.0
 10
-17.407793
 20
-266.984431
 30
0.0
 10
-17.407793
 20
-66.984408
 30
0.0
 10
-63.907792
 20
-47.134414
 30
0.0
 10
-63.907792
 20
2.865592
 30
0.0
 10
-30.907794
 20
2.865592
 30
0.0
 10
22.592207
 20
-66.984408
 30
0.0
 10
150.592208
 20
-66.984408
 30
0.0
 10
203.092206
 20
2.865592
 30
0.0
 10
236.092206
 20
2.865592
 30
0.0
 10
236.092206
 20
-47.134414
 30
0.0
 10
190.592207
 20
-66.984408
 30
0.0
 10
190.592207
 20
-107.063332
 30
0.0
  0
SPLINE
  5
108
100
AcDbEntity
  8
0
 62
7
100
AcDbSpline
 70
8
 71
3
 72
8
 73
4
 74
0
 40
0
 40
0
 40
0
 40
0
 40
1
 40
1
 40
1
 40
1
 10
117.059211
 20
-148.403074
 30
0.0
 10
117.059211
 20
-147.831449
 30
0.0
 10
116.754253
 20
-147.303246
 30
0.0
 10
116.259211
 20
-147.017433
 30
0.0
  0
SPLINE
  5
109
100
AcDbEntity
  8
0
 62
7
100
AcDbSpline
 70
8
 71
3
 72
8
 73
4
 74
0
 40
0
 40
0
 40
0
 40
0
 40
1
 40
1
 40
1
 40
1
 10
116.259211
 20
-147.017433
 30
0.0
 10
115.764169
 20
-146.731621
 30
0.0
 10
115.154253
 20
-146.731621
 30
0.0
 10
114.659211
 20
-147.017433
 30
0.0
  0
SPLINE
  5
10a
100
AcDbEntity
  8
0
 62
7
100
AcDbSpline
 70
8
 71
3
 72
8
 73
4
 74
0
 40
0
 40
0
 40
0
 40
0
 40
1
 40
1
 40
1
 40
1
 10
114.659211
 20
-147.017433
 30
0.0
 10
114.164169
 20
-147.303246
 30
0.0
 10
113.859211
 20
-147.831449
 30
0.0
 10
113.859211
 20
-148.403074
 30
0.0
  0
SPLINE
  5
10b
100
AcDbEntity
  8
0
 62
7
100
AcDbSpline
 70
8
 71
3
 72
8
 73
4
 74
0
 40
0
 40
0
 40
0
 40
0
 40
1
 40
1
 40
1
 40
1
 10
113.859211
 20
-148.403074
 30
0.0
 10
113.859211
 20
-148.974699
 30
0.0
 10
114.164169
 20
-149.502902
 30
0.0
 10
114.659211
 20
-149.788715
 30
0.0
  0
SPLINE
  5
10c
100
AcDbEntity
  8
0
 62
7
100
AcDbSpline
 70
8
 71
3
 72
8
 73
4
 74
0
 40
0
 40
0
 40
0
 40
0
 40
1
 40
1
 40
1
 40
1
 10
114.659211
 20
-149.788715
 30
0.0
 10
115.154253
 20
-150.074527
 30
0.0
 10
115.764169
 20
-150.074527
 30
0.0
 10
116.259211
 20
-149.788715
 30
0.0
  0
SPLINE
  5
10d
100
AcDbEntity
  8
0
 62
7
100
AcDbSpline
 70
8
 71
3
 72
8
 73
4
 74
0
 40
0
 40
0
 40
0
 40
0
 40
1
 40
1
 40
1
 40
1
 10
116.259211
 20
-149.788715
 30
0.0
 10
116.754253
 20
-149.502902
 30
0.0
 10
117.059211
 20
-148.974699
 30
0.0
 10
117.059211
 20
-148.403074
 30
0.0
  0
LWPOLYLINE
  5
10e
100
AcDbEntity
  8
0
 62
7
100
AcDbPolyline
 90
1
 70
1
 10
117.059211
 20
-188.385367
 30
0.0
  0
SPLINE
  5
10f
100
AcDbEntity
  8
0
 62
7
100
AcDbSpline
 70
8
 71
3
 72
8
 73
4
 74
0
 40
0
 40
0
 40
0
 40
0
 40
1
 40
1
 40
1
 40
1
 10
162.092207
 20
-247.284418
 30
0.0
 10
162.092207
 20
-246.748520
 30
0.0
 10
161.806309
 20
-246.253329
 30
0.0
 10
161.342207
 20
-245.985380
 30
0.0
  0
SPLINE
  5
110
100
AcDbEntity
  8
0
 62
7
100
AcDbSpline
 70
8
 71
3
 72
8
 73
4
 74
0
 40
0
 40
0
 40
0
 40
0
 40
1
 40
1
 40
1
 40
1
 10
161.342207
 20
-245.985380
 30
0.0
 10
160.878105
 20
-245.717431
 30
0.0
 10
160.306309
 20
-245.717431
 30
0.0
 10
159.842207
 20
-245.985380
 30
0.0
  0
SPLINE
  5
111
100
AcDbEntity
  8
0
 62
7
100
AcDbSpline
 70
8
 71
3
 72
8
 73
4
 74
0
 40
0
 40
0
 40
0
 40
0
 40
1
 40
1
 40
1
 40
1
 10
159.842207
 20
-245.985380
 30
0.0
 10
159.378105
 20
-246.253329
 30
0.0
 10
159.092207
 20
-246.748520
 30
0.0
 10
159.092207
 20
-247.284418
 30
0.0
  0
SPLINE
  5
112
100
AcDbEntity
  8
0
 62
7
100
AcDbSpline
 70
8
 71
3
 72
8
 73
4
 74
0
 40
0
 40
0
 40
0
 40
0
 40
1
 40
1
 40
1
 40
1
 10
159.092207
 20
-247.284418
 30
0.0
 10
159.092207
 20
-247.820317
 30
0.0
 10
159.378105
 20
-248.315507
 30
0.0
 10
159.842207
 20
-248.583456
 30
0.0
  0
SPLINE
  5
113
100
AcDbEntity
  8
0
 62
7
100
AcDbSpline
 70
8
 71
3
 72
8
 73
4
 74
0
 40
0
 40
0
 40
0
 40
0
 40
1
 40
1
 40
1
 40
1
 10
159.842207
 20
-248.583456
 30
0.0
 10
160.306309
 20
-248.851406
 30
0.0
 10
160.878105
 20
-248.851406
 30
0.0
 10
161.342207
 20
-248.583456
 30
0.0
  0
SPLINE
  5
114
100
AcDbEntity
  8
0
 62
7
100
AcDbSpline
 70
8
 71
3
 72
8
 73
4
 74
0
 40
0
 40
0
 40
0
 40
0
 40
1
 40
1
 40
1
 40
1
 10
161.342207
 20
-248.583456
 30
0.0
 10
161.806309
 20
-248.315507
 30
0.0
 10
162.092207
 20
-247.820317
 30
0.0
 10
162.092207
 20
-247.284418
 30
0.0
  0
LWPOLYLINE
  5
115
100
AcDbEntity
  8
0
 62
7
100
AcDbPolyline
 90
1
 70
1
 10
117.059211
 20
-148.403074
 30
0.0
  0
SPLINE
  5
116
100
AcDbEntity
  8
0
 62
7
100
AcDbSpline
 70
8
 71
3
 72
8
 73
4
 74
0
 40
0
 40
0
 40
0
 40
0
 40
1
 40
1
 40
1
 40
1
 10
162.092207
 20
-227.284418
 30
0.0
 10
162.092207
 20
-226.748520
 30
0.0
 10
161.806309
 20
-226.253330
 30
0.0
 10
161.342207
 20
-225.985380
 30
0.0
  0
SPLINE
  5
117
100
AcDbEntity
  8
0
 62
7
100
AcDbSpline
 70
8
 71
3
 72
8
 73
4
 74
0
 40
0
 40
0
 40
0
 40
0
 40
1
 40
1
 40
1
 40
1
 10
161.342207
 20
-225.985380
 30
0.0
 10
160.878105
 20
-225.717431
 30
0.0
 10
160.306309
 20
-225.717431
 30
0.0
 10
159.842207
 20
-225.985380
 30
0.0
  0
SPLINE
  5
118
100
AcDbEntity
  8
0
 62
7
100
AcDbSpline
 70
8
 71
3
 72
8
 73
4
 74
0
 40
0
 40
0
 40
0
 40
0
 40
1
 40
1
 40
1
 40
1
 10
159.842207
 20
-225.985380
 30
0.0
 10
159.378105
 20
-226.253330
 30
0.0
 10
159.092207
 20
-226.748520
 30
0.0
 10
159.092207
 20
-227.284418
 30
0.0
  0
SPLINE
  5
119
100
AcDbEntity
  8
0
 62
7
100
AcDbSpline
 70
8
 71
3
 72
8
 73
4
 74
0
 40
0
 40
0
 40
0
 40
0
 40
1
 40
1
 40
1
 40
1
 10
159.092207
 20
-227.284418
 30
0.0
 10
159.092207
 20
-227.820317
 30
0.0
 10
159.378105
 20
-228.315507
 30
0.0
 10
159.842207
 20
-228.583456
 30
0.0
  0
SPLINE
  5
11a
100
AcDbEntity
  8
0
 62
7
100
AcDbSpline
 70
8
 71
3
 72
8
 73
4
 74
0
 40
0
 40
0
 40
0
 40
0
 40
1
 40
1
 40
1
 40
1
 10
159.842207
 20
-228.583456
 30
0.0
 10
160.306309
 20
-228.851406
 30
0.0
 10
160.878105
 20
-228.851406
 30
0.0
 10
161.342207
 20
-228.583456
 30
0.0
  0
SPLINE
  5
11b
100
AcDbEntity
  8
0
 62
7
100
AcDbSpline
 70
8
 71
3
 72
8
 73
4
 74
0
 40
0
 40
0
 40
0
 40
0
 40
1
 40
1
 40
1
 40
1
 10
161.342207
 20
-228.583456
 30
0.0
 10
161.806309
 20
-228.315507
 30
0.0
 10
162.092207
 20
-227.820317
 30
0.0
 10
162.092207
 20
-227.284418
 30
0.0
  0
LWPOLYLINE
  5
11c
100
AcDbEntity
  8
0
 62
7
100
AcDbPolyline
 90
1
 70
1
 10
162.092207
 20
-247.284418
 30
0.0
  0
SPLINE
  5
11d
100
AcDbEntity
  8
0
 62
7
100
AcDbSpline
 70
8
 71
3
 72
8
 73
4
 74
0
 40
0
 40
0
 40
0
 40
0
 40
1
 40
1
 40
1
 40
1
 10
182.092207
 20
-247.284418
 30
0.0
 10
182.092207
 20
-246.748520
 30
0.0
 10
181.806308
 20
-246.253329
 30
0.0
 10
181.342207
 20
-245.985380
 30
0.0
  0
SPLINE
  5
11e
100
AcDbEntity
  8
0
 62
7
100
AcDbSpline
 70
8
 71
3
 72
8
 73
4
 74
0
 40
0
 40
0
 40
0
 40
0
 40
1
 40
1
 40
1
 40
1
 10
181.342207
 20
-245.985380
 30
0.0
 10
180.878105
 20
-245.717431
 30
0.0
 10
180.306309
 20
-245.717431
 30
0.0
 10
179.842207
 20
-245.985380
 30
0.0
  0
SPLINE
  5
11f
100
AcDbEntity
  8
0
 62
7
100
AcDbSpline
 70
8
 71
3
 72
8
 73
4
 74
0
 40
0
 40
0
 40
0
 40
0
 40
1
 40
1
 40
1
 40
1
 10
179.842207
 20
-245.985380
 30
0.0
 10
179.378105
 20
-246.253329
 30
0.0
 10
179.092207
 20
-246.748520
 30
0.0
 10
179.092207
 20
-247.284418
 30
0.0
  0
SPLINE
  5
120
100
AcDbEntity
  8
0
 62
7
100
AcDbSpline
 70
8
 71
3
 72
8
 73
4
 74
0
 40
0
 40
0
 40
0
 40
0
 40
1
 40
1
 40
1
 40
1
 10
179.092207
 20
-247.284418
 30
0.0
 10
179.092207
 20
-247.820317
 30
0.0
 10
179.378105
 20
-248.315507
 30
0.0
 10
179.842207
 20
-248.583456
 30
0.0
  0
SPLINE
  5
121
100
AcDbEntity
  8
0
 62
7
100
AcDbSpline
 70
8
 71
3
 72
8
 73
4
 74
0
 40
0
 40
0
 40
0
 40
0
 40
1
 40
1
 40
1
 40
1
 10
179.842207
 20
-248.583456
 30
0.0
 10
180.306309
 20
-248.851406
 30
0.0
 10
180.878105
 20
-248.851406
 30
0.0
 10
181.342207
 20
-248.583456
 30
0.0
  0
SPLINE
  5
122
100
AcDbEntity
  8
0
 62
7
100
AcDbSpline
 70
8
 71
3
 72
8
 73
4
 74
0
 40
0
 40
0
 40
0
 40
0
 40
1
 40
1
 40
1
 40
1
 10
181.342207
 20
-248.583456
 30
0.0
 10
181.806308
 20
-248.315507
 30
0.0
 10
182.092207
 20
-247.820317
 30
0.0
 10
182.092207
 20
-247.284418
 30
0.0
  0
LWPOLYLINE
  5
123
100
AcDbEntity
  8
0
 62
7
100
AcDbPolyline
 90
1
 70
1
 10
162.092207
 20
-227.284418
 30
0.0
  0
SPLINE
  5
124
100
AcDbEntity
  8
0
 62
7
100
AcDbSpline
 70
8
 71
3
 72
8
 73
4
 74
0
 40
0
 40
0
 40
0
 40
0
 40
1
 40
1
 40
1
 40
1
 10
182.092207
 20
-227.284418
 30
0.0
 10
182.092207
 20
-226.748520
 30
0.0
 10
181.806308
 20
-226.253330
 30
0.0
 10
181.342207
 20
-225.985380
 30
0.0
  0
SPLINE
  5
125
100
AcDbEntity
  8
0
 62
7
100
AcDbSpline
 70
8
 71
3
 72
8
 73
4
 74
0
 40
0
 40
0
 40
0
 40
0
 40
1
 40
1
 40
1
 40
1
 10
181.342207
 20
-225.985380
 30
0.0
 10
180.878105
 20
-225.717431
 30
0.0
 10
180.306309
 20
-225.717431
 30
0.0
 10
179.842207
 20
-225.985380
 30
0.0
  0
SPLINE
  5
126
100
AcDbEntity
  8
0
 62
7
100
AcDbSpline
 70
8
 71
3
 72
8
 73
4
 74
0
 40
0
 40
0
 40
0
 40
0
 40
1
 40
1
 40
1
 40
1
 10
179.842207
 20
-225.985380
 30
0.0
 10
179.378105
 20
-226.253330
 30
0.0
 10
179.092207
 20
-226.748520
 30
0.0
 10
179.092207
 20
-227.284418
 30
0.0
  0
SPLINE
  5
127
100
AcDbEntity
  8
0
 62
7
100
AcDbSpline
 70
8
 71
3
 72
8
 73
4
 74
0
 40
0
 40
0
 40
0
 40
0
 40
1
 40
1
 40
1
 40
1
 10
179.092207
 20
-227.284418
 30
0.0
 10
179.092207
 20
-227.820317
 30
0.0
 10
179.378105
 20
-228.315507
 30
0.0
 10
179.842207
 20
-228.583456
 30
0.0
  0
SPLINE
  5
128
100
AcDbEntity
  8
0
 62
7
100
AcDbSpline
 70
8
 71
3
 72
8
 73
4
 74
0
 40
0
 40
0
 40
0
 40
0
 40
1
 40
1
 40
1
 40
1
 10
179.842207
 20
-228.583456
 30
0.0
 10
180.306309
 20
-228.851406
 30
0.0
 10
180.878105
 20
-228.851406
 30
0.0
 10
181.342207
 20
-228.583456
 30
0.0
  0
SPLINE
  5
129
100
AcDbEntity
  8
0
 62
7
100
AcDbSpline
 70
8
 71
3
 72
8
 73
4
 74
0
 40
0
 40
0
 40
0
 40
0
 40
1
 40
1
 40
1
 40
1
 10
181.342207
 20
-228.583456
 30
0.0
 10
181.806308
 20
-228.315507
 30
0.0
 10
182.092207
 20
-227.820317
 30
0.0
 10
182.092207
 20
-227.284418
 30
0.0
  0
LWPOLYLINE
  5
12a
100
AcDbEntity
  8
0
 62
7
100
AcDbPolyline
 90
1
 70
1
 10
182.092207
 20
-247.284418
 30
0.0
  0
SPLINE
  5
12b
100
AcDbEntity
  8
0
 62
7
100
AcDbSpline
 70
8
 71
3
 72
8
 73
4
 74
0
 40
0
 40
0
 40
0
 40
0
 40
1
 40
1
 40
1
 40
1
 10
14.092207
 20
-177.134418
 30
0.0
 10
14.092207
 20
-176.598520
 30
0.0
 10
13.806308
 20
-176.103330
 30
0.0
 10
13.342207
 20
-175.835380
 30
0.0
  0
SPLINE
  5
12c
100
AcDbEntity
  8
0
 62
7
100
AcDbSpline
 70
8
 71
3
 72
8
 73
4
 74
0
 40
0
 40
0
 40
0
 40
0
 40
1
 40
1
 40
1
 40
1
 10
13.342207
 20
-175.835380
 30
0.0
 10
12.878105
 20
-175.567431
 30
0.0
 10
12.306309
 20
-175.567431
 30
0.0
 10
11.842207
 20
-175.835380
 30
0.0
  0
SPLINE
  5
12d
100
AcDbEntity
  8
0
 62
7
100
AcDbSpline
 70
8
 71
3
 72
8
 73
4
 74
0
 40
0
 40
0
 40
0
 40
0
 40
1
 40
1
 40
1
 40
1
 10
11.842207
 20
-175.835380
 30
0.0
 10
11.378105
 20
-176.103330
 30
0.0
 10
11.092207
 20
-176.598520
 30
0.0
 10
11.092207
 20
-177.134418
 30
0.0
  0
SPLINE
  5
12e
100
AcDbEntity
  8
0
 62
7
100
AcDbSpline
 70
8
 71
3
 72
8
 73
4
 74
0
 40
0
 40
0
 40
0
 40
0
 40
1
 40
1
 40
1
 40
1
 10
11.092207
 20
-177.134418
 30
0.0
 10
11.092207
 20
-177.670317
 30
0.0
 10
11.378105
 20
-178.165507
 30
0.0
 10
11.842207
 20
-178.433456
 30
0.0
  0
SPLINE
  5
12f
100
AcDbEntity
  8
0
 62
7
100
AcDbSpline
 70
8
 71
3
 72
8
 73
4
 74
0
 40
0
 40
0
 40
0
 40
0
 40
1
 40
1
 40
1
 40
1
 10
11.842207
 20
-178.433456
 30
0.0
 10
12.306309
 20
-178.701406
 30
0.0
 10
12.878105
 20
-178.701406
 30
0.0
 10
13.342207
 20
-178.433456
 30
0.0
  0
SPLINE
  5
130
100
AcDbEntity
  8
0
 62
7
100
AcDbSpline
 70
8
 71
3
 72
8
 73
4
 74
0
 40
0
 40
0
 40
0
 40
0
 40
1
 40
1
 40
1
 40
1
 10
13.342207
 20
-178.433456
 30
0.0
 10
13.806308
 20
-178.165507
 30
0.0
 10
14.092207
 20
-177.670317
 30
0.0
 10
14.092207
 20
-177.134418
 30
0.0
  0
LWPOLYLINE
  5
131
100
AcDbEntity
  8
0
 62
7
100
AcDbPolyline
 90
1
 70
1
 10
182.092207
 20
-227.284418
 30
0.0
  0
SPLINE
  5
132
100
AcDbEntity
  8
0
 62
7
100
AcDbSpline
 70
8
 71
3
 72
8
 73
4
 74
0
 40
0
 40
0
 40
0
 40
0
 40
1
 40
1
 40
1
 40
1
 10
182.092207
 20
-106.984418
 30
0.0
 10
182.092207
 20
-106.448520
 30
0.0
 10
181.806308
 20
-105.953329
 30
0.0
 10
181.342207
 20
-105.685380
 30
0.0
  0
SPLINE
  5
133
100
AcDbEntity
  8
0
 62
7
100
AcDbSpline
 70
8
 71
3
 72
8
 73
4
 74
0
 40
0
 40
0
 40
0
 40
0
 40
1
 40
1
 40
1
 40
1
 10
181.342207
 20
-105.685380
 30
0.0
 10
180.878105
 20
-105.417431
 30
0.0
 10
180.306309
 20
-105.417431
 30
0.0
 10
179.842207
 20
-105.685380
 30
0.0
  0
SPLINE
  5
134
100
AcDbEntity
  8
0
 62
7
100
AcDbSpline
 70
8
 71
3
 72
8
 73
4
 74
0
 40
0
 40
0
 40
0
 40
0
 40
1
 40
1
 40
1
 40
1
 10
179.842207
 20
-105.685380
 30
0.0
 10
179.378105
 20
-105.953329
 30
0.0
 10
179.092207
 20
-106.448520
 30
0.0
 10
179.092207
 20
-106.984418
 30
0.0
  0
SPLINE
  5
135
100
AcDbEntity
  8
0
 62
7
100
AcDbSpline
 70
8
 71
3
 72
8
 73
4
 74
0
 40
0
 40
0
 40
0
 40
0
 40
1
 40
1
 40
1
 40
1
 10
179.092207
 20
-106.984418
 30
0.0
 10
179.092207
 20
-107.520317
 30
0.0
 10
179.378105
 20
-108.015507
 30
0.0
 10
179.842207
 20
-108.283456
 30
0.0
  0
SPLINE
  5
136
100
AcDbEntity
  8
0
 62
7
100
AcDbSpline
 70
8
 71
3
 72
8
 73
4
 74
0
 40
0
 40
0
 40
0
 40
0
 40
1
 40
1
 40
1
 40
1
 10
179.842207
 20
-108.283456
 30
0.0
 10
180.306309
 20
-108.551405
 30
0.0
 10
180.878105
 20
-108.551405
 30
0.0
 10
181.342207
 20
-108.283456
 30
0.0
  0
SPLINE
  5
137
100
AcDbEntity
  8
0
 62
7
100
AcDbSpline
 70
8
 71
3
 72
8
 73
4
 74
0
 40
0
 40
0
 40
0
 40
0
 40
1
 40
1
 40
1
 40
1
 10
181.342207
 20
-108.283456
 30
0.0
 10
181.806308
 20
-108.015507
 30
0.0
 10
182.092207
 20
-107.520317
 30
0.0
 10
182.092207
 20
-106.984418
 30
0.0
  0
LWPOLYLINE
  5
138
100
AcDbEntity
  8
0
 62
7
100
AcDbPolyline
 90
1
 70
1
 10
14.092207
 20
-177.134418
 30
0.0
  0
SPLINE
  5
139
100
AcDbEntity
  8
0
 62
7
100
AcDbSpline
 70
8
 71
3
 72
8
 73
4
 74
0
 40
0
 40
0
 40
0
 40
0
 40
1
 40
1
 40
1
 40
1
 10
162.092207
 20
-86.984418
 30
0.0
 10
162.092207
 20
-86.448520
 30
0.0
 10
161.806309
 20
-85.953329
 30
0.0
 10
161.342207
 20
-85.685380
 30
0.0
  0
SPLINE
  5
13a
100
AcDbEntity
  8
0
 62
7
100
AcDbSpline
 70
8
 71
3
 72
8
 73
4
 74
0
 40
0
 40
0
 40
0
 40
0
 40
1
 40
1
 40
1
 40
1
 10
161.342207
 20
-85.685380
 30
0.0
 10
160.878105
 20
-85.417431
 30
0.0
 10
160.306309
 20
-85.417431
 30
0.0
 10
159.842207
 20
-85.685380
 30
0.0
  0
SPLINE
  5
13b
100
AcDbEntity
  8
0
 62
7
100
AcDbSpline
 70
8
 71
3
 72
8
 73
4
 74
0
 40
0
 40
0
 40
0
 40
0
 40
1
 40
1
 40
1
 40
1
 10
159.842207
 20
-85.685380
 30
0.0
 10
159.378105
 20
-85.953329
 30
0.0
 10
159.092207
 20
-86.448520
 30
0.0
 10
159.092207
 20
-86.984418
 30
0.0
  0
SPLINE
  5
13c
100
AcDbEntity
  8
0
 62
7
100
AcDbSpline
 70
8
 71
3
 72
8
 73
4
 74
0
 40
0
 40
0
 40
0
 40
0
 40
1
 40
1
 40
1
 40
1
 10
159.092207
 20
-86.984418
 30
0.0
 10
159.092207
 20
-87.520317
 30
0.0
 10
159.378105
 20
-88.015507
 30
0.0
 10
159.842207
 20
-88.283456
 30
0.0
  0
SPLINE
  5
13d
100
AcDbEntity
  8
0
 62
7
100
AcDbSpline
 70
8
 71
3
 72
8
 73
4
 74
0
 40
0
 40
0
 40
0
 40
0
 40
1
 40
1
 40
1
 40
1
 10
159.842207
 20
-88.283456
 30
0.0
 10
160.306309
 20
-88.551405
 30
0.0
 10
160.878105
 20
-88.551405
 30
0.0
 10
161.342207
 20
-88.283456
 30
0.0
  0
SPLINE
  5
13e
100
AcDbEntity
  8
0
 62
7
100
AcDbSpline
 70
8
 71
3
 72
8
 73
4
 74
0
 40
0
 40
0
 40
0
 40
0
 40
1
 40
1
 40
1
 40
1
 10
161.342207
 20
-88.283456
 30
0.0
 10
161.806309
 20
-88.015507
 30
0.0
 10
162.092207
 20
-87.520317
 30
0.0
 10
162.092207
 20
-86.984418
 30
0.0
  0
LWPOLYLINE
  5
13f
100
AcDbEntity
  8
0
 62
7
100
AcDbPolyline
 90
1
 70
1
 10
182.092207
 20
-106.984418
 30
0.0
  0
SPLINE
  5
140
100
AcDbEntity
  8
0
 62
7
100
AcDbSpline
 70
8
 71
3
 72
8
 73
4
 74
0
 40
0
 40
0
 40
0
 40
0
 40
1
 40
1
 40
1
 40
1
 10
14.092207
 20
-157.134418
 30
0.0
 10
14.092207
 20
-156.598520
 30
0.0
 10
13.806308
 20
-156.103330
 30
0.0
 10
13.342207
 20
-155.835380
 30
0.0
  0
SPLINE
  5
141
100
AcDbEntity
  8
0
 62
7
100
AcDbSpline
 70
8
 71
3
 72
8
 73
4
 74
0
 40
0
 40
0
 40
0
 40
0
 40
1
 40
1
 40
1
 40
1
 10
13.342207
 20
-155.835380
 30
0.0
 10
12.878105
 20
-155.567431
 30
0.0
 10
12.306309
 20
-155.567431
 30
0.0
 10
11.842207
 20
-155.835380
 30
0.0
  0
SPLINE
  5
142
100
AcDbEntity
  8
0
 62
7
100
AcDbSpline
 70
8
 71
3
 72
8
 73
4
 74
0
 40
0
 40
0
 40
0
 40
0
 40
1
 40
1
 40
1
 40
1
 10
11.842207
 20
-155.835380
 30
0.0
 10
11.378105
 20
-156.103330
 30
0.0
 10
11.092207
 20
-156.598520
 30
0.0
 10
11.092207
 20
-157.134418
 30
0.0
  0
SPLINE
  5
143
100
AcDbEntity
  8
0
 62
7
100
AcDbSpline
 70
8
 71
3
 72
8
 73
4
 74
0
 40
0
 40
0
 40
0
 40
0
 40
1
 40
1
 40
1
 40
1
 10
11.092207
 20
-157.134418
 30
0.0
 10
11.092207
 20
-157.670317
 30
0.0
 10
11.378105
 20
-158.165507
 30
0.0
 10
11.842207
 20
-158.433457
 30
0.0
  0
SPLINE
  5
144
100
AcDbEntity
  8
0
 62
7
100
AcDbSpline
 70
8
 71
3
 72
8
 73
4
 74
0
 40
0
 40
0
 40
0
 40
0
 40
1
 40
1
 40
1
 40
1
 10
11.842207
 20
-158.433457
 30
0.0
 10
12.306309
 20
-158.701406
 30
0.0
 10
12.878105
 20
-158.701406
 30
0.0
 10
13.342207
 20
-158.433457
 30
0.0
  0
SPLINE
  5
145
100
AcDbEntity
  8
0
 62
7
100
AcDbSpline
 70
8
 71
3
 72
8
 73
4
 74
0
 40
0
 40
0
 40
0
 40
0
 40
1
 40
1
 40
1
 40
1
 10
13.342207
 20
-158.433457
 30
0.0
 10
13.806308
 20
-158.165507
 30
0.0
 10
14.092207
 20
-157.670317
 30
0.0
 10
14.092207
 20
-157.134418
 30
0.0
  0
LWPOLYLINE
  5
146
100
AcDbEntity
  8
0
 62
7
100
AcDbPolyline
 90
1
 70
1
 10
162.092207
 20
-86.984418
 30
0.0
  0
SPLINE
  5
147
100
AcDbEntity
  8
0
 62
7
100
AcDbSpline
 70
8
 71
3
 72
8
 73
4
 74
0
 40
0
 40
0
 40
0
 40
0
 40
1
 40
1
 40
1
 40
1
 10
162.092207
 20
-106.984418
 30
0.0
 10
162.092207
 20
-106.448520
 30
0.0
 10
161.806309
 20
-105.953329
 30
0.0
 10
161.342207
 20
-105.685380
 30
0.0
  0
SPLINE
  5
148
100
AcDbEntity
  8
0
 62
7
100
AcDbSpline
 70
8
 71
3
 72
8
 73
4
 74
0
 40
0
 40
0
 40
0
 40
0
 40
1
 40
1
 40
1
 40
1
 10
161.342207
 20
-105.685380
 30
0.0
 10
160.878105
 20
-105.417431
 30
0.0
 10
160.306309
 20
-105.417431
 30
0.0
 10
159.842207
 20
-105.685380
 30
0.0
  0
SPLINE
  5
149
100
AcDbEntity
  8
0
 62
7
100
AcDbSpline
 70
8
 71
3
 72
8
 73
4
 74
0
 40
0
 40
0
 40
0
 40
0
 40
1
 40
1
 40
1
 40
1
 10
159.842207
 20
-105.685380
 30
0.0
 10
159.378105
 20
-105.953329
 30
0.0
 10
159.092207
 20
-106.448520
 30
0.0
 10
159.092207
 20
-106.984418
 30
0.0
  0
SPLINE
  5
14a
100
AcDbEntity
  8
0
 62
7
100
AcDbSpline
 70
8
 71
3
 72
8
 73
4
 74
0
 40
0
 40
0
 40
0
 40
0
 40
1
 40
1
 40
1
 40
1
 10
159.092207
 20
-106.984418
 30
0.0
 10
159.092207
 20
-107.520317
 30
0.0
 10
159.378105
 20
-108.015507
 30
0.0
 10
159.842207
 20
-108.283456
 30
0.0
  0
SPLINE
  5
14b
100
AcDbEntity
  8
0
 62
7
100
AcDbSpline
 70
8
 71
3
 72
8
 73
4
 74
0
 40
0
 40
0
 40
0
 40
0
 40
1
 40
1
 40
1
 40
1
 10
159.842207
 20
-108.283456
 30
0.0
 10
160.306309
 20
-108.551405
 30
0.0
 10
160.878105
 20
-108.551405
 30
0.0
 10
161.342207
 20
-108.283456
 30
0.0
  0
SPLINE
  5
14c
100
AcDbEntity
  8
0
 62
7
100
AcDbSpline
 70
8
 71
3
 72
8
 73
4
 74
0
 40
0
 40
0
 40
0
 40
0
 40
1
 40
1
 40
1
 40
1
 10
161.342207
 20
-108.283456
 30
0.0
 10
161.806309
 20
-108.015507
 30
0.0
 10
162.092207
 20
-107.520317
 30
0.0
 10
162.092207
 20
-106.984418
 30
0.0
  0
LWPOLYLINE
  5
14d
100
AcDbEntity
  8
0
 62
7
100
AcDbPolyline
 90
1
 70
1
 10
14.092207
 20
-157.134418
 30
0.0
  0
SPLINE
  5
14e
100
AcDbEntity
  8
0
 62
7
100
AcDbSpline
 70
8
 71
3
 72
8
 73
4
 74
0
 40
0
 40
0
 40
0
 40
0
 40
1
 40
1
 40
1
 40
1
 10
182.092207
 20
-86.984418
 30
0.0
 10
182.092207
 20
-86.448520
 30
0.0
 10
181.806308
 20
-85.953329
 30
0.0
 10
181.342207
 20
-85.685380
 30
0.0
  0
SPLINE
  5
14f
100
AcDbEntity
  8
0
 62
7
100
AcDbSpline
 70
8
 71
3
 72
8
 73
4
 74
0
 40
0
 40
0
 40
0
 40
0
 40
1
 40
1
 40
1
 40
1
 10
181.342207
 20
-85.685380
 30
0.0
 10
180.878105
 20
-85.417431
 30
0.0
 10
180.306309
 20
-85.417431
 30
0.0
 10
179.842207
 20
-85.685380
 30
0.0
  0
SPLINE
  5
150
100
AcDbEntity
  8
0
 62
7
100
AcDbSpline
 70
8
 71
3
 72
8
 73
4
 74
0
 40
0
 40
0
 40
0
 40
0
 40
1
 40
1
 40
1
 40
1
 10
179.842207
 20
-85.685380
 30
0.0
 10
179.378105
 20
-85.953329
 30
0.0
 10
179.092207
 20
-86.448520
 30
0.0
 10
179.092207
 20
-86.984418
 30
0.0
  0
SPLINE
  5
151
100
AcDbEntity
  8
0
 62
7
100
AcDbSpline
 70
8
 71
3
 72
8
 73
4
 74
0
 40
0
 40
0
 40
0
 40
0
 40
1
 40
1
 40
1
 40
1
 10
179.092207
 20
-86.984418
 30
0.0
 10
179.092207
 20
-87.520317
 30
0.0
 10
179.378105
 20
-88.015507
 30
0.0
 10
179.842207
 20
-88.283456
 30
0.0
  0
SPLINE
  5
152
100
AcDbEntity
  8
0
 62
7
100
AcDbSpline
 70
8
 71
3
 72
8
 73
4
 74
0
 40
0
 40
0
 40
0
 40
0
 40
1
 40
1
 40
1
 40
1
 10
179.842207
 20
-88.283456
 30
0.0
 10
180.306309
 20
-88.551405
 30
0.0
 10
180.878105
 20
-88.551405
 30
0.0
 10
181.342207
 20
-88.283456
 30
0.0
  0
SPLINE
  5
153
100
AcDbEntity
  8
0
 62
7
100
AcDbSpline
 70
8
 71
3
 72
8
 73
4
 74
0
 40
0
 40
0
 40
0
 40
0
 40
1
 40
1
 40
1
 40
1
 10
181.342207
 20
-88.283456
 30
0.0
 10
181.806308
 20
-88.015507
 30
0.0
 10
182.092207
 20
-87.520317
 30
0.0
 10
182.092207
 20
-86.984418
 30
0.0
  0
LWPOLYLINE
  5
154
100
AcDbEntity
  8
0
 62
7
100
AcDbPolyline
 90
1
 70
1
 10
162.092207
 20
-106.984418
 30
0.0
  0
SPLINE
  5
155
100
AcDbEntity
  8
0
 62
7
100
AcDbSpline
 70
8
 71
3
 72
8
 73
4
 74
0
 40
0
 40
0
 40
0
 40
0
 40
1
 40
1
 40
1
 40
1
 10
-5.907793
 20
-157.134418
 30
0.0
 10
-5.907793
 20
-156.598520
 30
0.0
 10
-6.193692
 20
-156.103330
 30
0.0
 10
-6.657793
 20
-155.835380
 30
0.0
  0
SPLINE
  5
156
100
AcDbEntity
  8
0
 62
7
100
AcDbSpline
 70
8
 71
3
 72
8
 73
4
 74
0
 40
0
 40
0
 40
0
 40
0
 40
1
 40
1
 40
1
 40
1
 10
-6.657793
 20
-155.835380
 30
0.0
 10
-7.121895
 20
-155.567431
 30
0.0
 10
-7.693691
 20
-155.567431
 30
0.0
 10
-8.157793
 20
-155.835380
 30
0.0
  0
SPLINE
  5
157
100
AcDbEntity
  8
0
 62
7
100
AcDbSpline
 70
8
 71
3
 72
8
 73
4
 74
0
 40
0
 40
0
 40
0
 40
0
 40
1
 40
1
 40
1
 40
1
 10
-8.157793
 20
-155.835380
 30
0.0
 10
-8.621895
 20
-156.103330
 30
0.0
 10
-8.907793
 20
-156.598520
 30
0.0
 10
-8.907793
 20
-157.134418
 30
0.0
  0
SPLINE
  5
158
100
AcDbEntity
  8
0
 62
7
100
AcDbSpline
 70
8
 71
3
 72
8
 73
4
 74
0
 40
0
 40
0
 40
0
 40
0
 40
1
 40
1
 40
1
 40
1
 10
-8.907793
 20
-157.134418
 30
0.0
 10
-8.907793
 20
-157.670317
 30
0.0
 10
-8.621895
 20
-158.165507
 30
0.0
 10
-8.157793
 20
-158.433456
 30
0.0
  0
SPLINE
  5
159
100
AcDbEntity
  8
0
 62
7
100
AcDbSpline
 70
8
 71
3
 72
8
 73
4
 74
0
 40
0
 40
0
 40
0
 40
0
 40
1
 40
1
 40
1
 40
1
 10
-8.157793
 20
-158.433456
 30
0.0
 10
-7.693691
 20
-158.701406
 30
0.0
 10
-7.121895
 20
-158.701406
 30
0.0
 10
-6.657793
 20
-158.433456
 30
0.0
  0
SPLINE
  5
15a
100
AcDbEntity
  8
0
 62
7
100
AcDbSpline
 70
8
 71
3
 72
8
 73
4
 74
0
 40
0
 40
0
 40
0
 40
0
 40
1
 40
1
 40
1
 40
1
 10
-6.657793
 20
-158.433456
 30
0.0
 10
-6.193692
 20
-158.165507
 30
0.0
 10
-5.907793
 20
-157.670317
 30
0.0
 10
-5.907793
 20
-157.134418
 30
0.0
  0
LWPOLYLINE
  5
15b
100
AcDbEntity
  8
0
 62
7
100
AcDbPolyline
 90
1
 70
1
 10
182.092207
 20
-86.984418
 30
0.0
  0
SPLINE
  5
15c
100
AcDbEntity
  8
0
 62
7
100
AcDbSpline
 70
8
 71
3
 72
8
 73
4
 74
0
 40
0
 40
0
 40
0
 40
0
 40
1
 40
1
 40
1
 40
1
 10
-5.907793
 20
-177.134418
 30
0.0
 10
-5.907793
 20
-176.598520
 30
0.0
 10
-6.193692
 20
-176.103330
 30
0.0
 10
-6.657793
 20
-175.835380
 30
0.0
  0
SPLINE
  5
15d
100
AcDbEntity
  8
0
 62
7
100
AcDbSpline
 70
8
 71
3
 72
8
 73
4
 74
0
 40
0
 40
0
 40
0
 40
0
 40
1
 40
1
 40
1
 40
1
 10
-6.657793
 20
-175.835380
 30
0.0
 10
-7.121895
 20
-175.567431
 30
0.0
 10
-7.693691
 20
-175.567431
 30
0.0
 10
-8.157793
 20
-175.835380
 30
0.0
  0
SPLINE
  5
15e
100
AcDbEntity
  8
0
 62
7
100
AcDbSpline
 70
8
 71
3
 72
8
 73
4
 74
0
 40
0
 40
0
 40
0
 40
0
 40
1
 40
1
 40
1
 40
1
 10
-8.157793
 20
-175.835380
 30
0.0
 10
-8.621895
 20
-176.103330
 30
0.0
 10
-8.907793
 20
-176.598520
 30
0.0
 10
-8.907793
 20
-177.134418
 30
0.0
  0
SPLINE
  5
15f
100
AcDbEntity
  8
0
 62
7
100
AcDbSpline
 70
8
 71
3
 72
8
 73
4
 74
0
 40
0
 40
0
 40
0
 40
0
 40
1
 40
1
 40
1
 40
1
 10
-8.907793
 20
-177.134418
 30
0.0
 10
-8.907793
 20
-177.670317
 30
0.0
 10
-8.621895
 20
-178.165507
 30
0.0
 10
-8.157793
 20
-178.433456
 30
0.0
  0
SPLINE
  5
160
100
AcDbEntity
  8
0
 62
7
100
AcDbSpline
 70
8
 71
3
 72
8
 73
4
 74
0
 40
0
 40
0
 40
0
 40
0
 40
1
 40
1
 40
1
 40
1
 10
-8.157793
 20
-178.433456
 30
0.0
 10
-7.693691
 20
-178.701406
 30
0.0
 10
-7.121895
 20
-178.701406
 30
0.0
 10
-6.657793
 20
-178.433456
 30
0.0
  0
SPLINE
  5
161
100
AcDbEntity
  8
0
 62
7
100
AcDbSpline
 70
8
 71
3
 72
8
 73
4
 74
0
 40
0
 40
0
 40
0
 40
0
 40
1
 40
1
 40
1
 40
1
 10
-6.657793
 20
-178.433456
 30
0.0
 10
-6.193692
 20
-178.165507
 30
0.0
 10
-5.907793
 20
-177.670317
 30
0.0
 10
-5.907793
 20
-177.134418
 30
0.0
  0
LWPOLYLINE
  5
162
100
AcDbEntity
  8
0
 62
7
100
AcDbPolyline
 90
1
 70
1
 10
-5.907793
 20
-157.134418
 30
0.0
  0
SPLINE
  5
163
100
AcDbEntity
  8
0
 62
7
100
AcDbSpline
 70
8
 71
3
 72
8
 73
4
 74
0
 40
0
 40
0
 40
0
 40
0
 40
1
 40
1
 40
1
 40
1
 10
14.092207
 20
-247.284418
 30
0.0
 10
14.092207
 20
-246.748520
 30
0.0
 10
13.806308
 20
-246.253329
 30
0.0
 10
13.342207
 20
-245.985380
 30
0.0
  0
SPLINE
  5
164
100
AcDbEntity
  8
0
 62
7
100
AcDbSpline
 70
8
 71
3
 72
8
 73
4
 74
0
 40
0
 40
0
 40
0
 40
0
 40
1
 40
1
 40
1
 40
1
 10
13.342207
 20
-245.985380
 30
0.0
 10
12.878105
 20
-245.717431
 30
0.0
 10
12.306309
 20
-245.717431
 30
0.0
 10
11.842207
 20
-245.985380
 30
0.0
  0
SPLINE
  5
165
100
AcDbEntity
  8
0
 62
7
100
AcDbSpline
 70
8
 71
3
 72
8
 73
4
 74
0
 40
0
 40
0
 40
0
 40
0
 40
1
 40
1
 40
1
 40
1
 10
11.842207
 20
-245.985380
 30
0.0
 10
11.378105
 20
-246.253329
 30
0.0
 10
11.092207
 20
-246.748520
 30
0.0
 10
11.092207
 20
-247.284418
 30
0.0
  0
SPLINE
  5
166
100
AcDbEntity
  8
0
 62
7
100
AcDbSpline
 70
8
 71
3
 72
8
 73
4
 74
0
 40
0
 40
0
 40
0
 40
0
 40
1
 40
1
 40
1
 40
1
 10
11.092207
 20
-247.284418
 30
0.0
 10
11.092207
 20
-247.820317
 30
0.0
 10
11.378105
 20
-248.315507
 30
0.0
 10
11.842207
 20
-248.583456
 30
0.0
  0
SPLINE
  5
167
100
AcDbEntity
  8
0
 62
7
100
AcDbSpline
 70
8
 71
3
 72
8
 73
4
 74
0
 40
0
 40
0
 40
0
 40
0
 40
1
 40
1
 40
1
 40
1
 10
11.842207
 20
-248.583456
 30
0.0
 10
12.306309
 20
-248.851406
 30
0.0
 10
12.878105
 20
-248.851406
 30
0.0
 10
13.342207
 20
-248.583456
 30
0.0
  0
SPLINE
  5
168
100
AcDbEntity
  8
0
 62
7
100
AcDbSpline
 70
8
 71
3
 72
8
 73
4
 74
0
 40
0
 40
0
 40
0
 40
0
 40
1
 40
1
 40
1
 40
1
 10
13.342207
 20
-248.583456
 30
0.0
 10
13.806308
 20
-248.315507
 30
0.0
 10
14.092207
 20
-247.820317
 30
0.0
 10
14.092207
 20
-247.284418
 30
0.0
  0
LWPOLYLINE
  5
169
100
AcDbEntity
  8
0
 62
7
100
AcDbPolyline
 90
1
 70
1
 10
-5.907793
 20
-177.134418
 30
0.0
  0
SPLINE
  5
16a
100
AcDbEntity
  8
0
 62
7
100
AcDbSpline
 70
8
 71
3
 72
8
 73
4
 74
0
 40
0
 40
0
 40
0
 40
0
 40
1
 40
1
 40
1
 40
1
 10
-5.907793
 20
-227.284418
 30
0.0
 10
-5.907793
 20
-226.748520
 30
0.0
 10
-6.193692
 20
-226.253330
 30
0.0
 10
-6.657793
 20
-225.985380
 30
0.0
  0
SPLINE
  5
16b
100
AcDbEntity
  8
0
 62
7
100
AcDbSpline
 70
8
 71
3
 72
8
 73
4
 74
0
 40
0
 40
0
 40
0
 40
0
 40
1
 40
1
 40
1
 40
1
 10
-6.657793
 20
-225.985380
 30
0.0
 10
-7.121895
 20
-225.717431
 30
0.0
 10
-7.693691
 20
-225.717431
 30
0.0
 10
-8.157793
 20
-225.985380
 30
0.0
  0
SPLINE
  5
16c
100
AcDbEntity
  8
0
 62
7
100
AcDbSpline
 70
8
 71
3
 72
8
 73
4
 74
0
 40
0
 40
0
 40
0
 40
0
 40
1
 40
1
 40
1
 40
1
 10
-8.157793
 20
-225.985380
 30
0.0
 10
-8.621895
 20
-226.253330
 30
0.0
 10
-8.907793
 20
-226.748520
 30
0.0
 10
-8.907793
 20
-227.284418
 30
0.0
  0
SPLINE
  5
16d
100
AcDbEntity
  8
0
 62
7
100
AcDbSpline
 70
8
 71
3
 72
8
 73
4
 74
0
 40
0
 40
0
 40
0
 40
0
 40
1
 40
1
 40
1
 40
1
 10
-8.907793
 20
-227.284418
 30
0.0
 10
-8.907793
 20
-227.820317
 30
0.0
 10
-8.621895
 20
-228.315507
 30
0.0
 10
-8.157793
 20
-228.583456
 30
0.0
  0
SPLINE
  5
16e
100
AcDbEntity
  8
0
 62
7
100
AcDbSpline
 70
8
 71
3
 72
8
 73
4
 74
0
 40
0
 40
0
 40
0
 40
0
 40
1
 40
1
 40
1
 40
1
 10
-8.157793
 20
-228.583456
 30
0.0
 10
-7.693691
 20
-228.851406
 30
0.0
 10
-7.121895
 20
-228.851406
 30
0.0
 10
-6.657793
 20
-228.583456
 30
0.0
  0
SPLINE
  5
16f
100
AcDbEntity
  8
0
 62
7
100
AcDbSpline
 70
8
 71
3
 72
8
 73
4
 74
0
 40
0
 40
0
 40
0
 40
0
 40
1
 40
1
 40
1
 40
1
 10
-6.657793
 20
-228.583456
 30
0.0
 10
-6.193692
 20
-228.315507
 30
0.0
 10
-5.907793
 20
-227.820317
 30
0.0
 10
-5.907793
 20
-227.284418
 30
0.0
  0
LWPOLYLINE
  5
170
100
AcDbEntity
  8
0
 62
7
100
AcDbPolyline
 90
1
 70
1
 10
14.092207
 20
-247.284418
 30
0.0
  0
SPLINE
  5
171
100
AcDbEntity
  8
0
 62
7
100
AcDbSpline
 70
8
 71
3
 72
8
 73
4
 74
0
 40
0
 40
0
 40
0
 40
0
 40
1
 40
1
 40
1
 40
1
 10
-5.907793
 20
-247.284418
 30
0.0
 10
-5.907793
 20
-246.748520
 30
0.0
 10
-6.193692
 20
-246.253329
 30
0.0
 10
-6.657793
 20
-245.985380
 30
0.0
  0
SPLINE
  5
172
100
AcDbEntity
  8
0
 62
7
100
AcDbSpline
 70
8
 71
3
 72
8
 73
4
 74
0
 40
0
 40
0
 40
0
 40
0
 40
1
 40
1
 40
1
 40
1
 10
-6.657793
 20
-245.985380
 30
0.0
 10
-7.121895
 20
-245.717431
 30
0.0
 10
-7.693691
 20
-245.717431
 30
0.0
 10
-8.157793
 20
-245.985380
 30
0.0
  0
SPLINE
  5
173
100
AcDbEntity
  8
0
 62
7
100
AcDbSpline
 70
8
 71
3
 72
8
 73
4
 74
0
 40
0
 40
0
 40
0
 40
0
 40
1
 40
1
 40
1
 40
1
 10
-8.157793
 20
-245.985380
 30
0.0
 10
-8.621895
 20
-246.253329
 30
0.0
 10
-8.907793
 20
-246.748520
 30
0.0
 10
-8.907793
 20
-247.284418
 30
0.0
  0
SPLINE
  5
174
100
AcDbEntity
  8
0
 62
7
100
AcDbSpline
 70
8
 71
3
 72
8
 73
4
 74
0
 40
0
 40
0
 40
0
 40
0
 40
1
 40
1
 40
1
 40
1
 10
-8.907793
 20
-247.284418
 30
0.0
 10
-8.907793
 20
-247.820317
 30
0.0
 10
-8.621895
 20
-248.315507
 30
0.0
 10
-8.157793
 20
-248.583456
 30
0.0
  0
SPLINE
  5
175
100
AcDbEntity
  8
0
 62
7
100
AcDbSpline
 70
8
 71
3
 72
8
 73
4
 74
0
 40
0
 40
0
 40
0
 40
0
 40
1
 40
1
 40
1
 40
1
 10
-8.157793
 20
-248.583456
 30
0.0
 10
-7.693691
 20
-248.851406
 30
0.0
 10
-7.121895
 20
-248.851406
 30
0.0
 10
-6.657793
 20
-248.583456
 30
0.0
  0
SPLINE
  5
176
100
AcDbEntity
  8
0
 62
7
100
AcDbSpline
 70
8
 71
3
 72
8
 73
4
 74
0
 40
0
 40
0
 40
0
 40
0
 40
1
 40
1
 40
1
 40
1
 10
-6.657793
 20
-248.583456
 30
0.0
 10
-6.193692
 20
-248.315507
 30
0.0
 10
-5.907793
 20
-247.820317
 30
0.0
 10
-5.907793
 20
-247.284418
 30
0.0
  0
LWPOLYLINE
  5
177
100
AcDbEntity
  8
0
 62
7
100
AcDbPolyline
 90
1
 70
1
 10
-5.907793
 20
-227.284418
 30
0.0
  0
SPLINE
  5
178
100
AcDbEntity
  8
0
 62
7
100
AcDbSpline
 70
8
 71
3
 72
8
 73
4
 74
0
 40
0
 40
0
 40
0
 40
0
 40
1
 40
1
 40
1
 40
1
 10
14.092207
 20
-227.284418
 30
0.0
 10
14.092207
 20
-226.748520
 30
0.0
 10
13.806308
 20
-226.253330
 30
0.0
 10
13.342207
 20
-225.985380
 30
0.0
  0
SPLINE
  5
179
100
AcDbEntity
  8
0
 62
7
100
AcDbSpline
 70
8
 71
3
 72
8
 73
4
 74
0
 40
0
 40
0
 40
0
 40
0
 40
1
 40
1
 40
1
 40
1
 10
13.342207
 20
-225.985380
 30
0.0
 10
12.878105
 20
-225.717431
 30
0.0
 10
12.306309
 20
-225.717431
 30
0.0
 10
11.842207
 20
-225.985380
 30
0.0
  0
SPLINE
  5
17a
100
AcDbEntity
  8
0
 62
7
100
AcDbSpline
 70
8
 71
3
 72
8
 73
4
 74
0
 40
0
 40
0
 40
0
 40
0
 40
1
 40
1
 40
1
 40
1
 10
11.842207
 20
-225.985380
 30
0.0
 10
11.378105
 20
-226.253330
 30
0.0
 10
11.092207
 20
-226.748520
 30
0.0
 10
11.092207
 20
-227.284418
 30
0.0
  0
SPLINE
  5
17b
100
AcDbEntity
  8
0
 62
7
100
AcDbSpline
 70
8
 71
3
 72
8
 73
4
 74
0
 40
0
 40
0
 40
0
 40
0
 40
1
 40
1
 40
1
 40
1
 10
11.092207
 20
-227.284418
 30
0.0
 10
11.092207
 20
-227.820317
 30
0.0
 10
11.378105
 20
-228.315507
 30
0.0
 10
11.842207
 20
-228.583456
 30
0.0
  0
SPLINE
  5
17c
100
AcDbEntity
  8
0
 62
7
100
AcDbSpline
 70
8
 71
3
 72
8
 73
4
 74
0
 40
0
 40
0
 40
0
 40
0
 40
1
 40
1
 40
1
 40
1
 10
11.842207
 20
-228.583456
 30
0.0
 10
12.306309
 20
-228.851406
 30
0.0
 10
12.878105
 20
-228.851406
 30
0.0
 10
13.342207
 20
-228.583456
 30
0.0
  0
SPLINE
  5
17d
100
AcDbEntity
  8
0
 62
7
100
AcDbSpline
 70
8
 71
3
 72
8
 73
4
 74
0
 40
0
 40
0
 40
0
 40
0
 40
1
 40
1
 40
1
 40
1
 10
13.342207
 20
-228.583456
 30
0.0
 10
13.806308
 20
-228.315507
 30
0.0
 10
14.092207
 20
-227.820317
 30
0.0
 10
14.092207
 20
-227.284418
 30
0.0
  0
LWPOLYLINE
  5
17e
100
AcDbEntity
  8
0
 62
7
100
AcDbPolyline
 90
1
 70
1
 10
-5.907793
 20
-247.284418
 30
0.0
  0
SPLINE
  5
17f
100
AcDbEntity
  8
0
 62
7
100
AcDbSpline
 70
8
 71
3
 72
8
 73
4
 74
0
 40
0
 40
0
 40
0
 40
0
 40
1
 40
1
 40
1
 40
1
 10
14.092207
 20
-106.984418
 30
0.0
 10
14.092207
 20
-106.448520
 30
0.0
 10
13.806308
 20
-105.953329
 30
0.0
 10
13.342207
 20
-105.685380
 30
0.0
  0
SPLINE
  5
180
100
AcDbEntity
  8
0
 62
7
100
AcDbSpline
 70
8
 71
3
 72
8
 73
4
 74
0
 40
0
 40
0
 40
0
 40
0
 40
1
 40
1
 40
1
 40
1
 10
13.342207
 20
-105.685380
 30
0.0
 10
12.878105
 20
-105.417431
 30
0.0
 10
12.306309
 20
-105.417431
 30
0.0
 10
11.842207
 20
-105.685380
 30
0.0
  0
SPLINE
  5
181
100
AcDbEntity
  8
0
 62
7
100
AcDbSpline
 70
8
 71
3
 72
8
 73
4
 74
0
 40
0
 40
0
 40
0
 40
0
 40
1
 40
1
 40
1
 40
1
 10
11.842207
 20
-105.685380
 30
0.0
 10
11.378105
 20
-105.953329
 30
0.0
 10
11.092207
 20
-106.448520
 30
0.0
 10
11.092207
 20
-106.984418
 30
0.0
  0
SPLINE
  5
182
100
AcDbEntity
  8
0
 62
7
100
AcDbSpline
 70
8
 71
3
 72
8
 73
4
 74
0
 40
0
 40
0
 40
0
 40
0
 40
1
 40
1
 40
1
 40
1
 10
11.092207
 20
-106.984418
 30
0.0
 10
11.092207
 20
-107.520317
 30
0.0
 10
11.378105
 20
-108.015507
 30
0.0
 10
11.842207
 20
-108.283456
 30
0.0
  0
SPLINE
  5
183
100
AcDbEntity
  8
0
 62
7
100
AcDbSpline
 70
8
 71
3
 72
8
 73
4
 74
0
 40
0
 40
0
 40
0
 40
0
 40
1
 40
1
 40
1
 40
1
 10
11.842207
 20
-108.283456
 30
0.0
 10
12.306309
 20
-108.551405
 30
0.0
 10
12.878105
 20
-108.551405
 30
0.0
 10
13.342207
 20
-108.283456
 30
0.0
  0
SPLINE
  5
184
100
AcDbEntity
  8
0
 62
7
100
AcDbSpline
 70
8
 71
3
 72
8
 73
4
 74
0
 40
0
 40
0
 40
0
 40
0
 40
1
 40
1
 40
1
 40
1
 10
13.342207
 20
-108.283456
 30
0.0
 10
13.806308
 20
-108.015507
 30
0.0
 10
14.092207
 20
-107.520317
 30
0.0
 10
14.092207
 20
-106.984418
 30
0.0
  0
LWPOLYLINE
  5
185
100
AcDbEntity
  8
0
 62
7
100
AcDbPolyline
 90
1
 70
1
 10
14.092207
 20
-227.284418
 30
0.0
  0
SPLINE
  5
186
100
AcDbEntity
  8
0
 62
7
100
AcDbSpline
 70
8
 71
3
 72
8
 73
4
 74
0
 40
0
 40
0
 40
0
 40
0
 40
1
 40
1
 40
1
 40
1
 10
-5.907793
 20
-106.984418
 30
0.0
 10
-5.907793
 20
-106.448520
 30
0.0
 10
-6.193692
 20
-105.953329
 30
0.0
 10
-6.657793
 20
-105.685380
 30
0.0
  0
SPLINE
  5
187
100
AcDbEntity
  8
0
 62
7
100
AcDbSpline
 70
8
 71
3
 72
8
 73
4
 74
0
 40
0
 40
0
 40
0
 40
0
 40
1
 40
1
 40
1
 40
1
 10
-6.657793
 20
-105.685380
 30
0.0
 10
-7.121895
 20
-105.417431
 30
0.0
 10
-7.693691
 20
-105.417431
 30
0.0
 10
-8.157793
 20
-105.685380
 30
0.0
  0
SPLINE
  5
188
100
AcDbEntity
  8
0
 62
7
100
AcDbSpline
 70
8
 71
3
 72
8
 73
4
 74
0
 40
0
 40
0
 40
0
 40
0
 40
1
 40
1
 40
1
 40
1
 10
-8.157793
 20
-105.685380
 30
0.0
 10
-8.621895
 20
-105.953329
 30
0.0
 10
-8.907793
 20
-106.448520
 30
0.0
 10
-8.907793
 20
-106.984418
 30
0.0
  0
SPLINE
  5
189
100
AcDbEntity
  8
0
 62
7
100
AcDbSpline
 70
8
 71
3
 72
8
 73
4
 74
0
 40
0
 40
0
 40
0
 40
0
 40
1
 40
1
 40
1
 40
1
 10
-8.907793
 20
-106.984418
 30
0.0
 10
-8.907793
 20
-107.520317
 30
0.0
 10
-8.621895
 20
-108.015507
 30
0.0
 10
-8.157793
 20
-108.283456
 30
0.0
  0
SPLINE
  5
18a
100
AcDbEntity
  8
0
 62
7
100
AcDbSpline
 70
8
 71
3
 72
8
 73
4
 74
0
 40
0
 40
0
 40
0
 40
0
 40
1
 40
1
 40
1
 40
1
 10
-8.157793
 20
-108.283456
 30
0.0
 10
-7.693691
 20
-108.551405
 30
0.0
 10
-7.121895
 20
-108.551405
 30
0.0
 10
-6.657793
 20
-108.283456
 30
0.0
  0
SPLINE
  5
18b
100
AcDbEntity
  8
0
 62
7
100
AcDbSpline
 70
8
 71
3
 72
8
 73
4
 74
0
 40
0
 40
0
 40
0
 40
0
 40
1
 40
1
 40
1
 40
1
 10
-6.657793
 20
-108.283456
 30
0.0
 10
-6.193692
 20
-108.015507
 30
0.0
 10
-5.907793
 20
-107.520317
 30
0.0
 10
-5.907793
 20
-106.984418
 30
0.0
  0
LWPOLYLINE
  5
18c
100
AcDbEntity
  8
0
 62
7
100
AcDbPolyline
 90
1
 70
1
 10
14.092207
 20
-106.984418
 30
0.0
  0
SPLINE
  5
18d
100
AcDbEntity
  8
0
 62
7
100
AcDbSpline
 70
8
 71
3
 72
8
 73
4
 74
0
 40
0
 40
0
 40
0
 40
0
 40
1
 40
1
 40
1
 40
1
 10
14.092207
 20
-86.984418
 30
0.0
 10
14.092207
 20
-86.448520
 30
0.0
 10
13.806308
 20
-85.953329
 30
0.0
 10
13.342207
 20
-85.685380
 30
0.0
  0
SPLINE
  5
18e
100
AcDbEntity
  8
0
 62
7
100
AcDbSpline
 70
8
 71
3
 72
8
 73
4
 74
0
 40
0
 40
0
 40
0
 40
0
 40
1
 40
1
 40
1
 40
1
 10
13.342207
 20
-85.685380
 30
0.0
 10
12.878105
 20
-85.417431
 30
0.0
 10
12.306309
 20
-85.417431
 30
0.0
 10
11.842207
 20
-85.685380
 30
0.0
  0
SPLINE
  5
18f
100
AcDbEntity
  8
0
 62
7
100
AcDbSpline
 70
8
 71
3
 72
8
 73
4
 74
0
 40
0
 40
0
 40
0
 40
0
 40
1
 40
1
 40
1
 40
1
 10
11.842207
 20
-85.685380
 30
0.0
 10
11.378105
 20
-85.953329
 30
0.0
 10
11.092207
 20
-86.448520
 30
0.0
 10
11.092207
 20
-86.984418
 30
0.0
  0
SPLINE
  5
190
100
AcDbEntity
  8
0
 62
7
100
AcDbSpline
 70
8
 71
3
 72
8
 73
4
 74
0
 40
0
 40
0
 40
0
 40
0
 40
1
 40
1
 40
1
 40
1
 10
11.092207
 20
-86.984418
 30
0.0
 10
11.092207
 20
-87.520317
 30
0.0
 10
11.378105
 20
-88.015507
 30
0.0
 10
11.842207
 20
-88.283456
 30
0.0
  0
SPLINE
  5
191
100
AcDbEntity
  8
0
 62
7
100
AcDbSpline
 70
8
 71
3
 72
8
 73
4
 74
0
 40
0
 40
0
 40
0
 40
0
 40
1
 40
1
 40
1
 40
1
 10
11.842207
 20
-88.283456
 30
0.0
 10
12.306309
 20
-88.551405
 30
0.0
 10
12.878105
 20
-88.551405
 30
0.0
 10
13.342207
 20
-88.283456
 30
0.0
  0
SPLINE
  5
192
100
AcDbEntity
  8
0
 62
7
100
AcDbSpline
 70
8
 71
3
 72
8
 73
4
 74
0
 40
0
 40
0
 40
0
 40
0
 40
1
 40
1
 40
1
 40
1
 10
13.342207
 20
-88.283456
 30
0.0
 10
13.806308
 20
-88.015507
 30
0.0
 10
14.092207
 20
-87.520317
 30
0.0
 10
14.092207
 20
-86.984418
 30
0.0
  0
LWPOLYLINE
  5
193
100
AcDbEntity
  8
0
 62
7
100
AcDbPolyline
 90
1
 70
1
 10
-5.907793
 20
-106.984418
 30
0.0
  0
SPLINE
  5
194
100
AcDbEntity
  8
0
 62
7
100
AcDbSpline
 70
8
 71
3
 72
8
 73
4
 74
0
 40
0
 40
0
 40
0
 40
0
 40
1
 40
1
 40
1
 40
1
 10
-5.907793
 20
-86.984418
 30
0.0
 10
-5.907793
 20
-86.448520
 30
0.0
 10
-6.193692
 20
-85.953329
 30
0.0
 10
-6.657793
 20
-85.685380
 30
0.0
  0
SPLINE
  5
195
100
AcDbEntity
  8
0
 62
7
100
AcDbSpline
 70
8
 71
3
 72
8
 73
4
 74
0
 40
0
 40
0
 40
0
 40
0
 40
1
 40
1
 40
1
 40
1
 10
-6.657793
 20
-85.685380
 30
0.0
 10
-7.121895
 20
-85.417431
 30
0.0
 10
-7.693691
 20
-85.417431
 30
0.0
 10
-8.157793
 20
-85.685380
 30
0.0
  0
SPLINE
  5
196
100
AcDbEntity
  8
0
 62
7
100
AcDbSpline
 70
8
 71
3
 72
8
 73
4
 74
0
 40
0
 40
0
 40
0
 40
0
 40
1
 40
1
 40
1
 40
1
 10
-8.157793
 20
-85.685380
 30
0.0
 10
-8.621895
 20
-85.953329
 30
0.0
 10
-8.907793
 20
-86.448520
 30
0.0
 10
-8.907793
 20
-86.984418
 30
0.0
  0
SPLINE
  5
197
100
AcDbEntity
  8
0
 62
7
100
AcDbSpline
 70
8
 71
3
 72
8
 73
4
 74
0
 40
0
 40
0
 40
0
 40
0
 40
1
 40
1
 40
1
 40
1
 10
-8.907793
 20
-86.984418
 30
0.0
 10
-8.907793
 20
-87.520317
 30
0.0
 10
-8.621895
 20
-88.015507
 30
0.0
 10
-8.157793
 20
-88.283456
 30
0.0
  0
SPLINE
  5
198
100
AcDbEntity
  8
0
 62
7
100
AcDbSpline
 70
8
 71
3
 72
8
 73
4
 74
0
 40
0
 40
0
 40
0
 40
0
 40
1
 40
1
 40
1
 40
1
 10
-8.157793
 20
-88.283456
 30
0.0
 10
-7.693691
 20
-88.551405
 30
0.0
 10
-7.121895
 20
-88.551405
 30
0.0
 10
-6.657793
 20
-88.283456
 30
0.0
  0
SPLINE
  5
199
100
AcDbEntity
  8
0
 62
7
100
AcDbSpline
 70
8
 71
3
 72
8
 73
4
 74
0
 40
0
 40
0
 40
0
 40
0
 40
1
 40
1
 40
1
 40
1
 10
-6.657793
 20
-88.283456
 30
0.0
 10
-6.193692
 20
-88.015507
 30
0.0
 10
-5.907793
 20
-87.520317
 30
0.0
 10
-5.907793
 20
-86.984418
 30
0.0
  0
LWPOLYLINE
  5
19a
100
AcDbEntity
  8
0
 62
7
100
AcDbPolyline
 90
1
 70
1
 10
14.092207
 20
-86.984418
 30
0.0
  0
LWPOLYLINE
  5
19b
100
AcDbEntity
  8
0
 62
7
100
AcDbPolyline
 90
1
 70
1
 10
-5.907793
 20
-86.984418
 30
0.0
  0
LWPOLYLINE
  5
19c
100
AcDbEntity
  8
0
 62
7
100
AcDbPolyline
 90
2
 70
0
 10
185.592207
 20
-148.403074
 30
0.0
 10
197.134101
 20
-168.394221
 30
0.0
  0
LWPOLYLINE
  5
19d
100
AcDbEntity
  8
0
 62
7
100
AcDbPolyline
 90
2
 70
0
 10
185.592207
 20
-188.385367
 30
0.0
 10
197.134101
 20
-168.394221
 30
0.0
  0
LWPOLYLINE
  5
19e
100
AcDbEntity
  8
0
 62
7
100
AcDbPolyline
 90
2
 70
0
 10
218.784736
 20
-180.894221
 30
0.0
 10
190.592207
 20
-229.725113
 30
0.0
  0
SPLINE
  5
19f
100
AcDbEntity
  8
0
 62
7
100
AcDbSpline
 70
8
 71
3
 72
8
 73
4
 74
0
 40
0
 40
0
 40
0
 40
0
 40
1
 40
1
 40
1
 40
1
 10
218.784736
 20
-180.894221
 30
0.0
 10
223.250556
 20
-173.159194
 30
0.0
 10
223.250556
 20
-163.629247
 30
0.0
 10
218.784736
 20
-155.894221
 30
0.0
  0
LWPOLYLINE
  5
1a0
100
AcDbEntity
  8
0
 62
7
100
AcDbPolyline
 90
2
 70
0
 10
218.784736
 20
-155.894221
 30
0.0
 10
190.592207
 20
-107.063328
 30
0.0
  0
LWPOLYLINE
  5
1a1
100
AcDbEntity
  8
0
 62
7
100
AcDbPolyline
 90
5
 70
1
 10
210.000000
 20
-179.000000
 30
0.0
 10
215.000000
 20
-179.000000
 30
0.0
 10
215.000000
 20
-177.000000
 30
0.0
 10
210.000000
 20
-177.000000
 30
0.0
 10
210.000000
 20
-179.000000
 30
0.0
  0
LWPOLYLINE
  5
1a2
100
AcDbEntity
  8
0
 62
7
100
AcDbPolyline
 90
5
 70
1
 10
210.000000
 20
-162.000000
 30
0.0
 10
215.000000
 20
-162.000000
 30
0.0
 10
215.000000
 20
-160.000000
 30
0.0
 10
210.000000
 20
-160.000000
 30
0.0
 10
210.000000
 20
-162.000000
 30
0.0
  0
LWPOLYLINE
  5
1a3
100
AcDbEntity
  8
0
 62
7
100
AcDbPolyline
 90
5
 70
1
 10
201.000000
 20
-160.000000
 30
0.0
 10
196.000000
 20
-160.000000
 30
0.0
 10
196.000000
 20
-162.000000
 30
0.0
 10
201.000000
 20
-162.000000
 30
0.0
 10
201.000000
 20
-160.000000
 30
0.0
  0
LWPOLYLINE
  5
1a4
100
AcDbEntity
  8
0
 62
7
100
AcDbPolyline
 90
5
 70
1
 10
201.000000
 20
-177.000000
 30
0.0
 10
196.000000
 20
-177.000000
 30
0.0
 10
196.000000
 20
-179.000000
 30
0.0
 10
201.000000
 20
-179.000000
 30
0.0
 10
201.000000
 20
-177.000000
 30
0.0
  0
ENDSEC
  0
SECTION
  2
OBJECTS
  0
DICTIONARY
  5
C
330
0
100
AcDbDictionary
  3
ACAD_GROUP
350
D
  3
ACAD_MLINESTYLE
350
17
  0
DICTIONARY
  5
D
330
C
100
AcDbDictionary
  0
DICTIONARY
  5
1A
330
C
100
AcDbDictionary
  0
DICTIONARY
  5
17
330
C
100
AcDbDictionary
  3
STANDARD
350
18
  0
DICTIONARY
  5
19
330
C
100
AcDbDictionary
  0
ENDSEC
  0
EOF
