0
SECTION
2
HEADER
9
$INSUNITS
70
4
9
$ACADVER
1
AC1014
9
$HANDSEED
5
FFFF
0
ENDSEC
0
SECTION
2
TABLES
0
TABLE
2
VPORT
5
8
100
AcDbSymbolTable
0
ENDTAB
0
TABLE
2
LTYPE
5
5
100
AcDbSymbolTable
0
LTYPE
5
14
100
AcDbSymbolTableRecord
100
AcDbLinetypeTableRecord
2
BYBLOCK
70
0
0
LTYPE
5
15
100
AcDbSymbolTableRecord
100
AcDbLinetypeTableRecord
2
BYLAYER
70
0
0
ENDTAB
0
TABLE
2
LAYER
5
2
100
AcDbSymbolTable
70
2
0
LAYER
5
50
100
AcDbSymbolTableRecord
100
AcDbLayerTableRecord
2
0
70
0
6
CONTINUOUS
0
ENDTAB
0
TABLE
2
STYLE
5
3
100
AcDbSymbolTable
70
1
0
STYLE
5
11
100
AcDbSymbolTableRecord
100
AcDbTextStyleTableRecord
2
STANDARD
70
0
0
ENDTAB
0
TABLE
2
VIEW
5
6
100
AcDbSymbolTable
70
0
0
ENDTAB
0
TABLE
2
UCS
5
7
100
AcDbSymbolTable
70
0
0
ENDTAB
0
TABLE
2
APPID
5
9
100
AcDbSymbolTable
70
2
0
APPID
5
12
100
AcDbSymbolTableRecord
100
AcDbRegAppTableRecord
2
ACAD
70
0
0
ENDTAB
0
TABLE
2
DIMSTYLE
5
A
100
AcDbSymbolTable
70
1
0
ENDTAB
0
TABLE
2
BLOCK_RECORD
5
1
100
AcDbSymbolTable
70
1
0
BLOCK_RECORD
5
1F
100
AcDbSymbolTableRecord
100
AcDbBlockTableRecord
2
*MODEL_SPACE
0
BLOCK_RECORD
5
1B
100
AcDbSymbolTableRecord
100
AcDbBlockTableRecord
2
*PAPER_SPACE
0
ENDTAB
0
ENDSEC
0
SECTION
2
BLOCKS
0
BLOCK
5
20
100
AcDbEntity
100
AcDbBlockBegin
2
*MODEL_SPACE
0
ENDBLK
5
21
100
AcDbEntity
100
AcDbBlockEnd
0
BLOCK
5
1C
100
AcDbEntity
100
AcDbBlockBegin
2
*PAPER_SPACE
0
ENDBLK
5
1D
100
AcDbEntity
100
AcDbBlockEnd
0
ENDSEC
0
SECTION
2
ENTITIES
0
CIRCLE
5
100
100
AcDbEntity
8
0
100
AcDbCircle
10
212.00000315904904
20
-384.12326686763288
30
0
40
1.4999999999999827
0
CIRCLE
5
101
100
AcDbEntity
8
0
100
AcDbCircle
10
-40.999996587632808
20
-55.123266867635195
30
0
40
1.499999999999996
0
CIRCLE
5
102
100
AcDbEntity
8
0
100
AcDbCircle
10
229.00000341236662
20
-55.123266867634015
30
0
40
1.4999999999999827
0
CIRCLE
5
103
100
AcDbEntity
8
0
100
AcDbCircle
10
-57.999996840950381
20
-384.12326686763407
30
0
40
1.4999999999999827
0
CIRCLE
5
104
100
AcDbEntity
8
0
100
AcDbCircle
10
229.00000341236876
20
-384.12326686763276
30
0
40
1.4999999999999827
0
CIRCLE
5
105
100
AcDbEntity
8
0
100
AcDbCircle
10
-57.999996840952512
20
-55.123266867635266
30
0
40
1.5000000000000004
0
CIRCLE
5
106
100
AcDbEntity
8
0
100
AcDbCircle
10
212.00000315904691
20
-55.123266867634094
30
0
40
1.4999999999999827
0
CIRCLE
5
107
100
AcDbEntity
8
0
100
AcDbCircle
10
-40.999996587630676
20
-384.12326686763402
30
0
40
1.499999999999996
0
LWPOLYLINE
5
108
100
AcDbEntity
8
0
100
AcDbPolyline
90
32
70
1
43
0.0
10
236.09220694020448
20
-99.25768515054672
10
190.59220694020425
20
-119.10768514095069
10
190.59220694020473
20
-200.52634089702968
10
124.94268649507859
20
-200.52634089702997
10
124.94268649507868
20
-215.54551094410692
10
105.97573557162605
20
-215.54551094410698
10
105.97573557162598
20
-200.52634089703005
10
72.616519938509867
20
-200.52634089703022
10
72.616519938510109
20
-240.50863409065818
10
105.97573557162622
20
-240.50863409065809
10
105.97573557162613
20
-226.5506543422768
10
124.94268649507875
20
-226.55065434227669
10
124.94268649507885
20
-240.50863409065798
10
190.59220694020507
20
-240.50863409065769
10
190.59220694020553
20
-319.10768514094997
10
236.09220694020598
20
-339.25768514094966
10
236.09220694020632
20
-389.25768514094955
10
203.09220694020638
20
-389.2576851409496
10
150.59220694020564
20
-319.10768514095014
10
22.592206940205898
20
-319.10768514095071
10
-30.907793059793068
20
-389.25768514095068
10
-63.907793059793022
20
-389.25768514095074
10
-63.90779305979332
20
-339.25768514095097
10
-17.40779305979401
20
-319.10768514095088
10
-17.407793059795296
20
-119.1076851409516
10
-63.907793059794919
20
-99.257685140951892
10
-63.90779305979521
20
-49.25768514095207
10
-30.907793059795303
20
-49.257685140951899
10
22.59220694020458
20
-119.10768514095142
10
150.59220694020433
20
-119.10768514095089
10
203.09220694020422
20
-49.257685140950898
10
236.09220694020416
20
-49.257685140950763
0
CIRCLE
5
109
100
AcDbEntity
8
0
100
AcDbCircle
10
160.59220694020453
20
-159.10768514095068
30
0
40
1.4999999999999827
0
CIRCLE
5
110
100
AcDbEntity
8
0
100
AcDbCircle
10
-7.4077930597947894
20
-209.25768514095125
30
0
40
1.4999999999999971
0
CIRCLE
5
111
100
AcDbEntity
8
0
100
AcDbCircle
10
12.592206940205168
20
-209.25768514095114
30
0
40
1.4999999999999982
0
CIRCLE
5
112
100
AcDbEntity
8
0
100
AcDbCircle
10
160.59220694020439
20
-139.10768514095076
30
0
40
1.4999999999999827
0
CIRCLE
5
113
100
AcDbEntity
8
0
100
AcDbCircle
10
115.45921103335253
20
-240.50863409065806
30
0
40
1.5999999999999979
0
CIRCLE
5
114
100
AcDbEntity
8
0
100
AcDbCircle
10
180.59220694020436
20
-139.10768514095065
30
0
40
1.4999999999999827
0
CIRCLE
5
115
100
AcDbEntity
8
0
100
AcDbCircle
10
-7.4077930597946242
20
-229.2576851409512
30
0
40
1.4999999999999971
0
CIRCLE
5
116
100
AcDbEntity
8
0
100
AcDbCircle
10
12.592206940205333
20
-229.25768514095103
30
0
40
1.4999999999999982
0
CIRCLE
5
117
100
AcDbEntity
8
0
100
AcDbCircle
10
180.59220694020451
20
-159.10768514095059
30
0
40
1.4999999999999827
0
CIRCLE
5
118
100
AcDbEntity
8
0
100
AcDbCircle
10
115.45921103335226
20
-200.52634089703005
30
0
40
1.5999999999999979
0
CIRCLE
5
119
100
AcDbEntity
8
0
100
AcDbCircle
10
160.59220694020547
20
-299.40768514095009
30
0
40
1.4999999999999827
0
CIRCLE
5
120
100
AcDbEntity
8
0
100
AcDbCircle
10
160.59220694020527
20
-279.40768514095026
30
0
40
1.4999999999999827
0
CIRCLE
5
121
100
AcDbEntity
8
0
100
AcDbCircle
10
180.59220694020541
20
-299.40768514095004
30
0
40
1.4999999999999827
0
CIRCLE
5
122
100
AcDbEntity
8
0
100
AcDbCircle
10
180.59220694020524
20
-279.40768514095021
30
0
40
1.4999999999999827
0
ENDSEC
0
SECTION
2
OBJECTS
0
DICTIONARY
5
C
100
AcDbDictionary
3
ACAD_GROUP
350
D
3
ACAD_MLINESTYLE
350
17
0
DICTIONARY
5
D
100
AcDbDictionary
0
DICTIONARY
5
1A
330
C
100
AcDbDictionary
0
DICTIONARY
5
17
100
AcDbDictionary
0
ENDSEC
0
EOF
