0
SECTION
2
HEADER
9
$INSUNITS
70
4
9
$ACADVER
1
AC1014
9
$HANDSEED
5
FFFF
0
ENDSEC
0
SECTION
2
TABLES
0
TABLE
2
VPORT
5
8
100
AcDbSymbolTable
0
ENDTAB
0
TABLE
2
LTYPE
5
5
100
AcDbSymbolTable
0
LTYPE
5
14
100
AcDbSymbolTableRecord
100
AcDbLinetypeTableRecord
2
BYBLOCK
70
0
0
LTYPE
5
15
100
AcDbSymbolTableRecord
100
AcDbLinetypeTableRecord
2
BYLAYER
70
0
0
ENDTAB
0
TABLE
2
LAYER
5
2
100
AcDbSymbolTable
70
2
0
LAYER
5
50
100
AcDbSymbolTableRecord
100
AcDbLayerTableRecord
2
0
70
0
6
CONTINUOUS
0
ENDTAB
0
TABLE
2
STYLE
5
3
100
AcDbSymbolTable
70
1
0
STYLE
5
11
100
AcDbSymbolTableRecord
100
AcDbTextStyleTableRecord
2
STANDARD
70
0
0
ENDTAB
0
TABLE
2
VIEW
5
6
100
AcDbSymbolTable
70
0
0
ENDTAB
0
TABLE
2
UCS
5
7
100
AcDbSymbolTable
70
0
0
ENDTAB
0
TABLE
2
APPID
5
9
100
AcDbSymbolTable
70
2
0
APPID
5
12
100
AcDbSymbolTableRecord
100
AcDbRegAppTableRecord
2
ACAD
70
0
0
ENDTAB
0
TABLE
2
DIMSTYLE
5
A
100
AcDbSymbolTable
70
1
0
ENDTAB
0
TABLE
2
BLOCK_RECORD
5
1
100
AcDbSymbolTable
70
1
0
BLOCK_RECORD
5
1F
100
AcDbSymbolTableRecord
100
AcDbBlockTableRecord
2
*MODEL_SPACE
0
BLOCK_RECORD
5
1B
100
AcDbSymbolTableRecord
100
AcDbBlockTableRecord
2
*PAPER_SPACE
0
ENDTAB
0
ENDSEC
0
SECTION
2
BLOCKS
0
BLOCK
5
20
100
AcDbEntity
100
AcDbBlockBegin
2
*MODEL_SPACE
0
ENDBLK
5
21
100
AcDbEntity
100
AcDbBlockEnd
0
BLOCK
5
1C
100
AcDbEntity
100
AcDbBlockBegin
2
*PAPER_SPACE
0
ENDBLK
5
1D
100
AcDbEntity
100
AcDbBlockEnd
0
ENDSEC
0
SECTION
2
ENTITIES
0
LWPOLYLINE
5
100
100
AcDbEntity
8
0
100
AcDbPolyline
90
32
70
1
43
0.0
10
236.09220694020348
20
-47.134418327616395
10
190.59220694020303
20
-66.984418318020232
10
190.59220694020303
20
-148.40307407409955
10
124.94268649507673
20
-148.40307407409955
10
124.94268649507673
20
-163.4222441211765
10
105.97573557162407
20
-163.4222441211765
10
105.97573557162407
20
-148.40307407409955
10
72.616519938507892
20
-148.40307407409955
10
72.616519938507892
20
-188.38536726772764
10
105.97573557162407
20
-188.38536726772764
10
105.97573557162407
20
-174.42738751934633
10
124.94268649507673
20
-174.42738751934633
10
124.94268649507673
20
-188.38536726772764
10
190.59220694020303
20
-188.38536726772764
10
190.59220694020303
20
-266.98441831802023
10
236.09220694020348
20
-287.13441831802021
10
236.09220694020348
20
-337.13441831802021
10
203.09220694020348
20
-337.13441831802021
10
150.59220694020306
20
-266.98441831802023
10
22.592206940203049
20
-266.98441831802023
10
-30.907793059796486
20
-337.13441831802021
10
-63.907793059796489
20
-337.13441831802021
10
-63.907793059796489
20
-287.13441831802021
10
-17.407793059796948
20
-266.98441831802023
10
-17.40779305979693
20
-66.984418318020246
10
-63.907793059796525
20
-47.134418318020231
10
-63.907793059796489
20
2.8655816819797697
10
-30.907793059796518
20
2.8655816819797675
10
22.592206940203052
20
-66.984418318020246
10
150.59220694020303
20
-66.984418318020232
10
203.09220694020351
20
2.8655816819797737
10
236.09220694020348
20
2.8655816819797675
0
CIRCLE
5
101
100
AcDbEntity
8
0
100
AcDbCircle
10
115.4592110333504
20
-188.38536726772764
30
0
40
1.6000000000000014
0
CIRCLE
5
102
100
AcDbEntity
8
0
100
AcDbCircle
10
115.4592110333504
20
-148.40307407409955
30
0
40
1.6000000000000014
0
CIRCLE
5
103
100
AcDbEntity
8
0
100
AcDbCircle
10
160.59220694020303
20
-247.28441831802024
30
0
40
1.6000000000000014
0
CIRCLE
5
104
100
AcDbEntity
8
0
100
AcDbCircle
10
160.592206940203
20
-227.28441831802024
30
0
40
1.6000000000000014
0
CIRCLE
5
105
100
AcDbEntity
8
0
100
AcDbCircle
10
180.59220694020303
20
-247.28441831802024
30
0
40
1.6000000000000014
0
CIRCLE
5
106
100
AcDbEntity
8
0
100
AcDbCircle
10
180.592206940203
20
-227.28441831802024
30
0
40
1.6000000000000014
0
CIRCLE
5
107
100
AcDbEntity
8
0
100
AcDbCircle
10
12.592206940203042
20
-177.13441831802021
30
0
40
1.6000000000000079
0
CIRCLE
5
108
100
AcDbEntity
8
0
100
AcDbCircle
10
180.59220694020303
20
-106.98441831802022
30
0
40
1.6000000000000014
0
CIRCLE
5
109
100
AcDbEntity
8
0
100
AcDbCircle
10
160.592206940203
20
-86.984418318020218
30
0
40
1.6000000000000014
0
CIRCLE
5
110
100
AcDbEntity
8
0
100
AcDbCircle
10
12.592206940203006
20
-157.13441831802021
30
0
40
1.6000000000000079
0
CIRCLE
5
111
100
AcDbEntity
8
0
100
AcDbCircle
10
160.59220694020303
20
-106.98441831802022
30
0
40
1.6000000000000014
0
CIRCLE
5
112
100
AcDbEntity
8
0
100
AcDbCircle
10
180.592206940203
20
-86.984418318020218
30
0
40
1.6000000000000014
0
CIRCLE
5
113
100
AcDbEntity
8
0
100
AcDbCircle
10
-7.4077930597969939
20
-157.13441831802021
30
0
40
1.5999999999999925
0
CIRCLE
5
114
100
AcDbEntity
8
0
100
AcDbCircle
10
-7.4077930597969583
20
-177.13441831802021
30
0
40
1.6000000000000059
0
ENDSEC
0
SECTION
2
OBJECTS
0
DICTIONARY
5
C
100
AcDbDictionary
3
ACAD_GROUP
350
D
3
ACAD_MLINESTYLE
350
17
0
DICTIONARY
5
D
100
AcDbDictionary
0
DICTIONARY
5
1A
330
C
100
AcDbDictionary
0
DICTIONARY
5
17
100
AcDbDictionary
0
ENDSEC
0
EOF
