0
SECTION
2
HEADER
9
$INSUNITS
70
4
9
$ACADVER
1
AC1014
9
$HANDSEED
5
FFFF
0
ENDSEC
0
SECTION
2
TABLES
0
TABLE
2
VPORT
5
8
100
AcDbSymbolTable
0
ENDTAB
0
TABLE
2
LTYPE
5
5
100
AcDbSymbolTable
0
LTYPE
5
14
100
AcDbSymbolTableRecord
100
AcDbLinetypeTableRecord
2
BYBLOCK
70
0
0
LTYPE
5
15
100
AcDbSymbolTableRecord
100
AcDbLinetypeTableRecord
2
BYLAYER
70
0
0
ENDTAB
0
TABLE
2
LAYER
5
2
100
AcDbSymbolTable
70
2
0
LAYER
5
50
100
AcDbSymbolTableRecord
100
AcDbLayerTableRecord
2
0
70
0
6
CONTINUOUS
0
ENDTAB
0
TABLE
2
STYLE
5
3
100
AcDbSymbolTable
70
1
0
STYLE
5
11
100
AcDbSymbolTableRecord
100
AcDbTextStyleTableRecord
2
STANDARD
70
0
0
ENDTAB
0
TABLE
2
VIEW
5
6
100
AcDbSymbolTable
70
0
0
ENDTAB
0
TABLE
2
UCS
5
7
100
AcDbSymbolTable
70
0
0
ENDTAB
0
TABLE
2
APPID
5
9
100
AcDbSymbolTable
70
2
0
APPID
5
12
100
AcDbSymbolTableRecord
100
AcDbRegAppTableRecord
2
ACAD
70
0
0
ENDTAB
0
TABLE
2
DIMSTYLE
5
A
100
AcDbSymbolTable
70
1
0
ENDTAB
0
TABLE
2
BLOCK_RECORD
5
1
100
AcDbSymbolTable
70
1
0
BLOCK_RECORD
5
1F
100
AcDbSymbolTableRecord
100
AcDbBlockTableRecord
2
*MODEL_SPACE
0
BLOCK_RECORD
5
1B
100
AcDbSymbolTableRecord
100
AcDbBlockTableRecord
2
*PAPER_SPACE
0
ENDTAB
0
ENDSEC
0
SECTION
2
BLOCKS
0
BLOCK
5
20
100
AcDbEntity
100
AcDbBlockBegin
2
*MODEL_SPACE
0
ENDBLK
5
21
100
AcDbEntity
100
AcDbBlockEnd
0
BLOCK
5
1C
100
AcDbEntity
100
AcDbBlockBegin
2
*PAPER_SPACE
0
ENDBLK
5
1D
100
AcDbEntity
100
AcDbBlockEnd
0
ENDSEC
0
SECTION
2
ENTITIES
0
LWPOLYLINE
5
100
100
AcDbEntity
8
0
100
AcDbPolyline
90
8
70
1
43
0.0
10
-230.23686043543447
20
483.41600994650321
10
-230.23686043543432
20
237.99575163500876
42
-0.41421359817633074
10
-239.73686043543424
20
228.49575047372986
10
-442.30310248146878
20
228.49575047372966
42
-0.41421356237310125
10
-447.30310248146884
20
233.49575047372963
10
-447.30310248146895
20
249.34583269807223
42
-0.18234631821321837
10
-446.05731773234299
20
252.64823604262378
10
-239.86649721139611
20
487.04865362550981
42
-0.69155176380340111
0
CIRCLE
5
101
100
AcDbEntity
8
0
100
AcDbCircle
10
-239.73686043543464
20
478.73073555062467
30
0
40
2.5499999999999972
0
CIRCLE
5
102
100
AcDbEntity
8
0
100
AcDbCircle
10
-239.73686043543464
20
371.7715319128788
30
0
40
2.5500000000000149
0
CIRCLE
5
103
100
AcDbEntity
8
0
100
AcDbCircle
10
-443.30310868035093
20
237.9957504737298
30
0
40
2.5500000000000078
0
CIRCLE
5
104
100
AcDbEntity
8
0
100
AcDbCircle
10
-370.30309481482021
20
237.99575047372983
30
0
40
2.5500000000000074
0
CIRCLE
5
105
100
AcDbEntity
8
0
100
AcDbCircle
10
-239.73686043543421
20
237.99575047372983
30
0
40
2.5500000000000074
0
CIRCLE
5
106
100
AcDbEntity
8
0
100
AcDbCircle
10
-259.73686043543393
20
237.99575047372994
30
0
40
2.5500000000000074
0
CIRCLE
5
107
100
AcDbEntity
8
0
100
AcDbCircle
10
-279.73686043543398
20
237.99575047372991
30
0
40
2.5500000000000074
0
CIRCLE
5
108
100
AcDbEntity
8
0
100
AcDbCircle
10
-239.73686043543384
20
252.13831274763737
30
0
40
2.550000000000006
0
CIRCLE
5
109
100
AcDbEntity
8
0
100
AcDbCircle
10
-239.73686043543384
20
272.13831274763731
30
0
40
2.550000000000006
0
CIRCLE
5
110
100
AcDbEntity
8
0
100
AcDbCircle
10
-239.73686043543384
20
292.13831274763731
30
0
40
2.550000000000006
0
CIRCLE
5
111
100
AcDbEntity
8
0
100
AcDbCircle
10
-322.72436489608901
20
290.53264472978799
30
0
40
1.4999995400000232
0
CIRCLE
5
112
100
AcDbEntity
8
0
100
AcDbCircle
10
-261.72435989608783
20
385.53265792978715
30
0
40
1.4999995399999877
0
CIRCLE
5
113
100
AcDbEntity
8
0
100
AcDbCircle
10
-261.7243598960888
20
290.53264472978736
30
0
40
1.4999995399999877
0
CIRCLE
5
114
100
AcDbEntity
8
0
100
AcDbCircle
10
-322.72436489608799
20
385.53265792978777
30
0
40
1.4999995400000232
0
LWPOLYLINE
5
115
100
AcDbEntity
8
0
100
AcDbPolyline
90
4
70
1
43
0.0
10
-317.81716108389003
20
283.67020573758163
10
-317.81716108389003
20
268.2609607122663
10
-266.63717708388975
20
268.26096071226635
10
-266.63717708388981
20
283.67020573758163
0
LWPOLYLINE
5
116
100
AcDbEntity
8
0
100
AcDbPolyline
90
8
70
1
43
0.0
10
-320.21356989608961
20
300.67384569023608
10
-279.49986885194954
20
300.67384569023608
42
0.41421356237308254
10
-276.99986885194954
20
303.17384569023613
10
-276.99986885194949
20
377.66263511374598
42
0.41421356237311585
10
-279.49986885194954
20
380.16263511374598
10
-320.21356989608961
20
380.16263511374598
42
0.41421356237309503
10
-322.71356989608955
20
377.66263511374609
10
-322.71356989608978
20
303.17384569023613
42
0.4142135623731325
0
ENDSEC
0
SECTION
2
OBJECTS
0
DICTIONARY
5
C
100
AcDbDictionary
3
ACAD_GROUP
350
D
3
ACAD_MLINESTYLE
350
17
0
DICTIONARY
5
D
100
AcDbDictionary
0
DICTIONARY
5
1A
330
C
100
AcDbDictionary
0
DICTIONARY
5
17
100
AcDbDictionary
0
ENDSEC
0
EOF
