0
SECTION
2
HEADER
9
$INSUNITS
70
4
9
$ACADVER
1
AC1014
9
$HANDSEED
5
FFFF
0
ENDSEC
0
SECTION
2
TABLES
0
TABLE
2
VPORT
5
8
100
AcDbSymbolTable
0
ENDTAB
0
TABLE
2
LTYPE
5
5
100
AcDbSymbolTable
0
LTYPE
5
14
100
AcDbSymbolTableRecord
100
AcDbLinetypeTableRecord
2
BYBLOCK
70
0
0
LTYPE
5
15
100
AcDbSymbolTableRecord
100
AcDbLinetypeTableRecord
2
BYLAYER
70
0
0
ENDTAB
0
TABLE
2
LAYER
5
2
100
AcDbSymbolTable
70
2
0
LAYER
5
50
100
AcDbSymbolTableRecord
100
AcDbLayerTableRecord
2
0
70
0
6
CONTINUOUS
0
ENDTAB
0
TABLE
2
STYLE
5
3
100
AcDbSymbolTable
70
1
0
STYLE
5
11
100
AcDbSymbolTableRecord
100
AcDbTextStyleTableRecord
2
STANDARD
70
0
0
ENDTAB
0
TABLE
2
VIEW
5
6
100
AcDbSymbolTable
70
0
0
ENDTAB
0
TABLE
2
UCS
5
7
100
AcDbSymbolTable
70
0
0
ENDTAB
0
TABLE
2
APPID
5
9
100
AcDbSymbolTable
70
2
0
APPID
5
12
100
AcDbSymbolTableRecord
100
AcDbRegAppTableRecord
2
ACAD
70
0
0
ENDTAB
0
TABLE
2
DIMSTYLE
5
A
100
AcDbSymbolTable
70
1
0
ENDTAB
0
TABLE
2
BLOCK_RECORD
5
1
100
AcDbSymbolTable
70
1
0
BLOCK_RECORD
5
1F
100
AcDbSymbolTableRecord
100
AcDbBlockTableRecord
2
*MODEL_SPACE
0
BLOCK_RECORD
5
1B
100
AcDbSymbolTableRecord
100
AcDbBlockTableRecord
2
*PAPER_SPACE
0
ENDTAB
0
ENDSEC
0
SECTION
2
BLOCKS
0
BLOCK
5
20
100
AcDbEntity
100
AcDbBlockBegin
2
*MODEL_SPACE
0
ENDBLK
5
21
100
AcDbEntity
100
AcDbBlockEnd
0
BLOCK
5
1C
100
AcDbEntity
100
AcDbBlockBegin
2
*PAPER_SPACE
0
ENDBLK
5
1D
100
AcDbEntity
100
AcDbBlockEnd
0
ENDSEC
0
SECTION
2
ENTITIES
0
LWPOLYLINE
5
100
100
AcDbEntity
8
0
100
AcDbPolyline
90
4
70
1
43
0.0
10
-63.474230406503537
20
-303.20872199017236
10
-119.99999999999993
20
-303.20872199017236
10
-119.99999999999993
20
-320
10
-63.474230406503537
20
-320
0
LWPOLYLINE
5
101
100
AcDbEntity
8
0
100
AcDbPolyline
90
4
70
1
43
0.0
10
-171.78598096679428
20
-264.11510415358708
10
-157.46602502388293
20
-264.11510415358708
10
-157.46602502388293
20
-225.43646026654844
10
-171.78598096679428
20
-225.43646026654844
0
LWPOLYLINE
5
102
100
AcDbEntity
8
0
100
AcDbPolyline
90
9
70
1
43
0.0
10
-183.3022649025628
20
-202.93375795396739
10
-1.1612787891213822e-06
20
-202.93375795396707
42
-0.41421359817632963
10
9.5000000000001013
20
-212.43375795396696
10
9.5000000000001794
20
-415.00000000000102
42
-0.41421356237310231
10
4.5000000000001261
20
-420.00000000000108
10
-11.350082224342557
20
-420.00000000000102
42
-0.18234631821320599
10
-14.652485568893994
20
-418.75421525087506
10
-176.51187828076849
20
-276.37425988888361
42
-0.21558410792147351
10
-183.3022649025628
20
-261.35739888538728
0
CIRCLE
5
103
100
AcDbEntity
8
0
100
AcDbCircle
10
-14.142562273907409
20
-212.43375795396662
30
0
40
2.5499999999999989
0
CIRCLE
5
104
100
AcDbEntity
8
0
100
AcDbCircle
10
-34.142562273907402
20
-212.43375795396662
30
0
40
2.5499999999999989
0
CIRCLE
5
105
100
AcDbEntity
8
0
100
AcDbCircle
10
-54.142562273907409
20
-212.43375795396662
30
0
40
2.5499999999999989
0
CIRCLE
5
106
100
AcDbEntity
8
0
100
AcDbCircle
10
1.4314314684909202e-13
20
-212.43375795396696
30
0
40
2.5499999999999998
0
CIRCLE
5
107
100
AcDbEntity
8
0
100
AcDbCircle
10
2.1279808533781351e-14
20
-232.43375795396662
30
0
40
2.5499999999999998
0
CIRCLE
5
108
100
AcDbEntity
8
0
100
AcDbCircle
10
2.127980853378132e-14
20
-252.43375795396662
30
0
40
2.5499999999999998
0
CIRCLE
5
109
100
AcDbEntity
8
0
100
AcDbCircle
10
-133.77578143914889
20
-212.43375795396747
30
0
40
2.5500000000000078
0
CIRCLE
5
110
100
AcDbEntity
8
0
100
AcDbCircle
10
-7.5623327553477474e-17
20
-342.99999233335257
30
0
40
2.5499999999999998
0
CIRCLE
5
111
100
AcDbEntity
8
0
100
AcDbCircle
10
-7.5623327553477104e-17
20
-416.00000619888306
30
0
40
2.5500000000000007
0
CIRCLE
5
112
100
AcDbEntity
8
0
100
AcDbCircle
10
-52.536894256058133
20
-295.42126241462154
30
0
40
1.4999995400000188
0
CIRCLE
5
113
100
AcDbEntity
8
0
100
AcDbCircle
10
-147.53690745605724
20
-234.42125741462058
30
0
40
1.4999995399999833
0
CIRCLE
5
114
100
AcDbEntity
8
0
100
AcDbCircle
10
-52.536894256057423
20
-234.42125741462155
30
0
40
1.4999995399999833
0
CIRCLE
5
115
100
AcDbEntity
8
0
100
AcDbCircle
10
-147.53690745605795
20
-295.42126241462051
30
0
40
1.4999995400000188
0
LWPOLYLINE
5
116
100
AcDbEntity
8
0
100
AcDbPolyline
90
4
70
1
43
0.0
10
-25.265210238536433
20
-295.51405860242249
10
-25.265210238536433
20
-239.3340746024225
10
-45.674455263851748
20
-239.3340746024225
10
-45.674455263851748
20
-295.51405860242249
0
LWPOLYLINE
5
117
100
AcDbEntity
8
0
100
AcDbPolyline
90
8
70
1
43
0.0
10
-62.678095216506193
20
-292.91046741462219
10
-62.678095216506193
20
-252.19676637048227
42
0.41421356237308565
10
-65.178095216506222
20
-249.69676637048224
10
-139.66688464001609
20
-249.69676637048221
42
0.41421356237310336
10
-142.16688464001609
20
-252.19676637048221
10
-142.16688464001618
20
-292.91046741462213
42
0.41421356237308876
10
-139.66688464001624
20
-295.41046741462213
10
-65.178095216506264
20
-295.4104674146223
42
0.41421356237310125
0
ENDSEC
0
SECTION
2
OBJECTS
0
DICTIONARY
5
C
100
AcDbDictionary
3
ACAD_GROUP
350
D
3
ACAD_MLINESTYLE
350
17
0
DICTIONARY
5
D
100
AcDbDictionary
0
DICTIONARY
5
1A
330
C
100
AcDbDictionary
0
DICTIONARY
5
17
100
AcDbDictionary
0
ENDSEC
0
EOF
