  0
SECTION
  2
HEADER
  9
$ACADVER
  1
AC1014
  9
$HANDSEED
  5
FFFF
  9
$MEASUREMENT
 70
     1
  0
ENDSEC
  0
SECTION
  2
TABLES
  0
TABLE
  2
VPORT
  5
8
330
0
100
AcDbSymbolTable
 70
     4
  0
VPORT
  5
2E
330
8
100
AcDbSymbolTableRecord
100
AcDbViewportTableRecord
  2
*ACTIVE
 70
     0
 10
0.0
 20
0.0
 11
1.0
 21
1.0
 12
210.0
 22
148.5
 13
0.0
 23
0.0
 14
10.0
 24
10.0
 15
10.0
 25
10.0
 16
0.0
 26
0.0
 36
1.0
 17
0.0
 27
0.0
 37
0.0
 40
341.0
 41
1.24
 42
50.0
 43
0.0
 44
0.0
 50
0.0
 51
0.0
 71
     0
 72
   100
 73
     1
 74
     3
 75
     0
 76
     0
 77
     0
 78
     0
  0
ENDTAB
  0
TABLE
  2
LTYPE
  5
5
330
0
100
AcDbSymbolTable
 70
     1
  0
LTYPE
  5
14
330
5
100
AcDbSymbolTableRecord
100
AcDbLinetypeTableRecord
  2
BYBLOCK
 70
     0
  3

 72
    65
 73
     0
 40
0.0
  0
LTYPE
  5
15
330
5
100
AcDbSymbolTableRecord
100
AcDbLinetypeTableRecord
  2
BYLAYER
 70
     0
  3

 72
    65
 73
     0
 40
0.0
  0
LTYPE
  5
16
330
5
100
AcDbSymbolTableRecord
100
AcDbLinetypeTableRecord
  2
CONTINUOUS
 70
     0
  3
Solid line
 72
    65
 73
     0
 40
0.0
  0
ENDTAB
  0
TABLE
  2
LAYER
  5
2
100
AcDbSymbolTable
 70
2
  0
LAYER
  5
50
100
AcDbSymbolTableRecord
100
AcDbLayerTableRecord
  2
0
 70
0
  6
CONTINUOUS
  0
LAYER
  5
51
100
AcDbSymbolTableRecord
100
AcDbLayerTableRecord
  2
Layer_1
 70
0
  6
CONTINUOUS
  0
ENDTAB
  0
TABLE
  2
STYLE
  5
3
330
0
100
AcDbSymbolTable
 70
     1
  0
STYLE
  5
11
330
3
100
AcDbSymbolTableRecord
100
AcDbTextStyleTableRecord
  2
STANDARD
 70
     0
 40
0.0
 41
1.0
 50
0.0
 71
     0
 42
2.5
  3
txt
  4

  0
ENDTAB
  0
TABLE
  2
VIEW
  5
6
330
0
100
AcDbSymbolTable
 70
     0
  0
ENDTAB
  0
TABLE
  2
UCS
  5
7
330
0
100
AcDbSymbolTable
 70
     0
  0
ENDTAB
  0
TABLE
  2
APPID
  5
9
330
0
100
AcDbSymbolTable
 70
     2
  0
APPID
  5
12
330
9
100
AcDbSymbolTableRecord
100
AcDbRegAppTableRecord
  2
ACAD
 70
     0
  0
ENDTAB
  0
TABLE
  2
DIMSTYLE
  5
A
330
0
100
AcDbSymbolTable
 70
     1
  0
DIMSTYLE
105
27
330
A
100
AcDbSymbolTableRecord
100
AcDbDimStyleTableRecord
  2
ISO-25
 70
     0
  3

  4

  5

  6

  7

 40
1.0
 41
2.5
 42
0.625
 43
3.75
 44
1.25
 45
0.0
 46
0.0
 47
0.0
 48
0.0
140
2.5
141
2.5
142
0.0
143
0.03937007874016
144
1.0
145
0.0
146
1.0
147
0.625
 71
     0
 72
     0
 73
     0
 74
     0
 75
     0
 76
     0
 77
     1
 78
     8
170
     0
171
     3
172
     1
173
     0
174
     0
175
     0
176
     0
177
     0
178
     0
270
     2
271
     2
272
     2
273
     2
274
     3
340
11
275
     0
280
     0
281
     0
282
     0
283
     0
284
     8
285
     0
286
     0
287
     3
288
     0
  0
ENDTAB
  0
TABLE
  2
BLOCK_RECORD
  5
1
330
0
100
AcDbSymbolTable
 70
     1
  0
BLOCK_RECORD
  5
1F
330
1
100
AcDbSymbolTableRecord
100
AcDbBlockTableRecord
  2
*MODEL_SPACE
  0
BLOCK_RECORD
  5
1B
330
1
100
AcDbSymbolTableRecord
100
AcDbBlockTableRecord
  2
*PAPER_SPACE
  0
ENDTAB
  0
ENDSEC
  0
SECTION
  2
BLOCKS
  0
BLOCK
  5
20
330
1F
100
AcDbEntity
  8
0
100
AcDbBlockBegin
  2
*MODEL_SPACE
 70
     0
 10
0.0
 20
0.0
 30
0.0
  3
*MODEL_SPACE
  1

  0
ENDBLK
  5
21
330
1F
100
AcDbEntity
  8
0
100
AcDbBlockEnd
  0
BLOCK
  5
1C
330
1B
100
AcDbEntity
 67
     1
  8
0
100
AcDbBlockBegin
  2
*PAPER_SPACE
  1

  0
ENDBLK
  5
1D
330
1B
100
AcDbEntity
 67
     1
  8
0
100
AcDbBlockEnd
  0
ENDSEC
  0
SECTION
  2
ENTITIES
  0
LWPOLYLINE
  5
100
100
AcDbEntity
  8
Layer_1
 62
7
100
AcDbPolyline
 90
13
 70
1
 10
-410.132673
 20
-65.168958
 30
0.0
 10
-411.382673
 20
-65.503894
 30
0.0
 10
-412.297737
 20
-66.418958
 30
0.0
 10
-412.632673
 20
-67.668958
 30
0.0
 10
-412.297737
 20
-68.918958
 30
0.0
 10
-411.382673
 20
-69.834022
 30
0.0
 10
-410.132673
 20
-70.168958
 30
0.0
 10
-408.882673
 20
-69.834022
 30
0.0
 10
-407.967609
 20
-68.918958
 30
0.0
 10
-407.632673
 20
-67.668958
 30
0.0
 10
-407.967609
 20
-66.418958
 30
0.0
 10
-408.882673
 20
-65.503894
 30
0.0
 10
-410.132673
 20
-65.168958
 30
0.0
  0
LWPOLYLINE
  5
101
100
AcDbEntity
  8
Layer_1
 62
7
100
AcDbPolyline
 90
13
 70
1
 10
-512.632673
 20
-65.168958
 30
0.0
 10
-513.882673
 20
-65.503894
 30
0.0
 10
-514.797737
 20
-66.418958
 30
0.0
 10
-515.132673
 20
-67.668958
 30
0.0
 10
-514.797737
 20
-68.918958
 30
0.0
 10
-513.882673
 20
-69.834022
 30
0.0
 10
-512.632673
 20
-70.168958
 30
0.0
 10
-511.382673
 20
-69.834022
 30
0.0
 10
-510.467610
 20
-68.918958
 30
0.0
 10
-510.132673
 20
-67.668958
 30
0.0
 10
-510.467610
 20
-66.418958
 30
0.0
 10
-511.382673
 20
-65.503894
 30
0.0
 10
-512.632673
 20
-65.168958
 30
0.0
  0
SPLINE
  5
102
100
AcDbEntity
  8
Layer_1
 62
7
100
AcDbSpline
 70
8
 71
3
 72
8
 73
4
 74
0
 40
0
 40
0
 40
0
 40
0
 40
1
 40
1
 40
1
 40
1
 10
-307.632673
 20
-65.168958
 30
0.0
 10
-308.525837
 20
-65.168958
 30
0.0
 10
-309.351155
 20
-65.645455
 30
0.0
 10
-309.797737
 20
-66.418958
 30
0.0
  0
SPLINE
  5
103
100
AcDbEntity
  8
Layer_1
 62
7
100
AcDbSpline
 70
8
 71
3
 72
8
 73
4
 74
0
 40
0
 40
0
 40
0
 40
0
 40
1
 40
1
 40
1
 40
1
 10
-309.797737
 20
-66.418958
 30
0.0
 10
-310.244319
 20
-67.192461
 30
0.0
 10
-310.244319
 20
-68.145455
 30
0.0
 10
-309.797737
 20
-68.918958
 30
0.0
  0
SPLINE
  5
104
100
AcDbEntity
  8
Layer_1
 62
7
100
AcDbSpline
 70
8
 71
3
 72
8
 73
4
 74
0
 40
0
 40
0
 40
0
 40
0
 40
1
 40
1
 40
1
 40
1
 10
-309.797737
 20
-68.918958
 30
0.0
 10
-309.351155
 20
-69.692461
 30
0.0
 10
-308.525837
 20
-70.168958
 30
0.0
 10
-307.632673
 20
-70.168958
 30
0.0
  0
SPLINE
  5
105
100
AcDbEntity
  8
Layer_1
 62
7
100
AcDbSpline
 70
8
 71
3
 72
8
 73
4
 74
0
 40
0
 40
0
 40
0
 40
0
 40
1
 40
1
 40
1
 40
1
 10
-307.632673
 20
-70.168958
 30
0.0
 10
-306.739509
 20
-70.168958
 30
0.0
 10
-305.914191
 20
-69.692461
 30
0.0
 10
-305.467609
 20
-68.918958
 30
0.0
  0
SPLINE
  5
106
100
AcDbEntity
  8
Layer_1
 62
7
100
AcDbSpline
 70
8
 71
3
 72
8
 73
4
 74
0
 40
0
 40
0
 40
0
 40
0
 40
1
 40
1
 40
1
 40
1
 10
-305.467609
 20
-68.918958
 30
0.0
 10
-305.021028
 20
-68.145455
 30
0.0
 10
-305.021028
 20
-67.192461
 30
0.0
 10
-305.467609
 20
-66.418958
 30
0.0
  0
SPLINE
  5
107
100
AcDbEntity
  8
Layer_1
 62
7
100
AcDbSpline
 70
8
 71
3
 72
8
 73
4
 74
0
 40
0
 40
0
 40
0
 40
0
 40
1
 40
1
 40
1
 40
1
 10
-305.467609
 20
-66.418958
 30
0.0
 10
-305.914191
 20
-65.645455
 30
0.0
 10
-306.739509
 20
-65.168958
 30
0.0
 10
-307.632673
 20
-65.168958
 30
0.0
  0
LWPOLYLINE
  5
108
100
AcDbEntity
  8
Layer_1
 62
7
100
AcDbPolyline
 90
36
 70
1
 10
-516.561773
 20
-76.864728
 30
0.0
 10
-518.598679
 20
-75.699985
 30
0.0
 10
-520.245961
 20
-74.161739
 30
0.0
 10
-521.481022
 20
-72.332966
 30
0.0
 10
-522.281263
 20
-70.296644
 30
0.0
 10
-522.624087
 20
-68.135750
 30
0.0
 10
-522.486895
 20
-65.933259
 30
0.0
 10
-521.847090
 20
-63.772150
 30
0.0
 10
-520.682073
 20
-61.735398
 30
0.0
 10
-391.682083
 20
113.264590
 30
0.0
 10
-390.075886
 20
114.978743
 30
0.0
 10
-388.141803
 20
116.256725
 30
0.0
 10
-385.965508
 20
117.055254
 30
0.0
 10
-383.632673
 20
117.331050
 30
0.0
 10
-307.632673
 20
117.331050
 30
0.0
 10
-305.617323
 20
117.127887
 30
0.0
 10
-303.740219
 20
116.545203
 30
0.0
 10
-302.041574
 20
115.623210
 30
0.0
 10
-300.561599
 20
114.402120
 30
0.0
 10
-299.340508
 20
112.922145
 30
0.0
 10
-298.418514
 20
111.223500
 30
0.0
 10
-297.835828
 20
109.346395
 30
0.0
 10
-297.632663
 20
107.331044
 30
0.0
 10
-297.632663
 20
-67.668958
 30
0.0
 10
-297.632663
 20
-91.168958
 30
0.0
 10
-297.835828
 20
-93.184308
 30
0.0
 10
-298.418514
 20
-95.061412
 30
0.0
 10
-299.340508
 20
-96.760057
 30
0.0
 10
-300.561599
 20
-98.240031
 30
0.0
 10
-302.041574
 20
-99.461120
 30
0.0
 10
-303.740219
 20
-100.383113
 30
0.0
 10
-305.617323
 20
-100.965797
 30
0.0
 10
-307.632673
 20
-101.168958
 30
0.0
 10
-457.632673
 20
-101.168958
 30
0.0
 10
-459.637956
 20
-100.965837
 30
0.0
 10
-461.561773
 20
-100.364728
 30
0.0
  0
LWPOLYLINE
  5
109
100
AcDbEntity
  8
Layer_1
 62
7
100
AcDbPolyline
 90
1
 70
1
 10
-307.632673
 20
-65.168958
 30
0.0
  0
LWPOLYLINE
  5
10a
100
AcDbEntity
  8
Layer_1
 62
7
100
AcDbPolyline
 90
13
 70
1
 10
-307.632673
 20
109.831039
 30
0.0
 10
-308.884785
 20
109.497772
 30
0.0
 10
-309.801903
 20
108.582487
 30
0.0
 10
-310.137673
 20
107.331044
 30
0.0
 10
-309.801903
 20
106.079601
 30
0.0
 10
-308.884785
 20
105.164316
 30
0.0
 10
-307.632673
 20
104.831049
 30
0.0
 10
-306.380561
 20
105.164316
 30
0.0
 10
-305.463443
 20
106.079601
 30
0.0
 10
-305.127673
 20
107.331044
 30
0.0
 10
-305.463443
 20
108.582487
 30
0.0
 10
-306.380561
 20
109.497772
 30
0.0
 10
-307.632673
 20
109.831039
 30
0.0
  0
LWPOLYLINE
  5
10b
100
AcDbEntity
  8
Layer_1
 62
7
100
AcDbPolyline
 90
13
 70
1
 10
-307.632673
 20
-45.168958
 30
0.0
 10
-308.883191
 20
-45.503486
 30
0.0
 10
-309.798757
 20
-46.418604
 30
0.0
 10
-310.133898
 20
-47.668958
 30
0.0
 10
-309.798757
 20
-48.919312
 30
0.0
 10
-308.883191
 20
-49.834430
 30
0.0
 10
-307.632673
 20
-50.168958
 30
0.0
 10
-306.382155
 20
-49.834430
 30
0.0
 10
-305.466589
 20
-48.919312
 30
0.0
 10
-305.131448
 20
-47.668958
 30
0.0
 10
-305.466589
 20
-46.418604
 30
0.0
 10
-306.382155
 20
-45.503486
 30
0.0
 10
-307.632673
 20
-45.168958
 30
0.0
  0
SPLINE
  5
10c
100
AcDbEntity
  8
Layer_1
 62
7
100
AcDbSpline
 70
8
 71
3
 72
8
 73
4
 74
0
 40
0
 40
0
 40
0
 40
0
 40
1
 40
1
 40
1
 40
1
 10
-307.632673
 20
-89.168958
 30
0.0
 10
-308.347204
 20
-89.168958
 30
0.0
 10
-309.007458
 20
-89.550156
 30
0.0
 10
-309.364724
 20
-90.168958
 30
0.0
  0
SPLINE
  5
10d
100
AcDbEntity
  8
Layer_1
 62
7
100
AcDbSpline
 70
8
 71
3
 72
8
 73
4
 74
0
 40
0
 40
0
 40
0
 40
0
 40
1
 40
1
 40
1
 40
1
 10
-309.364724
 20
-90.168958
 30
0.0
 10
-309.721989
 20
-90.787760
 30
0.0
 10
-309.721989
 20
-91.550156
 30
0.0
 10
-309.364724
 20
-92.168958
 30
0.0
  0
SPLINE
  5
10e
100
AcDbEntity
  8
Layer_1
 62
7
100
AcDbSpline
 70
8
 71
3
 72
8
 73
4
 74
0
 40
0
 40
0
 40
0
 40
0
 40
1
 40
1
 40
1
 40
1
 10
-309.364724
 20
-92.168958
 30
0.0
 10
-309.007458
 20
-92.787760
 30
0.0
 10
-308.347204
 20
-93.168958
 30
0.0
 10
-307.632673
 20
-93.168958
 30
0.0
  0
SPLINE
  5
10f
100
AcDbEntity
  8
Layer_1
 62
7
100
AcDbSpline
 70
8
 71
3
 72
8
 73
4
 74
0
 40
0
 40
0
 40
0
 40
0
 40
1
 40
1
 40
1
 40
1
 10
-307.632673
 20
-93.168958
 30
0.0
 10
-306.918142
 20
-93.168958
 30
0.0
 10
-306.257888
 20
-92.787760
 30
0.0
 10
-305.900622
 20
-92.168958
 30
0.0
  0
SPLINE
  5
110
100
AcDbEntity
  8
Layer_1
 62
7
100
AcDbSpline
 70
8
 71
3
 72
8
 73
4
 74
0
 40
0
 40
0
 40
0
 40
0
 40
1
 40
1
 40
1
 40
1
 10
-305.900622
 20
-92.168958
 30
0.0
 10
-305.543357
 20
-91.550156
 30
0.0
 10
-305.543357
 20
-90.787760
 30
0.0
 10
-305.900622
 20
-90.168958
 30
0.0
  0
SPLINE
  5
111
100
AcDbEntity
  8
Layer_1
 62
7
100
AcDbSpline
 70
8
 71
3
 72
8
 73
4
 74
0
 40
0
 40
0
 40
0
 40
0
 40
1
 40
1
 40
1
 40
1
 10
-305.900622
 20
-90.168958
 30
0.0
 10
-306.257888
 20
-89.550156
 30
0.0
 10
-306.918142
 20
-89.168958
 30
0.0
 10
-307.632673
 20
-89.168958
 30
0.0
  0
LWPOLYLINE
  5
112
100
AcDbEntity
  8
Layer_1
 62
7
100
AcDbPolyline
 90
13
 70
1
 10
-307.632673
 20
32.331042
 30
0.0
 10
-308.883191
 20
31.996514
 30
0.0
 10
-309.798757
 20
31.081396
 30
0.0
 10
-310.133898
 20
29.831042
 30
0.0
 10
-309.798757
 20
28.580688
 30
0.0
 10
-308.883191
 20
27.665570
 30
0.0
 10
-307.632673
 20
27.331042
 30
0.0
 10
-306.382155
 20
27.665570
 30
0.0
 10
-305.466589
 20
28.580688
 30
0.0
 10
-305.131448
 20
29.831042
 30
0.0
 10
-305.466589
 20
31.081396
 30
0.0
 10
-306.382155
 20
31.996514
 30
0.0
 10
-307.632673
 20
32.331042
 30
0.0
  0
SPLINE
  5
113
100
AcDbEntity
  8
Layer_1
 62
7
100
AcDbSpline
 70
8
 71
3
 72
8
 73
4
 74
0
 40
0
 40
0
 40
0
 40
0
 40
1
 40
1
 40
1
 40
1
 10
-457.632673
 20
-89.168958
 30
0.0
 10
-458.347204
 20
-89.168958
 30
0.0
 10
-459.007458
 20
-89.550156
 30
0.0
 10
-459.364724
 20
-90.168958
 30
0.0
  0
SPLINE
  5
114
100
AcDbEntity
  8
Layer_1
 62
7
100
AcDbSpline
 70
8
 71
3
 72
8
 73
4
 74
0
 40
0
 40
0
 40
0
 40
0
 40
1
 40
1
 40
1
 40
1
 10
-459.364724
 20
-90.168958
 30
0.0
 10
-459.721989
 20
-90.787760
 30
0.0
 10
-459.721989
 20
-91.550156
 30
0.0
 10
-459.364724
 20
-92.168958
 30
0.0
  0
SPLINE
  5
115
100
AcDbEntity
  8
Layer_1
 62
7
100
AcDbSpline
 70
8
 71
3
 72
8
 73
4
 74
0
 40
0
 40
0
 40
0
 40
0
 40
1
 40
1
 40
1
 40
1
 10
-459.364724
 20
-92.168958
 30
0.0
 10
-459.007458
 20
-92.787760
 30
0.0
 10
-458.347204
 20
-93.168958
 30
0.0
 10
-457.632673
 20
-93.168958
 30
0.0
  0
SPLINE
  5
116
100
AcDbEntity
  8
Layer_1
 62
7
100
AcDbSpline
 70
8
 71
3
 72
8
 73
4
 74
0
 40
0
 40
0
 40
0
 40
0
 40
1
 40
1
 40
1
 40
1
 10
-457.632673
 20
-93.168958
 30
0.0
 10
-456.918142
 20
-93.168958
 30
0.0
 10
-456.257888
 20
-92.787760
 30
0.0
 10
-455.900622
 20
-92.168958
 30
0.0
  0
SPLINE
  5
117
100
AcDbEntity
  8
Layer_1
 62
7
100
AcDbSpline
 70
8
 71
3
 72
8
 73
4
 74
0
 40
0
 40
0
 40
0
 40
0
 40
1
 40
1
 40
1
 40
1
 10
-455.900622
 20
-92.168958
 30
0.0
 10
-455.543357
 20
-91.550156
 30
0.0
 10
-455.543357
 20
-90.787760
 30
0.0
 10
-455.900622
 20
-90.168958
 30
0.0
  0
SPLINE
  5
118
100
AcDbEntity
  8
Layer_1
 62
7
100
AcDbSpline
 70
8
 71
3
 72
8
 73
4
 74
0
 40
0
 40
0
 40
0
 40
0
 40
1
 40
1
 40
1
 40
1
 10
-455.900622
 20
-90.168958
 30
0.0
 10
-456.257888
 20
-89.550156
 30
0.0
 10
-456.918142
 20
-89.168958
 30
0.0
 10
-457.632673
 20
-89.168958
 30
0.0
  0
LWPOLYLINE
  5
119
100
AcDbEntity
  8
Layer_1
 62
7
100
AcDbPolyline
 90
1
 70
1
 10
-307.632673
 20
-89.168958
 30
0.0
  0
LWPOLYLINE
  5
11a
100
AcDbEntity
  8
Layer_1
 62
7
100
AcDbPolyline
 90
1
 70
1
 10
-457.632673
 20
-89.168958
 30
0.0
  0
LWPOLYLINE
  5
11b
100
AcDbEntity
  8
Layer_1
 62
7
100
AcDbPolyline
 90
2
 70
0
 10
-307.632673
 20
-91.168958
 30
0.0
 10
-309.632683
 20
-91.168958
 30
0.0
  0
LWPOLYLINE
  5
11c
100
AcDbEntity
  8
Layer_1
 62
7
100
AcDbPolyline
 90
2
 70
0
 10
-455.632673
 20
-91.168958
 30
0.0
 10
-457.632673
 20
-91.168958
 30
0.0
  0
LWPOLYLINE
  5
11d
100
AcDbEntity
  8
Layer_1
 62
7
100
AcDbPolyline
 90
2
 70
0
 10
-307.632673
 20
-67.668958
 30
0.0
 10
-307.632673
 20
-70.168958
 30
0.0
  0
LWPOLYLINE
  5
11e
100
AcDbEntity
  8
Layer_1
 62
7
100
AcDbPolyline
 90
2
 70
0
 10
-307.632673
 20
-89.168958
 30
0.0
 10
-307.632673
 20
-91.168958
 30
0.0
  0
SPLINE
  5
11f
100
AcDbEntity
  8
Layer_1
 62
7
100
AcDbSpline
 70
8
 71
3
 72
8
 73
4
 74
0
 40
0
 40
0
 40
0
 40
0
 40
1
 40
1
 40
1
 40
1
 10
-87.622823
 20
-70.168948
 30
0.0
 10
-86.729659
 20
-70.168948
 30
0.0
 10
-85.904341
 20
-69.692451
 30
0.0
 10
-85.457759
 20
-68.918948
 30
0.0
  0
SPLINE
  5
120
100
AcDbEntity
  8
Layer_1
 62
7
100
AcDbSpline
 70
8
 71
3
 72
8
 73
4
 74
0
 40
0
 40
0
 40
0
 40
0
 40
1
 40
1
 40
1
 40
1
 10
-85.457759
 20
-68.918948
 30
0.0
 10
-85.011178
 20
-68.145445
 30
0.0
 10
-85.011178
 20
-67.192451
 30
0.0
 10
-85.457759
 20
-66.418948
 30
0.0
  0
SPLINE
  5
121
100
AcDbEntity
  8
Layer_1
 62
7
100
AcDbSpline
 70
8
 71
3
 72
8
 73
4
 74
0
 40
0
 40
0
 40
0
 40
0
 40
1
 40
1
 40
1
 40
1
 10
-85.457759
 20
-66.418948
 30
0.0
 10
-85.904341
 20
-65.645445
 30
0.0
 10
-86.729659
 20
-65.168948
 30
0.0
 10
-87.622823
 20
-65.168948
 30
0.0
  0
SPLINE
  5
122
100
AcDbEntity
  8
Layer_1
 62
7
100
AcDbSpline
 70
8
 71
3
 72
8
 73
4
 74
0
 40
0
 40
0
 40
0
 40
0
 40
1
 40
1
 40
1
 40
1
 10
-87.622823
 20
-65.168948
 30
0.0
 10
-88.515987
 20
-65.168948
 30
0.0
 10
-89.341305
 20
-65.645445
 30
0.0
 10
-89.787887
 20
-66.418948
 30
0.0
  0
SPLINE
  5
123
100
AcDbEntity
  8
Layer_1
 62
7
100
AcDbSpline
 70
8
 71
3
 72
8
 73
4
 74
0
 40
0
 40
0
 40
0
 40
0
 40
1
 40
1
 40
1
 40
1
 10
-89.787887
 20
-66.418948
 30
0.0
 10
-90.234468
 20
-67.192451
 30
0.0
 10
-90.234468
 20
-68.145445
 30
0.0
 10
-89.787887
 20
-68.918948
 30
0.0
  0
SPLINE
  5
124
100
AcDbEntity
  8
Layer_1
 62
7
100
AcDbSpline
 70
8
 71
3
 72
8
 73
4
 74
0
 40
0
 40
0
 40
0
 40
0
 40
1
 40
1
 40
1
 40
1
 10
-89.787887
 20
-68.918948
 30
0.0
 10
-89.341305
 20
-69.692451
 30
0.0
 10
-88.515987
 20
-70.168948
 30
0.0
 10
-87.622823
 20
-70.168948
 30
0.0
  0
LWPOLYLINE
  5
125
100
AcDbEntity
  8
Layer_1
 62
7
100
AcDbPolyline
 90
13
 70
1
 10
-287.622823
 20
-70.168948
 30
0.0
 10
-286.372823
 20
-69.834012
 30
0.0
 10
-285.457759
 20
-68.918948
 30
0.0
 10
-285.122823
 20
-67.668948
 30
0.0
 10
-285.457759
 20
-66.418948
 30
0.0
 10
-286.372823
 20
-65.503884
 30
0.0
 10
-287.622823
 20
-65.168948
 30
0.0
 10
-288.872823
 20
-65.503884
 30
0.0
 10
-289.787887
 20
-66.418948
 30
0.0
 10
-290.122823
 20
-67.668948
 30
0.0
 10
-289.787887
 20
-68.918948
 30
0.0
 10
-288.872823
 20
-69.834012
 30
0.0
 10
-287.622823
 20
-70.168948
 30
0.0
  0
LWPOLYLINE
  5
126
100
AcDbEntity
  8
Layer_1
 62
7
100
AcDbPolyline
 90
1
 70
1
 10
-87.622823
 20
-70.168948
 30
0.0
  0
LWPOLYLINE
  5
127
100
AcDbEntity
  8
Layer_1
 62
7
100
AcDbPolyline
 90
13
 70
1
 10
-287.622823
 20
104.831052
 30
0.0
 10
-286.372305
 20
105.165580
 30
0.0
 10
-285.456739
 20
106.080698
 30
0.0
 10
-285.121598
 20
107.331052
 30
0.0
 10
-285.456739
 20
108.581406
 30
0.0
 10
-286.372305
 20
109.496524
 30
0.0
 10
-287.622823
 20
109.831052
 30
0.0
 10
-288.873341
 20
109.496524
 30
0.0
 10
-289.788907
 20
108.581406
 30
0.0
 10
-290.124048
 20
107.331052
 30
0.0
 10
-289.788907
 20
106.080698
 30
0.0
 10
-288.873341
 20
105.165580
 30
0.0
 10
-287.622823
 20
104.831052
 30
0.0
  0
LWPOLYLINE
  5
128
100
AcDbEntity
  8
Layer_1
 62
7
100
AcDbPolyline
 90
13
 70
1
 10
-287.622823
 20
27.331052
 30
0.0
 10
-286.372305
 20
27.665580
 30
0.0
 10
-285.456739
 20
28.580698
 30
0.0
 10
-285.121598
 20
29.831052
 30
0.0
 10
-285.456739
 20
31.081406
 30
0.0
 10
-286.372305
 20
31.996524
 30
0.0
 10
-287.622823
 20
32.331052
 30
0.0
 10
-288.873341
 20
31.996524
 30
0.0
 10
-289.788907
 20
31.081406
 30
0.0
 10
-290.124048
 20
29.831052
 30
0.0
 10
-289.788907
 20
28.580698
 30
0.0
 10
-288.873341
 20
27.665580
 30
0.0
 10
-287.622823
 20
27.331052
 30
0.0
  0
LWPOLYLINE
  5
129
100
AcDbEntity
  8
Layer_1
 62
7
100
AcDbPolyline
 90
13
 70
1
 10
-287.622823
 20
-50.168948
 30
0.0
 10
-286.372823
 20
-49.834012
 30
0.0
 10
-285.457759
 20
-48.918948
 30
0.0
 10
-285.122823
 20
-47.668948
 30
0.0
 10
-285.457759
 20
-46.418948
 30
0.0
 10
-286.372823
 20
-45.503884
 30
0.0
 10
-287.622823
 20
-45.168948
 30
0.0
 10
-288.872823
 20
-45.503884
 30
0.0
 10
-289.787887
 20
-46.418948
 30
0.0
 10
-290.122823
 20
-47.668948
 30
0.0
 10
-289.787887
 20
-48.918948
 30
0.0
 10
-288.872823
 20
-49.834012
 30
0.0
 10
-287.622823
 20
-50.168948
 30
0.0
  0
LWPOLYLINE
  5
12a
100
AcDbEntity
  8
Layer_1
 62
7
100
AcDbPolyline
 90
13
 70
1
 10
-185.122823
 20
-70.168948
 30
0.0
 10
-183.872823
 20
-69.834012
 30
0.0
 10
-182.957759
 20
-68.918948
 30
0.0
 10
-182.622823
 20
-67.668948
 30
0.0
 10
-182.957759
 20
-66.418948
 30
0.0
 10
-183.872823
 20
-65.503884
 30
0.0
 10
-185.122823
 20
-65.168948
 30
0.0
 10
-186.372823
 20
-65.503884
 30
0.0
 10
-187.287887
 20
-66.418948
 30
0.0
 10
-187.622823
 20
-67.668948
 30
0.0
 10
-187.287887
 20
-68.918948
 30
0.0
 10
-186.372823
 20
-69.834012
 30
0.0
 10
-185.122823
 20
-70.168948
 30
0.0
  0
LWPOLYLINE
  5
12b
100
AcDbEntity
  8
Layer_1
 62
7
100
AcDbPolyline
 90
32
 70
0
 10
-297.622833
 20
-67.668948
 30
0.0
 10
-297.419668
 20
-69.684298
 30
0.0
 10
-296.836982
 20
-71.561402
 30
0.0
 10
-295.914988
 20
-73.260047
 30
0.0
 10
-294.693897
 20
-74.740021
 30
0.0
 10
-293.213922
 20
-75.961110
 30
0.0
 10
-291.515277
 20
-76.883103
 30
0.0
 10
-289.638173
 20
-77.465787
 30
0.0
 10
-287.622823
 20
-77.668948
 30
0.0
 10
-87.622823
 20
-77.668948
 30
0.0
 10
-84.749471
 20
-77.262461
 30
0.0
 10
-82.263948
 20
-76.134371
 30
0.0
 10
-80.237117
 20
-74.421738
 30
0.0
 10
-78.739839
 20
-72.261621
 30
0.0
 10
-77.842976
 20
-69.791077
 30
0.0
 10
-77.617389
 20
-67.147166
 30
0.0
 10
-78.133941
 20
-64.466947
 30
0.0
 10
-79.463493
 20
-61.887478
 30
0.0
 10
-203.463493
 20
113.112522
 30
0.0
 10
-205.073316
 20
114.887944
 30
0.0
 10
-207.030147
 20
116.214033
 30
0.0
 10
-209.243483
 20
117.043999
 30
0.0
 10
-211.622823
 20
117.331052
 30
0.0
 10
-287.622823
 20
117.331052
 30
0.0
 10
-289.638173
 20
117.127891
 30
0.0
 10
-291.515277
 20
116.545207
 30
0.0
 10
-293.213922
 20
115.623214
 30
0.0
 10
-294.693897
 20
114.402125
 30
0.0
 10
-295.914988
 20
112.922151
 30
0.0
 10
-296.836982
 20
111.223506
 30
0.0
 10
-297.419668
 20
109.346402
 30
0.0
 10
-297.622833
 20
107.331052
 30
0.0
  0
LWPOLYLINE
  5
12c
100
AcDbEntity
  8
Layer_1
 62
7
100
AcDbPolyline
 90
13
 70
1
 10
-252.622823
 20
-19.168948
 30
0.0
 10
-251.872823
 20
-18.967986
 30
0.0
 10
-251.323785
 20
-18.418948
 30
0.0
 10
-251.122823
 20
-17.668948
 30
0.0
 10
-251.323785
 20
-16.918948
 30
0.0
 10
-251.872823
 20
-16.369910
 30
0.0
 10
-252.622823
 20
-16.168948
 30
0.0
 10
-253.372823
 20
-16.369910
 30
0.0
 10
-253.921861
 20
-16.918948
 30
0.0
 10
-254.122823
 20
-17.668948
 30
0.0
 10
-253.921861
 20
-18.418948
 30
0.0
 10
-253.372823
 20
-18.967986
 30
0.0
 10
-252.622823
 20
-19.168948
 30
0.0
  0
LWPOLYLINE
  5
12d
100
AcDbEntity
  8
Layer_1
 62
7
100
AcDbPolyline
 90
13
 70
1
 10
-191.622823
 20
-19.168948
 30
0.0
 10
-190.872823
 20
-18.967986
 30
0.0
 10
-190.323785
 20
-18.418948
 30
0.0
 10
-190.122823
 20
-17.668948
 30
0.0
 10
-190.323785
 20
-16.918948
 30
0.0
 10
-190.872823
 20
-16.369910
 30
0.0
 10
-191.622823
 20
-16.168948
 30
0.0
 10
-192.372823
 20
-16.369910
 30
0.0
 10
-192.921861
 20
-16.918948
 30
0.0
 10
-193.122823
 20
-17.668948
 30
0.0
 10
-192.921861
 20
-18.418948
 30
0.0
 10
-192.372823
 20
-18.967986
 30
0.0
 10
-191.622823
 20
-19.168948
 30
0.0
  0
LWPOLYLINE
  5
12e
100
AcDbEntity
  8
Layer_1
 62
7
100
AcDbPolyline
 90
13
 70
1
 10
-191.622823
 20
75.831052
 30
0.0
 10
-190.872823
 20
76.032014
 30
0.0
 10
-190.323785
 20
76.581052
 30
0.0
 10
-190.122823
 20
77.331052
 30
0.0
 10
-190.323785
 20
78.081052
 30
0.0
 10
-190.872823
 20
78.630090
 30
0.0
 10
-191.622823
 20
78.831052
 30
0.0
 10
-192.372823
 20
78.630090
 30
0.0
 10
-192.921861
 20
78.081052
 30
0.0
 10
-193.122823
 20
77.331052
 30
0.0
 10
-192.921861
 20
76.581052
 30
0.0
 10
-192.372823
 20
76.032014
 30
0.0
 10
-191.622823
 20
75.831052
 30
0.0
  0
LWPOLYLINE
  5
12f
100
AcDbEntity
  8
Layer_1
 62
7
100
AcDbPolyline
 90
13
 70
1
 10
-252.622823
 20
75.831052
 30
0.0
 10
-251.872823
 20
76.032014
 30
0.0
 10
-251.323785
 20
76.581052
 30
0.0
 10
-251.122823
 20
77.331052
 30
0.0
 10
-251.323785
 20
78.081052
 30
0.0
 10
-251.872823
 20
78.630090
 30
0.0
 10
-252.622823
 20
78.831052
 30
0.0
 10
-253.372823
 20
78.630090
 30
0.0
 10
-253.921861
 20
78.081052
 30
0.0
 10
-254.122823
 20
77.331052
 30
0.0
 10
-253.921861
 20
76.581052
 30
0.0
 10
-253.372823
 20
76.032014
 30
0.0
 10
-252.622823
 20
75.831052
 30
0.0
  0
LWPOLYLINE
  5
130
100
AcDbEntity
  8
Layer_1
 62
7
100
AcDbPolyline
 90
21
 70
1
 10
-247.622823
 20
-39.668948
 30
0.0
 10
-247.622823
 20
-25.668948
 30
0.0
 10
-247.394462
 20
-24.520898
 30
0.0
 10
-246.744143
 20
-23.547628
 30
0.0
 10
-245.770873
 20
-22.897309
 30
0.0
 10
-244.622823
 20
-22.668948
 30
0.0
 10
-194.764303
 20
-22.668948
 30
0.0
 10
-193.616253
 20
-22.897309
 30
0.0
 10
-192.642983
 20
-23.547628
 30
0.0
 10
-191.992664
 20
-24.520898
 30
0.0
 10
-191.764303
 20
-25.668948
 30
0.0
 10
-191.764303
 20
-39.668948
 30
0.0
 10
-191.992664
 20
-40.816998
 30
0.0
 10
-192.642983
 20
-41.790268
 30
0.0
 10
-193.616253
 20
-42.440587
 30
0.0
 10
-194.764303
 20
-42.668948
 30
0.0
 10
-244.622823
 20
-42.668948
 30
0.0
 10
-245.770873
 20
-42.440587
 30
0.0
 10
-246.744143
 20
-41.790268
 30
0.0
 10
-247.394462
 20
-40.816998
 30
0.0
 10
-247.622823
 20
-39.668948
 30
0.0
  0
LWPOLYLINE
  5
131
100
AcDbEntity
  8
Layer_1
 62
7
100
AcDbPolyline
 90
21
 70
1
 10
-192.622823
 20
10.331052
 30
0.0
 10
-192.622823
 20
73.178942
 30
0.0
 10
-192.858581
 20
74.346674
 30
0.0
 10
-193.501506
 20
75.300256
 30
0.0
 10
-194.455090
 20
75.943178
 30
0.0
 10
-195.622823
 20
76.178932
 30
0.0
 10
-224.622823
 20
76.178932
 30
0.0
 10
-225.790556
 20
75.943178
 30
0.0
 10
-226.744140
 20
75.300256
 30
0.0
 10
-227.387065
 20
74.346674
 30
0.0
 10
-227.622823
 20
73.178942
 30
0.0
 10
-227.622823
 20
10.331052
 30
0.0
 10
-227.394462
 20
9.183002
 30
0.0
 10
-226.744143
 20
8.209732
 30
0.0
 10
-225.770873
 20
7.559413
 30
0.0
 10
-224.622823
 20
7.331052
 30
0.0
 10
-195.622823
 20
7.331052
 30
0.0
 10
-194.474773
 20
7.559413
 30
0.0
 10
-193.501503
 20
8.209732
 30
0.0
 10
-192.851184
 20
9.183002
 30
0.0
 10
-192.622823
 20
10.331052
 30
0.0
  0
LWPOLYLINE
  5
132
100
AcDbEntity
  8
Layer_1
 62
7
100
AcDbPolyline
 90
13
 70
1
 10
-252.622823
 20
87.831052
 30
0.0
 10
-251.872128
 20
88.031466
 30
0.0
 10
-251.322415
 20
88.580577
 30
0.0
 10
-251.121179
 20
89.331052
 30
0.0
 10
-251.322415
 20
90.081527
 30
0.0
 10
-251.872128
 20
90.630638
 30
0.0
 10
-252.622823
 20
90.831052
 30
0.0
 10
-253.373518
 20
90.630638
 30
0.0
 10
-253.923231
 20
90.081527
 30
0.0
 10
-254.124467
 20
89.331052
 30
0.0
 10
-253.923231
 20
88.580577
 30
0.0
 10
-253.373518
 20
88.031466
 30
0.0
 10
-252.622823
 20
87.831052
 30
0.0
  0
LWPOLYLINE
  5
133
100
AcDbEntity
  8
Layer_1
 62
7
100
AcDbPolyline
 90
13
 70
1
 10
-228.622823
 20
111.831052
 30
0.0
 10
-227.872823
 20
112.032014
 30
0.0
 10
-227.323785
 20
112.581052
 30
0.0
 10
-227.122823
 20
113.331052
 30
0.0
 10
-227.323785
 20
114.081052
 30
0.0
 10
-227.872823
 20
114.630090
 30
0.0
 10
-228.622823
 20
114.831052
 30
0.0
 10
-229.372823
 20
114.630090
 30
0.0
 10
-229.921861
 20
114.081052
 30
0.0
 10
-230.122823
 20
113.331052
 30
0.0
 10
-229.921861
 20
112.581052
 30
0.0
 10
-229.372823
 20
112.032014
 30
0.0
 10
-228.622823
 20
111.831052
 30
0.0
  0
LWPOLYLINE
  5
134
100
AcDbEntity
  8
Layer_1
 62
7
100
AcDbPolyline
 90
21
 70
1
 10
-186.613793
 20
19.331052
 30
0.0
 10
-186.613793
 20
-14.668948
 30
0.0
 10
-186.385432
 20
-15.816998
 30
0.0
 10
-185.735113
 20
-16.790268
 30
0.0
 10
-184.761843
 20
-17.440587
 30
0.0
 10
-183.613793
 20
-17.668948
 30
0.0
 10
-179.613793
 20
-17.668948
 30
0.0
 10
-178.465743
 20
-17.440587
 30
0.0
 10
-177.492473
 20
-16.790268
 30
0.0
 10
-176.842154
 20
-15.816998
 30
0.0
 10
-176.613793
 20
-14.668948
 30
0.0
 10
-176.613793
 20
19.331052
 30
0.0
 10
-176.842154
 20
20.479102
 30
0.0
 10
-177.492473
 20
21.452372
 30
0.0
 10
-178.465743
 20
22.102691
 30
0.0
 10
-179.613793
 20
22.331052
 30
0.0
 10
-183.613793
 20
22.331052
 30
0.0
 10
-184.761843
 20
22.102691
 30
0.0
 10
-185.735113
 20
21.452372
 30
0.0
 10
-186.385432
 20
20.479102
 30
0.0
 10
-186.613793
 20
19.331052
 30
0.0
  0
LWPOLYLINE
  5
135
100
AcDbEntity
  8
Layer_1
 62
7
100
AcDbPolyline
 90
13
 70
1
 10
-172.622823
 20
60.831052
 30
0.0
 10
-171.872823
 20
61.032014
 30
0.0
 10
-171.323785
 20
61.581052
 30
0.0
 10
-171.122823
 20
62.331052
 30
0.0
 10
-171.323785
 20
63.081052
 30
0.0
 10
-171.872823
 20
63.630090
 30
0.0
 10
-172.622823
 20
63.831052
 30
0.0
 10
-173.372823
 20
63.630090
 30
0.0
 10
-173.921861
 20
63.081052
 30
0.0
 10
-174.122823
 20
62.331052
 30
0.0
 10
-173.921861
 20
61.581052
 30
0.0
 10
-173.372823
 20
61.032014
 30
0.0
 10
-172.622823
 20
60.831052
 30
0.0
  0
LWPOLYLINE
  5
136
100
AcDbEntity
  8
Layer_1
 62
7
100
AcDbPolyline
 90
13
 70
1
 10
-172.622823
 20
45.831052
 30
0.0
 10
-171.872128
 20
46.031466
 30
0.0
 10
-171.322415
 20
46.580577
 30
0.0
 10
-171.121179
 20
47.331052
 30
0.0
 10
-171.322415
 20
48.081527
 30
0.0
 10
-171.872128
 20
48.630638
 30
0.0
 10
-172.622823
 20
48.831052
 30
0.0
 10
-173.373518
 20
48.630638
 30
0.0
 10
-173.923231
 20
48.081527
 30
0.0
 10
-174.124467
 20
47.331052
 30
0.0
 10
-173.923231
 20
46.580577
 30
0.0
 10
-173.373518
 20
46.031466
 30
0.0
 10
-172.622823
 20
45.831052
 30
0.0
  0
LWPOLYLINE
  5
137
100
AcDbEntity
  8
Layer_1
 62
7
100
AcDbPolyline
 90
2
 70
0
 10
-90.122823
 20
-67.668948
 30
0.0
 10
-87.622823
 20
-67.668948
 30
0.0
  0
LWPOLYLINE
  5
138
100
AcDbEntity
  8
Layer_1
 62
7
100
AcDbPolyline
 90
13
 70
1
 10
-252.622823
 20
111.831052
 30
0.0
 10
-251.872823
 20
112.032014
 30
0.0
 10
-251.323785
 20
112.581052
 30
0.0
 10
-251.122823
 20
113.331052
 30
0.0
 10
-251.323785
 20
114.081052
 30
0.0
 10
-251.872823
 20
114.630090
 30
0.0
 10
-252.622823
 20
114.831052
 30
0.0
 10
-253.372823
 20
114.630090
 30
0.0
 10
-253.921861
 20
114.081052
 30
0.0
 10
-254.122823
 20
113.331052
 30
0.0
 10
-253.921861
 20
112.581052
 30
0.0
 10
-253.372823
 20
112.032014
 30
0.0
 10
-252.622823
 20
111.831052
 30
0.0
  0
LWPOLYLINE
  5
139
100
AcDbEntity
  8
Layer_1
 62
7
100
AcDbPolyline
 90
13
 70
1
 10
-228.622823
 20
87.831052
 30
0.0
 10
-227.872128
 20
88.031466
 30
0.0
 10
-227.322415
 20
88.580577
 30
0.0
 10
-227.121179
 20
89.331052
 30
0.0
 10
-227.322415
 20
90.081527
 30
0.0
 10
-227.872128
 20
90.630638
 30
0.0
 10
-228.622823
 20
90.831052
 30
0.0
 10
-229.373518
 20
90.630638
 30
0.0
 10
-229.923231
 20
90.081527
 30
0.0
 10
-230.124467
 20
89.331052
 30
0.0
 10
-229.923231
 20
88.580577
 30
0.0
 10
-229.373518
 20
88.031466
 30
0.0
 10
-228.622823
 20
87.831052
 30
0.0
  0
LWPOLYLINE
  5
13a
100
AcDbEntity
  8
Layer_1
 62
7
100
AcDbPolyline
 90
25
 70
1
 10
-403.408530
 20
241.773230
 30
0.0
 10
-403.495069
 20
242.425524
 30
0.0
 10
-403.743467
 20
243.023230
 30
0.0
 10
-404.136896
 20
243.537201
 30
0.0
 10
-404.658530
 20
243.938293
 30
0.0
 10
-405.266703
 20
244.189496
 30
0.0
 10
-405.908530
 20
244.273230
 30
0.0
 10
-406.550357
 20
244.189496
 30
0.0
 10
-407.158530
 20
243.938293
 30
0.0
 10
-407.680164
 20
243.537201
 30
0.0
 10
-408.073594
 20
243.023230
 30
0.0
 10
-408.321991
 20
242.425524
 30
0.0
 10
-408.408530
 20
241.773230
 30
0.0
 10
-408.321991
 20
241.120936
 30
0.0
 10
-408.073594
 20
240.523230
 30
0.0
 10
-407.680164
 20
240.009258
 30
0.0
 10
-407.158530
 20
239.608166
 30
0.0
 10
-406.550357
 20
239.356964
 30
0.0
 10
-405.908530
 20
239.273230
 30
0.0
 10
-405.266703
 20
239.356964
 30
0.0
 10
-404.658530
 20
239.608166
 30
0.0
 10
-404.136896
 20
240.009258
 30
0.0
 10
-403.743467
 20
240.523230
 30
0.0
 10
-403.495069
 20
241.120936
 30
0.0
 10
-403.408530
 20
241.773230
 30
0.0
  0
LWPOLYLINE
  5
13b
100
AcDbEntity
  8
Layer_1
 62
7
100
AcDbPolyline
 90
6
 70
1
 10
-425.195435
 20
209.424875
 30
0.0
 10
-425.195435
 20
252.424878
 30
0.0
 10
-453.195434
 20
252.424878
 30
0.0
 10
-453.195434
 20
209.424875
 30
0.0
 10
-448.195434
 20
204.424859
 30
0.0
 10
-430.195435
 20
204.424859
 30
0.0
  0
LWPOLYLINE
  5
13c
100
AcDbEntity
  8
Layer_1
 62
7
100
AcDbPolyline
 90
25
 70
1
 10
-416.945435
 20
228.424868
 30
0.0
 10
-417.023320
 20
229.011933
 30
0.0
 10
-417.246878
 20
229.549868
 30
0.0
 10
-417.600965
 20
230.012443
 30
0.0
 10
-418.070435
 20
230.373426
 30
0.0
 10
-418.617791
 20
230.599508
 30
0.0
 10
-419.195435
 20
230.674868
 30
0.0
 10
-419.773080
 20
230.599508
 30
0.0
 10
-420.320435
 20
230.373426
 30
0.0
 10
-420.789906
 20
230.012443
 30
0.0
 10
-421.143992
 20
229.549868
 30
0.0
 10
-421.367550
 20
229.011933
 30
0.0
 10
-421.445435
 20
228.424868
 30
0.0
 10
-421.367550
 20
227.837804
 30
0.0
 10
-421.143992
 20
227.299868
 30
0.0
 10
-420.789906
 20
226.837294
 30
0.0
 10
-420.320435
 20
226.476311
 30
0.0
 10
-419.773080
 20
226.250229
 30
0.0
 10
-419.195435
 20
226.174868
 30
0.0
 10
-418.617791
 20
226.250229
 30
0.0
 10
-418.070435
 20
226.476311
 30
0.0
 10
-417.600965
 20
226.837294
 30
0.0
 10
-417.246878
 20
227.299868
 30
0.0
 10
-417.023320
 20
227.837804
 30
0.0
 10
-416.945435
 20
228.424868
 30
0.0
  0
LWPOLYLINE
  5
13d
100
AcDbEntity
  8
Layer_1
 62
7
100
AcDbPolyline
 90
25
 70
1
 10
-456.945435
 20
228.424868
 30
0.0
 10
-457.022985
 20
229.012241
 30
0.0
 10
-457.246363
 20
229.550521
 30
0.0
 10
-457.600415
 20
230.013435
 30
0.0
 10
-458.069989
 20
230.374711
 30
0.0
 10
-458.617547
 20
230.600987
 30
0.0
 10
-459.195434
 20
230.676412
 30
0.0
 10
-459.773321
 20
230.600987
 30
0.0
 10
-460.320879
 20
230.374711
 30
0.0
 10
-460.790453
 20
230.013435
 30
0.0
 10
-461.144505
 20
229.550521
 30
0.0
 10
-461.367883
 20
229.012241
 30
0.0
 10
-461.445434
 20
228.424868
 30
0.0
 10
-461.367883
 20
227.837496
 30
0.0
 10
-461.144505
 20
227.299216
 30
0.0
 10
-460.790453
 20
226.836302
 30
0.0
 10
-460.320879
 20
226.475025
 30
0.0
 10
-459.773321
 20
226.248750
 30
0.0
 10
-459.195434
 20
226.173325
 30
0.0
 10
-458.617547
 20
226.248750
 30
0.0
 10
-458.069989
 20
226.475025
 30
0.0
 10
-457.600415
 20
226.836302
 30
0.0
 10
-457.246363
 20
227.299216
 30
0.0
 10
-457.022985
 20
227.837496
 30
0.0
 10
-456.945435
 20
228.424868
 30
0.0
  0
LWPOLYLINE
  5
13e
100
AcDbEntity
  8
Layer_1
 62
7
100
AcDbPolyline
 90
25
 70
1
 10
-403.408530
 20
211.670208
 30
0.0
 10
-403.495069
 20
212.322503
 30
0.0
 10
-403.743467
 20
212.920208
 30
0.0
 10
-404.136896
 20
213.434180
 30
0.0
 10
-404.658530
 20
213.835272
 30
0.0
 10
-405.266703
 20
214.086474
 30
0.0
 10
-405.908530
 20
214.170208
 30
0.0
 10
-406.550357
 20
214.086474
 30
0.0
 10
-407.158530
 20
213.835272
 30
0.0
 10
-407.680164
 20
213.434180
 30
0.0
 10
-408.073594
 20
212.920208
 30
0.0
 10
-408.321991
 20
212.322503
 30
0.0
 10
-408.408530
 20
211.670208
 30
0.0
 10
-408.321991
 20
211.017914
 30
0.0
 10
-408.073594
 20
210.420208
 30
0.0
 10
-407.680164
 20
209.906237
 30
0.0
 10
-407.158530
 20
209.505145
 30
0.0
 10
-406.550357
 20
209.253943
 30
0.0
 10
-405.908530
 20
209.170208
 30
0.0
 10
-405.266703
 20
209.253943
 30
0.0
 10
-404.658530
 20
209.505145
 30
0.0
 10
-404.136896
 20
209.906237
 30
0.0
 10
-403.743467
 20
210.420208
 30
0.0
 10
-403.495069
 20
211.017914
 30
0.0
 10
-403.408530
 20
211.670208
 30
0.0
  0
LWPOLYLINE
  5
13f
100
AcDbEntity
  8
Layer_1
 62
7
100
AcDbPolyline
 90
80
 70
0
 10
-398.749665
 20
213.632014
 30
0.0
 10
-398.865829
 20
211.331518
 30
0.0
 10
-399.206784
 20
209.097475
 30
0.0
 10
-399.761218
 20
206.941197
 30
0.0
 10
-400.517824
 20
204.873992
 30
0.0
 10
-401.465291
 20
202.907171
 30
0.0
 10
-402.592309
 20
201.052042
 30
0.0
 10
-403.887568
 20
199.319916
 30
0.0
 10
-405.339759
 20
197.722103
 30
0.0
 10
-406.937573
 20
196.269912
 30
0.0
 10
-408.669698
 20
194.974652
 30
0.0
 10
-410.524826
 20
193.847634
 30
0.0
 10
-412.491647
 20
192.900168
 30
0.0
 10
-414.558851
 20
192.143562
 30
0.0
 10
-416.715129
 20
191.589127
 30
0.0
 10
-418.949170
 20
191.248172
 30
0.0
 10
-421.249665
 20
191.132007
 30
0.0
 10
-431.834909
 20
191.132007
 30
0.0
 10
-433.507355
 20
191.174296
 30
0.0
 10
-435.157846
 20
191.299801
 30
0.0
 10
-436.784340
 20
191.506480
 30
0.0
 10
-438.384795
 20
191.792292
 30
0.0
 10
-439.957168
 20
192.155194
 30
0.0
 10
-441.499418
 20
192.593144
 30
0.0
 10
-444.485379
 20
193.686020
 30
0.0
 10
-447.326343
 20
195.054585
 30
0.0
 10
-450.005973
 20
196.682501
 30
0.0
 10
-452.507932
 20
198.553433
 30
0.0
 10
-454.815884
 20
200.651044
 30
0.0
 10
-456.913494
 20
202.958997
 30
0.0
 10
-458.784424
 20
205.460958
 30
0.0
 10
-460.412339
 20
208.140588
 30
0.0
 10
-461.780902
 20
210.981552
 30
0.0
 10
-462.873776
 20
213.967514
 30
0.0
 10
-463.311725
 20
215.509764
 30
0.0
 10
-463.674626
 20
217.082137
 30
0.0
 10
-463.960437
 20
218.682591
 30
0.0
 10
-464.167116
 20
220.309085
 30
0.0
 10
-464.292620
 20
221.959575
 30
0.0
 10
-464.334908
 20
223.632021
 30
0.0
 10
-464.334908
 20
233.723943
 30
0.0
 10
-464.292619
 20
235.396389
 30
0.0
 10
-464.167113
 20
237.046879
 30
0.0
 10
-463.960433
 20
238.673372
 30
0.0
 10
-463.674621
 20
240.273826
 30
0.0
 10
-463.311719
 20
241.846199
 30
0.0
 10
-462.873769
 20
243.388448
 30
0.0
 10
-461.780893
 20
246.374408
 30
0.0
 10
-460.412330
 20
249.215370
 30
0.0
 10
-458.784414
 20
251.894998
 30
0.0
 10
-456.913484
 20
254.396956
 30
0.0
 10
-454.815874
 20
256.704907
 30
0.0
 10
-452.507922
 20
258.802516
 30
0.0
 10
-450.005964
 20
260.673445
 30
0.0
 10
-447.326335
 20
262.301359
 30
0.0
 10
-444.485373
 20
263.669922
 30
0.0
 10
-441.499412
 20
264.762796
 30
0.0
 10
-439.957163
 20
265.200746
 30
0.0
 10
-438.384791
 20
265.563647
 30
0.0
 10
-436.784337
 20
265.849458
 30
0.0
 10
-435.157845
 20
266.056137
 30
0.0
 10
-433.507354
 20
266.181642
 30
0.0
 10
-431.834909
 20
266.223931
 30
0.0
 10
-421.249665
 20
266.223931
 30
0.0
 10
-418.949172
 20
266.107766
 30
0.0
 10
-416.715132
 20
265.766811
 30
0.0
 10
-414.558856
 20
265.212376
 30
0.0
 10
-412.491652
 20
264.455771
 30
0.0
 10
-410.524832
 20
263.508304
 30
0.0
 10
-408.669704
 20
262.381287
 30
0.0
 10
-406.937578
 20
261.086028
 30
0.0
 10
-405.339765
 20
259.633838
 30
0.0
 10
-403.887573
 20
258.036026
 30
0.0
 10
-402.592313
 20
256.303902
 30
0.0
 10
-401.465295
 20
254.448776
 30
0.0
 10
-400.517828
 20
252.481957
 30
0.0
 10
-399.761221
 20
250.414755
 30
0.0
 10
-399.206785
 20
248.258480
 30
0.0
 10
-398.865830
 20
246.024442
 30
0.0
 10
-398.749665
 20
243.723950
 30
0.0
  0
LWPOLYLINE
  5
140
100
AcDbEntity
  8
Layer_1
 62
7
100
AcDbPolyline
 90
25
 70
1
 10
-133.310080
 20
355.279893
 30
0.0
 10
-133.701456
 20
355.227969
 30
0.0
 10
-134.060080
 20
355.078931
 30
0.0
 10
-134.368463
 20
354.842873
 30
0.0
 10
-134.609119
 20
354.529892
 30
0.0
 10
-134.759840
 20
354.164988
 30
0.0
 10
-134.810081
 20
353.779892
 30
0.0
 10
-134.759840
 20
353.394795
 30
0.0
 10
-134.609119
 20
353.029891
 30
0.0
 10
-134.368463
 20
352.716911
 30
0.0
 10
-134.060080
 20
352.480853
 30
0.0
 10
-133.701456
 20
352.331814
 30
0.0
 10
-133.310080
 20
352.279891
 30
0.0
 10
-132.918703
 20
352.331814
 30
0.0
 10
-132.560079
 20
352.480853
 30
0.0
 10
-132.251696
 20
352.716911
 30
0.0
 10
-132.011041
 20
353.029891
 30
0.0
 10
-131.860319
 20
353.394795
 30
0.0
 10
-131.810079
 20
353.779892
 30
0.0
 10
-131.860319
 20
354.164988
 30
0.0
 10
-132.011041
 20
354.529892
 30
0.0
 10
-132.251696
 20
354.842873
 30
0.0
 10
-132.560079
 20
355.078931
 30
0.0
 10
-132.918703
 20
355.227969
 30
0.0
 10
-133.310080
 20
355.279893
 30
0.0
  0
LWPOLYLINE
  5
141
100
AcDbEntity
  8
Layer_1
 62
7
100
AcDbPolyline
 90
25
 70
1
 10
-462.310084
 20
102.279894
 30
0.0
 10
-462.701638
 20
102.228164
 30
0.0
 10
-463.060461
 20
102.079229
 30
0.0
 10
-463.369040
 20
101.843191
 30
0.0
 10
-463.609865
 20
101.530151
 30
0.0
 10
-463.760697
 20
101.165131
 30
0.0
 10
-463.810975
 20
100.779894
 30
0.0
 10
-463.760697
 20
100.394658
 30
0.0
 10
-463.609865
 20
100.029637
 30
0.0
 10
-463.369040
 20
99.716597
 30
0.0
 10
-463.060461
 20
99.480559
 30
0.0
 10
-462.701638
 20
99.331625
 30
0.0
 10
-462.310084
 20
99.279895
 30
0.0
 10
-461.918530
 20
99.331625
 30
0.0
 10
-461.559708
 20
99.480559
 30
0.0
 10
-461.251129
 20
99.716597
 30
0.0
 10
-461.010304
 20
100.029637
 30
0.0
 10
-460.859471
 20
100.394658
 30
0.0
 10
-460.809193
 20
100.779894
 30
0.0
 10
-460.859471
 20
101.165131
 30
0.0
 10
-461.010304
 20
101.530151
 30
0.0
 10
-461.251129
 20
101.843191
 30
0.0
 10
-461.559708
 20
102.079229
 30
0.0
 10
-461.918530
 20
102.228164
 30
0.0
 10
-462.310084
 20
102.279894
 30
0.0
  0
LWPOLYLINE
  5
142
100
AcDbEntity
  8
Layer_1
 62
7
100
AcDbPolyline
 90
25
 70
1
 10
-462.310084
 20
372.279890
 30
0.0
 10
-462.701638
 20
372.228160
 30
0.0
 10
-463.060461
 20
372.079225
 30
0.0
 10
-463.369040
 20
371.843188
 30
0.0
 10
-463.609865
 20
371.530148
 30
0.0
 10
-463.760697
 20
371.165127
 30
0.0
 10
-463.810975
 20
370.779890
 30
0.0
 10
-463.760697
 20
370.394654
 30
0.0
 10
-463.609865
 20
370.029633
 30
0.0
 10
-463.369040
 20
369.716593
 30
0.0
 10
-463.060461
 20
369.480556
 30
0.0
 10
-462.701638
 20
369.331621
 30
0.0
 10
-462.310084
 20
369.279891
 30
0.0
 10
-461.918530
 20
369.331621
 30
0.0
 10
-461.559708
 20
369.480556
 30
0.0
 10
-461.251129
 20
369.716593
 30
0.0
 10
-461.010304
 20
370.029633
 30
0.0
 10
-460.859471
 20
370.394654
 30
0.0
 10
-460.809193
 20
370.779890
 30
0.0
 10
-460.859471
 20
371.165127
 30
0.0
 10
-461.010304
 20
371.530148
 30
0.0
 10
-461.251129
 20
371.843188
 30
0.0
 10
-461.559708
 20
372.079225
 30
0.0
 10
-461.918530
 20
372.228160
 30
0.0
 10
-462.310084
 20
372.279890
 30
0.0
  0
LWPOLYLINE
  5
143
100
AcDbEntity
  8
Layer_1
 62
7
100
AcDbPolyline
 90
25
 70
1
 10
-133.310080
 20
85.279896
 30
0.0
 10
-133.701456
 20
85.227973
 30
0.0
 10
-134.060080
 20
85.078934
 30
0.0
 10
-134.368463
 20
84.842876
 30
0.0
 10
-134.609119
 20
84.529896
 30
0.0
 10
-134.759840
 20
84.164992
 30
0.0
 10
-134.810081
 20
83.779895
 30
0.0
 10
-134.759840
 20
83.394799
 30
0.0
 10
-134.609119
 20
83.029895
 30
0.0
 10
-134.368463
 20
82.716914
 30
0.0
 10
-134.060080
 20
82.480856
 30
0.0
 10
-133.701456
 20
82.331818
 30
0.0
 10
-133.310080
 20
82.279894
 30
0.0
 10
-132.918703
 20
82.331818
 30
0.0
 10
-132.560079
 20
82.480856
 30
0.0
 10
-132.251696
 20
82.716914
 30
0.0
 10
-132.011041
 20
83.029895
 30
0.0
 10
-131.860319
 20
83.394799
 30
0.0
 10
-131.810079
 20
83.779895
 30
0.0
 10
-131.860319
 20
84.164992
 30
0.0
 10
-132.011041
 20
84.529896
 30
0.0
 10
-132.251696
 20
84.842876
 30
0.0
 10
-132.560079
 20
85.078934
 30
0.0
 10
-132.918703
 20
85.227973
 30
0.0
 10
-133.310080
 20
85.279896
 30
0.0
  0
LWPOLYLINE
  5
144
100
AcDbEntity
  8
Layer_1
 62
7
100
AcDbPolyline
 90
25
 70
1
 10
-133.310080
 20
372.279890
 30
0.0
 10
-133.701634
 20
372.228160
 30
0.0
 10
-134.060456
 20
372.079225
 30
0.0
 10
-134.369035
 20
371.843188
 30
0.0
 10
-134.609860
 20
371.530148
 30
0.0
 10
-134.760693
 20
371.165127
 30
0.0
 10
-134.810970
 20
370.779890
 30
0.0
 10
-134.760693
 20
370.394654
 30
0.0
 10
-134.609860
 20
370.029633
 30
0.0
 10
-134.369035
 20
369.716593
 30
0.0
 10
-134.060456
 20
369.480556
 30
0.0
 10
-133.701634
 20
369.331621
 30
0.0
 10
-133.310080
 20
369.279891
 30
0.0
 10
-132.918526
 20
369.331621
 30
0.0
 10
-132.559703
 20
369.480556
 30
0.0
 10
-132.251124
 20
369.716593
 30
0.0
 10
-132.010299
 20
370.029633
 30
0.0
 10
-131.859466
 20
370.394654
 30
0.0
 10
-131.809189
 20
370.779890
 30
0.0
 10
-131.859466
 20
371.165127
 30
0.0
 10
-132.010299
 20
371.530148
 30
0.0
 10
-132.251124
 20
371.843188
 30
0.0
 10
-132.559703
 20
372.079225
 30
0.0
 10
-132.918526
 20
372.228160
 30
0.0
 10
-133.310080
 20
372.279890
 30
0.0
  0
LWPOLYLINE
  5
145
100
AcDbEntity
  8
Layer_1
 62
7
100
AcDbPolyline
 90
25
 70
1
 10
-462.310084
 20
85.279896
 30
0.0
 10
-462.701461
 20
85.227973
 30
0.0
 10
-463.060085
 20
85.078934
 30
0.0
 10
-463.368468
 20
84.842876
 30
0.0
 10
-463.609123
 20
84.529896
 30
0.0
 10
-463.759845
 20
84.164992
 30
0.0
 10
-463.810085
 20
83.779895
 30
0.0
 10
-463.759845
 20
83.394799
 30
0.0
 10
-463.609123
 20
83.029895
 30
0.0
 10
-463.368468
 20
82.716914
 30
0.0
 10
-463.060085
 20
82.480856
 30
0.0
 10
-462.701461
 20
82.331818
 30
0.0
 10
-462.310084
 20
82.279894
 30
0.0
 10
-461.918708
 20
82.331818
 30
0.0
 10
-461.560084
 20
82.480856
 30
0.0
 10
-461.251701
 20
82.716914
 30
0.0
 10
-461.011045
 20
83.029895
 30
0.0
 10
-460.860324
 20
83.394799
 30
0.0
 10
-460.810083
 20
83.779895
 30
0.0
 10
-460.860324
 20
84.164992
 30
0.0
 10
-461.011045
 20
84.529896
 30
0.0
 10
-461.251701
 20
84.842876
 30
0.0
 10
-461.560084
 20
85.078934
 30
0.0
 10
-461.918708
 20
85.227973
 30
0.0
 10
-462.310084
 20
85.279896
 30
0.0
  0
LWPOLYLINE
  5
146
100
AcDbEntity
  8
Layer_1
 62
7
100
AcDbPolyline
 90
25
 70
1
 10
-462.310084
 20
355.279893
 30
0.0
 10
-462.701461
 20
355.227969
 30
0.0
 10
-463.060085
 20
355.078931
 30
0.0
 10
-463.368468
 20
354.842873
 30
0.0
 10
-463.609123
 20
354.529892
 30
0.0
 10
-463.759845
 20
354.164988
 30
0.0
 10
-463.810085
 20
353.779892
 30
0.0
 10
-463.759845
 20
353.394795
 30
0.0
 10
-463.609123
 20
353.029891
 30
0.0
 10
-463.368468
 20
352.716911
 30
0.0
 10
-463.060085
 20
352.480853
 30
0.0
 10
-462.701461
 20
352.331814
 30
0.0
 10
-462.310084
 20
352.279891
 30
0.0
 10
-461.918708
 20
352.331814
 30
0.0
 10
-461.560084
 20
352.480853
 30
0.0
 10
-461.251701
 20
352.716911
 30
0.0
 10
-461.011045
 20
353.029891
 30
0.0
 10
-460.860324
 20
353.394795
 30
0.0
 10
-460.810083
 20
353.779892
 30
0.0
 10
-460.860324
 20
354.164988
 30
0.0
 10
-461.011045
 20
354.529892
 30
0.0
 10
-461.251701
 20
354.842873
 30
0.0
 10
-461.560084
 20
355.078931
 30
0.0
 10
-461.918708
 20
355.227969
 30
0.0
 10
-462.310084
 20
355.279893
 30
0.0
  0
LWPOLYLINE
  5
147
100
AcDbEntity
  8
Layer_1
 62
7
100
AcDbPolyline
 90
25
 70
1
 10
-133.310080
 20
102.279894
 30
0.0
 10
-133.701634
 20
102.228164
 30
0.0
 10
-134.060456
 20
102.079229
 30
0.0
 10
-134.369035
 20
101.843191
 30
0.0
 10
-134.609860
 20
101.530151
 30
0.0
 10
-134.760693
 20
101.165131
 30
0.0
 10
-134.810970
 20
100.779894
 30
0.0
 10
-134.760693
 20
100.394658
 30
0.0
 10
-134.609860
 20
100.029637
 30
0.0
 10
-134.369035
 20
99.716597
 30
0.0
 10
-134.060456
 20
99.480559
 30
0.0
 10
-133.701634
 20
99.331625
 30
0.0
 10
-133.310080
 20
99.279895
 30
0.0
 10
-132.918526
 20
99.331625
 30
0.0
 10
-132.559703
 20
99.480559
 30
0.0
 10
-132.251124
 20
99.716597
 30
0.0
 10
-132.010299
 20
100.029637
 30
0.0
 10
-131.859466
 20
100.394658
 30
0.0
 10
-131.809189
 20
100.779894
 30
0.0
 10
-131.859466
 20
101.165131
 30
0.0
 10
-132.010299
 20
101.530151
 30
0.0
 10
-132.251124
 20
101.843191
 30
0.0
 10
-132.559703
 20
102.079229
 30
0.0
 10
-132.918526
 20
102.228164
 30
0.0
 10
-133.310080
 20
102.279894
 30
0.0
  0
LWPOLYLINE
  5
148
100
AcDbEntity
  8
Layer_1
 62
7
100
AcDbPolyline
 90
30
 70
0
 10
-417.704986
 20
77.872100
 30
0.0
 10
-468.175659
 20
77.872100
 30
0.0
 10
-468.175659
 20
110.872097
 30
0.0
 10
-398.325659
 20
164.372098
 30
0.0
 10
-398.325659
 20
292.372097
 30
0.0
 10
-468.175659
 20
344.872095
 30
0.0
 10
-468.175659
 20
377.872094
 30
0.0
 10
-418.175680
 20
377.872094
 30
0.0
 10
-398.325659
 20
332.372096
 30
0.0
 10
-316.907019
 20
332.372096
 30
0.0
 10
-316.907019
 20
266.722577
 30
0.0
 10
-301.887840
 20
266.722577
 30
0.0
 10
-301.887840
 20
247.755624
 30
0.0
 10
-316.907019
 20
247.755624
 30
0.0
 10
-316.907019
 20
214.396410
 30
0.0
 10
-276.924721
 20
214.396410
 30
0.0
 10
-276.924721
 20
247.755624
 30
0.0
 10
-290.882708
 20
247.755624
 30
0.0
 10
-290.882708
 20
266.722577
 30
0.0
 10
-276.924721
 20
266.722577
 30
0.0
 10
-276.924721
 20
332.372096
 30
0.0
 10
-198.325665
 20
332.372096
 30
0.0
 10
-178.175660
 20
377.872094
 30
0.0
 10
-128.175681
 20
377.872094
 30
0.0
 10
-128.175681
 20
344.872095
 30
0.0
 10
-198.325665
 20
292.372097
 30
0.0
 10
-198.325665
 20
164.372098
 30
0.0
 10
-128.175681
 20
110.872097
 30
0.0
 10
-128.175681
 20
77.872100
 30
0.0
 10
-178.561952
 20
77.872100
 30
0.0
  0
LWPOLYLINE
  5
149
100
AcDbEntity
  8
Layer_1
 62
7
100
AcDbPolyline
 90
25
 70
1
 10
-358.325661
 20
303.872095
 30
0.0
 10
-358.717215
 20
303.820365
 30
0.0
 10
-359.076037
 20
303.671430
 30
0.0
 10
-359.384616
 20
303.435393
 30
0.0
 10
-359.625441
 20
303.122353
 30
0.0
 10
-359.776274
 20
302.757332
 30
0.0
 10
-359.826551
 20
302.372095
 30
0.0
 10
-359.776274
 20
301.986859
 30
0.0
 10
-359.625441
 20
301.621838
 30
0.0
 10
-359.384616
 20
301.308798
 30
0.0
 10
-359.076037
 20
301.072761
 30
0.0
 10
-358.717215
 20
300.923826
 30
0.0
 10
-358.325661
 20
300.872096
 30
0.0
 10
-357.934106
 20
300.923826
 30
0.0
 10
-357.575284
 20
301.072761
 30
0.0
 10
-357.266705
 20
301.308798
 30
0.0
 10
-357.025880
 20
301.621838
 30
0.0
 10
-356.875047
 20
301.986859
 30
0.0
 10
-356.824770
 20
302.372095
 30
0.0
 10
-356.875047
 20
302.757332
 30
0.0
 10
-357.025880
 20
303.122353
 30
0.0
 10
-357.266705
 20
303.435393
 30
0.0
 10
-357.575284
 20
303.671430
 30
0.0
 10
-357.934106
 20
303.820365
 30
0.0
 10
-358.325661
 20
303.872095
 30
0.0
  0
LWPOLYLINE
  5
14a
100
AcDbEntity
  8
Layer_1
 62
7
100
AcDbPolyline
 90
25
 70
1
 10
-308.175663
 20
135.872098
 30
0.0
 10
-308.567040
 20
135.820175
 30
0.0
 10
-308.925663
 20
135.671136
 30
0.0
 10
-309.234046
 20
135.435078
 30
0.0
 10
-309.474701
 20
135.122098
 30
0.0
 10
-309.625423
 20
134.757194
 30
0.0
 10
-309.675663
 20
134.372098
 30
0.0
 10
-309.625423
 20
133.987002
 30
0.0
 10
-309.474701
 20
133.622098
 30
0.0
 10
-309.234046
 20
133.309118
 30
0.0
 10
-308.925663
 20
133.073060
 30
0.0
 10
-308.567040
 20
132.924021
 30
0.0
 10
-308.175663
 20
132.872098
 30
0.0
 10
-307.784287
 20
132.924021
 30
0.0
 10
-307.425663
 20
133.073060
 30
0.0
 10
-307.117280
 20
133.309118
 30
0.0
 10
-306.876625
 20
133.622098
 30
0.0
 10
-306.725904
 20
133.987002
 30
0.0
 10
-306.675663
 20
134.372098
 30
0.0
 10
-306.725904
 20
134.757194
 30
0.0
 10
-306.876625
 20
135.122098
 30
0.0
 10
-307.117280
 20
135.435078
 30
0.0
 10
-307.425663
 20
135.671136
 30
0.0
 10
-307.784287
 20
135.820175
 30
0.0
 10
-308.175663
 20
135.872098
 30
0.0
  0
LWPOLYLINE
  5
14b
100
AcDbEntity
  8
Layer_1
 62
7
100
AcDbPolyline
 90
25
 70
1
 10
-308.175663
 20
155.872098
 30
0.0
 10
-308.567040
 20
155.820174
 30
0.0
 10
-308.925663
 20
155.671136
 30
0.0
 10
-309.234046
 20
155.435078
 30
0.0
 10
-309.474701
 20
155.122098
 30
0.0
 10
-309.625423
 20
154.757194
 30
0.0
 10
-309.675663
 20
154.372098
 30
0.0
 10
-309.625423
 20
153.987001
 30
0.0
 10
-309.474701
 20
153.622098
 30
0.0
 10
-309.234046
 20
153.309117
 30
0.0
 10
-308.925663
 20
153.073060
 30
0.0
 10
-308.567040
 20
152.924021
 30
0.0
 10
-308.175663
 20
152.872098
 30
0.0
 10
-307.784287
 20
152.924021
 30
0.0
 10
-307.425663
 20
153.073060
 30
0.0
 10
-307.117280
 20
153.309117
 30
0.0
 10
-306.876625
 20
153.622098
 30
0.0
 10
-306.725904
 20
153.987001
 30
0.0
 10
-306.675663
 20
154.372098
 30
0.0
 10
-306.725904
 20
154.757194
 30
0.0
 10
-306.876625
 20
155.122098
 30
0.0
 10
-307.117280
 20
155.435078
 30
0.0
 10
-307.425663
 20
155.671136
 30
0.0
 10
-307.784287
 20
155.820174
 30
0.0
 10
-308.175663
 20
155.872098
 30
0.0
  0
LWPOLYLINE
  5
14c
100
AcDbEntity
  8
Layer_1
 62
7
100
AcDbPolyline
 90
25
 70
1
 10
-378.325673
 20
303.872095
 30
0.0
 10
-378.717227
 20
303.820365
 30
0.0
 10
-379.076050
 20
303.671430
 30
0.0
 10
-379.384629
 20
303.435393
 30
0.0
 10
-379.625454
 20
303.122353
 30
0.0
 10
-379.776286
 20
302.757332
 30
0.0
 10
-379.826564
 20
302.372095
 30
0.0
 10
-379.776286
 20
301.986859
 30
0.0
 10
-379.625454
 20
301.621838
 30
0.0
 10
-379.384629
 20
301.308798
 30
0.0
 10
-379.076050
 20
301.072761
 30
0.0
 10
-378.717227
 20
300.923826
 30
0.0
 10
-378.325673
 20
300.872096
 30
0.0
 10
-377.934119
 20
300.923826
 30
0.0
 10
-377.575297
 20
301.072761
 30
0.0
 10
-377.266718
 20
301.308798
 30
0.0
 10
-377.025893
 20
301.621838
 30
0.0
 10
-376.875060
 20
301.986859
 30
0.0
 10
-376.824782
 20
302.372095
 30
0.0
 10
-376.875060
 20
302.757332
 30
0.0
 10
-377.025893
 20
303.122353
 30
0.0
 10
-377.266718
 20
303.435393
 30
0.0
 10
-377.575297
 20
303.671430
 30
0.0
 10
-377.934119
 20
303.820365
 30
0.0
 10
-378.325673
 20
303.872095
 30
0.0
  0
LWPOLYLINE
  5
14d
100
AcDbEntity
  8
Layer_1
 62
7
100
AcDbPolyline
 90
25
 70
1
 10
-276.924721
 20
258.839099
 30
0.0
 10
-277.342556
 20
258.784113
 30
0.0
 10
-277.725498
 20
258.625354
 30
0.0
 10
-278.054845
 20
258.373601
 30
0.0
 10
-278.311895
 20
258.039632
 30
0.0
 10
-278.472894
 20
257.650159
 30
0.0
 10
-278.526561
 20
257.239101
 30
0.0
 10
-278.472894
 20
256.828042
 30
0.0
 10
-278.311895
 20
256.438569
 30
0.0
 10
-278.054845
 20
256.104600
 30
0.0
 10
-277.725498
 20
255.852847
 30
0.0
 10
-277.342556
 20
255.694088
 30
0.0
 10
-276.924721
 20
255.639102
 30
0.0
 10
-276.506885
 20
255.694088
 30
0.0
 10
-276.123943
 20
255.852847
 30
0.0
 10
-275.794596
 20
256.104600
 30
0.0
 10
-275.537546
 20
256.438569
 30
0.0
 10
-275.376547
 20
256.828042
 30
0.0
 10
-275.322880
 20
257.239101
 30
0.0
 10
-275.376547
 20
257.650159
 30
0.0
 10
-275.537546
 20
258.039632
 30
0.0
 10
-275.794596
 20
258.373601
 30
0.0
 10
-276.123943
 20
258.625354
 30
0.0
 10
-276.506885
 20
258.784113
 30
0.0
 10
-276.924721
 20
258.839099
 30
0.0
  0
LWPOLYLINE
  5
14e
100
AcDbEntity
  8
Layer_1
 62
7
100
AcDbPolyline
 90
25
 70
1
 10
-378.325673
 20
323.872094
 30
0.0
 10
-378.717227
 20
323.820364
 30
0.0
 10
-379.076050
 20
323.671430
 30
0.0
 10
-379.384629
 20
323.435392
 30
0.0
 10
-379.625454
 20
323.122352
 30
0.0
 10
-379.776286
 20
322.757331
 30
0.0
 10
-379.826564
 20
322.372095
 30
0.0
 10
-379.776286
 20
321.986858
 30
0.0
 10
-379.625454
 20
321.621838
 30
0.0
 10
-379.384629
 20
321.308798
 30
0.0
 10
-379.076050
 20
321.072760
 30
0.0
 10
-378.717227
 20
320.923825
 30
0.0
 10
-378.325673
 20
320.872095
 30
0.0
 10
-377.934119
 20
320.923825
 30
0.0
 10
-377.575297
 20
321.072760
 30
0.0
 10
-377.266718
 20
321.308798
 30
0.0
 10
-377.025893
 20
321.621838
 30
0.0
 10
-376.875060
 20
321.986858
 30
0.0
 10
-376.824782
 20
322.372095
 30
0.0
 10
-376.875060
 20
322.757331
 30
0.0
 10
-377.025893
 20
323.122352
 30
0.0
 10
-377.266718
 20
323.435392
 30
0.0
 10
-377.575297
 20
323.671430
 30
0.0
 10
-377.934119
 20
323.820364
 30
0.0
 10
-378.325673
 20
323.872094
 30
0.0
  0
LWPOLYLINE
  5
14f
100
AcDbEntity
  8
Layer_1
 62
7
100
AcDbPolyline
 90
25
 70
1
 10
-288.175677
 20
135.872098
 30
0.0
 10
-288.567053
 20
135.820175
 30
0.0
 10
-288.925677
 20
135.671136
 30
0.0
 10
-289.234060
 20
135.435078
 30
0.0
 10
-289.474715
 20
135.122098
 30
0.0
 10
-289.625436
 20
134.757194
 30
0.0
 10
-289.675677
 20
134.372098
 30
0.0
 10
-289.625436
 20
133.987002
 30
0.0
 10
-289.474715
 20
133.622098
 30
0.0
 10
-289.234060
 20
133.309118
 30
0.0
 10
-288.925677
 20
133.073060
 30
0.0
 10
-288.567053
 20
132.924021
 30
0.0
 10
-288.175677
 20
132.872098
 30
0.0
 10
-287.784300
 20
132.924021
 30
0.0
 10
-287.425677
 20
133.073060
 30
0.0
 10
-287.117294
 20
133.309118
 30
0.0
 10
-286.876639
 20
133.622098
 30
0.0
 10
-286.725917
 20
133.987002
 30
0.0
 10
-286.675677
 20
134.372098
 30
0.0
 10
-286.725917
 20
134.757194
 30
0.0
 10
-286.876639
 20
135.122098
 30
0.0
 10
-287.117294
 20
135.435078
 30
0.0
 10
-287.425677
 20
135.671136
 30
0.0
 10
-287.784300
 20
135.820175
 30
0.0
 10
-288.175677
 20
135.872098
 30
0.0
  0
LWPOLYLINE
  5
150
100
AcDbEntity
  8
Layer_1
 62
7
100
AcDbPolyline
 90
25
 70
1
 10
-288.175677
 20
155.872098
 30
0.0
 10
-288.567053
 20
155.820174
 30
0.0
 10
-288.925677
 20
155.671136
 30
0.0
 10
-289.234060
 20
155.435078
 30
0.0
 10
-289.474715
 20
155.122098
 30
0.0
 10
-289.625436
 20
154.757194
 30
0.0
 10
-289.675677
 20
154.372098
 30
0.0
 10
-289.625436
 20
153.987001
 30
0.0
 10
-289.474715
 20
153.622098
 30
0.0
 10
-289.234060
 20
153.309117
 30
0.0
 10
-288.925677
 20
153.073060
 30
0.0
 10
-288.567053
 20
152.924021
 30
0.0
 10
-288.175677
 20
152.872098
 30
0.0
 10
-287.784300
 20
152.924021
 30
0.0
 10
-287.425677
 20
153.073060
 30
0.0
 10
-287.117294
 20
153.309117
 30
0.0
 10
-286.876639
 20
153.622098
 30
0.0
 10
-286.725917
 20
153.987001
 30
0.0
 10
-286.675677
 20
154.372098
 30
0.0
 10
-286.725917
 20
154.757194
 30
0.0
 10
-286.876639
 20
155.122098
 30
0.0
 10
-287.117294
 20
155.435078
 30
0.0
 10
-287.425677
 20
155.671136
 30
0.0
 10
-287.784300
 20
155.820174
 30
0.0
 10
-288.175677
 20
155.872098
 30
0.0
  0
LWPOLYLINE
  5
151
100
AcDbEntity
  8
Layer_1
 62
7
100
AcDbPolyline
 90
25
 70
1
 10
-358.325661
 20
323.872094
 30
0.0
 10
-358.717215
 20
323.820364
 30
0.0
 10
-359.076037
 20
323.671430
 30
0.0
 10
-359.384616
 20
323.435392
 30
0.0
 10
-359.625441
 20
323.122352
 30
0.0
 10
-359.776274
 20
322.757331
 30
0.0
 10
-359.826551
 20
322.372095
 30
0.0
 10
-359.776274
 20
321.986858
 30
0.0
 10
-359.625441
 20
321.621838
 30
0.0
 10
-359.384616
 20
321.308798
 30
0.0
 10
-359.076037
 20
321.072760
 30
0.0
 10
-358.717215
 20
320.923825
 30
0.0
 10
-358.325661
 20
320.872095
 30
0.0
 10
-357.934106
 20
320.923825
 30
0.0
 10
-357.575284
 20
321.072760
 30
0.0
 10
-357.266705
 20
321.308798
 30
0.0
 10
-357.025880
 20
321.621838
 30
0.0
 10
-356.875047
 20
321.986858
 30
0.0
 10
-356.824770
 20
322.372095
 30
0.0
 10
-356.875047
 20
322.757331
 30
0.0
 10
-357.025880
 20
323.122352
 30
0.0
 10
-357.266705
 20
323.435392
 30
0.0
 10
-357.575284
 20
323.671430
 30
0.0
 10
-357.934106
 20
323.820364
 30
0.0
 10
-358.325661
 20
323.872094
 30
0.0
  0
LWPOLYLINE
  5
152
100
AcDbEntity
  8
Layer_1
 62
7
100
AcDbPolyline
 90
25
 70
1
 10
-316.907019
 20
258.839099
 30
0.0
 10
-317.324854
 20
258.784113
 30
0.0
 10
-317.707796
 20
258.625354
 30
0.0
 10
-318.037144
 20
258.373601
 30
0.0
 10
-318.294193
 20
258.039632
 30
0.0
 10
-318.455193
 20
257.650159
 30
0.0
 10
-318.508859
 20
257.239101
 30
0.0
 10
-318.455193
 20
256.828042
 30
0.0
 10
-318.294193
 20
256.438569
 30
0.0
 10
-318.037144
 20
256.104600
 30
0.0
 10
-317.707796
 20
255.852847
 30
0.0
 10
-317.324854
 20
255.694088
 30
0.0
 10
-316.907019
 20
255.639102
 30
0.0
 10
-316.489184
 20
255.694088
 30
0.0
 10
-316.106241
 20
255.852847
 30
0.0
 10
-315.776894
 20
256.104600
 30
0.0
 10
-315.519845
 20
256.438569
 30
0.0
 10
-315.358845
 20
256.828042
 30
0.0
 10
-315.305179
 20
257.239101
 30
0.0
 10
-315.358845
 20
257.650159
 30
0.0
 10
-315.519845
 20
258.039632
 30
0.0
 10
-315.776894
 20
258.373601
 30
0.0
 10
-316.106241
 20
258.625354
 30
0.0
 10
-316.489184
 20
258.784113
 30
0.0
 10
-316.907019
 20
258.839099
 30
0.0
  0
LWPOLYLINE
  5
153
100
AcDbEntity
  8
Layer_1
 62
7
100
AcDbPolyline
 90
25
 70
1
 10
-218.025667
 20
303.872095
 30
0.0
 10
-218.417221
 20
303.820365
 30
0.0
 10
-218.776043
 20
303.671430
 30
0.0
 10
-219.084622
 20
303.435393
 30
0.0
 10
-219.325447
 20
303.122353
 30
0.0
 10
-219.476280
 20
302.757332
 30
0.0
 10
-219.526558
 20
302.372095
 30
0.0
 10
-219.476280
 20
301.986859
 30
0.0
 10
-219.325447
 20
301.621838
 30
0.0
 10
-219.084622
 20
301.308798
 30
0.0
 10
-218.776043
 20
301.072761
 30
0.0
 10
-218.417221
 20
300.923826
 30
0.0
 10
-218.025667
 20
300.872096
 30
0.0
 10
-217.634113
 20
300.923826
 30
0.0
 10
-217.275290
 20
301.072761
 30
0.0
 10
-216.966711
 20
301.308798
 30
0.0
 10
-216.725886
 20
301.621838
 30
0.0
 10
-216.575054
 20
301.986859
 30
0.0
 10
-216.524776
 20
302.372095
 30
0.0
 10
-216.575054
 20
302.757332
 30
0.0
 10
-216.725886
 20
303.122353
 30
0.0
 10
-216.966711
 20
303.435393
 30
0.0
 10
-217.275290
 20
303.671430
 30
0.0
 10
-217.634113
 20
303.820365
 30
0.0
 10
-218.025667
 20
303.872095
 30
0.0
  0
LWPOLYLINE
  5
154
100
AcDbEntity
  8
Layer_1
 62
7
100
AcDbPolyline
 90
25
 70
1
 10
-238.025679
 20
303.872095
 30
0.0
 10
-238.417233
 20
303.820365
 30
0.0
 10
-238.776056
 20
303.671430
 30
0.0
 10
-239.084635
 20
303.435393
 30
0.0
 10
-239.325460
 20
303.122353
 30
0.0
 10
-239.476293
 20
302.757332
 30
0.0
 10
-239.526570
 20
302.372095
 30
0.0
 10
-239.476293
 20
301.986859
 30
0.0
 10
-239.325460
 20
301.621838
 30
0.0
 10
-239.084635
 20
301.308798
 30
0.0
 10
-238.776056
 20
301.072761
 30
0.0
 10
-238.417233
 20
300.923826
 30
0.0
 10
-238.025679
 20
300.872096
 30
0.0
 10
-237.634125
 20
300.923826
 30
0.0
 10
-237.275303
 20
301.072761
 30
0.0
 10
-236.966724
 20
301.308798
 30
0.0
 10
-236.725899
 20
301.621838
 30
0.0
 10
-236.575066
 20
301.986859
 30
0.0
 10
-236.524789
 20
302.372095
 30
0.0
 10
-236.575066
 20
302.757332
 30
0.0
 10
-236.725899
 20
303.122353
 30
0.0
 10
-236.966724
 20
303.435393
 30
0.0
 10
-237.275303
 20
303.671430
 30
0.0
 10
-237.634125
 20
303.820365
 30
0.0
 10
-238.025679
 20
303.872095
 30
0.0
  0
LWPOLYLINE
  5
155
100
AcDbEntity
  8
Layer_1
 62
7
100
AcDbPolyline
 90
25
 70
1
 10
-218.025667
 20
323.872094
 30
0.0
 10
-218.417221
 20
323.820364
 30
0.0
 10
-218.776043
 20
323.671430
 30
0.0
 10
-219.084622
 20
323.435392
 30
0.0
 10
-219.325447
 20
323.122352
 30
0.0
 10
-219.476280
 20
322.757331
 30
0.0
 10
-219.526558
 20
322.372095
 30
0.0
 10
-219.476280
 20
321.986858
 30
0.0
 10
-219.325447
 20
321.621838
 30
0.0
 10
-219.084622
 20
321.308798
 30
0.0
 10
-218.776043
 20
321.072760
 30
0.0
 10
-218.417221
 20
320.923825
 30
0.0
 10
-218.025667
 20
320.872095
 30
0.0
 10
-217.634113
 20
320.923825
 30
0.0
 10
-217.275290
 20
321.072760
 30
0.0
 10
-216.966711
 20
321.308798
 30
0.0
 10
-216.725886
 20
321.621838
 30
0.0
 10
-216.575054
 20
321.986858
 30
0.0
 10
-216.524776
 20
322.372095
 30
0.0
 10
-216.575054
 20
322.757331
 30
0.0
 10
-216.725886
 20
323.122352
 30
0.0
 10
-216.966711
 20
323.435392
 30
0.0
 10
-217.275290
 20
323.671430
 30
0.0
 10
-217.634113
 20
323.820364
 30
0.0
 10
-218.025667
 20
323.872094
 30
0.0
  0
LWPOLYLINE
  5
156
100
AcDbEntity
  8
Layer_1
 62
7
100
AcDbPolyline
 90
25
 70
1
 10
-238.025679
 20
323.872094
 30
0.0
 10
-238.417233
 20
323.820364
 30
0.0
 10
-238.776056
 20
323.671430
 30
0.0
 10
-239.084635
 20
323.435392
 30
0.0
 10
-239.325460
 20
323.122352
 30
0.0
 10
-239.476293
 20
322.757331
 30
0.0
 10
-239.526570
 20
322.372095
 30
0.0
 10
-239.476293
 20
321.986858
 30
0.0
 10
-239.325460
 20
321.621838
 30
0.0
 10
-239.084635
 20
321.308798
 30
0.0
 10
-238.776056
 20
321.072760
 30
0.0
 10
-238.417233
 20
320.923825
 30
0.0
 10
-238.025679
 20
320.872095
 30
0.0
 10
-237.634125
 20
320.923825
 30
0.0
 10
-237.275303
 20
321.072760
 30
0.0
 10
-236.966724
 20
321.308798
 30
0.0
 10
-236.725899
 20
321.621838
 30
0.0
 10
-236.575066
 20
321.986858
 30
0.0
 10
-236.524789
 20
322.372095
 30
0.0
 10
-236.575066
 20
322.757331
 30
0.0
 10
-236.725899
 20
323.122352
 30
0.0
 10
-236.966724
 20
323.435392
 30
0.0
 10
-237.275303
 20
323.671430
 30
0.0
 10
-237.634125
 20
323.820364
 30
0.0
 10
-238.025679
 20
323.872094
 30
0.0
  0
LWPOLYLINE
  5
157
100
AcDbEntity
  8
Layer_1
 62
7
100
AcDbPolyline
 90
13
 70
1
 10
-221.361359
 20
372.330271
 30
0.0
 10
-221.695887
 20
373.580789
 30
0.0
 10
-222.611005
 20
374.496355
 30
0.0
 10
-223.861359
 20
374.831496
 30
0.0
 10
-225.111713
 20
374.496355
 30
0.0
 10
-226.026831
 20
373.580789
 30
0.0
 10
-226.361359
 20
372.330271
 30
0.0
 10
-226.026831
 20
371.079753
 30
0.0
 10
-225.111713
 20
370.164187
 30
0.0
 10
-223.861359
 20
369.829046
 30
0.0
 10
-222.611005
 20
370.164187
 30
0.0
 10
-221.695887
 20
371.079753
 30
0.0
 10
-221.361359
 20
372.330271
 30
0.0
  0
LWPOLYLINE
  5
158
100
AcDbEntity
  8
Layer_1
 62
7
100
AcDbPolyline
 90
13
 70
1
 10
-371.361359
 20
372.330271
 30
0.0
 10
-371.695887
 20
373.580789
 30
0.0
 10
-372.611005
 20
374.496355
 30
0.0
 10
-373.861359
 20
374.831496
 30
0.0
 10
-375.111713
 20
374.496355
 30
0.0
 10
-376.026831
 20
373.580789
 30
0.0
 10
-376.361359
 20
372.330271
 30
0.0
 10
-376.026831
 20
371.079753
 30
0.0
 10
-375.111713
 20
370.164187
 30
0.0
 10
-373.861359
 20
369.829046
 30
0.0
 10
-372.611005
 20
370.164187
 30
0.0
 10
-371.695887
 20
371.079753
 30
0.0
 10
-371.361359
 20
372.330271
 30
0.0
  0
LWPOLYLINE
  5
159
100
AcDbEntity
  8
Layer_1
 62
7
100
AcDbPolyline
 90
4
 70
1
 10
-220.861360
 20
390.330271
 30
0.0
 10
-220.861360
 20
382.330281
 30
0.0
 10
-208.861360
 20
382.330281
 30
0.0
 10
-208.861360
 20
390.330271
 30
0.0
  0
LWPOLYLINE
  5
15a
100
AcDbEntity
  8
Layer_1
 62
7
100
AcDbPolyline
 90
4
 70
1
 10
-388.861359
 20
382.330281
 30
0.0
 10
-376.861359
 20
382.330281
 30
0.0
 10
-376.861359
 20
390.330271
 30
0.0
 10
-388.861359
 20
390.330271
 30
0.0
  0
LWPOLYLINE
  5
15b
100
AcDbEntity
  8
Layer_1
 62
7
100
AcDbPolyline
 90
12
 70
0
 10
-378.845129
 20
362.330271
 30
0.0
 10
-393.877989
 20
377.330291
 30
0.0
 10
-393.877989
 20
387.302651
 30
0.0
 10
-388.861359
 20
392.330291
 30
0.0
 10
-376.861359
 20
392.330291
 30
0.0
 10
-366.868899
 20
382.330281
 30
0.0
 10
-230.874267
 20
382.330281
 30
0.0
 10
-220.861360
 20
392.330291
 30
0.0
 10
-208.872311
 20
392.330291
 30
0.0
 10
-203.861360
 20
387.330271
 30
0.0
 10
-203.861360
 20
377.330291
 30
0.0
 10
-218.828571
 20
362.330271
 30
0.0
  0
LWPOLYLINE
  5
15c
100
AcDbEntity
  8
Layer_1
 62
7
100
AcDbPolyline
 90
25
 70
1
 10
-376.312339
 20
352.330271
 30
0.0
 10
-376.225800
 20
351.677977
 30
0.0
 10
-375.977403
 20
351.080271
 30
0.0
 10
-375.583973
 20
350.566299
 30
0.0
 10
-375.062339
 20
350.165207
 30
0.0
 10
-374.454166
 20
349.914005
 30
0.0
 10
-373.812339
 20
349.830271
 30
0.0
 10
-373.170511
 20
349.914005
 30
0.0
 10
-372.562339
 20
350.165207
 30
0.0
 10
-372.040705
 20
350.566299
 30
0.0
 10
-371.647275
 20
351.080271
 30
0.0
 10
-371.398877
 20
351.677977
 30
0.0
 10
-371.312339
 20
352.330271
 30
0.0
 10
-371.398877
 20
352.982565
 30
0.0
 10
-371.647275
 20
353.580271
 30
0.0
 10
-372.040705
 20
354.094243
 30
0.0
 10
-372.562339
 20
354.495335
 30
0.0
 10
-373.170511
 20
354.746537
 30
0.0
 10
-373.812339
 20
354.830272
 30
0.0
 10
-374.454166
 20
354.746537
 30
0.0
 10
-375.062339
 20
354.495335
 30
0.0
 10
-375.583973
 20
354.094243
 30
0.0
 10
-375.977403
 20
353.580271
 30
0.0
 10
-376.225800
 20
352.982565
 30
0.0
 10
-376.312339
 20
352.330271
 30
0.0
  0
LWPOLYLINE
  5
15d
100
AcDbEntity
  8
Layer_1
 62
7
100
AcDbPolyline
 90
25
 70
1
 10
-226.312339
 20
352.330271
 30
0.0
 10
-226.225801
 20
351.677977
 30
0.0
 10
-225.977403
 20
351.080271
 30
0.0
 10
-225.583973
 20
350.566299
 30
0.0
 10
-225.062339
 20
350.165207
 30
0.0
 10
-224.454167
 20
349.914005
 30
0.0
 10
-223.812339
 20
349.830271
 30
0.0
 10
-223.170512
 20
349.914005
 30
0.0
 10
-222.562339
 20
350.165207
 30
0.0
 10
-222.040705
 20
350.566299
 30
0.0
 10
-221.647275
 20
351.080271
 30
0.0
 10
-221.398878
 20
351.677977
 30
0.0
 10
-221.312339
 20
352.330271
 30
0.0
 10
-221.398878
 20
352.982565
 30
0.0
 10
-221.647275
 20
353.580271
 30
0.0
 10
-222.040705
 20
354.094243
 30
0.0
 10
-222.562339
 20
354.495335
 30
0.0
 10
-223.170512
 20
354.746537
 30
0.0
 10
-223.812339
 20
354.830271
 30
0.0
 10
-224.454167
 20
354.746537
 30
0.0
 10
-225.062339
 20
354.495335
 30
0.0
 10
-225.583973
 20
354.094243
 30
0.0
 10
-225.977403
 20
353.580271
 30
0.0
 10
-226.225801
 20
352.982565
 30
0.0
 10
-226.312339
 20
352.330271
 30
0.0
  0
LWPOLYLINE
  5
15e
100
AcDbEntity
  8
Layer_1
 62
7
100
AcDbPolyline
 90
4
 70
1
 10
-376.812338
 20
334.330270
 30
0.0
 10
-376.812338
 20
342.330265
 30
0.0
 10
-388.812338
 20
342.330265
 30
0.0
 10
-388.812338
 20
334.330270
 30
0.0
  0
LWPOLYLINE
  5
15f
100
AcDbEntity
  8
Layer_1
 62
7
100
AcDbPolyline
 90
4
 70
1
 10
-208.812340
 20
342.330265
 30
0.0
 10
-220.812340
 20
342.330265
 30
0.0
 10
-220.812340
 20
334.330270
 30
0.0
 10
-208.812340
 20
334.330270
 30
0.0
  0
LWPOLYLINE
  5
160
100
AcDbEntity
  8
Layer_1
 62
7
100
AcDbPolyline
 90
4
 70
0
 10
-220.812340
 20
332.330259
 30
0.0
 10
-230.804800
 20
342.330265
 30
0.0
 10
-366.799431
 20
342.330265
 30
0.0
 10
-376.812338
 20
332.330259
 30
0.0
  0
LWPOLYLINE
  5
161
100
AcDbEntity
  8
Layer_1
 62
7
100
AcDbPolyline
 90
8
 70
0
 10
-388.801387
 20
332.330259
 30
0.0
 10
-393.812338
 20
337.330275
 30
0.0
 10
-393.812338
 20
347.330255
 30
0.0
 10
-378.845127
 20
362.330278
 30
0.0
 10
-218.828568
 20
362.330278
 30
0.0
 10
-203.795708
 20
347.330255
 30
0.0
 10
-203.795708
 20
337.357897
 30
0.0
 10
-208.812340
 20
332.330259
 30
0.0
  0
LWPOLYLINE
  5
162
100
AcDbEntity
  8
Layer_1
 62
7
100
AcDbPolyline
 90
10
 70
1
 10
-231.800349
 20
347.528181
 30
0.0
 10
-233.466869
 20
347.528181
 30
0.0
 10
-237.522869
 20
355.180671
 30
0.0
 10
-237.522869
 20
347.528181
 30
0.0
 10
-238.723739
 20
347.528181
 30
0.0
 10
-238.723739
 20
356.675631
 30
0.0
 10
-237.057229
 20
356.675631
 30
0.0
 10
-233.001229
 20
349.023141
 30
0.0
 10
-233.001229
 20
356.675631
 30
0.0
 10
-231.800349
 20
356.675631
 30
0.0
  0
LWPOLYLINE
  5
163
100
AcDbEntity
  8
Layer_1
 62
7
100
AcDbPolyline
 90
17
 70
1
 10
-243.796809
 20
350.603881
 30
0.0
 10
-242.984994
 20
350.781561
 30
0.0
 10
-242.363109
 20
351.314601
 30
0.0
 10
-241.967927
 20
352.150921
 30
0.0
 10
-241.836199
 20
353.250701
 30
0.0
 10
-241.966397
 20
354.352006
 30
0.0
 10
-242.356989
 20
355.192921
 30
0.0
 10
-242.980399
 20
355.721364
 30
0.0
 10
-243.796809
 20
355.897511
 30
0.0
 10
-244.604024
 20
355.719831
 30
0.0
 10
-245.224369
 20
355.186791
 30
0.0
 10
-245.619552
 20
354.347409
 30
0.0
 10
-245.751279
 20
353.250701
 30
0.0
 10
-245.619552
 20
352.158576
 30
0.0
 10
-245.224369
 20
351.320721
 30
0.0
 10
-244.604024
 20
350.783091
 30
0.0
 10
-243.796809
 20
350.603881
 30
0.0
  0
LWPOLYLINE
  5
164
100
AcDbEntity
  8
Layer_1
 62
7
100
AcDbPolyline
 90
17
 70
1
 10
-243.796809
 20
349.648081
 30
0.0
 10
-245.109492
 20
349.887031
 30
0.0
 10
-246.106639
 20
350.603881
 30
0.0
 10
-246.736182
 20
351.743481
 30
0.0
 10
-246.946029
 20
353.250701
 30
0.0
 10
-246.736182
 20
354.754849
 30
0.0
 10
-246.106639
 20
355.897511
 30
0.0
 10
-245.109492
 20
356.614361
 30
0.0
 10
-243.796809
 20
356.853311
 30
0.0
 10
-242.479527
 20
356.614361
 30
0.0
 10
-241.480839
 20
355.897511
 30
0.0
 10
-240.855894
 20
354.754849
 30
0.0
 10
-240.647579
 20
353.250701
 30
0.0
 10
-240.855894
 20
351.743481
 30
0.0
 10
-241.480839
 20
350.603881
 30
0.0
 10
-242.479527
 20
349.887031
 30
0.0
 10
-243.796809
 20
349.648081
 30
0.0
  0
LWPOLYLINE
  5
165
100
AcDbEntity
  8
Layer_1
 62
7
100
AcDbPolyline
 90
7
 70
1
 10
-247.999849
 20
349.813511
 30
0.0
 10
-249.194599
 20
349.813511
 30
0.0
 10
-251.339009
 20
355.572791
 30
0.0
 10
-253.483419
 20
349.813511
 30
0.0
 10
-254.678159
 20
349.813511
 30
0.0
 10
-252.104869
 20
356.675631
 30
0.0
 10
-250.573149
 20
356.675631
 30
0.0
  0
LWPOLYLINE
  5
166
100
AcDbEntity
  8
Layer_1
 62
7
100
AcDbPolyline
 90
11
 70
1
 10
-259.352979
 20
353.226191
 30
0.0
 10
-257.459769
 20
353.538661
 30
0.0
 10
-257.064587
 20
353.961416
 30
0.0
 10
-256.932859
 20
354.604741
 30
0.0
 10
-257.324979
 20
355.560531
 30
0.0
 10
-258.403309
 20
355.909771
 30
0.0
 10
-259.247292
 20
355.744344
 30
0.0
 10
-259.904399
 20
355.248061
 30
0.0
 10
-260.331749
 20
354.471479
 30
0.0
 10
-260.474199
 20
353.477391
 30
0.0
 10
-260.474199
 20
353.226191
 30
0.0
  0
LWPOLYLINE
  5
167
100
AcDbEntity
  8
Layer_1
 62
7
100
AcDbPolyline
 90
28
 70
1
 10
-261.601549
 20
352.760541
 30
0.0
 10
-261.601549
 20
356.675631
 30
0.0
 10
-260.474199
 20
356.675631
 30
0.0
 10
-260.474199
 20
355.634061
 30
0.0
 10
-259.512279
 20
356.559221
 30
0.0
 10
-258.103099
 20
356.853311
 30
0.0
 10
-257.156492
 20
356.706266
 30
0.0
 10
-256.424329
 20
356.265131
 30
0.0
 10
-255.960214
 20
355.571259
 30
0.0
 10
-255.805509
 20
354.678261
 30
0.0
 10
-255.998507
 20
353.662731
 30
0.0
 10
-256.577499
 20
352.932101
 30
0.0
 10
-257.545552
 20
352.490966
 30
0.0
 10
-258.893469
 20
352.343921
 30
0.0
 10
-260.474199
 20
352.343921
 30
0.0
 10
-260.474199
 20
352.233631
 30
0.0
 10
-260.345534
 20
351.544359
 30
0.0
 10
-259.959539
 20
351.032761
 30
0.0
 10
-258.525849
 20
350.603881
 30
0.0
 10
-257.380119
 20
350.744801
 30
0.0
 10
-256.307919
 20
351.167551
 30
0.0
 10
-256.307919
 20
350.125981
 30
0.0
 10
-257.508789
 20
349.770621
 30
0.0
 10
-258.642259
 20
349.648081
 30
0.0
 10
-259.942694
 20
349.841079
 30
0.0
 10
-260.866319
 20
350.420071
 30
0.0
 10
-261.417742
 20
351.391184
 30
0.0
 10
-261.601549
 20
352.760541
 30
0.0
  0
LWPOLYLINE
  5
168
100
AcDbEntity
  8
Layer_1
 62
7
100
AcDbPolyline
 90
6
 70
1
 10
-267.973519
 20
347.528181
 30
0.0
 10
-269.211149
 20
347.528181
 30
0.0
 10
-269.211149
 20
355.634061
 30
0.0
 10
-273.665399
 20
355.634061
 30
0.0
 10
-273.665399
 20
356.675631
 30
0.0
 10
-267.973519
 20
356.675631
 30
0.0
  0
LWPOLYLINE
  5
169
100
AcDbEntity
  8
Layer_1
 62
7
100
AcDbPolyline
 90
11
 70
1
 10
-278.027739
 20
353.226191
 30
0.0
 10
-276.134539
 20
353.538661
 30
0.0
 10
-275.739349
 20
353.961416
 30
0.0
 10
-275.607619
 20
354.604741
 30
0.0
 10
-275.999739
 20
355.560531
 30
0.0
 10
-277.078079
 20
355.909771
 30
0.0
 10
-277.922054
 20
355.744344
 30
0.0
 10
-278.579159
 20
355.248061
 30
0.0
 10
-279.006517
 20
354.471479
 30
0.0
 10
-279.148969
 20
353.477391
 30
0.0
 10
-279.148969
 20
353.226191
 30
0.0
  0
LWPOLYLINE
  5
16a
100
AcDbEntity
  8
Layer_1
 62
7
100
AcDbPolyline
 90
28
 70
1
 10
-280.276309
 20
352.760541
 30
0.0
 10
-280.276309
 20
356.675631
 30
0.0
 10
-279.148969
 20
356.675631
 30
0.0
 10
-279.148969
 20
355.634061
 30
0.0
 10
-278.187039
 20
356.559221
 30
0.0
 10
-276.777859
 20
356.853311
 30
0.0
 10
-275.831252
 20
356.706266
 30
0.0
 10
-275.099089
 20
356.265131
 30
0.0
 10
-274.634974
 20
355.571259
 30
0.0
 10
-274.480269
 20
354.678261
 30
0.0
 10
-274.673267
 20
353.662731
 30
0.0
 10
-275.252259
 20
352.932101
 30
0.0
 10
-276.220312
 20
352.490966
 30
0.0
 10
-277.568229
 20
352.343921
 30
0.0
 10
-279.148969
 20
352.343921
 30
0.0
 10
-279.148969
 20
352.233631
 30
0.0
 10
-279.020304
 20
351.544359
 30
0.0
 10
-278.634309
 20
351.032761
 30
0.0
 10
-277.200609
 20
350.603881
 30
0.0
 10
-276.054889
 20
350.744801
 30
0.0
 10
-274.982679
 20
351.167551
 30
0.0
 10
-274.982679
 20
350.125981
 30
0.0
 10
-276.183549
 20
349.770621
 30
0.0
 10
-277.317029
 20
349.648081
 30
0.0
 10
-278.617459
 20
349.841079
 30
0.0
 10
-279.541089
 20
350.420071
 30
0.0
 10
-280.092504
 20
351.391184
 30
0.0
 10
-280.276309
 20
352.760541
 30
0.0
  0
LWPOLYLINE
  5
16b
100
AcDbEntity
  8
Layer_1
 62
7
100
AcDbPolyline
 90
17
 70
1
 10
-287.530549
 20
353.250701
 30
0.0
 10
-287.401884
 20
352.141731
 30
0.0
 10
-287.015889
 20
351.302341
 30
0.0
 10
-286.410859
 20
350.769309
 30
0.0
 10
-285.612829
 20
350.591631
 30
0.0
 10
-284.813274
 20
350.769309
 30
0.0
 10
-284.203649
 20
351.302341
 30
0.0
 10
-283.822252
 20
352.141731
 30
0.0
 10
-283.695119
 20
353.250701
 30
0.0
 10
-283.822252
 20
354.361194
 30
0.0
 10
-284.203649
 20
355.205171
 30
0.0
 10
-284.813274
 20
355.733621
 30
0.0
 10
-285.612829
 20
355.909771
 30
0.0
 10
-286.410859
 20
355.733621
 30
0.0
 10
-287.015889
 20
355.205171
 30
0.0
 10
-287.401884
 20
354.361194
 30
0.0
 10
-287.530549
 20
353.250701
 30
0.0
  0
LWPOLYLINE
  5
16c
100
AcDbEntity
  8
Layer_1
 62
7
100
AcDbPolyline
 90
17
 70
1
 10
-283.695119
 20
350.855081
 30
0.0
 10
-284.589639
 20
349.948301
 30
0.0
 10
-285.888539
 20
349.648081
 30
0.0
 10
-287.020484
 20
349.896221
 30
0.0
 10
-287.916539
 20
350.640641
 30
0.0
 10
-288.504727
 20
351.789436
 30
0.0
 10
-288.700789
 20
353.250701
 30
0.0
 10
-288.504727
 20
354.711959
 30
0.0
 10
-287.916539
 20
355.860751
 30
0.0
 10
-287.020484
 20
356.605171
 30
0.0
 10
-285.888539
 20
356.853311
 30
0.0
 10
-284.589639
 20
356.559221
 30
0.0
 10
-283.695119
 20
355.646311
 30
0.0
 10
-283.695119
 20
356.675631
 30
0.0
 10
-282.561639
 20
356.675631
 30
0.0
 10
-282.561639
 20
347.142191
 30
0.0
 10
-283.695119
 20
347.142191
 30
0.0
  0
LWPOLYLINE
  5
16d
100
AcDbEntity
  8
Layer_1
 62
7
100
AcDbPolyline
 90
34
 70
1
 10
-294.944089
 20
350.015701
 30
0.0
 10
-294.944089
 20
351.081781
 30
0.0
 10
-293.951529
 20
350.714161
 30
0.0
 10
-292.885449
 20
350.591631
 30
0.0
 10
-291.623309
 20
350.848951
 30
0.0
 10
-291.206689
 20
351.620941
 30
0.0
 10
-291.506899
 20
352.239761
 30
0.0
 10
-292.713899
 20
352.662511
 30
0.0
 10
-293.099889
 20
352.748311
 30
0.0
 10
-294.803169
 20
353.477411
 30
0.0
 10
-295.184567
 20
354.036489
 30
0.0
 10
-295.311699
 20
354.782441
 30
0.0
 10
-295.121767
 20
355.638671
 30
0.0
 10
-294.551969
 20
356.295781
 30
0.0
 10
-293.655909
 20
356.713944
 30
0.0
 10
-292.474949
 20
356.853331
 30
0.0
 10
-291.323099
 20
356.743041
 30
0.0
 10
-290.067079
 20
356.424441
 30
0.0
 10
-290.067079
 20
355.260341
 30
0.0
 10
-291.298589
 20
355.750491
 30
0.0
 10
-292.499459
 20
355.909791
 30
0.0
 10
-293.724839
 20
355.640201
 30
0.0
 10
-294.153719
 20
354.868211
 30
0.0
 10
-293.841249
 20
354.163621
 30
0.0
 10
-292.487209
 20
353.691851
 30
0.0
 10
-292.095079
 20
353.599951
 30
0.0
 10
-290.581739
 20
352.925991
 30
0.0
 10
-290.116099
 20
351.669981
 30
0.0
 10
-290.287652
 20
350.812216
 30
0.0
 10
-290.802309
 20
350.175021
 30
0.0
 10
-291.632502
 20
349.779831
 30
0.0
 10
-292.750659
 20
349.648101
 30
0.0
 10
-293.927019
 20
349.740001
 30
0.0
 10
-294.944089
 20
350.015711
 30
0.0
  0
LWPOLYLINE
  5
16e
100
AcDbEntity
  8
Layer_1
 62
7
100
AcDbPolyline
 90
9
 70
1
 10
-302.394389
 20
352.307151
 30
0.0
 10
-302.394389
 20
355.658561
 30
0.0
 10
-304.379499
 20
355.658561
 30
0.0
 10
-305.856079
 20
355.248061
 30
0.0
 10
-306.219094
 20
354.722681
 30
0.0
 10
-306.340099
 20
353.979801
 30
0.0
 10
-306.219094
 20
353.235381
 30
0.0
 10
-305.856079
 20
352.717661
 30
0.0
 10
-304.379499
 20
352.307151
 30
0.0
  0
LWPOLYLINE
  5
16f
100
AcDbEntity
  8
Layer_1
 62
7
100
AcDbPolyline
 90
7
 70
1
 10
-302.394389
 20
348.545241
 30
0.0
 10
-302.394389
 20
351.302341
 30
0.0
 10
-304.226329
 20
351.302341
 30
0.0
 10
-305.574239
 20
350.965371
 30
0.0
 10
-306.021509
 20
349.923791
 30
0.0
 10
-305.574239
 20
348.888351
 30
0.0
 10
-304.226329
 20
348.545241
 30
0.0
  0
LWPOLYLINE
  5
170
100
AcDbEntity
  8
Layer_1
 62
7
100
AcDbPolyline
 90
15
 70
1
 10
-301.156749
 20
347.528181
 30
0.0
 10
-304.318229
 20
347.528181
 30
0.0
 10
-305.571177
 20
347.675226
 30
0.0
 10
-306.499399
 20
348.116361
 30
0.0
 10
-307.073794
 20
348.828611
 30
0.0
 10
-307.265259
 20
349.789001
 30
0.0
 10
-306.873139
 20
351.124661
 30
0.0
 10
-305.721289
 20
351.743481
 30
0.0
 10
-307.136599
 20
352.564481
 30
0.0
 10
-307.645129
 20
354.114591
 30
0.0
 10
-307.436814
 20
355.200584
 30
0.0
 10
-306.811869
 20
356.007801
 30
0.0
 10
-305.802469
 20
356.508674
 30
0.0
 10
-304.440769
 20
356.675631
 30
0.0
 10
-301.156749
 20
356.675631
 30
0.0
  0
LWPOLYLINE
  5
171
100
AcDbEntity
  8
Layer_1
 62
7
100
AcDbPolyline
 90
31
 70
1
 10
-315.775509
 20
355.370601
 30
0.0
 10
-315.775509
 20
352.913721
 30
0.0
 10
-313.753639
 20
352.913721
 30
0.0
 10
-313.753639
 20
351.896651
 30
0.0
 10
-317.000889
 20
351.896651
 30
0.0
 10
-317.000889
 20
355.823991
 30
0.0
 10
-315.420149
 20
356.595981
 30
0.0
 10
-313.575959
 20
356.853311
 30
0.0
 10
-311.664369
 20
356.540839
 30
0.0
 10
-310.218419
 20
355.603421
 30
0.0
 10
-309.313177
 20
354.102334
 30
0.0
 10
-309.011429
 20
352.111091
 30
0.0
 10
-309.313177
 20
350.116791
 30
0.0
 10
-310.218419
 20
348.618771
 30
0.0
 10
-311.664369
 20
347.676756
 30
0.0
 10
-313.575959
 20
347.362751
 30
0.0
 10
-315.273109
 20
347.583321
 30
0.0
 10
-316.761939
 20
348.232771
 30
0.0
 10
-316.761939
 20
349.550051
 30
0.0
 10
-315.303739
 20
348.673911
 30
0.0
 10
-313.680119
 20
348.379821
 30
0.0
 10
-312.209664
 20
348.614174
 30
0.0
 10
-311.155839
 20
349.317231
 30
0.0
 10
-310.526297
 20
350.484406
 30
0.0
 10
-310.316449
 20
352.111091
 30
0.0
 10
-310.526297
 20
353.733186
 30
0.0
 10
-311.155839
 20
354.898831
 30
0.0
 10
-312.209664
 20
355.601889
 30
0.0
 10
-313.680119
 20
355.836241
 30
0.0
 10
-314.850349
 20
355.725961
 30
0.0
 10
-315.775509
 20
355.370601
 30
0.0
  0
LWPOLYLINE
  5
172
100
AcDbEntity
  8
Layer_1
 62
7
100
AcDbPolyline
 90
11
 70
1
 10
-319.592569
 20
355.634061
 30
0.0
 10
-321.614439
 20
355.634061
 30
0.0
 10
-321.614439
 20
348.655531
 30
0.0
 10
-319.414889
 20
349.096661
 30
0.0
 10
-319.414889
 20
347.969321
 30
0.0
 10
-321.602189
 20
347.528181
 30
0.0
 10
-322.839819
 20
347.528181
 30
0.0
 10
-322.839819
 20
355.634061
 30
0.0
 10
-324.861699
 20
355.634061
 30
0.0
 10
-324.861699
 20
356.675631
 30
0.0
 10
-319.592569
 20
356.675631
 30
0.0
  0
LWPOLYLINE
  5
173
100
AcDbEntity
  8
Layer_1
 62
7
100
AcDbPolyline
 90
24
 70
1
 10
-328.433669
 20
355.634061
 30
0.0
 10
-332.753129
 20
355.634061
 30
0.0
 10
-332.753129
 20
356.675631
 30
0.0
 10
-326.944839
 20
356.675631
 30
0.0
 10
-326.944839
 20
355.634061
 30
0.0
 10
-328.862549
 20
353.679581
 30
0.0
 10
-330.394279
 20
352.092711
 30
0.0
 10
-331.221409
 20
350.965371
 30
0.0
 10
-331.460359
 20
350.052461
 30
0.0
 10
-330.945699
 20
348.863841
 30
0.0
 10
-329.616159
 20
348.404331
 30
0.0
 10
-328.384659
 20
348.606511
 30
0.0
 10
-327.006109
 20
349.219201
 30
0.0
 10
-327.006109
 20
347.969321
 30
0.0
 10
-328.403039
 20
347.515931
 30
0.0
 10
-329.591649
 20
347.362751
 30
0.0
 10
-330.869107
 20
347.540431
 30
0.0
 10
-331.858599
 20
348.073471
 30
0.0
 10
-332.492739
 20
348.903666
 30
0.0
 10
-332.704119
 20
349.972811
 30
0.0
 10
-332.489669
 20
351.045011
 30
0.0
 10
-331.723809
 20
352.233631
 30
0.0
 10
-330.749639
 20
353.262951
 30
0.0
 10
-328.433669
 20
355.634061
 30
0.0
  0
LWPOLYLINE
  5
174
100
AcDbEntity
  8
Layer_1
 62
7
100
AcDbPolyline
 90
9
 70
1
 10
-340.479139
 20
352.307151
 30
0.0
 10
-340.479139
 20
355.658561
 30
0.0
 10
-342.464249
 20
355.658561
 30
0.0
 10
-343.940829
 20
355.248061
 30
0.0
 10
-344.303852
 20
354.722681
 30
0.0
 10
-344.424859
 20
353.979801
 30
0.0
 10
-344.303852
 20
353.235381
 30
0.0
 10
-343.940829
 20
352.717661
 30
0.0
 10
-342.464249
 20
352.307151
 30
0.0
  0
LWPOLYLINE
  5
175
100
AcDbEntity
  8
Layer_1
 62
7
100
AcDbPolyline
 90
7
 70
1
 10
-340.479139
 20
348.545241
 30
0.0
 10
-340.479139
 20
351.302341
 30
0.0
 10
-342.311079
 20
351.302341
 30
0.0
 10
-343.658999
 20
350.965371
 30
0.0
 10
-344.106259
 20
349.923791
 30
0.0
 10
-343.658999
 20
348.888351
 30
0.0
 10
-342.311079
 20
348.545241
 30
0.0
  0
LWPOLYLINE
  5
176
100
AcDbEntity
  8
Layer_1
 62
7
100
AcDbPolyline
 90
15
 70
1
 10
-339.241509
 20
347.528181
 30
0.0
 10
-342.402979
 20
347.528181
 30
0.0
 10
-343.655934
 20
347.675226
 30
0.0
 10
-344.584159
 20
348.116361
 30
0.0
 10
-345.158554
 20
348.828611
 30
0.0
 10
-345.350019
 20
349.789001
 30
0.0
 10
-344.957899
 20
351.124661
 30
0.0
 10
-343.806039
 20
351.743481
 30
0.0
 10
-345.221349
 20
352.564481
 30
0.0
 10
-345.729889
 20
354.114591
 30
0.0
 10
-345.521574
 20
355.200584
 30
0.0
 10
-344.896629
 20
356.007801
 30
0.0
 10
-343.887222
 20
356.508674
 30
0.0
 10
-342.525519
 20
356.675631
 30
0.0
 10
-339.241509
 20
356.675631
 30
0.0
  0
LWPOLYLINE
  5
177
100
AcDbEntity
  8
Layer_1
 62
7
100
AcDbPolyline
 90
24
 70
1
 10
-353.664199
 20
352.962731
 30
0.0
 10
-353.664199
 20
353.514151
 30
0.0
 10
-348.480859
 20
353.514151
 30
0.0
 10
-348.692224
 20
354.540406
 30
0.0
 10
-349.179319
 20
355.290951
 30
0.0
 10
-349.932927
 20
355.745871
 30
0.0
 10
-350.931609
 20
355.897511
 30
0.0
 10
-352.187619
 20
355.738211
 30
0.0
 10
-353.400749
 20
355.260321
 30
0.0
 10
-353.400749
 20
356.326391
 30
0.0
 10
-352.156989
 20
356.718521
 30
0.0
 10
-350.864219
 20
356.853311
 30
0.0
 10
-349.392232
 20
356.614361
 30
0.0
 10
-348.260289
 20
355.897511
 30
0.0
 10
-347.543439
 20
354.773229
 30
0.0
 10
-347.304489
 20
353.311961
 30
0.0
 10
-347.531184
 20
351.801686
 30
0.0
 10
-348.211269
 20
350.640641
 30
0.0
 10
-349.281947
 20
349.896221
 30
0.0
 10
-350.668159
 20
349.648081
 30
0.0
 10
-351.907319
 20
349.871714
 30
0.0
 10
-352.855459
 20
350.542611
 30
0.0
 10
-353.462014
 20
351.591841
 30
0.0
 10
-353.664199
 20
352.962731
 30
0.0
  0
LWPOLYLINE
  5
178
100
AcDbEntity
  8
Layer_1
 62
7
100
AcDbPolyline
 90
8
 70
1
 10
-352.536859
 20
352.631881
 30
0.0
 10
-352.016069
 20
351.155301
 30
0.0
 10
-351.430954
 20
350.741736
 30
0.0
 10
-350.680409
 20
350.603881
 30
0.0
 10
-349.830304
 20
350.737141
 30
0.0
 10
-349.167069
 20
351.136921
 30
0.0
 10
-348.722867
 20
351.778714
 30
0.0
 10
-348.517619
 20
352.638011
 30
0.0
  0
LWPOLYLINE
  5
179
100
AcDbEntity
  8
Layer_1
 62
7
100
AcDbPolyline
 90
20
 70
1
 10
-356.629619
 20
347.865161
 30
0.0
 10
-356.629619
 20
349.813511
 30
0.0
 10
-358.951708
 20
349.813511
 30
0.0
 10
-358.951708
 20
350.689661
 30
0.0
 10
-356.629619
 20
350.689661
 30
0.0
 10
-356.629619
 20
354.414801
 30
0.0
 10
-356.856309
 20
355.493141
 30
0.0
 10
-357.793729
 20
355.732091
 30
0.0
 10
-358.951708
 20
355.732091
 30
0.0
 10
-358.951708
 20
356.675631
 30
0.0
 10
-357.793729
 20
356.675631
 30
0.0
 10
-356.690887
 20
356.554624
 30
0.0
 10
-355.992419
 20
356.191601
 30
0.0
 10
-355.620209
 20
355.502326
 30
0.0
 10
-355.496139
 20
354.414801
 30
0.0
 10
-355.496139
 20
350.689661
 30
0.0
 10
-354.669009
 20
350.689661
 30
0.0
 10
-354.669009
 20
349.813511
 30
0.0
 10
-355.496139
 20
349.813511
 30
0.0
 10
-355.496139
 20
347.865161
 30
0.0
  0
LWPOLYLINE
  5
17a
100
AcDbEntity
  8
Layer_1
 62
7
100
AcDbPolyline
 90
11
 70
1
 10
-363.559135
 20
353.226191
 30
0.0
 10
-361.665926
 20
353.538661
 30
0.0
 10
-361.270741
 20
353.961416
 30
0.0
 10
-361.139013
 20
354.604741
 30
0.0
 10
-361.531134
 20
355.560531
 30
0.0
 10
-362.609467
 20
355.909771
 30
0.0
 10
-363.453446
 20
355.744344
 30
0.0
 10
-364.110555
 20
355.248061
 30
0.0
 10
-364.537906
 20
354.471479
 30
0.0
 10
-364.680356
 20
353.477391
 30
0.0
 10
-364.680356
 20
353.226191
 30
0.0
  0
LWPOLYLINE
  5
17b
100
AcDbEntity
  8
Layer_1
 62
7
100
AcDbPolyline
 90
28
 70
1
 10
-365.807703
 20
352.760541
 30
0.0
 10
-365.807703
 20
356.675631
 30
0.0
 10
-364.680356
 20
356.675631
 30
0.0
 10
-364.680356
 20
355.634061
 30
0.0
 10
-363.718434
 20
356.559221
 30
0.0
 10
-362.309249
 20
356.853311
 30
0.0
 10
-361.362645
 20
356.706266
 30
0.0
 10
-360.630481
 20
356.265131
 30
0.0
 10
-360.166369
 20
355.571259
 30
0.0
 10
-360.011665
 20
354.678261
 30
0.0
 10
-360.204662
 20
353.662731
 30
0.0
 10
-360.783653
 20
352.932101
 30
0.0
 10
-361.751702
 20
352.490966
 30
0.0
 10
-363.099618
 20
352.343921
 30
0.0
 10
-364.680356
 20
352.343921
 30
0.0
 10
-364.680356
 20
352.233631
 30
0.0
 10
-364.551691
 20
351.544359
 30
0.0
 10
-364.165697
 20
351.032761
 30
0.0
 10
-362.732004
 20
350.603881
 30
0.0
 10
-361.586276
 20
350.744801
 30
0.0
 10
-360.514070
 20
351.167551
 30
0.0
 10
-360.514070
 20
350.125981
 30
0.0
 10
-361.714941
 20
349.770621
 30
0.0
 10
-362.848415
 20
349.648081
 30
0.0
 10
-364.148848
 20
349.841079
 30
0.0
 10
-365.072477
 20
350.420071
 30
0.0
 10
-365.623897
 20
351.391184
 30
0.0
 10
-365.807703
 20
352.760541
 30
0.0
  0
LWPOLYLINE
  5
17c
100
AcDbEntity
  8
Layer_1
 62
7
100
AcDbPolyline
 90
2
 70
0
 10
-307.059270
 20
117.364730
 30
0.0
 10
-288.216790
 20
117.364730
 30
0.0
  0
ENDSEC
  0
SECTION
  2
OBJECTS
  0
DICTIONARY
  5
C
330
0
100
AcDbDictionary
  3
ACAD_GROUP
350
D
  3
ACAD_MLINESTYLE
350
17
  0
DICTIONARY
  5
D
330
C
100
AcDbDictionary
  0
DICTIONARY
  5
1A
330
C
100
AcDbDictionary
  0
DICTIONARY
  5
17
330
C
100
AcDbDictionary
  3
STANDARD
350
18
  0
DICTIONARY
  5
19
330
C
100
AcDbDictionary
  0
ENDSEC
  0
EOF
