  0
SECTION
  2
HEADER
  9
$ACADVER
  1
AC1014
  9
$HANDSEED
  5
FFFF
  9
$MEASUREMENT
 70
     1
  0
ENDSEC
  0
SECTION
  2
TABLES
  0
TABLE
  2
VPORT
  5
8
330
0
100
AcDbSymbolTable
 70
     4
  0
VPORT
  5
2E
330
8
100
AcDbSymbolTableRecord
100
AcDbViewportTableRecord
  2
*ACTIVE
 70
     0
 10
0.0
 20
0.0
 11
1.0
 21
1.0
 12
210.0
 22
148.5
 13
0.0
 23
0.0
 14
10.0
 24
10.0
 15
10.0
 25
10.0
 16
0.0
 26
0.0
 36
1.0
 17
0.0
 27
0.0
 37
0.0
 40
341.0
 41
1.24
 42
50.0
 43
0.0
 44
0.0
 50
0.0
 51
0.0
 71
     0
 72
   100
 73
     1
 74
     3
 75
     0
 76
     0
 77
     0
 78
     0
  0
ENDTAB
  0
TABLE
  2
LTYPE
  5
5
330
0
100
AcDbSymbolTable
 70
     1
  0
LTYPE
  5
14
330
5
100
AcDbSymbolTableRecord
100
AcDbLinetypeTableRecord
  2
BYBLOCK
 70
     0
  3

 72
    65
 73
     0
 40
0.0
  0
LTYPE
  5
15
330
5
100
AcDbSymbolTableRecord
100
AcDbLinetypeTableRecord
  2
BYLAYER
 70
     0
  3

 72
    65
 73
     0
 40
0.0
  0
LTYPE
  5
16
330
5
100
AcDbSymbolTableRecord
100
AcDbLinetypeTableRecord
  2
CONTINUOUS
 70
     0
  3
Solid line
 72
    65
 73
     0
 40
0.0
  0
ENDTAB
  0
TABLE
  2
LAYER
  5
2
100
AcDbSymbolTable
 70
1
  0
LAYER
  5
50
100
AcDbSymbolTableRecord
100
AcDbLayerTableRecord
  2
0
 70
0
  6
CONTINUOUS
  0
ENDTAB
  0
TABLE
  2
STYLE
  5
3
330
0
100
AcDbSymbolTable
 70
     1
  0
STYLE
  5
11
330
3
100
AcDbSymbolTableRecord
100
AcDbTextStyleTableRecord
  2
STANDARD
 70
     0
 40
0.0
 41
1.0
 50
0.0
 71
     0
 42
2.5
  3
txt
  4

  0
ENDTAB
  0
TABLE
  2
VIEW
  5
6
330
0
100
AcDbSymbolTable
 70
     0
  0
ENDTAB
  0
TABLE
  2
UCS
  5
7
330
0
100
AcDbSymbolTable
 70
     0
  0
ENDTAB
  0
TABLE
  2
APPID
  5
9
330
0
100
AcDbSymbolTable
 70
     2
  0
APPID
  5
12
330
9
100
AcDbSymbolTableRecord
100
AcDbRegAppTableRecord
  2
ACAD
 70
     0
  0
ENDTAB
  0
TABLE
  2
DIMSTYLE
  5
A
330
0
100
AcDbSymbolTable
 70
     1
  0
DIMSTYLE
105
27
330
A
100
AcDbSymbolTableRecord
100
AcDbDimStyleTableRecord
  2
ISO-25
 70
     0
  3

  4

  5

  6

  7

 40
1.0
 41
2.5
 42
0.625
 43
3.75
 44
1.25
 45
0.0
 46
0.0
 47
0.0
 48
0.0
140
2.5
141
2.5
142
0.0
143
0.03937007874016
144
1.0
145
0.0
146
1.0
147
0.625
 71
     0
 72
     0
 73
     0
 74
     0
 75
     0
 76
     0
 77
     1
 78
     8
170
     0
171
     3
172
     1
173
     0
174
     0
175
     0
176
     0
177
     0
178
     0
270
     2
271
     2
272
     2
273
     2
274
     3
340
11
275
     0
280
     0
281
     0
282
     0
283
     0
284
     8
285
     0
286
     0
287
     3
288
     0
  0
ENDTAB
  0
TABLE
  2
BLOCK_RECORD
  5
1
330
0
100
AcDbSymbolTable
 70
     1
  0
BLOCK_RECORD
  5
1F
330
1
100
AcDbSymbolTableRecord
100
AcDbBlockTableRecord
  2
*MODEL_SPACE
  0
BLOCK_RECORD
  5
1B
330
1
100
AcDbSymbolTableRecord
100
AcDbBlockTableRecord
  2
*PAPER_SPACE
  0
ENDTAB
  0
ENDSEC
  0
SECTION
  2
BLOCKS
  0
BLOCK
  5
20
330
1F
100
AcDbEntity
  8
0
100
AcDbBlockBegin
  2
*MODEL_SPACE
 70
     0
 10
0.0
 20
0.0
 30
0.0
  3
*MODEL_SPACE
  1

  0
ENDBLK
  5
21
330
1F
100
AcDbEntity
  8
0
100
AcDbBlockEnd
  0
BLOCK
  5
1C
330
1B
100
AcDbEntity
 67
     1
  8
0
100
AcDbBlockBegin
  2
*PAPER_SPACE
  1

  0
ENDBLK
  5
1D
330
1B
100
AcDbEntity
 67
     1
  8
0
100
AcDbBlockEnd
  0
ENDSEC
  0
SECTION
  2
ENTITIES
  0
SPLINE
  5
100
100
AcDbEntity
  8
0
 62
7
100
AcDbSpline
 70
8
 71
3
 72
8
 73
4
 74
0
 40
0
 40
0
 40
0
 40
0
 40
1
 40
1
 40
1
 40
1
 10
134.974920
 20
-159.062953
 30
0.0
 10
131.225174
 20
-164.354911
 30
0.0
 10
125.142072
 20
-167.500013
 30
0.0
 10
118.656269
 20
-167.500013
 30
0.0
  0
SPLINE
  5
101
100
AcDbEntity
  8
0
 62
7
100
AcDbSpline
 70
8
 71
3
 72
8
 73
4
 74
0
 40
0
 40
0
 40
0
 40
0
 40
1
 40
1
 40
1
 40
1
 10
0.000000
 20
-167.500013
 30
0.0
 10
-5.522847
 20
-167.500013
 30
0.0
 10
-10.000000
 20
-163.022840
 30
0.0
 10
-10.000000
 20
-157.500006
 30
0.0
  0
LWPOLYLINE
  5
102
100
AcDbEntity
  8
0
 62
7
100
AcDbPolyline
 90
2
 70
0
 10
118.656269
 20
-167.500013
 30
0.0
 10
0.000000
 20
-167.500013
 30
0.0
  0
SPLINE
  5
103
100
AcDbEntity
  8
0
 62
7
100
AcDbSpline
 70
8
 71
3
 72
8
 73
4
 74
0
 40
0
 40
0
 40
0
 40
0
 40
1
 40
1
 40
1
 40
1
 10
-10.000000
 20
-50.000010
 30
0.0
 10
-10.000000
 20
-44.477150
 30
0.0
 10
-5.522848
 20
-40.000003
 30
0.0
 10
0.000000
 20
-40.000003
 30
0.0
  0
LWPOLYLINE
  5
104
100
AcDbEntity
  8
0
 62
7
100
AcDbPolyline
 90
2
 70
0
 10
-10.000000
 20
-157.500006
 30
0.0
 10
-10.000000
 20
-50.000010
 30
0.0
  0
SPLINE
  5
105
100
AcDbEntity
  8
0
 62
7
100
AcDbSpline
 70
8
 71
3
 72
8
 73
4
 74
0
 40
0
 40
0
 40
0
 40
0
 40
1
 40
1
 40
1
 40
1
 10
2.500000
 20
-50.000000
 30
0.0
 10
2.500000
 20
-49.106836
 30
0.0
 10
2.023503
 20
-48.281518
 30
0.0
 10
1.250000
 20
-47.834936
 30
0.0
  0
SPLINE
  5
106
100
AcDbEntity
  8
0
 62
7
100
AcDbSpline
 70
8
 71
3
 72
8
 73
4
 74
0
 40
0
 40
0
 40
0
 40
0
 40
1
 40
1
 40
1
 40
1
 10
1.250000
 20
-47.834936
 30
0.0
 10
0.476497
 20
-47.388354
 30
0.0
 10
-0.476497
 20
-47.388354
 30
0.0
 10
-1.250000
 20
-47.834936
 30
0.0
  0
SPLINE
  5
107
100
AcDbEntity
  8
0
 62
7
100
AcDbSpline
 70
8
 71
3
 72
8
 73
4
 74
0
 40
0
 40
0
 40
0
 40
0
 40
1
 40
1
 40
1
 40
1
 10
-1.250000
 20
-47.834936
 30
0.0
 10
-2.023503
 20
-48.281518
 30
0.0
 10
-2.500000
 20
-49.106836
 30
0.0
 10
-2.500000
 20
-50.000000
 30
0.0
  0
SPLINE
  5
108
100
AcDbEntity
  8
0
 62
7
100
AcDbSpline
 70
8
 71
3
 72
8
 73
4
 74
0
 40
0
 40
0
 40
0
 40
0
 40
1
 40
1
 40
1
 40
1
 10
-2.500000
 20
-50.000000
 30
0.0
 10
-2.500000
 20
-50.893164
 30
0.0
 10
-2.023503
 20
-51.718482
 30
0.0
 10
-1.250000
 20
-52.165064
 30
0.0
  0
SPLINE
  5
109
100
AcDbEntity
  8
0
 62
7
100
AcDbSpline
 70
8
 71
3
 72
8
 73
4
 74
0
 40
0
 40
0
 40
0
 40
0
 40
1
 40
1
 40
1
 40
1
 10
-1.250000
 20
-52.165064
 30
0.0
 10
-0.476497
 20
-52.611646
 30
0.0
 10
0.476497
 20
-52.611646
 30
0.0
 10
1.250000
 20
-52.165064
 30
0.0
  0
SPLINE
  5
10a
100
AcDbEntity
  8
0
 62
7
100
AcDbSpline
 70
8
 71
3
 72
8
 73
4
 74
0
 40
0
 40
0
 40
0
 40
0
 40
1
 40
1
 40
1
 40
1
 10
1.250000
 20
-52.165064
 30
0.0
 10
2.023503
 20
-51.718482
 30
0.0
 10
2.500000
 20
-50.893164
 30
0.0
 10
2.500000
 20
-50.000000
 30
0.0
  0
LWPOLYLINE
  5
10b
100
AcDbEntity
  8
0
 62
7
100
AcDbPolyline
 90
2
 70
0
 10
0.000000
 20
-40.000003
 30
0.0
 10
194.999999
 20
-40.000003
 30
0.0
  0
SPLINE
  5
10c
100
AcDbEntity
  8
0
 62
7
100
AcDbSpline
 70
8
 71
3
 72
8
 73
4
 74
0
 40
0
 40
0
 40
0
 40
0
 40
1
 40
1
 40
1
 40
1
 10
2.500000
 20
-147.500000
 30
0.0
 10
2.500000
 20
-146.606836
 30
0.0
 10
2.023503
 20
-145.781518
 30
0.0
 10
1.250000
 20
-145.334936
 30
0.0
  0
SPLINE
  5
10d
100
AcDbEntity
  8
0
 62
7
100
AcDbSpline
 70
8
 71
3
 72
8
 73
4
 74
0
 40
0
 40
0
 40
0
 40
0
 40
1
 40
1
 40
1
 40
1
 10
1.250000
 20
-145.334936
 30
0.0
 10
0.476497
 20
-144.888354
 30
0.0
 10
-0.476497
 20
-144.888354
 30
0.0
 10
-1.250000
 20
-145.334936
 30
0.0
  0
SPLINE
  5
10e
100
AcDbEntity
  8
0
 62
7
100
AcDbSpline
 70
8
 71
3
 72
8
 73
4
 74
0
 40
0
 40
0
 40
0
 40
0
 40
1
 40
1
 40
1
 40
1
 10
-1.250000
 20
-145.334936
 30
0.0
 10
-2.023503
 20
-145.781518
 30
0.0
 10
-2.500000
 20
-146.606836
 30
0.0
 10
-2.500000
 20
-147.500000
 30
0.0
  0
SPLINE
  5
10f
100
AcDbEntity
  8
0
 62
7
100
AcDbSpline
 70
8
 71
3
 72
8
 73
4
 74
0
 40
0
 40
0
 40
0
 40
0
 40
1
 40
1
 40
1
 40
1
 10
-2.500000
 20
-147.500000
 30
0.0
 10
-2.500000
 20
-148.393164
 30
0.0
 10
-2.023503
 20
-149.218482
 30
0.0
 10
-1.250000
 20
-149.665064
 30
0.0
  0
SPLINE
  5
110
100
AcDbEntity
  8
0
 62
7
100
AcDbSpline
 70
8
 71
3
 72
8
 73
4
 74
0
 40
0
 40
0
 40
0
 40
0
 40
1
 40
1
 40
1
 40
1
 10
-1.250000
 20
-149.665064
 30
0.0
 10
-0.476497
 20
-150.111646
 30
0.0
 10
0.476497
 20
-150.111646
 30
0.0
 10
1.250000
 20
-149.665064
 30
0.0
  0
SPLINE
  5
111
100
AcDbEntity
  8
0
 62
7
100
AcDbSpline
 70
8
 71
3
 72
8
 73
4
 74
0
 40
0
 40
0
 40
0
 40
0
 40
1
 40
1
 40
1
 40
1
 10
1.250000
 20
-149.665064
 30
0.0
 10
2.023503
 20
-149.218482
 30
0.0
 10
2.500000
 20
-148.393164
 30
0.0
 10
2.500000
 20
-147.500000
 30
0.0
  0
LWPOLYLINE
  5
112
100
AcDbEntity
  8
0
 62
7
100
AcDbPolyline
 90
1
 70
1
 10
2.500000
 20
-50.000000
 30
0.0
  0
SPLINE
  5
113
100
AcDbEntity
  8
0
 62
7
100
AcDbSpline
 70
8
 71
3
 72
8
 73
4
 74
0
 40
0
 40
0
 40
0
 40
0
 40
1
 40
1
 40
1
 40
1
 10
2.500000
 20
-70.000000
 30
0.0
 10
2.500000
 20
-69.106836
 30
0.0
 10
2.023503
 20
-68.281518
 30
0.0
 10
1.250000
 20
-67.834936
 30
0.0
  0
SPLINE
  5
114
100
AcDbEntity
  8
0
 62
7
100
AcDbSpline
 70
8
 71
3
 72
8
 73
4
 74
0
 40
0
 40
0
 40
0
 40
0
 40
1
 40
1
 40
1
 40
1
 10
1.250000
 20
-67.834936
 30
0.0
 10
0.476497
 20
-67.388354
 30
0.0
 10
-0.476497
 20
-67.388354
 30
0.0
 10
-1.250000
 20
-67.834936
 30
0.0
  0
SPLINE
  5
115
100
AcDbEntity
  8
0
 62
7
100
AcDbSpline
 70
8
 71
3
 72
8
 73
4
 74
0
 40
0
 40
0
 40
0
 40
0
 40
1
 40
1
 40
1
 40
1
 10
-1.250000
 20
-67.834936
 30
0.0
 10
-2.023503
 20
-68.281518
 30
0.0
 10
-2.500000
 20
-69.106836
 30
0.0
 10
-2.500000
 20
-70.000000
 30
0.0
  0
SPLINE
  5
116
100
AcDbEntity
  8
0
 62
7
100
AcDbSpline
 70
8
 71
3
 72
8
 73
4
 74
0
 40
0
 40
0
 40
0
 40
0
 40
1
 40
1
 40
1
 40
1
 10
-2.500000
 20
-70.000000
 30
0.0
 10
-2.500000
 20
-70.893164
 30
0.0
 10
-2.023503
 20
-71.718481
 30
0.0
 10
-1.250000
 20
-72.165063
 30
0.0
  0
SPLINE
  5
117
100
AcDbEntity
  8
0
 62
7
100
AcDbSpline
 70
8
 71
3
 72
8
 73
4
 74
0
 40
0
 40
0
 40
0
 40
0
 40
1
 40
1
 40
1
 40
1
 10
-1.250000
 20
-72.165063
 30
0.0
 10
-0.476497
 20
-72.611645
 30
0.0
 10
0.476497
 20
-72.611645
 30
0.0
 10
1.250000
 20
-72.165063
 30
0.0
  0
SPLINE
  5
118
100
AcDbEntity
  8
0
 62
7
100
AcDbSpline
 70
8
 71
3
 72
8
 73
4
 74
0
 40
0
 40
0
 40
0
 40
0
 40
1
 40
1
 40
1
 40
1
 10
1.250000
 20
-72.165063
 30
0.0
 10
2.023503
 20
-71.718481
 30
0.0
 10
2.500000
 20
-70.893164
 30
0.0
 10
2.500000
 20
-70.000000
 30
0.0
  0
LWPOLYLINE
  5
119
100
AcDbEntity
  8
0
 62
7
100
AcDbPolyline
 90
1
 70
1
 10
2.500000
 20
-147.500000
 30
0.0
  0
SPLINE
  5
11a
100
AcDbEntity
  8
0
 62
7
100
AcDbSpline
 70
8
 71
3
 72
8
 73
4
 74
0
 40
0
 40
0
 40
0
 40
0
 40
1
 40
1
 40
1
 40
1
 10
105.000000
 20
-50.000000
 30
0.0
 10
105.000000
 20
-49.106836
 30
0.0
 10
104.523503
 20
-48.281518
 30
0.0
 10
103.750000
 20
-47.834936
 30
0.0
  0
SPLINE
  5
11b
100
AcDbEntity
  8
0
 62
7
100
AcDbSpline
 70
8
 71
3
 72
8
 73
4
 74
0
 40
0
 40
0
 40
0
 40
0
 40
1
 40
1
 40
1
 40
1
 10
103.750000
 20
-47.834936
 30
0.0
 10
102.976497
 20
-47.388354
 30
0.0
 10
102.023503
 20
-47.388354
 30
0.0
 10
101.250000
 20
-47.834936
 30
0.0
  0
SPLINE
  5
11c
100
AcDbEntity
  8
0
 62
7
100
AcDbSpline
 70
8
 71
3
 72
8
 73
4
 74
0
 40
0
 40
0
 40
0
 40
0
 40
1
 40
1
 40
1
 40
1
 10
101.250000
 20
-47.834936
 30
0.0
 10
100.476497
 20
-48.281518
 30
0.0
 10
100.000000
 20
-49.106836
 30
0.0
 10
100.000000
 20
-50.000000
 30
0.0
  0
SPLINE
  5
11d
100
AcDbEntity
  8
0
 62
7
100
AcDbSpline
 70
8
 71
3
 72
8
 73
4
 74
0
 40
0
 40
0
 40
0
 40
0
 40
1
 40
1
 40
1
 40
1
 10
100.000000
 20
-50.000000
 30
0.0
 10
100.000000
 20
-50.893164
 30
0.0
 10
100.476497
 20
-51.718482
 30
0.0
 10
101.250000
 20
-52.165064
 30
0.0
  0
SPLINE
  5
11e
100
AcDbEntity
  8
0
 62
7
100
AcDbSpline
 70
8
 71
3
 72
8
 73
4
 74
0
 40
0
 40
0
 40
0
 40
0
 40
1
 40
1
 40
1
 40
1
 10
101.250000
 20
-52.165064
 30
0.0
 10
102.023503
 20
-52.611646
 30
0.0
 10
102.976497
 20
-52.611646
 30
0.0
 10
103.750000
 20
-52.165064
 30
0.0
  0
SPLINE
  5
11f
100
AcDbEntity
  8
0
 62
7
100
AcDbSpline
 70
8
 71
3
 72
8
 73
4
 74
0
 40
0
 40
0
 40
0
 40
0
 40
1
 40
1
 40
1
 40
1
 10
103.750000
 20
-52.165064
 30
0.0
 10
104.523503
 20
-51.718482
 30
0.0
 10
105.000000
 20
-50.893164
 30
0.0
 10
105.000000
 20
-50.000000
 30
0.0
  0
LWPOLYLINE
  5
120
100
AcDbEntity
  8
0
 62
7
100
AcDbPolyline
 90
1
 70
1
 10
2.500000
 20
-70.000000
 30
0.0
  0
LWPOLYLINE
  5
121
100
AcDbEntity
  8
0
 62
7
100
AcDbPolyline
 90
1
 70
1
 10
105.000000
 20
-50.000000
 30
0.0
  0
LWPOLYLINE
  5
122
100
AcDbEntity
  8
0
 62
7
100
AcDbPolyline
 90
11
 70
1
 10
58.000000
 20
-76.500001
 30
0.0
 10
17.500000
 20
-76.500001
 30
0.0
 10
17.500000
 20
-103.500001
 30
0.0
 10
58.000000
 20
-103.500001
 30
0.0
 10
58.500000
 20
-103.500001
 30
0.0
 10
65.000000
 20
-97.000001
 30
0.0
 10
65.000000
 20
-96.500001
 30
0.0
 10
65.000000
 20
-83.500001
 30
0.0
 10
65.000000
 20
-83.000001
 30
0.0
 10
58.500000
 20
-76.500001
 30
0.0
 10
58.000000
 20
-76.500001
 30
0.0
  0
SPLINE
  5
123
100
AcDbEntity
  8
0
 62
7
100
AcDbSpline
 70
8
 71
3
 72
8
 73
4
 74
0
 40
0
 40
0
 40
0
 40
0
 40
1
 40
1
 40
1
 40
1
 10
41.606356
 20
-70.001589
 30
0.0
 10
41.606356
 20
-69.376374
 30
0.0
 10
41.272808
 20
-68.798651
 30
0.0
 10
40.731356
 20
-68.486044
 30
0.0
  0
SPLINE
  5
124
100
AcDbEntity
  8
0
 62
7
100
AcDbSpline
 70
8
 71
3
 72
8
 73
4
 74
0
 40
0
 40
0
 40
0
 40
0
 40
1
 40
1
 40
1
 40
1
 10
40.731356
 20
-68.486044
 30
0.0
 10
40.189904
 20
-68.173437
 30
0.0
 10
39.522808
 20
-68.173437
 30
0.0
 10
38.981356
 20
-68.486044
 30
0.0
  0
SPLINE
  5
125
100
AcDbEntity
  8
0
 62
7
100
AcDbSpline
 70
8
 71
3
 72
8
 73
4
 74
0
 40
0
 40
0
 40
0
 40
0
 40
1
 40
1
 40
1
 40
1
 10
38.981356
 20
-68.486044
 30
0.0
 10
38.439904
 20
-68.798651
 30
0.0
 10
38.106356
 20
-69.376374
 30
0.0
 10
38.106356
 20
-70.001589
 30
0.0
  0
SPLINE
  5
126
100
AcDbEntity
  8
0
 62
7
100
AcDbSpline
 70
8
 71
3
 72
8
 73
4
 74
0
 40
0
 40
0
 40
0
 40
0
 40
1
 40
1
 40
1
 40
1
 10
38.106356
 20
-70.001589
 30
0.0
 10
38.106356
 20
-70.626803
 30
0.0
 10
38.439904
 20
-71.204526
 30
0.0
 10
38.981356
 20
-71.517133
 30
0.0
  0
SPLINE
  5
127
100
AcDbEntity
  8
0
 62
7
100
AcDbSpline
 70
8
 71
3
 72
8
 73
4
 74
0
 40
0
 40
0
 40
0
 40
0
 40
1
 40
1
 40
1
 40
1
 10
38.981356
 20
-71.517133
 30
0.0
 10
39.522808
 20
-71.829740
 30
0.0
 10
40.189904
 20
-71.829740
 30
0.0
 10
40.731356
 20
-71.517133
 30
0.0
  0
SPLINE
  5
128
100
AcDbEntity
  8
0
 62
7
100
AcDbSpline
 70
8
 71
3
 72
8
 73
4
 74
0
 40
0
 40
0
 40
0
 40
0
 40
1
 40
1
 40
1
 40
1
 10
40.731356
 20
-71.517133
 30
0.0
 10
41.272808
 20
-71.204526
 30
0.0
 10
41.606356
 20
-70.626803
 30
0.0
 10
41.606356
 20
-70.001589
 30
0.0
  0
LWPOLYLINE
  5
129
100
AcDbEntity
  8
0
 62
7
100
AcDbPolyline
 90
2
 70
0
 10
17.500000
 20
-76.500001
 30
0.0
 10
40.000000
 20
-76.500001
 30
0.0
  0
SPLINE
  5
12a
100
AcDbEntity
  8
0
 62
7
100
AcDbSpline
 70
8
 71
3
 72
8
 73
4
 74
0
 40
0
 40
0
 40
0
 40
0
 40
1
 40
1
 40
1
 40
1
 10
41.250000
 20
-110.000001
 30
0.0
 10
41.250000
 20
-109.374786
 30
0.0
 10
40.916452
 20
-108.797064
 30
0.0
 10
40.375000
 20
-108.484457
 30
0.0
  0
SPLINE
  5
12b
100
AcDbEntity
  8
0
 62
7
100
AcDbSpline
 70
8
 71
3
 72
8
 73
4
 74
0
 40
0
 40
0
 40
0
 40
0
 40
1
 40
1
 40
1
 40
1
 10
40.375000
 20
-108.484457
 30
0.0
 10
39.833548
 20
-108.171849
 30
0.0
 10
39.166452
 20
-108.171849
 30
0.0
 10
38.625000
 20
-108.484457
 30
0.0
  0
SPLINE
  5
12c
100
AcDbEntity
  8
0
 62
7
100
AcDbSpline
 70
8
 71
3
 72
8
 73
4
 74
0
 40
0
 40
0
 40
0
 40
0
 40
1
 40
1
 40
1
 40
1
 10
38.625000
 20
-108.484457
 30
0.0
 10
38.083548
 20
-108.797064
 30
0.0
 10
37.750000
 20
-109.374786
 30
0.0
 10
37.750000
 20
-110.000001
 30
0.0
  0
SPLINE
  5
12d
100
AcDbEntity
  8
0
 62
7
100
AcDbSpline
 70
8
 71
3
 72
8
 73
4
 74
0
 40
0
 40
0
 40
0
 40
0
 40
1
 40
1
 40
1
 40
1
 10
37.750000
 20
-110.000001
 30
0.0
 10
37.750000
 20
-110.625216
 30
0.0
 10
38.083548
 20
-111.202938
 30
0.0
 10
38.625000
 20
-111.515546
 30
0.0
  0
SPLINE
  5
12e
100
AcDbEntity
  8
0
 62
7
100
AcDbSpline
 70
8
 71
3
 72
8
 73
4
 74
0
 40
0
 40
0
 40
0
 40
0
 40
1
 40
1
 40
1
 40
1
 10
38.625000
 20
-111.515546
 30
0.0
 10
39.166452
 20
-111.828153
 30
0.0
 10
39.833548
 20
-111.828153
 30
0.0
 10
40.375000
 20
-111.515546
 30
0.0
  0
SPLINE
  5
12f
100
AcDbEntity
  8
0
 62
7
100
AcDbSpline
 70
8
 71
3
 72
8
 73
4
 74
0
 40
0
 40
0
 40
0
 40
0
 40
1
 40
1
 40
1
 40
1
 10
40.375000
 20
-111.515546
 30
0.0
 10
40.916452
 20
-111.202938
 30
0.0
 10
41.250000
 20
-110.625216
 30
0.0
 10
41.250000
 20
-110.000001
 30
0.0
  0
LWPOLYLINE
  5
130
100
AcDbEntity
  8
0
 62
7
100
AcDbPolyline
 90
1
 70
1
 10
41.606356
 20
-70.001589
 30
0.0
  0
SPLINE
  5
131
100
AcDbEntity
  8
0
 62
7
100
AcDbSpline
 70
8
 71
3
 72
8
 73
4
 74
0
 40
0
 40
0
 40
0
 40
0
 40
1
 40
1
 40
1
 40
1
 10
49.250000
 20
-156.000002
 30
0.0
 10
49.250000
 20
-155.196154
 30
0.0
 10
48.821153
 20
-154.453368
 30
0.0
 10
48.125000
 20
-154.051444
 30
0.0
  0
SPLINE
  5
132
100
AcDbEntity
  8
0
 62
7
100
AcDbSpline
 70
8
 71
3
 72
8
 73
4
 74
0
 40
0
 40
0
 40
0
 40
0
 40
1
 40
1
 40
1
 40
1
 10
48.125000
 20
-154.051444
 30
0.0
 10
47.428848
 20
-153.649520
 30
0.0
 10
46.571153
 20
-153.649520
 30
0.0
 10
45.875000
 20
-154.051444
 30
0.0
  0
SPLINE
  5
133
100
AcDbEntity
  8
0
 62
7
100
AcDbSpline
 70
8
 71
3
 72
8
 73
4
 74
0
 40
0
 40
0
 40
0
 40
0
 40
1
 40
1
 40
1
 40
1
 10
45.875000
 20
-154.051444
 30
0.0
 10
45.178848
 20
-154.453368
 30
0.0
 10
44.750000
 20
-155.196154
 30
0.0
 10
44.750000
 20
-156.000002
 30
0.0
  0
SPLINE
  5
134
100
AcDbEntity
  8
0
 62
7
100
AcDbSpline
 70
8
 71
3
 72
8
 73
4
 74
0
 40
0
 40
0
 40
0
 40
0
 40
1
 40
1
 40
1
 40
1
 10
44.750000
 20
-156.000002
 30
0.0
 10
44.750000
 20
-156.803849
 30
0.0
 10
45.178848
 20
-157.546635
 30
0.0
 10
45.875000
 20
-157.948559
 30
0.0
  0
SPLINE
  5
135
100
AcDbEntity
  8
0
 62
7
100
AcDbSpline
 70
8
 71
3
 72
8
 73
4
 74
0
 40
0
 40
0
 40
0
 40
0
 40
1
 40
1
 40
1
 40
1
 10
45.875000
 20
-157.948559
 30
0.0
 10
46.571153
 20
-158.350482
 30
0.0
 10
47.428848
 20
-158.350482
 30
0.0
 10
48.125000
 20
-157.948559
 30
0.0
  0
SPLINE
  5
136
100
AcDbEntity
  8
0
 62
7
100
AcDbSpline
 70
8
 71
3
 72
8
 73
4
 74
0
 40
0
 40
0
 40
0
 40
0
 40
1
 40
1
 40
1
 40
1
 10
48.125000
 20
-157.948559
 30
0.0
 10
48.821153
 20
-157.546635
 30
0.0
 10
49.250000
 20
-156.803849
 30
0.0
 10
49.250000
 20
-156.000002
 30
0.0
  0
LWPOLYLINE
  5
137
100
AcDbEntity
  8
0
 62
7
100
AcDbPolyline
 90
1
 70
1
 10
41.250000
 20
-110.000001
 30
0.0
  0
SPLINE
  5
138
100
AcDbEntity
  8
0
 62
7
100
AcDbSpline
 70
8
 71
3
 72
8
 73
4
 74
0
 40
0
 40
0
 40
0
 40
0
 40
1
 40
1
 40
1
 40
1
 10
99.250000
 20
-156.000002
 30
0.0
 10
99.250000
 20
-155.196154
 30
0.0
 10
98.821153
 20
-154.453368
 30
0.0
 10
98.125000
 20
-154.051444
 30
0.0
  0
SPLINE
  5
139
100
AcDbEntity
  8
0
 62
7
100
AcDbSpline
 70
8
 71
3
 72
8
 73
4
 74
0
 40
0
 40
0
 40
0
 40
0
 40
1
 40
1
 40
1
 40
1
 10
98.125000
 20
-154.051444
 30
0.0
 10
97.428848
 20
-153.649521
 30
0.0
 10
96.571153
 20
-153.649521
 30
0.0
 10
95.875000
 20
-154.051444
 30
0.0
  0
SPLINE
  5
13a
100
AcDbEntity
  8
0
 62
7
100
AcDbSpline
 70
8
 71
3
 72
8
 73
4
 74
0
 40
0
 40
0
 40
0
 40
0
 40
1
 40
1
 40
1
 40
1
 10
95.875000
 20
-154.051444
 30
0.0
 10
95.178848
 20
-154.453368
 30
0.0
 10
94.750000
 20
-155.196154
 30
0.0
 10
94.750000
 20
-156.000002
 30
0.0
  0
SPLINE
  5
13b
100
AcDbEntity
  8
0
 62
7
100
AcDbSpline
 70
8
 71
3
 72
8
 73
4
 74
0
 40
0
 40
0
 40
0
 40
0
 40
1
 40
1
 40
1
 40
1
 10
94.750000
 20
-156.000002
 30
0.0
 10
94.750000
 20
-156.803849
 30
0.0
 10
95.178848
 20
-157.546635
 30
0.0
 10
95.875000
 20
-157.948559
 30
0.0
  0
SPLINE
  5
13c
100
AcDbEntity
  8
0
 62
7
100
AcDbSpline
 70
8
 71
3
 72
8
 73
4
 74
0
 40
0
 40
0
 40
0
 40
0
 40
1
 40
1
 40
1
 40
1
 10
95.875000
 20
-157.948559
 30
0.0
 10
96.571153
 20
-158.350482
 30
0.0
 10
97.428848
 20
-158.350482
 30
0.0
 10
98.125000
 20
-157.948559
 30
0.0
  0
SPLINE
  5
13d
100
AcDbEntity
  8
0
 62
7
100
AcDbSpline
 70
8
 71
3
 72
8
 73
4
 74
0
 40
0
 40
0
 40
0
 40
0
 40
1
 40
1
 40
1
 40
1
 10
98.125000
 20
-157.948559
 30
0.0
 10
98.821153
 20
-157.546635
 30
0.0
 10
99.250000
 20
-156.803849
 30
0.0
 10
99.250000
 20
-156.000002
 30
0.0
  0
LWPOLYLINE
  5
13e
100
AcDbEntity
  8
0
 62
7
100
AcDbPolyline
 90
1
 70
1
 10
49.250000
 20
-156.000002
 30
0.0
  0
LWPOLYLINE
  5
13f
100
AcDbEntity
  8
0
 62
7
100
AcDbPolyline
 90
1
 70
1
 10
99.250000
 20
-156.000002
 30
0.0
  0
LWPOLYLINE
  5
140
100
AcDbEntity
  8
0
 62
7
100
AcDbPolyline
 90
5
 70
1
 10
160.000002
 20
-61.000001
 30
0.0
 10
165.000003
 20
-61.000001
 30
0.0
 10
165.000003
 20
-63.000001
 30
0.0
 10
160.000002
 20
-63.000001
 30
0.0
 10
160.000002
 20
-61.000001
 30
0.0
  0
SPLINE
  5
141
100
AcDbEntity
  8
0
 62
7
100
AcDbSpline
 70
8
 71
3
 72
8
 73
4
 74
0
 40
0
 40
0
 40
0
 40
0
 40
1
 40
1
 40
1
 40
1
 10
187.500000
 20
-50.000000
 30
0.0
 10
187.500291
 20
-49.106642
 30
0.0
 10
187.023857
 20
-48.281021
 30
0.0
 10
186.250235
 20
-47.834259
 30
0.0
  0
SPLINE
  5
142
100
AcDbEntity
  8
0
 62
7
100
AcDbSpline
 70
8
 71
3
 72
8
 73
4
 74
0
 40
0
 40
0
 40
0
 40
0
 40
1
 40
1
 40
1
 40
1
 10
186.250235
 20
-47.834259
 30
0.0
 10
185.476613
 20
-47.387496
 30
0.0
 10
184.523387
 20
-47.387496
 30
0.0
 10
183.749765
 20
-47.834259
 30
0.0
  0
SPLINE
  5
143
100
AcDbEntity
  8
0
 62
7
100
AcDbSpline
 70
8
 71
3
 72
8
 73
4
 74
0
 40
0
 40
0
 40
0
 40
0
 40
1
 40
1
 40
1
 40
1
 10
183.749765
 20
-47.834259
 30
0.0
 10
182.976143
 20
-48.281021
 30
0.0
 10
182.499709
 20
-49.106642
 30
0.0
 10
182.500000
 20
-50.000000
 30
0.0
  0
SPLINE
  5
144
100
AcDbEntity
  8
0
 62
7
100
AcDbSpline
 70
8
 71
3
 72
8
 73
4
 74
0
 40
0
 40
0
 40
0
 40
0
 40
1
 40
1
 40
1
 40
1
 10
182.500000
 20
-50.000000
 30
0.0
 10
182.499709
 20
-50.893358
 30
0.0
 10
182.976143
 20
-51.718979
 30
0.0
 10
183.749765
 20
-52.165741
 30
0.0
  0
SPLINE
  5
145
100
AcDbEntity
  8
0
 62
7
100
AcDbSpline
 70
8
 71
3
 72
8
 73
4
 74
0
 40
0
 40
0
 40
0
 40
0
 40
1
 40
1
 40
1
 40
1
 10
183.749765
 20
-52.165741
 30
0.0
 10
184.523387
 20
-52.612504
 30
0.0
 10
185.476613
 20
-52.612504
 30
0.0
 10
186.250235
 20
-52.165741
 30
0.0
  0
SPLINE
  5
146
100
AcDbEntity
  8
0
 62
7
100
AcDbSpline
 70
8
 71
3
 72
8
 73
4
 74
0
 40
0
 40
0
 40
0
 40
0
 40
1
 40
1
 40
1
 40
1
 10
186.250235
 20
-52.165741
 30
0.0
 10
187.023857
 20
-51.718979
 30
0.0
 10
187.500291
 20
-50.893358
 30
0.0
 10
187.500000
 20
-50.000000
 30
0.0
  0
LWPOLYLINE
  5
147
100
AcDbEntity
  8
0
 62
7
100
AcDbPolyline
 90
5
 70
1
 10
160.000002
 20
-73.000001
 30
0.0
 10
165.000003
 20
-73.000001
 30
0.0
 10
165.000003
 20
-75.000001
 30
0.0
 10
160.000002
 20
-75.000001
 30
0.0
 10
160.000002
 20
-73.000001
 30
0.0
  0
LWPOLYLINE
  5
148
100
AcDbEntity
  8
0
 62
7
100
AcDbPolyline
 90
1
 70
1
 10
187.500000
 20
-50.000000
 30
0.0
  0
LWPOLYLINE
  5
149
100
AcDbEntity
  8
0
 62
7
100
AcDbPolyline
 90
2
 70
0
 10
195.000000
 20
-60.000000
 30
0.0
 10
195.000000
 20
-40.000000
 30
0.0
  0
LWPOLYLINE
  5
14a
100
AcDbEntity
  8
0
 62
7
100
AcDbPolyline
 90
2
 70
0
 10
194.999999
 20
-59.999990
 30
0.0
 10
134.974920
 20
-159.062953
 30
0.0
  0
ENDSEC
  0
SECTION
  2
OBJECTS
  0
DICTIONARY
  5
C
330
0
100
AcDbDictionary
  3
ACAD_GROUP
350
D
  3
ACAD_MLINESTYLE
350
17
  0
DICTIONARY
  5
D
330
C
100
AcDbDictionary
  0
DICTIONARY
  5
1A
330
C
100
AcDbDictionary
  0
DICTIONARY
  5
17
330
C
100
AcDbDictionary
  3
STANDARD
350
18
  0
DICTIONARY
  5
19
330
C
100
AcDbDictionary
  0
ENDSEC
  0
EOF
