0
SECTION
2
HEADER
9
$INSUNITS
70
4
9
$ACADVER
1
AC1014
9
$HANDSEED
5
FFFF
0
ENDSEC
0
SECTION
2
TABLES
0
TABLE
2
VPORT
5
8
100
AcDbSymbolTable
0
ENDTAB
0
TABLE
2
LTYPE
5
5
100
AcDbSymbolTable
0
LTYPE
5
14
100
AcDbSymbolTableRecord
100
AcDbLinetypeTableRecord
2
BYBLOCK
70
0
0
LTYPE
5
15
100
AcDbSymbolTableRecord
100
AcDbLinetypeTableRecord
2
BYLAYER
70
0
0
ENDTAB
0
TABLE
2
LAYER
5
2
100
AcDbSymbolTable
70
2
0
LAYER
5
50
100
AcDbSymbolTableRecord
100
AcDbLayerTableRecord
2
0
70
0
6
CONTINUOUS
0
ENDTAB
0
TABLE
2
STYLE
5
3
100
AcDbSymbolTable
70
1
0
STYLE
5
11
100
AcDbSymbolTableRecord
100
AcDbTextStyleTableRecord
2
STANDARD
70
0
0
ENDTAB
0
TABLE
2
VIEW
5
6
100
AcDbSymbolTable
70
0
0
ENDTAB
0
TABLE
2
UCS
5
7
100
AcDbSymbolTable
70
0
0
ENDTAB
0
TABLE
2
APPID
5
9
100
AcDbSymbolTable
70
2
0
APPID
5
12
100
AcDbSymbolTableRecord
100
AcDbRegAppTableRecord
2
ACAD
70
0
0
ENDTAB
0
TABLE
2
DIMSTYLE
5
A
100
AcDbSymbolTable
70
1
0
ENDTAB
0
TABLE
2
BLOCK_RECORD
5
1
100
AcDbSymbolTable
70
1
0
BLOCK_RECORD
5
1F
100
AcDbSymbolTableRecord
100
AcDbBlockTableRecord
2
*MODEL_SPACE
0
BLOCK_RECORD
5
1B
100
AcDbSymbolTableRecord
100
AcDbBlockTableRecord
2
*PAPER_SPACE
0
ENDTAB
0
ENDSEC
0
SECTION
2
BLOCKS
0
BLOCK
5
20
100
AcDbEntity
100
AcDbBlockBegin
2
*MODEL_SPACE
0
ENDBLK
5
21
100
AcDbEntity
100
AcDbBlockEnd
0
BLOCK
5
1C
100
AcDbEntity
100
AcDbBlockBegin
2
*PAPER_SPACE
0
ENDBLK
5
1D
100
AcDbEntity
100
AcDbBlockEnd
0
ENDSEC
0
SECTION
2
ENTITIES
0
LWPOLYLINE
5
100
100
AcDbEntity
8
0
100
AcDbPolyline
90
24
70
1
43
0.0
10
124.94268649507671
20
-158.4222441211765
42
-0.41421356237309398
10
119.94268649507673
20
-163.4222441211765
10
110.97573557162407
20
-163.4222441211765
42
-0.41421356237309398
10
105.97573557162407
20
-158.4222441211765
10
105.97573557162407
20
-153.40307407409955
42
0.41421356237309503
10
100.97573557162407
20
-148.40307407409952
10
72.616519938507892
20
-148.40307407409955
10
72.616519938507892
20
-188.38536726772764
10
100.97573557162407
20
-188.38536726772764
42
0.41421356237309503
10
105.97573557162407
20
-183.38536726772764
10
105.97573557162409
20
-179.42738751934633
42
-0.41421356237309398
10
110.97573557162407
20
-174.42738751934633
10
119.94268649507673
20
-174.42738751934633
42
-0.41421356237309398
10
124.94268649507673
20
-179.42738751934633
10
124.94268649507673
20
-183.38536726772764
42
0.41421356237309398
10
129.94268649507671
20
-188.38536726772764
10
182.70545559425489
20
-188.38536726772764
42
0.26794919243112297
10
187.0355826131771
20
-185.88536726772764
10
195.69072513630883
20
-170.89422067091363
42
0.26794919243112325
10
195.69072513630886
20
-165.89422067091365
10
187.0355826131771
20
-150.90307407409955
42
0.26794919243112114
10
182.70545559425494
20
-148.40307407409952
10
129.94268649507671
20
-148.40307407409952
42
0.41421356237309503
10
124.94268649507673
20
-153.40307407409952
0
CIRCLE
5
101
100
AcDbEntity
8
0
100
AcDbCircle
10
212.00000315904617
20
-332.00000004470348
30
0
40
1.4999999999999858
210
0
220
-0
230
1
0
CIRCLE
5
102
100
AcDbEntity
8
0
100
AcDbCircle
10
-40.999996587634087
20
-3.0000000447034814
30
0
40
1.4999999999999991
210
0
220
-0
230
1
0
CIRCLE
5
103
100
AcDbEntity
8
0
100
AcDbCircle
10
229.00000341236591
20
-3.0000000447034814
30
0
40
1.4999999999999858
210
0
220
-0
230
1
0
CIRCLE
5
104
100
AcDbEntity
8
0
100
AcDbCircle
10
-57.999996840953827
20
-332.00000004470348
30
0
40
1.4999999999999858
210
0
220
-0
230
1
0
CIRCLE
5
105
100
AcDbEntity
8
0
100
AcDbCircle
10
229.00000341236591
20
-332.00000004470348
30
0
40
1.4999999999999858
210
0
220
-0
230
1
0
CIRCLE
5
106
100
AcDbEntity
8
0
100
AcDbCircle
10
-57.999996840953827
20
-3.0000000447034814
30
0
40
1.5000000000000036
210
0
220
-0
230
1
0
CIRCLE
5
107
100
AcDbEntity
8
0
100
AcDbCircle
10
212.00000315904617
20
-3.0000000447034814
30
0
40
1.4999999999999858
210
0
220
-0
230
1
0
CIRCLE
5
108
100
AcDbEntity
8
0
100
AcDbCircle
10
-40.999996587634087
20
-332.00000004470348
30
0
40
1.4999999999999991
210
0
220
-0
230
1
0
LWPOLYLINE
5
109
100
AcDbEntity
8
0
100
AcDbPolyline
90
34
70
1
43
0.0
10
190.59220694020303
20
-86.627125580641149
10
190.59220694020303
20
-105.7235821497882
42
0.13165249758739547
10
191.26207992128082
20
-108.2235821497882
10
218.7847359038939
20
-155.89422067091357
42
-0.26794919243112264
10
218.7847359038939
20
-180.8942206709136
10
191.26207992128087
20
-228.56485919203891
42
0.13165249758739553
10
190.59220694020303
20
-231.06485919203891
10
190.592206940203
20
-247.45991766872322
42
0.29675226490419049
10
208.44442219204166
20
-274.89039935812008
10
236.09220694020348
20
-287.13441831802021
10
236.09220694020348
20
-337.13441831802021
10
203.09220694020348
20
-337.13441831802021
10
159.59141895584168
20
-279.00907970653532
42
0.23633909498713465
10
135.57294269687679
20
-266.98441831802023
10
37.441611223436922
20
-266.98441831802023
42
0.2339448876894771
10
13.587248859869355
20
-278.79185400653262
10
-30.907793059796486
20
-337.13441831802021
10
-63.907793059796504
20
-337.13441831802021
10
-63.907793059796489
20
-287.13441831802021
10
-35.479569930767823
20
-274.81552162877438
42
0.29892702629234152
10
-17.407793059796944
20
-247.28885286947667
10
-17.40779305979693
20
-86.797059318395299
42
0.3004103625696618
10
-35.629612932532936
20
-59.205856501379117
10
-63.907793059796525
20
-47.134418318020231
10
-63.907793059796504
20
2.8655816819797697
10
-30.907793059796525
20
2.8655816819797675
10
13.586321863867322
20
-55.226267428636021
42
0.23339973649668644
10
37.40301645034441
20
-66.984418318020232
10
135.61151416313797
20
-66.984418318020232
42
0.23579614835900012
10
159.59296173097368
20
-55.009128372585536
10
203.09220694020351
20
2.8655816819797737
10
236.09220694020348
20
2.8655816819797675
10
236.09220694020348
20
-47.134418327616395
10
208.59618088525906
20
-59.129937380952349
42
0.29825597202708443
0
LWPOLYLINE
5
110
100
AcDbEntity
8
0
100
AcDbPolyline
90
4
70
1
43
0.0
10
210
20
-162
10
215
20
-162
10
215
20
-160
10
210
20
-160
0
LWPOLYLINE
5
111
100
AcDbEntity
8
0
100
AcDbPolyline
90
4
70
1
43
0.0
10
201
20
-179
10
201
20
-177
10
196
20
-177
10
196
20
-179
0
LWPOLYLINE
5
112
100
AcDbEntity
8
0
100
AcDbPolyline
90
4
70
1
43
0.0
10
196
20
-162
10
201
20
-162
10
201
20
-160
10
196
20
-160
0
LWPOLYLINE
5
113
100
AcDbEntity
8
0
100
AcDbPolyline
90
4
70
1
43
0.0
10
215
20
-177
10
210
20
-177
10
210
20
-179
10
215
20
-179
0
CIRCLE
5
114
100
AcDbEntity
8
0
100
AcDbCircle
10
12.592206940203042
20
-247.28441831802024
30
0
40
1.4999999999999858
210
0
220
-0
230
1
0
CIRCLE
5
115
100
AcDbEntity
8
0
100
AcDbCircle
10
12.592206940203006
20
-86.984418318020232
30
0
40
1.4999999999999858
210
0
220
-0
230
1
0
CIRCLE
5
116
100
AcDbEntity
8
0
100
AcDbCircle
10
-7.4077930597969939
20
-86.984418318020232
30
0
40
1.4999999999999858
210
-0
220
0
230
1
0
CIRCLE
5
117
100
AcDbEntity
8
0
100
AcDbCircle
10
-7.4077930597969583
20
-247.28441831802024
30
0
40
1.4999999999999858
210
-0
220
0
230
1
0
CIRCLE
5
118
100
AcDbEntity
8
0
100
AcDbCircle
10
12.592206940203006
20
-227.28441831802024
30
0
40
1.4999999999999858
210
0
220
-0
230
1
0
CIRCLE
5
119
100
AcDbEntity
8
0
100
AcDbCircle
10
12.592206940203042
20
-106.98441831802023
30
0
40
1.4999999999999858
210
0
220
-0
230
1
0
CIRCLE
5
120
100
AcDbEntity
8
0
100
AcDbCircle
10
-7.4077930597969583
20
-106.98441831802023
30
0
40
1.4999999999999858
210
-0
220
0
230
1
0
CIRCLE
5
121
100
AcDbEntity
8
0
100
AcDbCircle
10
-7.4077930597969939
20
-227.28441831802024
30
0
40
1.4999999999999858
210
-0
220
0
230
1
0
CIRCLE
5
122
100
AcDbEntity
8
0
100
AcDbCircle
10
160.59220694020303
20
-106.98441831802022
30
0
40
1.4999999999999858
210
-0
220
0
230
1
0
CIRCLE
5
123
100
AcDbEntity
8
0
100
AcDbCircle
10
-7.4077930597969939
20
-157.13441831802021
30
0
40
1.5000000000000002
210
-6.2001721761666009e-63
220
9.8607613152626476e-32
230
1
0
CIRCLE
5
124
100
AcDbEntity
8
0
100
AcDbCircle
10
12.592206940203006
20
-157.13441831802021
30
0
40
1.5000000000000013
210
0
220
-0
230
1
0
CIRCLE
5
125
100
AcDbEntity
8
0
100
AcDbCircle
10
160.592206940203
20
-86.984418318020218
30
0
40
1.4999999999999858
210
-0
220
0
230
1
0
CIRCLE
5
126
100
AcDbEntity
8
0
100
AcDbCircle
10
115.4592110333504
20
-188.38536726772764
30
0
40
1.6000000000000014
210
-7.8886090522101181e-31
220
-8.7315593132787015e-61
230
1
0
CIRCLE
5
127
100
AcDbEntity
8
0
100
AcDbCircle
10
180.592206940203
20
-86.984418318020218
30
0
40
1.4999999999999858
210
0
220
-0
230
1
0
CIRCLE
5
128
100
AcDbEntity
8
0
100
AcDbCircle
10
-7.4077930597969583
20
-177.13441831802021
30
0
40
1.5000000000000002
210
-6.2001721761666009e-63
220
9.8607613152626476e-32
230
1
0
CIRCLE
5
129
100
AcDbEntity
8
0
100
AcDbCircle
10
12.592206940203042
20
-177.13441831802021
30
0
40
1.5000000000000013
210
0
220
-0
230
1
0
CIRCLE
5
130
100
AcDbEntity
8
0
100
AcDbCircle
10
180.59220694020303
20
-106.98441831802022
30
0
40
1.4999999999999858
210
0
220
-0
230
1
0
CIRCLE
5
131
100
AcDbEntity
8
0
100
AcDbCircle
10
115.4592110333504
20
-148.40307407409955
30
0
40
1.6000000000000014
210
-7.8886090522101181e-31
220
-8.7315593132787015e-61
230
1
0
CIRCLE
5
132
100
AcDbEntity
8
0
100
AcDbCircle
10
160.59220694020303
20
-247.28441831802024
30
0
40
1.4999999999999858
210
0
220
-0
230
1
0
CIRCLE
5
133
100
AcDbEntity
8
0
100
AcDbCircle
10
160.592206940203
20
-227.28441831802024
30
0
40
1.4999999999999858
210
0
220
-0
230
1
0
CIRCLE
5
134
100
AcDbEntity
8
0
100
AcDbCircle
10
180.59220694020303
20
-247.28441831802024
30
0
40
1.4999999999999858
210
0
220
-0
230
1
0
CIRCLE
5
135
100
AcDbEntity
8
0
100
AcDbCircle
10
180.592206940203
20
-227.28441831802024
30
0
40
1.4999999999999858
210
0
220
-0
230
1
0
CIRCLE
5
136
100
AcDbEntity
8
0
100
AcDbCircle
10
-33.907793059796504
20
-287.13441831802021
30
0
40
2.0500000000000007
210
0
220
-0
230
1
0
CIRCLE
5
137
100
AcDbEntity
8
0
100
AcDbCircle
10
-33.907793059796504
20
-47.134418318020231
30
0
40
2.0500000000000007
210
-0
220
0
230
1
0
CIRCLE
5
138
100
AcDbEntity
8
0
100
AcDbCircle
10
206.09220694020351
20
-287.13441831802021
30
0
40
2.0499999999999829
210
-3.3659834016822205e-62
220
9.8607613152626476e-32
230
1
0
CIRCLE
5
139
100
AcDbEntity
8
0
100
AcDbCircle
10
206.09220694020351
20
-47.134418318020231
30
0
40
2.0499999999999829
210
3.951043479054544e-65
220
9.8607613152626476e-32
230
1
0
ENDSEC
0
SECTION
2
OBJECTS
0
DICTIONARY
5
C
100
AcDbDictionary
3
ACAD_GROUP
350
D
3
ACAD_MLINESTYLE
350
17
0
DICTIONARY
5
D
100
AcDbDictionary
0
DICTIONARY
5
1A
330
C
100
AcDbDictionary
0
DICTIONARY
5
17
100
AcDbDictionary
0
ENDSEC
0
EOF
