0
SECTION
2
HEADER
9
$INSUNITS
70
4
9
$ACADVER
1
AC1014
9
$HANDSEED
5
FFFF
0
ENDSEC
0
SECTION
2
TABLES
0
TABLE
2
VPORT
5
8
100
AcDbSymbolTable
0
ENDTAB
0
TABLE
2
LTYPE
5
5
100
AcDbSymbolTable
0
LTYPE
5
14
100
AcDbSymbolTableRecord
100
AcDbLinetypeTableRecord
2
BYBLOCK
70
0
0
LTYPE
5
15
100
AcDbSymbolTableRecord
100
AcDbLinetypeTableRecord
2
BYLAYER
70
0
0
ENDTAB
0
TABLE
2
LAYER
5
2
100
AcDbSymbolTable
70
2
0
LAYER
5
50
100
AcDbSymbolTableRecord
100
AcDbLayerTableRecord
2
0
70
0
6
CONTINUOUS
0
ENDTAB
0
TABLE
2
STYLE
5
3
100
AcDbSymbolTable
70
1
0
STYLE
5
11
100
AcDbSymbolTableRecord
100
AcDbTextStyleTableRecord
2
STANDARD
70
0
0
ENDTAB
0
TABLE
2
VIEW
5
6
100
AcDbSymbolTable
70
0
0
ENDTAB
0
TABLE
2
UCS
5
7
100
AcDbSymbolTable
70
0
0
ENDTAB
0
TABLE
2
APPID
5
9
100
AcDbSymbolTable
70
2
0
APPID
5
12
100
AcDbSymbolTableRecord
100
AcDbRegAppTableRecord
2
ACAD
70
0
0
ENDTAB
0
TABLE
2
DIMSTYLE
5
A
100
AcDbSymbolTable
70
1
0
ENDTAB
0
TABLE
2
BLOCK_RECORD
5
1
100
AcDbSymbolTable
70
1
0
BLOCK_RECORD
5
1F
100
AcDbSymbolTableRecord
100
AcDbBlockTableRecord
2
*MODEL_SPACE
0
BLOCK_RECORD
5
1B
100
AcDbSymbolTableRecord
100
AcDbBlockTableRecord
2
*PAPER_SPACE
0
ENDTAB
0
ENDSEC
0
SECTION
2
BLOCKS
0
BLOCK
5
20
100
AcDbEntity
100
AcDbBlockBegin
2
*MODEL_SPACE
0
ENDBLK
5
21
100
AcDbEntity
100
AcDbBlockEnd
0
BLOCK
5
1C
100
AcDbEntity
100
AcDbBlockBegin
2
*PAPER_SPACE
0
ENDBLK
5
1D
100
AcDbEntity
100
AcDbBlockEnd
0
ENDSEC
0
SECTION
2
ENTITIES
0
CIRCLE
5
100
100
AcDbEntity
8
0
100
AcDbCircle
10
0
20
0
30
0
40
2.5
0
CIRCLE
5
101
100
AcDbEntity
8
0
100
AcDbCircle
10
0
20
200
30
0
40
2.5000000000000098
0
CIRCLE
5
102
100
AcDbEntity
8
0
100
AcDbCircle
10
-175
20
0
30
0
40
2.4999999999999867
0
CIRCLE
5
103
100
AcDbEntity
8
0
100
AcDbCircle
10
-97.5
20
0
30
0
40
2.5
0
CIRCLE
5
104
100
AcDbEntity
8
0
100
AcDbCircle
10
-20
20
0
30
0
40
2.5000000000000004
0
CIRCLE
5
105
100
AcDbEntity
8
0
100
AcDbCircle
10
0
20
102.5
30
0
40
2.5
0
LINE
5
106
100
AcDbEntity
8
0
100
AcDbLine
10
0
20
-10
30
0
11
-175
21
-9.9999999999999964
31
0
0
LINE
5
107
100
AcDbEntity
8
0
100
AcDbLine
10
10
20
0
30
0
11
10
21
200
31
0
0
CIRCLE
5
108
100
AcDbEntity
8
0
100
AcDbCircle
10
-50
20
35
30
0
40
1.5000000000000036
0
CIRCLE
5
109
100
AcDbEntity
8
0
100
AcDbCircle
10
-50
20
96.000000000000014
30
0
40
1.4999999999999989
0
CIRCLE
5
110
100
AcDbEntity
8
0
100
AcDbCircle
10
-145
20
96.000000000000014
30
0
40
1.5000000000000036
0
CIRCLE
5
111
100
AcDbEntity
8
0
100
AcDbCircle
10
-145
20
35
30
0
40
1.4999999999999942
0
LWPOLYLINE
5
112
100
AcDbEntity
8
0
100
AcDbPolyline
90
8
70
1
43
0.0
10
-28
20
40
10
-42
20
40
42
-0.41421356237310025
10
-45
20
43
10
-45
20
92.858517386071227
42
-0.41421356237309076
10
-42
20
95.858517386071256
10
-28
20
95.858517386071256
42
-0.41421356237309076
10
-25
20
92.858517386071242
10
-25.000000000000004
20
43.000000000000007
42
-0.41421356237309892
0
LWPOLYLINE
5
113
100
AcDbEntity
8
0
100
AcDbPolyline
90
8
70
1
43
0.0
10
-70.847886223632287
20
95
10
-140.84788622363223
20
95
42
0.41421356237308815
10
-143.84788622363226
20
92
10
-143.84788622363226
20
63
42
0.41421356237309076
10
-140.84788622363223
20
60
10
-70.84788622363223
20
60
42
0.41421356237309503
10
-67.847886223632258
20
62.999999999999972
10
-67.847886223632258
20
91.999999999999972
42
0.41421356237309503
0
CIRCLE
5
114
100
AcDbEntity
8
0
100
AcDbCircle
10
-157.00000229477882
20
35.000000521540642
30
0
40
1.4999999999999971
0
CIRCLE
5
115
100
AcDbEntity
8
0
100
AcDbCircle
10
-181.00000229477882
20
59.000000521540642
30
0
40
1.4999999999999907
0
LWPOLYLINE
5
116
100
AcDbEntity
8
0
100
AcDbPolyline
90
8
70
1
43
0.0
10
-87
20
101.00902626723339
10
-53
20
101.00902626723339
42
0.41421356237309076
10
-50
20
104.00902626723339
10
-50
20
108.00902626723339
42
0.41421356237309076
10
-53
20
111.00902626723339
10
-87
20
111.00902626723339
42
0.41421356237308815
10
-90
20
108.00902626723339
10
-90
20
104.00902626723339
42
0.41421356237308815
0
CIRCLE
5
117
100
AcDbEntity
8
0
100
AcDbCircle
10
-130.00000193715096
20
115
30
0
40
1.5000000000000036
0
CIRCLE
5
118
100
AcDbEntity
8
0
100
AcDbCircle
10
-115.00000171363354
20
115
30
0
40
1.5000000000000036
0
LINE
5
119
100
AcDbEntity
8
0
100
AcDbLine
10
-185
20
76.000000000000014
30
0
11
-185
21
4.3893416733307294e-15
31
0
0
LINE
5
120
100
AcDbEntity
8
0
100
AcDbLine
10
-5.7814669693991956
20
208.15932838423271
30
0
11
-180.78146696939916
21
84.159328384232737
31
0
0
ARC
5
121
100
AcDbEntity
8
0
100
AcDbCircle
10
0
20
200
30
0
40
10
100
AcDbArc
50
90
51
125.32029647372225
0
ARC
5
122
100
AcDbEntity
8
0
100
AcDbCircle
10
0
20
0
30
0
40
10
100
AcDbArc
50
-90
51
0
0
ARC
5
123
100
AcDbEntity
8
0
100
AcDbCircle
10
-175
20
0
30
0
40
10
100
AcDbArc
50
180
51
270
0
ARC
5
124
100
AcDbEntity
8
0
100
AcDbCircle
10
-175
20
76
30
0
40
9.9999999999999805
100
AcDbArc
50
125.320296473722
51
180
0
CIRCLE
5
125
100
AcDbEntity
8
0
100
AcDbCircle
10
100
20
102.5
30
0
40
2.5
0
CIRCLE
5
126
100
AcDbEntity
8
0
100
AcDbCircle
10
100
20
200
30
0
40
2.5000000000000098
0
LWPOLYLINE
5
127
100
AcDbEntity
8
0
100
AcDbPolyline
90
13
70
1
43
0.0
10
100
20
210.00000000000003
42
-0.16000826989616643
10
105.9289836243903
20
208.05277301193274
10
280.93355927158535
20
84.049402112615809
42
-0.23825426871158653
10
285
20
76.000000000000014
10
285
20
5.0532154980743011e-15
42
-0.41421356237309515
10
275
20
-9.9999999999999964
10
100
20
-10
10
76.5
20
-10
42
-0.41421356237309503
10
66.5
20
0
10
66.500000000000028
20
149.99999999999997
42
-0.11028410023674337
10
67.449762982501682
20
154.25361139822417
10
90
20
202.23283909502922
10
90
20
210
0
CIRCLE
5
128
100
AcDbEntity
8
0
100
AcDbCircle
10
100
20
0
30
0
40
2.5
0
CIRCLE
5
129
100
AcDbEntity
8
0
100
AcDbCircle
10
275
20
0
30
0
40
2.4999999999999867
0
CIRCLE
5
130
100
AcDbEntity
8
0
100
AcDbCircle
10
120
20
0
30
0
40
2.5000000000000004
0
CIRCLE
5
131
100
AcDbEntity
8
0
100
AcDbCircle
10
197.5
20
0
30
0
40
2.5
0
CIRCLE
5
132
100
AcDbEntity
8
0
100
AcDbCircle
10
76.5
20
-4.4726127563470591e-16
30
0
40
1.9999999999999998
0
CIRCLE
5
133
100
AcDbEntity
8
0
100
AcDbCircle
10
76.5
20
149.99999999999997
30
0
40
1.9999999999999987
0
LINE
5
134
100
AcDbEntity
8
0
100
AcDbLine
10
76.5
20
148
30
0
11
76.5
21
149.99999999999997
31
0
0
LINE
5
135
100
AcDbEntity
8
0
100
AcDbLine
10
100
20
0
30
0
11
97.5
21
-4.758098676964957e-17
31
0
0
CIRCLE
5
136
100
AcDbEntity
8
0
100
AcDbCircle
10
-181.00000229477885
20
35.000000521540642
30
0
40
1.499999999999996
0
CIRCLE
5
137
100
AcDbEntity
8
0
100
AcDbCircle
10
-157.00000229477882
20
59.000000521540642
30
0
40
1.4999999999999982
0
LINE
5
138
100
AcDbEntity
8
0
100
AcDbLine
10
10
20
200
30
0
11
10
21
210
31
0
0
LINE
5
139
100
AcDbEntity
8
0
100
AcDbLine
10
10
20
210
30
0
11
0
21
210
31
0
0
ENDSEC
0
SECTION
2
OBJECTS
0
DICTIONARY
5
C
100
AcDbDictionary
3
ACAD_GROUP
350
D
3
ACAD_MLINESTYLE
350
17
0
DICTIONARY
5
D
100
AcDbDictionary
0
DICTIONARY
5
1A
330
C
100
AcDbDictionary
0
DICTIONARY
5
17
100
AcDbDictionary
0
ENDSEC
0
EOF
