<?xml version="1.0" encoding="UTF-8" standalone="no"?>
<!-- Created with Inkscape (http://www.inkscape.org/) -->

<svg
   xmlns:dc="http://purl.org/dc/elements/1.1/"
   xmlns:cc="http://creativecommons.org/ns#"
   xmlns:rdf="http://www.w3.org/1999/02/22-rdf-syntax-ns#"
   xmlns:svg="http://www.w3.org/2000/svg"
   xmlns="http://www.w3.org/2000/svg"
   xmlns:sodipodi="http://sodipodi.sourceforge.net/DTD/sodipodi-0.dtd"
   xmlns:inkscape="http://www.inkscape.org/namespaces/inkscape"
   width="210mm"
   height="297mm"
   viewBox="0 0 210 297"
   version="1.1"
   id="svg8"
   inkscape:version="0.92.4 (5da689c313, 2019-01-14)"
   sodipodi:docname="octoearsaver.svg">
  <defs
     id="defs2" />
  <sodipodi:namedview
     id="base"
     pagecolor="#ffffff"
     bordercolor="#666666"
     borderopacity="1.0"
     inkscape:pageopacity="0.0"
     inkscape:pageshadow="2"
     inkscape:zoom="0.98994949"
     inkscape:cx="401.0413"
     inkscape:cy="1635.7402"
     inkscape:document-units="mm"
     inkscape:current-layer="layer1"
     showgrid="false"
     inkscape:window-width="2148"
     inkscape:window-height="2071"
     inkscape:window-x="1682"
     inkscape:window-y="0"
     inkscape:window-maximized="0" />
  <metadata
     id="metadata5">
    <rdf:RDF>
      <cc:Work
         rdf:about="">
        <dc:format>image/svg+xml</dc:format>
        <dc:type
           rdf:resource="http://purl.org/dc/dcmitype/StillImage" />
        <dc:title></dc:title>
      </cc:Work>
    </rdf:RDF>
  </metadata>
  <g
     inkscape:label="Layer 1"
     inkscape:groupmode="layer"
     id="layer1">
    <path
       style="fill:none;fill-opacity:1;stroke:#000000;stroke-width:0.24137536;stroke-opacity:1"
       d="m -31.42503,-146.04232 c 3.412455,7.44508 22.602082,1.68686 14.2486,-3.486 -11.206026,9.11862 -6.32648,-15.99787 3.839059,-6.56909 12.76648961,6.63733 2.99105,23.12286 -8.545859,24.23783 -7.44918,0.86453 -17.197608,-2.3678 -11.171008,9.08233 4.048025,6.89326 15.062645,12.399 21.973648,7.25054 3.8653838,-7.67092 -12.965081,-0.83254 -5.19588,-9.51661 9.9106534,-6.36488 20.9358695,10.30629 14.92308,19.1299 -5.2481565,11.522283 -24.565512,11.772362 -31.018186,1.38817 1.220378,10.488068 9.987776,21.107637 19.623886,26.226318 8.5687695,8.635102 27.778963,-0.03335 14.987675,-9.72994 -10.6316222,3.177201 -1.3098004,-11.904538 5.5233125,-5.182026 8.6773105,4.378491 14.5617485,16.28719 6.0830125,24.211155 -8.5585039,7.250225 -19.1912343,13.442427 -30.903745,11.677781 -12.431284,-0.876459 -21.829685,-11.329859 -28.118435,-21.315752 -2.092877,-5.906496 -4.653844,-13.975883 -6.15181,-3.38249 -4.006608,13.191161 -15.232502,22.108407 -25.919337,29.936691 -12.465001,6.891665 -29.929273,8.319943 -41.559503,-0.911165 -8.0464,-7.617273 -8.78343,-27.313906 5.43277,-27.936032 10.72292,-0.308563 7.99944,11.823173 -1.47616,9.908686 -5.43466,12.949938 19.083335,17.684911 24.491695,6.724551 5.636161,-10.357544 7.262145,-22.115824 8.312087,-33.828963 -0.312713,-5.098304 2.240244,-19.206224 -2.817152,-7.253694 -3.03089,7.721126 -10.407749,15.791292 -19.3628,13.918286 -10.46678,-1.625271 -18.31456,-12.646276 -14.25376,-22.812506 0.6432,-12.20268 23.395565,-3.46788 8.91109,1.20803 -9.25901,12.98813 11.782693,16.566447 15.16862,4.60514 2.600194,-6.20261 7.802159,-24.88055 3.63206,-25.20974 -12.4012,9.64322 -35.75584,1.627 -34.70749,-15.53037 -0.47424,-13.60464 19.89674,-17.60013 24.55283,-4.74502 4.753286,8.24957 -4.91816,10.40936 -6.7058,2.93534 -14.68139,-1.94304 -4.81562,14.43025 4.81553,9.84972 12.625913,-1.36865 15.04019,-15.72251 16.490109,-25.85994 1.14154,-7.4025 1.674922,-17.20609 -6.947541,-8.85446 -11.262538,2.85341 -24.587928,4.03779 -34.065028,-4.25948 -5.77753,-7.22096 -9.77895,-18.90579 -2.55561,-26.47138 6.04767,-8.33897 23.63174,-10.65956 25.87884,2.03133 2.36303,9.693 -7.52837,6.35228 -11.59484,2.60983 -18.91701,6.68556 10.19221,24.91088 16.331095,9.66291 9.535194,-8.46325 8.634012,-21.1743 7.528974,-32.63243 -0.03246,-13.43566 0.111317,-27.34643 -5.700229,-39.7625 -1.371193,-12.54381 -13.05049,-19.61866 -19.4173,-29.50655 -9.34229,-11.08906 -16.1097,-26.04594 -11.69896,-40.65312 1.3054,-7.17784 5.30096,-13.20164 9.26642,-19.07774 5.31299,-6.02042 11.53455,-11.02595 19.574438,-13.14092 8.45624,-2.54151 17.738448,1.23654 25.517485,4.49597 7.928707,6.61811 15.418839,13.75077 19.896607,23.08508 1.691427,17.0373 4.759856,33.82663 8.13975,50.57313 3.719676,10.3838 8.386741,20.87152 7.445411,32.24649 1.046312,12.0205 -0.100016,24.1209 -0.09719,36.25494 1.340519,10.35266 -3.908102,22.94703 3.640062,31.56019 6.376962,14.3737 24.617076,-8.48508 11.530535,-9.33142 -10.124335,11.03708 -8.186849,-12.56287 2.812308,-7.47239 11.3570749,0.68673 16.2210376,15.31428 11.650447,24.44425 -5.997862,10.45906 -19.9234,12.44206 -29.829835,7.03735 -9.410208,-9.99688 -2.450651,12.4097 -0.854595,17.44871 0.982403,4.55097 5.728058,7.15665 8.44662,10.69111 m -3.58221,-2.53791 7.7e-4,-1.5e-4 m -52.42392,-149.80284 c -6.718188,3.31326 -23.7008,-13.34023 -8.784862,-9.27498 10.551206,1.8724 17.118591,-7.69757 20.522862,-15.34428 7.184893,-0.55119 5.578065,21.13346 -3.911824,23.42202 -2.529906,0.71451 -5.19816,1.15713 -7.826176,1.19724 z m -28.70928,-29.74573 c -2.09268,-8.61291 5.61168,-15.17605 11.36697,-19.88334 6.828111,-4.63279 15.417834,-1.02457 22.67977,-0.10918 6.324147,4.52633 7.758027,13.94906 -2.37287,15.11742 -10.083812,0.46573 -17.34019,6.5286 -23.52024,12.81929 -4.7419,-0.29113 -9.16246,-2.30154 -8.15363,-7.94419 z"
       id="path4563"
       inkscape:connector-curvature="0" />
    <path
       style="fill:none;fill-opacity:1;stroke:#000000;stroke-width:0.24137537;stroke-opacity:1"
       d="m 123.76852,-148.58516 c 3.41245,7.44508 22.60208,1.68686 14.2486,-3.486 -11.20603,9.11862 -6.32648,-15.99787 3.83906,-6.56909 12.76649,6.63733 2.99105,23.12286 -8.54586,24.23783 -7.44918,0.86453 -17.19761,-2.3678 -11.17101,9.08233 4.04803,6.89326 15.06265,12.399 21.97365,7.25054 3.86538,-7.67092 -12.96508,-0.83254 -5.19588,-9.51661 9.91065,-6.36488 20.93587,10.30629 14.92308,19.1299 -5.24816,11.52228 -24.56551,11.77236 -31.01819,1.38817 1.22038,10.48806 9.98778,21.10765 19.62389,26.22633 8.56877,8.6351 27.77896,-0.0334 14.98768,-9.72995 -10.63163,3.1772 -1.30981,-11.90453 5.52331,-5.18202 8.67731,4.37848 14.56175,16.28719 6.08301,24.21115 -8.5585,7.25021 -19.19124,13.44242 -30.90375,11.67778 -12.43128,-0.87646 -21.82968,-11.32986 -28.11843,-21.31576 -2.09288,-5.90648 -4.65385,-13.97587 -6.15181,-3.38249 -4.00661,13.19118 -15.232506,22.10843 -25.919336,29.93671 -12.465,6.89165 -29.92928,8.31993 -41.55951,-0.91117 -8.0464,-7.61728 -8.78343,-27.31392 5.43277,-27.93604 10.72293,-0.30855 7.99944,11.82318 -1.47616,9.90868 -5.43466,12.94995 19.08334,17.68493 24.4917,6.72457 5.63616,-10.35757 7.26214,-22.11584 8.31209,-33.82897 -0.31272,-5.09831 2.24024,-19.20623 -2.81716,-7.2537 -3.03089,7.72112 -10.40774,15.79131 -19.3628,13.91829 -10.46678,-1.62528 -18.31456,-12.64628 -14.25376,-22.81251 0.6432,-12.20268 23.39557,-3.46788 8.91109,1.20803 -9.25901,12.98814 11.7827,16.56645 15.16862,4.60514 2.6002,-6.20261 7.80216,-24.88055 3.63207,-25.20974 -12.40121,9.64322 -35.75585,1.627 -34.7075,-15.53037 -0.47424,-13.60464 19.89675,-17.60013 24.55283,-4.74502 4.75329,8.24957 -4.91815,10.40936 -6.7058,2.93534 -14.68139,-1.94304 -4.81562,14.43025 4.81553,9.84972 12.62592,-1.36865 15.04019,-15.72251 16.49011,-25.85994 0.142692,-0.92531 0.275883,-1.88814 0.382876,-2.84834 0.106993,-0.9602 0.187789,-1.91776 0.225693,-2.83255 0.0379,-0.91478 0.03292,-1.78678 -0.03166,-2.57586 -0.06457,-0.78907 -0.188735,-1.49521 -0.389177,-2.07828 m 51.127912,28.77602 7.9e-4,-1.5e-4 M 67.763164,-300.92603 c -6.71819,3.31326 -23.70081,-13.34023 -8.78487,-9.27498 10.55121,1.8724 17.1186,-7.69757 20.52287,-15.34428 7.18489,-0.55119 5.57806,21.13346 -3.91183,23.42202 -2.5299,0.71451 -5.19816,1.15713 -7.82617,1.19724 z m -28.70929,-29.74573 c -2.09268,-8.61291 5.61168,-15.17605 11.36697,-19.88334 6.82812,-4.63279 15.41784,-1.02457 22.67978,-0.10918 6.32415,4.52633 7.75802,13.94906 -2.37287,15.11742 -10.08382,0.46573 -17.3402,6.5286 -23.52025,12.81929 -4.7419,-0.29113 -9.16246,-2.30154 -8.15363,-7.94419 z"
       id="path4563-9"
       inkscape:connector-curvature="0"
       sodipodi:nodetypes="cccccccccccccccccccccccccccccccccssscccccccccccccc" />
    <path
       style="color:#000000;font-style:normal;font-variant:normal;font-weight:normal;font-stretch:normal;font-size:medium;line-height:normal;font-family:sans-serif;font-variant-ligatures:normal;font-variant-position:normal;font-variant-caps:normal;font-variant-numeric:normal;font-variant-alternates:normal;font-feature-settings:normal;text-indent:0;text-align:start;text-decoration:none;text-decoration-line:none;text-decoration-style:solid;text-decoration-color:#000000;letter-spacing:normal;word-spacing:normal;text-transform:none;writing-mode:lr-tb;direction:ltr;text-orientation:mixed;dominant-baseline:auto;baseline-shift:baseline;text-anchor:start;white-space:normal;shape-padding:0;clip-rule:nonzero;display:inline;overflow:visible;visibility:visible;opacity:1;isolation:auto;mix-blend-mode:normal;color-interpolation:sRGB;color-interpolation-filters:linearRGB;solid-color:#000000;solid-opacity:1;vector-effect:none;fill:none;fill-opacity:1;fill-rule:nonzero;stroke:#000000;stroke-width:0.26458332;stroke-linecap:butt;stroke-linejoin:miter;stroke-miterlimit:4;stroke-dasharray:none;stroke-dashoffset:0;stroke-opacity:1;color-rendering:auto;image-rendering:auto;shape-rendering:auto;text-rendering:auto;enable-background:accumulate"
       d="m 63.639271,-203.59351 c 0.654005,-0.44189 1.352791,-0.82251 2.088111,-1.13359 0.735319,-0.31109 1.507172,-0.55266 2.307311,-0.71645 0.800139,-0.16379 1.628564,-0.24981 2.477026,-0.24981 6.7877,0 12.292969,5.50527 12.292969,12.29297 0,6.7877 -5.505269,12.29297 -15.176801,12.47694 -3.692216,0.70073 -4.626964,1.46101 -5.704773,2.50496 -11.26253,2.85341 -24.58793,4.03779 -34.06503,-4.25948 -5.77753,-7.22096 -9.77895,-18.90579 -2.55561,-26.47138 6.04767,-8.33897 23.63174,-10.65956 25.87885,2.03133 2.36302,9.693 -7.52838,6.35228 -11.59485,2.60983 -18.91701,6.68556 10.19221,24.91088 16.3311,9.66291 1.191899,-1.05791 2.220729,-2.18218 4.504375,-5.30454 1.954093,-2.49864 2.563317,-3.0018 3.217322,-3.44369 z m 0.03287,-6.4449 c 0.207119,-1.41699 0.33111,-2.85737 0.391961,-4.31041 0.06085,-1.45303 0.05856,-2.91872 0.01311,-4.38632 -0.04545,-1.4676 -0.13405,-2.93711 -0.245824,-4.39778 -0.111774,-1.46068 -0.246719,-2.91252 -0.384849,-4.34479 -0.0325,-13.43566 0.11132,-27.34643 -5.70022,-39.7625 -1.3712,-12.54381 -13.0505,-19.61866 -19.41731,-29.50655 -9.34229,-11.08906 -16.1097,-26.04594 -11.69896,-40.65312 1.3054,-7.17784 5.30096,-13.20164 9.26642,-19.07774 5.31299,-6.02042 11.53455,-11.02595 19.57444,-13.14092 8.45624,-2.54151 17.73845,1.23654 25.51749,4.49597 7.92871,6.61811 15.418837,13.75077 19.896606,23.08508 1.69143,17.0373 4.75985,33.82663 8.13975,50.57313 3.71967,10.3838 8.38674,20.87152 7.44541,32.24649 1.04631,12.0205 -0.10002,24.1209 -0.0972,36.25494 1.34052,10.35266 -3.9081,22.94703 3.64006,31.56019 6.37697,14.3737 24.61708,-8.48508 11.53054,-9.33142 -10.12434,11.03708 -8.18685,-12.56287 2.8123,-7.47239 11.35708,0.68673 16.22104,15.31428 11.65045,24.44425 -5.99786,10.45906 -19.9234,12.44206 -29.82983,7.03735 -9.41021,-9.99688 -2.45066,12.4097 -0.8546,17.44871 0.9824,4.55097 5.72806,7.15665 8.44662,10.69111"
       id="path4587"
       inkscape:connector-curvature="0"
       sodipodi:nodetypes="sssssccccccccscssscccccccccccccccccc" />
  </g>
</svg>
