<?xml version="1.0" encoding="UTF-8" standalone="no"?>
<!-- Created with Inkscape (http://www.inkscape.org/) -->

<svg
   xmlns:dc="http://purl.org/dc/elements/1.1/"
   xmlns:cc="http://creativecommons.org/ns#"
   xmlns:rdf="http://www.w3.org/1999/02/22-rdf-syntax-ns#"
   xmlns:svg="http://www.w3.org/2000/svg"
   xmlns="http://www.w3.org/2000/svg"
   xmlns:sodipodi="http://sodipodi.sourceforge.net/DTD/sodipodi-0.dtd"
   xmlns:inkscape="http://www.inkscape.org/namespaces/inkscape"
   width="210mm"
   height="297mm"
   viewBox="0 0 210 297"
   version="1.1"
   id="svg832"
   sodipodi:docname="makey_outlined.svg"
   inkscape:version="0.92.3 (2405546, 2018-03-11)">
  <sodipodi:namedview
     id="base"
     pagecolor="#ffffff"
     bordercolor="#666666"
     borderopacity="1.0"
     inkscape:pageopacity="0.0"
     inkscape:pageshadow="2"
     inkscape:zoom="1.4"
     inkscape:cx="-20.525567"
     inkscape:cy="59.06616"
     inkscape:document-units="mm"
     inkscape:current-layer="layer1"
     showgrid="false"
     inkscape:window-width="988"
     inkscape:window-height="849"
     inkscape:window-x="804"
     inkscape:window-y="64"
     inkscape:window-maximized="0"
     showguides="false">
    <sodipodi:guide
       position="-54.050594,19.843751"
       orientation="1,0"
       id="guide5129"
       inkscape:locked="false" />
  </sodipodi:namedview>
  <defs
     id="defs826" />
  <metadata
     id="metadata829">
    <rdf:RDF>
      <cc:Work
         rdf:about="">
        <dc:format>image/svg+xml</dc:format>
        <dc:type
           rdf:resource="http://purl.org/dc/dcmitype/StillImage" />
        <dc:title></dc:title>
      </cc:Work>
    </rdf:RDF>
  </metadata>
  <g
     inkscape:label="makey"
     inkscape:groupmode="layer"
     id="layer1"
     style="display:inline">
    <path
       inkscape:connector-curvature="0"
       id="path5093"
       d="m -17.726649,326.93061 -0.079,-0.94364 v -0.86462 l 1.179232,-0.89305 1.179232,-0.89304 h 6.7599297 6.7599292 v 1.83667 1.83667 h -7.860164 l -7.9391619,-0.079 v 0 m 19.5525052,6.7e-4 -0.079836,-1.8375 v -1.75768 l 6.7838354,0.002 6.7838354,0.002 1.160116,0.89842 1.160114,0.89841 -0.03441,0.90749 -0.03441,0.90741 -7.8297023,0.0305 -7.9095373,-0.0494 v -3.3e-4 m -16.7876224,-4.3956 1.597107,-9.00503 1.07796,-0.11729 3.9484033,-0.0308 h 4.971981 l 0.06906,0.6221 0.3038126,4.1177 0.2990328,4.05845 0.06428,0.56286 h -6.1658193 l -5.2578694,-0.0306 -0.76015,-0.0623 -0.147798,-0.11502 v 0 m 17.5031,0.11907 0.2832288,-4.53242 0.3373826,-4.59169 1.0295616,-0.11757 3.9462472,-0.0305 5.0267698,0.0922 1.61594,9.01122 v 0.25769 H 8.6849684 l -6.1436348,-0.0895 v 0 m -21.3887386,-3.71135 -1.896126,-0.38542 -1.682611,-0.63891 -1.481451,-0.8984 -1.292648,-1.16392 -1.152136,-1.6178 -0.41491,-0.80938 -0.16247,-0.55931 0.136731,-0.1082 0.65249,-0.0598 4.306062,-0.0307 h 5.095283 v 3.19937 3.19936 l -0.681346,-0.015 -1.426868,-0.11185 v -2e-5 m 35.405294,-3.07235 v -3.19937 h 5.095282 l 3.284154,0.002 1.498813,0.0992 0.261055,0.13045 0.03212,0.20795 -0.332835,0.71916 -0.576188,1.03655 -0.694378,0.92461 -0.811504,0.81196 -0.927575,0.69864 -1.04259,0.58461 -1.156547,0.46991 -1.269446,0.35452 -1.381288,0.23844 -1.472337,0.12109 h -0.506712 v -3.19936 m -29.386766,-8.11687 v -4.91754 h 3.495601 3.4956007 v 4.91754 4.91754 h -3.4956007 -3.495601 v -4.91754 m 18.4852116,0 v -4.91754 h 3.5548486 3.5548488 v 4.91754 4.91754 H 9.2112022 5.6563536 v -4.91754 m -32.5861106,4.08766 1.134257,-12.10986 0.07133,-0.55701 0.611781,-0.0355 0.611781,-0.0355 0.03295,-1.62603 0.03295,-1.62603 -1.691876,-0.0329 -1.691875,-0.0329 0.0093,-2.01442 0.06003,-1.8857 0.321732,-1.22153 0.546042,-1.3874 0.636683,-1.18433 0.771298,-1.05108 0.949896,-0.98763 1.50422,-1.12685 1.718013,-0.77822 1.152052,-0.27219 2.017689,-0.0914 2.22178,-0.0487 v 6.05434 6.05434 h -1.658929 -1.65893 v 1.65893 1.65892 h 0.624637 0.624637 l 0.573739,6.13212 0.634372,6.45798 0.06064,0.32585 h -5.110096 l -4.442859,-0.031 -0.576713,-0.0707 -0.09052,-0.13577 v -3e-5 m 43.539973,-0.0292 0.600923,-6.19136 0.597847,-6.1852 0.155909,-0.22002 0.519246,-0.0762 0.621389,-0.0358 0.03295,-1.62603 0.03295,-1.62603 -1.691875,-0.0329 -1.691876,-0.0329 -0.03071,-6.01362 -0.03071,-6.01362 h 1.903237 l 1.488337,0.0376 1.149876,0.13717 1.00339,0.27336 1.04888,0.44615 1.604993,1.02634 1.412425,1.4171 1.159923,1.73441 0.847497,1.97832 0.22857,1.06635 0.09457,1.8664 0.05489,2.10329 H 25.988094 24.25336 l 0.03297,1.62931 0.03297,1.6293 0.622098,0.0358 0.630894,0.0592 0.625846,6.45178 0.617052,6.42836 h -5.13091 -5.130913 l 0.05684,-0.26665 m -21.5278481,-5.92476 -0.031312,-3.70297 -3.5548488,-0.0592 -3.5548481,-0.0592 -0.66849,-0.32829 -1.116148,-0.83014 -0.803186,-1.13141 -0.147386,-0.45255 -0.07609,-1.06378 -0.03258,-7.15462 v -8.1169 l 0.348702,-0.68819 0.79331,-1.07314 1.15442,-0.77029 0.665943,-0.31225 H -0.09065124 11.758843 l 0.657129,0.30822 1.112269,0.7266 0.789134,1.06429 0.403842,0.74476 v 8.11691 8.1169 l -0.347437,0.68614 -0.830182,1.11588 -1.112216,0.78581 -0.989967,0.22379 -3.0893013,0.0684 -3.5252249,0.0361 v 3.7261 3.7261 H -0.02971521 -4.8863208 l -0.031312,-3.70297 m 15.9322918,-5.74125 1.123385,-0.79295 0.845977,-1.07434 0.315256,-0.59723 v -6.51723 -6.51722 l -0.32939,-0.67075 -0.793156,-1.07337 -1.173884,-0.78751 -0.665944,-0.31225 H -0.09065124 -10.518207 l -0.665943,0.31225 -1.166274,0.77799 -0.8135,1.03515 -0.316656,0.59999 -0.03363,6.33221 0.0047,5.39963 0.162154,1.56998 0.652571,1.12863 1.005555,0.92327 0.684068,0.33448 1.4153776,0.1667 9.67685508,0.0464 10.36830832,-0.023 0.55926,-0.26088 m -21.378442,-0.67322 -0.799406,-0.32617 -0.651341,-0.49129 -0.48081,-0.63406 -0.287812,-0.75452 -0.124314,-2.994 -0.0029,-2.46076 3.0512454,0.0316 3.0512447,0.0316 0.031769,2.81425 0.031769,2.81426 h 1.2420524 1.242052 l 0.010782,-4.2362 0.010782,-4.23619 0.231161,0.88871 1.0679452,3.49324 1.0674806,3.35143 0.2306969,0.74691 1.26311437,-0.0336 1.26311343,-0.0336 0.8678797,-2.66614 1.2708036,-4.08807 0.4029257,-1.42194 0.037366,4.08808 0.037366,4.08807 1.3330681,0.0335 1.3330682,0.0335 v -2.84776 -2.84776 h 3.0216209 3.0216218 v 2.79822 2.79822 l -0.31535,0.5794 -0.630694,0.80083 -0.920298,0.58345 -0.51869,0.10958 -1.4269604,0.0636 -8.45223522,0.0516 -8.01035748,-0.0126 -2.4997639,-0.11553 -7e-6,3e-5 m 8.8885388,-10.05676 -1.3735901,-4.53201 -1.8498955,-0.0326 -1.8498945,-0.0326 v 3.26162 3.26162 h -3.0893475 -3.0893462 l 0.03915,-3.22899 0.147476,-3.30201 0.241114,-0.6701 0.446536,-0.52102 0.872309,-0.63927 0.474455,-0.12972 1.3496101,-0.0724 8.88828087,-0.0603 6.52475413,-0.0143 3.2828323,0.069 1.3184856,0.23714 0.631709,0.4903 0.525582,0.54283 0.27425,0.67324 0.104628,1.20979 0.01672,2.15243 v 3.26334 H 9.3889435 6.3673227 v -3.25862 -3.25861 h -1.8867294 -1.88673 l -0.1205375,0.38511 -1.2664956,4.47319 -1.22722106,4.17652 -1.45485494,-4.44356 v 0 m -10.8300102,-10.43911 0.06935,-1.17904 0.309448,-1.71969 0.375516,-1.20326 0.507376,-1.15659 0.630661,-1.09926 0.7453705,-1.03128 0.8515045,-0.95264 0.9490634,-0.86336 1.0380469,-0.76341 1.1184551,-0.65283 1.4699001,-0.64158 1.4920944,-0.43601 1.4993542,-0.23862 1.49167895,-0.0494 1.46906885,0.13147 1.4315242,0.3042 1.3790439,0.4687 1.3116296,0.62499 1.2292801,0.77306 1.1319957,0.91291 1.0197764,1.04455 0.8926212,1.16797 0.750533,1.28316 0.593509,1.39016 0.42155,1.48891 0.234657,1.57947 0.08211,0.97758 H -0.02697937 l -9.92686543,-0.0302 -2.3514112,-0.12993 v 0 m 6.560277,-1.09039 0.6587129,-0.39581 0.4967699,-0.55448 0.3145181,-0.68218 0.1119576,-0.77894 -0.1681838,-1.05198 -0.5739903,-0.84328 -0.5311246,-0.41296 -0.592384,-0.25324 -0.6239835,-0.0993 -0.6259223,0.0488 -0.5982005,0.19107 -0.5408186,0.32755 -0.4537756,0.45822 -0.337072,0.58308 -0.1772596,1.02295 0.1530167,0.99907 0.5941898,0.86647 0.8613741,0.56297 1.005527,0.20862 1.0266487,-0.19659 v 0 m 13.3306815,0.0242 0.6872532,-0.4168 0.5222229,-0.58536 0.3301715,-0.71279 0.1110985,-0.79903 -0.1219964,-0.77084 -0.3234621,-0.66027 -0.4832297,-0.53033 -0.601303,-0.38107 -0.6776787,-0.21244 -0.7123583,-0.0245 -0.7053419,0.18285 -0.6566287,0.40952 -0.4347987,0.44085 -0.2971431,0.46904 -0.1697782,0.51898 -0.052703,0.59072 0.1088214,0.80385 0.3112243,0.69434 0.5004715,0.5644 0.6765624,0.41407 0.9889124,0.15424 0.999684,-0.14945 v -1e-5"
       style="fill:#fe0125;stroke-width:0.11849495" />
  </g>
  <g
     inkscape:groupmode="layer"
     id="layer2"
     inkscape:label="outline"
     style="display:inline">
    <path
       style="display:inline;fill:none;stroke:#000000;stroke-width:0.11849495;stroke-opacity:1"
       d="m 0.21647322,264.5595 -0.0537949,0.002 -1.49182912,0.0492 -0.3024335,0.0289 -1.4990454,0.2388 -0.298497,0.0669 -1.492485,0.4356 -0.2919369,0.10563 -1.4695241,0.6416 -0.2525744,0.12858 -1.1185438,0.65276 -0.2151804,0.14105 -1.0385072,0.76363 -0.1961552,0.16073 -0.9486303,0.86334 -0.175818,0.17779 -0.851537,0.95257 -0.158105,0.19615 -0.745258,1.03129 -0.137768,0.21387 -0.631108,1.09952 -0.118087,0.2342 -0.507117,1.15659 -0.09447,0.25127 -0.37591,1.20317 -0.07217,0.29456 -0.308994,1.71947 -0.03411,0.28735 -0.06954,1.1789 -6.72e-4,0.1194 -0.376565,0.25126 -0.606179,0.57732 -0.793149,1.07327 -0.213212,0.34573 -0.06232,0.12268 -1.399984,0.0308 -0.05773,0.002 -2.017316,0.0918 -0.446761,0.0617 -1.152658,0.27159 -0.446106,0.1522 -1.717505,0.77872 -0.453978,0.26832 -1.504294,1.12642 -0.295217,0.2611 -0.949942,0.98799 -0.207309,0.24667 -0.771499,1.05097 -0.181723,0.28801 -0.636356,1.18414 -0.120055,0.2598 -0.54648,1.38751 -0.08922,0.27225 -0.321458,1.22154 -0.07872,0.54058 -0.06036,1.88545 -0.0013,0.0669 -0.0092,2.01469 0.174547,0.91614 0.48604,0.76016 0.729124,0.53148 0.903796,0.23006 -0.179099,0.65276 -0.07151,0.55763 -0.0092,0.082 -1.134289,12.10979 0.04526,0.74198 -0.05388,0.59855 0.09455,0.59347 0.162698,0.5596 0.17057,0.4297 0.414616,0.80956 0.18369,0.30177 1.152002,1.61779 0.35426,0.3969 1.29305,1.16382 0.365413,0.2716 1.481333,0.89811 0.397558,0.19419 1.682736,0.63898 0.378534,0.10956 1.895948,0.38574 0.295217,0.0413 1.426881,0.11153 0.1358,0.006 0.228957,0.006 -0.0328,0.18173 -0.81611,0.61798 h -6.73e-4 l -1.178899,0.89287 -0.406488,0.38982 -0.302644,0.46641 -0.188844,0.52294 -0.06508,0.55942 v 0.86466 l 0.0085,0.20206 0.07872,0.94338 0.24235,0.87414 0.525448,0.70467 0.741168,0.47256 0.889508,0.17784 7.9393655,0.0794 h 0.024272 7.8600133 l 1.06090275,-0.24395 0.8481663,-0.68238 0.82246315,0.62262 1.0065692,0.22564 7.9098438,0.0492 h 0.024272 l 7.829808,-0.0302 0.921367,-0.18451 0.759514,-0.49881 0.524268,-0.74217 0.215629,-0.91459 0.03411,-0.9073 0.03411,-0.90796 -0.04757,-0.57769 -0.179646,-0.54285 -0.301388,-0.48592 -0.412803,-0.40692 -1.159218,-0.89811 -0.86269,-0.6685 -0.02624,-0.14565 0.189595,-0.007 1.472148,-0.12071 0.215836,-0.0275 1.380959,-0.23879 0.238798,-0.0538 1.269432,-0.35426 0.261759,-0.0892 1.156594,-0.46972 0.274224,-0.13252 1.0431,-0.58518 0.272256,-0.17713 0.927638,-0.69803 0.258478,-0.22436 0.811516,-0.81218 0.225021,-0.25979 0.694088,-0.92501 0.180411,-0.27816 0.576,-1.03654 0.08069,-0.1581 0.333268,-0.71903 0.196772,-0.65737 0.0053,-0.68619 0.09775,-0.94272 -0.617331,-6.42851 v -0.002 l -0.625859,-6.45213 -0.173193,-0.69212 0.929532,-0.22462 0.747885,-0.54221 0.492722,-0.78138 0.164043,-0.94211 -0.05511,-2.10325 -0.002,-0.0591 -0.09447,-1.86643 -0.05117,-0.38641 -0.228302,-1.06606 -0.14236,-0.44807 -0.847599,-1.97861 -0.213868,-0.39494 -1.159876,-1.7339 -0.298497,-0.3641 -1.412449,-1.4177 -0.413304,-0.33261 -1.605322,-1.02604 -0.35754,-0.18829 -1.048348,-0.4461 -0.312275,-0.1089 -1.003737,-0.27357 -0.351635,-0.0682 -1.150034,-0.13711 -0.226989,-0.0164 -1.487846,-0.0374 -0.06101,-6.7e-4 h -1.0431 l -0.131863,-0.24339 -0.184347,-0.28931 -0.789212,-1.0641 -0.623236,-0.58715 -0.242078,-0.1581 -0.0033,-0.0511 -0.08201,-0.97815 -0.01771,-0.15417 -0.234861,-1.57907 -0.0656,-0.30441 -0.421152,-1.48919 -0.103654,-0.29324 -0.593714,-1.39015 -0.137112,-0.27226 -0.750507,-1.2832 -0.167289,-0.2493 -0.892867,-1.16775 -0.191564,-0.22174 -1.019482,-1.04441 -0.2132119,-0.19418 -1.132321,-0.91321 -0.232237,-0.16532 -1.2287582,-0.77281 -0.2486385,-0.13711 -1.3120749,-0.62521 -0.263727,-0.10694 -1.3789908,-0.4684 -0.2761919,-0.0761 -1.4314735,-0.3044 -0.2893125,-0.0439 -1.46886796,-0.13121 -0.24273411,-0.009 v 0"
       id="path5111"
       inkscape:connector-curvature="0"
       sodipodi:nodetypes="cccccccccccccccccccccccccccccccccccccccccccccccccccccccccccccccccccccccccccccccccccccccccccccccccccccccccccccsccccccccccccccccccccccccccccccccccccccccccccccccccccccccccccccccccccccccccccccc" />
  </g>
</svg>
