  0
SECTION
  2
HEADER
  9
$ACADVER
  1
AC1014
  9
$HANDSEED
  5
FFFF
  9
$MEASUREMENT
 70
     1
  0
ENDSEC
  0
SECTION
  2
TABLES
  0
TABLE
  2
VPORT
  5
8
330
0
100
AcDbSymbolTable
 70
     4
  0
VPORT
  5
2E
330
8
100
AcDbSymbolTableRecord
100
AcDbViewportTableRecord
  2
*ACTIVE
 70
     0
 10
0.0
 20
0.0
 11
1.0
 21
1.0
 12
210.0
 22
148.5
 13
0.0
 23
0.0
 14
10.0
 24
10.0
 15
10.0
 25
10.0
 16
0.0
 26
0.0
 36
1.0
 17
0.0
 27
0.0
 37
0.0
 40
341.0
 41
1.24
 42
50.0
 43
0.0
 44
0.0
 50
0.0
 51
0.0
 71
     0
 72
   100
 73
     1
 74
     3
 75
     0
 76
     0
 77
     0
 78
     0
  0
ENDTAB
  0
TABLE
  2
LTYPE
  5
5
330
0
100
AcDbSymbolTable
 70
     1
  0
LTYPE
  5
14
330
5
100
AcDbSymbolTableRecord
100
AcDbLinetypeTableRecord
  2
BYBLOCK
 70
     0
  3

 72
    65
 73
     0
 40
0.0
  0
LTYPE
  5
15
330
5
100
AcDbSymbolTableRecord
100
AcDbLinetypeTableRecord
  2
BYLAYER
 70
     0
  3

 72
    65
 73
     0
 40
0.0
  0
LTYPE
  5
16
330
5
100
AcDbSymbolTableRecord
100
AcDbLinetypeTableRecord
  2
CONTINUOUS
 70
     0
  3
Solid line
 72
    65
 73
     0
 40
0.0
  0
ENDTAB
  0
TABLE
  2
LAYER
  5
2
100
AcDbSymbolTable
 70
3
  0
LAYER
  5
50
100
AcDbSymbolTableRecord
100
AcDbLayerTableRecord
  2
0
 70
0
  6
CONTINUOUS
  0
LAYER
  5
51
100
AcDbSymbolTableRecord
100
AcDbLayerTableRecord
  2
makey
 70
0
  6
CONTINUOUS
  0
LAYER
  5
52
100
AcDbSymbolTableRecord
100
AcDbLayerTableRecord
  2
outline
 70
0
  6
CONTINUOUS
  0
ENDTAB
  0
TABLE
  2
STYLE
  5
3
330
0
100
AcDbSymbolTable
 70
     1
  0
STYLE
  5
11
330
3
100
AcDbSymbolTableRecord
100
AcDbTextStyleTableRecord
  2
STANDARD
 70
     0
 40
0.0
 41
1.0
 50
0.0
 71
     0
 42
2.5
  3
txt
  4

  0
ENDTAB
  0
TABLE
  2
VIEW
  5
6
330
0
100
AcDbSymbolTable
 70
     0
  0
ENDTAB
  0
TABLE
  2
UCS
  5
7
330
0
100
AcDbSymbolTable
 70
     0
  0
ENDTAB
  0
TABLE
  2
APPID
  5
9
330
0
100
AcDbSymbolTable
 70
     2
  0
APPID
  5
12
330
9
100
AcDbSymbolTableRecord
100
AcDbRegAppTableRecord
  2
ACAD
 70
     0
  0
ENDTAB
  0
TABLE
  2
DIMSTYLE
  5
A
330
0
100
AcDbSymbolTable
 70
     1
  0
DIMSTYLE
105
27
330
A
100
AcDbSymbolTableRecord
100
AcDbDimStyleTableRecord
  2
ISO-25
 70
     0
  3

  4

  5

  6

  7

 40
1.0
 41
2.5
 42
0.625
 43
3.75
 44
1.25
 45
0.0
 46
0.0
 47
0.0
 48
0.0
140
2.5
141
2.5
142
0.0
143
0.03937007874016
144
1.0
145
0.0
146
1.0
147
0.625
 71
     0
 72
     0
 73
     0
 74
     0
 75
     0
 76
     0
 77
     1
 78
     8
170
     0
171
     3
172
     1
173
     0
174
     0
175
     0
176
     0
177
     0
178
     0
270
     2
271
     2
272
     2
273
     2
274
     3
340
11
275
     0
280
     0
281
     0
282
     0
283
     0
284
     8
285
     0
286
     0
287
     3
288
     0
  0
ENDTAB
  0
TABLE
  2
BLOCK_RECORD
  5
1
330
0
100
AcDbSymbolTable
 70
     1
  0
BLOCK_RECORD
  5
1F
330
1
100
AcDbSymbolTableRecord
100
AcDbBlockTableRecord
  2
*MODEL_SPACE
  0
BLOCK_RECORD
  5
1B
330
1
100
AcDbSymbolTableRecord
100
AcDbBlockTableRecord
  2
*PAPER_SPACE
  0
ENDTAB
  0
ENDSEC
  0
SECTION
  2
BLOCKS
  0
BLOCK
  5
20
330
1F
100
AcDbEntity
  8
0
100
AcDbBlockBegin
  2
*MODEL_SPACE
 70
     0
 10
0.0
 20
0.0
 30
0.0
  3
*MODEL_SPACE
  1

  0
ENDBLK
  5
21
330
1F
100
AcDbEntity
  8
0
100
AcDbBlockEnd
  0
BLOCK
  5
1C
330
1B
100
AcDbEntity
 67
     1
  8
0
100
AcDbBlockBegin
  2
*PAPER_SPACE
  1

  0
ENDBLK
  5
1D
330
1B
100
AcDbEntity
 67
     1
  8
0
100
AcDbBlockEnd
  0
ENDSEC
  0
SECTION
  2
ENTITIES
  0
LWPOLYLINE
  5
100
100
AcDbEntity
  8
makey
 62
7
100
AcDbPolyline
 90
11
 70
1
 10
-17.726649
 20
-29.930610
 30
0.0
 10
-17.805649
 20
-28.986970
 30
0.0
 10
-17.805649
 20
-28.122350
 30
0.0
 10
-16.626417
 20
-27.229300
 30
0.0
 10
-15.447185
 20
-26.336260
 30
0.0
 10
-8.687255
 20
-26.336260
 30
0.0
 10
-1.927326
 20
-26.336260
 30
0.0
 10
-1.927326
 20
-28.172930
 30
0.0
 10
-1.927326
 20
-30.009600
 30
0.0
 10
-9.787490
 20
-30.009600
 30
0.0
 10
-17.726652
 20
-29.930600
 30
0.0
  0
LWPOLYLINE
  5
101
100
AcDbEntity
  8
makey
 62
7
100
AcDbPolyline
 90
12
 70
0
 10
1.825853
 20
-29.931270
 30
0.0
 10
1.746017
 20
-28.093770
 30
0.0
 10
1.746017
 20
-26.336090
 30
0.0
 10
8.529853
 20
-26.338090
 30
0.0
 10
15.313688
 20
-26.340090
 30
0.0
 10
16.473804
 20
-27.238510
 30
0.0
 10
17.633918
 20
-28.136920
 30
0.0
 10
17.599508
 20
-29.044410
 30
0.0
 10
17.565098
 20
-29.951820
 30
0.0
 10
9.735396
 20
-29.982320
 30
0.0
 10
1.825858
 20
-29.932920
 30
0.0
 10
1.825858
 20
-29.932590
 30
0.0
  0
LWPOLYLINE
  5
102
100
AcDbEntity
  8
makey
 62
7
100
AcDbPolyline
 90
13
 70
1
 10
-14.961764
 20
-25.536990
 30
0.0
 10
-13.364657
 20
-16.531960
 30
0.0
 10
-12.286697
 20
-16.414670
 30
0.0
 10
-8.338294
 20
-16.383870
 30
0.0
 10
-3.366313
 20
-16.383870
 30
0.0
 10
-3.297253
 20
-17.005970
 30
0.0
 10
-2.993440
 20
-21.123670
 30
0.0
 10
-2.694407
 20
-25.182120
 30
0.0
 10
-2.630127
 20
-25.744980
 30
0.0
 10
-8.795947
 20
-25.744980
 30
0.0
 10
-14.053816
 20
-25.714380
 30
0.0
 10
-14.813966
 20
-25.652080
 30
0.0
 10
-14.961764
 20
-25.537060
 30
0.0
  0
LWPOLYLINE
  5
103
100
AcDbEntity
  8
makey
 62
7
100
AcDbPolyline
 90
11
 70
0
 10
2.541336
 20
-25.656130
 30
0.0
 10
2.824565
 20
-21.123710
 30
0.0
 10
3.161947
 20
-16.532020
 30
0.0
 10
4.191509
 20
-16.414450
 30
0.0
 10
8.137756
 20
-16.383950
 30
0.0
 10
13.164526
 20
-16.476150
 30
0.0
 10
14.780466
 20
-25.487370
 30
0.0
 10
14.780466
 20
-25.745060
 30
0.0
 10
8.684968
 20
-25.745060
 30
0.0
 10
2.541334
 20
-25.655560
 30
0.0
 10
2.541334
 20
-25.655560
 30
0.0
  0
LWPOLYLINE
  5
104
100
AcDbEntity
  8
makey
 62
7
100
AcDbPolyline
 90
16
 70
1
 10
-18.847405
 20
-21.944210
 30
0.0
 10
-20.743531
 20
-21.558790
 30
0.0
 10
-22.426142
 20
-20.919880
 30
0.0
 10
-23.907593
 20
-20.021480
 30
0.0
 10
-25.200241
 20
-18.857560
 30
0.0
 10
-26.352377
 20
-17.239760
 30
0.0
 10
-26.767287
 20
-16.430380
 30
0.0
 10
-26.929757
 20
-15.871070
 30
0.0
 10
-26.793026
 20
-15.762870
 30
0.0
 10
-26.140536
 20
-15.703070
 30
0.0
 10
-21.834474
 20
-15.672370
 30
0.0
 10
-16.739191
 20
-15.672370
 30
0.0
 10
-16.739191
 20
-18.871740
 30
0.0
 10
-16.739191
 20
-22.071100
 30
0.0
 10
-17.420537
 20
-22.056100
 30
0.0
 10
-18.847405
 20
-21.944250
 30
0.0
  0
LWPOLYLINE
  5
105
100
AcDbEntity
  8
makey
 62
7
100
AcDbPolyline
 90
19
 70
0
 10
16.557889
 20
-18.871880
 30
0.0
 10
16.557889
 20
-15.672510
 30
0.0
 10
21.653171
 20
-15.672510
 30
0.0
 10
24.937325
 20
-15.674510
 30
0.0
 10
26.436138
 20
-15.773710
 30
0.0
 10
26.697193
 20
-15.904160
 30
0.0
 10
26.729313
 20
-16.112110
 30
0.0
 10
26.396478
 20
-16.831270
 30
0.0
 10
25.820290
 20
-17.867820
 30
0.0
 10
25.125912
 20
-18.792430
 30
0.0
 10
24.314408
 20
-19.604390
 30
0.0
 10
23.386833
 20
-20.303030
 30
0.0
 10
22.344243
 20
-20.887640
 30
0.0
 10
21.187696
 20
-21.357550
 30
0.0
 10
19.918250
 20
-21.712070
 30
0.0
 10
18.536962
 20
-21.950510
 30
0.0
 10
17.064625
 20
-22.071600
 30
0.0
 10
16.557913
 20
-22.071600
 30
0.0
 10
16.557913
 20
-18.872240
 30
0.0
  0
LWPOLYLINE
  5
106
100
AcDbEntity
  8
makey
 62
7
100
AcDbPolyline
 90
8
 70
1
 10
-12.828853
 20
-10.755370
 30
0.0
 10
-12.828853
 20
-5.837830
 30
0.0
 10
-9.333252
 20
-5.837830
 30
0.0
 10
-5.837651
 20
-5.837830
 30
0.0
 10
-5.837651
 20
-10.755370
 30
0.0
 10
-5.837651
 20
-15.672910
 30
0.0
 10
-9.333252
 20
-15.672910
 30
0.0
 10
-12.828853
 20
-15.672910
 30
0.0
  0
LWPOLYLINE
  5
107
100
AcDbEntity
  8
makey
 62
7
100
AcDbPolyline
 90
8
 70
1
 10
5.656359
 20
-10.755370
 30
0.0
 10
5.656359
 20
-5.837830
 30
0.0
 10
9.211207
 20
-5.837830
 30
0.0
 10
12.766056
 20
-5.837830
 30
0.0
 10
12.766056
 20
-10.755370
 30
0.0
 10
12.766056
 20
-15.672910
 30
0.0
 10
9.211202
 20
-15.672910
 30
0.0
 10
5.656354
 20
-15.672910
 30
0.0
  0
LWPOLYLINE
  5
108
100
AcDbEntity
  8
makey
 62
7
100
AcDbPolyline
 90
37
 70
0
 10
-26.929757
 20
-14.843030
 30
0.0
 10
-25.795500
 20
-2.733170
 30
0.0
 10
-25.724170
 20
-2.176160
 30
0.0
 10
-25.112389
 20
-2.140660
 30
0.0
 10
-24.500608
 20
-2.105160
 30
0.0
 10
-24.467658
 20
-0.479130
 30
0.0
 10
-24.434708
 20
1.146900
 30
0.0
 10
-26.126584
 20
1.179800
 30
0.0
 10
-27.818459
 20
1.212700
 30
0.0
 10
-27.809159
 20
3.227120
 30
0.0
 10
-27.749129
 20
5.112820
 30
0.0
 10
-27.427397
 20
6.334350
 30
0.0
 10
-26.881355
 20
7.721750
 30
0.0
 10
-26.244672
 20
8.906080
 30
0.0
 10
-25.473374
 20
9.957160
 30
0.0
 10
-24.523478
 20
10.944790
 30
0.0
 10
-23.019258
 20
12.071640
 30
0.0
 10
-21.301245
 20
12.849860
 30
0.0
 10
-20.149193
 20
13.122050
 30
0.0
 10
-18.131504
 20
13.213450
 30
0.0
 10
-15.909724
 20
13.262150
 30
0.0
 10
-15.909724
 20
7.207810
 30
0.0
 10
-15.909724
 20
1.153470
 30
0.0
 10
-17.568653
 20
1.153470
 30
0.0
 10
-19.227583
 20
1.153470
 30
0.0
 10
-19.227583
 20
-0.505460
 30
0.0
 10
-19.227583
 20
-2.164380
 30
0.0
 10
-18.602946
 20
-2.164380
 30
0.0
 10
-17.978309
 20
-2.164380
 30
0.0
 10
-17.404570
 20
-8.296500
 30
0.0
 10
-16.770198
 20
-14.754480
 30
0.0
 10
-16.709558
 20
-15.080330
 30
0.0
 10
-21.819654
 20
-15.080330
 30
0.0
 10
-26.262513
 20
-15.049330
 30
0.0
 10
-26.839226
 20
-14.978630
 30
0.0
 10
-26.929746
 20
-14.842860
 30
0.0
 10
-26.929746
 20
-14.842830
 30
0.0
  0
LWPOLYLINE
  5
109
100
AcDbEntity
  8
makey
 62
7
100
AcDbPolyline
 90
34
 70
1
 10
16.610227
 20
-14.813630
 30
0.0
 10
17.211150
 20
-8.622270
 30
0.0
 10
17.808997
 20
-2.437070
 30
0.0
 10
17.964906
 20
-2.217050
 30
0.0
 10
18.484152
 20
-2.140850
 30
0.0
 10
19.105541
 20
-2.105050
 30
0.0
 10
19.138491
 20
-0.479020
 30
0.0
 10
19.171441
 20
1.147010
 30
0.0
 10
17.479566
 20
1.179910
 30
0.0
 10
15.787690
 20
1.212810
 30
0.0
 10
15.756980
 20
7.226430
 30
0.0
 10
15.726270
 20
13.240050
 30
0.0
 10
17.629507
 20
13.240050
 30
0.0
 10
19.117844
 20
13.202450
 30
0.0
 10
20.267720
 20
13.065280
 30
0.0
 10
21.271110
 20
12.791920
 30
0.0
 10
22.319990
 20
12.345770
 30
0.0
 10
23.924983
 20
11.319430
 30
0.0
 10
25.337408
 20
9.902330
 30
0.0
 10
26.497331
 20
8.167920
 30
0.0
 10
27.344828
 20
6.189600
 30
0.0
 10
27.573398
 20
5.123250
 30
0.0
 10
27.667968
 20
3.256850
 30
0.0
 10
27.722858
 20
1.153560
 30
0.0
 10
25.988094
 20
1.153560
 30
0.0
 10
24.253360
 20
1.153560
 30
0.0
 10
24.286330
 20
-0.475750
 30
0.0
 10
24.319300
 20
-2.105050
 30
0.0
 10
24.941398
 20
-2.140850
 30
0.0
 10
25.572292
 20
-2.200050
 30
0.0
 10
26.198138
 20
-8.651830
 30
0.0
 10
26.815190
 20
-15.080190
 30
0.0
 10
21.684280
 20
-15.080190
 30
0.0
 10
16.553367
 20
-15.080190
 30
0.0
  0
LWPOLYLINE
  5
10a
100
AcDbEntity
  8
makey
 62
7
100
AcDbPolyline
 90
34
 70
0
 10
-4.917641
 20
-8.888780
 30
0.0
 10
-4.948953
 20
-5.185810
 30
0.0
 10
-8.503802
 20
-5.126610
 30
0.0
 10
-12.058650
 20
-5.067410
 30
0.0
 10
-12.727140
 20
-4.739120
 30
0.0
 10
-13.843288
 20
-3.908980
 30
0.0
 10
-14.646474
 20
-2.777570
 30
0.0
 10
-14.793860
 20
-2.325020
 30
0.0
 10
-14.869950
 20
-1.261240
 30
0.0
 10
-14.902530
 20
5.893380
 30
0.0
 10
-14.902530
 20
14.010280
 30
0.0
 10
-14.553828
 20
14.698470
 30
0.0
 10
-13.760518
 20
15.771610
 30
0.0
 10
-12.606098
 20
16.541900
 30
0.0
 10
-11.940155
 20
16.854150
 30
0.0
 10
-0.090651
 20
16.854150
 30
0.0
 10
11.758843
 20
16.854150
 30
0.0
 10
12.415972
 20
16.545930
 30
0.0
 10
13.528241
 20
15.819330
 30
0.0
 10
14.317375
 20
14.755040
 30
0.0
 10
14.721217
 20
14.010280
 30
0.0
 10
14.721217
 20
5.893370
 30
0.0
 10
14.721217
 20
-2.223530
 30
0.0
 10
14.373780
 20
-2.909670
 30
0.0
 10
13.543598
 20
-4.025550
 30
0.0
 10
12.431382
 20
-4.811360
 30
0.0
 10
11.441415
 20
-5.035150
 30
0.0
 10
8.352114
 20
-5.103550
 30
0.0
 10
4.826889
 20
-5.139650
 30
0.0
 10
4.826889
 20
-8.865750
 30
0.0
 10
4.826889
 20
-12.591850
 30
0.0
 10
-0.029715
 20
-12.591850
 30
0.0
 10
-4.886321
 20
-12.591850
 30
0.0
 10
-4.917633
 20
-8.888880
 30
0.0
  0
LWPOLYLINE
  5
10b
100
AcDbEntity
  8
makey
 62
7
100
AcDbPolyline
 90
25
 70
1
 10
11.014659
 20
-3.147630
 30
0.0
 10
12.138044
 20
-2.354680
 30
0.0
 10
12.984021
 20
-1.280340
 30
0.0
 10
13.299277
 20
-0.683110
 30
0.0
 10
13.299277
 20
5.834120
 30
0.0
 10
13.299277
 20
12.351340
 30
0.0
 10
12.969887
 20
13.022090
 30
0.0
 10
12.176731
 20
14.095460
 30
0.0
 10
11.002847
 20
14.882970
 30
0.0
 10
10.336903
 20
15.195220
 30
0.0
 10
-0.090651
 20
15.195220
 30
0.0
 10
-10.518207
 20
15.195220
 30
0.0
 10
-11.184150
 20
14.882970
 30
0.0
 10
-12.350424
 20
14.104980
 30
0.0
 10
-13.163924
 20
13.069830
 30
0.0
 10
-13.480580
 20
12.469840
 30
0.0
 10
-13.514210
 20
6.137630
 30
0.0
 10
-13.509510
 20
0.738000
 30
0.0
 10
-13.347356
 20
-0.831980
 30
0.0
 10
-12.694785
 20
-1.960610
 30
0.0
 10
-11.689230
 20
-2.883880
 30
0.0
 10
-11.005162
 20
-3.218360
 30
0.0
 10
-9.589784
 20
-3.385060
 30
0.0
 10
0.087071
 20
-3.431460
 30
0.0
 10
10.455379
 20
-3.408460
 30
0.0
  0
LWPOLYLINE
  5
10c
100
AcDbEntity
  8
makey
 62
7
100
AcDbPolyline
 90
43
 70
0
 10
-10.363803
 20
-2.474360
 30
0.0
 10
-11.163209
 20
-2.148190
 30
0.0
 10
-11.814550
 20
-1.656900
 30
0.0
 10
-12.295360
 20
-1.022840
 30
0.0
 10
-12.583172
 20
-0.268320
 30
0.0
 10
-12.707486
 20
2.725680
 30
0.0
 10
-12.710386
 20
5.186440
 30
0.0
 10
-9.659141
 20
5.154840
 30
0.0
 10
-6.607896
 20
5.123240
 30
0.0
 10
-6.576127
 20
2.308990
 30
0.0
 10
-6.544358
 20
-0.505270
 30
0.0
 10
-5.302306
 20
-0.505270
 30
0.0
 10
-4.060254
 20
-0.505270
 30
0.0
 10
-4.049472
 20
3.730930
 30
0.0
 10
-4.038690
 20
7.967120
 30
0.0
 10
-3.807529
 20
7.078410
 30
0.0
 10
-2.739583
 20
3.585170
 30
0.0
 10
-1.672103
 20
0.233740
 30
0.0
 10
-1.441406
 20
-0.513170
 30
0.0
 10
-0.178291
 20
-0.479570
 30
0.0
 10
1.084822
 20
-0.445970
 30
0.0
 10
1.952702
 20
2.220170
 30
0.0
 10
3.223505
 20
6.308240
 30
0.0
 10
3.626431
 20
7.730180
 30
0.0
 10
3.663797
 20
3.642100
 30
0.0
 10
3.701163
 20
-0.445970
 30
0.0
 10
5.034231
 20
-0.479470
 30
0.0
 10
6.367299
 20
-0.512970
 30
0.0
 10
6.367299
 20
2.334790
 30
0.0
 10
6.367299
 20
5.182550
 30
0.0
 10
9.388920
 20
5.182550
 30
0.0
 10
12.410542
 20
5.182550
 30
0.0
 10
12.410542
 20
2.384330
 30
0.0
 10
12.410542
 20
-0.413890
 30
0.0
 10
12.095192
 20
-0.993290
 30
0.0
 10
11.464498
 20
-1.794120
 30
0.0
 10
10.544200
 20
-2.377570
 30
0.0
 10
10.025510
 20
-2.487150
 30
0.0
 10
8.598550
 20
-2.550750
 30
0.0
 10
0.146314
 20
-2.602350
 30
0.0
 10
-7.864043
 20
-2.589750
 30
0.0
 10
-10.363807
 20
-2.474220
 30
0.0
 10
-10.363814
 20
-2.474250
 30
0.0
  0
LWPOLYLINE
  5
10d
100
AcDbEntity
  8
makey
 62
7
100
AcDbPolyline
 90
35
 70
1
 10
-1.475275
 20
7.582510
 30
0.0
 10
-2.848865
 20
12.114520
 30
0.0
 10
-4.698761
 20
12.147120
 30
0.0
 10
-6.548655
 20
12.179720
 30
0.0
 10
-6.548655
 20
8.918100
 30
0.0
 10
-6.548655
 20
5.656480
 30
0.0
 10
-9.638003
 20
5.656480
 30
0.0
 10
-12.727349
 20
5.656480
 30
0.0
 10
-12.688199
 20
8.885470
 30
0.0
 10
-12.540723
 20
12.187480
 30
0.0
 10
-12.299609
 20
12.857580
 30
0.0
 10
-11.853073
 20
13.378600
 30
0.0
 10
-10.980764
 20
14.017870
 30
0.0
 10
-10.506309
 20
14.147590
 30
0.0
 10
-9.156699
 20
14.219990
 30
0.0
 10
-0.268418
 20
14.280290
 30
0.0
 10
6.256336
 20
14.294590
 30
0.0
 10
9.539168
 20
14.225590
 30
0.0
 10
10.857654
 20
13.988450
 30
0.0
 10
11.489363
 20
13.498150
 30
0.0
 10
12.014945
 20
12.955320
 30
0.0
 10
12.289195
 20
12.282080
 30
0.0
 10
12.393823
 20
11.072290
 30
0.0
 10
12.410543
 20
8.919860
 30
0.0
 10
12.410543
 20
5.656520
 30
0.0
 10
9.388944
 20
5.656520
 30
0.0
 10
6.367323
 20
5.656520
 30
0.0
 10
6.367323
 20
8.915140
 30
0.0
 10
6.367323
 20
12.173750
 30
0.0
 10
4.480593
 20
12.173750
 30
0.0
 10
2.593863
 20
12.173750
 30
0.0
 10
2.473326
 20
11.788640
 30
0.0
 10
1.206830
 20
7.315450
 30
0.0
 10
-0.020391
 20
3.138930
 30
0.0
 10
-1.475246
 20
7.582490
 30
0.0
  0
LWPOLYLINE
  5
10e
100
AcDbEntity
  8
makey
 62
7
100
AcDbPolyline
 90
31
 70
1
 10
-12.305256
 20
18.021600
 30
0.0
 10
-12.235906
 20
19.200640
 30
0.0
 10
-11.926458
 20
20.920330
 30
0.0
 10
-11.550942
 20
22.123590
 30
0.0
 10
-11.043566
 20
23.280180
 30
0.0
 10
-10.412905
 20
24.379440
 30
0.0
 10
-9.667535
 20
25.410720
 30
0.0
 10
-8.816030
 20
26.363360
 30
0.0
 10
-7.866967
 20
27.226720
 30
0.0
 10
-6.828920
 20
27.990130
 30
0.0
 10
-5.710465
 20
28.642960
 30
0.0
 10
-4.240565
 20
29.284540
 30
0.0
 10
-2.748470
 20
29.720550
 30
0.0
 10
-1.249116
 20
29.959170
 30
0.0
 10
0.242563
 20
30.008570
 30
0.0
 10
1.711632
 20
29.877100
 30
0.0
 10
3.143156
 20
29.572900
 30
0.0
 10
4.522200
 20
29.104200
 30
0.0
 10
5.833830
 20
28.479210
 30
0.0
 10
7.063110
 20
27.706150
 30
0.0
 10
8.195105
 20
26.793240
 30
0.0
 10
9.214882
 20
25.748690
 30
0.0
 10
10.107503
 20
24.580720
 30
0.0
 10
10.858036
 20
23.297560
 30
0.0
 10
11.451545
 20
21.907400
 30
0.0
 10
11.873095
 20
20.418490
 30
0.0
 10
12.107752
 20
18.839020
 30
0.0
 10
12.189862
 20
17.861440
 30
0.0
 10
-0.026979
 20
17.861440
 30
0.0
 10
-9.953845
 20
17.891640
 30
0.0
 10
-12.305256
 20
18.021570
 30
0.0
  0
LWPOLYLINE
  5
10f
100
AcDbEntity
  8
makey
 62
7
100
AcDbPolyline
 90
21
 70
1
 10
-5.744979
 20
19.111960
 30
0.0
 10
-5.086266
 20
19.507770
 30
0.0
 10
-4.589496
 20
20.062250
 30
0.0
 10
-4.274978
 20
20.744430
 30
0.0
 10
-4.163021
 20
21.523370
 30
0.0
 10
-4.331204
 20
22.575350
 30
0.0
 10
-4.905195
 20
23.418630
 30
0.0
 10
-5.436319
 20
23.831590
 30
0.0
 10
-6.028703
 20
24.084830
 30
0.0
 10
-6.652687
 20
24.184130
 30
0.0
 10
-7.278609
 20
24.135330
 30
0.0
 10
-7.876810
 20
23.944260
 30
0.0
 10
-8.417628
 20
23.616710
 30
0.0
 10
-8.871404
 20
23.158490
 30
0.0
 10
-9.208476
 20
22.575410
 30
0.0
 10
-9.385735
 20
21.552460
 30
0.0
 10
-9.232719
 20
20.553390
 30
0.0
 10
-8.638529
 20
19.686920
 30
0.0
 10
-7.777155
 20
19.123950
 30
0.0
 10
-6.771628
 20
18.915330
 30
0.0
 10
-5.744979
 20
19.111920
 30
0.0
  0
LWPOLYLINE
  5
110
100
AcDbEntity
  8
makey
 62
7
100
AcDbPolyline
 90
23
 70
1
 10
7.585703
 20
19.087720
 30
0.0
 10
8.272956
 20
19.504520
 30
0.0
 10
8.795179
 20
20.089880
 30
0.0
 10
9.125350
 20
20.802670
 30
0.0
 10
9.236449
 20
21.601700
 30
0.0
 10
9.114452
 20
22.372540
 30
0.0
 10
8.790990
 20
23.032810
 30
0.0
 10
8.307760
 20
23.563140
 30
0.0
 10
7.706457
 20
23.944210
 30
0.0
 10
7.028779
 20
24.156650
 30
0.0
 10
6.316420
 20
24.181150
 30
0.0
 10
5.611079
 20
23.998300
 30
0.0
 10
4.954450
 20
23.588780
 30
0.0
 10
4.519651
 20
23.147930
 30
0.0
 10
4.222508
 20
22.678890
 30
0.0
 10
4.052730
 20
22.159910
 30
0.0
 10
4.000027
 20
21.569190
 30
0.0
 10
4.108848
 20
20.765340
 30
0.0
 10
4.420073
 20
20.071000
 30
0.0
 10
4.920544
 20
19.506600
 30
0.0
 10
5.597106
 20
19.092530
 30
0.0
 10
6.586019
 20
18.938290
 30
0.0
 10
7.585703
 20
19.087740
 30
0.0
  0
LWPOLYLINE
  5
111
100
AcDbEntity
  8
outline
 62
7
100
AcDbPolyline
 90
211
 70
0
 10
0.216473
 20
32.440500
 30
0.0
 10
0.162678
 20
32.438500
 30
0.0
 10
-1.329151
 20
32.389300
 30
0.0
 10
-1.631584
 20
32.360400
 30
0.0
 10
-3.130630
 20
32.121600
 30
0.0
 10
-3.429127
 20
32.054700
 30
0.0
 10
-4.921612
 20
31.619100
 30
0.0
 10
-5.213549
 20
31.513470
 30
0.0
 10
-6.683073
 20
30.871870
 30
0.0
 10
-6.935647
 20
30.743290
 30
0.0
 10
-8.054191
 20
30.090530
 30
0.0
 10
-8.269371
 20
29.949480
 30
0.0
 10
-9.307879
 20
29.185850
 30
0.0
 10
-9.504034
 20
29.025120
 30
0.0
 10
-10.452664
 20
28.161780
 30
0.0
 10
-10.628482
 20
27.983990
 30
0.0
 10
-11.480019
 20
27.031420
 30
0.0
 10
-11.638124
 20
26.835270
 30
0.0
 10
-12.383382
 20
25.803980
 30
0.0
 10
-12.521150
 20
25.590110
 30
0.0
 10
-13.152258
 20
24.490590
 30
0.0
 10
-13.270345
 20
24.256390
 30
0.0
 10
-13.777462
 20
23.099800
 30
0.0
 10
-13.871932
 20
22.848530
 30
0.0
 10
-14.247842
 20
21.645360
 30
0.0
 10
-14.320012
 20
21.350800
 30
0.0
 10
-14.629006
 20
19.631330
 30
0.0
 10
-14.663116
 20
19.343980
 30
0.0
 10
-14.732656
 20
18.165080
 30
0.0
 10
-14.733328
 20
18.045680
 30
0.0
 10
-15.109893
 20
17.794420
 30
0.0
 10
-15.716072
 20
17.217100
 30
0.0
 10
-16.509221
 20
16.143830
 30
0.0
 10
-16.722433
 20
15.798100
 30
0.0
 10
-16.784753
 20
15.675420
 30
0.0
 10
-18.184737
 20
15.644620
 30
0.0
 10
-18.242467
 20
15.642620
 30
0.0
 10
-20.259783
 20
15.550820
 30
0.0
 10
-20.706544
 20
15.489120
 30
0.0
 10
-21.859202
 20
15.217530
 30
0.0
 10
-22.305308
 20
15.065330
 30
0.0
 10
-24.022813
 20
14.286610
 30
0.0
 10
-24.476791
 20
14.018290
 30
0.0
 10
-25.981085
 20
12.891870
 30
0.0
 10
-26.276302
 20
12.630770
 30
0.0
 10
-27.226244
 20
11.642780
 30
0.0
 10
-27.433553
 20
11.396110
 30
0.0
 10
-28.205052
 20
10.345140
 30
0.0
 10
-28.386775
 20
10.057130
 30
0.0
 10
-29.023131
 20
8.872990
 30
0.0
 10
-29.143186
 20
8.613190
 30
0.0
 10
-29.689666
 20
7.225680
 30
0.0
 10
-29.778886
 20
6.953430
 30
0.0
 10
-30.100344
 20
5.731890
 30
0.0
 10
-30.179064
 20
5.191310
 30
0.0
 10
-30.239424
 20
3.305860
 30
0.0
 10
-30.240724
 20
3.238960
 30
0.0
 10
-30.249924
 20
1.224270
 30
0.0
 10
-30.075377
 20
0.308130
 30
0.0
 10
-29.589337
 20
-0.452030
 30
0.0
 10
-28.860213
 20
-0.983510
 30
0.0
 10
-27.956417
 20
-1.213570
 30
0.0
 10
-28.135516
 20
-1.866330
 30
0.0
 10
-28.207026
 20
-2.423960
 30
0.0
 10
-28.216226
 20
-2.505960
 30
0.0
 10
-29.350515
 20
-14.615750
 30
0.0
 10
-29.305255
 20
-15.357730
 30
0.0
 10
-29.359135
 20
-15.956280
 30
0.0
 10
-29.264585
 20
-16.549750
 30
0.0
 10
-29.101887
 20
-17.109350
 30
0.0
 10
-28.931317
 20
-17.539050
 30
0.0
 10
-28.516701
 20
-18.348610
 30
0.0
 10
-28.333011
 20
-18.650380
 30
0.0
 10
-27.181009
 20
-20.268170
 30
0.0
 10
-26.826749
 20
-20.665070
 30
0.0
 10
-25.533699
 20
-21.828890
 30
0.0
 10
-25.168286
 20
-22.100490
 30
0.0
 10
-23.686953
 20
-22.998600
 30
0.0
 10
-23.289395
 20
-23.192790
 30
0.0
 10
-21.606659
 20
-23.831770
 30
0.0
 10
-21.228125
 20
-23.941330
 30
0.0
 10
-19.332177
 20
-24.327070
 30
0.0
 10
-19.036960
 20
-24.368370
 30
0.0
 10
-17.610079
 20
-24.479900
 30
0.0
 10
-17.474279
 20
-24.485900
 30
0.0
 10
-17.245322
 20
-24.491900
 30
0.0
 10
-17.278122
 20
-24.673630
 30
0.0
 10
-18.094232
 20
-25.291610
 30
0.0
 10
-18.094905
 20
-25.291610
 30
0.0
 10
-19.273804
 20
-26.184480
 30
0.0
 10
-19.680292
 20
-26.574300
 30
0.0
 10
-19.982936
 20
-27.040710
 30
0.0
 10
-20.171780
 20
-27.563650
 30
0.0
 10
-20.236860
 20
-28.123070
 30
0.0
 10
-20.236860
 20
-28.987730
 30
0.0
 10
-20.228360
 20
-29.189790
 30
0.0
 10
-20.149640
 20
-30.133170
 30
0.0
 10
-19.907290
 20
-31.007310
 30
0.0
 10
-19.381842
 20
-31.711980
 30
0.0
 10
-18.640674
 20
-32.184540
 30
0.0
 10
-17.751166
 20
-32.362380
 30
0.0
 10
-9.811801
 20
-32.441780
 30
0.0
 10
-9.787529
 20
-32.441780
 30
0.0
 10
-1.927515
 20
-32.441780
 30
0.0
 10
-0.866612
 20
-32.197830
 30
0.0
 10
-0.018446
 20
-31.515450
 30
0.0
 10
0.804017
 20
-32.138070
 30
0.0
 10
1.810586
 20
-32.363710
 30
0.0
 10
9.720430
 20
-32.412910
 30
0.0
 10
9.744702
 20
-32.412910
 30
0.0
 10
17.574510
 20
-32.382710
 30
0.0
 10
18.495877
 20
-32.198200
 30
0.0
 10
19.255391
 20
-31.699390
 30
0.0
 10
19.779659
 20
-30.957220
 30
0.0
 10
19.995288
 20
-30.042630
 30
0.0
 10
20.029398
 20
-29.135330
 30
0.0
 10
20.063508
 20
-28.227370
 30
0.0
 10
20.015938
 20
-27.649680
 30
0.0
 10
19.836292
 20
-27.106830
 30
0.0
 10
19.534904
 20
-26.620910
 30
0.0
 10
19.122101
 20
-26.213990
 30
0.0
 10
17.962883
 20
-25.315880
 30
0.0
 10
17.100193
 20
-24.647380
 30
0.0
 10
17.073953
 20
-24.501730
 30
0.0
 10
17.263548
 20
-24.494730
 30
0.0
 10
18.735696
 20
-24.374020
 30
0.0
 10
18.951532
 20
-24.346520
 30
0.0
 10
20.332491
 20
-24.107730
 30
0.0
 10
20.571289
 20
-24.053930
 30
0.0
 10
21.840721
 20
-23.699670
 30
0.0
 10
22.102480
 20
-23.610470
 30
0.0
 10
23.259074
 20
-23.140750
 30
0.0
 10
23.533298
 20
-23.008230
 30
0.0
 10
24.576398
 20
-22.423050
 30
0.0
 10
24.848654
 20
-22.245920
 30
0.0
 10
25.776292
 20
-21.547890
 30
0.0
 10
26.034770
 20
-21.323530
 30
0.0
 10
26.846286
 20
-20.511350
 30
0.0
 10
27.071307
 20
-20.251560
 30
0.0
 10
27.765395
 20
-19.326550
 30
0.0
 10
27.945806
 20
-19.048390
 30
0.0
 10
28.521806
 20
-18.011850
 30
0.0
 10
28.602496
 20
-17.853750
 30
0.0
 10
28.935764
 20
-17.134720
 30
0.0
 10
29.132536
 20
-16.477350
 30
0.0
 10
29.137836
 20
-15.791160
 30
0.0
 10
29.235586
 20
-14.848440
 30
0.0
 10
28.618255
 20
-8.419930
 30
0.0
 10
28.618255
 20
-8.417930
 30
0.0
 10
27.992396
 20
-1.965800
 30
0.0
 10
27.819203
 20
-1.273680
 30
0.0
 10
28.748735
 20
-1.049060
 30
0.0
 10
29.496620
 20
-0.506850
 30
0.0
 10
29.989342
 20
0.274530
 30
0.0
 10
30.153385
 20
1.216640
 30
0.0
 10
30.098275
 20
3.319890
 30
0.0
 10
30.096275
 20
3.378990
 30
0.0
 10
30.001805
 20
5.245420
 30
0.0
 10
29.950635
 20
5.631830
 30
0.0
 10
29.722333
 20
6.697890
 30
0.0
 10
29.579973
 20
7.145960
 30
0.0
 10
28.732374
 20
9.124570
 30
0.0
 10
28.518506
 20
9.519510
 30
0.0
 10
27.358630
 20
11.253410
 30
0.0
 10
27.060133
 20
11.617510
 30
0.0
 10
25.647684
 20
13.035210
 30
0.0
 10
25.234380
 20
13.367820
 30
0.0
 10
23.629058
 20
14.393860
 30
0.0
 10
23.271518
 20
14.582150
 30
0.0
 10
22.223170
 20
15.028250
 30
0.0
 10
21.910895
 20
15.137150
 30
0.0
 10
20.907158
 20
15.410720
 30
0.0
 10
20.555523
 20
15.478920
 30
0.0
 10
19.405489
 20
15.616030
 30
0.0
 10
19.178500
 20
15.632430
 30
0.0
 10
17.690654
 20
15.669830
 30
0.0
 10
17.629644
 20
15.670500
 30
0.0
 10
16.586544
 20
15.670500
 30
0.0
 10
16.454681
 20
15.913890
 30
0.0
 10
16.270334
 20
16.203200
 30
0.0
 10
15.481122
 20
17.267300
 30
0.0
 10
14.857886
 20
17.854450
 30
0.0
 10
14.615808
 20
18.012550
 30
0.0
 10
14.612508
 20
18.063650
 30
0.0
 10
14.530498
 20
19.041800
 30
0.0
 10
14.512788
 20
19.195970
 30
0.0
 10
14.277927
 20
20.775040
 30
0.0
 10
14.212327
 20
21.079450
 30
0.0
 10
13.791175
 20
22.568640
 30
0.0
 10
13.687521
 20
22.861880
 30
0.0
 10
13.093807
 20
24.252030
 30
0.0
 10
12.956695
 20
24.524290
 30
0.0
 10
12.206188
 20
25.807490
 30
0.0
 10
12.038899
 20
26.056790
 30
0.0
 10
11.146032
 20
27.224540
 30
0.0
 10
10.954468
 20
27.446280
 30
0.0
 10
9.934986
 20
28.490690
 30
0.0
 10
9.721774
 20
28.684870
 30
0.0
 10
8.589453
 20
29.598080
 30
0.0
 10
8.357216
 20
29.763400
 30
0.0
 10
7.128458
 20
30.536210
 30
0.0
 10
6.879819
 20
30.673320
 30
0.0
 10
5.567745
 20
31.298530
 30
0.0
 10
5.304018
 20
31.405470
 30
0.0
 10
3.925027
 20
31.873870
 30
0.0
 10
3.648835
 20
31.949970
 30
0.0
 10
2.217361
 20
32.254370
 30
0.0
 10
1.928049
 20
32.298270
 30
0.0
 10
0.459181
 20
32.429480
 30
0.0
 10
0.216447
 20
32.438480
 30
0.0
 10
0.216447
 20
32.438480
 30
0.0
  0
ENDSEC
  0
SECTION
  2
OBJECTS
  0
DICTIONARY
  5
C
330
0
100
AcDbDictionary
  3
ACAD_GROUP
350
D
  3
ACAD_MLINESTYLE
350
17
  0
DICTIONARY
  5
D
330
C
100
AcDbDictionary
  0
DICTIONARY
  5
1A
330
C
100
AcDbDictionary
  0
DICTIONARY
  5
17
330
C
100
AcDbDictionary
  3
STANDARD
350
18
  0
DICTIONARY
  5
19
330
C
100
AcDbDictionary
  0
ENDSEC
  0
EOF
