  0
SECTION
  2
HEADER
  9
$ACADVER
  1
AC1014
  9
$HANDSEED
  5
FFFF
  9
$MEASUREMENT
 70
     1
  0
ENDSEC
  0
SECTION
  2
TABLES
  0
TABLE
  2
VPORT
  5
8
330
0
100
AcDbSymbolTable
 70
     4
  0
VPORT
  5
2E
330
8
100
AcDbSymbolTableRecord
100
AcDbViewportTableRecord
  2
*ACTIVE
 70
     0
 10
0.0
 20
0.0
 11
1.0
 21
1.0
 12
210.0
 22
148.5
 13
0.0
 23
0.0
 14
10.0
 24
10.0
 15
10.0
 25
10.0
 16
0.0
 26
0.0
 36
1.0
 17
0.0
 27
0.0
 37
0.0
 40
341.0
 41
1.24
 42
50.0
 43
0.0
 44
0.0
 50
0.0
 51
0.0
 71
     0
 72
   100
 73
     1
 74
     3
 75
     0
 76
     0
 77
     0
 78
     0
  0
ENDTAB
  0
TABLE
  2
LTYPE
  5
5
330
0
100
AcDbSymbolTable
 70
     1
  0
LTYPE
  5
14
330
5
100
AcDbSymbolTableRecord
100
AcDbLinetypeTableRecord
  2
BYBLOCK
 70
     0
  3

 72
    65
 73
     0
 40
0.0
  0
LTYPE
  5
15
330
5
100
AcDbSymbolTableRecord
100
AcDbLinetypeTableRecord
  2
BYLAYER
 70
     0
  3

 72
    65
 73
     0
 40
0.0
  0
LTYPE
  5
16
330
5
100
AcDbSymbolTableRecord
100
AcDbLinetypeTableRecord
  2
CONTINUOUS
 70
     0
  3
Solid line
 72
    65
 73
     0
 40
0.0
  0
ENDTAB
  0
TABLE
  2
LAYER
  5
2
100
AcDbSymbolTable
 70
2
  0
LAYER
  5
50
100
AcDbSymbolTableRecord
100
AcDbLayerTableRecord
  2
0
 70
0
  6
CONTINUOUS
  0
LAYER
  5
51
100
AcDbSymbolTableRecord
100
AcDbLayerTableRecord
  2
Layer_1
 70
0
  6
CONTINUOUS
  0
ENDTAB
  0
TABLE
  2
STYLE
  5
3
330
0
100
AcDbSymbolTable
 70
     1
  0
STYLE
  5
11
330
3
100
AcDbSymbolTableRecord
100
AcDbTextStyleTableRecord
  2
STANDARD
 70
     0
 40
0.0
 41
1.0
 50
0.0
 71
     0
 42
2.5
  3
txt
  4

  0
ENDTAB
  0
TABLE
  2
VIEW
  5
6
330
0
100
AcDbSymbolTable
 70
     0
  0
ENDTAB
  0
TABLE
  2
UCS
  5
7
330
0
100
AcDbSymbolTable
 70
     0
  0
ENDTAB
  0
TABLE
  2
APPID
  5
9
330
0
100
AcDbSymbolTable
 70
     2
  0
APPID
  5
12
330
9
100
AcDbSymbolTableRecord
100
AcDbRegAppTableRecord
  2
ACAD
 70
     0
  0
ENDTAB
  0
TABLE
  2
DIMSTYLE
  5
A
330
0
100
AcDbSymbolTable
 70
     1
  0
DIMSTYLE
105
27
330
A
100
AcDbSymbolTableRecord
100
AcDbDimStyleTableRecord
  2
ISO-25
 70
     0
  3

  4

  5

  6

  7

 40
1.0
 41
2.5
 42
0.625
 43
3.75
 44
1.25
 45
0.0
 46
0.0
 47
0.0
 48
0.0
140
2.5
141
2.5
142
0.0
143
0.03937007874016
144
1.0
145
0.0
146
1.0
147
0.625
 71
     0
 72
     0
 73
     0
 74
     0
 75
     0
 76
     0
 77
     1
 78
     8
170
     0
171
     3
172
     1
173
     0
174
     0
175
     0
176
     0
177
     0
178
     0
270
     2
271
     2
272
     2
273
     2
274
     3
340
11
275
     0
280
     0
281
     0
282
     0
283
     0
284
     8
285
     0
286
     0
287
     3
288
     0
  0
ENDTAB
  0
TABLE
  2
BLOCK_RECORD
  5
1
330
0
100
AcDbSymbolTable
 70
     1
  0
BLOCK_RECORD
  5
1F
330
1
100
AcDbSymbolTableRecord
100
AcDbBlockTableRecord
  2
*MODEL_SPACE
  0
BLOCK_RECORD
  5
1B
330
1
100
AcDbSymbolTableRecord
100
AcDbBlockTableRecord
  2
*PAPER_SPACE
  0
ENDTAB
  0
ENDSEC
  0
SECTION
  2
BLOCKS
  0
BLOCK
  5
20
330
1F
100
AcDbEntity
  8
0
100
AcDbBlockBegin
  2
*MODEL_SPACE
 70
     0
 10
0.0
 20
0.0
 30
0.0
  3
*MODEL_SPACE
  1

  0
ENDBLK
  5
21
330
1F
100
AcDbEntity
  8
0
100
AcDbBlockEnd
  0
BLOCK
  5
1C
330
1B
100
AcDbEntity
 67
     1
  8
0
100
AcDbBlockBegin
  2
*PAPER_SPACE
  1

  0
ENDBLK
  5
1D
330
1B
100
AcDbEntity
 67
     1
  8
0
100
AcDbBlockEnd
  0
ENDSEC
  0
SECTION
  2
ENTITIES
  0
LWPOLYLINE
  5
100
100
AcDbEntity
  8
Layer_1
 62
7
100
AcDbPolyline
 90
11
 70
1
 10
-22.139241
 20
-37.401286
 30
0.0
 10
-22.237956
 20
-36.222125
 30
0.0
 10
-22.237956
 20
-35.141675
 30
0.0
 10
-20.764385
 20
-34.025730
 30
0.0
 10
-19.290814
 20
-32.909784
 30
0.0
 10
-10.843590
 20
-32.909784
 30
0.0
 10
-2.396366
 20
-32.909784
 30
0.0
 10
-2.396366
 20
-35.204891
 30
0.0
 10
-2.396366
 20
-37.500002
 30
0.0
 10
-12.218446
 20
-37.500002
 30
0.0
 10
-22.139241
 20
-37.401286
 30
0.0
  0
LWPOLYLINE
  5
101
100
AcDbEntity
  8
Layer_1
 62
7
100
AcDbPolyline
 90
11
 70
1
 10
2.293615
 20
-37.402125
 30
0.0
 10
2.193852
 20
-35.105982
 30
0.0
 10
2.193852
 20
-32.909587
 30
0.0
 10
10.670949
 20
-32.911266
 30
0.0
 10
19.148046
 20
-32.912945
 30
0.0
 10
20.597729
 20
-34.035610
 30
0.0
 10
22.047410
 20
-35.158272
 30
0.0
 10
22.004409
 20
-36.292270
 30
0.0
 10
21.961406
 20
-37.426167
 30
0.0
 10
12.177392
 20
-37.464237
 30
0.0
 10
2.293615
 20
-37.402541
 30
0.0
  0
LWPOLYLINE
  5
102
100
AcDbEntity
  8
Layer_1
 62
7
100
AcDbPolyline
 90
13
 70
1
 10
-18.684238
 20
-31.909365
 30
0.0
 10
-16.688489
 20
-20.656661
 30
0.0
 10
-15.341468
 20
-20.510095
 30
0.0
 10
-10.407533
 20
-20.471564
 30
0.0
 10
-4.194534
 20
-20.471564
 30
0.0
 10
-4.108237
 20
-21.248943
 30
0.0
 10
-3.728592
 20
-26.394426
 30
0.0
 10
-3.354920
 20
-31.465878
 30
0.0
 10
-3.274595
 20
-32.169220
 30
0.0
 10
-10.979418
 20
-32.169220
 30
0.0
 10
-17.549664
 20
-32.130983
 30
0.0
 10
-18.499549
 20
-32.053114
 30
0.0
 10
-18.684238
 20
-31.909378
 30
0.0
  0
LWPOLYLINE
  5
103
100
AcDbEntity
  8
Layer_1
 62
7
100
AcDbPolyline
 90
10
 70
1
 10
3.187678
 20
-32.058185
 30
0.0
 10
3.541601
 20
-26.394447
 30
0.0
 10
3.963195
 20
-20.656674
 30
0.0
 10
5.249738
 20
-20.509751
 30
0.0
 10
10.180977
 20
-20.471598
 30
0.0
 10
16.462441
 20
-20.586797
 30
0.0
 10
18.481724
 20
-31.847237
 30
0.0
 10
18.481724
 20
-32.169254
 30
0.0
 10
10.864778
 20
-32.169254
 30
0.0
 10
3.187678
 20
-32.058197
 30
0.0
  0
LWPOLYLINE
  5
104
100
AcDbEntity
  8
Layer_1
 62
7
100
AcDbPolyline
 90
16
 70
1
 10
-23.539741
 20
-27.420487
 30
0.0
 10
-25.909145
 20
-26.938871
 30
0.0
 10
-28.011739
 20
-26.140489
 30
0.0
 10
-29.862964
 20
-25.017837
 30
0.0
 10
-31.478260
 20
-23.563408
 30
0.0
 10
-32.917972
 20
-21.541801
 30
0.0
 10
-33.436444
 20
-20.530402
 30
0.0
 10
-33.639467
 20
-19.831480
 30
0.0
 10
-33.468608
 20
-19.696276
 30
0.0
 10
-32.653254
 20
-19.621631
 30
0.0
 10
-27.272389
 20
-19.583184
 30
0.0
 10
-20.905312
 20
-19.583184
 30
0.0
 10
-20.905312
 20
-23.581116
 30
0.0
 10
-20.905312
 20
-27.579048
 30
0.0
 10
-21.756723
 20
-27.560286
 30
0.0
 10
-23.539741
 20
-27.420516
 30
0.0
  0
LWPOLYLINE
  5
105
100
AcDbEntity
  8
Layer_1
 62
7
100
AcDbPolyline
 90
18
 70
1
 10
20.702798
 20
-23.581276
 30
0.0
 10
20.702798
 20
-19.583343
 30
0.0
 10
27.069875
 20
-19.583343
 30
0.0
 10
31.173761
 20
-19.585442
 30
0.0
 10
33.046682
 20
-19.709435
 30
0.0
 10
33.372897
 20
-19.872454
 30
0.0
 10
33.413023
 20
-20.132305
 30
0.0
 10
32.997112
 20
-21.030960
 30
0.0
 10
32.277106
 20
-22.326240
 30
0.0
 10
31.409410
 20
-23.481627
 30
0.0
 10
30.395353
 20
-24.496259
 30
0.0
 10
29.236252
 20
-25.369277
 30
0.0
 10
27.933430
 20
-26.099818
 30
0.0
 10
26.488206
 20
-26.687025
 30
0.0
 10
24.901903
 20
-27.130033
 30
0.0
 10
23.175842
 20
-27.427983
 30
0.0
 10
21.336007
 20
-27.579288
 30
0.0
 10
20.702818
 20
-27.579288
 30
0.0
  0
LWPOLYLINE
  5
106
100
AcDbEntity
  8
Layer_1
 62
7
100
AcDbPolyline
 90
8
 70
1
 10
-16.018950
 20
-13.438372
 30
0.0
 10
-16.018950
 20
-7.293402
 30
0.0
 10
-11.650839
 20
-7.293402
 30
0.0
 10
-7.282728
 20
-7.293402
 30
0.0
 10
-7.282728
 20
-13.438372
 30
0.0
 10
-7.282728
 20
-19.583343
 30
0.0
 10
-11.650839
 20
-19.583343
 30
0.0
 10
-16.018950
 20
-19.583343
 30
0.0
  0
LWPOLYLINE
  5
107
100
AcDbEntity
  8
Layer_1
 62
7
100
AcDbPolyline
 90
8
 70
1
 10
7.080214
 20
-13.438372
 30
0.0
 10
7.080214
 20
-7.293402
 30
0.0
 10
11.522361
 20
-7.293402
 30
0.0
 10
15.964508
 20
-7.293402
 30
0.0
 10
15.964508
 20
-13.438372
 30
0.0
 10
15.964508
 20
-19.583343
 30
0.0
 10
11.522361
 20
-19.583343
 30
0.0
 10
7.080214
 20
-19.583343
 30
0.0
  0
LWPOLYLINE
  5
108
100
AcDbEntity
  8
Layer_1
 62
7
100
AcDbPolyline
 90
36
 70
1
 10
-33.639467
 20
-18.546307
 30
0.0
 10
-32.222097
 20
-3.413812
 30
0.0
 10
-32.132967
 20
-2.717765
 30
0.0
 10
-31.368483
 20
-2.673454
 30
0.0
 10
-30.604000
 20
-2.629147
 30
0.0
 10
-30.562828
 20
-0.597253
 30
0.0
 10
-30.521657
 20
1.434636
 30
0.0
 10
-32.635829
 20
1.475728
 30
0.0
 10
-34.750000
 20
1.516820
 30
0.0
 10
-34.738365
 20
4.034035
 30
0.0
 10
-34.663357
 20
6.390423
 30
0.0
 10
-34.261319
 20
7.916844
 30
0.0
 10
-33.578984
 20
9.650545
 30
0.0
 10
-32.783384
 20
11.130481
 30
0.0
 10
-31.819567
 20
12.443905
 30
0.0
 10
-30.632575
 20
13.678064
 30
0.0
 10
-28.752898
 20
15.086171
 30
0.0
 10
-26.606065
 20
16.058637
 30
0.0
 10
-25.166458
 20
16.398768
 30
0.0
 10
-22.645150
 20
16.512934
 30
0.0
 10
-19.868808
 20
16.573823
 30
0.0
 10
-19.868808
 20
9.008303
 30
0.0
 10
-19.868808
 20
1.442783
 30
0.0
 10
-21.941810
 20
1.442783
 30
0.0
 10
-24.014812
 20
1.442783
 30
0.0
 10
-24.014812
 20
-0.630219
 30
0.0
 10
-24.014812
 20
-2.703221
 30
0.0
 10
-23.234265
 20
-2.703221
 30
0.0
 10
-22.453717
 20
-2.703221
 30
0.0
 10
-21.736771
 20
-10.365925
 30
0.0
 10
-20.944058
 20
-18.435826
 30
0.0
 10
-20.868292
 20
-18.843023
 30
0.0
 10
-27.253880
 20
-18.843023
 30
0.0
 10
-32.805686
 20
-18.804282
 30
0.0
 10
-33.526348
 20
-18.716000
 30
0.0
 10
-33.639467
 20
-18.546341
 30
0.0
  0
LWPOLYLINE
  5
109
100
AcDbEntity
  8
Layer_1
 62
7
100
AcDbPolyline
 90
34
 70
1
 10
20.768186
 20
-18.509828
 30
0.0
 10
21.519100
 20
-10.773088
 30
0.0
 10
22.266171
 20
-3.044055
 30
0.0
 10
22.460996
 20
-2.769119
 30
0.0
 10
23.109847
 20
-2.673878
 30
0.0
 10
23.886336
 20
-2.629151
 30
0.0
 10
23.927508
 20
-0.597258
 30
0.0
 10
23.968679
 20
1.434632
 30
0.0
 10
21.854508
 20
1.475724
 30
0.0
 10
19.740336
 20
1.516815
 30
0.0
 10
19.701960
 20
9.031446
 30
0.0
 10
19.663584
 20
16.546079
 30
0.0
 10
22.041874
 20
16.546079
 30
0.0
 10
23.901703
 20
16.499104
 30
0.0
 10
25.338591
 20
16.327690
 30
0.0
 10
26.592430
 20
15.986098
 30
0.0
 10
27.903112
 20
15.428593
 30
0.0
 10
29.908715
 20
14.146067
 30
0.0
 10
31.673685
 20
12.375262
 30
0.0
 10
33.123128
 20
10.207930
 30
0.0
 10
34.182162
 20
7.735823
 30
0.0
 10
34.467784
 20
6.403313
 30
0.0
 10
34.585955
 20
4.071051
 30
0.0
 10
34.654548
 20
1.442779
 30
0.0
 10
32.486821
 20
1.442779
 30
0.0
 10
30.319093
 20
1.442779
 30
0.0
 10
30.360290
 20
-0.593207
 30
0.0
 10
30.401486
 20
-2.629189
 30
0.0
 10
31.178861
 20
-2.673945
 30
0.0
 10
31.967228
 20
-2.747981
 30
0.0
 10
32.749286
 20
-10.810142
 30
0.0
 10
33.520356
 20
-18.843027
 30
0.0
 10
27.108757
 20
-18.843027
 30
0.0
 10
20.697156
 20
-18.843027
 30
0.0
  0
LWPOLYLINE
  5
10a
100
AcDbEntity
  8
Layer_1
 62
7
100
AcDbPolyline
 90
33
 70
1
 10
-6.133064
 20
-11.106241
 30
0.0
 10
-6.172191
 20
-6.479003
 30
0.0
 10
-10.614338
 20
-6.404967
 30
0.0
 10
-15.056485
 20
-6.330930
 30
0.0
 10
-15.891832
 20
-5.920703
 30
0.0
 10
-17.286573
 20
-4.883360
 30
0.0
 10
-18.290236
 20
-3.469548
 30
0.0
 10
-18.474410
 20
-2.904037
 30
0.0
 10
-18.569490
 20
-1.574726
 30
0.0
 10
-18.610204
 20
7.365688
 30
0.0
 10
-18.610204
 20
17.508586
 30
0.0
 10
-18.174466
 20
18.368553
 30
0.0
 10
-17.183144
 20
19.709549
 30
0.0
 10
-15.740578
 20
20.672110
 30
0.0
 10
-14.908414
 20
21.062304
 30
0.0
 10
-0.101257
 20
21.062304
 30
0.0
 10
14.705899
 20
21.062304
 30
0.0
 10
15.527049
 20
20.677153
 30
0.0
 10
16.916943
 20
19.769175
 30
0.0
 10
17.903046
 20
18.439248
 30
0.0
 10
18.407688
 20
17.508586
 30
0.0
 10
18.407688
 20
7.365683
 30
0.0
 10
18.407688
 20
-2.777220
 30
0.0
 10
17.973531
 20
-3.634624
 30
0.0
 10
16.936133
 20
-5.029032
 30
0.0
 10
15.546305
 20
-6.010970
 30
0.0
 10
14.309240
 20
-6.290615
 30
0.0
 10
10.448842
 20
-6.376068
 30
0.0
 10
6.043713
 20
-6.421198
 30
0.0
 10
6.043713
 20
-11.077338
 30
0.0
 10
6.043713
 20
-15.733479
 30
0.0
 10
-0.025111
 20
-15.733479
 30
0.0
 10
-6.093937
 20
-15.733479
 30
0.0
  0
LWPOLYLINE
  5
10b
100
AcDbEntity
  8
Layer_1
 62
7
100
AcDbPolyline
 90
25
 70
1
 10
13.775965
 20
-3.931961
 30
0.0
 10
15.179749
 20
-2.941091
 30
0.0
 10
16.236884
 20
-1.598592
 30
0.0
 10
16.630829
 20
-0.852290
 30
0.0
 10
16.630829
 20
7.291647
 30
0.0
 10
16.630829
 20
15.435584
 30
0.0
 10
16.219223
 20
16.273749
 30
0.0
 10
15.228093
 20
17.615040
 30
0.0
 10
13.761204
 20
18.599108
 30
0.0
 10
12.929040
 20
18.989302
 30
0.0
 10
-0.101257
 20
18.989302
 30
0.0
 10
-13.131555
 20
18.989302
 30
0.0
 10
-13.963719
 20
18.599108
 30
0.0
 10
-15.421098
 20
17.626940
 30
0.0
 10
-16.437649
 20
16.333410
 30
0.0
 10
-16.833344
 20
15.583656
 30
0.0
 10
-16.875361
 20
7.670924
 30
0.0
 10
-16.869472
 20
0.923527
 30
0.0
 10
-16.666844
 20
-1.038327
 30
0.0
 10
-15.851389
 20
-2.448659
 30
0.0
 10
-14.594845
 20
-3.602385
 30
0.0
 10
-13.740032
 20
-4.020348
 30
0.0
 10
-11.971373
 20
-4.228660
 30
0.0
 10
0.120848
 20
-4.286667
 30
0.0
 10
13.077110
 20
-4.257957
 30
0.0
  0
LWPOLYLINE
  5
10c
100
AcDbEntity
  8
Layer_1
 62
7
100
AcDbPolyline
 90
42
 70
1
 10
-12.938589
 20
-3.090712
 30
0.0
 10
-13.937528
 20
-2.683120
 30
0.0
 10
-14.751445
 20
-2.069210
 30
0.0
 10
-15.352267
 20
-1.276877
 30
0.0
 10
-15.711917
 20
-0.334036
 30
0.0
 10
-15.867260
 20
3.407269
 30
0.0
 10
-15.870870
 20
6.482252
 30
0.0
 10
-12.058027
 20
6.442755
 30
0.0
 10
-8.245184
 20
6.403258
 30
0.0
 10
-8.205486
 20
2.886555
 30
0.0
 10
-8.165788
 20
-0.630143
 30
0.0
 10
-6.613717
 20
-0.630143
 30
0.0
 10
-5.061645
 20
-0.630143
 30
0.0
 10
-5.048172
 20
4.663417
 30
0.0
 10
-5.034699
 20
9.956973
 30
0.0
 10
-4.745839
 20
8.846438
 30
0.0
 10
-3.411333
 20
4.481283
 30
0.0
 10
-2.077406
 20
0.293331
 30
0.0
 10
-1.789127
 20
-0.640011
 30
0.0
 10
-0.210736
 20
-0.598038
 30
0.0
 10
1.367653
 20
-0.556065
 30
0.0
 10
2.452158
 20
2.775545
 30
0.0
 10
4.040157
 20
7.884013
 30
0.0
 10
4.543654
 20
9.660874
 30
0.0
 10
4.590347
 20
4.552402
 30
0.0
 10
4.637040
 20
-0.556065
 30
0.0
 10
6.302845
 20
-0.597954
 30
0.0
 10
7.968650
 20
-0.639843
 30
0.0
 10
7.968650
 20
2.918723
 30
0.0
 10
7.968650
 20
6.477290
 30
0.0
 10
11.744475
 20
6.477290
 30
0.0
 10
15.520300
 20
6.477290
 30
0.0
 10
15.520300
 20
2.980630
 30
0.0
 10
15.520300
 20
-0.516031
 30
0.0
 10
15.126238
 20
-1.240049
 30
0.0
 10
14.338122
 20
-2.240775
 30
0.0
 10
13.188115
 20
-2.969851
 30
0.0
 10
12.539959
 20
-3.106792
 30
0.0
 10
10.756826
 20
-3.186335
 30
0.0
 10
0.194893
 20
-3.250877
 30
0.0
 10
-9.814869
 20
-3.235053
 30
0.0
 10
-12.938580
 20
-3.090691
 30
0.0
  0
LWPOLYLINE
  5
10d
100
AcDbEntity
  8
Layer_1
 62
7
100
AcDbPolyline
 90
35
 70
1
 10
-1.831450
 20
9.476231
 30
0.0
 10
-3.547891
 20
15.139441
 30
0.0
 10
-5.859525
 20
15.180218
 30
0.0
 10
-8.171157
 20
15.220997
 30
0.0
 10
-8.171157
 20
11.145268
 30
0.0
 10
-8.171157
 20
7.069543
 30
0.0
 10
-12.031613
 20
7.069543
 30
0.0
 10
-15.892068
 20
7.069543
 30
0.0
 10
-15.843152
 20
11.104491
 30
0.0
 10
-15.658866
 20
15.230688
 30
0.0
 10
-15.357569
 20
16.068046
 30
0.0
 10
-14.799577
 20
16.719122
 30
0.0
 10
-13.709537
 20
17.517953
 30
0.0
 10
-13.116657
 20
17.680052
 30
0.0
 10
-11.430181
 20
17.770553
 30
0.0
 10
-0.323365
 20
17.845834
 30
0.0
 10
7.829984
 20
17.863626
 30
0.0
 10
11.932219
 20
17.777460
 30
0.0
 10
13.579801
 20
17.481134
 30
0.0
 10
14.369186
 20
16.868449
 30
0.0
 10
15.025955
 20
16.190143
 30
0.0
 10
15.368658
 20
15.348849
 30
0.0
 10
15.499402
 20
13.837095
 30
0.0
 10
15.520292
 20
11.147408
 30
0.0
 10
15.520292
 20
7.069543
 30
0.0
 10
11.744467
 20
7.069543
 30
0.0
 10
7.968642
 20
7.069543
 30
0.0
 10
7.968642
 20
11.141507
 30
0.0
 10
7.968642
 20
15.213475
 30
0.0
 10
5.610981
 20
15.213475
 30
0.0
 10
3.253319
 20
15.213475
 30
0.0
 10
3.102695
 20
14.732246
 30
0.0
 10
1.520079
 20
9.142541
 30
0.0
 10
-0.013459
 20
3.923550
 30
0.0
 10
-1.831450
 20
9.476231
 30
0.0
  0
LWPOLYLINE
  5
10e
100
AcDbEntity
  8
Layer_1
 62
7
100
AcDbPolyline
 90
31
 70
1
 10
-15.364656
 20
22.520969
 30
0.0
 10
-15.277992
 20
23.994299
 30
0.0
 10
-14.891305
 20
26.143229
 30
0.0
 10
-14.422060
 20
27.646826
 30
0.0
 10
-13.788041
 20
29.092099
 30
0.0
 10
-12.999966
 20
30.465737
 30
0.0
 10
-12.068549
 20
31.754426
 30
0.0
 10
-11.004507
 20
32.944854
 30
0.0
 10
-9.818555
 20
34.023707
 30
0.0
 10
-8.521409
 20
34.977673
 30
0.0
 10
-7.123785
 20
35.793438
 30
0.0
 10
-5.286994
 20
36.595172
 30
0.0
 10
-3.422470
 20
37.139997
 30
0.0
 10
-1.548873
 20
37.438183
 30
0.0
 10
0.315132
 20
37.499996
 30
0.0
 10
2.150884
 20
37.335706
 30
0.0
 10
3.939720
 20
36.955582
 30
0.0
 10
5.662977
 20
36.369891
 30
0.0
 10
7.301992
 20
35.588904
 30
0.0
 10
8.838104
 20
34.622886
 30
0.0
 10
10.252648
 20
33.482108
 30
0.0
 10
11.526963
 20
32.176838
 30
0.0
 10
12.642385
 20
30.717344
 30
0.0
 10
13.580253
 20
29.113895
 30
0.0
 10
14.321903
 20
27.376759
 30
0.0
 10
14.848673
 20
25.516205
 30
0.0
 10
15.141900
 20
23.542501
 30
0.0
 10
15.244502
 20
22.320911
 30
0.0
 10
-0.021693
 20
22.320911
 30
0.0
 10
-12.426327
 20
22.358603
 30
0.0
 10
-15.364656
 20
22.520971
 30
0.0
  0
LWPOLYLINE
  5
10f
100
AcDbEntity
  8
Layer_1
 62
7
100
AcDbPolyline
 90
21
 70
1
 10
-7.166918
 20
23.883521
 30
0.0
 10
-6.343789
 20
24.378125
 30
0.0
 10
-5.723024
 20
25.071001
 30
0.0
 10
-5.330002
 20
25.923464
 30
0.0
 10
-5.190099
 20
26.896832
 30
0.0
 10
-5.400262
 20
28.211384
 30
0.0
 10
-6.117522
 20
29.265140
 30
0.0
 10
-6.781216
 20
29.781184
 30
0.0
 10
-7.521461
 20
30.097632
 30
0.0
 10
-8.301192
 20
30.221748
 30
0.0
 10
-9.083346
 20
30.160794
 30
0.0
 10
-9.830859
 20
29.922031
 30
0.0
 10
-10.506667
 20
29.512722
 30
0.0
 10
-11.073706
 20
28.940129
 30
0.0
 10
-11.494912
 20
28.211514
 30
0.0
 10
-11.716416
 20
26.933233
 30
0.0
 10
-11.525206
 20
25.684786
 30
0.0
 10
-10.782705
 20
24.602039
 30
0.0
 10
-9.706330
 20
23.898553
 30
0.0
 10
-8.449821
 20
23.637867
 30
0.0
 10
-7.166918
 20
23.883521
 30
0.0
  0
LWPOLYLINE
  5
110
100
AcDbEntity
  8
Layer_1
 62
7
100
AcDbPolyline
 90
23
 70
1
 10
9.491133
 20
23.853229
 30
0.0
 10
10.349926
 20
24.374062
 30
0.0
 10
11.002497
 20
25.105535
 30
0.0
 10
11.415080
 20
25.996227
 30
0.0
 10
11.553909
 20
26.994714
 30
0.0
 10
11.401462
 20
27.957955
 30
0.0
 10
10.997263
 20
28.783021
 30
0.0
 10
10.393418
 20
29.445732
 30
0.0
 10
9.642028
 20
29.921911
 30
0.0
 10
8.795200
 20
30.187379
 30
0.0
 10
7.905035
 20
30.217956
 30
0.0
 10
7.023638
 20
29.989467
 30
0.0
 10
6.203113
 20
29.477729
 30
0.0
 10
5.659788
 20
28.926838
 30
0.0
 10
5.288477
 20
28.340734
 30
0.0
 10
5.076322
 20
27.692207
 30
0.0
 10
5.010463
 20
26.954048
 30
0.0
 10
5.146447
 20
25.949550
 30
0.0
 10
5.535354
 20
25.081913
 30
0.0
 10
6.160744
 20
24.376632
 30
0.0
 10
7.006178
 20
23.859206
 30
0.0
 10
8.241925
 20
23.666473
 30
0.0
 10
9.491133
 20
23.853225
 30
0.0
  0
ENDSEC
  0
SECTION
  2
OBJECTS
  0
DICTIONARY
  5
C
330
0
100
AcDbDictionary
  3
ACAD_GROUP
350
D
  3
ACAD_MLINESTYLE
350
17
  0
DICTIONARY
  5
D
330
C
100
AcDbDictionary
  0
DICTIONARY
  5
1A
330
C
100
AcDbDictionary
  0
DICTIONARY
  5
17
330
C
100
AcDbDictionary
  3
STANDARD
350
18
  0
DICTIONARY
  5
19
330
C
100
AcDbDictionary
  0
ENDSEC
  0
EOF
