0
SECTION
2
HEADER
9
$INSUNITS
70
4
9
$ACADVER
1
AC1014
9
$HANDSEED
5
FFFF
0
ENDSEC
0
SECTION
2
TABLES
0
TABLE
2
VPORT
5
8
100
AcDbSymbolTable
0
ENDTAB
0
TABLE
2
LTYPE
5
5
100
AcDbSymbolTable
0
LTYPE
5
14
100
AcDbSymbolTableRecord
100
AcDbLinetypeTableRecord
2
BYBLOCK
70
0
0
LTYPE
5
15
100
AcDbSymbolTableRecord
100
AcDbLinetypeTableRecord
2
BYLAYER
70
0
0
ENDTAB
0
TABLE
2
LAYER
5
2
100
AcDbSymbolTable
70
2
0
LAYER
5
50
100
AcDbSymbolTableRecord
100
AcDbLayerTableRecord
2
0
70
0
6
CONTINUOUS
0
ENDTAB
0
TABLE
2
STYLE
5
3
100
AcDbSymbolTable
70
1
0
STYLE
5
11
100
AcDbSymbolTableRecord
100
AcDbTextStyleTableRecord
2
STANDARD
70
0
0
ENDTAB
0
TABLE
2
VIEW
5
6
100
AcDbSymbolTable
70
0
0
ENDTAB
0
TABLE
2
UCS
5
7
100
AcDbSymbolTable
70
0
0
ENDTAB
0
TABLE
2
APPID
5
9
100
AcDbSymbolTable
70
2
0
APPID
5
12
100
AcDbSymbolTableRecord
100
AcDbRegAppTableRecord
2
ACAD
70
0
0
ENDTAB
0
TABLE
2
DIMSTYLE
5
A
100
AcDbSymbolTable
70
1
0
ENDTAB
0
TABLE
2
BLOCK_RECORD
5
1
100
AcDbSymbolTable
70
1
0
BLOCK_RECORD
5
1F
100
AcDbSymbolTableRecord
100
AcDbBlockTableRecord
2
*MODEL_SPACE
0
BLOCK_RECORD
5
1B
100
AcDbSymbolTableRecord
100
AcDbBlockTableRecord
2
*PAPER_SPACE
0
ENDTAB
0
ENDSEC
0
SECTION
2
BLOCKS
0
BLOCK
5
20
100
AcDbEntity
100
AcDbBlockBegin
2
*MODEL_SPACE
0
ENDBLK
5
21
100
AcDbEntity
100
AcDbBlockEnd
0
BLOCK
5
1C
100
AcDbEntity
100
AcDbBlockBegin
2
*PAPER_SPACE
0
ENDBLK
5
1D
100
AcDbEntity
100
AcDbBlockEnd
0
ENDSEC
0
SECTION
2
ENTITIES
0
LWPOLYLINE
5
100
100
AcDbEntity
8
0
100
AcDbPolyline
90
4
70
1
43
0.0
10
-63.474230406503537
20
-303.20872199017236
10
-105.68592029062025
20
-303.20872199017236
10
-105.68592029062025
20
-320
10
-63.474230406503537
20
-320
0
LINE
5
101
100
AcDbEntity
8
0
100
AcDbLine
10
-1.1612787876515045e-06
20
-202.93375795396719
30
0
11
-183.3022649025628
21
-202.93375795396739
31
6.7053176943786003e-29
0
LINE
5
102
100
AcDbEntity
8
0
100
AcDbLine
10
-183.3022649025628
20
-202.93375795396739
30
0
11
-183.3022649025628
21
-261.35739888538728
31
0
0
ARC
5
103
100
AcDbEntity
8
0
100
AcDbCircle
10
-163.30226490256294
20
-261.35739888538734
30
0
40
19.999999999999858
100
AcDbArc
50
180
51
228.66345835750178
0
LINE
5
104
100
AcDbEntity
8
0
100
AcDbLine
10
-176.51187828076849
20
-276.37425988888361
30
0
11
-14.652485568893994
21
-418.75421525087506
31
0
0
ARC
5
105
100
AcDbEntity
8
0
100
AcDbCircle
10
-11.350082224342536
20
-415.00000000000102
30
1.1460815076875335e-46
40
4.9999999999999876
100
AcDbArc
50
228.66345835750093
51
269.99999999999972
0
LINE
5
106
100
AcDbEntity
8
0
100
AcDbLine
10
-11.350082224342557
20
-420.00000000000102
30
1.5407439555097887e-32
11
4.5000000000001261
21
-420.00000000000108
31
0
0
ARC
5
107
100
AcDbEntity
8
0
100
AcDbCircle
10
4.5000000000001794
20
-415.00000000000108
30
3.2415290403998149e-46
40
5
100
AcDbArc
50
-90.000000000000611
51
0
0
LINE
5
108
100
AcDbEntity
8
0
100
AcDbLine
10
9.5000000000001084
20
-415.00000000000102
30
-8.3821821903355862e-47
11
9.5000000000001013
21
-212.43375795396696
31
1.0156584154720527e-28
0
ARC
5
109
100
AcDbEntity
8
0
100
AcDbCircle
10
1.4314314684909202e-13
20
-212.43375795396696
30
0
40
9.4999999999999574
100
AcDbArc
50
0
51
90.000007003829651
0
CIRCLE
5
110
100
AcDbEntity
8
0
100
AcDbCircle
10
-14.142562273907409
20
-212.43375795396662
30
0
40
2.5499999999999989
0
CIRCLE
5
111
100
AcDbEntity
8
0
100
AcDbCircle
10
-34.142562273907402
20
-212.43375795396662
30
0
40
2.5499999999999989
0
CIRCLE
5
112
100
AcDbEntity
8
0
100
AcDbCircle
10
-54.142562273907409
20
-212.43375795396662
30
0
40
2.5499999999999989
0
CIRCLE
5
113
100
AcDbEntity
8
0
100
AcDbCircle
10
1.4314314684909202e-13
20
-212.43375795396696
30
0
40
2.5499999999999998
0
CIRCLE
5
114
100
AcDbEntity
8
0
100
AcDbCircle
10
2.1279808533781351e-14
20
-232.43375795396662
30
0
40
2.5499999999999998
0
CIRCLE
5
115
100
AcDbEntity
8
0
100
AcDbCircle
10
2.127980853378132e-14
20
-252.43375795396662
30
0
40
2.5499999999999998
0
CIRCLE
5
116
100
AcDbEntity
8
0
100
AcDbCircle
10
-133.77578143914889
20
-212.43375795396747
30
0
40
2.5500000000000078
0
CIRCLE
5
117
100
AcDbEntity
8
0
100
AcDbCircle
10
-7.5623327553477474e-17
20
-342.99999233335257
30
0
40
2.5499999999999998
0
CIRCLE
5
118
100
AcDbEntity
8
0
100
AcDbCircle
10
-7.5623327553477104e-17
20
-416.00000619888306
30
0
40
2.5500000000000007
0
CIRCLE
5
119
100
AcDbEntity
8
0
100
AcDbCircle
10
-52.536894256058133
20
-295.42126241462154
30
0
40
1.4999995400000188
0
CIRCLE
5
120
100
AcDbEntity
8
0
100
AcDbCircle
10
-147.53690745605724
20
-234.42125741462058
30
0
40
1.4999995399999833
0
CIRCLE
5
121
100
AcDbEntity
8
0
100
AcDbCircle
10
-52.536894256057423
20
-234.42125741462155
30
0
40
1.4999995399999833
0
CIRCLE
5
122
100
AcDbEntity
8
0
100
AcDbCircle
10
-147.53690745605795
20
-295.42126241462051
30
0
40
1.4999995400000188
0
LWPOLYLINE
5
123
100
AcDbEntity
8
0
100
AcDbPolyline
90
4
70
1
43
0.0
10
-25.265210238536433
20
-295.51405860242249
10
-25.265210238536433
20
-239.3340746024225
10
-45.674455263851748
20
-239.3340746024225
10
-45.674455263851748
20
-295.51405860242249
0
LWPOLYLINE
5
124
100
AcDbEntity
8
0
100
AcDbPolyline
90
8
70
1
43
0.0
10
-62.678095216506193
20
-292.91046741462219
10
-62.678095216506193
20
-252.19676637048227
42
0.41421356237308565
10
-65.178095216506222
20
-249.69676637048224
10
-139.66688464001609
20
-249.69676637048221
42
0.41421356237310336
10
-142.16688464001609
20
-252.19676637048221
10
-142.16688464001618
20
-292.91046741462213
42
0.41421356237308876
10
-139.66688464001624
20
-295.41046741462213
10
-65.178095216506264
20
-295.4104674146223
42
0.41421356237310125
0
CIRCLE
5
125
100
AcDbEntity
8
0
100
AcDbCircle
10
-156.86693368575234
20
-233.56331360289715
30
0
40
1.5000000000000036
0
CIRCLE
5
126
100
AcDbEntity
8
0
100
AcDbCircle
10
-156.86693368575237
20
-257.56331360289715
30
0
40
1.4999999999999858
0
CIRCLE
5
127
100
AcDbEntity
8
0
100
AcDbCircle
10
-159.00000236928457
20
-288.00000429153442
30
0
40
1.5000000000000036
0
CIRCLE
5
128
100
AcDbEntity
8
0
100
AcDbCircle
10
-159.00000236928454
20
-275.00000409781933
30
0
40
1.5000000000000036
0
CIRCLE
5
129
100
AcDbEntity
8
0
100
AcDbCircle
10
-180.86693368575237
20
-257.56331360289715
30
0
40
1.4999999999999858
0
CIRCLE
5
130
100
AcDbEntity
8
0
100
AcDbCircle
10
-180.86693368575237
20
-233.56331360289718
30
0
40
1.4999999999999858
0
CIRCLE
5
131
100
AcDbEntity
8
0
100
AcDbCircle
10
-135.0000020116567
20
-305.00000454485416
30
0
40
1.5000000000000036
0
CIRCLE
5
132
100
AcDbEntity
8
0
100
AcDbCircle
10
-120.00000178813927
20
-305.00000454485416
30
0
40
1.5000000000000036
0
CIRCLE
5
133
100
AcDbEntity
8
0
100
AcDbCircle
10
-173.77578143914883
20
-212.43375795396747
30
0
40
2.5
0
ENDSEC
0
SECTION
2
OBJECTS
0
DICTIONARY
5
C
100
AcDbDictionary
3
ACAD_GROUP
350
D
3
ACAD_MLINESTYLE
350
17
0
DICTIONARY
5
D
100
AcDbDictionary
0
DICTIONARY
5
1A
330
C
100
AcDbDictionary
0
DICTIONARY
5
17
100
AcDbDictionary
0
ENDSEC
0
EOF
