  0
SECTION
  2
HEADER
  9
$ACADVER
  1
AC1014
  9
$HANDSEED
  5
FFFF
  9
$MEASUREMENT
 70
     1
  0
ENDSEC
  0
SECTION
  2
TABLES
  0
TABLE
  2
VPORT
  5
8
330
0
100
AcDbSymbolTable
 70
     4
  0
VPORT
  5
2E
330
8
100
AcDbSymbolTableRecord
100
AcDbViewportTableRecord
  2
*ACTIVE
 70
     0
 10
0.0
 20
0.0
 11
1.0
 21
1.0
 12
210.0
 22
148.5
 13
0.0
 23
0.0
 14
10.0
 24
10.0
 15
10.0
 25
10.0
 16
0.0
 26
0.0
 36
1.0
 17
0.0
 27
0.0
 37
0.0
 40
341.0
 41
1.24
 42
50.0
 43
0.0
 44
0.0
 50
0.0
 51
0.0
 71
     0
 72
   100
 73
     1
 74
     3
 75
     0
 76
     0
 77
     0
 78
     0
  0
ENDTAB
  0
TABLE
  2
LTYPE
  5
5
330
0
100
AcDbSymbolTable
 70
     1
  0
LTYPE
  5
14
330
5
100
AcDbSymbolTableRecord
100
AcDbLinetypeTableRecord
  2
BYBLOCK
 70
     0
  3

 72
    65
 73
     0
 40
0.0
  0
LTYPE
  5
15
330
5
100
AcDbSymbolTableRecord
100
AcDbLinetypeTableRecord
  2
BYLAYER
 70
     0
  3

 72
    65
 73
     0
 40
0.0
  0
LTYPE
  5
16
330
5
100
AcDbSymbolTableRecord
100
AcDbLinetypeTableRecord
  2
CONTINUOUS
 70
     0
  3
Solid line
 72
    65
 73
     0
 40
0.0
  0
ENDTAB
  0
TABLE
  2
LAYER
  5
2
100
AcDbSymbolTable
 70
1
  0
LAYER
  5
50
100
AcDbSymbolTableRecord
100
AcDbLayerTableRecord
  2
0
 70
0
  6
CONTINUOUS
  0
ENDTAB
  0
TABLE
  2
STYLE
  5
3
330
0
100
AcDbSymbolTable
 70
     1
  0
STYLE
  5
11
330
3
100
AcDbSymbolTableRecord
100
AcDbTextStyleTableRecord
  2
STANDARD
 70
     0
 40
0.0
 41
1.0
 50
0.0
 71
     0
 42
2.5
  3
txt
  4

  0
ENDTAB
  0
TABLE
  2
VIEW
  5
6
330
0
100
AcDbSymbolTable
 70
     0
  0
ENDTAB
  0
TABLE
  2
UCS
  5
7
330
0
100
AcDbSymbolTable
 70
     0
  0
ENDTAB
  0
TABLE
  2
APPID
  5
9
330
0
100
AcDbSymbolTable
 70
     2
  0
APPID
  5
12
330
9
100
AcDbSymbolTableRecord
100
AcDbRegAppTableRecord
  2
ACAD
 70
     0
  0
ENDTAB
  0
TABLE
  2
DIMSTYLE
  5
A
330
0
100
AcDbSymbolTable
 70
     1
  0
DIMSTYLE
105
27
330
A
100
AcDbSymbolTableRecord
100
AcDbDimStyleTableRecord
  2
ISO-25
 70
     0
  3

  4

  5

  6

  7

 40
1.0
 41
2.5
 42
0.625
 43
3.75
 44
1.25
 45
0.0
 46
0.0
 47
0.0
 48
0.0
140
2.5
141
2.5
142
0.0
143
0.03937007874016
144
1.0
145
0.0
146
1.0
147
0.625
 71
     0
 72
     0
 73
     0
 74
     0
 75
     0
 76
     0
 77
     1
 78
     8
170
     0
171
     3
172
     1
173
     0
174
     0
175
     0
176
     0
177
     0
178
     0
270
     2
271
     2
272
     2
273
     2
274
     3
340
11
275
     0
280
     0
281
     0
282
     0
283
     0
284
     8
285
     0
286
     0
287
     3
288
     0
  0
ENDTAB
  0
TABLE
  2
BLOCK_RECORD
  5
1
330
0
100
AcDbSymbolTable
 70
     1
  0
BLOCK_RECORD
  5
1F
330
1
100
AcDbSymbolTableRecord
100
AcDbBlockTableRecord
  2
*MODEL_SPACE
  0
BLOCK_RECORD
  5
1B
330
1
100
AcDbSymbolTableRecord
100
AcDbBlockTableRecord
  2
*PAPER_SPACE
  0
ENDTAB
  0
ENDSEC
  0
SECTION
  2
BLOCKS
  0
BLOCK
  5
20
330
1F
100
AcDbEntity
  8
0
100
AcDbBlockBegin
  2
*MODEL_SPACE
 70
     0
 10
0.0
 20
0.0
 30
0.0
  3
*MODEL_SPACE
  1

  0
ENDBLK
  5
21
330
1F
100
AcDbEntity
  8
0
100
AcDbBlockEnd
  0
BLOCK
  5
1C
330
1B
100
AcDbEntity
 67
     1
  8
0
100
AcDbBlockBegin
  2
*PAPER_SPACE
  1

  0
ENDBLK
  5
1D
330
1B
100
AcDbEntity
 67
     1
  8
0
100
AcDbBlockEnd
  0
ENDSEC
  0
SECTION
  2
ENTITIES
  0
SPLINE
  5
100
100
AcDbEntity
  8
0
 62
7
100
AcDbSpline
 70
8
 71
3
 72
8
 73
4
 74
0
 40
0
 40
0
 40
0
 40
0
 40
1
 40
1
 40
1
 40
1
 10
59.002083
 20
61.647917
 30
0.0
 10
59.002083
 20
53.849479
 30
0.0
 10
54.841666
 20
46.643425
 30
0.0
 10
48.088021
 20
42.744206
 30
0.0
  0
SPLINE
  5
101
100
AcDbEntity
  8
0
 62
7
100
AcDbSpline
 70
8
 71
3
 72
8
 73
4
 74
0
 40
0
 40
0
 40
0
 40
0
 40
1
 40
1
 40
1
 40
1
 10
48.088021
 20
42.744206
 30
0.0
 10
41.334375
 20
38.844987
 30
0.0
 10
33.013541
 20
38.844987
 30
0.0
 10
26.259896
 20
42.744206
 30
0.0
  0
SPLINE
  5
102
100
AcDbEntity
  8
0
 62
7
100
AcDbSpline
 70
8
 71
3
 72
8
 73
4
 74
0
 40
0
 40
0
 40
0
 40
0
 40
1
 40
1
 40
1
 40
1
 10
26.259896
 20
42.744206
 30
0.0
 10
19.506250
 20
46.643425
 30
0.0
 10
15.345833
 20
53.849479
 30
0.0
 10
15.345833
 20
61.647917
 30
0.0
  0
SPLINE
  5
103
100
AcDbEntity
  8
0
 62
7
100
AcDbSpline
 70
8
 71
3
 72
8
 73
4
 74
0
 40
0
 40
0
 40
0
 40
0
 40
1
 40
1
 40
1
 40
1
 10
15.345833
 20
61.647917
 30
0.0
 10
15.345833
 20
69.446355
 30
0.0
 10
19.506250
 20
76.652408
 30
0.0
 10
26.259896
 20
80.551627
 30
0.0
  0
SPLINE
  5
104
100
AcDbEntity
  8
0
 62
7
100
AcDbSpline
 70
8
 71
3
 72
8
 73
4
 74
0
 40
0
 40
0
 40
0
 40
0
 40
1
 40
1
 40
1
 40
1
 10
26.259896
 20
80.551627
 30
0.0
 10
33.013541
 20
84.450846
 30
0.0
 10
41.334375
 20
84.450846
 30
0.0
 10
48.088021
 20
80.551627
 30
0.0
  0
SPLINE
  5
105
100
AcDbEntity
  8
0
 62
7
100
AcDbSpline
 70
8
 71
3
 72
8
 73
4
 74
0
 40
0
 40
0
 40
0
 40
0
 40
1
 40
1
 40
1
 40
1
 10
48.088021
 20
80.551627
 30
0.0
 10
54.841666
 20
76.652408
 30
0.0
 10
59.002083
 20
69.446355
 30
0.0
 10
59.002083
 20
61.647917
 30
0.0
  0
SPLINE
  5
106
100
AcDbEntity
  8
0
 62
7
100
AcDbSpline
 70
8
 71
3
 72
8
 73
4
 74
0
 40
0
 40
0
 40
0
 40
0
 40
1
 40
1
 40
1
 40
1
 10
-35.798272
 20
-16.321099
 30
0.0
 10
-42.672582
 20
-0.610483
 30
0.0
 10
-40.643193
 20
17.574125
 30
0.0
 10
-30.474555
 20
31.382760
 30
0.0
  0
SPLINE
  5
107
100
AcDbEntity
  8
0
 62
7
100
AcDbSpline
 70
8
 71
3
 72
8
 73
4
 74
0
 40
0
 40
0
 40
0
 40
0
 40
1
 40
1
 40
1
 40
1
 10
-30.474555
 20
31.382760
 30
0.0
 10
-20.305918
 20
45.191395
 30
0.0
 10
-3.542890
 20
52.526197
 30
0.0
 10
13.500057
 20
50.624216
 30
0.0
  0
SPLINE
  5
108
100
AcDbEntity
  8
0
 62
7
100
AcDbSpline
 70
8
 71
3
 72
8
 73
4
 74
0
 40
0
 40
0
 40
0
 40
0
 40
1
 40
1
 40
1
 40
1
 10
13.500057
 20
50.624216
 30
0.0
 10
30.543005
 20
48.722235
 30
0.0
 10
45.276643
 20
37.872428
 30
0.0
 10
52.150953
 20
22.161812
 30
0.0
  0
SPLINE
  5
109
100
AcDbEntity
  8
0
 62
7
100
AcDbSpline
 70
8
 71
3
 72
8
 73
4
 74
0
 40
0
 40
0
 40
0
 40
0
 40
1
 40
1
 40
1
 40
1
 10
52.150953
 20
22.161812
 30
0.0
 10
59.025263
 20
6.451196
 30
0.0
 10
56.995874
 20
-11.733413
 30
0.0
 10
46.827236
 20
-25.542048
 30
0.0
  0
SPLINE
  5
10a
100
AcDbEntity
  8
0
 62
7
100
AcDbSpline
 70
8
 71
3
 72
8
 73
4
 74
0
 40
0
 40
0
 40
0
 40
0
 40
1
 40
1
 40
1
 40
1
 10
46.827236
 20
-25.542048
 30
0.0
 10
36.658599
 20
-39.350683
 30
0.0
 10
19.895571
 20
-46.685484
 30
0.0
 10
2.852623
 20
-44.783503
 30
0.0
  0
SPLINE
  5
10b
100
AcDbEntity
  8
0
 62
7
100
AcDbSpline
 70
8
 71
3
 72
8
 73
4
 74
0
 40
0
 40
0
 40
0
 40
0
 40
1
 40
1
 40
1
 40
1
 10
2.852623
 20
-44.783503
 30
0.0
 10
-14.190324
 20
-42.881522
 30
0.0
 10
-28.923962
 20
-32.031715
 30
0.0
 10
-35.798272
 20
-16.321099
 30
0.0
  0
LWPOLYLINE
  5
10c
100
AcDbEntity
  8
0
 62
7
100
AcDbPolyline
 90
1
 70
1
 10
59.002083
 20
61.647917
 30
0.0
  0
LWPOLYLINE
  5
10d
100
AcDbEntity
  8
0
 62
7
100
AcDbPolyline
 90
1
 70
1
 10
-35.798272
 20
-16.321099
 30
0.0
  0
LWPOLYLINE
  5
10e
100
AcDbEntity
  8
0
 62
7
100
AcDbPolyline
 90
12
 70
1
 10
-36.628329
 20
-15.467645
 30
0.0
 10
-51.416985
 20
-19.354059
 30
0.0
 10
-51.949234
 20
-17.328740
 30
0.0
 10
-43.873372
 20
-7.097167
 30
0.0
 10
-43.883427
 20
-7.058954
 30
0.0
 10
-53.570569
 20
-9.604706
 30
0.0
 10
-54.308685
 20
-6.796008
 30
0.0
 10
-39.615562
 20
-2.934700
 30
0.0
 10
-39.083316
 20
-4.960019
 30
0.0
 10
-47.159177
 20
-15.191592
 30
0.0
 10
-47.149123
 20
-15.229806
 30
0.0
 10
-37.366445
 20
-12.658947
 30
0.0
  0
LWPOLYLINE
  5
10f
100
AcDbEntity
  8
0
 62
7
100
AcDbPolyline
 90
39
 70
1
 10
-52.450963
 20
11.958727
 30
0.0
 10
-51.218732
 20
12.783352
 30
0.0
 10
-49.856881
 20
13.342677
 30
0.0
 10
-48.365411
 20
13.636702
 30
0.0
 10
-46.744321
 20
13.665428
 30
0.0
 10
-45.136416
 20
13.440129
 30
0.0
 10
-43.684500
 20
12.972085
 30
0.0
 10
-42.388574
 20
12.261295
 30
0.0
 10
-41.248637
 20
11.307760
 30
0.0
 10
-40.758682
 20
10.752114
 30
0.0
 10
-40.340902
 20
10.159475
 30
0.0
 10
-39.995296
 20
9.529844
 30
0.0
 10
-39.721865
 20
8.863220
 30
0.0
 10
-39.391527
 20
7.418994
 30
0.0
 10
-39.349886
 20
5.826797
 30
0.0
 10
-39.586766
 20
4.251769
 30
0.0
 10
-40.091984
 20
2.859050
 30
0.0
 10
-40.445220
 20
2.231056
 30
0.0
 10
-40.865541
 20
1.648638
 30
0.0
 10
-41.352946
 20
1.111798
 30
0.0
 10
-41.907436
 20
0.620535
 30
0.0
 10
-43.155857
 20
-0.185772
 30
0.0
 10
-44.529271
 20
-0.732013
 30
0.0
 10
-46.027680
 20
-1.018188
 30
0.0
 10
-47.651083
 20
-1.044297
 30
0.0
 10
-49.256447
 20
-0.817918
 30
0.0
 10
-50.700741
 20
-0.346633
 30
0.0
 10
-51.983964
 20
0.369558
 30
0.0
 10
-53.106116
 20
1.330656
 30
0.0
 10
-54.013015
 20
2.492498
 30
0.0
 10
-54.358487
 20
3.124286
 30
0.0
 10
-54.631975
 20
3.789986
 30
0.0
 10
-54.962996
 20
5.223121
 30
0.0
 10
-55.006079
 20
6.791902
 30
0.0
 10
-54.770720
 20
8.342281
 30
0.0
 10
-54.266414
 20
9.720212
 30
0.0
 10
-53.913406
 20
10.344509
 30
0.0
 10
-53.493162
 20
10.925694
 30
0.0
 10
-52.450963
 20
11.958727
 30
0.0
  0
LWPOLYLINE
  5
110
100
AcDbEntity
  8
0
 62
7
100
AcDbPolyline
 90
33
 70
1
 10
-47.047385
 20
10.675564
 30
0.0
 10
-47.980003
 20
10.657594
 30
0.0
 10
-48.865200
 20
10.485777
 30
0.0
 10
-49.702975
 20
10.160116
 30
0.0
 10
-50.493329
 20
9.680609
 30
0.0
 10
-51.171663
 20
9.071727
 30
0.0
 10
-51.673378
 20
8.357940
 30
0.0
 10
-51.998474
 20
7.539249
 30
0.0
 10
-52.146951
 20
6.615655
 30
0.0
 10
-52.113036
 20
5.680816
 30
0.0
 10
-51.890954
 20
4.828395
 30
0.0
 10
-51.480705
 20
4.058392
 30
0.0
 10
-50.882291
 20
3.370808
 30
0.0
 10
-50.156813
 20
2.797860
 30
0.0
 10
-49.365378
 20
2.371768
 30
0.0
 10
-48.507985
 20
2.092532
 30
0.0
 10
-47.584635
 20
1.960152
 30
0.0
 10
-46.683814
 20
1.964001
 30
0.0
 10
-45.795417
 20
2.087375
 30
0.0
 10
-44.933932
 20
2.336114
 30
0.0
 10
-44.113839
 20
2.716059
 30
0.0
 10
-43.382615
 20
3.259828
 30
0.0
 10
-42.787729
 20
4.000034
 30
0.0
 10
-42.388943
 20
4.930466
 30
0.0
 10
-42.209016
 20
6.003044
 30
0.0
 10
-42.256151
 20
7.084671
 30
0.0
 10
-42.538552
 20
8.042249
 30
0.0
 10
-43.037110
 20
8.864704
 30
0.0
 10
-43.695710
 20
9.499095
 30
0.0
 10
-44.462927
 20
9.976888
 30
0.0
 10
-45.287340
 20
10.329553
 30
0.0
 10
-46.153857
 20
10.561104
 30
0.0
 10
-47.047385
 20
10.675564
 30
0.0
  0
LWPOLYLINE
  5
111
100
AcDbEntity
  8
0
 62
7
100
AcDbPolyline
 90
8
 70
1
 10
-52.092037
 20
21.056325
 30
0.0
 10
-41.439185
 20
21.199472
 30
0.0
 10
-41.426432
 20
21.236866
 30
0.0
 10
-49.852683
 20
27.618976
 30
0.0
 10
-48.844652
 20
30.573104
 30
0.0
 10
-36.242490
 20
20.156802
 30
0.0
 10
-36.791164
 20
18.548858
 30
0.0
 10
-53.100076
 20
18.102196
 30
0.0
  0
LWPOLYLINE
  5
112
100
AcDbEntity
  8
0
 62
7
100
AcDbPolyline
 90
12
 70
1
 10
-36.151804
 20
28.559350
 30
0.0
 10
-34.178518
 20
25.825654
 30
0.0
 10
-35.840617
 20
23.253896
 30
0.0
 10
-45.530196
 20
36.431717
 30
0.0
 10
-44.307749
 20
38.323205
 30
0.0
 10
-28.398700
 20
34.768742
 30
0.0
 10
-30.082247
 20
32.163798
 30
0.0
 10
-33.342321
 20
32.906454
 30
0.0
 10
-35.773013
 20
33.512969
 30
0.0
 10
-41.327202
 20
34.891485
 30
0.0
 10
-41.348660
 20
34.858301
 30
0.0
 10
-37.692481
 20
30.543003
 30
0.0
  0
LWPOLYLINE
  5
113
100
AcDbEntity
  8
0
 62
7
100
AcDbPolyline
 90
6
 70
1
 10
-30.844437
 20
54.947833
 30
0.0
 10
-22.371589
 20
43.635361
 30
0.0
 10
-18.612812
 20
46.450623
 30
0.0
 10
-16.880345
 20
44.137530
 30
0.0
 10
-23.295565
 20
39.332638
 30
0.0
 10
-33.500880
 20
52.958204
 30
0.0
  0
LWPOLYLINE
  5
114
100
AcDbEntity
  8
0
 62
7
100
AcDbPolyline
 90
30
 70
1
 10
-10.930283
 20
59.075690
 30
0.0
 10
-6.447834
 20
48.936648
 30
0.0
 10
-9.297503
 20
47.676816
 30
0.0
 10
-9.708318
 20
48.606056
 30
0.0
 10
-9.749618
 20
48.587800
 30
0.0
 10
-10.041585
 20
47.799920
 30
0.0
 10
-10.503831
 20
47.124988
 30
0.0
 10
-11.136354
 20
46.563007
 30
0.0
 10
-11.939156
 20
46.113975
 30
0.0
 10
-12.994780
 20
45.769173
 30
0.0
 10
-14.034725
 20
45.675074
 30
0.0
 10
-15.058991
 20
45.831678
 30
0.0
 10
-16.067578
 20
46.238986
 30
0.0
 10
-16.994679
 20
46.845863
 30
0.0
 10
-17.795136
 20
47.592044
 30
0.0
 10
-18.468950
 20
48.477527
 30
0.0
 10
-19.016121
 20
49.502314
 30
0.0
 10
-19.396708
 20
50.576060
 30
0.0
 10
-19.589029
 20
51.649725
 30
0.0
 10
-19.593084
 20
52.723306
 30
0.0
 10
-19.408874
 20
53.796806
 30
0.0
 10
-19.029932
 20
54.806738
 30
0.0
 10
-18.461312
 20
55.659840
 30
0.0
 10
-17.703015
 20
56.356112
 30
0.0
 10
-16.755040
 20
56.895553
 30
0.0
 10
-15.892382
 20
57.181274
 30
0.0
 10
-15.038991
 20
57.271583
 30
0.0
 10
-14.194867
 20
57.166482
 30
0.0
 10
-13.360008
 20
56.865970
 30
0.0
 10
-13.779953
 20
57.815858
 30
0.0
  0
LWPOLYLINE
  5
115
100
AcDbEntity
  8
0
 62
7
100
AcDbPolyline
 90
33
 70
1
 10
-14.528396
 20
49.067117
 30
0.0
 10
-13.996694
 20
48.848580
 30
0.0
 10
-13.466458
 20
48.758995
 30
0.0
 10
-12.937689
 20
48.798362
 30
0.0
 10
-12.410387
 20
48.966681
 30
0.0
 10
-11.931013
 20
49.243411
 30
0.0
 10
-11.546029
 20
49.608012
 30
0.0
 10
-11.255436
 20
50.060484
 30
0.0
 10
-11.059233
 20
50.600827
 30
0.0
 10
-10.963086
 20
51.189506
 30
0.0
 10
-10.963531
 20
51.766340
 30
0.0
 10
-11.060567
 20
52.331327
 30
0.0
 10
-11.254196
 20
52.884470
 30
0.0
 10
-11.532434
 20
53.398663
 30
0.0
 10
-11.883300
 20
53.846805
 30
0.0
 10
-12.306793
 20
54.228895
 30
0.0
 10
-12.802915
 20
54.544934
 30
0.0
 10
-13.334617
 20
54.763471
 30
0.0
 10
-13.864852
 20
54.853056
 30
0.0
 10
-14.393621
 20
54.813688
 30
0.0
 10
-14.920924
 20
54.645370
 30
0.0
 10
-15.400298
 20
54.368639
 30
0.0
 10
-15.785282
 20
54.004038
 30
0.0
 10
-16.075875
 20
53.551566
 30
0.0
 10
-16.272078
 20
53.011223
 30
0.0
 10
-16.363184
 20
52.435572
 30
0.0
 10
-16.359139
 20
51.868045
 30
0.0
 10
-16.259943
 20
51.308641
 30
0.0
 10
-16.065594
 20
50.757360
 30
0.0
 10
-15.788076
 20
50.241305
 30
0.0
 10
-15.439370
 20
49.787580
 30
0.0
 10
-15.019477
 20
49.396184
 30
0.0
 10
-14.528396
 20
49.067117
 30
0.0
  0
LWPOLYLINE
  5
116
100
AcDbEntity
  8
0
 62
7
100
AcDbPolyline
 90
30
 70
1
 10
-4.220907
 20
49.596416
 30
0.0
 10
-7.108485
 20
68.523369
 30
0.0
 10
-3.983752
 20
69.000092
 30
0.0
 10
-2.614877
 20
60.027645
 30
0.0
 10
-2.089175
 20
60.717364
 30
0.0
 10
-1.442652
 20
61.251369
 30
0.0
 10
-0.675306
 20
61.629660
 30
0.0
 10
0.212863
 20
61.852236
 30
0.0
 10
1.292643
 20
61.904205
 30
0.0
 10
2.300031
 20
61.719594
 30
0.0
 10
3.235028
 20
61.298403
 30
0.0
 10
4.097633
 20
60.640632
 30
0.0
 10
4.840959
 20
59.829057
 30
0.0
 10
5.421524
 20
58.924132
 30
0.0
 10
5.839329
 20
57.925860
 30
0.0
 10
6.094372
 20
56.834238
 30
0.0
 10
6.184101
 20
55.666008
 30
0.0
 10
6.088936
 20
54.549506
 30
0.0
 10
5.808876
 20
53.484732
 30
0.0
 10
5.343922
 20
52.471688
 30
0.0
 10
4.719395
 20
51.597025
 30
0.0
 10
3.941699
 20
50.921675
 30
0.0
 10
3.010835
 20
50.445638
 30
0.0
 10
1.926804
 20
50.168913
 30
0.0
 10
1.059462
 20
50.127943
 30
0.0
 10
0.198358
 20
50.270638
 30
0.0
 10
-0.583970
 20
50.608063
 30
0.0
 10
-1.208173
 20
51.106647
 30
0.0
 10
-1.252812
 20
51.099847
 30
0.0
 10
-1.096174
 20
50.073150
 30
0.0
  0
LWPOLYLINE
  5
117
100
AcDbEntity
  8
0
 62
7
100
AcDbPolyline
 90
33
 70
1
 10
-1.205197
 20
53.482359
 30
0.0
 10
-0.749246
 20
53.132254
 30
0.0
 10
-0.260953
 20
52.906988
 30
0.0
 10
0.259682
 20
52.806561
 30
0.0
 10
0.812659
 20
52.830973
 30
0.0
 10
1.346364
 20
52.972351
 30
0.0
 10
1.809183
 20
53.222818
 30
0.0
 10
2.201115
 20
53.582375
 30
0.0
 10
2.522162
 20
54.051023
 30
0.0
 10
2.769061
 20
54.594003
 30
0.0
 10
2.919636
 20
55.150837
 30
0.0
 10
2.973885
 20
55.721525
 30
0.0
 10
2.931811
 20
56.306066
 30
0.0
 10
2.797881
 20
56.875166
 30
0.0
 10
2.576565
 20
57.399529
 30
0.0
 10
2.267864
 20
57.879157
 30
0.0
 10
1.871776
 20
58.314050
 30
0.0
 10
1.425590
 20
58.665645
 30
0.0
 10
0.944271
 20
58.891976
 30
0.0
 10
0.427821
 20
58.993041
 30
0.0
 10
-0.123761
 20
58.968841
 30
0.0
 10
-0.658860
 20
58.827252
 30
0.0
 10
-1.125864
 20
58.576147
 30
0.0
 10
-1.524772
 20
58.215525
 30
0.0
 10
-1.855583
 20
57.745387
 30
0.0
 10
-2.094207
 20
57.213660
 30
0.0
 10
-2.238871
 20
56.664865
 30
0.0
 10
-2.289574
 20
56.099001
 30
0.0
 10
-2.246318
 20
55.516068
 30
0.0
 10
-2.113570
 20
54.945361
 30
0.0
 10
-1.895801
 20
54.416174
 30
0.0
 10
-1.593010
 20
53.928507
 30
0.0
 10
-1.205197
 20
53.482359
 30
0.0
  0
LWPOLYLINE
  5
118
100
AcDbEntity
  8
0
 62
7
100
AcDbPolyline
 90
66
 70
1
 10
16.278714
 20
60.765764
 30
0.0
 10
14.783724
 20
59.049769
 30
0.0
 10
14.402330
 20
59.416911
 30
0.0
 10
14.007724
 20
59.688844
 30
0.0
 10
13.599906
 20
59.865568
 30
0.0
 10
13.178877
 20
59.947082
 30
0.0
 10
12.790455
 20
59.904275
 30
0.0
 10
12.435447
 20
59.711601
 30
0.0
 10
12.175475
 20
59.432121
 30
0.0
 10
12.068590
 20
59.083882
 30
0.0
 10
12.147216
 20
58.647322
 30
0.0
 10
12.480559
 20
58.281160
 30
0.0
 10
12.956084
 20
57.994317
 30
0.0
 10
13.566652
 20
57.696767
 30
0.0
 10
14.220449
 20
57.373139
 30
0.0
 10
15.107819
 20
56.781854
 30
0.0
 10
15.770663
 20
56.072482
 30
0.0
 10
16.015700
 20
55.663777
 30
0.0
 10
16.175939
 20
55.185358
 30
0.0
 10
16.251380
 20
54.637224
 30
0.0
 10
16.242022
 20
54.019376
 30
0.0
 10
16.096208
 20
53.180198
 30
0.0
 10
15.799760
 20
52.440729
 30
0.0
 10
15.352678
 20
51.800968
 30
0.0
 10
14.754962
 20
51.260915
 30
0.0
 10
14.064150
 20
50.849980
 30
0.0
 10
13.313488
 20
50.576853
 30
0.0
 10
12.502978
 20
50.441533
 30
0.0
 10
11.632617
 20
50.444019
 30
0.0
 10
10.512187
 20
50.648939
 30
0.0
 10
9.514147
 20
51.076303
 30
0.0
 10
8.638495
 20
51.726111
 30
0.0
 10
7.885232
 20
52.598362
 30
0.0
 10
9.473821
 20
54.352230
 30
0.0
 10
10.006059
 20
53.745225
 30
0.0
 10
10.556640
 20
53.298138
 30
0.0
 10
11.125565
 20
53.010967
 30
0.0
 10
11.712832
 20
52.883713
 30
0.0
 10
12.214236
 20
52.923224
 30
0.0
 10
12.638104
 20
53.127423
 30
0.0
 10
12.938976
 20
53.494255
 30
0.0
 10
13.067822
 20
53.976646
 30
0.0
 10
12.992766
 20
54.458219
 30
0.0
 10
12.874678
 20
54.682745
 30
0.0
 10
12.664777
 20
54.891903
 30
0.0
 10
12.213544
 20
55.199468
 30
0.0
 10
11.604761
 20
55.519526
 30
0.0
 10
10.994194
 20
55.817077
 30
0.0
 10
10.110665
 20
56.385406
 30
0.0
 10
9.459348
 20
57.025918
 30
0.0
 10
9.231104
 20
57.396487
 30
0.0
 10
9.081586
 20
57.831590
 30
0.0
 10
9.010793
 20
58.331227
 30
0.0
 10
9.018725
 20
58.895398
 30
0.0
 10
9.138109
 20
59.633337
 30
0.0
 10
9.373115
 20
60.294162
 30
0.0
 10
9.723742
 20
60.877873
 30
0.0
 10
10.189991
 20
61.384468
 30
0.0
 10
10.755452
 20
61.785525
 30
0.0
 10
11.381209
 20
62.054402
 30
0.0
 10
12.067261
 20
62.191098
 30
0.0
 10
12.813609
 20
62.195615
 30
0.0
 10
13.874196
 20
62.039322
 30
0.0
 10
14.805242
 20
61.748916
 30
0.0
 10
15.606748
 20
61.324397
 30
0.0
 10
16.278714
 20
60.765764
 30
0.0
  0
LWPOLYLINE
  5
119
100
AcDbEntity
  8
0
 62
7
100
AcDbPolyline
 90
21
 70
1
 10
12.757591
 20
-53.789694
 30
0.0
 10
13.287519
 20
-59.135595
 30
0.0
 10
10.500828
 20
-59.411833
 30
0.0
 10
9.083926
 20
-45.118189
 30
0.0
 10
12.875344
 20
-44.742351
 30
0.0
 10
14.041855
 20
-44.696711
 30
0.0
 10
15.067489
 20
-44.805021
 30
0.0
 10
15.952246
 20
-45.067282
 30
0.0
 10
16.696126
 20
-45.483493
 30
0.0
 10
17.299128
 20
-46.053655
 30
0.0
 10
17.761253
 20
-46.777767
 30
0.0
 10
18.082501
 20
-47.655831
 30
0.0
 10
18.262872
 20
-48.687844
 30
0.0
 10
18.294295
 20
-49.753169
 30
0.0
 10
18.164941
 20
-50.693248
 30
0.0
 10
17.874812
 20
-51.508082
 30
0.0
 10
17.423905
 20
-52.197672
 30
0.0
 10
16.819577
 20
-52.751717
 30
0.0
 10
16.071060
 20
-53.178873
 30
0.0
 10
15.178353
 20
-53.479139
 30
0.0
 10
14.141458
 20
-53.652515
 30
0.0
  0
LWPOLYLINE
  5
11a
100
AcDbEntity
  8
0
 62
7
100
AcDbPolyline
 90
17
 70
1
 10
12.099878
 20
-47.154714
 30
0.0
 10
12.528331
 20
-51.476931
 30
0.0
 10
13.097044
 20
-51.420554
 30
0.0
 10
14.242151
 20
-51.192182
 30
0.0
 10
14.664070
 20
-51.006783
 30
0.0
 10
14.985566
 20
-50.773909
 30
0.0
 10
15.223130
 20
-50.466799
 30
0.0
 10
15.374295
 20
-50.060572
 30
0.0
 10
15.439062
 20
-49.555227
 30
0.0
 10
15.417429
 20
-48.950766
 30
0.0
 10
15.319478
 20
-48.373013
 30
0.0
 10
15.151530
 20
-47.909880
 30
0.0
 10
14.913584
 20
-47.561368
 30
0.0
 10
14.605641
 20
-47.327476
 30
0.0
 10
14.222630
 20
-47.181189
 30
0.0
 10
13.759480
 20
-47.095489
 30
0.0
 10
12.592762
 20
-47.105856
 30
0.0
  0
LWPOLYLINE
  5
11b
100
AcDbEntity
  8
0
 62
7
100
AcDbPolyline
 90
21
 70
1
 10
24.331352
 20
-51.668370
 30
0.0
 10
25.952546
 20
-56.790011
 30
0.0
 10
23.282755
 20
-57.635100
 30
0.0
 10
18.948073
 20
-43.941074
 30
0.0
 10
22.580441
 20
-42.791290
 30
0.0
 10
23.712454
 20
-42.506022
 30
0.0
 10
24.738374
 20
-42.400452
 30
0.0
 10
25.658200
 20
-42.474581
 30
0.0
 10
26.471933
 20
-42.728407
 30
0.0
 10
27.179572
 20
-43.161932
 30
0.0
 10
27.781117
 20
-43.775155
 30
0.0
 10
28.276569
 20
-44.568075
 30
0.0
 10
28.665927
 20
-45.540695
 30
0.0
 10
28.916412
 20
-46.576628
 30
0.0
 10
28.983744
 20
-47.523173
 30
0.0
 10
28.867923
 20
-48.380329
 30
0.0
 10
28.568949
 20
-49.148095
 30
0.0
 10
28.091895
 20
-49.814877
 30
0.0
 10
27.447580
 20
-50.387238
 30
0.0
 10
26.636004
 20
-50.865180
 30
0.0
 10
25.657166
 20
-51.248702
 30
0.0
  0
LWPOLYLINE
  5
11c
100
AcDbEntity
  8
0
 62
7
100
AcDbPolyline
 90
17
 70
1
 10
22.319231
 20
-45.311727
 30
0.0
 10
23.629984
 20
-49.452628
 30
0.0
 10
24.174839
 20
-49.280159
 30
0.0
 10
25.248218
 20
-48.820505
 30
0.0
 10
25.622824
 20
-48.552066
 30
0.0
 10
25.889373
 20
-48.257886
 30
0.0
 10
26.058483
 20
-47.908379
 30
0.0
 10
26.122608
 20
-47.479707
 30
0.0
 10
26.081748
 20
-46.971870
 30
0.0
 10
25.935903
 20
-46.384869
 30
0.0
 10
25.720889
 20
-45.839744
 30
0.0
 10
25.461025
 20
-45.421213
 30
0.0
 10
25.156311
 20
-45.129274
 30
0.0
 10
24.806747
 20
-44.963929
 30
0.0
 10
24.401798
 20
-44.899787
 30
0.0
 10
23.930930
 20
-44.911461
 30
0.0
 10
22.791439
 20
-45.162256
 30
0.0
  0
LWPOLYLINE
  5
11d
100
AcDbEntity
  8
0
 62
7
100
AcDbPolyline
 90
12
 70
1
 10
36.085256
 20
-39.199230
 30
0.0
 10
32.043013
 20
-41.455179
 30
0.0
 10
33.584115
 20
-44.216545
 30
0.0
 10
37.476644
 20
-42.044149
 30
0.0
 10
38.664965
 20
-44.173397
 30
0.0
 10
34.772433
 20
-46.345793
 30
0.0
 10
36.666318
 20
-49.739280
 30
0.0
 10
40.708561
 20
-47.483329
 30
0.0
 10
41.896879
 20
-49.612576
 30
0.0
 10
35.409330
 20
-53.233238
 30
0.0
 10
28.409387
 20
-40.690644
 30
0.0
 10
34.896936
 20
-37.069982
 30
0.0
  0
LWPOLYLINE
  5
11e
100
AcDbEntity
  8
0
 62
7
100
AcDbPolyline
 90
55
 70
1
 10
45.235347
 20
-28.615905
 30
0.0
 10
47.554068
 20
-31.037638
 30
0.0
 10
46.609643
 20
-31.018800
 30
0.0
 10
45.738485
 20
-31.193552
 30
0.0
 10
44.940593
 20
-31.561894
 30
0.0
 10
44.215968
 20
-32.123827
 30
0.0
 10
43.619721
 20
-32.823285
 30
0.0
 10
43.220725
 20
-33.591028
 30
0.0
 10
43.018981
 20
-34.427058
 30
0.0
 10
43.014487
 20
-35.331374
 30
0.0
 10
43.188507
 20
-36.236200
 30
0.0
 10
43.508543
 20
-37.086937
 30
0.0
 10
43.974596
 20
-37.883583
 30
0.0
 10
44.586665
 20
-38.626140
 30
0.0
 10
45.284678
 20
-39.250145
 30
0.0
 10
46.048085
 20
-39.732414
 30
0.0
 10
46.876888
 20
-40.072949
 30
0.0
 10
47.771087
 20
-40.271748
 30
0.0
 10
48.666656
 20
-40.291208
 30
0.0
 10
49.498986
 20
-40.120665
 30
0.0
 10
50.268077
 20
-39.760118
 30
0.0
 10
50.973929
 20
-39.209567
 30
0.0
 10
51.527543
 20
-38.534445
 30
0.0
 10
51.922476
 20
-37.721140
 30
0.0
 10
52.160999
 20
-36.820226
 30
0.0
 10
52.217860
 20
-35.908628
 30
0.0
 10
54.523407
 20
-38.316604
 30
0.0
 10
54.145528
 20
-39.197647
 30
0.0
 10
53.726222
 20
-39.970002
 30
0.0
 10
53.265489
 20
-40.633668
 30
0.0
 10
52.763327
 20
-41.188645
 30
0.0
 10
51.636683
 20
-42.076155
 30
0.0
 10
50.403287
 20
-42.683452
 30
0.0
 10
49.063138
 20
-43.010537
 30
0.0
 10
47.616237
 20
-43.057411
 30
0.0
 10
46.178594
 20
-42.833329
 30
0.0
 10
44.852455
 20
-42.360726
 30
0.0
 10
43.637821
 20
-41.639600
 30
0.0
 10
42.534692
 20
-40.669953
 30
0.0
 10
41.881763
 20
-39.908824
 30
0.0
 10
41.332656
 20
-39.097740
 30
0.0
 10
40.887370
 20
-38.236703
 30
0.0
 10
40.545906
 20
-37.325713
 30
0.0
 10
40.320396
 20
-36.387767
 30
0.0
 10
40.222971
 20
-35.445869
 30
0.0
 10
40.253630
 20
-34.500017
 30
0.0
 10
40.412374
 20
-33.550212
 30
0.0
 10
40.705351
 20
-32.623534
 30
0.0
 10
41.124950
 20
-31.760239
 30
0.0
 10
41.671170
 20
-30.960327
 30
0.0
 10
42.344012
 20
-30.223796
 30
0.0
 10
42.978795
 20
-29.688543
 30
0.0
 10
43.672278
 20
-29.242144
 30
0.0
 10
44.424462
 20
-28.884597
 30
0.0
 10
45.235347
 20
-28.615905
 30
0.0
  0
LWPOLYLINE
  5
11f
100
AcDbEntity
  8
0
 62
7
100
AcDbPolyline
 90
12
 70
1
 10
52.075601
 20
-27.986254
 30
0.0
 10
54.859457
 20
-23.615999
 30
0.0
 10
50.087522
 20
-20.576275
 30
0.0
 10
51.592033
 20
-18.214409
 30
0.0
 10
63.706637
 20
-25.931418
 30
0.0
 10
62.202129
 20
-28.293282
 30
0.0
 10
56.787510
 20
-24.844169
 30
0.0
 10
54.003654
 20
-29.214424
 30
0.0
 10
59.418273
 20
-32.663537
 30
0.0
 10
57.913762
 20
-35.025404
 30
0.0
 10
45.799158
 20
-27.308395
 30
0.0
 10
47.303669
 20
-24.946531
 30
0.0
  0
LWPOLYLINE
  5
120
100
AcDbEntity
  8
0
 62
7
100
AcDbPolyline
 90
8
 70
1
 10
65.390691
 20
-12.980202
 30
0.0
 10
63.849515
 20
-17.727396
 30
0.0
 10
66.365739
 20
-19.786073
 30
0.0
 10
65.453974
 20
-22.594528
 30
0.0
 10
53.159234
 20
-12.714579
 30
0.0
 10
53.829820
 20
-10.649006
 30
0.0
 10
69.536329
 20
-10.019898
 30
0.0
 10
68.612798
 20
-12.864592
 30
0.0
  0
LWPOLYLINE
  5
121
100
AcDbEntity
  8
0
 62
7
100
AcDbPolyline
 90
4
 70
1
 10
62.975228
 20
-13.017201
 30
0.0
 10
57.457663
 20
-13.108628
 30
0.0
 10
57.445889
 20
-13.144865
 30
0.0
 10
61.922276
 20
-16.260514
 30
0.0
  0
LWPOLYLINE
  5
122
100
AcDbEntity
  8
0
 62
7
100
AcDbPolyline
 90
6
 70
1
 10
55.907408
 20
-2.031854
 30
0.0
 10
67.770732
 20
-3.246070
 30
0.0
 10
68.174177
 20
0.695738
 30
0.0
 10
70.599906
 20
0.447463
 30
0.0
 10
69.911333
 20
-6.280142
 30
0.0
 10
55.622280
 20
-4.817652
 30
0.0
  0
LWPOLYLINE
  5
123
100
AcDbEntity
  8
0
 62
7
100
AcDbPolyline
 90
6
 70
1
 10
56.054919
 20
6.076476
 30
0.0
 10
67.954911
 20
6.852976
 30
0.0
 10
67.696905
 20
10.806967
 30
0.0
 10
70.130130
 20
10.965741
 30
0.0
 10
70.570476
 20
4.217342
 30
0.0
 10
56.237259
 20
3.282069
 30
0.0
  0
LWPOLYLINE
  5
124
100
AcDbEntity
  8
0
 62
7
100
AcDbPolyline
 90
12
 70
1
 10
56.136744
 20
18.975178
 30
0.0
 10
57.269134
 20
14.486670
 30
0.0
 10
60.335358
 20
15.260235
 30
0.0
 10
59.244910
 20
19.582506
 30
0.0
 10
61.609227
 20
20.178990
 30
0.0
 10
62.699678
 20
15.856723
 30
0.0
 10
66.467807
 20
16.807371
 30
0.0
 10
65.335417
 20
21.295881
 30
0.0
 10
67.699737
 20
21.892366
 30
0.0
 10
69.517154
 20
14.688585
 30
0.0
 10
55.589842
 20
11.174913
 30
0.0
 10
53.772424
 20
18.378694
 30
0.0
  0
LWPOLYLINE
  5
125
100
AcDbEntity
  8
0
 62
7
100
AcDbPolyline
 90
12
 70
1
 10
66.258713
 20
26.441710
 30
0.0
 10
53.217601
 20
19.561625
 30
0.0
 10
52.275367
 20
21.347618
 30
0.0
 10
57.625850
 20
32.721166
 30
0.0
 10
57.608070
 20
32.754864
 30
0.0
 10
49.065638
 20
28.248142
 30
0.0
 10
47.758956
 20
30.724943
 30
0.0
 10
60.715824
 20
37.560581
 30
0.0
 10
61.658056
 20
35.774588
 30
0.0
 10
56.307575
 20
24.401042
 30
0.0
 10
56.325355
 20
24.367344
 30
0.0
 10
64.952033
 20
28.918509
 30
0.0
  0
LWPOLYLINE
  5
126
100
AcDbEntity
  8
0
 62
7
100
AcDbPolyline
 90
75
 70
1
 10
47.524845
 20
40.889050
 30
0.0
 10
43.259097
 20
45.376253
 30
0.0
 10
43.521426
 20
45.625634
 30
0.0
 10
44.684523
 20
46.593335
 30
0.0
 10
45.909497
 20
47.343875
 30
0.0
 10
47.182714
 20
47.870861
 30
0.0
 10
48.490537
 20
48.167901
 30
0.0
 10
49.147678
 20
48.211069
 30
0.0
 10
49.807783
 20
48.171630
 30
0.0
 10
50.470850
 20
48.049582
 30
0.0
 10
51.136881
 20
47.844927
 30
0.0
 10
51.784642
 20
47.550623
 30
0.0
 10
52.406708
 20
47.172752
 30
0.0
 10
53.003079
 20
46.711314
 30
0.0
 10
53.573754
 20
46.166310
 30
0.0
 10
54.203891
 20
45.408416
 30
0.0
 10
54.703011
 20
44.598255
 30
0.0
 10
55.071114
 20
43.735825
 30
0.0
 10
55.308201
 20
42.821127
 30
0.0
 10
55.405025
 20
41.888081
 30
0.0
 10
55.379268
 20
40.969927
 30
0.0
 10
55.230931
 20
40.066664
 30
0.0
 10
54.960015
 20
39.178293
 30
0.0
 10
54.578728
 20
38.321349
 30
0.0
 10
54.099278
 20
37.512365
 30
0.0
 10
53.521666
 20
36.751342
 30
0.0
 10
52.845891
 20
36.038279
 30
0.0
 10
51.653360
 20
35.072166
 30
0.0
 10
50.381499
 20
34.365763
 30
0.0
 10
49.030308
 20
33.919072
 30
0.0
 10
47.599785
 20
33.732092
 30
0.0
 10
46.172796
 20
33.817883
 30
0.0
 10
44.846009
 20
34.202636
 30
0.0
 10
43.619425
 20
34.886350
 30
0.0
 10
42.493044
 20
35.869025
 30
0.0
 10
41.911786
 20
36.561677
 30
0.0
 10
41.441176
 20
37.300376
 30
0.0
 10
41.081213
 20
38.085120
 30
0.0
 10
40.831897
 20
38.915912
 30
0.0
 10
40.701090
 20
39.770653
 30
0.0
 10
40.696656
 20
40.627250
 30
0.0
 10
40.818593
 20
41.485703
 30
0.0
 10
41.066903
 20
42.346012
 30
0.0
 10
43.739676
 20
41.469908
 30
0.0
 10
43.454305
 20
40.442945
 30
0.0
 10
43.457945
 20
39.388457
 30
0.0
 10
43.563475
 20
38.866170
 30
0.0
 10
43.745732
 20
38.380681
 30
0.0
 10
44.004716
 20
37.931990
 30
0.0
 10
44.340425
 20
37.520097
 30
0.0
 10
45.027301
 20
36.940992
 30
0.0
 10
45.788513
 20
36.570548
 30
0.0
 10
46.624061
 20
36.408765
 30
0.0
 10
47.533946
 20
36.455644
 30
0.0
 10
48.446621
 20
36.679308
 30
0.0
 10
49.303660
 20
37.034074
 30
0.0
 10
50.105065
 20
37.519941
 30
0.0
 10
50.850834
 20
38.136909
 30
0.0
 10
51.652094
 20
39.049760
 30
0.0
 10
52.260992
 20
40.082012
 30
0.0
 10
52.622982
 20
41.208095
 30
0.0
 10
52.683518
 20
42.402443
 30
0.0
 10
52.583057
 20
42.991977
 30
0.0
 10
52.385670
 20
43.545223
 30
0.0
 10
52.091358
 20
44.062182
 30
0.0
 10
51.700120
 20
44.542853
 30
0.0
 10
51.223795
 20
44.955776
 30
0.0
 10
50.687342
 20
45.255686
 30
0.0
 10
50.090763
 20
45.442582
 30
0.0
 10
49.434057
 20
45.516464
 30
0.0
 10
48.771951
 20
45.476791
 30
0.0
 10
48.159173
 20
45.323019
 30
0.0
 10
47.595722
 20
45.055148
 30
0.0
 10
47.081599
 20
44.673179
 30
0.0
 10
49.181658
 20
42.464096
 30
0.0
  0
SPLINE
  5
127
100
AcDbEntity
  8
0
 62
7
100
AcDbSpline
 70
8
 71
3
 72
8
 73
4
 74
0
 40
0
 40
0
 40
0
 40
0
 40
1
 40
1
 40
1
 40
1
 10
9.462566
 20
-59.312651
 30
0.0
 10
31.696267
 20
-58.889176
 30
0.0
 10
52.015133
 20
-46.636331
 30
0.0
 10
62.765243
 20
-27.169643
 30
0.0
  0
SPLINE
  5
128
100
AcDbEntity
  8
0
 62
7
100
AcDbSpline
 70
8
 71
3
 72
8
 73
4
 74
0
 40
0
 40
0
 40
0
 40
0
 40
1
 40
1
 40
1
 40
1
 10
62.765243
 20
-27.169643
 30
0.0
 10
73.515353
 20
-7.702956
 30
0.0
 10
73.063511
 20
16.020121
 30
0.0
 10
61.579920
 20
35.063333
 30
0.0
  0
SPLINE
  5
129
100
AcDbEntity
  8
0
 62
7
100
AcDbSpline
 70
8
 71
3
 72
8
 73
4
 74
0
 40
0
 40
0
 40
0
 40
0
 40
1
 40
1
 40
1
 40
1
 10
61.579920
 20
35.063333
 30
0.0
 10
50.096329
 20
54.106545
 30
0.0
 10
29.325621
 20
65.576777
 30
0.0
 10
7.091920
 20
65.153301
 30
0.0
  0
SPLINE
  5
12a
100
AcDbEntity
  8
0
 62
7
100
AcDbSpline
 70
8
 71
3
 72
8
 73
4
 74
0
 40
0
 40
0
 40
0
 40
0
 40
1
 40
1
 40
1
 40
1
 10
7.091920
 20
65.153301
 30
0.0
 10
-15.141781
 20
64.729826
 30
0.0
 10
-35.460647
 20
52.476981
 30
0.0
 10
-46.210757
 20
33.010293
 30
0.0
  0
SPLINE
  5
12b
100
AcDbEntity
  8
0
 62
7
100
AcDbSpline
 70
8
 71
3
 72
8
 73
4
 74
0
 40
0
 40
0
 40
0
 40
0
 40
1
 40
1
 40
1
 40
1
 10
-46.210757
 20
33.010293
 30
0.0
 10
-56.960867
 20
13.543606
 30
0.0
 10
-56.509025
 20
-10.179471
 30
0.0
 10
-45.025434
 20
-29.222683
 30
0.0
  0
SPLINE
  5
12c
100
AcDbEntity
  8
0
 62
7
100
AcDbSpline
 70
8
 71
3
 72
8
 73
4
 74
0
 40
0
 40
0
 40
0
 40
0
 40
1
 40
1
 40
1
 40
1
 10
-45.025434
 20
-29.222683
 30
0.0
 10
-33.541843
 20
-48.265895
 30
0.0
 10
-12.771135
 20
-59.736126
 30
0.0
 10
9.462566
 20
-59.312651
 30
0.0
  0
LWPOLYLINE
  5
12d
100
AcDbEntity
  8
0
 62
7
100
AcDbPolyline
 90
12
 70
1
 10
32.549335
 20
47.173970
 30
0.0
 10
36.425883
 20
44.643868
 30
0.0
 10
38.154263
 20
47.292043
 30
0.0
 10
34.421294
 20
49.728438
 30
0.0
 10
35.754022
 20
51.770404
 30
0.0
 10
39.486993
 20
49.334013
 30
0.0
 10
41.611029
 20
52.588395
 30
0.0
 10
37.734481
 20
55.118497
 30
0.0
 10
39.067211
 20
57.160464
 30
0.0
 10
45.288830
 20
53.099809
 30
0.0
 10
37.438227
 20
41.071345
 30
0.0
 10
31.216608
 20
45.132003
 30
0.0
  0
LWPOLYLINE
  5
12e
100
AcDbEntity
  8
0
 62
7
100
AcDbPolyline
 90
1
 70
1
 10
9.462566
 20
-59.312651
 30
0.0
  0
ENDSEC
  0
SECTION
  2
OBJECTS
  0
DICTIONARY
  5
C
330
0
100
AcDbDictionary
  3
ACAD_GROUP
350
D
  3
ACAD_MLINESTYLE
350
17
  0
DICTIONARY
  5
D
330
C
100
AcDbDictionary
  0
DICTIONARY
  5
1A
330
C
100
AcDbDictionary
  0
DICTIONARY
  5
17
330
C
100
AcDbDictionary
  3
STANDARD
350
18
  0
DICTIONARY
  5
19
330
C
100
AcDbDictionary
  0
ENDSEC
  0
EOF
