<svg xmlns="http://www.w3.org/2000/svg" viewBox="0 0 544.7 215.92"><defs><style>.cls-1{fill:#616264;}.cls-2{fill:#58595b;}.cls-3{fill:#f36e3d;}</style></defs><title>New-NOVALabsTM</title><g id="gear"><path id="path198" class="cls-1" d="M87.82,233.2l-.06.12.06-.12" transform="translate(-41.88 -63.51)"/><path id="path210" class="cls-1" d="M81.94,243.2l-.06.11.06-.11" transform="translate(-41.88 -63.51)"/><path id="path214" class="cls-1" d="M77,253.32l-.06.12.06-.12" transform="translate(-41.88 -63.51)"/><path id="path222" class="cls-1" d="M70.86,263.71l-.06.12.06-.12" transform="translate(-41.88 -63.51)"/><path class="cls-2" d="M216.9,181.44c.16-.64.31-1.27.45-1.92s.28-1.23.4-1.86c0,0,0-.07,0-.1.25-1.24.47-2.48.66-3.73s.33-2.56.45-3.83l20.56-7.76-.86-13-21.42-5c-.28-1.2-.57-2.39-.91-3.58s-.72-2.32-1.11-3.48c-.77-2.32-1.64-4.58-2.62-6.8l14.06-16.88v-.05l-7.16-10.78v-.05l-21.07,6.25-.25-.25a78.14,78.14,0,0,0-11.44-10.08l3.63-21.72-11.64-5.74-15.07,16a78.08,78.08,0,0,0-15.22-3l-.45-1.16c0-.06,0-.14-.05-.2v-.1l-3.43-9.07-.15-.35c-1.23-3.24-2.46-6.45-3.68-9.68l-13,.86-5,21.42a79,79,0,0,0-13.86,4.64L91.92,76.36,81,83.52l6.25,21.07c-1.89,1.75-3.72,3.59-5.44,5.54-.86,1-1.7,2-2.52,3,0,0,0,0,0,.05-.82,1-1.6,2.06-2.37,3.12l-21.72-3.63-5.74,11.64,16,15.07c-.33,1.09-.62,2.18-.91,3.28-.12.47-.24.94-.35,1.41-.21.86-.43,1.71-.6,2.57,0,.13,0,.27-.05.4-.25,1.24-.47,2.48-.65,3.73s-.33,2.56-.45,3.83l-20.56,7.76.86,13,21.42,5c.28,1.19.57,2.35.91,3.53,0,0,0,0,0,.05a78.92,78.92,0,0,0,3.73,10.28L54.73,211v.05l7.16,10.78v.05l21.07-6.25,17.31-16.3a54.83,54.83,0,1,1,40.39,17.76c-1.64,0-3.25-.08-4.85-.22l-2.86,23.6v.05c1.24,3.46,2.61,7,3.93,10.48s2.56,6.68,3.83,10l13-.86,5-21.42a79.49,79.49,0,0,0,13.86-4.64l16.88,14.06,10.89-7.16L194,220c1-.88,1.85-1.79,2.77-2.72,1.8-1.84,3.56-3.76,5.19-5.8,0,0,0,0,0-.05.82-1,1.6-2.05,2.37-3.12l21.72,3.63,5.75-11.64-16-15.07C216.22,184,216.58,182.7,216.9,181.44Z" transform="translate(-41.88 -63.51)"/><g id="g200"><path id="path202" class="cls-2" d="M125.48,239.44c-2.6-3.57-2.19-4.37-2.19-4.37l-.45.77c-1.3.12-5-1.19-16-5.63-20.06-8.15-16.37-3.58-20.23-3.18l-.72,1.34c2.57,2.89,2.09,4.44,1.9,4.84l.63-1.16c1.55-.35,8.4,2.52,17,6.08,14,5.8,16.25,3.75,19,3.08l.11,0Z" transform="translate(-41.88 -63.51)"/></g><g id="g204"><path id="path206" class="cls-2" d="M117.4,245.06l-.45.78c-1.3.12-5-1.19-16-5.62-20.06-8.16-16.37-3.58-20.23-3.19L80,238.37c2.57,2.9,2.09,4.44,1.9,4.84l.63-1.15c1.55-.36,8.4,2.52,17,6.07,14,5.8,16.26,3.75,19,3.08l.11,0,.94-1.74c-2.6-3.57-2.19-4.38-2.19-4.38" transform="translate(-41.88 -63.51)"/></g><g id="g216"><path id="path218" class="cls-2" d="M112.42,255.17,112,256c-1.3.12-5-1.19-16-5.63-20.06-8.15-16.38-3.58-20.23-3.19l-.73,1.34c2.56,2.89,2.1,4.43,1.9,4.84l.62-1.16c1.55-.35,8.4,2.52,17,6.08,14,5.81,16.26,3.75,19,3.08l.1,0,.94-1.74c-2.6-3.57-2.19-4.38-2.19-4.38" transform="translate(-41.88 -63.51)"/></g><g id="g224"><path id="path226" class="cls-2" d="M106.33,265.56l-.45.78c-1.29.12-5-1.19-16-5.62-20.07-8.15-16.37-3.58-20.23-3.19L69,258.87c2.57,2.9,2.09,4.44,1.89,4.84l.63-1.16c1.55-.35,8.4,2.52,17,6.08,14,5.8,16.25,3.76,19,3.09l.11,0,.94-1.74c-2.6-3.57-2.2-4.38-2.2-4.38" transform="translate(-41.88 -63.51)"/></g><path class="cls-3" d="M140.65,109.88A52.39,52.39,0,0,0,102,197.72l6.31-6a43.14,43.14,0,1,1,31.89,14.08c-1,0-2.08,0-3.11-.11l-1.08,8.78c1.51.13,3,.2,4.59.2a52.41,52.41,0,0,0,0-104.82Z" transform="translate(-41.88 -63.51)"/><g id="g228"><path id="path230" class="cls-3" d="M90.72,272.78l-8.51-4.26-2.47,4.94,8.51,4.26Z" transform="translate(-41.88 -63.51)"/></g><path id="path234" class="cls-3" d="M141.49,171.3,133,167,103.84,225.3l8.5,4.25Z" transform="translate(-41.88 -63.51)"/></g><g id="nova_labs" data-name="nova labs"><g id="g4817"><path id="path4819" class="cls-3" d="M481.32,235.61c0-11-7.36-22.92-19.4-22.92s-19.4,11.88-19.4,22.92,7.36,23.08,19.4,23.08,19.4-12,19.4-23.08M421.44,145h23.42v57.16a30.26,30.26,0,0,1,22.75-10.2c23.25,0,37.47,21.75,37.47,43.33,0,22.41-13.72,44.16-38,44.16-8.36,0-17.23-3.68-21.91-10.37h-.34v7.69H421.44Z" transform="translate(-41.88 -63.51)"/></g><g id="g4821"><path id="path4823" class="cls-3" d="M285.29,257.17h34.79v21.41H260.7V190.76h24.59Z" transform="translate(-41.88 -63.51)"/></g><g id="g4825"><path id="path4827" class="cls-3" d="M556.41,213.84c-3.35-3.18-7.69-5.68-12.38-5.68-3.85,0-7.69,3-7.69,7,0,6,8.53,7.69,16.89,11.38,8.53,3.68,16.9,9.37,16.9,23.58,0,18.24-14.72,29.11-31.95,29.11a37.75,37.75,0,0,1-28.94-13.71l10.71-13.89c4.52,5,10.54,9.53,17.4,9.53,5.18,0,9.37-3.51,9.37-8.86,0-7.19-8.2-8.87-16.39-12.38s-16.39-8.37-16.39-21.58c0-15.39,10.7-26.6,26.1-26.6,8.7,0,19.74,2.68,26.43,8.53Z" transform="translate(-41.88 -63.51)"/></g><g id="g4829"><path id="path4831" class="cls-3" d="M387.52,235.23c0-11-7.53-22.92-19.57-22.92s-19.41,11.88-19.41,22.92,7.36,23.08,19.41,23.08,19.57-12,19.57-23.08m20.74,41.15H385.17v-7.52h-.33c-5,6.52-13.72,10.2-22.25,10.2-24.09,0-37.8-21.91-37.8-44.16,0-21.74,13.88-43.32,37.47-43.32a30.39,30.39,0,0,1,22.92,10.37v-7.69h23.08Z" transform="translate(-41.88 -63.51)"/></g><g id="g4833"><path id="path4835" class="cls-2" d="M260.7,144.76l30.82,32.29V146.44h4.4v41.3L265.1,155.51V186h-4.4Z" transform="translate(-41.88 -63.51)"/></g><g id="g4837"><path id="path4839" class="cls-2" d="M306.56,166.2a16.2,16.2,0,1,0,16.2-16.35,16.34,16.34,0,0,0-16.2,16.35m36.79.05a20.6,20.6,0,1,1-20.6-20.5,20.49,20.49,0,0,1,20.6,20.5" transform="translate(-41.88 -63.51)"/></g><g id="g4841"><path id="path4843" class="cls-2" d="M361.7,176.58,373,146.44h4.77l-16,41.88-16-41.88h4.77Z" transform="translate(-41.88 -63.51)"/></g><g id="g4845"><path id="path4847" class="cls-2" d="M391.38,144.55,373.13,186H378l13.31-31.13,13,31.13h4.87Z" transform="translate(-41.88 -63.51)"/></g></g><g id="Layer_5" data-name="Layer 5"><path class="cls-2" d="M576.31,192.74h-2.72v7h-1.17v-7h-2.74v-1.17h6.63Zm10.27,7h-1.17v-7h0l-2.8,7h-.76l-2.72-7h0v7h-1.17v-8.19h2l2.35,5.89,2.43-5.89h1.95Z" transform="translate(-41.88 -63.51)"/></g></svg>