<?xml version="1.0" encoding="UTF-8" standalone="no"?>
<!-- Generator: Adobe Illustrator 23.1.1, SVG Export Plug-In . SVG Version: 6.00 Build 0)  -->

<svg
   xmlns:dc="http://purl.org/dc/elements/1.1/"
   xmlns:cc="http://creativecommons.org/ns#"
   xmlns:rdf="http://www.w3.org/1999/02/22-rdf-syntax-ns#"
   xmlns:svg="http://www.w3.org/2000/svg"
   xmlns="http://www.w3.org/2000/svg"
   xmlns:sodipodi="http://sodipodi.sourceforge.net/DTD/sodipodi-0.dtd"
   xmlns:inkscape="http://www.inkscape.org/namespaces/inkscape"
   version="1.1"
   x="0px"
   y="0px"
   viewBox="0 0 612 396"
   style="enable-background:new 0 0 612 396;"
   xml:space="preserve"
   id="svg2416"
   sodipodi:docname="novalabs_ppe_circular.svg"
   inkscape:version="0.92.4 (5da689c313, 2019-01-14)"><metadata
   id="metadata2422"><rdf:RDF><cc:Work
       rdf:about=""><dc:format>image/svg+xml</dc:format><dc:type
         rdf:resource="http://purl.org/dc/dcmitype/StillImage" /><dc:title></dc:title></cc:Work></rdf:RDF></metadata><defs
   id="defs2420">
	
	

		
		
		
		
	
		
		
		
		
	<clipPath
   id="clipPath16"
   clipPathUnits="userSpaceOnUse"><path
     inkscape:connector-curvature="0"
     id="path18"
     d="M 0,900 H 1800 V 0 H 0 Z" /></clipPath><clipPath
   id="clipPath56"
   clipPathUnits="userSpaceOnUse"><path
     inkscape:connector-curvature="0"
     id="path58"
     d="M 0,900 H 1800 V 0 H 0 Z" /></clipPath><clipPath
   id="clipPath176"
   clipPathUnits="userSpaceOnUse"><path
     inkscape:connector-curvature="0"
     id="path178"
     d="M 0,900 H 1800 V 0 H 0 Z" /></clipPath><marker
   style="overflow:visible"
   refY="0.0"
   refX="0.0"
   orient="auto"
   id="DistanceX"><path
     id="path5137"
     style="stroke:#000000; stroke-width:0.5"
     d="M 3,-3 L -3,3 M 0,-5 L  0,5" /></marker><pattern
   y="0"
   x="0"
   width="8"
   patternUnits="userSpaceOnUse"
   id="Hatch"
   height="8"><path
     id="path5140"
     stroke-width="0.25"
     stroke="#000000"
     linecap="square"
     d="M8 4 l-4,4" /><path
     id="path5142"
     stroke-width="0.25"
     stroke="#000000"
     linecap="square"
     d="M6 2 l-4,4" /><path
     id="path5144"
     stroke-width="0.25"
     stroke="#000000"
     linecap="square"
     d="M4 0 l-4,4" /></pattern><symbol
   id="*Model_Space" /><symbol
   id="*Paper_Space" /><symbol
   id="*Paper_Space0" /></defs><sodipodi:namedview
   pagecolor="#ffffff"
   bordercolor="#666666"
   borderopacity="1"
   objecttolerance="10"
   gridtolerance="10"
   guidetolerance="10"
   inkscape:pageopacity="0"
   inkscape:pageshadow="2"
   inkscape:window-width="2846"
   inkscape:window-height="1845"
   id="namedview2418"
   showgrid="false"
   inkscape:zoom="0.99999999"
   inkscape:cx="103.48557"
   inkscape:cy="47.945865"
   inkscape:window-x="780"
   inkscape:window-y="210"
   inkscape:window-maximized="0"
   inkscape:current-layer="svg2416" />
<style
   type="text/css"
   id="style2306">
	.st0{fill:#515153;}
	.st1{fill:#F2682D;}
	.st2{fill:#F36E3D;}
	.st3{fill:#58595B;}
</style>




<flowRoot
   xml:space="preserve"
   id="flowRoot959"
   style="fill:black;fill-opacity:1;stroke:none;font-family:'Ink Free';font-style:normal;font-weight:normal;font-size:40px;line-height:1.25;letter-spacing:0px;word-spacing:0px;-inkscape-font-specification:'Ink Free';font-stretch:normal;font-variant:normal"><flowRegion
     id="flowRegion961"><rect
       id="rect963"
       width="318.45749"
       height="167.64771"
       x="-70.858406"
       y="-31.407076" /></flowRegion><flowPara
     id="flowPara965" /></flowRoot><circle
   style="fill:none;fill-opacity:1;stroke:none;stroke-opacity:1"
   id="path4741"
   cx="140.5"
   cy="163"
   r="82.5" /><flowRoot
   xml:space="preserve"
   id="flowRoot4993"
   style="fill:black;fill-opacity:1;stroke:none;font-family:'Ink Free';font-style:normal;font-weight:normal;font-size:40px;line-height:1.25;letter-spacing:0px;word-spacing:0px;-inkscape-font-specification:'Ink Free';font-stretch:normal;font-variant:normal"><flowRegion
     id="flowRegion4995"><rect
       id="rect4997"
       width="418.96075"
       height="353.19983"
       x="-234.75945"
       y="197.30299" /></flowRegion><flowPara
     id="flowPara4999" /></flowRoot><circle
   style="fill:none;fill-opacity:1;stroke:none;stroke-opacity:1"
   id="path5001"
   cx="126.00631"
   cy="-365.06638"
   r="181.41733"
   transform="rotate(156.36782)" /><g
   aria-label="NOVA Labs"
   style="font-style:normal;font-variant:normal;font-weight:normal;font-stretch:normal;font-size:40px;line-height:1.25;font-family:'Ink Free';-inkscape-font-specification:'Ink Free';letter-spacing:0px;word-spacing:0px;fill:#000000;fill-opacity:1;stroke:none"
   id="text5005"><path
     id="path1098"
     style="font-style:normal;font-variant:normal;font-weight:500;font-stretch:normal;font-size:74.66666412px;font-family:'Futura Heavy';-inkscape-font-specification:'Futura Heavy, Medium';font-variant-ligatures:normal;font-variant-caps:normal;font-variant-numeric:normal;font-feature-settings:normal;text-align:start;writing-mode:lr-tb;text-anchor:start"
     d="M-138.43778 454.46039L-194.33191 469.1492L-196.34356 461.49445L-165.82062 422.82394L-165.85862 422.67951L-202.47144 432.30125L-205.26117 421.6857L-149.72811 407.09178L-147.71647 414.74653L-178.23941 453.41704L-178.20141 453.56147L-141.22751 443.84484L-138.43778 454.46039" /><path
     id="path1100"
     style="font-style:normal;font-variant:normal;font-weight:500;font-stretch:normal;font-size:74.66666412px;font-family:'Futura Heavy';-inkscape-font-specification:'Futura Heavy, Medium';font-variant-ligatures:normal;font-variant-caps:normal;font-variant-numeric:normal;font-feature-settings:normal;text-align:start;writing-mode:lr-tb;text-anchor:start"
     d="M-198.23986 350.80166L-193.582609375 347.68496875L-188.4354575 345.570985L-182.798404375 344.45970875L-176.67145 344.35114L-170.594328125 345.202661875L-165.1067725 346.9716475L-160.208783125 349.658096875L-155.90036 353.26201L-154.048562812 355.362089844L-152.46955125 357.601984375L-151.163325313 359.981693594L-150.129885 362.5012175L-148.88136125 367.959709375L-148.72398 373.97746L-149.619271875 379.930320625L-151.5287575 385.1941425L-152.863822969 387.567663906L-154.452436875 389.768925625L-156.294599219 391.797927656L-158.39031 393.65467L-163.108749375 396.70213125L-168.2996075 398.766665L-173.962884375 399.84827125L-180.09858 399.94695L-186.166099375 399.091345L-191.6248475 397.31011L-196.474824375 394.603245L-200.71603 390.97075L-204.14367875 386.579535625L-205.449400937 384.191673906L-206.483055 381.6756425L-207.73415875 376.259070625L-207.89699 370.32982L-207.007444375 364.4701175L-205.1014075 359.26219L-203.767204844 356.902641875L-202.178879375 354.7060375L-198.23986 350.80166L-198.23986 350.80166M-177.81689 355.65141L-181.341745 355.71933125L-184.68737 356.368715L-187.853765 357.59956125L-190.84093 359.41187L-193.404711875 361.71315875L-195.3009575 364.410935L-196.529666875 367.50519875L-197.09084 370.99595L-196.962655 374.529199375L-196.12329 377.7509475L-194.572745 380.661194375L-192.31102 383.25994L-189.56905625 385.425411875L-186.577805 387.0358375L-183.33726625 388.091216875L-179.84744 388.59155L-176.44276 388.577005L-173.08504 388.11071L-169.8290325 387.1705925L-166.72947 385.73458L-163.9657875 383.67939L-161.7174 380.88176L-160.21018 377.3651675L-159.53014 373.31133L-159.7082875 369.2232925L-160.77563 365.6041L-162.6599425 362.4956075L-165.14914 360.09791L-168.0488575 358.292075L-171.16475 356.95917L-174.439775 356.084015L-177.81689 355.65141L-177.81689 355.65141" /><path
     id="path1102"
     style="font-style:normal;font-variant:normal;font-weight:500;font-stretch:normal;font-size:74.66666412px;font-family:'Futura Heavy';-inkscape-font-specification:'Futura Heavy, Medium';font-variant-ligatures:normal;font-variant-caps:normal;font-variant-numeric:normal;font-feature-settings:normal;text-align:start;writing-mode:lr-tb;text-anchor:start"
     d="M-196.88329 316.41704L-156.62054 315.87601L-156.57234 315.73468L-188.41959 291.61332L-184.60971 280.44811L-136.97949 319.81681L-139.05322 325.89408L-200.6932 327.58225L-196.88329 316.41704" /><path
     sodipodi:nodetypes="ccccccccccccc"
     inkscape:connector-curvature="0"
     id="path1104"
     style="font-style:normal;font-variant:normal;font-weight:500;font-stretch:normal;font-size:74.66666412px;font-family:'Futura Heavy';-inkscape-font-specification:'Futura Heavy, Medium';font-variant-ligatures:normal;font-variant-caps:normal;font-variant-numeric:normal;font-feature-settings:normal;text-align:start;writing-mode:lr-tb;text-anchor:start"
     d="M-136.63674 288.05915L-129.17865 298.39123L-135.4606 308.11126L-172.08263 258.30532L-167.46236 251.15639L-107.33367 264.59058L-113.69668 274.43604L-126.01822 271.62915L-135.20509 269.33681L-156.1973 264.12667L-156.2784 264.25209L-142.45977 280.56188L-136.63674 288.05915" /><path
     id="path1106"
     style="font-style:normal;font-variant:normal;font-weight:500;font-stretch:normal;font-size:85.33333588px;font-family:'Futura Heavy';-inkscape-font-specification:'Futura Heavy, Medium';font-variant-ligatures:normal;font-variant-caps:normal;font-variant-numeric:normal;font-feature-settings:normal;text-align:start;writing-mode:lr-tb;text-anchor:start"
     d="M-116.5774 188.32315L-84.554037 231.07895L-70.347637 220.43859L-63.799729 229.18099L-88.046229 247.34121L-126.6175 195.84301L-116.5774 188.32315" /><path
     id="path1108"
     style="font-style:normal;font-variant:normal;font-weight:500;font-stretch:normal;font-size:85.33333588px;font-family:'Futura Heavy';-inkscape-font-specification:'Futura Heavy, Medium';font-variant-ligatures:normal;font-variant-caps:normal;font-variant-numeric:normal;font-feature-settings:normal;text-align:start;writing-mode:lr-tb;text-anchor:start"
     d="M-41.311307 172.7218L-24.369766 211.04259L-35.14017 215.80416L-36.692857 212.29207L-36.84895 212.36107L-37.952449125 215.338886875L-39.6995185 217.8898075L-42.090158125 220.013831875L-45.124368 221.71096L-49.114128375 223.01415L-53.0446295 223.3698L-56.915871375 222.77791L-60.727854 221.23848L-64.2318573125 218.94477L-67.25720825 216.12456L-69.8039068125 212.77785L-71.871953 208.90464L-73.31039175 204.846385625L-74.037275 200.7884425L-74.05260275 196.730810625L-73.356375 192.67349L-71.924152625 188.8564225L-69.7750385 185.6321L-66.909032625 183.0005225L-63.326135 180.96169L-60.0656973125 179.881800625L-56.84028225 179.5404725L-53.6498898125 179.937705625L-50.49452 181.0735L-52.081711 177.48337L-41.311307 172.7218M-54.910472 210.54948L-52.9008901875 211.37544625L-50.89685075 211.714035L-48.8983536875 211.56524625L-46.905399 210.92908L-45.093591125 209.88317L-43.6385345 208.50515L-42.540229125 206.79502L-41.798675 204.75278L-41.43528475 202.527850625L-41.436966 200.3476925L-41.80371875 198.212305625L-42.535543 196.12169L-43.587152125 194.178281875L-44.9132595 192.4845175L-46.513865125 191.040396875L-48.388969 189.84592L-50.3985508125 189.01995375L-52.40259025 188.681365L-54.4010873125 188.83015375L-56.394042 189.46632L-58.205849875 190.51223L-59.6609065 191.89025L-60.759211875 193.60038L-61.500766 195.64262L-61.845106625 197.81830875L-61.8298185 199.963295L-61.454901625 202.07757875L-60.720356 204.16116L-59.671467875 206.1116025L-58.3535245 207.82647L-56.766525875 209.3057625L-54.910472 210.54948L-54.910472 210.54948" /><path
     id="path1110"
     style="font-style:normal;font-variant:normal;font-weight:500;font-stretch:normal;font-size:85.33333588px;font-family:'Futura Heavy';-inkscape-font-specification:'Futura Heavy, Medium';font-variant-ligatures:normal;font-variant-caps:normal;font-variant-numeric:normal;font-feature-settings:normal;text-align:start;writing-mode:lr-tb;text-anchor:start"
     d="M-15.953035 208.54898L-26.866714 137.01404L-15.056701 135.21225L-9.882999 169.12386L-7.89609589875 166.517048125L-5.452541495 164.4987625L-2.55233578875 163.069003125L0.80452122 162.22777L4.88557984875 162.031350625L8.693031855 162.7290925L12.2268772387 164.320995625L15.487116 166.80706L18.2965375 169.874431875L20.4908 173.2946175L22.0699035 177.067616875L23.033848 181.19343L23.372981375 185.60879L23.0133015 189.82864L21.954808375 193.85298L20.197502 197.68181L17.8370816313 200.98762125L14.897759525 203.540125L11.3795356812 205.33932125L7.2824101 206.38521L4.0042661 206.5400575L0.7496987 206.00074L-2.20713105 204.72543L-4.5663223 202.84102L-4.7350368 202.86672L-4.1430212 206.74715L-15.953035 208.54898M-4.5550767 193.86195L-2.83179585625 195.185183125L-0.986278225 196.0365825L0.98147619375 196.416148125L3.0714674 196.32388L5.088619275 195.789540625L6.8378557 194.8428925L8.319176675 193.483935625L9.5325822 191.71267L10.4657431125 189.66046L11.03484305 187.55589L11.2398820125 185.39896L11.08086 183.18967L10.5746687625 181.038744375L9.73820005 179.0568975L8.5714538625 177.244129375L7.0744302 175.60044L5.38805567437 174.27157625L3.5688996975 173.416155L1.61696226937 173.03417625L-0.46775661 173.12564L-2.49018080563 173.66078L-4.2552342025 174.60984L-5.76291680062 175.97282L-7.0132286 177.74972L-7.91511386875 179.759395625L-8.461874075 181.8335825L-8.65350921875 183.972280625L-8.4900193 186.17549L-7.9882960125 188.3324925L-7.16523115 190.33257L-6.0208247125 192.1757225L-4.5550767 193.86195L-4.5550767 193.86195" /><path
     id="path1112"
     style="font-style:normal;font-variant:normal;font-weight:500;font-stretch:normal;font-size:85.33333588px;font-family:'Futura Heavy';-inkscape-font-specification:'Futura Heavy, Medium';font-variant-ligatures:normal;font-variant-caps:normal;font-variant-numeric:normal;font-feature-settings:normal;text-align:start;writing-mode:lr-tb;text-anchor:start"
     d="M61.52585 166.33412L55.875491 172.81977L54.43400225 171.4321475L52.942579 170.40437L51.40122125 169.7364375L49.809929 169.42835L48.34187875 169.5901425L47.000116 170.31836L46.0175425 171.37466L45.61357 172.69084L45.910738 174.34083L47.170618 175.72475L48.967877 176.80888L51.275534 177.93348L53.746578 179.15664L57.100418 181.3914175L59.605656 184.07251L60.531781 185.617219375L61.137408 187.4254175L61.422537 189.497104375L61.387168 191.83228L60.836060625 195.003975L59.7156275 197.79882L58.025868625 200.216815L55.766784 202.25796L53.1558415625 203.8110975L50.31869625 204.84339L47.2553480625 205.3548375L43.965797 205.34544L39.73110175 204.57093875L35.958979 202.955705L32.64942875 200.49973875L29.802451 197.20304L35.806566 190.57425L37.818175875 192.86844L39.8991135 194.55822L42.049378875 195.64359L44.268972 196.12455L46.16404025 195.9752175L47.766061 195.20344L48.90321575 193.81699L49.390194 191.99378L49.106517 190.17366L48.66020075 189.32506L47.866874 188.53454L46.161426 187.37209L43.860515 186.16242L41.552858 185.03782L38.21353875 182.8898025L35.751865 180.46897L34.8892115 179.068395625L34.324103 177.4239125L34.0565395 175.535520625L34.086521 173.40322L34.5377360625 170.614158125L35.42594625 168.1165525L36.7511515625 165.910403125L38.513352 163.99571L40.650528 162.479904375L43.015593 161.4636775L45.608547 160.947029375L48.42939 160.92996L52.437905375 161.5206725L55.9568205 162.61827L58.986135375 164.2227525L61.52585 166.33412L61.52585 166.33412" /></g>
<style
   id="style5503"
   type="text/css">
	.st0{fill:#515153;}
	.st1{fill:#F2682D;}
	.st2{fill:#F36E3D;}
	.st3{fill:#58595B;}
</style><g
   aria-label="P P E C H A L L E N G E"
   style="font-style:normal;font-variant:normal;font-weight:normal;font-stretch:normal;font-size:40px;line-height:1.25;font-family:'Ink Free';-inkscape-font-specification:'Ink Free';letter-spacing:0px;word-spacing:0px;fill:#000000;fill-opacity:1;stroke:none"
   id="text5754"><path
     id="path1073"
     style="font-style:normal;font-variant:normal;font-weight:500;font-stretch:normal;font-size:72px;font-family:'Futura Heavy';-inkscape-font-specification:'Futura Heavy, Medium';font-variant-ligatures:normal;font-variant-caps:normal;font-variant-numeric:normal;font-feature-settings:normal;text-align:start;writing-mode:lr-tb;text-anchor:start"
     d="M48.217666 599.29963L50.220546 619.50461L39.688167 620.54866L34.332949 566.52544L48.662716 565.10495L53.0715780156 564.932450313L56.9479905625 565.34181125L60.2919536406 566.333032813L63.10346725 567.906115L65.3825313906 570.061057813L67.1291460625 572.79786125L68.3433112656 576.116525313L69.025027 580.01705L69.143791125 584.043471875L68.6548965 587.5965275L67.558343125 590.676216875L65.854131 593.28254L63.570055 595.37656875L60.741013 596.991015L57.367005 598.12587875L53.448031 598.78116L48.217666 599.29963M45.731822 574.22254L47.351172 590.55848L49.500637 590.3454L53.82860125 589.4822625L55.4232563125 588.781543125L56.63836 587.90139L57.5362393125 586.7406575L58.10757225 585.20531L58.3523588125 583.2953475L58.270599 581.01077L57.9003898125 578.827135625L57.26562425 577.0767125L56.3663023125 575.759500625L55.202424 574.8755L53.754823 574.3226025L52.004334 573.9987L47.594692 574.03788L45.731822 574.22254" /><path
     id="path1075"
     style="font-style:normal;font-variant:normal;font-weight:500;font-stretch:normal;font-size:72px;font-family:'Futura Heavy';-inkscape-font-specification:'Futura Heavy, Medium';font-variant-ligatures:normal;font-variant-caps:normal;font-variant-numeric:normal;font-feature-settings:normal;text-align:start;writing-mode:lr-tb;text-anchor:start"
     d="M91.961015 591.28203L98.088363 610.63941L87.997816 613.83345L71.614763 562.0765L85.343399 557.73086L89.6218748594 556.652682031L93.4993669375 556.253678125L96.9758752344 556.533848281L100.05139975 557.4931925L102.725940484 559.131710781L104.999497437 561.449403125L106.872070609 564.446269531L108.34366 568.12231L109.290374375 572.037650625L109.5448575 575.6151425L109.107109375 578.854785625L107.97713 581.75658L106.174091062 584.27669875L103.73888425 586.439955L100.671509562 588.24634875L96.971967 589.69588L91.961015 591.28203M84.356149 567.25692L89.310176 582.90757L91.369471 582.25572L95.426336 580.5184425L96.84216775 579.503870625L97.849599 578.39201L98.488754625 577.0710375L98.7311165 575.45086L98.576684625 573.5314775L98.025459 571.31289L97.21280875 569.25257625L96.230646 567.670725L95.07897075 566.56733625L93.757783 565.94241L92.2272676875 565.69998375L90.44761075 565.744105L86.140872 566.69199L84.356149 567.25692" /><path
     id="path1077"
     style="font-style:normal;font-variant:normal;font-weight:500;font-stretch:normal;font-size:72px;font-family:'Futura Heavy';-inkscape-font-specification:'Futura Heavy, Medium';font-variant-ligatures:normal;font-variant-caps:normal;font-variant-numeric:normal;font-feature-settings:normal;text-align:start;writing-mode:lr-tb;text-anchor:start"
     d="M136.38522 544.15457L121.10745 552.68099L126.93209 563.11765L141.64401 554.90702L146.1353 562.95457L131.42337 571.1652L138.58136 583.99098L153.85913 575.46455L158.35041 583.5121L133.83054 597.19649L107.37406 549.79141L131.89393 536.10702L136.38522 544.15457" /><path
     id="path1079"
     style="font-style:normal;font-variant:normal;font-weight:500;font-stretch:normal;font-size:72px;font-family:'Futura Heavy';-inkscape-font-specification:'Futura Heavy, Medium';font-variant-ligatures:normal;font-variant-caps:normal;font-variant-numeric:normal;font-feature-settings:normal;text-align:start;writing-mode:lr-tb;text-anchor:start"
     d="M170.96824 504.1546L179.73191 513.30761L176.16243125 513.23641L172.869865 513.89689L169.85421125 515.28905L167.11547 517.41289L164.861938125 520.056509375L163.3539225 522.9582175L162.591423125 526.118014375L162.57444 529.5359L163.232151875 532.9557175L164.4417375 536.1711L166.203196875 539.1820475L168.51653 541.98856L171.154686875 544.34700375L174.0400075 546.169755L177.172491875 547.45681375L180.55214 548.20818L183.936968125 548.2817325L187.0827825 547.63716L189.989583125 546.2744625L192.65737 544.19364L194.74977 541.6419975L196.24243 538.56809L197.1439325 535.16306L197.35884 531.71765L206.07272 540.81866L204.644516875 544.14858875L203.0597375 547.067725L201.318381875 549.57606875L199.42045 551.67362L195.162268125 555.027985625L190.5006125 557.3232825L185.435483125 558.559510625L179.96688 558.73667L174.5332675 557.8897475L169.52109 556.10353L164.9303475 553.3780175L160.76104 549.71321L158.293278125 546.836499375L156.2179125 543.7709875L154.534943125 540.516674375L153.24437 537.07356L152.392049375 533.528569375L152.0238275 529.9686375L152.139704375 526.393764375L152.73968 522.80395L153.846995 519.3015475L155.43288 516.0387L157.497335 513.0154075L160.04036 510.23167L162.43954 508.208666875L165.06058 506.5214875L167.90348 505.170131875L170.96824 504.1546L170.96824 504.1546" /><path
     id="path1081"
     style="font-style:normal;font-variant:normal;font-weight:500;font-stretch:normal;font-size:72px;font-family:'Futura Heavy';-inkscape-font-specification:'Futura Heavy, Medium';font-variant-ligatures:normal;font-variant-caps:normal;font-variant-numeric:normal;font-feature-settings:normal;text-align:start;writing-mode:lr-tb;text-anchor:start"
     d="M196.82117 501.77482L207.34283 485.25732L189.30717 473.7686L194.99351 464.84186L240.78099 494.00851L235.09466 502.93524L214.62996 489.89922L204.1083 506.41672L224.573 519.45274L218.88666 528.37948L173.09918 499.21283L178.78552 490.2861L196.82117 501.77482" /><path
     id="path1083"
     style="font-style:normal;font-variant:normal;font-weight:500;font-stretch:normal;font-size:72px;font-family:'Futura Heavy';-inkscape-font-specification:'Futura Heavy, Medium';font-variant-ligatures:normal;font-variant-caps:normal;font-variant-numeric:normal;font-feature-settings:normal;text-align:start;writing-mode:lr-tb;text-anchor:start"
     d="M247.14592 445.05903L241.321 463.00118L250.83114 470.78201L247.3851 481.39664L200.91679 444.0551L203.45129 436.24821L262.81447 433.87048L259.32396 444.62208L247.14592 445.05903M238.01661 445.19887L217.16282 445.54442L217.11832 445.68138L234.03695 457.45706L238.01661 445.19887" /><path
     id="path1085"
     style="font-style:normal;font-variant:normal;font-weight:500;font-stretch:normal;font-size:72px;font-family:'Futura Heavy';-inkscape-font-specification:'Futura Heavy, Medium';font-variant-ligatures:normal;font-variant-caps:normal;font-variant-numeric:normal;font-feature-settings:normal;text-align:start;writing-mode:lr-tb;text-anchor:start"
     d="M211.30359 403.67945L256.14135 408.26861L257.66618 393.37044L266.83429 394.3088L264.23181 419.73597L210.22594 414.20845L211.30359 403.67945" /><path
     id="path1087"
     style="font-style:normal;font-variant:normal;font-weight:500;font-stretch:normal;font-size:72px;font-family:'Futura Heavy';-inkscape-font-specification:'Futura Heavy, Medium';font-variant-ligatures:normal;font-variant-caps:normal;font-variant-numeric:normal;font-feature-settings:normal;text-align:start;writing-mode:lr-tb;text-anchor:start"
     d="M211.86111 373.03379L256.83746 370.09899L255.86232 355.15477L265.05876 354.55468L266.72306 380.06044L212.55027 383.59533L211.86111 373.03379" /><path
     id="path1089"
     style="font-style:normal;font-variant:normal;font-weight:500;font-stretch:normal;font-size:72px;font-family:'Futura Heavy';-inkscape-font-specification:'Futura Heavy, Medium';font-variant-ligatures:normal;font-variant-caps:normal;font-variant-numeric:normal;font-feature-settings:normal;text-align:start;writing-mode:lr-tb;text-anchor:start"
     d="M212.17037 324.28279L216.45027 341.24723L228.03915 338.32352L223.91777 321.98738L232.85377 319.73295L236.97516 336.06908L251.21691 332.47608L246.93701 315.51163L255.87302 313.2572L262.742 340.48409L210.10334 353.76411L203.23436 326.53722L212.17037 324.28279" /><path
     id="path1091"
     style="font-style:normal;font-variant:normal;font-weight:500;font-stretch:normal;font-size:72px;font-family:'Futura Heavy';-inkscape-font-specification:'Futura Heavy, Medium';font-variant-ligatures:normal;font-variant-caps:normal;font-variant-numeric:normal;font-feature-settings:normal;text-align:start;writing-mode:lr-tb;text-anchor:start"
     d="M250.42663 296.06283L201.13739 322.0663L197.57619 315.31609L217.79849 272.32945L217.73129 272.20209L185.44493 289.23537L180.50629 279.87423L229.47713 254.03875L233.03832 260.78896L212.81603 303.77559L212.88323 303.90295L245.488 286.7017L250.42663 296.06283" /><path
     id="path1093"
     style="font-style:normal;font-variant:normal;font-weight:500;font-stretch:normal;font-size:72px;font-family:'Futura Heavy';-inkscape-font-specification:'Futura Heavy, Medium';font-variant-ligatures:normal;font-variant-caps:normal;font-variant-numeric:normal;font-feature-settings:normal;text-align:start;writing-mode:lr-tb;text-anchor:start"
     d="M179.62146 241.45871L163.49895 224.4992L164.49043 223.55666L168.886385 219.899205L173.51621 217.06252L178.3283675 215.0707625L183.27132 213.94809L185.755004375 213.784934375L188.2498875 213.9339975L190.755969375 214.395279375L193.27325 215.16878L195.721481875 216.28111125L198.0725975 217.709285L200.326596875 219.45330125L202.48348 221.51316L204.865099375 224.377639375L206.7515375 227.4396675L208.142794375 230.699244375L209.03887 234.15637L209.4048175 237.682843125L209.30747 241.1530325L208.7468275 244.566938125L207.72289 247.92456L206.281805625 251.163405625L204.4697125 254.2209825L202.286610625 257.097290625L199.7325 259.79233L195.22529875 263.4437825L190.418265 266.11365L185.31139875 267.8019325L179.9047 268.50863L174.511354375 268.18437875L169.4967275 266.730195L164.860819375 264.14607875L160.60363 260.43203L158.406751875 257.814133125L156.6280675 255.0222025L155.267576875 252.056238125L154.32528 248.91624L153.830893125 245.6857225L153.8141325 242.44819L154.274998125 239.2036425L155.21349 235.95208L165.31531 239.26334L164.2367425 243.144775L164.2505 247.13024L164.649355 249.10424L165.3382 250.93916L166.317035 252.635L167.58586 254.19176L170.18192375 256.380504375L173.058945 257.7806075L176.21692375 258.392069375L179.65586 258.21489L183.105338125 257.369544375L186.3445425 256.0286975L189.373473125 254.192349375L192.19213 251.8605L195.2205125 248.4103575L197.52186 244.50893L198.8900125 240.2528675L199.11881 235.7388L198.73911375 233.51064L197.993085 231.41963L196.88072375 229.46577L195.40203 227.64906L193.601744375 226.088404375L191.5742075 224.9548875L189.319419375 224.248509375L186.83738 223.96927L184.3349325 224.119215L182.01892 224.7004L179.8893425 225.712825L177.9462 227.15649L185.88343 235.50578L179.62146 241.45871" /><path
     id="path1095"
     style="font-style:normal;font-variant:normal;font-weight:500;font-stretch:normal;font-size:72px;font-family:'Futura Heavy';-inkscape-font-specification:'Futura Heavy, Medium';font-variant-ligatures:normal;font-variant-caps:normal;font-variant-numeric:normal;font-feature-settings:normal;text-align:start;writing-mode:lr-tb;text-anchor:start"
     d="M123.02111 217.70468L137.67263 227.26727L144.20509 217.25842L130.09623 208.05L135.13331 200.33233L149.24218 209.54074L157.27003 197.24071L142.61851 187.67812L147.6556 179.96045L171.17038 195.30781L141.49881 240.76972L117.98403 225.42235L123.02111 217.70468" /></g>
<circle
   style="fill:none;fill-opacity:1;stroke:none;stroke-width:1.29675543;stroke-opacity:1"
   id="path5001-2"
   cx="385.48849"
   cy="23.947519"
   r="235.25391"
   transform="matrix(0.01904309,0.99981866,0.99981866,-0.01904309,0,0)" /></svg>