<?xml version="1.0" encoding="utf-8"?>
<!-- Generator: Adobe Illustrator 23.1.1, SVG Export Plug-In . SVG Version: 6.00 Build 0)  -->
<svg version="1.1" xmlns="http://www.w3.org/2000/svg" xmlns:xlink="http://www.w3.org/1999/xlink" x="0px" y="0px"
	 viewBox="0 0 612 396" style="enable-background:new 0 0 612 396;" xml:space="preserve">
<style type="text/css">
	.st0{fill:#515153;}
	.st1{fill:#F2682D;}
	.st2{fill:#F36E3D;}
	.st3{fill:#58595B;}
</style>
<g id="Gear">
	<g>
		<path class="st0" d="M220.15,179.11c0.15-0.62,0.29-1.23,0.42-1.86c0.01-0.03-0.01-0.07,0-0.1c0.25-1.23,0.49-2.47,0.68-3.71
			c0.2-1.26,0.34-2.54,0.47-3.81l21.31-7.72l-0.89-12.88l-22.2-4.96c-0.29-1.2-0.59-2.38-0.94-3.56c-0.35-1.16-0.75-2.31-1.15-3.46
			c-0.8-2.3-1.69-4.55-2.71-6.77l14.57-16.78v-0.05l-7.42-10.72v-0.05l-21.83,6.21c-0.08-0.09-0.18-0.17-0.26-0.25
			c-3.56-3.65-7.53-7.02-11.86-10.02l3.76-21.59l-12.06-5.71l-15.62,15.88c-5.2-1.53-10.5-2.51-15.77-3.01l-0.47-1.15
			c-0.02-0.07-0.03-0.14-0.05-0.2v-0.1l-3.55-9.02l-0.16-0.35c-1.27-3.22-2.54-6.41-3.81-9.62l-13.43,0.85L122,85.92
			c-4.92,1.11-9.74,2.65-14.36,4.61l-17.5-13.98l-11.28,7.12l6.48,20.94c-1.96,1.74-3.85,3.57-5.64,5.51
			c-0.89,0.97-1.76,1.94-2.61,2.96c-0.01,0.01,0.01,0.04,0,0.05c-0.85,1.02-1.66,2.04-2.45,3.11l-22.51-3.61l-5.95,11.57
			l16.56,14.98c-0.35,1.08-0.65,2.17-0.94,3.26c-0.13,0.47-0.25,0.93-0.37,1.4c-0.21,0.85-0.45,1.7-0.63,2.56
			c-0.03,0.13-0.03,0.27-0.05,0.4c-0.26,1.24-0.49,2.47-0.68,3.71c-0.19,1.27-0.34,2.54-0.47,3.81l-21.31,7.71l0.89,12.88l22.2,4.96
			c0.29,1.18,0.6,2.34,0.94,3.51c0,0.02-0.01,0.03,0,0.05c1.03,3.48,2.34,6.91,3.87,10.22L51.6,210.43v0.05l7.42,10.72v0.05
			l21.83-6.21l17.94-16.2c-9.29-9.7-14.96-22.65-14.96-36.86c0-30.1,25.44-54.51,56.83-54.51s56.83,24.41,56.83,54.51
			c0,30.11-25.44,54.51-56.83,54.51c-1.7,0-3.37-0.07-5.03-0.22l-2.96,23.46v0.05c1.28,3.44,2.7,6.95,4.07,10.42
			c1.32,3.34,2.65,6.64,3.97,9.97l13.42-0.85l5.17-21.29c4.91-1.12,9.74-2.65,14.36-4.61l17.5,13.98l11.28-7.12l-6.48-20.94
			c0.99-0.88,1.92-1.78,2.87-2.71c1.87-1.83,3.69-3.74,5.38-5.76c0.01-0.01-0.01-0.04,0-0.05c0.85-1.02,1.65-2.04,2.45-3.11
			l22.51,3.61l5.95-11.57l-16.56-14.98c0.4-1.25,0.77-2.5,1.1-3.76C219.84,180.38,220,179.75,220.15,179.11"/>
		<path class="st1" d="M140.23,205.27c-1.08,0-2.16-0.04-3.22-0.11l-1.12,8.73c1.57,0.13,3.15,0.2,4.75,0.2
			c30,0,54.32-23.33,54.32-52.11c0-28.78-24.32-52.11-54.32-52.11s-54.32,23.33-54.32,52.11c0,13.59,5.43,25.95,14.31,35.22
			l6.54-5.94c-7.25-7.62-11.66-17.76-11.66-28.88c0-23.69,20.02-42.89,44.71-42.89s44.71,19.2,44.71,42.89
			C184.94,186.06,164.93,205.27,140.23,205.27"/>
		<path class="st1" d="M111.28,228.85l30.24-57.91l-8.81-4.23l-30.72,58.84c1.36,0.49,2.76,0.98,4.09,1.46
			C107.89,227.64,109.65,228.27,111.28,228.85"/>
		<path class="st1" d="M79.88,267.89l-2.4,4.6l8.81,4.23l2.88-5.52c-1.28-0.46-2.6-0.93-3.84-1.37
			C83.43,269.16,81.58,268.5,79.88,267.89"/>
		<path class="st0" d="M123.99,238.08l-1.34-2.45c-0.42-0.78-1.25-1.25-2.15-1.25c-0.11,0-0.23,0.01-0.34,0.02
			c-0.24,0.03-0.5,0.05-0.77,0.05c-0.53,0-1.09-0.07-1.63-0.29c-1.19-0.47-6.78-2.46-12.69-4.56c-5.33-1.9-11.37-4.05-12.43-4.46
			c-1.59-0.63-3.14-0.85-4.53-0.85c-1.11,0-2.13,0.14-2.99,0.33c-1.57,0.35-2.37,2.01-1.62,3.38l1.33,2.45
			c0.42,0.78,1.25,1.25,2.15,1.25c0.11,0,0.23-0.01,0.35-0.02c0.24-0.03,0.5-0.05,0.77-0.05c0.53,0,1.08,0.08,1.63,0.29
			c1.19,0.47,6.78,2.46,12.69,4.56c5.33,1.9,11.37,4.05,12.43,4.47c1.58,0.63,3.14,0.85,4.53,0.85c1.09,0,2.09-0.14,2.95-0.32
			C123.92,241.12,124.75,239.46,123.99,238.08"/>
		<path class="st0" d="M118.64,248.34l-1.34-2.45c-0.42-0.78-1.25-1.25-2.15-1.25c-0.11,0-0.23,0.01-0.34,0.02
			c-0.24,0.03-0.5,0.05-0.77,0.05c-0.53,0-1.09-0.07-1.63-0.29c-1.19-0.47-6.78-2.46-12.69-4.56c-5.33-1.9-11.37-4.05-12.43-4.46
			c-1.59-0.63-3.14-0.85-4.53-0.85c-1.11,0-2.13,0.14-2.99,0.33c-1.57,0.35-2.37,2.01-1.62,3.38l1.33,2.45
			c0.42,0.78,1.25,1.25,2.15,1.25c0.11,0,0.23-0.01,0.35-0.02c0.24-0.03,0.5-0.05,0.77-0.05c0.53,0,1.08,0.08,1.63,0.3
			c1.19,0.47,6.78,2.46,12.69,4.56c5.33,1.9,11.37,4.05,12.43,4.47c1.58,0.63,3.14,0.85,4.53,0.85c1.09,0,2.09-0.14,2.95-0.32
			C118.56,251.38,119.39,249.71,118.64,248.34"/>
		<path class="st0" d="M113.28,258.59l-1.34-2.45c-0.42-0.78-1.25-1.25-2.15-1.25c-0.11,0-0.23,0.01-0.34,0.02
			c-0.24,0.03-0.5,0.05-0.77,0.05c-0.53,0-1.09-0.07-1.63-0.29c-1.19-0.47-6.78-2.46-12.69-4.56c-5.33-1.9-11.37-4.05-12.43-4.46
			c-1.59-0.63-3.14-0.85-4.53-0.85c-1.11,0-2.13,0.14-2.99,0.33c-1.57,0.35-2.37,2.01-1.62,3.38l1.33,2.45
			c0.42,0.78,1.25,1.25,2.15,1.25c0.11,0,0.23-0.01,0.35-0.02c0.24-0.03,0.5-0.05,0.77-0.05c0.53,0,1.08,0.08,1.63,0.29
			c1.19,0.47,6.78,2.46,12.69,4.56c5.33,1.9,11.37,4.05,12.43,4.47c1.58,0.63,3.14,0.85,4.53,0.85c1.09,0,2.09-0.14,2.95-0.32
			C113.2,261.63,114.03,259.97,113.28,258.59"/>
		<path class="st0" d="M107.92,268.85l-1.34-2.45c-0.42-0.78-1.25-1.25-2.15-1.25c-0.11,0-0.23,0.01-0.34,0.02
			c-0.24,0.03-0.5,0.05-0.77,0.05c-0.53,0-1.09-0.07-1.63-0.29c-1.19-0.47-6.78-2.46-12.69-4.56c-5.33-1.9-11.37-4.05-12.43-4.46
			c-1.59-0.63-3.14-0.85-4.53-0.85c-1.11,0-2.13,0.14-2.99,0.33c-1.57,0.35-2.37,2.01-1.62,3.38l1.33,2.45
			c0.42,0.78,1.25,1.25,2.15,1.25c0.11,0,0.23-0.01,0.35-0.02c0.24-0.03,0.5-0.05,0.78-0.05c0.52,0,1.08,0.08,1.63,0.29
			c1.19,0.47,6.78,2.46,12.69,4.56c5.33,1.9,11.37,4.05,12.43,4.47c1.58,0.63,3.14,0.85,4.53,0.85c1.09,0,2.09-0.14,2.95-0.32
			C107.84,271.89,108.67,270.23,107.92,268.85"/>
	</g>
</g>
<g id="nova_labs">
	<g>
		<g id="g4817_2_" transform="translate(303.8018,113.9785)">
			<path id="path4819_2_" class="st2" d="M177.52,121.63c0-11.04-7.36-22.92-19.4-22.92c-12.05,0-19.4,11.88-19.4,22.92
				c0,11.04,7.36,23.08,19.4,23.08C170.16,144.71,177.52,132.67,177.52,121.63 M117.64,31.01h23.42v57.16
				c5.35-6.35,14.05-10.2,22.75-10.2c23.25,0,37.47,21.75,37.47,43.33c0,22.41-13.72,44.16-37.97,44.16
				c-8.36,0-17.23-3.68-21.91-10.37h-0.34v7.69h-23.42V31.01z"/>
		</g>
		<g id="g4821_2_" transform="translate(206.5503,103.2822)">
			<path id="path4823_2_" class="st2" d="M78.73,153.89h34.79v21.41H54.15V87.48h24.59V153.89z"/>
		</g>
		<g id="g4825_2_" transform="translate(341.0488,124.7783)">
			<path id="path4827_2_" class="st2" d="M215.36,89.06c-3.35-3.18-7.69-5.68-12.38-5.68c-3.85,0-7.69,3.01-7.69,7.02
				c0,6.02,8.53,7.69,16.89,11.38c8.53,3.68,16.9,9.37,16.9,23.58c0,18.24-14.72,29.11-31.95,29.11c-11.04,0-21.74-5.02-28.94-13.71
				l10.71-13.89c4.52,5.02,10.54,9.53,17.4,9.53c5.18,0,9.37-3.51,9.37-8.86c0-7.19-8.2-8.87-16.39-12.38
				c-8.2-3.51-16.39-8.37-16.39-21.58c0-15.39,10.7-26.6,26.1-26.6c8.7,0,19.74,2.68,26.43,8.53L215.36,89.06z"/>
		</g>
		<g id="g4829_2_" transform="translate(257.2646,114.1631)">
			<path id="path4831_2_" class="st2" d="M130.25,121.07c0-11.04-7.53-22.92-19.57-22.92c-12.04,0-19.41,11.88-19.41,22.92
				c0,11.04,7.36,23.08,19.41,23.08C122.72,144.15,130.25,132.11,130.25,121.07 M150.99,162.22h-23.08v-7.52h-0.33
				c-5.02,6.52-13.72,10.2-22.25,10.2c-24.09,0-37.8-21.91-37.8-44.16c0-21.74,13.88-43.32,37.47-43.32
				c8.53,0,17.23,3.68,22.92,10.37v-7.69h23.08V162.22z"/>
		</g>
	</g>
	<g>
		<g id="g4833_2_" transform="translate(194.3521,159.0439)">
			<path id="path4835_2_" class="st3" d="M66.34-14.28l30.82,32.29V-12.6h4.4v41.3L70.75-3.53v30.45h-4.4V-14.28z"/>
		</g>
		<g id="g4837_2_" transform="translate(217.1035,148.4082)">
			<path id="path4839_2_" class="st3" d="M89.45,17.79c0,8.91,7.23,16.35,16.2,16.35c8.96,0,16.19-7.44,16.19-16.35
				c0-8.96-7.13-16.35-16.19-16.35C96.58,1.44,89.45,8.83,89.45,17.79 M126.25,17.85c0,11.37-9.33,20.39-20.6,20.39
				c-11.27,0-20.6-9.02-20.6-20.39c0-11.32,9.33-20.5,20.6-20.5C116.92-2.65,126.25,6.52,126.25,17.85"/>
		</g>
		<g id="g4841_2_" transform="translate(244.458,143.2598)">
			<path id="path4843_2_" class="st3" d="M117.24,33.32l11.27-30.14h4.77l-16.04,41.88L101.21,3.18h4.77L117.24,33.32z"/>
		</g>
		<g id="g4845_2_" transform="translate(259.1797,159.1475)">
			<path id="path4847_2_" class="st3" d="M132.2-14.59l-18.24,41.41h4.82l13.31-31.13l13,31.13h4.87L132.2-14.59z"/>
		</g>
	</g>
</g>
<g id="Register">
	<g>
		<path class="st3" d="M577.8,196.24c1.28,0,2.54,0.32,3.76,0.95s2.17,1.54,2.86,2.71c0.68,1.18,1.02,2.4,1.02,3.68
			c0,1.26-0.34,2.48-1.01,3.64s-1.61,2.07-2.83,2.71s-2.48,0.97-3.8,0.97s-2.59-0.32-3.8-0.97s-2.16-1.55-2.83-2.71
			s-1.01-2.38-1.01-3.64c0-1.28,0.34-2.5,1.03-3.68c0.68-1.18,1.64-2.08,2.86-2.71C575.27,196.56,576.52,196.24,577.8,196.24z
			 M577.8,197.45c-1.07,0-2.12,0.26-3.13,0.79c-1.02,0.53-1.81,1.28-2.38,2.26c-0.57,0.98-0.86,2-0.86,3.06
			c0,1.06,0.28,2.07,0.85,3.04c0.56,0.97,1.35,1.72,2.37,2.26s2.07,0.81,3.17,0.81s2.16-0.27,3.17-0.81s1.8-1.29,2.36-2.26
			c0.56-0.97,0.84-1.98,0.84-3.04c0-1.06-0.29-2.08-0.86-3.06c-0.57-0.98-1.37-1.74-2.38-2.26S578.87,197.45,577.8,197.45z
			 M574.45,207.63v-7.89h2.83c0.96,0,1.66,0.07,2.1,0.22c0.43,0.15,0.78,0.4,1.03,0.76c0.26,0.36,0.38,0.75,0.38,1.16
			c0,0.58-0.21,1.08-0.64,1.51c-0.43,0.43-1,0.67-1.71,0.72c0.29,0.12,0.52,0.26,0.7,0.42c0.33,0.31,0.74,0.83,1.21,1.56l1,1.54
			h-1.62l-0.73-1.24c-0.57-0.98-1.04-1.59-1.39-1.84c-0.24-0.18-0.6-0.27-1.06-0.27h-0.78v3.35H574.45z M575.78,203.19h1.61
			c0.77,0,1.29-0.11,1.57-0.33c0.28-0.22,0.42-0.51,0.42-0.87c0-0.23-0.07-0.44-0.2-0.63s-0.32-0.32-0.56-0.41
			c-0.24-0.09-0.68-0.14-1.33-0.14h-1.51V203.19z"/>
	</g>
</g>
<g id="tagline_moved">
	<g>
		<path d="M255.22,318.18h-1.46v-13.1h1.89c2.48,0,4.79,0.66,4.79,3.61c0,2.01-1.27,3.44-3.28,3.61l4.17,5.87h-1.79l-3.96-5.75
			h-0.37V318.18z M255.22,311.15h0.45c1.65,0,3.32-0.31,3.32-2.35c0-2.15-1.58-2.36-3.33-2.36h-0.43V311.15z"/>
		<path d="M265.18,314.39c0.02,1.51,1.09,2.73,2.67,2.73c1.18,0,1.94-0.71,2.48-1.68l1.18,0.68c-0.78,1.46-2.1,2.29-3.77,2.29
			c-2.43,0-3.99-1.86-3.99-4.2c0-2.41,1.41-4.41,3.96-4.41c2.62,0,4.01,2.17,3.87,4.6H265.18z M270.13,313.22
			c-0.19-1.18-1.18-2.14-2.39-2.14c-1.2,0-2.31,0.95-2.48,2.14H270.13z"/>
		<path d="M280.87,317.05h-0.03c-0.68,0.89-1.7,1.35-2.81,1.35c-2.4,0-3.91-2.03-3.91-4.29c0-2.33,1.48-4.32,3.92-4.32
			c1.09,0,2.14,0.52,2.8,1.39h0.03v-7.33h1.39v14.33h-1.39V317.05z M275.54,314.01c0,1.6,0.94,3.11,2.67,3.11
			c1.79,0,2.73-1.44,2.73-3.09c0-1.63-1.02-2.95-2.75-2.95C276.58,311.08,275.54,312.49,275.54,314.01z"/>
		<path d="M288.08,306.94c0,0.56-0.45,0.99-0.99,0.99c-0.54,0-0.99-0.43-0.99-0.99c0-0.54,0.45-0.99,0.99-0.99
			C287.63,305.96,288.08,306.41,288.08,306.94z M287.79,318.18h-1.39v-8.16h1.39V318.18z"/>
		<path d="M295.29,311.91c-0.19-0.43-0.61-0.83-1.11-0.83c-0.49,0-1.01,0.38-1.01,0.9c0,0.75,0.94,1.03,1.89,1.43
			c0.95,0.4,1.89,0.97,1.89,2.35c0,1.54-1.25,2.66-2.76,2.66c-1.37,0-2.45-0.78-2.88-2.07l1.23-0.52c0.35,0.76,0.75,1.3,1.67,1.3
			c0.75,0,1.32-0.5,1.32-1.25c0-1.82-3.68-1.2-3.68-3.77c0-1.37,1.11-2.31,2.43-2.31c0.94,0,1.81,0.66,2.17,1.51L295.29,311.91z"/>
		<path d="M306.29,312.45h-0.03c-0.64-0.82-1.44-1.37-2.54-1.37c-1.68,0-2.88,1.39-2.88,3.02c0,1.61,1.11,3.02,2.81,3.02
			c1.16,0,1.98-0.52,2.66-1.41h0.03v1.86c-0.8,0.54-1.61,0.83-2.59,0.83c-2.46,0-4.34-1.84-4.34-4.31c0-2.43,1.96-4.31,4.36-4.31
			c0.89,0,1.79,0.29,2.52,0.82V312.45z"/>
		<path d="M309.08,314.12c0-2.4,1.89-4.32,4.29-4.32c2.4,0,4.29,1.93,4.29,4.32c0,2.4-1.91,4.29-4.29,4.29
			C310.99,318.41,309.08,316.52,309.08,314.12z M310.47,314.1c0,1.67,1.18,3.02,2.9,3.02c1.72,0,2.9-1.35,2.9-3.02
			c0-1.65-1.18-3.02-2.9-3.02C311.65,311.08,310.47,312.45,310.47,314.1z"/>
		<path d="M323.59,315.51l2.43-5.49h1.56l-3.99,8.7l-4.01-8.7h1.58L323.59,315.51z"/>
		<path d="M330.92,314.39c0.02,1.51,1.09,2.73,2.67,2.73c1.18,0,1.94-0.71,2.48-1.68l1.18,0.68c-0.78,1.46-2.1,2.29-3.77,2.29
			c-2.43,0-3.99-1.86-3.99-4.2c0-2.41,1.41-4.41,3.96-4.41c2.62,0,4.01,2.17,3.87,4.6H330.92z M335.87,313.22
			c-0.19-1.18-1.18-2.14-2.39-2.14c-1.2,0-2.31,0.95-2.48,2.14H335.87z"/>
		<path d="M341.87,310.9h0.03c0.49-0.64,0.9-1.11,1.81-1.11c0.47,0,0.85,0.15,1.25,0.38l-0.66,1.27c-0.28-0.19-0.47-0.36-0.83-0.36
			c-1.53,0-1.6,1.96-1.6,3.02v4.08h-1.39v-8.16h1.39V310.9z"/>
		<path d="M355.79,318.18h-1.39v-6.88h-0.85v-1.29h0.85v-2.94h1.39v2.94h1.46v1.29h-1.46V318.18z"/>
		<path d="M361.19,303.85v7.12l0.03,0.03c0.57-0.78,1.32-1.22,2.33-1.22c2.26,0,2.78,1.63,2.78,3.54v4.85h-1.39v-4.6
			c0-1.32-0.1-2.5-1.72-2.5c-1.91,0-2.03,1.77-2.03,3.23v3.87h-1.39v-14.33H361.19z"/>
		<path d="M370.97,314.39c0.02,1.51,1.09,2.73,2.67,2.73c1.18,0,1.95-0.71,2.49-1.68l1.18,0.68c-0.78,1.46-2.1,2.29-3.77,2.29
			c-2.43,0-4-1.86-4-4.2c0-2.41,1.41-4.41,3.96-4.41c2.62,0,4.01,2.17,3.87,4.6H370.97z M375.92,313.22
			c-0.19-1.18-1.18-2.14-2.39-2.14c-1.2,0-2.31,0.95-2.49,2.14H375.92z"/>
		<path d="M389.2,306.94c0,0.56-0.45,0.99-0.99,0.99c-0.54,0-0.99-0.43-0.99-0.99c0-0.54,0.45-0.99,0.99-0.99
			C388.75,305.96,389.2,306.41,389.2,306.94z M388.91,322.77h-1.39v-12.75h1.39V322.77z"/>
		<path d="M392.38,314.12c0-2.4,1.89-4.32,4.29-4.32c2.4,0,4.29,1.93,4.29,4.32c0,2.4-1.91,4.29-4.29,4.29
			C394.29,318.41,392.38,316.52,392.38,314.12z M393.77,314.1c0,1.67,1.18,3.02,2.9,3.02c1.72,0,2.9-1.35,2.9-3.02
			c0-1.65-1.18-3.02-2.9-3.02C394.95,311.08,393.77,312.45,393.77,314.1z"/>
		<path d="M402.83,310.02h1.62l2.88,5.85l2.64-5.85h1.58l-6.03,12.75h-1.58l2.64-5.35L402.83,310.02z"/>
		<path d="M420.06,314.12c0-2.4,1.89-4.32,4.29-4.32c2.4,0,4.29,1.93,4.29,4.32c0,2.4-1.91,4.29-4.29,4.29
			C421.97,318.41,420.06,316.52,420.06,314.12z M421.45,314.1c0,1.67,1.18,3.02,2.9,3.02c1.72,0,2.9-1.35,2.9-3.02
			c0-1.65-1.18-3.02-2.9-3.02C422.63,311.08,421.45,312.45,421.45,314.1z"/>
		<path d="M433.37,318.18h-1.39v-6.88h-0.76v-1.29h0.76v-3.25c0-0.68,0-1.53,0.36-2.12c0.45-0.73,1.27-1.03,2.1-1.03
			c0.33,0,0.66,0.07,0.99,0.17v1.41c-0.31-0.11-0.59-0.19-0.94-0.19c-1.13,0-1.13,0.8-1.13,2.24v2.76h2.07v1.29h-2.07V318.18z"/>
		<path d="M445.97,310.9h0.03c0.43-0.68,1.13-1.11,1.96-1.11c0.96,0,1.82,0.5,2.26,1.36c0.49-0.9,1.46-1.36,2.45-1.36
			c2.08,0,2.6,1.7,2.6,3.42v4.97h-1.39v-4.74c0-1.06-0.07-2.36-1.49-2.36c-1.6,0-1.77,1.55-1.77,2.78v4.33h-1.39v-4.64
			c0-1.01-0.12-2.47-1.46-2.47c-1.63,0-1.81,1.65-1.81,2.88v4.22h-1.39v-8.16h1.39V310.9z"/>
		<path d="M466.68,318.18h-1.39v-1.13h-0.03c-0.71,0.9-1.67,1.35-2.81,1.35c-2.4,0-3.91-2.03-3.91-4.29c0-2.33,1.48-4.32,3.93-4.32
			c1.11,0,2.12,0.52,2.8,1.39h0.03v-1.16h1.39V318.18z M459.96,314.01c0,1.6,0.94,3.11,2.67,3.11c1.79,0,2.73-1.44,2.73-3.09
			c0-1.63-1.02-2.95-2.74-2.95C461,311.08,459.96,312.49,459.96,314.01z"/>
		<path d="M471.88,313.04l2.97-3.02h1.86l-3.49,3.47l4.15,4.69h-1.84l-3.28-3.72l-0.36,0.37v3.35h-1.39v-14.33h1.39V313.04z"/>
		<path d="M481.97,306.94c0,0.56-0.45,0.99-0.99,0.99c-0.54,0-0.99-0.43-0.99-0.99c0-0.54,0.45-0.99,0.99-0.99
			C481.52,305.96,481.97,306.41,481.97,306.94z M481.68,318.18h-1.39v-8.16h1.39V318.18z"/>
		<path d="M487.27,311.01h0.03c0.57-0.78,1.32-1.22,2.33-1.22c2.26,0,2.78,1.63,2.78,3.54v4.85h-1.39v-4.6c0-1.32-0.11-2.5-1.72-2.5
			c-1.91,0-2.03,1.77-2.03,3.23v3.87h-1.39v-8.16h1.39V311.01z"/>
		<path d="M503.73,317.78c0,1.31,0,2.43-0.84,3.51c-0.76,0.97-1.94,1.44-3.16,1.44c-2.27,0-3.96-1.44-4.01-3.75h1.39
			c0.02,1.51,1.11,2.46,2.6,2.46c2.15,0,2.62-1.58,2.62-3.42v-0.97h-0.03c-0.66,0.85-1.74,1.35-2.83,1.35c-2.38,0-3.89-2-3.89-4.27
			c0-2.29,1.53-4.34,3.94-4.34c1.13,0,2.12,0.5,2.78,1.39h0.03v-1.16h1.39V317.78z M497.01,314.01c0,1.6,0.94,3.11,2.67,3.11
			c1.79,0,2.73-1.44,2.73-3.09c0-1.63-1.03-2.95-2.74-2.95C498.05,311.08,497.01,312.49,497.01,314.01z"/>
		<path d="M515.86,318.18h-1.39v-6.88h-0.85v-1.29h0.85v-2.94h1.39v2.94h1.46v1.29h-1.46V318.18z"/>
		<path d="M521.26,303.85v7.12l0.04,0.03c0.57-0.78,1.32-1.22,2.33-1.22c2.26,0,2.78,1.63,2.78,3.54v4.85h-1.39v-4.6
			c0-1.32-0.11-2.5-1.72-2.5c-1.91,0-2.03,1.77-2.03,3.23v3.87h-1.39v-14.33H521.26z"/>
		<path d="M532.3,306.94c0,0.56-0.45,0.99-0.99,0.99c-0.54,0-0.99-0.43-0.99-0.99c0-0.54,0.45-0.99,0.99-0.99
			C531.85,305.96,532.3,306.41,532.3,306.94z M532,318.18h-1.39v-8.16H532V318.18z"/>
		<path d="M537.6,311.01h0.03c0.57-0.78,1.32-1.22,2.33-1.22c2.26,0,2.78,1.63,2.78,3.54v4.85h-1.39v-4.6c0-1.32-0.1-2.5-1.72-2.5
			c-1.91,0-2.03,1.77-2.03,3.23v3.87h-1.39v-8.16h1.39V311.01z"/>
		<path d="M554.05,317.78c0,1.31,0,2.43-0.84,3.51c-0.76,0.97-1.94,1.44-3.16,1.44c-2.27,0-3.96-1.44-4.01-3.75h1.39
			c0.02,1.51,1.11,2.46,2.6,2.46c2.15,0,2.62-1.58,2.62-3.42v-0.97h-0.03c-0.66,0.85-1.74,1.35-2.83,1.35c-2.38,0-3.89-2-3.89-4.27
			c0-2.29,1.53-4.34,3.94-4.34c1.13,0,2.12,0.5,2.78,1.39h0.03v-1.16h1.39V317.78z M547.33,314.01c0,1.6,0.94,3.11,2.68,3.11
			c1.79,0,2.73-1.44,2.73-3.09c0-1.63-1.03-2.95-2.75-2.95C548.37,311.08,547.33,312.49,547.33,314.01z"/>
		<path d="M561.37,311.91c-0.19-0.43-0.61-0.83-1.11-0.83c-0.49,0-1.01,0.38-1.01,0.9c0,0.75,0.94,1.03,1.89,1.43
			c0.96,0.4,1.89,0.97,1.89,2.35c0,1.54-1.25,2.66-2.76,2.66c-1.37,0-2.45-0.78-2.88-2.07l1.23-0.52c0.35,0.76,0.75,1.3,1.67,1.3
			c0.75,0,1.32-0.5,1.32-1.25c0-1.82-3.68-1.2-3.68-3.77c0-1.37,1.11-2.31,2.43-2.31c0.94,0,1.81,0.66,2.17,1.51L561.37,311.91z"/>
	</g>
</g>
</svg>
