<?xml version="1.0" encoding="UTF-8" standalone="no"?>
<!-- Generator: Adobe Illustrator 23.1.1, SVG Export Plug-In . SVG Version: 6.00 Build 0)  -->

<svg
   xmlns:dc="http://purl.org/dc/elements/1.1/"
   xmlns:cc="http://creativecommons.org/ns#"
   xmlns:rdf="http://www.w3.org/1999/02/22-rdf-syntax-ns#"
   xmlns:svg="http://www.w3.org/2000/svg"
   xmlns="http://www.w3.org/2000/svg"
   xmlns:xlink="http://www.w3.org/1999/xlink"
   xmlns:sodipodi="http://sodipodi.sourceforge.net/DTD/sodipodi-0.dtd"
   xmlns:inkscape="http://www.inkscape.org/namespaces/inkscape"
   version="1.1"
   x="0px"
   y="0px"
   viewBox="0 0 612 396"
   style="enable-background:new 0 0 612 396;"
   xml:space="preserve"
   id="svg2416"
   sodipodi:docname="novalabs_r_circular.svg"
   inkscape:version="0.92.4 (5da689c313, 2019-01-14)"><metadata
   id="metadata2422"><rdf:RDF><cc:Work
       rdf:about=""><dc:format>image/svg+xml</dc:format><dc:type
         rdf:resource="http://purl.org/dc/dcmitype/StillImage" /><dc:title /></cc:Work></rdf:RDF></metadata><defs
   id="defs2420">
	
	

		
		
		
		
	
		
		
		
		
	</defs><sodipodi:namedview
   pagecolor="#ffffff"
   bordercolor="#666666"
   borderopacity="1"
   objecttolerance="10"
   gridtolerance="10"
   guidetolerance="10"
   inkscape:pageopacity="0"
   inkscape:pageshadow="2"
   inkscape:window-width="2846"
   inkscape:window-height="1845"
   id="namedview2418"
   showgrid="false"
   inkscape:zoom="2"
   inkscape:cx="304.75386"
   inkscape:cy="77.459593"
   inkscape:window-x="780"
   inkscape:window-y="210"
   inkscape:window-maximized="0"
   inkscape:current-layer="svg2416" />
<style
   type="text/css"
   id="style2306">
	.st0{fill:#515153;}
	.st1{fill:#F2682D;}
	.st2{fill:#F36E3D;}
	.st3{fill:#58595B;}
</style>


<g
   id="Register"
   transform="matrix(0.72863166,-0.04866064,0.04866064,0.72863166,-232.08043,-35.786852)">
	<g
   id="g2350">
		<path
   class="st3"
   d="m 577.8,196.24 c 1.28,0 2.54,0.32 3.76,0.95 1.22,0.63 2.17,1.54 2.86,2.71 0.68,1.18 1.02,2.4 1.02,3.68 0,1.26 -0.34,2.48 -1.01,3.64 -0.67,1.16 -1.61,2.07 -2.83,2.71 -1.22,0.64 -2.48,0.97 -3.8,0.97 -1.32,0 -2.59,-0.32 -3.8,-0.97 -1.21,-0.65 -2.16,-1.55 -2.83,-2.71 -0.67,-1.16 -1.01,-2.38 -1.01,-3.64 0,-1.28 0.34,-2.5 1.03,-3.68 0.68,-1.18 1.64,-2.08 2.86,-2.71 1.22,-0.63 2.47,-0.95 3.75,-0.95 z m 0,1.21 c -1.07,0 -2.12,0.26 -3.13,0.79 -1.02,0.53 -1.81,1.28 -2.38,2.26 -0.57,0.98 -0.86,2 -0.86,3.06 0,1.06 0.28,2.07 0.85,3.04 0.56,0.97 1.35,1.72 2.37,2.26 1.02,0.54 2.07,0.81 3.17,0.81 1.1,0 2.16,-0.27 3.17,-0.81 1.01,-0.54 1.8,-1.29 2.36,-2.26 0.56,-0.97 0.84,-1.98 0.84,-3.04 0,-1.06 -0.29,-2.08 -0.86,-3.06 -0.57,-0.98 -1.37,-1.74 -2.38,-2.26 -1.01,-0.52 -2.08,-0.79 -3.15,-0.79 z m -3.35,10.18 v -7.89 h 2.83 c 0.96,0 1.66,0.07 2.1,0.22 0.43,0.15 0.78,0.4 1.03,0.76 0.26,0.36 0.38,0.75 0.38,1.16 0,0.58 -0.21,1.08 -0.64,1.51 -0.43,0.43 -1,0.67 -1.71,0.72 0.29,0.12 0.52,0.26 0.7,0.42 0.33,0.31 0.74,0.83 1.21,1.56 l 1,1.54 h -1.62 L 579,206.39 c -0.57,-0.98 -1.04,-1.59 -1.39,-1.84 -0.24,-0.18 -0.6,-0.27 -1.06,-0.27 h -0.78 v 3.35 z m 1.33,-4.44 h 1.61 c 0.77,0 1.29,-0.11 1.57,-0.33 0.28,-0.22 0.42,-0.51 0.42,-0.87 0,-0.23 -0.07,-0.44 -0.2,-0.63 -0.13,-0.19 -0.32,-0.32 -0.56,-0.41 -0.24,-0.09 -0.68,-0.14 -1.33,-0.14 h -1.51 z"
   id="path2348"
   inkscape:connector-curvature="0"
   style="fill:#58595b" />
	</g>
</g>

<text
   xml:space="preserve"
   style="font-style:normal;font-variant:normal;font-weight:normal;font-stretch:normal;font-size:40px;line-height:1.25;font-family:'Ink Free';-inkscape-font-specification:'Ink Free';letter-spacing:0px;word-spacing:0px;fill:#000000;fill-opacity:1;stroke:none"
   id="text953"
   transform="rotate(144.02374,139.97437,167.47881)"><textPath
     xlink:href="#path4741"
     id="textPath4743"><tspan
       style="font-style:normal;font-variant:normal;font-weight:500;font-stretch:normal;font-size:40px;font-family:'Futura Heavy';-inkscape-font-specification:'Futura Heavy, Medium';font-variant-ligatures:normal;font-variant-caps:normal;font-variant-numeric:normal;font-feature-settings:normal;text-align:start;writing-mode:lr-tb;text-anchor:start"
       id="tspan951">NOVA</tspan><tspan
       id="tspan4750"
       style="font-style:normal;font-variant:normal;font-weight:500;font-stretch:normal;font-size:26.66666603px;font-family:'Futura Heavy';-inkscape-font-specification:'Futura Heavy, Medium';font-variant-ligatures:normal;font-variant-caps:normal;font-variant-numeric:normal;font-feature-settings:normal;text-align:start;writing-mode:lr-tb;text-anchor:start"> </tspan><tspan
       id="tspan4679"
       style="font-style:normal;font-variant:normal;font-weight:500;font-stretch:normal;font-size:58.66666794px;font-family:'Futura Heavy';-inkscape-font-specification:'Futura Heavy, Medium';font-variant-ligatures:normal;font-variant-caps:normal;font-variant-numeric:normal;font-feature-settings:normal;text-align:start;writing-mode:lr-tb;text-anchor:start">Labs</tspan><tspan
       id="tspan4756"
       style="font-style:normal;font-variant:normal;font-weight:500;font-stretch:normal;font-size:26.66666603px;font-family:'Futura Heavy';-inkscape-font-specification:'Futura Heavy, Medium';font-variant-ligatures:normal;font-variant-caps:normal;font-variant-numeric:normal;font-feature-settings:normal;text-align:start;writing-mode:lr-tb;text-anchor:start"> </tspan><tspan
       style="font-style:normal;font-variant:normal;font-weight:500;font-stretch:normal;font-size:34.66666794px;font-family:'Futura Heavy';-inkscape-font-specification:'Futura Heavy, Medium';font-variant-ligatures:normal;font-variant-caps:normal;font-variant-numeric:normal;font-feature-settings:normal;text-align:start;writing-mode:lr-tb;text-anchor:start"
       id="tspan4735">PPE Challenge</tspan></textPath></text>
<flowRoot
   xml:space="preserve"
   id="flowRoot959"
   style="fill:black;fill-opacity:1;stroke:none;font-family:'Ink Free';font-style:normal;font-weight:normal;font-size:40px;line-height:1.25;letter-spacing:0px;word-spacing:0px;-inkscape-font-specification:'Ink Free';font-stretch:normal;font-variant:normal"><flowRegion
     id="flowRegion961"><rect
       id="rect963"
       width="318.45749"
       height="167.64771"
       x="-70.858406"
       y="-31.407076" /></flowRegion><flowPara
     id="flowPara965"></flowPara></flowRoot><circle
   style="fill:none;fill-opacity:1;stroke:none;stroke-opacity:1"
   id="path4741"
   cx="140.5"
   cy="163"
   r="82.5" /></svg>