<?xml version="1.0" encoding="UTF-8" standalone="no"?>
<!-- Generator: Adobe Illustrator 23.1.1, SVG Export Plug-In . SVG Version: 6.00 Build 0)  -->

<svg
   xmlns:dc="http://purl.org/dc/elements/1.1/"
   xmlns:cc="http://creativecommons.org/ns#"
   xmlns:rdf="http://www.w3.org/1999/02/22-rdf-syntax-ns#"
   xmlns:svg="http://www.w3.org/2000/svg"
   xmlns="http://www.w3.org/2000/svg"
   xmlns:xlink="http://www.w3.org/1999/xlink"
   xmlns:sodipodi="http://sodipodi.sourceforge.net/DTD/sodipodi-0.dtd"
   xmlns:inkscape="http://www.inkscape.org/namespaces/inkscape"
   inkscape:dataloss="true"
   inkscape:version="0.92.4 (5da689c313, 2019-01-14)"
   sodipodi:docname="novalabs_ppe_circular.dxf"
   id="svg2416"
   xml:space="preserve"
   style="enable-background:new 0 0 612 396;"
   viewBox="0 0 612 396"
   y="0px"
   x="0px"
   version="1.1"><metadata
   id="metadata2422"><rdf:RDF><cc:Work
       rdf:about=""><dc:format>image/svg+xml</dc:format><dc:type
         rdf:resource="http://purl.org/dc/dcmitype/StillImage" /><dc:title /></cc:Work></rdf:RDF></metadata><defs
   id="defs2420">
	
	

		
		
		
		
	
		
		
		
		
	<clipPath
   id="clipPath16"
   clipPathUnits="userSpaceOnUse"><path
     inkscape:connector-curvature="0"
     id="path18"
     d="M 0,900 H 1800 V 0 H 0 Z" /></clipPath><clipPath
   id="clipPath56"
   clipPathUnits="userSpaceOnUse"><path
     inkscape:connector-curvature="0"
     id="path58"
     d="M 0,900 H 1800 V 0 H 0 Z" /></clipPath><clipPath
   id="clipPath176"
   clipPathUnits="userSpaceOnUse"><path
     inkscape:connector-curvature="0"
     id="path178"
     d="M 0,900 H 1800 V 0 H 0 Z" /></clipPath><marker
   style="overflow:visible"
   refY="0.0"
   refX="0.0"
   orient="auto"
   id="DistanceX"><path
     id="path5137"
     style="stroke:#000000; stroke-width:0.5"
     d="M 3,-3 L -3,3 M 0,-5 L  0,5" /></marker><pattern
   y="0"
   x="0"
   width="8"
   patternUnits="userSpaceOnUse"
   id="Hatch"
   height="8"><path
     id="path5140"
     stroke-width="0.25"
     stroke="#000000"
     linecap="square"
     d="M8 4 l-4,4" /><path
     id="path5142"
     stroke-width="0.25"
     stroke="#000000"
     linecap="square"
     d="M6 2 l-4,4" /><path
     id="path5144"
     stroke-width="0.25"
     stroke="#000000"
     linecap="square"
     d="M4 0 l-4,4" /></pattern><symbol
   id="*Model_Space" /><symbol
   id="*Paper_Space" /><symbol
   id="*Paper_Space0" /></defs><sodipodi:namedview
   pagecolor="#ffffff"
   bordercolor="#666666"
   borderopacity="1"
   objecttolerance="10"
   gridtolerance="10"
   guidetolerance="10"
   inkscape:pageopacity="0"
   inkscape:pageshadow="2"
   inkscape:window-width="2846"
   inkscape:window-height="1845"
   id="namedview2418"
   showgrid="false"
   inkscape:zoom="2.8284271"
   inkscape:cx="-2.783115"
   inkscape:cy="2.7309623"
   inkscape:window-x="780"
   inkscape:window-y="210"
   inkscape:window-maximized="0"
   inkscape:current-layer="text953" />
<style
   type="text/css"
   id="style2306">
	.st0{fill:#515153;}
	.st1{fill:#F2682D;}
	.st2{fill:#F36E3D;}
	.st3{fill:#58595B;}
</style>




<flowRoot
   xml:space="preserve"
   id="flowRoot959"
   style="fill:black;fill-opacity:1;stroke:none;font-family:'Ink Free';font-style:normal;font-weight:normal;font-size:40px;line-height:1.25;letter-spacing:0px;word-spacing:0px;-inkscape-font-specification:'Ink Free';font-stretch:normal;font-variant:normal"><flowRegion
     id="flowRegion961"><rect
       id="rect963"
       width="318.45749"
       height="167.64771"
       x="-70.858406"
       y="-31.407076" /></flowRegion><flowPara
     id="flowPara965"></flowPara></flowRoot><circle
   style="fill:none;fill-opacity:1;stroke:none;stroke-opacity:1"
   id="path4741"
   cx="140.5"
   cy="163"
   r="82.5" /><flowRoot
   xml:space="preserve"
   id="flowRoot4993"
   style="fill:black;fill-opacity:1;stroke:none;font-family:'Ink Free';font-style:normal;font-weight:normal;font-size:40px;line-height:1.25;letter-spacing:0px;word-spacing:0px;-inkscape-font-specification:'Ink Free';font-stretch:normal;font-variant:normal"><flowRegion
     id="flowRegion4995"><rect
       id="rect4997"
       width="418.96075"
       height="353.19983"
       x="-234.75945"
       y="197.30299" /></flowRegion><flowPara
     id="flowPara4999"></flowPara></flowRoot><circle
   style="fill:none;fill-opacity:1;stroke:none;stroke-opacity:1"
   id="path5001"
   cx="126.00631"
   cy="-365.06638"
   r="181.41733"
   transform="rotate(156.36782)" /><text
   xml:space="preserve"
   style="font-style:normal;font-variant:normal;font-weight:normal;font-stretch:normal;font-size:40px;line-height:1.25;font-family:'Ink Free';-inkscape-font-specification:'Ink Free';letter-spacing:0px;word-spacing:0px;fill:#000000;fill-opacity:1;stroke:none"
   id="text5005"><textPath
     xlink:href="#path5001"
     id="textPath5013"><tspan
   style="-inkscape-font-specification:'Futura Heavy, Medium';font-family:'Futura Heavy';font-weight:500;font-style:normal;font-stretch:normal;font-variant:normal;font-size:74.66666667px;text-anchor:start;text-align:start;writing-mode:lr;font-variant-ligatures:normal;font-variant-caps:normal;font-variant-numeric:normal;font-feature-settings:normal"
   id="tspan5003">NOVA <tspan
   id="tspan5011"
   style="-inkscape-font-specification:'Futura Heavy, Medium';font-family:'Futura Heavy';font-weight:500;font-style:normal;font-stretch:normal;font-variant:normal;font-size:85.33333333px;text-anchor:start;text-align:start;writing-mode:lr;font-variant-ligatures:normal;font-variant-caps:normal;font-variant-numeric:normal;font-feature-settings:normal">Labs</tspan></tspan></textPath></text>
<style
   id="style5503"
   type="text/css">
	.st0{fill:#515153;}
	.st1{fill:#F2682D;}
	.st2{fill:#F36E3D;}
	.st3{fill:#58595B;}
</style><g
   id="Gear"
   transform="matrix(1.5274983,0,0,1.4695497,-186.06291,130.80621)">
	<g
   id="g5521">
		<path
   style="fill:#515153"
   inkscape:connector-curvature="0"
   class="st0"
   d="m 220.15,179.11 c 0.15,-0.62 0.29,-1.23 0.42,-1.86 0.01,-0.03 -0.01,-0.07 0,-0.1 0.25,-1.23 0.49,-2.47 0.68,-3.71 0.2,-1.26 0.34,-2.54 0.47,-3.81 l 21.31,-7.72 -0.89,-12.88 -22.2,-4.96 c -0.29,-1.2 -0.59,-2.38 -0.94,-3.56 -0.35,-1.16 -0.75,-2.31 -1.15,-3.46 -0.8,-2.3 -1.69,-4.55 -2.71,-6.77 l 14.57,-16.78 v -0.05 l -7.42,-10.72 v -0.05 l -21.83,6.21 c -0.08,-0.09 -0.18,-0.17 -0.26,-0.25 -3.56,-3.65 -7.53,-7.02 -11.86,-10.02 L 192.1,77.03 180.04,71.32 164.42,87.2 c -5.2,-1.53 -10.5,-2.51 -15.77,-3.01 l -0.47,-1.15 c -0.02,-0.07 -0.03,-0.14 -0.05,-0.2 v -0.1 l -3.55,-9.02 -0.16,-0.35 c -1.27,-3.22 -2.54,-6.41 -3.81,-9.62 L 127.18,64.6 122,85.92 c -4.92,1.11 -9.74,2.65 -14.36,4.61 l -17.5,-13.98 -11.28,7.12 6.48,20.94 c -1.96,1.74 -3.85,3.57 -5.64,5.51 -0.89,0.97 -1.76,1.94 -2.61,2.96 -0.01,0.01 0.01,0.04 0,0.05 -0.85,1.02 -1.66,2.04 -2.45,3.11 l -22.51,-3.61 -5.95,11.57 16.56,14.98 c -0.35,1.08 -0.65,2.17 -0.94,3.26 -0.13,0.47 -0.25,0.93 -0.37,1.4 -0.21,0.85 -0.45,1.7 -0.63,2.56 -0.03,0.13 -0.03,0.27 -0.05,0.4 -0.26,1.24 -0.49,2.47 -0.68,3.71 -0.19,1.27 -0.34,2.54 -0.47,3.81 l -21.31,7.71 0.89,12.88 22.2,4.96 c 0.29,1.18 0.6,2.34 0.94,3.51 0,0.02 -0.01,0.03 0,0.05 1.03,3.48 2.34,6.91 3.87,10.22 L 51.6,210.43 v 0.05 l 7.42,10.72 v 0.05 l 21.83,-6.21 17.94,-16.2 c -9.29,-9.7 -14.96,-22.65 -14.96,-36.86 0,-30.1 25.44,-54.51 56.83,-54.51 31.39,0 56.83,24.41 56.83,54.51 0,30.11 -25.44,54.51 -56.83,54.51 -1.7,0 -3.37,-0.07 -5.03,-0.22 l -2.96,23.46 v 0.05 c 1.28,3.44 2.7,6.95 4.07,10.42 1.32,3.34 2.65,6.64 3.97,9.97 l 13.42,-0.85 5.17,-21.29 c 4.91,-1.12 9.74,-2.65 14.36,-4.61 l 17.5,13.98 11.28,-7.12 -6.48,-20.94 c 0.99,-0.88 1.92,-1.78 2.87,-2.71 1.87,-1.83 3.69,-3.74 5.38,-5.76 0.01,-0.01 -0.01,-0.04 0,-0.05 0.85,-1.02 1.65,-2.04 2.45,-3.11 l 22.51,3.61 5.95,-11.57 -16.56,-14.98 c 0.4,-1.25 0.77,-2.5 1.1,-3.76 0.18,-0.63 0.34,-1.26 0.49,-1.9"
   id="path5505" />
		<path
   style="fill:#f2682d"
   inkscape:connector-curvature="0"
   class="st1"
   d="m 140.23,205.27 c -1.08,0 -2.16,-0.04 -3.22,-0.11 l -1.12,8.73 c 1.57,0.13 3.15,0.2 4.75,0.2 30,0 54.32,-23.33 54.32,-52.11 0,-28.78 -24.32,-52.11 -54.32,-52.11 -30,0 -54.32,23.33 -54.32,52.11 0,13.59 5.43,25.95 14.31,35.22 l 6.54,-5.94 c -7.25,-7.62 -11.66,-17.76 -11.66,-28.88 0,-23.69 20.02,-42.89 44.71,-42.89 24.69,0 44.71,19.2 44.71,42.89 0.01,23.68 -20,42.89 -44.7,42.89"
   id="path5507" />
		<path
   style="fill:#f2682d"
   inkscape:connector-curvature="0"
   class="st1"
   d="m 111.28,228.85 30.24,-57.91 -8.81,-4.23 -30.72,58.84 c 1.36,0.49 2.76,0.98 4.09,1.46 1.81,0.63 3.57,1.26 5.2,1.84"
   id="path5509" />
		<path
   style="fill:#f2682d"
   inkscape:connector-curvature="0"
   class="st1"
   d="m 79.88,267.89 -2.4,4.6 8.81,4.23 2.88,-5.52 c -1.28,-0.46 -2.6,-0.93 -3.84,-1.37 -1.9,-0.67 -3.75,-1.33 -5.45,-1.94"
   id="path5511" />
		<path
   style="fill:#515153"
   inkscape:connector-curvature="0"
   class="st0"
   d="m 123.99,238.08 -1.34,-2.45 c -0.42,-0.78 -1.25,-1.25 -2.15,-1.25 -0.11,0 -0.23,0.01 -0.34,0.02 -0.24,0.03 -0.5,0.05 -0.77,0.05 -0.53,0 -1.09,-0.07 -1.63,-0.29 -1.19,-0.47 -6.78,-2.46 -12.69,-4.56 -5.33,-1.9 -11.37,-4.05 -12.43,-4.46 -1.59,-0.63 -3.14,-0.85 -4.53,-0.85 -1.11,0 -2.13,0.14 -2.99,0.33 -1.57,0.35 -2.37,2.01 -1.62,3.38 l 1.33,2.45 c 0.42,0.78 1.25,1.25 2.15,1.25 0.11,0 0.23,-0.01 0.35,-0.02 0.24,-0.03 0.5,-0.05 0.77,-0.05 0.53,0 1.08,0.08 1.63,0.29 1.19,0.47 6.78,2.46 12.69,4.56 5.33,1.9 11.37,4.05 12.43,4.47 1.58,0.63 3.14,0.85 4.53,0.85 1.09,0 2.09,-0.14 2.95,-0.32 1.59,-0.36 2.42,-2.02 1.66,-3.4"
   id="path5513" />
		<path
   style="fill:#515153"
   inkscape:connector-curvature="0"
   class="st0"
   d="m 118.64,248.34 -1.34,-2.45 c -0.42,-0.78 -1.25,-1.25 -2.15,-1.25 -0.11,0 -0.23,0.01 -0.34,0.02 -0.24,0.03 -0.5,0.05 -0.77,0.05 -0.53,0 -1.09,-0.07 -1.63,-0.29 -1.19,-0.47 -6.78,-2.46 -12.69,-4.56 -5.33,-1.9 -11.37,-4.05 -12.43,-4.46 -1.59,-0.63 -3.14,-0.85 -4.53,-0.85 -1.11,0 -2.13,0.14 -2.99,0.33 -1.57,0.35 -2.37,2.01 -1.62,3.38 l 1.33,2.45 c 0.42,0.78 1.25,1.25 2.15,1.25 0.11,0 0.23,-0.01 0.35,-0.02 0.24,-0.03 0.5,-0.05 0.77,-0.05 0.53,0 1.08,0.08 1.63,0.3 1.19,0.47 6.78,2.46 12.69,4.56 5.33,1.9 11.37,4.05 12.43,4.47 1.58,0.63 3.14,0.85 4.53,0.85 1.09,0 2.09,-0.14 2.95,-0.32 1.58,-0.37 2.41,-2.04 1.66,-3.41"
   id="path5515" />
		<path
   style="fill:#515153"
   inkscape:connector-curvature="0"
   class="st0"
   d="m 113.28,258.59 -1.34,-2.45 c -0.42,-0.78 -1.25,-1.25 -2.15,-1.25 -0.11,0 -0.23,0.01 -0.34,0.02 -0.24,0.03 -0.5,0.05 -0.77,0.05 -0.53,0 -1.09,-0.07 -1.63,-0.29 -1.19,-0.47 -6.78,-2.46 -12.69,-4.56 -5.33,-1.9 -11.37,-4.05 -12.43,-4.46 -1.59,-0.63 -3.14,-0.85 -4.53,-0.85 -1.11,0 -2.13,0.14 -2.99,0.33 -1.57,0.35 -2.37,2.01 -1.62,3.38 l 1.33,2.45 c 0.42,0.78 1.25,1.25 2.15,1.25 0.11,0 0.23,-0.01 0.35,-0.02 0.24,-0.03 0.5,-0.05 0.77,-0.05 0.53,0 1.08,0.08 1.63,0.29 1.19,0.47 6.78,2.46 12.69,4.56 5.33,1.9 11.37,4.05 12.43,4.47 1.58,0.63 3.14,0.85 4.53,0.85 1.09,0 2.09,-0.14 2.95,-0.32 1.58,-0.36 2.41,-2.02 1.66,-3.4"
   id="path5517" />
		<path
   style="fill:#515153"
   inkscape:connector-curvature="0"
   class="st0"
   d="m 107.92,268.85 -1.34,-2.45 c -0.42,-0.78 -1.25,-1.25 -2.15,-1.25 -0.11,0 -0.23,0.01 -0.34,0.02 -0.24,0.03 -0.5,0.05 -0.77,0.05 -0.53,0 -1.09,-0.07 -1.63,-0.29 -1.19,-0.47 -6.78,-2.46 -12.69,-4.56 -5.33,-1.9 -11.37,-4.05 -12.43,-4.46 -1.59,-0.63 -3.14,-0.85 -4.53,-0.85 -1.11,0 -2.13,0.14 -2.99,0.33 -1.57,0.35 -2.37,2.01 -1.62,3.38 l 1.33,2.45 c 0.42,0.78 1.25,1.25 2.15,1.25 0.11,0 0.23,-0.01 0.35,-0.02 0.24,-0.03 0.5,-0.05 0.78,-0.05 0.52,0 1.08,0.08 1.63,0.29 1.19,0.47 6.78,2.46 12.69,4.56 5.33,1.9 11.37,4.05 12.43,4.47 1.58,0.63 3.14,0.85 4.53,0.85 1.09,0 2.09,-0.14 2.95,-0.32 1.57,-0.36 2.4,-2.02 1.65,-3.4"
   id="path5519" />
	</g>
</g><text
   xml:space="preserve"
   style="font-style:normal;font-variant:normal;font-weight:normal;font-stretch:normal;font-size:40px;line-height:1.25;font-family:'Ink Free';-inkscape-font-specification:'Ink Free';letter-spacing:0px;word-spacing:0px;fill:#000000;fill-opacity:1;stroke:none"
   id="text5754"><textPath
     xlink:href="#path5001-2"
     id="textPath5783"
     style="font-style:normal;font-variant:normal;font-weight:500;font-stretch:normal;font-size:72px;font-family:'Futura Heavy';-inkscape-font-specification:'Futura Heavy, Medium';font-variant-ligatures:normal;font-variant-caps:normal;font-variant-numeric:normal;font-feature-settings:normal;text-align:start;writing-mode:lr-tb;text-anchor:start">P<tspan
   style="-inkscape-font-specification:'Futura Heavy, Medium';font-family:'Futura Heavy';font-weight:500;font-style:normal;font-stretch:normal;font-variant:normal;font-size:24px;text-anchor:start;text-align:start;writing-mode:lr;font-variant-ligatures:normal;font-variant-caps:normal;font-variant-numeric:normal;font-feature-settings:normal"
   id="tspan5810"> </tspan>P<tspan
   style="-inkscape-font-specification:'Futura Heavy, Medium';font-family:'Futura Heavy';font-weight:500;font-style:normal;font-stretch:normal;font-variant:normal;font-size:24px;text-anchor:start;text-align:start;writing-mode:lr;font-variant-ligatures:normal;font-variant-caps:normal;font-variant-numeric:normal;font-feature-settings:normal"
   id="tspan5808"> </tspan>E C<tspan
   style="-inkscape-font-specification:'Futura Heavy, Medium';font-family:'Futura Heavy';font-weight:500;font-style:normal;font-stretch:normal;font-variant:normal;font-size:24px;text-anchor:start;text-align:start;writing-mode:lr;font-variant-ligatures:normal;font-variant-caps:normal;font-variant-numeric:normal;font-feature-settings:normal"
   id="tspan5806"> </tspan>H<tspan
   style="-inkscape-font-specification:'Futura Heavy, Medium';font-family:'Futura Heavy';font-weight:500;font-style:normal;font-stretch:normal;font-variant:normal;font-size:24px;text-anchor:start;text-align:start;writing-mode:lr;font-variant-ligatures:normal;font-variant-caps:normal;font-variant-numeric:normal;font-feature-settings:normal"
   id="tspan5804"> </tspan>A<tspan
   style="-inkscape-font-specification:'Futura Heavy, Medium';font-family:'Futura Heavy';font-weight:500;font-style:normal;font-stretch:normal;font-variant:normal;font-size:24px;text-anchor:start;text-align:start;writing-mode:lr;font-variant-ligatures:normal;font-variant-caps:normal;font-variant-numeric:normal;font-feature-settings:normal"
   id="tspan5802"> </tspan>L<tspan
   style="-inkscape-font-specification:'Futura Heavy, Medium';font-family:'Futura Heavy';font-weight:500;font-style:normal;font-stretch:normal;font-variant:normal;font-size:24px;text-anchor:start;text-align:start;writing-mode:lr;font-variant-ligatures:normal;font-variant-caps:normal;font-variant-numeric:normal;font-feature-settings:normal"
   id="tspan5800"> </tspan>L<tspan
   style="-inkscape-font-specification:'Futura Heavy, Medium';font-family:'Futura Heavy';font-weight:500;font-style:normal;font-stretch:normal;font-variant:normal;font-size:24px;text-anchor:start;text-align:start;writing-mode:lr;font-variant-ligatures:normal;font-variant-caps:normal;font-variant-numeric:normal;font-feature-settings:normal"
   id="tspan5798"> </tspan>E<tspan
   style="-inkscape-font-specification:'Futura Heavy, Medium';font-family:'Futura Heavy';font-weight:500;font-style:normal;font-stretch:normal;font-variant:normal;font-size:24px;text-anchor:start;text-align:start;writing-mode:lr;font-variant-ligatures:normal;font-variant-caps:normal;font-variant-numeric:normal;font-feature-settings:normal"
   id="tspan5796"> </tspan>N<tspan
   style="-inkscape-font-specification:'Futura Heavy, Medium';font-family:'Futura Heavy';font-weight:500;font-style:normal;font-stretch:normal;font-variant:normal;font-size:24px;text-anchor:start;text-align:start;writing-mode:lr;font-variant-ligatures:normal;font-variant-caps:normal;font-variant-numeric:normal;font-feature-settings:normal"
   id="tspan5788"> </tspan>G<tspan
   style="-inkscape-font-specification:'Futura Heavy, Medium';font-family:'Futura Heavy';font-weight:500;font-style:normal;font-stretch:normal;font-variant:normal;font-size:24px;text-anchor:start;text-align:start;writing-mode:lr;font-variant-ligatures:normal;font-variant-caps:normal;font-variant-numeric:normal;font-feature-settings:normal"
   id="tspan5786"> </tspan>E</textPath></text>
<circle
   style="fill:none;fill-opacity:1;stroke:none;stroke-width:1.29675543;stroke-opacity:1"
   id="path5001-2"
   cx="385.48849"
   cy="23.947519"
   r="235.25391"
   transform="matrix(0.01904309,0.99981866,0.99981866,-0.01904309,0,0)" /></svg>