  0
SECTION
  2
HEADER
  9
$ACADVER
  1
AC1014
  9
$HANDSEED
  5
FFFF
  9
$MEASUREMENT
 70
     1
  0
ENDSEC
  0
SECTION
  2
TABLES
  0
TABLE
  2
VPORT
  5
8
330
0
100
AcDbSymbolTable
 70
     4
  0
VPORT
  5
2E
330
8
100
AcDbSymbolTableRecord
100
AcDbViewportTableRecord
  2
*ACTIVE
 70
     0
 10
0.0
 20
0.0
 11
1.0
 21
1.0
 12
210.0
 22
148.5
 13
0.0
 23
0.0
 14
10.0
 24
10.0
 15
10.0
 25
10.0
 16
0.0
 26
0.0
 36
1.0
 17
0.0
 27
0.0
 37
0.0
 40
341.0
 41
1.24
 42
50.0
 43
0.0
 44
0.0
 50
0.0
 51
0.0
 71
     0
 72
   100
 73
     1
 74
     3
 75
     0
 76
     0
 77
     0
 78
     0
  0
ENDTAB
  0
TABLE
  2
LTYPE
  5
5
330
0
100
AcDbSymbolTable
 70
     1
  0
LTYPE
  5
14
330
5
100
AcDbSymbolTableRecord
100
AcDbLinetypeTableRecord
  2
BYBLOCK
 70
     0
  3

 72
    65
 73
     0
 40
0.0
  0
LTYPE
  5
15
330
5
100
AcDbSymbolTableRecord
100
AcDbLinetypeTableRecord
  2
BYLAYER
 70
     0
  3

 72
    65
 73
     0
 40
0.0
  0
LTYPE
  5
16
330
5
100
AcDbSymbolTableRecord
100
AcDbLinetypeTableRecord
  2
CONTINUOUS
 70
     0
  3
Solid line
 72
    65
 73
     0
 40
0.0
  0
ENDTAB
  0
TABLE
  2
LAYER
  5
2
100
AcDbSymbolTable
 70
2
  0
LAYER
  5
50
100
AcDbSymbolTableRecord
100
AcDbLayerTableRecord
  2
0
 70
0
  6
CONTINUOUS
  0
LAYER
  5
51
100
AcDbSymbolTableRecord
100
AcDbLayerTableRecord
  2
Layer_1
 70
0
  6
CONTINUOUS
  0
ENDTAB
  0
TABLE
  2
STYLE
  5
3
330
0
100
AcDbSymbolTable
 70
     1
  0
STYLE
  5
11
330
3
100
AcDbSymbolTableRecord
100
AcDbTextStyleTableRecord
  2
STANDARD
 70
     0
 40
0.0
 41
1.0
 50
0.0
 71
     0
 42
2.5
  3
txt
  4

  0
ENDTAB
  0
TABLE
  2
VIEW
  5
6
330
0
100
AcDbSymbolTable
 70
     0
  0
ENDTAB
  0
TABLE
  2
UCS
  5
7
330
0
100
AcDbSymbolTable
 70
     0
  0
ENDTAB
  0
TABLE
  2
APPID
  5
9
330
0
100
AcDbSymbolTable
 70
     2
  0
APPID
  5
12
330
9
100
AcDbSymbolTableRecord
100
AcDbRegAppTableRecord
  2
ACAD
 70
     0
  0
ENDTAB
  0
TABLE
  2
DIMSTYLE
  5
A
330
0
100
AcDbSymbolTable
 70
     1
  0
DIMSTYLE
105
27
330
A
100
AcDbSymbolTableRecord
100
AcDbDimStyleTableRecord
  2
ISO-25
 70
     0
  3

  4

  5

  6

  7

 40
1.0
 41
2.5
 42
0.625
 43
3.75
 44
1.25
 45
0.0
 46
0.0
 47
0.0
 48
0.0
140
2.5
141
2.5
142
0.0
143
0.03937007874016
144
1.0
145
0.0
146
1.0
147
0.625
 71
     0
 72
     0
 73
     0
 74
     0
 75
     0
 76
     0
 77
     1
 78
     8
170
     0
171
     3
172
     1
173
     0
174
     0
175
     0
176
     0
177
     0
178
     0
270
     2
271
     2
272
     2
273
     2
274
     3
340
11
275
     0
280
     0
281
     0
282
     0
283
     0
284
     8
285
     0
286
     0
287
     3
288
     0
  0
ENDTAB
  0
TABLE
  2
BLOCK_RECORD
  5
1
330
0
100
AcDbSymbolTable
 70
     1
  0
BLOCK_RECORD
  5
1F
330
1
100
AcDbSymbolTableRecord
100
AcDbBlockTableRecord
  2
*MODEL_SPACE
  0
BLOCK_RECORD
  5
1B
330
1
100
AcDbSymbolTableRecord
100
AcDbBlockTableRecord
  2
*PAPER_SPACE
  0
ENDTAB
  0
ENDSEC
  0
SECTION
  2
BLOCKS
  0
BLOCK
  5
20
330
1F
100
AcDbEntity
  8
0
100
AcDbBlockBegin
  2
*MODEL_SPACE
 70
     0
 10
0.0
 20
0.0
 30
0.0
  3
*MODEL_SPACE
  1

  0
ENDBLK
  5
21
330
1F
100
AcDbEntity
  8
0
100
AcDbBlockEnd
  0
BLOCK
  5
1C
330
1B
100
AcDbEntity
 67
     1
  8
0
100
AcDbBlockBegin
  2
*PAPER_SPACE
  1

  0
ENDBLK
  5
1D
330
1B
100
AcDbEntity
 67
     1
  8
0
100
AcDbBlockEnd
  0
ENDSEC
  0
SECTION
  2
ENTITIES
  0
LINE
  5
100
100
AcDbEntity
  8
Layer_1
 62
7
100
AcDbLine
 10
22.097804
 20
153.657332
 30
0.0
 11
22.097804
 21
187.310952
 31
0.0
  0
LINE
  5
101
100
AcDbEntity
  8
Layer_1
 62
7
100
AcDbLine
 10
22.097804
 20
187.310952
 30
0.0
 11
106.922860
 21
187.310952
 31
0.0
  0
LINE
  5
102
100
AcDbEntity
  8
Layer_1
 62
7
100
AcDbLine
 10
106.922860
 20
187.310952
 30
0.0
 11
191.747915
 21
187.310952
 31
0.0
  0
LINE
  5
103
100
AcDbEntity
  8
Layer_1
 62
7
100
AcDbLine
 10
191.747915
 20
187.310952
 30
0.0
 11
191.747915
 21
153.657332
 31
0.0
  0
LINE
  5
104
100
AcDbEntity
  8
Layer_1
 62
7
100
AcDbLine
 10
191.747915
 20
153.657332
 30
0.0
 11
191.747915
 21
120.003710
 31
0.0
  0
LINE
  5
105
100
AcDbEntity
  8
Layer_1
 62
7
100
AcDbLine
 10
191.747915
 20
120.003710
 30
0.0
 11
106.922860
 21
120.003710
 31
0.0
  0
LINE
  5
106
100
AcDbEntity
  8
Layer_1
 62
7
100
AcDbLine
 10
106.922860
 20
120.003710
 30
0.0
 11
22.097804
 21
120.003710
 31
0.0
  0
LINE
  5
107
100
AcDbEntity
  8
Layer_1
 62
7
100
AcDbLine
 10
22.097804
 20
120.003710
 30
0.0
 11
22.097804
 21
153.657332
 31
0.0
  0
LINE
  5
108
100
AcDbEntity
  8
Layer_1
 62
7
100
AcDbLine
 10
22.097804
 20
153.657332
 30
0.0
 11
22.097804
 21
153.657332
 31
0.0
  0
SPLINE
  5
109
100
AcDbEntity
  8
Layer_1
 62
7
100
AcDbSpline
 70
8
 71
3
 72
8
 73
4
 74
0
 40
0
 40
0
 40
0
 40
0
 40
1
 40
1
 40
1
 40
1
 10
152.872117
 20
120.193735
 30
0.0
 10
150.784675
 20
120.587430
 30
0.0
 10
148.946939
 20
121.622723
 30
0.0
 10
147.838955
 20
123.029174
 30
0.0
  0
LINE
  5
10a
100
AcDbEntity
  8
Layer_1
 62
7
100
AcDbLine
 10
147.838955
 20
123.029174
 30
0.0
 11
147.603559
 21
123.327985
 31
0.0
  0
LINE
  5
10b
100
AcDbEntity
  8
Layer_1
 62
7
100
AcDbLine
 10
147.603559
 20
123.327985
 30
0.0
 11
147.601019
 21
122.114063
 31
0.0
  0
LINE
  5
10c
100
AcDbEntity
  8
Layer_1
 62
7
100
AcDbLine
 10
147.601019
 20
122.114063
 30
0.0
 11
147.598479
 21
120.900143
 31
0.0
  0
LINE
  5
10d
100
AcDbEntity
  8
Layer_1
 62
7
100
AcDbLine
 10
147.598479
 20
120.900143
 30
0.0
 11
143.938042
 21
120.900143
 31
0.0
  0
LINE
  5
10e
100
AcDbEntity
  8
Layer_1
 62
7
100
AcDbLine
 10
143.938042
 20
120.900143
 30
0.0
 11
140.277603
 21
120.900143
 31
0.0
  0
LINE
  5
10f
100
AcDbEntity
  8
Layer_1
 62
7
100
AcDbLine
 10
140.277603
 20
120.900143
 30
0.0
 11
140.277603
 21
141.406069
 31
0.0
  0
LINE
  5
110
100
AcDbEntity
  8
Layer_1
 62
7
100
AcDbLine
 10
140.277603
 20
141.406069
 30
0.0
 11
140.277603
 21
161.911994
 31
0.0
  0
LINE
  5
111
100
AcDbEntity
  8
Layer_1
 62
7
100
AcDbLine
 10
140.277603
 20
161.911994
 30
0.0
 11
143.938042
 21
161.911994
 31
0.0
  0
LINE
  5
112
100
AcDbEntity
  8
Layer_1
 62
7
100
AcDbLine
 10
143.938042
 20
161.911994
 30
0.0
 11
147.598479
 21
161.911994
 31
0.0
  0
LINE
  5
113
100
AcDbEntity
  8
Layer_1
 62
7
100
AcDbLine
 10
147.598479
 20
161.911994
 30
0.0
 11
147.598479
 21
153.049795
 31
0.0
  0
LINE
  5
114
100
AcDbEntity
  8
Layer_1
 62
7
100
AcDbLine
 10
147.598479
 20
153.049795
 30
0.0
 11
147.598479
 21
144.187600
 31
0.0
  0
LINE
  5
115
100
AcDbEntity
  8
Layer_1
 62
7
100
AcDbLine
 10
147.598479
 20
144.187600
 30
0.0
 11
148.198500
 21
144.760858
 31
0.0
  0
SPLINE
  5
116
100
AcDbEntity
  8
Layer_1
 62
7
100
AcDbSpline
 70
8
 71
3
 72
8
 73
4
 74
0
 40
0
 40
0
 40
0
 40
0
 40
1
 40
1
 40
1
 40
1
 10
148.198500
 20
144.760858
 30
0.0
 10
149.510828
 20
146.014647
 30
0.0
 10
151.205101
 20
146.840540
 30
0.0
 10
153.122612
 20
147.161169
 30
0.0
  0
SPLINE
  5
117
100
AcDbEntity
  8
Layer_1
 62
7
100
AcDbSpline
 70
8
 71
3
 72
8
 73
4
 74
0
 40
0
 40
0
 40
0
 40
0
 40
1
 40
1
 40
1
 40
1
 10
153.122612
 20
147.161169
 30
0.0
 10
154.208109
 20
147.342678
 30
0.0
 10
155.984896
 20
147.279850
 30
0.0
 10
157.085737
 20
147.021029
 30
0.0
  0
SPLINE
  5
118
100
AcDbEntity
  8
Layer_1
 62
7
100
AcDbSpline
 70
8
 71
3
 72
8
 73
4
 74
0
 40
0
 40
0
 40
0
 40
0
 40
1
 40
1
 40
1
 40
1
 10
157.085737
 20
147.021029
 30
0.0
 10
160.423371
 20
146.236319
 30
0.0
 10
163.096371
 20
143.974587
 30
0.0
 10
164.787607
 20
140.504160
 30
0.0
  0
SPLINE
  5
119
100
AcDbEntity
  8
Layer_1
 62
7
100
AcDbSpline
 70
8
 71
3
 72
8
 73
4
 74
0
 40
0
 40
0
 40
0
 40
0
 40
1
 40
1
 40
1
 40
1
 10
164.787607
 20
140.504160
 30
0.0
 10
165.497275
 20
139.047921
 30
0.0
 10
165.987066
 20
137.374431
 30
0.0
 10
166.195650
 20
135.693261
 30
0.0
  0
SPLINE
  5
11a
100
AcDbEntity
  8
Layer_1
 62
7
100
AcDbSpline
 70
8
 71
3
 72
8
 73
4
 74
0
 40
0
 40
0
 40
0
 40
0
 40
1
 40
1
 40
1
 40
1
 10
166.195650
 20
135.693261
 30
0.0
 10
166.295997
 20
134.884441
 30
0.0
 10
166.297112
 20
132.627213
 30
0.0
 10
166.197626
 20
131.804795
 30
0.0
  0
SPLINE
  5
11b
100
AcDbEntity
  8
Layer_1
 62
7
100
AcDbSpline
 70
8
 71
3
 72
8
 73
4
 74
0
 40
0
 40
0
 40
0
 40
0
 40
1
 40
1
 40
1
 40
1
 10
166.197626
 20
131.804795
 30
0.0
 10
166.067784
 20
130.732049
 30
0.0
 10
165.825764
 20
129.647378
 30
0.0
 10
165.483087
 20
128.602456
 30
0.0
  0
SPLINE
  5
11c
100
AcDbEntity
  8
Layer_1
 62
7
100
AcDbSpline
 70
8
 71
3
 72
8
 73
4
 74
0
 40
0
 40
0
 40
0
 40
0
 40
1
 40
1
 40
1
 40
1
 10
165.483087
 20
128.602456
 30
0.0
 10
164.028249
 20
124.166205
 30
0.0
 10
160.954386
 20
121.188041
 30
0.0
 10
156.905335
 20
120.291782
 30
0.0
  0
SPLINE
  5
11d
100
AcDbEntity
  8
Layer_1
 62
7
100
AcDbSpline
 70
8
 71
3
 72
8
 73
4
 74
0
 40
0
 40
0
 40
0
 40
0
 40
1
 40
1
 40
1
 40
1
 10
156.905335
 20
120.291782
 30
0.0
 10
155.983628
 20
120.087761
 30
0.0
 10
153.725117
 20
120.032858
 30
0.0
 10
152.872114
 20
120.193735
 30
0.0
  0
LINE
  5
11e
100
AcDbEntity
  8
Layer_1
 62
7
100
AcDbLine
 10
152.872114
 20
120.193735
 30
0.0
 11
152.872117
 21
120.193735
 31
0.0
  0
SPLINE
  5
11f
100
AcDbEntity
  8
Layer_1
 62
7
100
AcDbSpline
 70
8
 71
3
 72
8
 73
4
 74
0
 40
0
 40
0
 40
0
 40
0
 40
1
 40
1
 40
1
 40
1
 10
153.815727
 20
126.608644
 30
0.0
 10
154.958284
 20
126.827253
 30
0.0
 10
155.905619
 20
127.352175
 30
0.0
 10
156.761992
 20
128.241186
 30
0.0
  0
SPLINE
  5
120
100
AcDbEntity
  8
Layer_1
 62
7
100
AcDbSpline
 70
8
 71
3
 72
8
 73
4
 74
0
 40
0
 40
0
 40
0
 40
0
 40
1
 40
1
 40
1
 40
1
 10
156.761992
 20
128.241186
 30
0.0
 10
157.364378
 20
128.866540
 30
0.0
 10
157.632757
 20
129.243372
 30
0.0
 10
158.009453
 20
129.992762
 30
0.0
  0
SPLINE
  5
121
100
AcDbEntity
  8
Layer_1
 62
7
100
AcDbSpline
 70
8
 71
3
 72
8
 73
4
 74
0
 40
0
 40
0
 40
0
 40
0
 40
1
 40
1
 40
1
 40
1
 10
158.009453
 20
129.992762
 30
0.0
 10
158.596131
 20
131.159898
 30
0.0
 10
158.884125
 20
132.354739
 30
0.0
 10
158.887808
 20
133.636973
 30
0.0
  0
SPLINE
  5
122
100
AcDbEntity
  8
Layer_1
 62
7
100
AcDbSpline
 70
8
 71
3
 72
8
 73
4
 74
0
 40
0
 40
0
 40
0
 40
0
 40
1
 40
1
 40
1
 40
1
 10
158.887808
 20
133.636973
 30
0.0
 10
158.890884
 20
134.694734
 30
0.0
 10
158.789231
 20
135.309482
 30
0.0
 10
158.441917
 20
136.334290
 30
0.0
  0
SPLINE
  5
123
100
AcDbEntity
  8
Layer_1
 62
7
100
AcDbSpline
 70
8
 71
3
 72
8
 73
4
 74
0
 40
0
 40
0
 40
0
 40
0
 40
1
 40
1
 40
1
 40
1
 10
158.441917
 20
136.334290
 30
0.0
 10
157.826604
 20
138.149848
 30
0.0
 10
156.699860
 20
139.532344
 30
0.0
 10
155.255585
 20
140.243875
 30
0.0
  0
SPLINE
  5
124
100
AcDbEntity
  8
Layer_1
 62
7
100
AcDbSpline
 70
8
 71
3
 72
8
 73
4
 74
0
 40
0
 40
0
 40
0
 40
0
 40
1
 40
1
 40
1
 40
1
 10
155.255585
 20
140.243875
 30
0.0
 10
154.376483
 20
140.676967
 30
0.0
 10
153.838107
 20
140.800016
 30
0.0
 10
152.827743
 20
140.798771
 30
0.0
  0
SPLINE
  5
125
100
AcDbEntity
  8
Layer_1
 62
7
100
AcDbSpline
 70
8
 71
3
 72
8
 73
4
 74
0
 40
0
 40
0
 40
0
 40
0
 40
1
 40
1
 40
1
 40
1
 10
152.827743
 20
140.798771
 30
0.0
 10
152.057161
 20
140.797925
 30
0.0
 10
151.895970
 20
140.772892
 30
0.0
 10
151.263033
 20
140.556817
 30
0.0
  0
SPLINE
  5
126
100
AcDbEntity
  8
Layer_1
 62
7
100
AcDbSpline
 70
8
 71
3
 72
8
 73
4
 74
0
 40
0
 40
0
 40
0
 40
0
 40
1
 40
1
 40
1
 40
1
 10
151.263033
 20
140.556817
 30
0.0
 10
150.418294
 20
140.268434
 30
0.0
 10
149.837255
 20
139.928198
 30
0.0
 10
149.231058
 20
139.366962
 30
0.0
  0
SPLINE
  5
127
100
AcDbEntity
  8
Layer_1
 62
7
100
AcDbSpline
 70
8
 71
3
 72
8
 73
4
 74
0
 40
0
 40
0
 40
0
 40
0
 40
1
 40
1
 40
1
 40
1
 10
149.231058
 20
139.366962
 30
0.0
 10
148.326496
 20
138.529502
 30
0.0
 10
147.645379
 20
137.426284
 30
0.0
 10
147.238456
 20
136.139520
 30
0.0
  0
SPLINE
  5
128
100
AcDbEntity
  8
Layer_1
 62
7
100
AcDbSpline
 70
8
 71
3
 72
8
 73
4
 74
0
 40
0
 40
0
 40
0
 40
0
 40
1
 40
1
 40
1
 40
1
 10
147.238456
 20
136.139520
 30
0.0
 10
146.926714
 20
135.153737
 30
0.0
 10
146.822258
 20
134.343536
 30
0.0
 10
146.873264
 20
133.307019
 30
0.0
  0
SPLINE
  5
129
100
AcDbEntity
  8
Layer_1
 62
7
100
AcDbSpline
 70
8
 71
3
 72
8
 73
4
 74
0
 40
0
 40
0
 40
0
 40
0
 40
1
 40
1
 40
1
 40
1
 10
146.873264
 20
133.307019
 30
0.0
 10
147.082709
 20
129.050817
 30
0.0
 10
150.309220
 20
125.937739
 30
0.0
 10
153.815727
 20
126.608644
 30
0.0
  0
LINE
  5
12a
100
AcDbEntity
  8
Layer_1
 62
7
100
AcDbLine
 10
153.815727
 20
126.608644
 30
0.0
 11
153.815727
 21
126.608644
 31
0.0
  0
SPLINE
  5
12b
100
AcDbEntity
  8
Layer_1
 62
7
100
AcDbSpline
 70
8
 71
3
 72
8
 73
4
 74
0
 40
0
 40
0
 40
0
 40
0
 40
1
 40
1
 40
1
 40
1
 10
175.724158
 20
120.161720
 30
0.0
 10
173.751490
 20
120.289937
 30
0.0
 10
171.812832
 20
120.971836
 30
0.0
 10
170.029301
 20
122.164821
 30
0.0
  0
SPLINE
  5
12c
100
AcDbEntity
  8
Layer_1
 62
7
100
AcDbSpline
 70
8
 71
3
 72
8
 73
4
 74
0
 40
0
 40
0
 40
0
 40
0
 40
1
 40
1
 40
1
 40
1
 10
170.029301
 20
122.164821
 30
0.0
 10
169.375293
 20
122.602279
 30
0.0
 10
167.843586
 20
123.981536
 30
0.0
 10
167.687130
 20
124.273873
 30
0.0
  0
SPLINE
  5
12d
100
AcDbEntity
  8
Layer_1
 62
7
100
AcDbSpline
 70
8
 71
3
 72
8
 73
4
 74
0
 40
0
 40
0
 40
0
 40
0
 40
1
 40
1
 40
1
 40
1
 10
167.687130
 20
124.273873
 30
0.0
 10
167.624364
 20
124.391150
 30
0.0
 10
167.872019
 20
124.751972
 30
0.0
 10
169.240470
 20
126.537002
 30
0.0
  0
SPLINE
  5
12e
100
AcDbEntity
  8
Layer_1
 62
7
100
AcDbSpline
 70
8
 71
3
 72
8
 73
4
 74
0
 40
0
 40
0
 40
0
 40
0
 40
1
 40
1
 40
1
 40
1
 10
169.240470
 20
126.537002
 30
0.0
 10
170.135873
 20
127.704984
 30
0.0
 10
170.885283
 20
128.662107
 30
0.0
 10
170.905826
 20
128.663944
 30
0.0
  0
SPLINE
  5
12f
100
AcDbEntity
  8
Layer_1
 62
7
100
AcDbSpline
 70
8
 71
3
 72
8
 73
4
 74
0
 40
0
 40
0
 40
0
 40
0
 40
1
 40
1
 40
1
 40
1
 10
170.905826
 20
128.663944
 30
0.0
 10
170.926372
 20
128.665920
 30
0.0
 10
171.245726
 20
128.379221
 30
0.0
 10
171.615505
 20
128.027146
 30
0.0
  0
SPLINE
  5
130
100
AcDbEntity
  8
Layer_1
 62
7
100
AcDbSpline
 70
8
 71
3
 72
8
 73
4
 74
0
 40
0
 40
0
 40
0
 40
0
 40
1
 40
1
 40
1
 40
1
 10
171.615505
 20
128.027146
 30
0.0
 10
172.834183
 20
126.866815
 30
0.0
 10
174.248735
 20
126.052694
 30
0.0
 10
175.420394
 20
125.837311
 30
0.0
  0
SPLINE
  5
131
100
AcDbEntity
  8
Layer_1
 62
7
100
AcDbSpline
 70
8
 71
3
 72
8
 73
4
 74
0
 40
0
 40
0
 40
0
 40
0
 40
1
 40
1
 40
1
 40
1
 10
175.420394
 20
125.837311
 30
0.0
 10
176.882627
 20
125.568511
 30
0.0
 10
178.142394
 20
125.993391
 30
0.0
 10
178.804634
 20
126.978713
 30
0.0
  0
SPLINE
  5
132
100
AcDbEntity
  8
Layer_1
 62
7
100
AcDbSpline
 70
8
 71
3
 72
8
 73
4
 74
0
 40
0
 40
0
 40
0
 40
0
 40
1
 40
1
 40
1
 40
1
 10
178.804634
 20
126.978713
 30
0.0
 10
179.126254
 20
127.457232
 30
0.0
 10
179.233631
 20
127.845189
 30
0.0
 10
179.231182
 20
128.519830
 30
0.0
  0
SPLINE
  5
133
100
AcDbEntity
  8
Layer_1
 62
7
100
AcDbSpline
 70
8
 71
3
 72
8
 73
4
 74
0
 40
0
 40
0
 40
0
 40
0
 40
1
 40
1
 40
1
 40
1
 10
179.231182
 20
128.519830
 30
0.0
 10
179.228359
 20
129.271882
 30
0.0
 10
179.021265
 20
129.735217
 30
0.0
 10
178.452082
 20
130.262183
 30
0.0
  0
SPLINE
  5
134
100
AcDbEntity
  8
Layer_1
 62
7
100
AcDbSpline
 70
8
 71
3
 72
8
 73
4
 74
0
 40
0
 40
0
 40
0
 40
0
 40
1
 40
1
 40
1
 40
1
 10
178.452082
 20
130.262183
 30
0.0
 10
177.916994
 20
130.757579
 30
0.0
 10
177.211582
 20
131.125994
 30
0.0
 10
175.500051
 20
131.803932
 30
0.0
  0
SPLINE
  5
135
100
AcDbEntity
  8
Layer_1
 62
7
100
AcDbSpline
 70
8
 71
3
 72
8
 73
4
 74
0
 40
0
 40
0
 40
0
 40
0
 40
1
 40
1
 40
1
 40
1
 10
175.500051
 20
131.803932
 30
0.0
 10
173.839377
 20
132.461724
 30
0.0
 10
172.676920
 20
133.014933
 30
0.0
 10
171.952405
 20
133.492247
 30
0.0
  0
SPLINE
  5
136
100
AcDbEntity
  8
Layer_1
 62
7
100
AcDbSpline
 70
8
 71
3
 72
8
 73
4
 74
0
 40
0
 40
0
 40
0
 40
0
 40
1
 40
1
 40
1
 40
1
 10
171.952405
 20
133.492247
 30
0.0
 10
170.481328
 20
134.461395
 30
0.0
 10
169.547909
 20
135.782161
 30
0.0
 10
169.236787
 20
137.334765
 30
0.0
  0
SPLINE
  5
137
100
AcDbEntity
  8
Layer_1
 62
7
100
AcDbSpline
 70
8
 71
3
 72
8
 73
4
 74
0
 40
0
 40
0
 40
0
 40
0
 40
1
 40
1
 40
1
 40
1
 10
169.236787
 20
137.334765
 30
0.0
 10
168.611442
 20
140.455454
 30
0.0
 10
169.718487
 20
143.800394
 30
0.0
 10
171.970448
 20
145.594588
 30
0.0
  0
SPLINE
  5
138
100
AcDbEntity
  8
Layer_1
 62
7
100
AcDbSpline
 70
8
 71
3
 72
8
 73
4
 74
0
 40
0
 40
0
 40
0
 40
0
 40
1
 40
1
 40
1
 40
1
 10
171.970448
 20
145.594588
 30
0.0
 10
172.327332
 20
145.878927
 30
0.0
 10
172.932442
 20
146.255795
 30
0.0
 10
173.408373
 20
146.490141
 30
0.0
  0
SPLINE
  5
139
100
AcDbEntity
  8
Layer_1
 62
7
100
AcDbSpline
 70
8
 71
3
 72
8
 73
4
 74
0
 40
0
 40
0
 40
0
 40
0
 40
1
 40
1
 40
1
 40
1
 10
173.408373
 20
146.490141
 30
0.0
 10
174.774201
 20
147.162668
 30
0.0
 10
175.997968
 20
147.394875
 30
0.0
 10
177.778488
 20
147.319358
 30
0.0
  0
SPLINE
  5
13a
100
AcDbEntity
  8
Layer_1
 62
7
100
AcDbSpline
 70
8
 71
3
 72
8
 73
4
 74
0
 40
0
 40
0
 40
0
 40
0
 40
1
 40
1
 40
1
 40
1
 10
177.778488
 20
147.319358
 30
0.0
 10
179.950151
 20
147.227252
 30
0.0
 10
181.892946
 20
146.748640
 30
0.0
 10
183.625551
 20
145.878918
 30
0.0
  0
SPLINE
  5
13b
100
AcDbEntity
  8
Layer_1
 62
7
100
AcDbSpline
 70
8
 71
3
 72
8
 73
4
 74
0
 40
0
 40
0
 40
0
 40
0
 40
1
 40
1
 40
1
 40
1
 10
183.625551
 20
145.878918
 30
0.0
 10
184.171219
 20
145.605005
 30
0.0
 10
185.172885
 20
144.949143
 30
0.0
 10
185.324444
 20
144.766528
 30
0.0
  0
SPLINE
  5
13c
100
AcDbEntity
  8
Layer_1
 62
7
100
AcDbSpline
 70
8
 71
3
 72
8
 73
4
 74
0
 40
0
 40
0
 40
0
 40
0
 40
1
 40
1
 40
1
 40
1
 10
185.324444
 20
144.766528
 30
0.0
 10
185.388091
 20
144.689840
 30
0.0
 10
185.065562
 20
144.205479
 30
0.0
 10
183.899010
 20
142.625875
 30
0.0
  0
SPLINE
  5
13d
100
AcDbEntity
  8
Layer_1
 62
7
100
AcDbSpline
 70
8
 71
3
 72
8
 73
4
 74
0
 40
0
 40
0
 40
0
 40
0
 40
1
 40
1
 40
1
 40
1
 10
183.899010
 20
142.625875
 30
0.0
 10
183.069776
 20
141.503029
 30
0.0
 10
182.370224
 20
140.560703
 30
0.0
 10
182.344437
 20
140.531815
 30
0.0
  0
SPLINE
  5
13e
100
AcDbEntity
  8
Layer_1
 62
7
100
AcDbSpline
 70
8
 71
3
 72
8
 73
4
 74
0
 40
0
 40
0
 40
0
 40
0
 40
1
 40
1
 40
1
 40
1
 10
182.344437
 20
140.531815
 30
0.0
 10
182.318642
 20
140.502929
 30
0.0
 10
182.049114
 20
140.677300
 30
0.0
 10
181.745477
 20
140.919306
 30
0.0
  0
SPLINE
  5
13f
100
AcDbEntity
  8
Layer_1
 62
7
100
AcDbSpline
 70
8
 71
3
 72
8
 73
4
 74
0
 40
0
 40
0
 40
0
 40
0
 40
1
 40
1
 40
1
 40
1
 10
181.745477
 20
140.919306
 30
0.0
 10
180.838570
 20
141.642119
 30
0.0
 10
179.968453
 20
142.041187
 30
0.0
 10
178.957276
 20
142.198077
 30
0.0
  0
SPLINE
  5
140
100
AcDbEntity
  8
Layer_1
 62
7
100
AcDbSpline
 70
8
 71
3
 72
8
 73
4
 74
0
 40
0
 40
0
 40
0
 40
0
 40
1
 40
1
 40
1
 40
1
 10
178.957276
 20
142.198077
 30
0.0
 10
177.084125
 20
142.488707
 30
0.0
 10
175.527334
 20
140.835635
 30
0.0
 10
176.237645
 20
139.310236
 30
0.0
  0
SPLINE
  5
141
100
AcDbEntity
  8
Layer_1
 62
7
100
AcDbSpline
 70
8
 71
3
 72
8
 73
4
 74
0
 40
0
 40
0
 40
0
 40
0
 40
1
 40
1
 40
1
 40
1
 10
176.237645
 20
139.310236
 30
0.0
 10
176.588069
 20
138.557687
 30
0.0
 10
177.235794
 20
138.157363
 30
0.0
 10
179.683409
 20
137.180573
 30
0.0
  0
SPLINE
  5
142
100
AcDbEntity
  8
Layer_1
 62
7
100
AcDbSpline
 70
8
 71
3
 72
8
 73
4
 74
0
 40
0
 40
0
 40
0
 40
0
 40
1
 40
1
 40
1
 40
1
 10
179.683409
 20
137.180573
 30
0.0
 10
182.482472
 20
136.063526
 30
0.0
 10
183.547480
 20
135.464664
 30
0.0
 10
184.579662
 20
134.427365
 30
0.0
  0
SPLINE
  5
143
100
AcDbEntity
  8
Layer_1
 62
7
100
AcDbSpline
 70
8
 71
3
 72
8
 73
4
 74
0
 40
0
 40
0
 40
0
 40
0
 40
1
 40
1
 40
1
 40
1
 10
184.579662
 20
134.427365
 30
0.0
 10
185.796139
 20
133.204857
 30
0.0
 10
186.371536
 20
131.870293
 30
0.0
 10
186.514722
 20
129.939185
 30
0.0
  0
SPLINE
  5
144
100
AcDbEntity
  8
Layer_1
 62
7
100
AcDbSpline
 70
8
 71
3
 72
8
 73
4
 74
0
 40
0
 40
0
 40
0
 40
0
 40
1
 40
1
 40
1
 40
1
 10
186.514722
 20
129.939185
 30
0.0
 10
186.676497
 20
127.757452
 30
0.0
 10
186.160719
 20
125.725415
 30
0.0
 10
185.030024
 20
124.089808
 30
0.0
  0
SPLINE
  5
145
100
AcDbEntity
  8
Layer_1
 62
7
100
AcDbSpline
 70
8
 71
3
 72
8
 73
4
 74
0
 40
0
 40
0
 40
0
 40
0
 40
1
 40
1
 40
1
 40
1
 10
185.030024
 20
124.089808
 30
0.0
 10
184.284125
 20
123.010818
 30
0.0
 10
182.936898
 20
121.873771
 30
0.0
 10
181.625682
 20
121.216574
 30
0.0
  0
SPLINE
  5
146
100
AcDbEntity
  8
Layer_1
 62
7
100
AcDbSpline
 70
8
 71
3
 72
8
 73
4
 74
0
 40
0
 40
0
 40
0
 40
0
 40
1
 40
1
 40
1
 40
1
 10
181.625682
 20
121.216574
 30
0.0
 10
180.534013
 20
120.669410
 30
0.0
 10
178.939533
 20
120.249130
 30
0.0
 10
177.711076
 20
120.184738
 30
0.0
  0
SPLINE
  5
147
100
AcDbEntity
  8
Layer_1
 62
7
100
AcDbSpline
 70
8
 71
3
 72
8
 73
4
 74
0
 40
0
 40
0
 40
0
 40
0
 40
1
 40
1
 40
1
 40
1
 10
177.711076
 20
120.184738
 30
0.0
 10
177.316741
 20
120.164080
 30
0.0
 10
176.893258
 20
120.138417
 30
0.0
 10
176.769998
 20
120.127732
 30
0.0
  0
SPLINE
  5
148
100
AcDbEntity
  8
Layer_1
 62
7
100
AcDbSpline
 70
8
 71
3
 72
8
 73
4
 74
0
 40
0
 40
0
 40
0
 40
0
 40
1
 40
1
 40
1
 40
1
 10
176.769998
 20
120.127732
 30
0.0
 10
176.646740
 20
120.117036
 30
0.0
 10
176.176112
 20
120.132332
 30
0.0
 10
175.724158
 20
120.161720
 30
0.0
  0
LINE
  5
149
100
AcDbEntity
  8
Layer_1
 62
7
100
AcDbLine
 10
175.724158
 20
120.161720
 30
0.0
 11
175.724158
 21
120.161720
 31
0.0
  0
SPLINE
  5
14a
100
AcDbEntity
  8
Layer_1
 62
7
100
AcDbSpline
 70
8
 71
3
 72
8
 73
4
 74
0
 40
0
 40
0
 40
0
 40
0
 40
1
 40
1
 40
1
 40
1
 10
120.966991
 20
120.203833
 30
0.0
 10
115.922054
 20
120.636110
 30
0.0
 10
111.940037
 20
124.452717
 30
0.0
 10
110.622847
 20
130.118289
 30
0.0
  0
SPLINE
  5
14b
100
AcDbEntity
  8
Layer_1
 62
7
100
AcDbSpline
 70
8
 71
3
 72
8
 73
4
 74
0
 40
0
 40
0
 40
0
 40
0
 40
1
 40
1
 40
1
 40
1
 10
110.622847
 20
130.118289
 30
0.0
 10
110.329855
 20
131.378532
 30
0.0
 10
110.227205
 20
132.330581
 30
0.0
 10
110.223336
 20
133.823731
 30
0.0
  0
SPLINE
  5
14c
100
AcDbEntity
  8
Layer_1
 62
7
100
AcDbSpline
 70
8
 71
3
 72
8
 73
4
 74
0
 40
0
 40
0
 40
0
 40
0
 40
1
 40
1
 40
1
 40
1
 10
110.223336
 20
133.823731
 30
0.0
 10
110.216252
 20
136.555371
 30
0.0
 10
110.670483
 20
138.561235
 30
0.0
 10
111.821924
 20
140.883147
 30
0.0
  0
SPLINE
  5
14d
100
AcDbEntity
  8
Layer_1
 62
7
100
AcDbSpline
 70
8
 71
3
 72
8
 73
4
 74
0
 40
0
 40
0
 40
0
 40
0
 40
1
 40
1
 40
1
 40
1
 10
111.821924
 20
140.883147
 30
0.0
 10
113.529690
 20
144.326922
 30
0.0
 10
116.428987
 20
146.613387
 30
0.0
 10
119.883799
 20
147.240951
 30
0.0
  0
SPLINE
  5
14e
100
AcDbEntity
  8
Layer_1
 62
7
100
AcDbSpline
 70
8
 71
3
 72
8
 73
4
 74
0
 40
0
 40
0
 40
0
 40
0
 40
1
 40
1
 40
1
 40
1
 10
119.883799
 20
147.240951
 30
0.0
 10
120.860218
 20
147.418316
 30
0.0
 10
122.833987
 20
147.417582
 30
0.0
 10
123.656292
 20
147.239540
 30
0.0
  0
SPLINE
  5
14f
100
AcDbEntity
  8
Layer_1
 62
7
100
AcDbSpline
 70
8
 71
3
 72
8
 73
4
 74
0
 40
0
 40
0
 40
0
 40
0
 40
1
 40
1
 40
1
 40
1
 10
123.656292
 20
147.239540
 30
0.0
 10
125.533835
 20
146.833038
 30
0.0
 10
127.177999
 20
145.985962
 30
0.0
 10
128.448262
 20
144.770708
 30
0.0
  0
SPLINE
  5
150
100
AcDbEntity
  8
Layer_1
 62
7
100
AcDbSpline
 70
8
 71
3
 72
8
 73
4
 74
0
 40
0
 40
0
 40
0
 40
0
 40
1
 40
1
 40
1
 40
1
 10
128.448262
 20
144.770708
 30
0.0
 10
128.729152
 20
144.501984
 30
0.0
 10
128.967647
 20
144.282116
 30
0.0
 10
128.978255
 20
144.282116
 30
0.0
  0
SPLINE
  5
151
100
AcDbEntity
  8
Layer_1
 62
7
100
AcDbSpline
 70
8
 71
3
 72
8
 73
4
 74
0
 40
0
 40
0
 40
0
 40
0
 40
1
 40
1
 40
1
 40
1
 10
128.978255
 20
144.282116
 30
0.0
 10
128.988867
 20
144.282116
 30
0.0
 10
128.997531
 20
144.803169
 30
0.0
 10
128.997531
 20
145.440012
 30
0.0
  0
LINE
  5
152
100
AcDbEntity
  8
Layer_1
 62
7
100
AcDbLine
 10
128.997531
 20
145.440012
 30
0.0
 11
128.997531
 21
146.597905
 31
0.0
  0
LINE
  5
153
100
AcDbEntity
  8
Layer_1
 62
7
100
AcDbLine
 10
128.997531
 20
146.597905
 30
0.0
 11
132.583269
 21
146.597905
 31
0.0
  0
LINE
  5
154
100
AcDbEntity
  8
Layer_1
 62
7
100
AcDbLine
 10
132.583269
 20
146.597905
 30
0.0
 11
136.169004
 21
146.597905
 31
0.0
  0
LINE
  5
155
100
AcDbEntity
  8
Layer_1
 62
7
100
AcDbLine
 10
136.169004
 20
146.597905
 30
0.0
 11
136.169004
 21
133.786371
 31
0.0
  0
LINE
  5
156
100
AcDbEntity
  8
Layer_1
 62
7
100
AcDbLine
 10
136.169004
 20
133.786371
 30
0.0
 11
136.169004
 21
120.974836
 31
0.0
  0
LINE
  5
157
100
AcDbEntity
  8
Layer_1
 62
7
100
AcDbLine
 10
136.169004
 20
120.974836
 30
0.0
 11
132.583269
 21
120.974836
 31
0.0
  0
LINE
  5
158
100
AcDbEntity
  8
Layer_1
 62
7
100
AcDbLine
 10
132.583269
 20
120.974836
 30
0.0
 11
128.997531
 21
120.974836
 31
0.0
  0
LINE
  5
159
100
AcDbEntity
  8
Layer_1
 62
7
100
AcDbLine
 10
128.997531
 20
120.974836
 30
0.0
 11
128.997531
 21
122.181187
 31
0.0
  0
LINE
  5
15a
100
AcDbEntity
  8
Layer_1
 62
7
100
AcDbLine
 10
128.997531
 20
122.181187
 30
0.0
 11
128.997531
 21
123.387537
 31
0.0
  0
LINE
  5
15b
100
AcDbEntity
  8
Layer_1
 62
7
100
AcDbLine
 10
128.997531
 20
123.387537
 30
0.0
 11
128.367803
 21
122.750683
 31
0.0
  0
SPLINE
  5
15c
100
AcDbEntity
  8
Layer_1
 62
7
100
AcDbSpline
 70
8
 71
3
 72
8
 73
4
 74
0
 40
0
 40
0
 40
0
 40
0
 40
1
 40
1
 40
1
 40
1
 10
128.367803
 20
122.750683
 30
0.0
 10
126.539593
 20
120.901780
 30
0.0
 10
123.804834
 20
119.960662
 30
0.0
 10
120.966980
 20
120.203825
 30
0.0
  0
LINE
  5
15d
100
AcDbEntity
  8
Layer_1
 62
7
100
AcDbLine
 10
120.966980
 20
120.203825
 30
0.0
 11
120.966991
 21
120.203833
 31
0.0
  0
SPLINE
  5
15e
100
AcDbEntity
  8
Layer_1
 62
7
100
AcDbSpline
 70
8
 71
3
 72
8
 73
4
 74
0
 40
0
 40
0
 40
0
 40
0
 40
1
 40
1
 40
1
 40
1
 10
124.917035
 20
126.799313
 30
0.0
 10
125.914253
 20
127.054357
 30
0.0
 10
126.616078
 20
127.475695
 30
0.0
 10
127.466137
 20
128.329649
 30
0.0
  0
SPLINE
  5
15f
100
AcDbEntity
  8
Layer_1
 62
7
100
AcDbSpline
 70
8
 71
3
 72
8
 73
4
 74
0
 40
0
 40
0
 40
0
 40
0
 40
1
 40
1
 40
1
 40
1
 10
127.466137
 20
128.329649
 30
0.0
 10
128.331142
 20
129.198620
 30
0.0
 10
128.797071
 20
129.923189
 30
0.0
 10
129.180245
 20
130.995275
 30
0.0
  0
SPLINE
  5
160
100
AcDbEntity
  8
Layer_1
 62
7
100
AcDbSpline
 70
8
 71
3
 72
8
 73
4
 74
0
 40
0
 40
0
 40
0
 40
0
 40
1
 40
1
 40
1
 40
1
 10
129.180245
 20
130.995275
 30
0.0
 10
129.556718
 20
132.048587
 30
0.0
 10
129.687186
 20
132.761125
 30
0.0
 10
129.691324
 20
133.786379
 30
0.0
  0
SPLINE
  5
161
100
AcDbEntity
  8
Layer_1
 62
7
100
AcDbSpline
 70
8
 71
3
 72
8
 73
4
 74
0
 40
0
 40
0
 40
0
 40
0
 40
1
 40
1
 40
1
 40
1
 10
129.691324
 20
133.786379
 30
0.0
 10
129.704024
 20
136.938683
 30
0.0
 10
127.886256
 20
139.786175
 30
0.0
 10
125.299754
 20
140.665636
 30
0.0
  0
SPLINE
  5
162
100
AcDbEntity
  8
Layer_1
 62
7
100
AcDbSpline
 70
8
 71
3
 72
8
 73
4
 74
0
 40
0
 40
0
 40
0
 40
0
 40
1
 40
1
 40
1
 40
1
 10
125.299754
 20
140.665636
 30
0.0
 10
124.503580
 20
140.936349
 30
0.0
 10
123.302648
 20
140.998088
 30
0.0
 10
122.463683
 20
140.811435
 30
0.0
  0
SPLINE
  5
163
100
AcDbEntity
  8
Layer_1
 62
7
100
AcDbSpline
 70
8
 71
3
 72
8
 73
4
 74
0
 40
0
 40
0
 40
0
 40
0
 40
1
 40
1
 40
1
 40
1
 10
122.463683
 20
140.811435
 30
0.0
 10
120.737121
 20
140.427311
 30
0.0
 10
119.136354
 20
139.004950
 30
0.0
 10
118.308144
 20
137.119040
 30
0.0
  0
SPLINE
  5
164
100
AcDbEntity
  8
Layer_1
 62
7
100
AcDbSpline
 70
8
 71
3
 72
8
 73
4
 74
0
 40
0
 40
0
 40
0
 40
0
 40
1
 40
1
 40
1
 40
1
 10
118.308144
 20
137.119040
 30
0.0
 10
117.335536
 20
134.904301
 30
0.0
 10
117.364783
 20
132.486559
 30
0.0
 10
118.390274
 20
130.328381
 30
0.0
  0
SPLINE
  5
165
100
AcDbEntity
  8
Layer_1
 62
7
100
AcDbSpline
 70
8
 71
3
 72
8
 73
4
 74
0
 40
0
 40
0
 40
0
 40
0
 40
1
 40
1
 40
1
 40
1
 10
118.390274
 20
130.328381
 30
0.0
 10
119.356450
 20
128.295049
 30
0.0
 10
120.780264
 20
127.112981
 30
0.0
 10
122.759858
 20
126.700707
 30
0.0
  0
SPLINE
  5
166
100
AcDbEntity
  8
Layer_1
 62
7
100
AcDbSpline
 70
8
 71
3
 72
8
 73
4
 74
0
 40
0
 40
0
 40
0
 40
0
 40
1
 40
1
 40
1
 40
1
 10
122.759858
 20
126.700707
 30
0.0
 10
123.203540
 20
126.608305
 30
0.0
 10
124.380573
 20
126.662108
 30
0.0
 10
124.917035
 20
126.799313
 30
0.0
  0
LINE
  5
167
100
AcDbEntity
  8
Layer_1
 62
7
100
AcDbLine
 10
124.917035
 20
126.799313
 30
0.0
 11
124.917035
 21
126.799313
 31
0.0
  0
LINE
  5
168
100
AcDbEntity
  8
Layer_1
 62
7
100
AcDbLine
 10
90.226779
 20
133.973137
 30
0.0
 11
90.226779
 21
147.643753
 31
0.0
  0
LINE
  5
169
100
AcDbEntity
  8
Layer_1
 62
7
100
AcDbLine
 10
90.226779
 20
147.643753
 30
0.0
 11
94.073973
 21
147.643753
 31
0.0
  0
LINE
  5
16a
100
AcDbEntity
  8
Layer_1
 62
7
100
AcDbLine
 10
94.073973
 20
147.643753
 30
0.0
 11
97.921170
 21
147.643753
 31
0.0
  0
LINE
  5
16b
100
AcDbEntity
  8
Layer_1
 62
7
100
AcDbLine
 10
97.921170
 20
147.643753
 30
0.0
 11
97.921170
 21
137.297413
 31
0.0
  0
LINE
  5
16c
100
AcDbEntity
  8
Layer_1
 62
7
100
AcDbLine
 10
97.921170
 20
137.297413
 30
0.0
 11
97.921170
 21
126.951072
 31
0.0
  0
LINE
  5
16d
100
AcDbEntity
  8
Layer_1
 62
7
100
AcDbLine
 10
97.921170
 20
126.951072
 30
0.0
 11
103.337125
 21
126.951072
 31
0.0
  0
LINE
  5
16e
100
AcDbEntity
  8
Layer_1
 62
7
100
AcDbLine
 10
103.337125
 20
126.951072
 30
0.0
 11
108.753079
 21
126.951072
 31
0.0
  0
LINE
  5
16f
100
AcDbEntity
  8
Layer_1
 62
7
100
AcDbLine
 10
108.753079
 20
126.951072
 30
0.0
 11
108.753079
 21
123.626797
 31
0.0
  0
LINE
  5
170
100
AcDbEntity
  8
Layer_1
 62
7
100
AcDbLine
 10
108.753079
 20
123.626797
 30
0.0
 11
108.753079
 21
120.302521
 31
0.0
  0
LINE
  5
171
100
AcDbEntity
  8
Layer_1
 62
7
100
AcDbLine
 10
108.753079
 20
120.302521
 30
0.0
 11
99.489928
 21
120.302521
 31
0.0
  0
LINE
  5
172
100
AcDbEntity
  8
Layer_1
 62
7
100
AcDbLine
 10
99.489928
 20
120.302521
 30
0.0
 11
90.226779
 21
120.302521
 31
0.0
  0
LINE
  5
173
100
AcDbEntity
  8
Layer_1
 62
7
100
AcDbLine
 10
90.226779
 20
120.302521
 30
0.0
 11
90.226779
 21
133.973137
 31
0.0
  0
LINE
  5
174
100
AcDbEntity
  8
Layer_1
 62
7
100
AcDbLine
 10
90.226779
 20
133.973137
 30
0.0
 11
90.226779
 21
133.973137
 31
0.0
  0
LINE
  5
175
100
AcDbEntity
  8
Layer_1
 62
7
100
AcDbLine
 10
35.196514
 20
121.258941
 30
0.0
 11
33.914931
 21
121.908631
 31
0.0
  0
LINE
  5
176
100
AcDbEntity
  8
Layer_1
 62
7
100
AcDbLine
 10
33.914931
 20
121.908631
 30
0.0
 11
34.290013
 21
122.655659
 31
0.0
  0
SPLINE
  5
177
100
AcDbEntity
  8
Layer_1
 62
7
100
AcDbSpline
 70
8
 71
3
 72
8
 73
4
 74
0
 40
0
 40
0
 40
0
 40
0
 40
1
 40
1
 40
1
 40
1
 10
34.290013
 20
122.655659
 30
0.0
 10
34.496309
 20
123.066526
 30
0.0
 10
34.674422
 20
123.413087
 30
0.0
 10
34.685821
 20
123.425795
 30
0.0
  0
SPLINE
  5
178
100
AcDbEntity
  8
Layer_1
 62
7
100
AcDbSpline
 70
8
 71
3
 72
8
 73
4
 74
0
 40
0
 40
0
 40
0
 40
0
 40
1
 40
1
 40
1
 40
1
 10
34.685821
 20
123.425795
 30
0.0
 10
34.703347
 20
123.445325
 30
0.0
 10
37.255469
 20
122.193497
 30
0.0
 10
37.323117
 20
122.132173
 30
0.0
  0
SPLINE
  5
179
100
AcDbEntity
  8
Layer_1
 62
7
100
AcDbSpline
 70
8
 71
3
 72
8
 73
4
 74
0
 40
0
 40
0
 40
0
 40
0
 40
1
 40
1
 40
1
 40
1
 10
37.323117
 20
122.132173
 30
0.0
 10
37.363887
 20
122.095216
 30
0.0
 10
36.591188
 20
120.601160
 30
0.0
 10
36.533443
 20
120.605292
 30
0.0
  0
SPLINE
  5
17a
100
AcDbEntity
  8
Layer_1
 62
7
100
AcDbSpline
 70
8
 71
3
 72
8
 73
4
 74
0
 40
0
 40
0
 40
0
 40
0
 40
1
 40
1
 40
1
 40
1
 10
36.533443
 20
120.605292
 30
0.0
 10
36.503002
 20
120.607549
 30
0.0
 10
35.901386
 20
120.901611
 30
0.0
 10
35.196514
 20
121.258941
 30
0.0
  0
LINE
  5
17b
100
AcDbEntity
  8
Layer_1
 62
7
100
AcDbLine
 10
35.196514
 20
121.258941
 30
0.0
 11
35.196514
 21
121.258941
 31
0.0
  0
SPLINE
  5
17c
100
AcDbEntity
  8
Layer_1
 62
7
100
AcDbSpline
 70
8
 71
3
 72
8
 73
4
 74
0
 40
0
 40
0
 40
0
 40
0
 40
1
 40
1
 40
1
 40
1
 10
39.934500
 20
122.313402
 30
0.0
 10
38.941461
 20
122.529974
 30
0.0
 10
38.026322
 20
122.851868
 30
0.0
 10
35.640065
 20
123.823946
 30
0.0
  0
SPLINE
  5
17d
100
AcDbEntity
  8
Layer_1
 62
7
100
AcDbSpline
 70
8
 71
3
 72
8
 73
4
 74
0
 40
0
 40
0
 40
0
 40
0
 40
1
 40
1
 40
1
 40
1
 10
35.640065
 20
123.823946
 30
0.0
 10
33.390695
 20
124.740259
 30
0.0
 10
31.824974
 20
125.304585
 30
0.0
 10
31.526691
 20
125.306510
 30
0.0
  0
SPLINE
  5
17e
100
AcDbEntity
  8
Layer_1
 62
7
100
AcDbSpline
 70
8
 71
3
 72
8
 73
4
 74
0
 40
0
 40
0
 40
0
 40
0
 40
1
 40
1
 40
1
 40
1
 10
31.526691
 20
125.306510
 30
0.0
 10
31.432956
 20
125.307074
 30
0.0
 10
31.334794
 20
125.251654
 30
0.0
 10
31.308550
 20
125.183264
 30
0.0
  0
SPLINE
  5
17f
100
AcDbEntity
  8
Layer_1
 62
7
100
AcDbSpline
 70
8
 71
3
 72
8
 73
4
 74
0
 40
0
 40
0
 40
0
 40
0
 40
1
 40
1
 40
1
 40
1
 10
31.308550
 20
125.183264
 30
0.0
 10
31.275595
 20
125.097386
 30
0.0
 10
31.227879
 20
125.172511
 30
0.0
 10
31.154324
 20
125.426048
 30
0.0
  0
SPLINE
  5
180
100
AcDbEntity
  8
Layer_1
 62
7
100
AcDbSpline
 70
8
 71
3
 72
8
 73
4
 74
0
 40
0
 40
0
 40
0
 40
0
 40
1
 40
1
 40
1
 40
1
 10
31.154324
 20
125.426048
 30
0.0
 10
31.095743
 20
125.627970
 30
0.0
 10
30.937543
 20
125.947140
 30
0.0
 10
30.802768
 20
126.135315
 30
0.0
  0
SPLINE
  5
181
100
AcDbEntity
  8
Layer_1
 62
7
100
AcDbSpline
 70
8
 71
3
 72
8
 73
4
 74
0
 40
0
 40
0
 40
0
 40
0
 40
1
 40
1
 40
1
 40
1
 10
30.802768
 20
126.135315
 30
0.0
 10
30.594880
 20
126.425572
 30
0.0
 10
30.570587
 20
126.501487
 30
0.0
 10
30.642553
 20
126.635957
 30
0.0
  0
SPLINE
  5
182
100
AcDbEntity
  8
Layer_1
 62
7
100
AcDbSpline
 70
8
 71
3
 72
8
 73
4
 74
0
 40
0
 40
0
 40
0
 40
0
 40
1
 40
1
 40
1
 40
1
 10
30.642553
 20
126.635957
 30
0.0
 10
30.753879
 20
126.843972
 30
0.0
 10
31.854946
 20
127.398550
 30
0.0
 10
32.157437
 20
127.398965
 30
0.0
  0
SPLINE
  5
183
100
AcDbEntity
  8
Layer_1
 62
7
100
AcDbSpline
 70
8
 71
3
 72
8
 73
4
 74
0
 40
0
 40
0
 40
0
 40
0
 40
1
 40
1
 40
1
 40
1
 10
32.157437
 20
127.398965
 30
0.0
 10
32.946322
 20
127.400094
 30
0.0
 10
34.715274
 20
126.850869
 30
0.0
 10
37.338925
 20
125.790357
 30
0.0
  0
SPLINE
  5
184
100
AcDbEntity
  8
Layer_1
 62
7
100
AcDbSpline
 70
8
 71
3
 72
8
 73
4
 74
0
 40
0
 40
0
 40
0
 40
0
 40
1
 40
1
 40
1
 40
1
 10
37.338925
 20
125.790357
 30
0.0
 10
39.462170
 20
124.932114
 30
0.0
 10
40.981127
 20
124.364195
 30
0.0
 10
41.542153
 20
124.218817
 30
0.0
  0
SPLINE
  5
185
100
AcDbEntity
  8
Layer_1
 62
7
100
AcDbSpline
 70
8
 71
3
 72
8
 73
4
 74
0
 40
0
 40
0
 40
0
 40
0
 40
1
 40
1
 40
1
 40
1
 10
41.542153
 20
124.218817
 30
0.0
 10
41.961995
 20
124.110026
 30
0.0
 10
42.006550
 20
124.110229
 30
0.0
 10
42.087776
 20
124.221357
 30
0.0
  0
SPLINE
  5
186
100
AcDbEntity
  8
Layer_1
 62
7
100
AcDbSpline
 70
8
 71
3
 72
8
 73
4
 74
0
 40
0
 40
0
 40
0
 40
0
 40
1
 40
1
 40
1
 40
1
 10
42.087776
 20
124.221357
 30
0.0
 10
42.164676
 20
124.326527
 30
0.0
 10
42.187308
 20
124.310243
 30
0.0
 10
42.261103
 20
124.096635
 30
0.0
  0
SPLINE
  5
187
100
AcDbEntity
  8
Layer_1
 62
7
100
AcDbSpline
 70
8
 71
3
 72
8
 73
4
 74
0
 40
0
 40
0
 40
0
 40
0
 40
1
 40
1
 40
1
 40
1
 10
42.261103
 20
124.096635
 30
0.0
 10
42.307785
 20
123.961507
 30
0.0
 10
42.463394
 20
123.660037
 30
0.0
 10
42.606899
 20
123.426695
 30
0.0
  0
LINE
  5
188
100
AcDbEntity
  8
Layer_1
 62
7
100
AcDbLine
 10
42.606899
 20
123.426695
 30
0.0
 11
42.867816
 21
123.002442
 31
0.0
  0
LINE
  5
189
100
AcDbEntity
  8
Layer_1
 62
7
100
AcDbLine
 10
42.867816
 20
123.002442
 30
0.0
 11
42.739938
 21
122.734280
 31
0.0
  0
SPLINE
  5
18a
100
AcDbEntity
  8
Layer_1
 62
7
100
AcDbSpline
 70
8
 71
3
 72
8
 73
4
 74
0
 40
0
 40
0
 40
0
 40
0
 40
1
 40
1
 40
1
 40
1
 10
42.739938
 20
122.734280
 30
0.0
 10
42.635118
 20
122.514469
 30
0.0
 10
42.543960
 20
122.445056
 30
0.0
 10
42.234379
 20
122.349315
 30
0.0
  0
SPLINE
  5
18b
100
AcDbEntity
  8
Layer_1
 62
7
100
AcDbSpline
 70
8
 71
3
 72
8
 73
4
 74
0
 40
0
 40
0
 40
0
 40
0
 40
1
 40
1
 40
1
 40
1
 10
42.234379
 20
122.349315
 30
0.0
 10
41.633777
 20
122.163570
 30
0.0
 10
40.689266
 20
122.148841
 30
0.0
 10
39.934500
 20
122.313447
 30
0.0
  0
LINE
  5
18c
100
AcDbEntity
  8
Layer_1
 62
7
100
AcDbLine
 10
39.934500
 20
122.313447
 30
0.0
 11
39.934500
 21
122.313402
 31
0.0
  0
SPLINE
  5
18d
100
AcDbEntity
  8
Layer_1
 62
7
100
AcDbSpline
 70
8
 71
3
 72
8
 73
4
 74
0
 40
0
 40
0
 40
0
 40
0
 40
1
 40
1
 40
1
 40
1
 10
42.529025
 20
125.427027
 30
0.0
 10
41.323713
 20
125.593166
 30
0.0
 10
40.191689
 20
125.960238
 30
0.0
 10
37.614670
 20
127.020567
 30
0.0
  0
SPLINE
  5
18e
100
AcDbEntity
  8
Layer_1
 62
7
100
AcDbSpline
 70
8
 71
3
 72
8
 73
4
 74
0
 40
0
 40
0
 40
0
 40
0
 40
1
 40
1
 40
1
 40
1
 10
37.614670
 20
127.020567
 30
0.0
 10
34.174228
 20
128.436157
 30
0.0
 10
33.385039
 20
128.685537
 30
0.0
 10
33.189967
 20
128.418758
 30
0.0
  0
SPLINE
  5
18f
100
AcDbEntity
  8
Layer_1
 62
7
100
AcDbSpline
 70
8
 71
3
 72
8
 73
4
 74
0
 40
0
 40
0
 40
0
 40
0
 40
1
 40
1
 40
1
 40
1
 10
33.189967
 20
128.418758
 30
0.0
 10
33.111823
 20
128.311892
 30
0.0
 10
33.093125
 20
128.337958
 30
0.0
 10
33.057523
 20
128.603407
 30
0.0
  0
SPLINE
  5
190
100
AcDbEntity
  8
Layer_1
 62
7
100
AcDbSpline
 70
8
 71
3
 72
8
 73
4
 74
0
 40
0
 40
0
 40
0
 40
0
 40
1
 40
1
 40
1
 40
1
 10
33.057523
 20
128.603407
 30
0.0
 10
33.033365
 20
128.783561
 30
0.0
 10
32.903464
 20
129.075983
 30
0.0
 10
32.746122
 20
129.304433
 30
0.0
  0
SPLINE
  5
191
100
AcDbEntity
  8
Layer_1
 62
7
100
AcDbSpline
 70
8
 71
3
 72
8
 73
4
 74
0
 40
0
 40
0
 40
0
 40
0
 40
1
 40
1
 40
1
 40
1
 10
32.746122
 20
129.304433
 30
0.0
 10
32.512575
 20
129.643537
 30
0.0
 10
32.487378
 20
129.720299
 30
0.0
 10
32.559240
 20
129.873808
 30
0.0
  0
SPLINE
  5
192
100
AcDbEntity
  8
Layer_1
 62
7
100
AcDbSpline
 70
8
 71
3
 72
8
 73
4
 74
0
 40
0
 40
0
 40
0
 40
0
 40
1
 40
1
 40
1
 40
1
 10
32.559240
 20
129.873808
 30
0.0
 10
32.682478
 20
130.137068
 30
0.0
 10
33.696175
 20
130.614625
 30
0.0
 10
34.124958
 20
130.611424
 30
0.0
  0
SPLINE
  5
193
100
AcDbEntity
  8
Layer_1
 62
7
100
AcDbSpline
 70
8
 71
3
 72
8
 73
4
 74
0
 40
0
 40
0
 40
0
 40
0
 40
1
 40
1
 40
1
 40
1
 10
34.124958
 20
130.611424
 30
0.0
 10
34.980978
 20
130.605046
 30
0.0
 10
36.224751
 20
130.213051
 30
0.0
 10
39.466211
 20
128.928081
 30
0.0
  0
SPLINE
  5
194
100
AcDbEntity
  8
Layer_1
 62
7
100
AcDbSpline
 70
8
 71
3
 72
8
 73
4
 74
0
 40
0
 40
0
 40
0
 40
0
 40
1
 40
1
 40
1
 40
1
 10
39.466211
 20
128.928081
 30
0.0
 10
42.554953
 20
127.703655
 30
0.0
 10
43.501052
 20
127.378786
 30
0.0
 10
43.848894
 20
127.423171
 30
0.0
  0
SPLINE
  5
195
100
AcDbEntity
  8
Layer_1
 62
7
100
AcDbSpline
 70
8
 71
3
 72
8
 73
4
 74
0
 40
0
 40
0
 40
0
 40
0
 40
1
 40
1
 40
1
 40
1
 10
43.848894
 20
127.423171
 30
0.0
 10
44.083333
 20
127.453084
 30
0.0
 10
44.128847
 20
127.434516
 30
0.0
 10
44.163955
 20
127.294641
 30
0.0
  0
SPLINE
  5
196
100
AcDbEntity
  8
Layer_1
 62
7
100
AcDbSpline
 70
8
 71
3
 72
8
 73
4
 74
0
 40
0
 40
0
 40
0
 40
0
 40
1
 40
1
 40
1
 40
1
 10
44.163955
 20
127.294641
 30
0.0
 10
44.186533
 20
127.204720
 30
0.0
 10
44.336698
 20
126.927366
 30
0.0
 10
44.497677
 20
126.678299
 30
0.0
  0
LINE
  5
197
100
AcDbEntity
  8
Layer_1
 62
7
100
AcDbLine
 10
44.497677
 20
126.678299
 30
0.0
 11
44.790367
 21
126.225454
 31
0.0
  0
LINE
  5
198
100
AcDbEntity
  8
Layer_1
 62
7
100
AcDbLine
 10
44.790367
 20
126.225454
 30
0.0
 11
44.638721
 21
125.960106
 31
0.0
  0
SPLINE
  5
199
100
AcDbEntity
  8
Layer_1
 62
7
100
AcDbSpline
 70
8
 71
3
 72
8
 73
4
 74
0
 40
0
 40
0
 40
0
 40
0
 40
1
 40
1
 40
1
 40
1
 10
44.638721
 20
125.960106
 30
0.0
 10
44.513434
 20
125.740875
 30
0.0
 10
44.413736
 20
125.674181
 30
0.0
 10
44.065093
 20
125.576357
 30
0.0
  0
SPLINE
  5
19a
100
AcDbEntity
  8
Layer_1
 62
7
100
AcDbSpline
 70
8
 71
3
 72
8
 73
4
 74
0
 40
0
 40
0
 40
0
 40
0
 40
1
 40
1
 40
1
 40
1
 10
44.065093
 20
125.576357
 30
0.0
 10
43.607258
 20
125.447895
 30
0.0
 10
42.886197
 20
125.377796
 30
0.0
 10
42.529025
 20
125.427027
 30
0.0
  0
LINE
  5
19b
100
AcDbEntity
  8
Layer_1
 62
7
100
AcDbLine
 10
42.529025
 20
125.427027
 30
0.0
 11
42.529025
 21
125.427027
 31
0.0
  0
SPLINE
  5
19c
100
AcDbEntity
  8
Layer_1
 62
7
100
AcDbSpline
 70
8
 71
3
 72
8
 73
4
 74
0
 40
0
 40
0
 40
0
 40
0
 40
1
 40
1
 40
1
 40
1
 10
52.738651
 20
126.147995
 30
0.0
 10
52.657543
 20
126.363712
 30
0.0
 10
52.155549
 20
127.683160
 30
0.0
 10
51.623111
 20
129.080103
 30
0.0
  0
SPLINE
  5
19d
100
AcDbEntity
  8
Layer_1
 62
7
100
AcDbSpline
 70
8
 71
3
 72
8
 73
4
 74
0
 40
0
 40
0
 40
0
 40
0
 40
1
 40
1
 40
1
 40
1
 10
51.623111
 20
129.080103
 30
0.0
 10
51.090674
 20
130.477044
 30
0.0
 10
50.614568
 20
131.744783
 30
0.0
 10
50.565102
 20
131.897296
 30
0.0
  0
SPLINE
  5
19e
100
AcDbEntity
  8
Layer_1
 62
7
100
AcDbSpline
 70
8
 71
3
 72
8
 73
4
 74
0
 40
0
 40
0
 40
0
 40
0
 40
1
 40
1
 40
1
 40
1
 10
50.565102
 20
131.897296
 30
0.0
 10
50.487881
 20
132.135379
 30
0.0
 10
50.534179
 20
132.668898
 30
0.0
 10
50.892480
 20
135.669789
 30
0.0
  0
SPLINE
  5
19f
100
AcDbEntity
  8
Layer_1
 62
7
100
AcDbSpline
 70
8
 71
3
 72
8
 73
4
 74
0
 40
0
 40
0
 40
0
 40
0
 40
1
 40
1
 40
1
 40
1
 10
50.892480
 20
135.669789
 30
0.0
 10
51.122003
 20
137.592146
 30
0.0
 10
51.325037
 20
139.234676
 30
0.0
 10
51.343663
 20
139.319856
 30
0.0
  0
SPLINE
  5
1a0
100
AcDbEntity
  8
Layer_1
 62
7
100
AcDbSpline
 70
8
 71
3
 72
8
 73
4
 74
0
 40
0
 40
0
 40
0
 40
0
 40
1
 40
1
 40
1
 40
1
 10
51.343663
 20
139.319856
 30
0.0
 10
51.376460
 20
139.469855
 30
0.0
 10
51.421689
 20
139.474729
 30
0.0
 10
52.780098
 20
139.474672
 30
0.0
  0
SPLINE
  5
1a1
100
AcDbEntity
  8
Layer_1
 62
7
100
AcDbSpline
 70
8
 71
3
 72
8
 73
4
 74
0
 40
0
 40
0
 40
0
 40
0
 40
1
 40
1
 40
1
 40
1
 10
52.780098
 20
139.474672
 30
0.0
 10
54.854364
 20
139.474599
 30
0.0
 10
56.401348
 20
139.722954
 30
0.0
 10
58.328675
 20
140.365495
 30
0.0
  0
SPLINE
  5
1a2
100
AcDbEntity
  8
Layer_1
 62
7
100
AcDbSpline
 70
8
 71
3
 72
8
 73
4
 74
0
 40
0
 40
0
 40
0
 40
0
 40
1
 40
1
 40
1
 40
1
 10
58.328675
 20
140.365495
 30
0.0
 10
63.721498
 20
142.163381
 30
0.0
 10
67.968759
 20
146.719802
 30
0.0
 10
69.378815
 20
152.219986
 30
0.0
  0
SPLINE
  5
1a3
100
AcDbEntity
  8
Layer_1
 62
7
100
AcDbSpline
 70
8
 71
3
 72
8
 73
4
 74
0
 40
0
 40
0
 40
0
 40
0
 40
1
 40
1
 40
1
 40
1
 10
69.378815
 20
152.219986
 30
0.0
 10
69.815260
 20
153.922421
 30
0.0
 10
69.868022
 20
154.387379
 30
0.0
 10
69.868287
 20
156.533388
 30
0.0
  0
SPLINE
  5
1a4
100
AcDbEntity
  8
Layer_1
 62
7
100
AcDbSpline
 70
8
 71
3
 72
8
 73
4
 74
0
 40
0
 40
0
 40
0
 40
0
 40
1
 40
1
 40
1
 40
1
 10
69.868287
 20
156.533388
 30
0.0
 10
69.868569
 20
158.672227
 30
0.0
 10
69.781729
 20
159.405527
 30
0.0
 10
69.342016
 20
160.978208
 30
0.0
  0
SPLINE
  5
1a5
100
AcDbEntity
  8
Layer_1
 62
7
100
AcDbSpline
 70
8
 71
3
 72
8
 73
4
 74
0
 40
0
 40
0
 40
0
 40
0
 40
1
 40
1
 40
1
 40
1
 10
69.342016
 20
160.978208
 30
0.0
 10
68.310096
 20
164.668955
 30
0.0
 10
66.137289
 20
167.881756
 30
0.0
 10
63.159512
 20
170.119902
 30
0.0
  0
SPLINE
  5
1a6
100
AcDbEntity
  8
Layer_1
 62
7
100
AcDbSpline
 70
8
 71
3
 72
8
 73
4
 74
0
 40
0
 40
0
 40
0
 40
0
 40
1
 40
1
 40
1
 40
1
 10
63.159512
 20
170.119902
 30
0.0
 10
58.647069
 20
173.511530
 30
0.0
 10
52.820419
 20
174.471249
 30
0.0
 10
47.504115
 20
172.698533
 30
0.0
  0
SPLINE
  5
1a7
100
AcDbEntity
  8
Layer_1
 62
7
100
AcDbSpline
 70
8
 71
3
 72
8
 73
4
 74
0
 40
0
 40
0
 40
0
 40
0
 40
1
 40
1
 40
1
 40
1
 10
47.504115
 20
172.698533
 30
0.0
 10
43.150803
 20
171.246923
 30
0.0
 10
39.617595
 20
168.160292
 30
0.0
 10
37.594028
 20
164.041025
 30
0.0
  0
SPLINE
  5
1a8
100
AcDbEntity
  8
Layer_1
 62
7
100
AcDbSpline
 70
8
 71
3
 72
8
 73
4
 74
0
 40
0
 40
0
 40
0
 40
0
 40
1
 40
1
 40
1
 40
1
 10
37.594028
 20
164.041025
 30
0.0
 10
36.386444
 20
161.582804
 30
0.0
 10
35.843124
 20
159.253122
 30
0.0
 10
35.843124
 20
156.533388
 30
0.0
  0
SPLINE
  5
1a9
100
AcDbEntity
  8
Layer_1
 62
7
100
AcDbSpline
 70
8
 71
3
 72
8
 73
4
 74
0
 40
0
 40
0
 40
0
 40
0
 40
1
 40
1
 40
1
 40
1
 10
35.843124
 20
156.533388
 30
0.0
 10
35.843124
 20
152.397473
 30
0.0
 10
37.235676
 20
148.600966
 30
0.0
 10
39.908318
 20
145.450477
 30
0.0
  0
LINE
  5
1aa
100
AcDbEntity
  8
Layer_1
 62
7
100
AcDbLine
 10
39.908318
 20
145.450477
 30
0.0
 11
40.316349
 21
144.969494
 31
0.0
  0
LINE
  5
1ab
100
AcDbEntity
  8
Layer_1
 62
7
100
AcDbLine
 10
40.316349
 20
144.969494
 30
0.0
 11
37.631290
 21
142.440752
 31
0.0
  0
LINE
  5
1ac
100
AcDbEntity
  8
Layer_1
 62
7
100
AcDbLine
 10
37.631290
 20
142.440752
 30
0.0
 11
34.946230
 21
139.912012
 31
0.0
  0
LINE
  5
1ad
100
AcDbEntity
  8
Layer_1
 62
7
100
AcDbLine
 10
34.946230
 20
139.912012
 30
0.0
 11
31.678213
 21
138.932605
 31
0.0
  0
LINE
  5
1ae
100
AcDbEntity
  8
Layer_1
 62
7
100
AcDbLine
 10
31.678213
 20
138.932605
 30
0.0
 11
28.410192
 21
137.953195
 31
0.0
  0
LINE
  5
1af
100
AcDbEntity
  8
Layer_1
 62
7
100
AcDbLine
 10
28.410192
 20
137.953195
 30
0.0
 11
28.260787
 21
138.128359
 31
0.0
  0
SPLINE
  5
1b0
100
AcDbEntity
  8
Layer_1
 62
7
100
AcDbSpline
 70
8
 71
3
 72
8
 73
4
 74
0
 40
0
 40
0
 40
0
 40
0
 40
1
 40
1
 40
1
 40
1
 10
28.260787
 20
138.128359
 30
0.0
 10
28.178615
 20
138.224699
 30
0.0
 10
27.663410
 20
138.990915
 30
0.0
 10
27.115890
 20
139.831063
 30
0.0
  0
LINE
  5
1b1
100
AcDbEntity
  8
Layer_1
 62
7
100
AcDbLine
 10
27.115890
 20
139.831063
 30
0.0
 11
26.120399
 21
141.358602
 31
0.0
  0
LINE
  5
1b2
100
AcDbEntity
  8
Layer_1
 62
7
100
AcDbLine
 10
26.120399
 20
141.358602
 30
0.0
 11
28.191792
 21
143.847528
 31
0.0
  0
SPLINE
  5
1b3
100
AcDbEntity
  8
Layer_1
 62
7
100
AcDbSpline
 70
8
 71
3
 72
8
 73
4
 74
0
 40
0
 40
0
 40
0
 40
0
 40
1
 40
1
 40
1
 40
1
 10
28.191792
 20
143.847528
 30
0.0
 10
29.331061
 20
145.216438
 30
0.0
 10
30.313002
 20
146.394516
 30
0.0
 10
30.373889
 20
146.465478
 30
0.0
  0
SPLINE
  5
1b4
100
AcDbEntity
  8
Layer_1
 62
7
100
AcDbSpline
 70
8
 71
3
 72
8
 73
4
 74
0
 40
0
 40
0
 40
0
 40
0
 40
1
 40
1
 40
1
 40
1
 10
30.373889
 20
146.465478
 30
0.0
 10
30.473288
 20
146.581330
 30
0.0
 10
30.444738
 20
146.695342
 30
0.0
 10
30.094314
 20
147.582064
 30
0.0
  0
SPLINE
  5
1b5
100
AcDbEntity
  8
Layer_1
 62
7
100
AcDbSpline
 70
8
 71
3
 72
8
 73
4
 74
0
 40
0
 40
0
 40
0
 40
0
 40
1
 40
1
 40
1
 40
1
 10
30.094314
 20
147.582064
 30
0.0
 10
29.879661
 20
148.125224
 30
0.0
 10
29.554375
 20
149.091073
 30
0.0
 10
29.371455
 20
149.728398
 30
0.0
  0
SPLINE
  5
1b6
100
AcDbEntity
  8
Layer_1
 62
7
100
AcDbSpline
 70
8
 71
3
 72
8
 73
4
 74
0
 40
0
 40
0
 40
0
 40
0
 40
1
 40
1
 40
1
 40
1
 10
29.371455
 20
149.728398
 30
0.0
 10
29.188536
 20
150.365721
 30
0.0
 10
29.030474
 20
150.895568
 30
0.0
 10
29.020210
 20
150.905835
 30
0.0
  0
SPLINE
  5
1b7
100
AcDbEntity
  8
Layer_1
 62
7
100
AcDbSpline
 70
8
 71
3
 72
8
 73
4
 74
0
 40
0
 40
0
 40
0
 40
0
 40
1
 40
1
 40
1
 40
1
 10
29.020210
 20
150.905835
 30
0.0
 10
29.009937
 20
150.916108
 30
0.0
 10
27.523840
 20
151.267413
 30
0.0
 10
25.717756
 20
151.686527
 30
0.0
  0
SPLINE
  5
1b8
100
AcDbEntity
  8
Layer_1
 62
7
100
AcDbSpline
 70
8
 71
3
 72
8
 73
4
 74
0
 40
0
 40
0
 40
0
 40
0
 40
1
 40
1
 40
1
 40
1
 10
25.717756
 20
151.686527
 30
0.0
 10
23.911672
 20
152.105641
 30
0.0
 10
22.425952
 20
152.454010
 30
0.0
 10
22.416159
 20
152.460676
 30
0.0
  0
SPLINE
  5
1b9
100
AcDbEntity
  8
Layer_1
 62
7
100
AcDbSpline
 70
8
 71
3
 72
8
 73
4
 74
0
 40
0
 40
0
 40
0
 40
0
 40
1
 40
1
 40
1
 40
1
 10
22.416159
 20
152.460676
 30
0.0
 10
22.406366
 20
152.467337
 30
0.0
 10
22.338856
 20
153.382837
 30
0.0
 10
22.266138
 20
154.495103
 30
0.0
  0
LINE
  5
1ba
100
AcDbEntity
  8
Layer_1
 62
7
100
AcDbLine
 10
22.266138
 20
154.495103
 30
0.0
 11
22.133926
 21
156.517409
 31
0.0
  0
LINE
  5
1bb
100
AcDbEntity
  8
Layer_1
 62
7
100
AcDbLine
 10
22.133926
 20
156.517409
 30
0.0
 11
25.272059
 21
157.695162
 31
0.0
  0
SPLINE
  5
1bc
100
AcDbEntity
  8
Layer_1
 62
7
100
AcDbSpline
 70
8
 71
3
 72
8
 73
4
 74
0
 40
0
 40
0
 40
0
 40
0
 40
1
 40
1
 40
1
 40
1
 10
25.272059
 20
157.695162
 30
0.0
 10
26.998034
 20
158.342927
 30
0.0
 10
28.433521
 20
158.892786
 30
0.0
 10
28.462031
 20
158.917074
 30
0.0
  0
SPLINE
  5
1bd
100
AcDbEntity
  8
Layer_1
 62
7
100
AcDbSpline
 70
8
 71
3
 72
8
 73
4
 74
0
 40
0
 40
0
 40
0
 40
0
 40
1
 40
1
 40
1
 40
1
 10
28.462031
 20
158.917074
 30
0.0
 10
28.490541
 20
158.941373
 30
0.0
 10
28.583818
 20
159.448668
 30
0.0
 10
28.669312
 20
160.044422
 30
0.0
  0
SPLINE
  5
1be
100
AcDbEntity
  8
Layer_1
 62
7
100
AcDbSpline
 70
8
 71
3
 72
8
 73
4
 74
0
 40
0
 40
0
 40
0
 40
0
 40
1
 40
1
 40
1
 40
1
 10
28.669312
 20
160.044422
 30
0.0
 10
28.754805
 20
160.640176
 30
0.0
 10
28.958389
 20
161.676141
 30
0.0
 10
29.121720
 20
162.346559
 30
0.0
  0
SPLINE
  5
1bf
100
AcDbEntity
  8
Layer_1
 62
7
100
AcDbSpline
 70
8
 71
3
 72
8
 73
4
 74
0
 40
0
 40
0
 40
0
 40
0
 40
1
 40
1
 40
1
 40
1
 10
29.121720
 20
162.346559
 30
0.0
 10
29.285047
 20
163.016981
 30
0.0
 10
29.418680
 20
163.592904
 30
0.0
 10
29.418680
 20
163.626386
 30
0.0
  0
SPLINE
  5
1c0
100
AcDbEntity
  8
Layer_1
 62
7
100
AcDbSpline
 70
8
 71
3
 72
8
 73
4
 74
0
 40
0
 40
0
 40
0
 40
0
 40
1
 40
1
 40
1
 40
1
 10
29.418680
 20
163.626386
 30
0.0
 10
29.418680
 20
163.659872
 30
0.0
 10
28.311663
 20
164.733575
 30
0.0
 10
26.958642
 20
166.012398
 30
0.0
  0
LINE
  5
1c1
100
AcDbEntity
  8
Layer_1
 62
7
100
AcDbLine
 10
26.958642
 20
166.012398
 30
0.0
 11
24.498604
 21
168.337525
 31
0.0
  0
LINE
  5
1c2
100
AcDbEntity
  8
Layer_1
 62
7
100
AcDbLine
 10
24.498604
 20
168.337525
 30
0.0
 11
25.387686
 21
170.148525
 31
0.0
  0
SPLINE
  5
1c3
100
AcDbEntity
  8
Layer_1
 62
7
100
AcDbSpline
 70
8
 71
3
 72
8
 73
4
 74
0
 40
0
 40
0
 40
0
 40
0
 40
1
 40
1
 40
1
 40
1
 10
25.387686
 20
170.148525
 30
0.0
 10
25.907553
 20
171.207454
 30
0.0
 10
26.316459
 20
171.953918
 30
0.0
 10
26.372345
 20
171.946027
 30
0.0
  0
SPLINE
  5
1c4
100
AcDbEntity
  8
Layer_1
 62
7
100
AcDbSpline
 70
8
 71
3
 72
8
 73
4
 74
0
 40
0
 40
0
 40
0
 40
0
 40
1
 40
1
 40
1
 40
1
 10
26.372345
 20
171.946027
 30
0.0
 10
26.424911
 20
171.938604
 30
0.0
 10
27.944277
 20
171.688493
 30
0.0
 10
29.748716
 20
171.390224
 30
0.0
  0
LINE
  5
1c5
100
AcDbEntity
  8
Layer_1
 62
7
100
AcDbLine
 10
29.748716
 20
171.390224
 30
0.0
 11
33.029513
 21
170.847917
 31
0.0
  0
LINE
  5
1c6
100
AcDbEntity
  8
Layer_1
 62
7
100
AcDbLine
 10
33.029513
 20
170.847917
 30
0.0
 11
33.222397
 21
171.102608
 31
0.0
  0
SPLINE
  5
1c7
100
AcDbEntity
  8
Layer_1
 62
7
100
AcDbSpline
 70
8
 71
3
 72
8
 73
4
 74
0
 40
0
 40
0
 40
0
 40
0
 40
1
 40
1
 40
1
 40
1
 10
33.222397
 20
171.102608
 30
0.0
 10
33.917590
 20
172.020567
 30
0.0
 10
34.664595
 20
172.894824
 30
0.0
 10
35.385247
 20
173.633896
 30
0.0
  0
SPLINE
  5
1c8
100
AcDbEntity
  8
Layer_1
 62
7
100
AcDbSpline
 70
8
 71
3
 72
8
 73
4
 74
0
 40
0
 40
0
 40
0
 40
0
 40
1
 40
1
 40
1
 40
1
 10
35.385247
 20
173.633896
 30
0.0
 10
35.842512
 20
174.102851
 30
0.0
 10
36.216637
 20
174.515781
 30
0.0
 10
36.216637
 20
174.551522
 30
0.0
  0
SPLINE
  5
1c9
100
AcDbEntity
  8
Layer_1
 62
7
100
AcDbSpline
 70
8
 71
3
 72
8
 73
4
 74
0
 40
0
 40
0
 40
0
 40
0
 40
1
 40
1
 40
1
 40
1
 10
36.216637
 20
174.551522
 30
0.0
 10
36.216637
 20
174.587260
 30
0.0
 10
35.796433
 20
176.031461
 30
0.0
 10
35.282851
 20
177.760854
 30
0.0
  0
SPLINE
  5
1ca
100
AcDbEntity
  8
Layer_1
 62
7
100
AcDbSpline
 70
8
 71
3
 72
8
 73
4
 74
0
 40
0
 40
0
 40
0
 40
0
 40
1
 40
1
 40
1
 40
1
 10
35.282851
 20
177.760854
 30
0.0
 10
34.769271
 20
179.490250
 30
0.0
 10
34.349364
 20
180.943023
 30
0.0
 10
34.349726
 20
180.989237
 30
0.0
  0
SPLINE
  5
1cb
100
AcDbEntity
  8
Layer_1
 62
7
100
AcDbSpline
 70
8
 71
3
 72
8
 73
4
 74
0
 40
0
 40
0
 40
0
 40
0
 40
1
 40
1
 40
1
 40
1
 10
34.349726
 20
180.989237
 30
0.0
 10
34.350008
 20
181.035453
 30
0.0
 10
35.107221
 20
181.568836
 30
0.0
 10
36.032250
 20
182.174533
 30
0.0
  0
LINE
  5
1cc
100
AcDbEntity
  8
Layer_1
 62
7
100
AcDbLine
 10
36.032250
 20
182.174533
 30
0.0
 11
37.714116
 21
183.275798
 31
0.0
  0
LINE
  5
1cd
100
AcDbEntity
  8
Layer_1
 62
7
100
AcDbLine
 10
37.714116
 20
183.275798
 30
0.0
 11
40.270976
 21
181.140344
 31
0.0
  0
SPLINE
  5
1ce
100
AcDbEntity
  8
Layer_1
 62
7
100
AcDbSpline
 70
8
 71
3
 72
8
 73
4
 74
0
 40
0
 40
0
 40
0
 40
0
 40
1
 40
1
 40
1
 40
1
 10
40.270976
 20
181.140344
 30
0.0
 10
41.677250
 20
179.965845
 30
0.0
 10
42.868637
 20
178.988115
 30
0.0
 10
42.918503
 20
178.967611
 30
0.0
  0
SPLINE
  5
1cf
100
AcDbEntity
  8
Layer_1
 62
7
100
AcDbSpline
 70
8
 71
3
 72
8
 73
4
 74
0
 40
0
 40
0
 40
0
 40
0
 40
1
 40
1
 40
1
 40
1
 10
42.918503
 20
178.967611
 30
0.0
 10
42.968372
 20
178.947122
 30
0.0
 10
43.445296
 20
179.102096
 30
0.0
 10
43.978341
 20
179.312027
 30
0.0
  0
SPLINE
  5
1d0
100
AcDbEntity
  8
Layer_1
 62
7
100
AcDbSpline
 70
8
 71
3
 72
8
 73
4
 74
0
 40
0
 40
0
 40
0
 40
0
 40
1
 40
1
 40
1
 40
1
 10
43.978341
 20
179.312027
 30
0.0
 10
44.511385
 20
179.521958
 30
0.0
 10
45.458627
 20
179.840324
 30
0.0
 10
46.083320
 20
180.019510
 30
0.0
  0
SPLINE
  5
1d1
100
AcDbEntity
  8
Layer_1
 62
7
100
AcDbSpline
 70
8
 71
3
 72
8
 73
4
 74
0
 40
0
 40
0
 40
0
 40
0
 40
1
 40
1
 40
1
 40
1
 10
46.083320
 20
180.019510
 30
0.0
 10
46.708017
 20
180.198695
 30
0.0
 10
47.243612
 20
180.391436
 30
0.0
 10
47.273533
 20
180.447824
 30
0.0
  0
SPLINE
  5
1d2
100
AcDbEntity
  8
Layer_1
 62
7
100
AcDbSpline
 70
8
 71
3
 72
8
 73
4
 74
0
 40
0
 40
0
 40
0
 40
0
 40
1
 40
1
 40
1
 40
1
 10
47.273533
 20
180.447824
 30
0.0
 10
47.303457
 20
180.504212
 30
0.0
 10
47.657113
 20
181.979038
 30
0.0
 10
48.059432
 20
183.725217
 30
0.0
  0
SPLINE
  5
1d3
100
AcDbEntity
  8
Layer_1
 62
7
100
AcDbSpline
 70
8
 71
3
 72
8
 73
4
 74
0
 40
0
 40
0
 40
0
 40
0
 40
1
 40
1
 40
1
 40
1
 10
48.059432
 20
183.725217
 30
0.0
 10
48.461754
 20
185.471394
 30
0.0
 10
48.810691
 20
186.923137
 30
0.0
 10
48.834846
 20
186.951311
 30
0.0
  0
SPLINE
  5
1d4
100
AcDbEntity
  8
Layer_1
 62
7
100
AcDbSpline
 70
8
 71
3
 72
8
 73
4
 74
0
 40
0
 40
0
 40
0
 40
0
 40
1
 40
1
 40
1
 40
1
 10
48.834846
 20
186.951311
 30
0.0
 10
48.907761
 20
187.036350
 30
0.0
 10
52.797960
 20
187.269471
 30
0.0
 10
52.868073
 20
187.193000
 30
0.0
  0
SPLINE
  5
1d5
100
AcDbEntity
  8
Layer_1
 62
7
100
AcDbSpline
 70
8
 71
3
 72
8
 73
4
 74
0
 40
0
 40
0
 40
0
 40
0
 40
1
 40
1
 40
1
 40
1
 10
52.868073
 20
187.193000
 30
0.0
 10
52.916191
 20
187.140518
 30
0.0
 10
54.169749
 20
183.870853
 30
0.0
 10
55.206461
 20
181.093769
 30
0.0
  0
SPLINE
  5
1d6
100
AcDbEntity
  8
Layer_1
 62
7
100
AcDbSpline
 70
8
 71
3
 72
8
 73
4
 74
0
 40
0
 40
0
 40
0
 40
0
 40
1
 40
1
 40
1
 40
1
 10
55.206461
 20
181.093769
 30
0.0
 10
55.261678
 20
180.945859
 30
0.0
 10
55.346613
 20
180.880553
 30
0.0
 10
55.516948
 20
180.855029
 30
0.0
  0
SPLINE
  5
1d7
100
AcDbEntity
  8
Layer_1
 62
7
100
AcDbSpline
 70
8
 71
3
 72
8
 73
4
 74
0
 40
0
 40
0
 40
0
 40
0
 40
1
 40
1
 40
1
 40
1
 10
55.516948
 20
180.855029
 30
0.0
 10
57.152378
 20
180.609964
 30
0.0
 10
58.306721
 20
180.394558
 30
0.0
 10
59.081186
 20
180.189918
 30
0.0
  0
LINE
  5
1d8
100
AcDbEntity
  8
Layer_1
 62
7
100
AcDbLine
 10
59.081186
 20
180.189918
 30
0.0
 11
60.020456
 21
179.941735
 31
0.0
  0
LINE
  5
1d9
100
AcDbEntity
  8
Layer_1
 62
7
100
AcDbLine
 10
60.020456
 20
179.941735
 30
0.0
 11
62.358534
 21
182.424238
 31
0.0
  0
LINE
  5
1da
100
AcDbEntity
  8
Layer_1
 62
7
100
AcDbLine
 10
62.358534
 20
182.424238
 30
0.0
 11
64.696615
 21
184.906741
 31
0.0
  0
LINE
  5
1db
100
AcDbEntity
  8
Layer_1
 62
7
100
AcDbLine
 10
64.696615
 20
184.906741
 30
0.0
 11
66.494340
 21
184.015661
 31
0.0
  0
SPLINE
  5
1dc
100
AcDbEntity
  8
Layer_1
 62
7
100
AcDbSpline
 70
8
 71
3
 72
8
 73
4
 74
0
 40
0
 40
0
 40
0
 40
0
 40
1
 40
1
 40
1
 40
1
 10
66.494340
 20
184.015661
 30
0.0
 10
67.483089
 20
183.525565
 30
0.0
 10
68.301192
 20
183.115454
 30
0.0
 10
68.312345
 20
183.104300
 30
0.0
  0
SPLINE
  5
1dd
100
AcDbEntity
  8
Layer_1
 62
7
100
AcDbSpline
 70
8
 71
3
 72
8
 73
4
 74
0
 40
0
 40
0
 40
0
 40
0
 40
1
 40
1
 40
1
 40
1
 10
68.312345
 20
183.104300
 30
0.0
 10
68.323493
 20
183.093152
 30
0.0
 10
68.080745
 20
181.575528
 30
0.0
 10
67.772888
 20
179.731818
 30
0.0
  0
SPLINE
  5
1de
100
AcDbEntity
  8
Layer_1
 62
7
100
AcDbSpline
 70
8
 71
3
 72
8
 73
4
 74
0
 40
0
 40
0
 40
0
 40
0
 40
1
 40
1
 40
1
 40
1
 10
67.772888
 20
179.731818
 30
0.0
 10
67.465032
 20
177.888108
 30
0.0
 10
67.239525
 20
176.354154
 30
0.0
 10
67.271758
 20
176.323031
 30
0.0
  0
SPLINE
  5
1df
100
AcDbEntity
  8
Layer_1
 62
7
100
AcDbSpline
 70
8
 71
3
 72
8
 73
4
 74
0
 40
0
 40
0
 40
0
 40
0
 40
1
 40
1
 40
1
 40
1
 10
67.271758
 20
176.323031
 30
0.0
 10
67.303990
 20
176.291910
 30
0.0
 10
67.593333
 20
176.065537
 30
0.0
 10
67.914739
 20
175.819984
 30
0.0
  0
SPLINE
  5
1e0
100
AcDbEntity
  8
Layer_1
 62
7
100
AcDbSpline
 70
8
 71
3
 72
8
 73
4
 74
0
 40
0
 40
0
 40
0
 40
0
 40
1
 40
1
 40
1
 40
1
 10
67.914739
 20
175.819984
 30
0.0
 10
68.624280
 20
175.277897
 30
0.0
 10
70.197939
 20
173.870652
 30
0.0
 10
70.570526
 20
173.445050
 30
0.0
  0
LINE
  5
1e1
100
AcDbEntity
  8
Layer_1
 62
7
100
AcDbLine
 10
70.570526
 20
173.445050
 30
0.0
 11
70.841395
 21
173.135636
 31
0.0
  0
LINE
  5
1e2
100
AcDbEntity
  8
Layer_1
 62
7
100
AcDbLine
 10
70.841395
 20
173.135636
 30
0.0
 11
74.053617
 21
174.094553
 31
0.0
  0
SPLINE
  5
1e3
100
AcDbEntity
  8
Layer_1
 62
7
100
AcDbSpline
 70
8
 71
3
 72
8
 73
4
 74
0
 40
0
 40
0
 40
0
 40
0
 40
1
 40
1
 40
1
 40
1
 10
74.053617
 20
174.094553
 30
0.0
 10
75.820339
 20
174.621959
 30
0.0
 10
77.299455
 20
175.054064
 30
0.0
 10
77.340541
 20
175.054789
 30
0.0
  0
SPLINE
  5
1e4
100
AcDbEntity
  8
Layer_1
 62
7
100
AcDbSpline
 70
8
 71
3
 72
8
 73
4
 74
0
 40
0
 40
0
 40
0
 40
0
 40
1
 40
1
 40
1
 40
1
 10
77.340541
 20
175.054789
 30
0.0
 10
77.381629
 20
175.055636
 30
0.0
 10
77.916223
 20
174.300471
 30
0.0
 10
78.528533
 20
173.376913
 30
0.0
  0
SPLINE
  5
1e5
100
AcDbEntity
  8
Layer_1
 62
7
100
AcDbSpline
 70
8
 71
3
 72
8
 73
4
 74
0
 40
0
 40
0
 40
0
 40
0
 40
1
 40
1
 40
1
 40
1
 10
78.528533
 20
173.376913
 30
0.0
 10
79.548379
 20
171.838655
 30
0.0
 10
79.632323
 20
171.686758
 30
0.0
 10
79.528660
 20
171.567160
 30
0.0
  0
SPLINE
  5
1e6
100
AcDbEntity
  8
Layer_1
 62
7
100
AcDbSpline
 70
8
 71
3
 72
8
 73
4
 74
0
 40
0
 40
0
 40
0
 40
0
 40
1
 40
1
 40
1
 40
1
 10
79.528660
 20
171.567160
 30
0.0
 10
79.167935
 20
171.150981
 30
0.0
 10
75.381117
 20
166.564831
 30
0.0
 10
75.333447
 20
166.486407
 30
0.0
  0
SPLINE
  5
1e7
100
AcDbEntity
  8
Layer_1
 62
7
100
AcDbSpline
 70
8
 71
3
 72
8
 73
4
 74
0
 40
0
 40
0
 40
0
 40
0
 40
1
 40
1
 40
1
 40
1
 10
75.333447
 20
166.486407
 30
0.0
 10
75.300325
 20
166.431921
 30
0.0
 10
75.401587
 20
166.083924
 30
0.0
 10
75.572557
 20
165.664677
 30
0.0
  0
SPLINE
  5
1e8
100
AcDbEntity
  8
Layer_1
 62
7
100
AcDbSpline
 70
8
 71
3
 72
8
 73
4
 74
0
 40
0
 40
0
 40
0
 40
0
 40
1
 40
1
 40
1
 40
1
 10
75.572557
 20
165.664677
 30
0.0
 10
75.918321
 20
164.816797
 30
0.0
 10
76.536521
 20
162.920216
 30
0.0
 10
76.603351
 20
162.502287
 30
0.0
  0
SPLINE
  5
1e9
100
AcDbEntity
  8
Layer_1
 62
7
100
AcDbSpline
 70
8
 71
3
 72
8
 73
4
 74
0
 40
0
 40
0
 40
0
 40
0
 40
1
 40
1
 40
1
 40
1
 10
76.603351
 20
162.502287
 30
0.0
 10
76.628751
 20
162.343523
 30
0.0
 10
76.687335
 20
162.185281
 30
0.0
 10
76.733565
 20
162.150641
 30
0.0
  0
SPLINE
  5
1ea
100
AcDbEntity
  8
Layer_1
 62
7
100
AcDbSpline
 70
8
 71
3
 72
8
 73
4
 74
0
 40
0
 40
0
 40
0
 40
0
 40
1
 40
1
 40
1
 40
1
 10
76.733565
 20
162.150641
 30
0.0
 10
76.779796
 20
162.116001
 30
0.0
 10
78.255818
 20
161.755293
 30
0.0
 10
80.013614
 20
161.349073
 30
0.0
  0
SPLINE
  5
1eb
100
AcDbEntity
  8
Layer_1
 62
7
100
AcDbSpline
 70
8
 71
3
 72
8
 73
4
 74
0
 40
0
 40
0
 40
0
 40
0
 40
1
 40
1
 40
1
 40
1
 10
80.013614
 20
161.349073
 30
0.0
 10
81.771410
 20
160.942851
 30
0.0
 10
83.242976
 20
160.589864
 30
0.0
 10
83.283757
 20
160.564659
 30
0.0
  0
SPLINE
  5
1ec
100
AcDbEntity
  8
Layer_1
 62
7
100
AcDbSpline
 70
8
 71
3
 72
8
 73
4
 74
0
 40
0
 40
0
 40
0
 40
0
 40
1
 40
1
 40
1
 40
1
 10
83.283757
 20
160.564659
 30
0.0
 10
83.364935
 20
160.514489
 30
0.0
 10
83.657416
 20
156.598201
 30
0.0
 10
83.585334
 20
156.526547
 30
0.0
  0
SPLINE
  5
1ed
100
AcDbEntity
  8
Layer_1
 62
7
100
AcDbSpline
 70
8
 71
3
 72
8
 73
4
 74
0
 40
0
 40
0
 40
0
 40
0
 40
1
 40
1
 40
1
 40
1
 10
83.585334
 20
156.526547
 30
0.0
 10
83.560893
 20
156.502248
 30
0.0
 10
82.122153
 20
155.949138
 30
0.0
 10
80.388160
 20
155.297430
 30
0.0
  0
LINE
  5
1ee
100
AcDbEntity
  8
Layer_1
 62
7
100
AcDbLine
 10
80.388160
 20
155.297430
 30
0.0
 11
77.235441
 21
154.112509
 31
0.0
  0
LINE
  5
1ef
100
AcDbEntity
  8
Layer_1
 62
7
100
AcDbLine
 10
77.235441
 20
154.112509
 30
0.0
 11
77.189095
 21
153.698161
 31
0.0
  0
SPLINE
  5
1f0
100
AcDbEntity
  8
Layer_1
 62
7
100
AcDbSpline
 70
8
 71
3
 72
8
 73
4
 74
0
 40
0
 40
0
 40
0
 40
0
 40
1
 40
1
 40
1
 40
1
 10
77.189095
 20
153.698161
 30
0.0
 10
77.092196
 20
152.831838
 30
0.0
 10
76.833416
 20
151.452821
 30
0.0
 10
76.581860
 20
150.462264
 30
0.0
  0
SPLINE
  5
1f1
100
AcDbEntity
  8
Layer_1
 62
7
100
AcDbSpline
 70
8
 71
3
 72
8
 73
4
 74
0
 40
0
 40
0
 40
0
 40
0
 40
1
 40
1
 40
1
 40
1
 10
76.581860
 20
150.462264
 30
0.0
 10
76.438175
 20
149.896487
 30
0.0
 10
76.331596
 20
149.407500
 30
0.0
 10
76.345010
 20
149.375626
 30
0.0
  0
SPLINE
  5
1f2
100
AcDbEntity
  8
Layer_1
 62
7
100
AcDbSpline
 70
8
 71
3
 72
8
 73
4
 74
0
 40
0
 40
0
 40
0
 40
0
 40
1
 40
1
 40
1
 40
1
 10
76.345010
 20
149.375626
 30
0.0
 10
76.358416
 20
149.343755
 30
0.0
 10
77.327468
 20
148.415896
 30
0.0
 10
78.498436
 20
147.313719
 30
0.0
  0
SPLINE
  5
1f3
100
AcDbEntity
  8
Layer_1
 62
7
100
AcDbSpline
 70
8
 71
3
 72
8
 73
4
 74
0
 40
0
 40
0
 40
0
 40
0
 40
1
 40
1
 40
1
 40
1
 10
78.498436
 20
147.313719
 30
0.0
 10
79.669402
 20
146.211543
 30
0.0
 10
80.773080
 20
145.167803
 30
0.0
 10
80.951052
 20
144.994295
 30
0.0
  0
LINE
  5
1f4
100
AcDbEntity
  8
Layer_1
 62
7
100
AcDbLine
 10
80.951052
 20
144.994295
 30
0.0
 11
81.274639
 21
144.678827
 31
0.0
  0
LINE
  5
1f5
100
AcDbEntity
  8
Layer_1
 62
7
100
AcDbLine
 10
81.274639
 20
144.678827
 30
0.0
 11
80.371808
 21
142.874366
 31
0.0
  0
SPLINE
  5
1f6
100
AcDbEntity
  8
Layer_1
 62
7
100
AcDbSpline
 70
8
 71
3
 72
8
 73
4
 74
0
 40
0
 40
0
 40
0
 40
0
 40
1
 40
1
 40
1
 40
1
 10
80.371808
 20
142.874366
 30
0.0
 10
79.875249
 20
141.881912
 30
0.0
 10
79.450846
 20
141.069905
 30
0.0
 10
79.428689
 20
141.069905
 30
0.0
  0
SPLINE
  5
1f7
100
AcDbEntity
  8
Layer_1
 62
7
100
AcDbSpline
 70
8
 71
3
 72
8
 73
4
 74
0
 40
0
 40
0
 40
0
 40
0
 40
1
 40
1
 40
1
 40
1
 10
79.428689
 20
141.069905
 30
0.0
 10
79.374005
 20
141.069905
 30
0.0
 10
73.130880
 20
142.107712
 30
0.0
 10
72.895318
 20
142.155958
 30
0.0
  0
SPLINE
  5
1f8
100
AcDbEntity
  8
Layer_1
 62
7
100
AcDbSpline
 70
8
 71
3
 72
8
 73
4
 74
0
 40
0
 40
0
 40
0
 40
0
 40
1
 40
1
 40
1
 40
1
 10
72.895318
 20
142.155958
 30
0.0
 10
72.734293
 20
142.188939
 30
0.0
 10
72.661257
 20
142.129204
 30
0.0
 10
72.372397
 20
141.728349
 30
0.0
  0
SPLINE
  5
1f9
100
AcDbEntity
  8
Layer_1
 62
7
100
AcDbSpline
 70
8
 71
3
 72
8
 73
4
 74
0
 40
0
 40
0
 40
0
 40
0
 40
1
 40
1
 40
1
 40
1
 10
72.372397
 20
141.728349
 30
0.0
 10
71.880444
 20
141.045640
 30
0.0
 10
71.250417
 20
140.319203
 30
0.0
 10
70.326867
 20
139.369801
 30
0.0
  0
LINE
  5
1fa
100
AcDbEntity
  8
Layer_1
 62
7
100
AcDbLine
 10
70.326867
 20
139.369801
 30
0.0
 11
69.508744
 21
138.528779
 31
0.0
  0
LINE
  5
1fb
100
AcDbEntity
  8
Layer_1
 62
7
100
AcDbLine
 10
69.508744
 20
138.528779
 30
0.0
 11
70.465686
 21
135.304788
 31
0.0
  0
SPLINE
  5
1fc
100
AcDbEntity
  8
Layer_1
 62
7
100
AcDbSpline
 70
8
 71
3
 72
8
 73
4
 74
0
 40
0
 40
0
 40
0
 40
0
 40
1
 40
1
 40
1
 40
1
 10
70.465686
 20
135.304788
 30
0.0
 10
71.087216
 20
133.210818
 30
0.0
 10
71.399317
 20
132.047010
 30
0.0
 10
71.356120
 20
131.984404
 30
0.0
  0
SPLINE
  5
1fd
100
AcDbEntity
  8
Layer_1
 62
7
100
AcDbSpline
 70
8
 71
3
 72
8
 73
4
 74
0
 40
0
 40
0
 40
0
 40
0
 40
1
 40
1
 40
1
 40
1
 10
71.356120
 20
131.984404
 30
0.0
 10
71.286809
 20
131.883950
 30
0.0
 10
68.127340
 20
129.788978
 30
0.0
 10
68.047970
 20
129.790843
 30
0.0
  0
SPLINE
  5
1fe
100
AcDbEntity
  8
Layer_1
 62
7
100
AcDbSpline
 70
8
 71
3
 72
8
 73
4
 74
0
 40
0
 40
0
 40
0
 40
0
 40
1
 40
1
 40
1
 40
1
 10
68.047970
 20
129.790843
 30
0.0
 10
68.023050
 20
129.791408
 30
0.0
 10
66.832578
 20
130.768295
 30
0.0
 10
65.402439
 20
131.961657
 30
0.0
  0
LINE
  5
1ff
100
AcDbEntity
  8
Layer_1
 62
7
100
AcDbLine
 10
65.402439
 20
131.961657
 30
0.0
 11
62.802190
 21
134.131407
 31
0.0
  0
LINE
  5
200
100
AcDbEntity
  8
Layer_1
 62
7
100
AcDbLine
 10
62.802190
 20
134.131407
 30
0.0
 11
61.966110
 21
133.800089
 31
0.0
  0
SPLINE
  5
201
100
AcDbEntity
  8
Layer_1
 62
7
100
AcDbSpline
 70
8
 71
3
 72
8
 73
4
 74
0
 40
0
 40
0
 40
0
 40
0
 40
1
 40
1
 40
1
 40
1
 10
61.966110
 20
133.800089
 30
0.0
 10
60.981369
 20
133.409861
 30
0.0
 10
60.197773
 20
133.150146
 30
0.0
 10
59.234139
 20
132.894605
 30
0.0
  0
SPLINE
  5
202
100
AcDbEntity
  8
Layer_1
 62
7
100
AcDbSpline
 70
8
 71
3
 72
8
 73
4
 74
0
 40
0
 40
0
 40
0
 40
0
 40
1
 40
1
 40
1
 40
1
 10
59.234139
 20
132.894605
 30
0.0
 10
58.848785
 20
132.792415
 30
0.0
 10
58.520924
 20
132.696234
 30
0.0
 10
58.505560
 20
132.680867
 30
0.0
  0
SPLINE
  5
203
100
AcDbEntity
  8
Layer_1
 62
7
100
AcDbSpline
 70
8
 71
3
 72
8
 73
4
 74
0
 40
0
 40
0
 40
0
 40
0
 40
1
 40
1
 40
1
 40
1
 10
58.505560
 20
132.680867
 30
0.0
 10
58.490179
 20
132.665514
 30
0.0
 10
58.137813
 20
131.193527
 30
0.0
 10
57.722492
 20
129.409812
 30
0.0
  0
SPLINE
  5
204
100
AcDbEntity
  8
Layer_1
 62
7
100
AcDbSpline
 70
8
 71
3
 72
8
 73
4
 74
0
 40
0
 40
0
 40
0
 40
0
 40
1
 40
1
 40
1
 40
1
 10
57.722492
 20
129.409812
 30
0.0
 10
57.307171
 20
127.626094
 30
0.0
 10
56.940076
 20
126.137338
 30
0.0
 10
56.906726
 20
126.101462
 30
0.0
  0
SPLINE
  5
205
100
AcDbEntity
  8
Layer_1
 62
7
100
AcDbSpline
 70
8
 71
3
 72
8
 73
4
 74
0
 40
0
 40
0
 40
0
 40
0
 40
1
 40
1
 40
1
 40
1
 10
56.906726
 20
126.101462
 30
0.0
 10
56.873376
 20
126.065583
 30
0.0
 10
56.179586
 20
125.991954
 30
0.0
 10
55.364972
 20
125.937838
 30
0.0
  0
SPLINE
  5
206
100
AcDbEntity
  8
Layer_1
 62
7
100
AcDbSpline
 70
8
 71
3
 72
8
 73
4
 74
0
 40
0
 40
0
 40
0
 40
0
 40
1
 40
1
 40
1
 40
1
 10
55.364972
 20
125.937838
 30
0.0
 10
54.550360
 20
125.883725
 30
0.0
 10
53.659364
 20
125.820623
 30
0.0
 10
53.384988
 20
125.797616
 30
0.0
  0
LINE
  5
207
100
AcDbEntity
  8
Layer_1
 62
7
100
AcDbLine
 10
53.384988
 20
125.797616
 30
0.0
 11
52.886118
 21
125.755782
 31
0.0
  0
LINE
  5
208
100
AcDbEntity
  8
Layer_1
 62
7
100
AcDbLine
 10
52.886118
 20
125.755782
 30
0.0
 11
52.738651
 21
126.147995
 31
0.0
  0
LINE
  5
209
100
AcDbEntity
  8
Layer_1
 62
7
100
AcDbLine
 10
52.738651
 20
126.147995
 30
0.0
 11
52.738651
 21
126.147995
 31
0.0
  0
SPLINE
  5
20a
100
AcDbEntity
  8
Layer_1
 62
7
100
AcDbSpline
 70
8
 71
3
 72
8
 73
4
 74
0
 40
0
 40
0
 40
0
 40
0
 40
1
 40
1
 40
1
 40
1
 10
42.902541
 20
128.808606
 30
0.0
 10
41.987373
 20
129.047842
 30
0.0
 10
41.098875
 20
129.377766
 30
0.0
 10
38.078674
 20
130.599833
 30
0.0
  0
SPLINE
  5
20b
100
AcDbEntity
  8
Layer_1
 62
7
100
AcDbSpline
 70
8
 71
3
 72
8
 73
4
 74
0
 40
0
 40
0
 40
0
 40
0
 40
1
 40
1
 40
1
 40
1
 10
38.078674
 20
130.599833
 30
0.0
 10
36.945749
 20
131.058247
 30
0.0
 10
35.769179
 20
131.498347
 30
0.0
 10
35.464074
 20
131.577826
 30
0.0
  0
LINE
  5
20c
100
AcDbEntity
  8
Layer_1
 62
7
100
AcDbLine
 10
35.464074
 20
131.577826
 30
0.0
 11
34.909338
 21
131.722338
 31
0.0
  0
LINE
  5
20d
100
AcDbEntity
  8
Layer_1
 62
7
100
AcDbLine
 10
34.909338
 20
131.722338
 30
0.0
 11
34.778607
 21
131.569512
 31
0.0
  0
LINE
  5
20e
100
AcDbEntity
  8
Layer_1
 62
7
100
AcDbLine
 10
34.778607
 20
131.569512
 30
0.0
 11
34.647879
 21
131.416689
 31
0.0
  0
LINE
  5
20f
100
AcDbEntity
  8
Layer_1
 62
7
100
AcDbLine
 10
34.647879
 20
131.416689
 30
0.0
 11
34.647033
 21
131.593047
 31
0.0
  0
SPLINE
  5
210
100
AcDbEntity
  8
Layer_1
 62
7
100
AcDbSpline
 70
8
 71
3
 72
8
 73
4
 74
0
 40
0
 40
0
 40
0
 40
0
 40
1
 40
1
 40
1
 40
1
 10
34.647033
 20
131.593047
 30
0.0
 10
34.646186
 20
131.815472
 30
0.0
 10
34.338338
 20
132.483085
 30
0.0
 10
34.174082
 20
132.618958
 30
0.0
  0
SPLINE
  5
211
100
AcDbEntity
  8
Layer_1
 62
7
100
AcDbSpline
 70
8
 71
3
 72
8
 73
4
 74
0
 40
0
 40
0
 40
0
 40
0
 40
1
 40
1
 40
1
 40
1
 10
34.174082
 20
132.618958
 30
0.0
 10
34.105931
 20
132.675346
 30
0.0
 10
34.050158
 20
132.777118
 30
0.0
 10
34.050158
 20
132.845120
 30
0.0
  0
SPLINE
  5
212
100
AcDbEntity
  8
Layer_1
 62
7
100
AcDbSpline
 70
8
 71
3
 72
8
 73
4
 74
0
 40
0
 40
0
 40
0
 40
0
 40
1
 40
1
 40
1
 40
1
 10
34.050158
 20
132.845120
 30
0.0
 10
34.050158
 20
133.028626
 30
0.0
 10
34.264446
 20
133.300765
 30
0.0
 10
34.409232
 20
133.301132
 30
0.0
  0
SPLINE
  5
213
100
AcDbEntity
  8
Layer_1
 62
7
100
AcDbSpline
 70
8
 71
3
 72
8
 73
4
 74
0
 40
0
 40
0
 40
0
 40
0
 40
1
 40
1
 40
1
 40
1
 10
34.409232
 20
133.301132
 30
0.0
 10
34.478803
 20
133.301281
 30
0.0
 10
34.686998
 20
133.402012
 30
0.0
 10
34.871887
 20
133.524920
 30
0.0
  0
SPLINE
  5
214
100
AcDbEntity
  8
Layer_1
 62
7
100
AcDbSpline
 70
8
 71
3
 72
8
 73
4
 74
0
 40
0
 40
0
 40
0
 40
0
 40
1
 40
1
 40
1
 40
1
 10
34.871887
 20
133.524920
 30
0.0
 10
35.662716
 20
134.050635
 30
0.0
 10
36.799561
 20
133.766042
 30
0.0
 10
41.676968
 20
131.821364
 30
0.0
  0
SPLINE
  5
215
100
AcDbEntity
  8
Layer_1
 62
7
100
AcDbSpline
 70
8
 71
3
 72
8
 73
4
 74
0
 40
0
 40
0
 40
0
 40
0
 40
1
 40
1
 40
1
 40
1
 10
41.676968
 20
131.821364
 30
0.0
 10
44.552646
 20
130.674800
 30
0.0
 10
45.550846
 20
130.368298
 30
0.0
 10
45.556358
 20
130.630186
 30
0.0
  0
SPLINE
  5
216
100
AcDbEntity
  8
Layer_1
 62
7
100
AcDbSpline
 70
8
 71
3
 72
8
 73
4
 74
0
 40
0
 40
0
 40
0
 40
0
 40
1
 40
1
 40
1
 40
1
 10
45.556358
 20
130.630186
 30
0.0
 10
45.557487
 20
130.681545
 30
0.0
 10
45.684758
 20
130.488251
 30
0.0
 10
45.839289
 20
130.200644
 30
0.0
  0
SPLINE
  5
217
100
AcDbEntity
  8
Layer_1
 62
7
100
AcDbSpline
 70
8
 71
3
 72
8
 73
4
 74
0
 40
0
 40
0
 40
0
 40
0
 40
1
 40
1
 40
1
 40
1
 10
45.839289
 20
130.200644
 30
0.0
 10
45.993819
 20
129.913040
 30
0.0
 10
46.166522
 20
129.606219
 30
0.0
 10
46.223074
 20
129.518823
 30
0.0
  0
SPLINE
  5
218
100
AcDbEntity
  8
Layer_1
 62
7
100
AcDbSpline
 70
8
 71
3
 72
8
 73
4
 74
0
 40
0
 40
0
 40
0
 40
0
 40
1
 40
1
 40
1
 40
1
 10
46.223074
 20
129.518823
 30
0.0
 10
46.312860
 20
129.380063
 30
0.0
 10
46.307286
 20
129.327979
 30
0.0
 10
46.179107
 20
129.107956
 30
0.0
  0
SPLINE
  5
219
100
AcDbEntity
  8
Layer_1
 62
7
100
AcDbSpline
 70
8
 71
3
 72
8
 73
4
 74
0
 40
0
 40
0
 40
0
 40
0
 40
1
 40
1
 40
1
 40
1
 10
46.179107
 20
129.107956
 30
0.0
 10
45.976248
 20
128.759744
 30
0.0
 10
45.618526
 20
128.650228
 30
0.0
 10
44.583256
 20
128.619387
 30
0.0
  0
SPLINE
  5
21a
100
AcDbEntity
  8
Layer_1
 62
7
100
AcDbSpline
 70
8
 71
3
 72
8
 73
4
 74
0
 40
0
 40
0
 40
0
 40
0
 40
1
 40
1
 40
1
 40
1
 10
44.583256
 20
128.619387
 30
0.0
 10
43.827007
 20
128.596865
 30
0.0
 10
43.625808
 20
128.619536
 30
0.0
 10
42.902442
 20
128.808606
 30
0.0
  0
LINE
  5
21b
100
AcDbEntity
  8
Layer_1
 62
7
100
AcDbLine
 10
42.902442
 20
128.808606
 30
0.0
 11
42.902541
 21
128.808606
 31
0.0
  0
SPLINE
  5
21c
100
AcDbEntity
  8
Layer_1
 62
7
100
AcDbSpline
 70
8
 71
3
 72
8
 73
4
 74
0
 40
0
 40
0
 40
0
 40
0
 40
1
 40
1
 40
1
 40
1
 10
45.442436
 20
131.761689
 30
0.0
 10
44.236958
 20
131.992975
 30
0.0
 10
43.585688
 20
132.219371
 30
0.0
 10
40.596029
 20
133.446411
 30
0.0
  0
SPLINE
  5
21d
100
AcDbEntity
  8
Layer_1
 62
7
100
AcDbSpline
 70
8
 71
3
 72
8
 73
4
 74
0
 40
0
 40
0
 40
0
 40
0
 40
1
 40
1
 40
1
 40
1
 10
40.596029
 20
133.446411
 30
0.0
 10
38.608606
 20
134.262104
 30
0.0
 10
37.118433
 20
134.792002
 30
0.0
 10
36.807001
 20
134.793768
 30
0.0
  0
SPLINE
  5
21e
100
AcDbEntity
  8
Layer_1
 62
7
100
AcDbSpline
 70
8
 71
3
 72
8
 73
4
 74
0
 40
0
 40
0
 40
0
 40
0
 40
1
 40
1
 40
1
 40
1
 10
36.807001
 20
134.793768
 30
0.0
 10
36.679289
 20
134.794615
 30
0.0
 10
36.584863
 20
134.737426
 30
0.0
 10
36.530699
 20
134.626786
 30
0.0
  0
SPLINE
  5
21f
100
AcDbEntity
  8
Layer_1
 62
7
100
AcDbSpline
 70
8
 71
3
 72
8
 73
4
 74
0
 40
0
 40
0
 40
0
 40
0
 40
1
 40
1
 40
1
 40
1
 10
36.530699
 20
134.626786
 30
0.0
 10
36.455781
 20
134.473748
 30
0.0
 10
36.449134
 20
134.472077
 30
0.0
 10
36.456418
 20
134.608103
 30
0.0
  0
SPLINE
  5
220
100
AcDbEntity
  8
Layer_1
 62
7
100
AcDbSpline
 70
8
 71
3
 72
8
 73
4
 74
0
 40
0
 40
0
 40
0
 40
0
 40
1
 40
1
 40
1
 40
1
 10
36.456418
 20
134.608103
 30
0.0
 10
36.475017
 20
134.955516
 30
0.0
 10
36.425179
 20
135.099957
 30
0.0
 10
36.138622
 20
135.529081
 30
0.0
  0
SPLINE
  5
221
100
AcDbEntity
  8
Layer_1
 62
7
100
AcDbSpline
 70
8
 71
3
 72
8
 73
4
 74
0
 40
0
 40
0
 40
0
 40
0
 40
1
 40
1
 40
1
 40
1
 10
36.138622
 20
135.529081
 30
0.0
 10
35.868880
 20
135.933023
 30
0.0
 10
35.846861
 20
135.998880
 30
0.0
 10
35.933187
 20
136.143502
 30
0.0
  0
SPLINE
  5
222
100
AcDbEntity
  8
Layer_1
 62
7
100
AcDbSpline
 70
8
 71
3
 72
8
 73
4
 74
0
 40
0
 40
0
 40
0
 40
0
 40
1
 40
1
 40
1
 40
1
 10
35.933187
 20
136.143502
 30
0.0
 10
35.986369
 20
136.232594
 30
0.0
 10
36.164347
 20
136.368605
 30
0.0
 10
36.328693
 20
136.445751
 30
0.0
  0
SPLINE
  5
223
100
AcDbEntity
  8
Layer_1
 62
7
100
AcDbSpline
 70
8
 71
3
 72
8
 73
4
 74
0
 40
0
 40
0
 40
0
 40
0
 40
1
 40
1
 40
1
 40
1
 10
36.328693
 20
136.445751
 30
0.0
 10
36.493037
 20
136.522896
 30
0.0
 10
36.744635
 20
136.653633
 30
0.0
 10
36.887798
 20
136.736279
 30
0.0
  0
SPLINE
  5
224
100
AcDbEntity
  8
Layer_1
 62
7
100
AcDbSpline
 70
8
 71
3
 72
8
 73
4
 74
0
 40
0
 40
0
 40
0
 40
0
 40
1
 40
1
 40
1
 40
1
 10
36.887798
 20
136.736279
 30
0.0
 10
37.538735
 20
137.112046
 30
0.0
 10
38.860356
 20
136.777968
 30
0.0
 10
42.562838
 20
135.301746
 30
0.0
  0
SPLINE
  5
225
100
AcDbEntity
  8
Layer_1
 62
7
100
AcDbSpline
 70
8
 71
3
 72
8
 73
4
 74
0
 40
0
 40
0
 40
0
 40
0
 40
1
 40
1
 40
1
 40
1
 10
42.562838
 20
135.301746
 30
0.0
 10
45.002638
 20
134.328965
 30
0.0
 10
46.264247
 20
133.858111
 30
0.0
 10
46.821772
 20
133.712239
 30
0.0
  0
SPLINE
  5
226
100
AcDbEntity
  8
Layer_1
 62
7
100
AcDbSpline
 70
8
 71
3
 72
8
 73
4
 74
0
 40
0
 40
0
 40
0
 40
0
 40
1
 40
1
 40
1
 40
1
 10
46.821772
 20
133.712239
 30
0.0
 10
47.181314
 20
133.618166
 30
0.0
 10
47.244806
 20
133.618860
 30
0.0
 10
47.354401
 20
133.718053
 30
0.0
  0
SPLINE
  5
227
100
AcDbEntity
  8
Layer_1
 62
7
100
AcDbSpline
 70
8
 71
3
 72
8
 73
4
 74
0
 40
0
 40
0
 40
0
 40
0
 40
1
 40
1
 40
1
 40
1
 10
47.354401
 20
133.718053
 30
0.0
 10
47.467248
 20
133.820178
 30
0.0
 10
47.483600
 20
133.811215
 30
0.0
 10
47.530071
 20
133.621762
 30
0.0
  0
SPLINE
  5
228
100
AcDbEntity
  8
Layer_1
 62
7
100
AcDbSpline
 70
8
 71
3
 72
8
 73
4
 74
0
 40
0
 40
0
 40
0
 40
0
 40
1
 40
1
 40
1
 40
1
 10
47.530071
 20
133.621762
 30
0.0
 10
47.558265
 20
133.506872
 30
0.0
 10
47.708793
 20
133.208430
 30
0.0
 10
47.864606
 20
132.958562
 30
0.0
  0
LINE
  5
229
100
AcDbEntity
  8
Layer_1
 62
7
100
AcDbLine
 10
47.864606
 20
132.958562
 30
0.0
 11
48.147897
 21
132.504255
 31
0.0
  0
LINE
  5
22a
100
AcDbEntity
  8
Layer_1
 62
7
100
AcDbLine
 10
48.147897
 20
132.504255
 30
0.0
 11
48.008734
 21
132.232997
 31
0.0
  0
SPLINE
  5
22b
100
AcDbEntity
  8
Layer_1
 62
7
100
AcDbSpline
 70
8
 71
3
 72
8
 73
4
 74
0
 40
0
 40
0
 40
0
 40
0
 40
1
 40
1
 40
1
 40
1
 10
48.008734
 20
132.232997
 30
0.0
 10
47.894513
 20
132.010357
 30
0.0
 10
47.799344
 20
131.940251
 30
0.0
 10
47.477735
 20
131.841828
 30
0.0
  0
SPLINE
  5
22c
100
AcDbEntity
  8
Layer_1
 62
7
100
AcDbSpline
 70
8
 71
3
 72
8
 73
4
 74
0
 40
0
 40
0
 40
0
 40
0
 40
1
 40
1
 40
1
 40
1
 10
47.477735
 20
131.841828
 30
0.0
 10
46.936814
 20
131.676297
 30
0.0
 10
46.066201
 20
131.642015
 30
0.0
 10
45.442436
 20
131.761691
 30
0.0
  0
LINE
  5
22d
100
AcDbEntity
  8
Layer_1
 62
7
100
AcDbLine
 10
45.442436
 20
131.761691
 30
0.0
 11
45.442436
 21
131.761689
 31
0.0
  0
SPLINE
  5
22e
100
AcDbEntity
  8
Layer_1
 62
7
100
AcDbSpline
 70
8
 71
3
 72
8
 73
4
 74
0
 40
0
 40
0
 40
0
 40
0
 40
1
 40
1
 40
1
 40
1
 10
42.697108
 20
136.255959
 30
0.0
 10
42.008906
 20
136.603259
 30
0.0
 10
41.445836
 20
136.904079
 30
0.0
 10
41.445836
 20
136.924453
 30
0.0
  0
SPLINE
  5
22f
100
AcDbEntity
  8
Layer_1
 62
7
100
AcDbSpline
 70
8
 71
3
 72
8
 73
4
 74
0
 40
0
 40
0
 40
0
 40
0
 40
1
 40
1
 40
1
 40
1
 10
41.445836
 20
136.924453
 30
0.0
 10
41.445836
 20
136.944829
 30
0.0
 10
43.479716
 20
141.029147
 30
0.0
 10
45.965572
 20
146.000723
 30
0.0
  0
LINE
  5
230
100
AcDbEntity
  8
Layer_1
 62
7
100
AcDbLine
 10
45.965572
 20
146.000723
 30
0.0
 11
50.485307
 21
155.039948
 31
0.0
  0
LINE
  5
231
100
AcDbEntity
  8
Layer_1
 62
7
100
AcDbLine
 10
50.485307
 20
155.039948
 30
0.0
 11
51.773716
 21
154.396264
 31
0.0
  0
SPLINE
  5
232
100
AcDbEntity
  8
Layer_1
 62
7
100
AcDbSpline
 70
8
 71
3
 72
8
 73
4
 74
0
 40
0
 40
0
 40
0
 40
0
 40
1
 40
1
 40
1
 40
1
 10
51.773716
 20
154.396264
 30
0.0
 10
52.482340
 20
154.042236
 30
0.0
 10
53.077924
 20
153.737757
 30
0.0
 10
53.097237
 20
153.719644
 30
0.0
  0
SPLINE
  5
233
100
AcDbEntity
  8
Layer_1
 62
7
100
AcDbSpline
 70
8
 71
3
 72
8
 73
4
 74
0
 40
0
 40
0
 40
0
 40
0
 40
1
 40
1
 40
1
 40
1
 10
53.097237
 20
153.719644
 30
0.0
 10
53.154407
 20
153.666022
 30
0.0
 10
44.105216
 20
135.616234
 30
0.0
 10
44.023330
 20
135.620555
 30
0.0
  0
SPLINE
  5
234
100
AcDbEntity
  8
Layer_1
 62
7
100
AcDbSpline
 70
8
 71
3
 72
8
 73
4
 74
0
 40
0
 40
0
 40
0
 40
0
 40
1
 40
1
 40
1
 40
1
 10
44.023330
 20
135.620555
 30
0.0
 10
43.982108
 20
135.622813
 30
0.0
 10
43.385307
 20
135.908662
 30
0.0
 10
42.697108
 20
136.255959
 30
0.0
  0
LINE
  5
235
100
AcDbEntity
  8
Layer_1
 62
7
100
AcDbLine
 10
42.697108
 20
136.255959
 30
0.0
 11
42.697108
 21
136.255959
 31
0.0
  0
LINE
  5
236
100
AcDbEntity
  8
Layer_1
 62
7
100
AcDbLine
 10
51.952315
 20
140.224839
 30
0.0
 11
51.440127
 21
140.255364
 31
0.0
  0
LINE
  5
237
100
AcDbEntity
  8
Layer_1
 62
7
100
AcDbLine
 10
51.440127
 20
140.255364
 30
0.0
 11
51.482920
 21
140.569254
 31
0.0
  0
SPLINE
  5
238
100
AcDbEntity
  8
Layer_1
 62
7
100
AcDbSpline
 70
8
 71
3
 72
8
 73
4
 74
0
 40
0
 40
0
 40
0
 40
0
 40
1
 40
1
 40
1
 40
1
 10
51.482920
 20
140.569254
 30
0.0
 10
51.506458
 20
140.741895
 30
0.0
 10
51.583208
 20
141.365460
 30
0.0
 10
51.653481
 20
141.954951
 30
0.0
  0
LINE
  5
239
100
AcDbEntity
  8
Layer_1
 62
7
100
AcDbLine
 10
51.653481
 20
141.954951
 30
0.0
 11
51.781254
 21
143.026755
 31
0.0
  0
LINE
  5
23a
100
AcDbEntity
  8
Layer_1
 62
7
100
AcDbLine
 10
51.781254
 20
143.026755
 30
0.0
 11
52.234932
 21
142.978456
 31
0.0
  0
SPLINE
  5
23b
100
AcDbEntity
  8
Layer_1
 62
7
100
AcDbSpline
 70
8
 71
3
 72
8
 73
4
 74
0
 40
0
 40
0
 40
0
 40
0
 40
1
 40
1
 40
1
 40
1
 10
52.234932
 20
142.978456
 30
0.0
 10
52.826036
 20
142.915526
 30
0.0
 10
54.476858
 20
143.051348
 30
0.0
 10
55.397997
 20
143.238698
 30
0.0
  0
SPLINE
  5
23c
100
AcDbEntity
  8
Layer_1
 62
7
100
AcDbSpline
 70
8
 71
3
 72
8
 73
4
 74
0
 40
0
 40
0
 40
0
 40
0
 40
1
 40
1
 40
1
 40
1
 10
55.397997
 20
143.238698
 30
0.0
 10
58.206221
 20
143.809868
 30
0.0
 10
60.890578
 20
145.349783
 30
0.0
 10
62.751280
 20
147.456998
 30
0.0
  0
SPLINE
  5
23d
100
AcDbEntity
  8
Layer_1
 62
7
100
AcDbSpline
 70
8
 71
3
 72
8
 73
4
 74
0
 40
0
 40
0
 40
0
 40
0
 40
1
 40
1
 40
1
 40
1
 10
62.751280
 20
147.456998
 30
0.0
 10
64.348754
 20
149.266113
 30
0.0
 10
65.408428
 20
151.396882
 30
0.0
 10
65.927708
 20
153.844087
 30
0.0
  0
SPLINE
  5
23e
100
AcDbEntity
  8
Layer_1
 62
7
100
AcDbSpline
 70
8
 71
3
 72
8
 73
4
 74
0
 40
0
 40
0
 40
0
 40
0
 40
1
 40
1
 40
1
 40
1
 10
65.927708
 20
153.844087
 30
0.0
 10
66.105762
 20
154.683207
 30
0.0
 10
66.125989
 20
154.936911
 30
0.0
 10
66.127222
 20
156.346634
 30
0.0
  0
SPLINE
  5
23f
100
AcDbEntity
  8
Layer_1
 62
7
100
AcDbSpline
 70
8
 71
3
 72
8
 73
4
 74
0
 40
0
 40
0
 40
0
 40
0
 40
1
 40
1
 40
1
 40
1
 10
66.127222
 20
156.346634
 30
0.0
 10
66.129198
 20
158.456561
 30
0.0
 10
65.889309
 20
159.712503
 30
0.0
 10
65.136464
 20
161.536565
 30
0.0
  0
SPLINE
  5
240
100
AcDbEntity
  8
Layer_1
 62
7
100
AcDbSpline
 70
8
 71
3
 72
8
 73
4
 74
0
 40
0
 40
0
 40
0
 40
0
 40
1
 40
1
 40
1
 40
1
 10
65.136464
 20
161.536565
 30
0.0
 10
62.756233
 20
167.303623
 30
0.0
 10
56.640258
 20
170.673537
 30
0.0
 10
50.482411
 20
169.610982
 30
0.0
  0
SPLINE
  5
241
100
AcDbEntity
  8
Layer_1
 62
7
100
AcDbSpline
 70
8
 71
3
 72
8
 73
4
 74
0
 40
0
 40
0
 40
0
 40
0
 40
1
 40
1
 40
1
 40
1
 10
50.482411
 20
169.610982
 30
0.0
 10
45.296366
 20
168.716112
 30
0.0
 10
41.112507
 20
164.873391
 30
0.0
 10
39.775942
 20
159.777476
 30
0.0
  0
SPLINE
  5
242
100
AcDbEntity
  8
Layer_1
 62
7
100
AcDbSpline
 70
8
 71
3
 72
8
 73
4
 74
0
 40
0
 40
0
 40
0
 40
0
 40
1
 40
1
 40
1
 40
1
 10
39.775942
 20
159.777476
 30
0.0
 10
39.213052
 20
157.631349
 30
0.0
 10
39.208009
 20
155.131156
 30
0.0
 10
39.762367
 20
153.048353
 30
0.0
  0
SPLINE
  5
243
100
AcDbEntity
  8
Layer_1
 62
7
100
AcDbSpline
 70
8
 71
3
 72
8
 73
4
 74
0
 40
0
 40
0
 40
0
 40
0
 40
1
 40
1
 40
1
 40
1
 10
39.762367
 20
153.048353
 30
0.0
 10
40.279920
 20
151.103839
 30
0.0
 10
41.252274
 20
149.207168
 30
0.0
 10
42.450068
 20
147.805737
 30
0.0
  0
SPLINE
  5
244
100
AcDbEntity
  8
Layer_1
 62
7
100
AcDbSpline
 70
8
 71
3
 72
8
 73
4
 74
0
 40
0
 40
0
 40
0
 40
0
 40
1
 40
1
 40
1
 40
1
 10
42.450068
 20
147.805737
 30
0.0
 10
42.637297
 20
147.586676
 30
0.0
 10
42.790484
 20
147.381108
 30
0.0
 10
42.790484
 20
147.348918
 30
0.0
  0
SPLINE
  5
245
100
AcDbEntity
  8
Layer_1
 62
7
100
AcDbSpline
 70
8
 71
3
 72
8
 73
4
 74
0
 40
0
 40
0
 40
0
 40
0
 40
1
 40
1
 40
1
 40
1
 10
42.790484
 20
147.348918
 30
0.0
 10
42.790484
 20
147.316728
 30
0.0
 10
42.355563
 20
146.881174
 30
0.0
 10
41.823994
 20
146.381023
 30
0.0
  0
LINE
  5
246
100
AcDbEntity
  8
Layer_1
 62
7
100
AcDbLine
 10
41.823994
 20
146.381023
 30
0.0
 11
40.857505
 21
145.471655
 31
0.0
  0
LINE
  5
247
100
AcDbEntity
  8
Layer_1
 62
7
100
AcDbLine
 10
40.857505
 20
145.471655
 30
0.0
 11
40.358976
 21
146.053459
 31
0.0
  0
SPLINE
  5
248
100
AcDbEntity
  8
Layer_1
 62
7
100
AcDbSpline
 70
8
 71
3
 72
8
 73
4
 74
0
 40
0
 40
0
 40
0
 40
0
 40
1
 40
1
 40
1
 40
1
 10
40.358976
 20
146.053459
 30
0.0
 10
39.278116
 20
147.314873
 30
0.0
 10
38.159779
 20
149.248716
 30
0.0
 10
37.538495
 20
150.930679
 30
0.0
  0
SPLINE
  5
249
100
AcDbEntity
  8
Layer_1
 62
7
100
AcDbSpline
 70
8
 71
3
 72
8
 73
4
 74
0
 40
0
 40
0
 40
0
 40
0
 40
1
 40
1
 40
1
 40
1
 10
37.538495
 20
150.930679
 30
0.0
 10
37.186784
 20
151.882835
 30
0.0
 10
36.841141
 20
153.314122
 30
0.0
 10
36.703216
 20
154.389510
 30
0.0
  0
SPLINE
  5
24a
100
AcDbEntity
  8
Layer_1
 62
7
100
AcDbSpline
 70
8
 71
3
 72
8
 73
4
 74
0
 40
0
 40
0
 40
0
 40
0
 40
1
 40
1
 40
1
 40
1
 10
36.703216
 20
154.389510
 30
0.0
 10
36.573323
 20
155.402287
 30
0.0
 10
36.554496
 20
157.475350
 30
0.0
 10
36.666770
 20
158.402919
 30
0.0
  0
SPLINE
  5
24b
100
AcDbEntity
  8
Layer_1
 62
7
100
AcDbSpline
 70
8
 71
3
 72
8
 73
4
 74
0
 40
0
 40
0
 40
0
 40
0
 40
1
 40
1
 40
1
 40
1
 10
36.666770
 20
158.402919
 30
0.0
 10
37.248120
 20
163.205906
 30
0.0
 10
39.892370
 20
167.494087
 30
0.0
 10
43.911025
 20
170.150944
 30
0.0
  0
SPLINE
  5
24c
100
AcDbEntity
  8
Layer_1
 62
7
100
AcDbSpline
 70
8
 71
3
 72
8
 73
4
 74
0
 40
0
 40
0
 40
0
 40
0
 40
1
 40
1
 40
1
 40
1
 10
43.911025
 20
170.150944
 30
0.0
 10
45.330812
 20
171.089606
 30
0.0
 10
47.197638
 20
171.916362
 30
0.0
 10
48.833971
 20
172.331150
 30
0.0
  0
SPLINE
  5
24d
100
AcDbEntity
  8
Layer_1
 62
7
100
AcDbSpline
 70
8
 71
3
 72
8
 73
4
 74
0
 40
0
 40
0
 40
0
 40
0
 40
1
 40
1
 40
1
 40
1
 10
48.833971
 20
172.331150
 30
0.0
 10
50.307067
 20
172.704561
 30
0.0
 10
50.930388
 20
172.774089
 30
0.0
 10
52.838013
 20
172.777784
 30
0.0
  0
SPLINE
  5
24e
100
AcDbEntity
  8
Layer_1
 62
7
100
AcDbSpline
 70
8
 71
3
 72
8
 73
4
 74
0
 40
0
 40
0
 40
0
 40
0
 40
1
 40
1
 40
1
 40
1
 10
52.838013
 20
172.777784
 30
0.0
 10
54.801182
 20
172.781594
 30
0.0
 10
55.496970
 20
172.702176
 30
0.0
 10
57.034039
 20
172.298909
 30
0.0
  0
SPLINE
  5
24f
100
AcDbEntity
  8
Layer_1
 62
7
100
AcDbSpline
 70
8
 71
3
 72
8
 73
4
 74
0
 40
0
 40
0
 40
0
 40
0
 40
1
 40
1
 40
1
 40
1
 10
57.034039
 20
172.298909
 30
0.0
 10
59.214745
 20
171.726777
 30
0.0
 10
61.409074
 20
170.613548
 30
0.0
 10
63.184353
 20
169.178728
 30
0.0
  0
SPLINE
  5
250
100
AcDbEntity
  8
Layer_1
 62
7
100
AcDbSpline
 70
8
 71
3
 72
8
 73
4
 74
0
 40
0
 40
0
 40
0
 40
0
 40
1
 40
1
 40
1
 40
1
 10
63.184353
 20
169.178728
 30
0.0
 10
63.931404
 20
168.574944
 30
0.0
 10
65.280197
 20
167.180010
 30
0.0
 10
65.876812
 20
166.394162
 30
0.0
  0
SPLINE
  5
251
100
AcDbEntity
  8
Layer_1
 62
7
100
AcDbSpline
 70
8
 71
3
 72
8
 73
4
 74
0
 40
0
 40
0
 40
0
 40
0
 40
1
 40
1
 40
1
 40
1
 10
65.876812
 20
166.394162
 30
0.0
 10
68.048721
 20
163.533366
 30
0.0
 10
69.159311
 20
160.205658
 30
0.0
 10
69.160236
 20
156.555893
 30
0.0
  0
SPLINE
  5
252
100
AcDbEntity
  8
Layer_1
 62
7
100
AcDbSpline
 70
8
 71
3
 72
8
 73
4
 74
0
 40
0
 40
0
 40
0
 40
0
 40
1
 40
1
 40
1
 40
1
 10
69.160236
 20
156.555893
 30
0.0
 10
69.160801
 20
153.860930
 30
0.0
 10
68.679694
 20
151.712505
 30
0.0
 10
67.557228
 20
149.399271
 30
0.0
  0
SPLINE
  5
253
100
AcDbEntity
  8
Layer_1
 62
7
100
AcDbSpline
 70
8
 71
3
 72
8
 73
4
 74
0
 40
0
 40
0
 40
0
 40
0
 40
1
 40
1
 40
1
 40
1
 10
67.557228
 20
149.399271
 30
0.0
 10
66.559821
 20
147.343759
 30
0.0
 10
65.082444
 20
145.440303
 30
0.0
 10
63.404388
 20
144.048735
 30
0.0
  0
SPLINE
  5
254
100
AcDbEntity
  8
Layer_1
 62
7
100
AcDbSpline
 70
8
 71
3
 72
8
 73
4
 74
0
 40
0
 40
0
 40
0
 40
0
 40
1
 40
1
 40
1
 40
1
 10
63.404388
 20
144.048735
 30
0.0
 10
60.919184
 20
141.987824
 30
0.0
 10
57.939420
 20
140.686120
 30
0.0
 10
54.892340
 20
140.330263
 30
0.0
  0
SPLINE
  5
255
100
AcDbEntity
  8
Layer_1
 62
7
100
AcDbSpline
 70
8
 71
3
 72
8
 73
4
 74
0
 40
0
 40
0
 40
0
 40
0
 40
1
 40
1
 40
1
 40
1
 10
54.892340
 20
140.330263
 30
0.0
 10
54.097179
 20
140.237398
 30
0.0
 10
52.626476
 20
140.184662
 30
0.0
 10
51.952312
 20
140.224839
 30
0.0
  0
LINE
  5
256
100
AcDbEntity
  8
Layer_1
 62
7
100
AcDbLine
 10
51.952312
 20
140.224839
 30
0.0
 11
51.952315
 21
140.224839
 31
0.0
  0
LINE
  5
257
100
AcDbEntity
  8
Layer_1
 62
7
100
AcDbLine
 10
187.265746
 20
145.962941
 30
0.0
 11
187.265746
 21
147.046130
 31
0.0
  0
LINE
  5
258
100
AcDbEntity
  8
Layer_1
 62
7
100
AcDbLine
 10
187.265746
 20
147.046130
 30
0.0
 11
186.854879
 21
147.046130
 31
0.0
  0
SPLINE
  5
259
100
AcDbEntity
  8
Layer_1
 62
7
100
AcDbSpline
 70
8
 71
3
 72
8
 73
4
 74
0
 40
0
 40
0
 40
0
 40
0
 40
1
 40
1
 40
1
 40
1
 10
186.854879
 20
147.046130
 30
0.0
 10
186.466425
 20
147.046130
 30
0.0
 10
186.444014
 20
147.056318
 30
0.0
 10
186.444014
 20
147.232888
 30
0.0
  0
LINE
  5
25a
100
AcDbEntity
  8
Layer_1
 62
7
100
AcDbLine
 10
186.444014
 20
147.232888
 30
0.0
 11
186.444014
 21
147.419646
 31
0.0
  0
LINE
  5
25b
100
AcDbEntity
  8
Layer_1
 62
7
100
AcDbLine
 10
186.444014
 20
147.419646
 30
0.0
 11
187.452504
 21
147.419646
 31
0.0
  0
LINE
  5
25c
100
AcDbEntity
  8
Layer_1
 62
7
100
AcDbLine
 10
187.452504
 20
147.419646
 30
0.0
 11
188.460991
 21
147.419646
 31
0.0
  0
LINE
  5
25d
100
AcDbEntity
  8
Layer_1
 62
7
100
AcDbLine
 10
188.460991
 20
147.419646
 30
0.0
 11
188.460991
 21
147.232888
 31
0.0
  0
SPLINE
  5
25e
100
AcDbEntity
  8
Layer_1
 62
7
100
AcDbSpline
 70
8
 71
3
 72
8
 73
4
 74
0
 40
0
 40
0
 40
0
 40
0
 40
1
 40
1
 40
1
 40
1
 10
188.460991
 20
147.232888
 30
0.0
 10
188.460991
 20
147.056318
 30
0.0
 10
188.438583
 20
147.046130
 30
0.0
 10
188.050127
 20
147.046130
 30
0.0
  0
LINE
  5
25f
100
AcDbEntity
  8
Layer_1
 62
7
100
AcDbLine
 10
188.050127
 20
147.046130
 30
0.0
 11
187.639259
 21
147.046130
 31
0.0
  0
LINE
  5
260
100
AcDbEntity
  8
Layer_1
 62
7
100
AcDbLine
 10
187.639259
 20
147.046130
 30
0.0
 11
187.639259
 21
145.962941
 31
0.0
  0
LINE
  5
261
100
AcDbEntity
  8
Layer_1
 62
7
100
AcDbLine
 10
187.639259
 20
145.962941
 30
0.0
 11
187.639259
 21
144.879750
 31
0.0
  0
LINE
  5
262
100
AcDbEntity
  8
Layer_1
 62
7
100
AcDbLine
 10
187.639259
 20
144.879750
 30
0.0
 11
187.452504
 21
144.879750
 31
0.0
  0
LINE
  5
263
100
AcDbEntity
  8
Layer_1
 62
7
100
AcDbLine
 10
187.452504
 20
144.879750
 30
0.0
 11
187.265746
 21
144.879750
 31
0.0
  0
LINE
  5
264
100
AcDbEntity
  8
Layer_1
 62
7
100
AcDbLine
 10
187.265746
 20
144.879750
 30
0.0
 11
187.265746
 21
145.962941
 31
0.0
  0
LINE
  5
265
100
AcDbEntity
  8
Layer_1
 62
7
100
AcDbLine
 10
187.265746
 20
145.962941
 30
0.0
 11
187.265746
 21
145.962941
 31
0.0
  0
LINE
  5
266
100
AcDbEntity
  8
Layer_1
 62
7
100
AcDbLine
 10
188.983910
 20
146.153992
 30
0.0
 11
188.983910
 21
147.428236
 31
0.0
  0
LINE
  5
267
100
AcDbEntity
  8
Layer_1
 62
7
100
AcDbLine
 10
188.983910
 20
147.428236
 30
0.0
 11
189.291202
 21
147.405263
 31
0.0
  0
LINE
  5
268
100
AcDbEntity
  8
Layer_1
 62
7
100
AcDbLine
 10
189.291202
 20
147.405263
 30
0.0
 11
189.598482
 21
147.382291
 31
0.0
  0
LINE
  5
269
100
AcDbEntity
  8
Layer_1
 62
7
100
AcDbLine
 10
189.598482
 20
147.382291
 30
0.0
 11
189.957108
 21
146.485857
 31
0.0
  0
SPLINE
  5
26a
100
AcDbEntity
  8
Layer_1
 62
7
100
AcDbSpline
 70
8
 71
3
 72
8
 73
4
 74
0
 40
0
 40
0
 40
0
 40
0
 40
1
 40
1
 40
1
 40
1
 10
189.957108
 20
146.485857
 30
0.0
 10
190.171021
 20
145.951150
 30
0.0
 10
190.333776
 20
145.634641
 30
0.0
 10
190.360451
 20
145.701477
 30
0.0
  0
SPLINE
  5
26b
100
AcDbEntity
  8
Layer_1
 62
7
100
AcDbSpline
 70
8
 71
3
 72
8
 73
4
 74
0
 40
0
 40
0
 40
0
 40
0
 40
1
 40
1
 40
1
 40
1
 10
190.360451
 20
145.701477
 30
0.0
 10
190.385033
 20
145.763108
 30
0.0
 10
190.550579
 20
146.166503
 30
0.0
 10
190.728303
 20
146.597910
 30
0.0
  0
LINE
  5
26c
100
AcDbEntity
  8
Layer_1
 62
7
100
AcDbLine
 10
190.728303
 20
146.597910
 30
0.0
 11
191.051430
 21
147.382291
 31
0.0
  0
LINE
  5
26d
100
AcDbEntity
  8
Layer_1
 62
7
100
AcDbLine
 10
191.051430
 20
147.382291
 30
0.0
 11
191.362320
 21
147.405263
 31
0.0
  0
LINE
  5
26e
100
AcDbEntity
  8
Layer_1
 62
7
100
AcDbLine
 10
191.362320
 20
147.405263
 30
0.0
 11
191.673211
 21
147.428236
 31
0.0
  0
LINE
  5
26f
100
AcDbEntity
  8
Layer_1
 62
7
100
AcDbLine
 10
191.673211
 20
147.428236
 30
0.0
 11
191.673211
 21
146.153992
 31
0.0
  0
LINE
  5
270
100
AcDbEntity
  8
Layer_1
 62
7
100
AcDbLine
 10
191.673211
 20
146.153992
 30
0.0
 11
191.673211
 21
144.879750
 31
0.0
  0
LINE
  5
271
100
AcDbEntity
  8
Layer_1
 62
7
100
AcDbLine
 10
191.673211
 20
144.879750
 30
0.0
 11
191.488561
 21
144.879750
 31
0.0
  0
LINE
  5
272
100
AcDbEntity
  8
Layer_1
 62
7
100
AcDbLine
 10
191.488561
 20
144.879750
 30
0.0
 11
191.303912
 21
144.879750
 31
0.0
  0
LINE
  5
273
100
AcDbEntity
  8
Layer_1
 62
7
100
AcDbLine
 10
191.303912
 20
144.879750
 30
0.0
 11
191.283140
 21
145.905354
 31
0.0
  0
LINE
  5
274
100
AcDbEntity
  8
Layer_1
 62
7
100
AcDbLine
 10
191.283140
 20
145.905354
 30
0.0
 11
191.262369
 21
146.930961
 31
0.0
  0
LINE
  5
275
100
AcDbEntity
  8
Layer_1
 62
7
100
AcDbLine
 10
191.262369
 20
146.930961
 30
0.0
 11
190.856635
 21
145.901933
 31
0.0
  0
SPLINE
  5
276
100
AcDbEntity
  8
Layer_1
 62
7
100
AcDbSpline
 70
8
 71
3
 72
8
 73
4
 74
0
 40
0
 40
0
 40
0
 40
0
 40
1
 40
1
 40
1
 40
1
 10
190.856635
 20
145.901933
 30
0.0
 10
190.326844
 20
144.558248
 30
0.0
 10
190.299316
 20
144.558844
 30
0.0
 10
189.762614
 20
145.925584
 30
0.0
  0
LINE
  5
277
100
AcDbEntity
  8
Layer_1
 62
7
100
AcDbLine
 10
189.762614
 20
145.925584
 30
0.0
 11
189.366597
 21
146.934071
 31
0.0
  0
LINE
  5
278
100
AcDbEntity
  8
Layer_1
 62
7
100
AcDbLine
 10
189.366597
 20
146.934071
 30
0.0
 11
189.362053
 21
145.906906
 31
0.0
  0
LINE
  5
279
100
AcDbEntity
  8
Layer_1
 62
7
100
AcDbLine
 10
189.362053
 20
145.906906
 30
0.0
 11
189.357510
 21
144.879744
 31
0.0
  0
LINE
  5
27a
100
AcDbEntity
  8
Layer_1
 62
7
100
AcDbLine
 10
189.357510
 20
144.879744
 30
0.0
 11
189.170752
 21
144.879744
 31
0.0
  0
LINE
  5
27b
100
AcDbEntity
  8
Layer_1
 62
7
100
AcDbLine
 10
189.170752
 20
144.879744
 30
0.0
 11
188.983997
 21
144.879744
 31
0.0
  0
LINE
  5
27c
100
AcDbEntity
  8
Layer_1
 62
7
100
AcDbLine
 10
188.983997
 20
144.879744
 30
0.0
 11
188.983997
 21
146.153986
 31
0.0
  0
LINE
  5
27d
100
AcDbEntity
  8
Layer_1
 62
7
100
AcDbLine
 10
188.983997
 20
146.153986
 30
0.0
 11
188.983910
 21
146.153992
 31
0.0
  0
SPLINE
  5
27e
100
AcDbEntity
  8
Layer_1
 62
7
100
AcDbSpline
 70
8
 71
3
 72
8
 73
4
 74
0
 40
0
 40
0
 40
0
 40
0
 40
1
 40
1
 40
1
 40
1
 10
119.323529
 20
154.531140
 30
0.0
 10
118.049846
 20
157.865486
 30
0.0
 10
116.933203
 20
160.790541
 30
0.0
 10
116.842110
 20
161.031266
 30
0.0
  0
LINE
  5
27f
100
AcDbEntity
  8
Layer_1
 62
7
100
AcDbLine
 10
116.842110
 20
161.031266
 30
0.0
 11
116.676471
 21
161.468947
 31
0.0
  0
LINE
  5
280
100
AcDbEntity
  8
Layer_1
 62
7
100
AcDbLine
 10
116.676471
 20
161.468947
 30
0.0
 11
117.436930
 21
161.447696
 31
0.0
  0
LINE
  5
281
100
AcDbEntity
  8
Layer_1
 62
7
100
AcDbLine
 10
117.436930
 20
161.447696
 30
0.0
 11
118.197383
 21
161.426444
 31
0.0
  0
LINE
  5
282
100
AcDbEntity
  8
Layer_1
 62
7
100
AcDbLine
 10
118.197383
 20
161.426444
 30
0.0
 11
119.918349
 21
156.814332
 31
0.0
  0
SPLINE
  5
283
100
AcDbEntity
  8
Layer_1
 62
7
100
AcDbSpline
 70
8
 71
3
 72
8
 73
4
 74
0
 40
0
 40
0
 40
0
 40
0
 40
1
 40
1
 40
1
 40
1
 10
119.918349
 20
156.814332
 30
0.0
 10
120.864880
 20
154.277671
 30
0.0
 10
121.657298
 20
152.201867
 30
0.0
 10
121.679283
 20
152.201433
 30
0.0
  0
SPLINE
  5
284
100
AcDbEntity
  8
Layer_1
 62
7
100
AcDbSpline
 70
8
 71
3
 72
8
 73
4
 74
0
 40
0
 40
0
 40
0
 40
0
 40
1
 40
1
 40
1
 40
1
 10
121.679283
 20
152.201433
 30
0.0
 10
121.701268
 20
152.200868
 30
0.0
 10
122.495814
 20
154.276452
 30
0.0
 10
123.444958
 20
156.813545
 30
0.0
  0
LINE
  5
285
100
AcDbEntity
  8
Layer_1
 62
7
100
AcDbLine
 10
123.444958
 20
156.813545
 30
0.0
 11
125.170674
 21
161.426444
 31
0.0
  0
LINE
  5
286
100
AcDbEntity
  8
Layer_1
 62
7
100
AcDbLine
 10
125.170674
 20
161.426444
 30
0.0
 11
125.933337
 21
161.447809
 31
0.0
  0
SPLINE
  5
287
100
AcDbEntity
  8
Layer_1
 62
7
100
AcDbSpline
 70
8
 71
3
 72
8
 73
4
 74
0
 40
0
 40
0
 40
0
 40
0
 40
1
 40
1
 40
1
 40
1
 10
125.933337
 20
161.447809
 30
0.0
 10
126.378314
 20
161.460283
 30
0.0
 10
126.685253
 20
161.440414
 30
0.0
 10
126.670200
 20
161.400136
 30
0.0
  0
SPLINE
  5
288
100
AcDbEntity
  8
Layer_1
 62
7
100
AcDbSpline
 70
8
 71
3
 72
8
 73
4
 74
0
 40
0
 40
0
 40
0
 40
0
 40
1
 40
1
 40
1
 40
1
 10
126.670200
 20
161.400136
 30
0.0
 10
125.876438
 20
159.275877
 30
0.0
 10
121.702708
 20
148.465993
 30
0.0
 10
121.676726
 20
148.467108
 30
0.0
  0
SPLINE
  5
289
100
AcDbEntity
  8
Layer_1
 62
7
100
AcDbSpline
 70
8
 71
3
 72
8
 73
4
 74
0
 40
0
 40
0
 40
0
 40
0
 40
1
 40
1
 40
1
 40
1
 10
121.676726
 20
148.467108
 30
0.0
 10
121.656152
 20
148.467954
 30
0.0
 10
120.597212
 20
151.196812
 30
0.0
 10
119.323529
 20
154.531157
 30
0.0
  0
LINE
  5
28a
100
AcDbEntity
  8
Layer_1
 62
7
100
AcDbLine
 10
119.323529
 20
154.531157
 30
0.0
 11
119.323529
 21
154.531140
 31
0.0
  0
LINE
  5
28b
100
AcDbEntity
  8
Layer_1
 62
7
100
AcDbLine
 10
96.426329
 20
153.576405
 30
0.0
 11
91.683483
 21
158.537920
 31
0.0
  0
LINE
  5
28c
100
AcDbEntity
  8
Layer_1
 62
7
100
AcDbLine
 10
91.683483
 20
158.537920
 30
0.0
 11
91.664236
 21
153.837864
 31
0.0
  0
LINE
  5
28d
100
AcDbEntity
  8
Layer_1
 62
7
100
AcDbLine
 10
91.664236
 20
153.837864
 30
0.0
 11
91.645016
 21
149.137812
 31
0.0
  0
LINE
  5
28e
100
AcDbEntity
  8
Layer_1
 62
7
100
AcDbLine
 10
91.645016
 20
149.137812
 30
0.0
 11
90.935896
 21
149.137812
 31
0.0
  0
LINE
  5
28f
100
AcDbEntity
  8
Layer_1
 62
7
100
AcDbLine
 10
90.935896
 20
149.137812
 30
0.0
 11
90.226776
 21
149.137812
 31
0.0
  0
LINE
  5
290
100
AcDbEntity
  8
Layer_1
 62
7
100
AcDbLine
 10
90.226776
 20
149.137812
 30
0.0
 11
90.228752
 21
155.580928
 31
0.0
  0
LINE
  5
291
100
AcDbEntity
  8
Layer_1
 62
7
100
AcDbLine
 10
90.228752
 20
155.580928
 30
0.0
 11
90.230727
 21
162.024047
 31
0.0
  0
LINE
  5
292
100
AcDbEntity
  8
Layer_1
 62
7
100
AcDbLine
 10
90.230727
 20
162.024047
 30
0.0
 11
90.506507
 21
161.725236
 31
0.0
  0
SPLINE
  5
293
100
AcDbEntity
  8
Layer_1
 62
7
100
AcDbSpline
 70
8
 71
3
 72
8
 73
4
 74
0
 40
0
 40
0
 40
0
 40
0
 40
1
 40
1
 40
1
 40
1
 10
90.506507
 20
161.725236
 30
0.0
 10
90.658184
 20
161.560890
 30
0.0
 10
92.817119
 20
159.295043
 30
0.0
 10
95.304140
 20
156.690019
 30
0.0
  0
LINE
  5
294
100
AcDbEntity
  8
Layer_1
 62
7
100
AcDbLine
 10
95.304140
 20
156.690019
 30
0.0
 11
99.825998
 21
151.953613
 31
0.0
  0
LINE
  5
295
100
AcDbEntity
  8
Layer_1
 62
7
100
AcDbLine
 10
99.825998
 20
151.953613
 30
0.0
 11
99.845217
 21
156.708694
 31
0.0
  0
LINE
  5
296
100
AcDbEntity
  8
Layer_1
 62
7
100
AcDbLine
 10
99.845217
 20
156.708694
 30
0.0
 11
99.864437
 21
161.463777
 31
0.0
  0
LINE
  5
297
100
AcDbEntity
  8
Layer_1
 62
7
100
AcDbLine
 10
99.864437
 20
161.463777
 30
0.0
 11
100.536207
 21
161.463777
 31
0.0
  0
LINE
  5
298
100
AcDbEntity
  8
Layer_1
 62
7
100
AcDbLine
 10
100.536207
 20
161.463777
 30
0.0
 11
101.207981
 21
161.463777
 31
0.0
  0
LINE
  5
299
100
AcDbEntity
  8
Layer_1
 62
7
100
AcDbLine
 10
101.207981
 20
161.463777
 30
0.0
 11
101.207981
 21
155.039332
 31
0.0
  0
SPLINE
  5
29a
100
AcDbEntity
  8
Layer_1
 62
7
100
AcDbSpline
 70
8
 71
3
 72
8
 73
4
 74
0
 40
0
 40
0
 40
0
 40
0
 40
1
 40
1
 40
1
 40
1
 10
101.207981
 20
155.039332
 30
0.0
 10
101.207981
 20
151.505890
 30
0.0
 10
101.199232
 20
148.614891
 30
0.0
 10
101.188536
 20
148.614891
 30
0.0
  0
SPLINE
  5
29b
100
AcDbEntity
  8
Layer_1
 62
7
100
AcDbSpline
 70
8
 71
3
 72
8
 73
4
 74
0
 40
0
 40
0
 40
0
 40
0
 40
1
 40
1
 40
1
 40
1
 10
101.188536
 20
148.614891
 30
0.0
 10
101.177840
 20
148.614891
 30
0.0
 10
99.034799
 20
150.847573
 30
0.0
 10
96.426231
 20
153.576405
 30
0.0
  0
LINE
  5
29c
100
AcDbEntity
  8
Layer_1
 62
7
100
AcDbLine
 10
96.426231
 20
153.576405
 30
0.0
 11
96.426329
 21
153.576405
 31
0.0
  0
SPLINE
  5
29d
100
AcDbEntity
  8
Layer_1
 62
7
100
AcDbSpline
 70
8
 71
3
 72
8
 73
4
 74
0
 40
0
 40
0
 40
0
 40
0
 40
1
 40
1
 40
1
 40
1
 10
108.682902
 20
148.990209
 30
0.0
 10
107.254152
 20
149.189035
 30
0.0
 10
105.931196
 20
149.865039
 30
0.0
 10
104.938657
 20
150.903447
 30
0.0
  0
SPLINE
  5
29e
100
AcDbEntity
  8
Layer_1
 62
7
100
AcDbSpline
 70
8
 71
3
 72
8
 73
4
 74
0
 40
0
 40
0
 40
0
 40
0
 40
1
 40
1
 40
1
 40
1
 10
104.938657
 20
150.903447
 30
0.0
 10
104.115065
 20
151.765092
 30
0.0
 10
103.618020
 20
152.638112
 30
0.0
 10
103.328243
 20
153.732034
 30
0.0
  0
SPLINE
  5
29f
100
AcDbEntity
  8
Layer_1
 62
7
100
AcDbSpline
 70
8
 71
3
 72
8
 73
4
 74
0
 40
0
 40
0
 40
0
 40
0
 40
1
 40
1
 40
1
 40
1
 10
103.328243
 20
153.732034
 30
0.0
 10
103.118253
 20
154.524759
 30
0.0
 10
103.134994
 20
156.145031
 30
0.0
 10
103.361373
 20
156.937926
 30
0.0
  0
SPLINE
  5
2a0
100
AcDbEntity
  8
Layer_1
 62
7
100
AcDbSpline
 70
8
 71
3
 72
8
 73
4
 74
0
 40
0
 40
0
 40
0
 40
0
 40
1
 40
1
 40
1
 40
1
 10
103.361373
 20
156.937926
 30
0.0
 10
104.085840
 20
159.475332
 30
0.0
 10
106.218151
 20
161.302143
 30
0.0
 10
108.823039
 20
161.617080
 30
0.0
  0
SPLINE
  5
2a1
100
AcDbEntity
  8
Layer_1
 62
7
100
AcDbSpline
 70
8
 71
3
 72
8
 73
4
 74
0
 40
0
 40
0
 40
0
 40
0
 40
1
 40
1
 40
1
 40
1
 10
108.823039
 20
161.617080
 30
0.0
 10
110.787343
 20
161.854567
 30
0.0
 10
112.759091
 20
161.151134
 30
0.0
 10
114.160225
 20
159.713014
 30
0.0
  0
SPLINE
  5
2a2
100
AcDbEntity
  8
Layer_1
 62
7
100
AcDbSpline
 70
8
 71
3
 72
8
 73
4
 74
0
 40
0
 40
0
 40
0
 40
0
 40
1
 40
1
 40
1
 40
1
 10
114.160225
 20
159.713014
 30
0.0
 10
117.165006
 20
156.628912
 30
0.0
 10
116.304048
 20
151.547772
 30
0.0
 10
112.450868
 20
149.624857
 30
0.0
  0
SPLINE
  5
2a3
100
AcDbEntity
  8
Layer_1
 62
7
100
AcDbSpline
 70
8
 71
3
 72
8
 73
4
 74
0
 40
0
 40
0
 40
0
 40
0
 40
1
 40
1
 40
1
 40
1
 10
112.450868
 20
149.624857
 30
0.0
 10
112.081089
 20
149.440317
 30
0.0
 10
111.518891
 20
149.223223
 30
0.0
 10
111.201546
 20
149.142423
 30
0.0
  0
SPLINE
  5
2a4
100
AcDbEntity
  8
Layer_1
 62
7
100
AcDbSpline
 70
8
 71
3
 72
8
 73
4
 74
0
 40
0
 40
0
 40
0
 40
0
 40
1
 40
1
 40
1
 40
1
 10
111.201546
 20
149.142423
 30
0.0
 10
110.514549
 20
148.967507
 30
0.0
 10
109.351232
 20
148.897203
 30
0.0
 10
108.682902
 20
148.990209
 30
0.0
  0
LINE
  5
2a5
100
AcDbEntity
  8
Layer_1
 62
7
100
AcDbLine
 10
108.682902
 20
148.990209
 30
0.0
 11
108.682902
 21
148.990209
 31
0.0
  0
SPLINE
  5
2a6
100
AcDbEntity
  8
Layer_1
 62
7
100
AcDbSpline
 70
8
 71
3
 72
8
 73
4
 74
0
 40
0
 40
0
 40
0
 40
0
 40
1
 40
1
 40
1
 40
1
 10
110.658000
 20
150.340967
 30
0.0
 10
112.396986
 20
150.771475
 30
0.0
 10
113.776350
 20
152.060739
 30
0.0
 10
114.365957
 20
153.806738
 30
0.0
  0
SPLINE
  5
2a7
100
AcDbEntity
  8
Layer_1
 62
7
100
AcDbSpline
 70
8
 71
3
 72
8
 73
4
 74
0
 40
0
 40
0
 40
0
 40
0
 40
1
 40
1
 40
1
 40
1
 10
114.365957
 20
153.806738
 30
0.0
 10
114.515738
 20
154.250259
 30
0.0
 10
114.542546
 20
154.477106
 30
0.0
 10
114.542546
 20
155.300794
 30
0.0
  0
SPLINE
  5
2a8
100
AcDbEntity
  8
Layer_1
 62
7
100
AcDbSpline
 70
8
 71
3
 72
8
 73
4
 74
0
 40
0
 40
0
 40
0
 40
0
 40
1
 40
1
 40
1
 40
1
 10
114.542546
 20
155.300794
 30
0.0
 10
114.542546
 20
156.119275
 30
0.0
 10
114.515143
 20
156.354129
 30
0.0
 10
114.368116
 20
156.794850
 30
0.0
  0
SPLINE
  5
2a9
100
AcDbEntity
  8
Layer_1
 62
7
100
AcDbSpline
 70
8
 71
3
 72
8
 73
4
 74
0
 40
0
 40
0
 40
0
 40
0
 40
1
 40
1
 40
1
 40
1
 10
114.368116
 20
156.794850
 30
0.0
 10
113.304968
 20
159.981983
 30
0.0
 10
109.818736
 20
161.335148
 30
0.0
 10
106.982025
 20
159.661734
 30
0.0
  0
SPLINE
  5
2aa
100
AcDbEntity
  8
Layer_1
 62
7
100
AcDbSpline
 70
8
 71
3
 72
8
 73
4
 74
0
 40
0
 40
0
 40
0
 40
0
 40
1
 40
1
 40
1
 40
1
 10
106.982025
 20
159.661734
 30
0.0
 10
106.435865
 20
159.339547
 30
0.0
 10
105.575288
 20
158.480335
 30
0.0
 10
105.255431
 20
157.937879
 30
0.0
  0
SPLINE
  5
2ab
100
AcDbEntity
  8
Layer_1
 62
7
100
AcDbSpline
 70
8
 71
3
 72
8
 73
4
 74
0
 40
0
 40
0
 40
0
 40
0
 40
1
 40
1
 40
1
 40
1
 10
105.255431
 20
157.937879
 30
0.0
 10
104.049118
 20
155.892055
 30
0.0
 10
104.380901
 20
153.328665
 30
0.0
 10
106.065435
 20
151.679728
 30
0.0
  0
SPLINE
  5
2ac
100
AcDbEntity
  8
Layer_1
 62
7
100
AcDbSpline
 70
8
 71
3
 72
8
 73
4
 74
0
 40
0
 40
0
 40
0
 40
0
 40
1
 40
1
 40
1
 40
1
 10
106.065435
 20
151.679728
 30
0.0
 10
106.850681
 20
150.911070
 30
0.0
 10
107.810852
 20
150.427762
 30
0.0
 10
108.884279
 20
150.260844
 30
0.0
  0
SPLINE
  5
2ad
100
AcDbEntity
  8
Layer_1
 62
7
100
AcDbSpline
 70
8
 71
3
 72
8
 73
4
 74
0
 40
0
 40
0
 40
0
 40
0
 40
1
 40
1
 40
1
 40
1
 10
108.884279
 20
150.260844
 30
0.0
 10
109.355274
 20
150.187602
 30
0.0
 10
110.190996
 20
150.225355
 30
0.0
 10
110.658000
 20
150.340967
 30
0.0
  0
LINE
  5
2ae
100
AcDbEntity
  8
Layer_1
 62
7
100
AcDbLine
 10
110.658000
 20
150.340967
 30
0.0
 11
110.658000
 21
150.340967
 31
0.0
  0
SPLINE
  5
2af
100
AcDbEntity
  8
Layer_1
 62
7
100
AcDbSpline
 70
8
 71
3
 72
8
 73
4
 74
0
 40
0
 40
0
 40
0
 40
0
 40
1
 40
1
 40
1
 40
1
 10
125.294093
 20
149.265828
 30
0.0
 10
125.609301
 20
150.111227
 30
0.0
 10
130.904467
 20
161.976964
 30
0.0
 10
130.947153
 20
161.933555
 30
0.0
  0
SPLINE
  5
2b0
100
AcDbEntity
  8
Layer_1
 62
7
100
AcDbSpline
 70
8
 71
3
 72
8
 73
4
 74
0
 40
0
 40
0
 40
0
 40
0
 40
1
 40
1
 40
1
 40
1
 10
130.947153
 20
161.933555
 30
0.0
 10
130.989360
 20
161.890638
 30
0.0
 10
135.372660
 20
151.721562
 30
0.0
 10
136.358014
 20
149.380593
 30
0.0
  0
LINE
  5
2b1
100
AcDbEntity
  8
Layer_1
 62
7
100
AcDbLine
 10
136.358014
 20
149.380593
 30
0.0
 11
136.460198
 21
149.137812
 31
0.0
  0
LINE
  5
2b2
100
AcDbEntity
  8
Layer_1
 62
7
100
AcDbLine
 10
136.460198
 20
149.137812
 30
0.0
 11
135.692409
 21
149.137812
 31
0.0
  0
LINE
  5
2b3
100
AcDbEntity
  8
Layer_1
 62
7
100
AcDbLine
 10
135.692409
 20
149.137812
 30
0.0
 11
134.924624
 21
149.137812
 31
0.0
  0
LINE
  5
2b4
100
AcDbEntity
  8
Layer_1
 62
7
100
AcDbLine
 10
134.924624
 20
149.137812
 30
0.0
 11
132.916065
 21
153.952441
 31
0.0
  0
SPLINE
  5
2b5
100
AcDbEntity
  8
Layer_1
 62
7
100
AcDbSpline
 70
8
 71
3
 72
8
 73
4
 74
0
 40
0
 40
0
 40
0
 40
0
 40
1
 40
1
 40
1
 40
1
 10
132.916065
 20
153.952441
 30
0.0
 10
131.811368
 20
156.600490
 30
0.0
 10
130.890260
 20
158.749818
 30
0.0
 10
130.869170
 20
158.728727
 30
0.0
  0
SPLINE
  5
2b6
100
AcDbEntity
  8
Layer_1
 62
7
100
AcDbSpline
 70
8
 71
3
 72
8
 73
4
 74
0
 40
0
 40
0
 40
0
 40
0
 40
1
 40
1
 40
1
 40
1
 10
130.869170
 20
158.728727
 30
0.0
 10
130.848088
 20
158.707645
 30
0.0
 10
129.916478
 20
156.549458
 30
0.0
 10
128.798940
 20
153.932773
 30
0.0
  0
LINE
  5
2b7
100
AcDbEntity
  8
Layer_1
 62
7
100
AcDbLine
 10
128.798940
 20
153.932773
 30
0.0
 11
126.767044
 21
149.175161
 31
0.0
  0
LINE
  5
2b8
100
AcDbEntity
  8
Layer_1
 62
7
100
AcDbLine
 10
126.767044
 20
149.175161
 30
0.0
 11
126.005688
 21
149.153768
 31
0.0
  0
SPLINE
  5
2b9
100
AcDbEntity
  8
Layer_1
 62
7
100
AcDbSpline
 70
8
 71
3
 72
8
 73
4
 74
0
 40
0
 40
0
 40
0
 40
0
 40
1
 40
1
 40
1
 40
1
 10
126.005688
 20
149.153768
 30
0.0
 10
125.301196
 20
149.133985
 30
0.0
 10
125.248051
 20
149.142338
 30
0.0
 10
125.294093
 20
149.265822
 30
0.0
  0
LINE
  5
2ba
100
AcDbEntity
  8
Layer_1
 62
7
100
AcDbLine
 10
125.294093
 20
149.265822
 30
0.0
 11
125.294093
 21
149.265828
 31
0.0
  0
ENDSEC
  0
SECTION
  2
OBJECTS
  0
DICTIONARY
  5
C
330
0
100
AcDbDictionary
  3
ACAD_GROUP
350
D
  3
ACAD_MLINESTYLE
350
17
  0
DICTIONARY
  5
D
330
C
100
AcDbDictionary
  0
DICTIONARY
  5
1A
330
C
100
AcDbDictionary
  0
DICTIONARY
  5
17
330
C
100
AcDbDictionary
  3
STANDARD
350
18
  0
DICTIONARY
  5
19
330
C
100
AcDbDictionary
  0
ENDSEC
  0
EOF
