999
DXF created by Inkscape
  0
SECTION
  2
HEADER
  9
$ACADVER
  1
AC1014
  9
$HANDSEED
  5
FFFF
  9
$MEASUREMENT
 70
     1
  0
ENDSEC
  0
SECTION
  2
TABLES
  0
TABLE
  2
VPORT
  5
8
330
0
100
AcDbSymbolTable
 70
     4
  0
VPORT
  5
2E
330
8
100
AcDbSymbolTableRecord
100
AcDbViewportTableRecord
  2
*ACTIVE
 70
     0
 10
0.0
 20
0.0
 11
1.0
 21
1.0
 12
210.0
 22
148.5
 13
0.0
 23
0.0
 14
10.0
 24
10.0
 15
10.0
 25
10.0
 16
0.0
 26
0.0
 36
1.0
 17
0.0
 27
0.0
 37
0.0
 40
341.0
 41
1.24
 42
50.0
 43
0.0
 44
0.0
 50
0.0
 51
0.0
 71
     0
 72
   100
 73
     1
 74
     3
 75
     0
 76
     0
 77
     0
 78
     0
  0
ENDTAB
  0
TABLE
  2
LTYPE
  5
5
330
0
100
AcDbSymbolTable
 70
     1
  0
LTYPE
  5
14
330
5
100
AcDbSymbolTableRecord
100
AcDbLinetypeTableRecord
  2
BYBLOCK
 70
     0
  3

 72
    65
 73
     0
 40
0.0
  0
LTYPE
  5
15
330
5
100
AcDbSymbolTableRecord
100
AcDbLinetypeTableRecord
  2
BYLAYER
 70
     0
  3

 72
    65
 73
     0
 40
0.0
  0
LTYPE
  5
16
330
5
100
AcDbSymbolTableRecord
100
AcDbLinetypeTableRecord
  2
CONTINUOUS
 70
     0
  3
Solid line
 72
    65
 73
     0
 40
0.0
  0
ENDTAB
  0
TABLE
  2
LAYER
  5
2
100
AcDbSymbolTable
 70
4
  0
LAYER
  5
50
100
AcDbSymbolTableRecord
100
AcDbLayerTableRecord
  2
0
 70
0
  6
CONTINUOUS
  0
LAYER
  5
51
100
AcDbSymbolTableRecord
100
AcDbLayerTableRecord
  2
outline
 70
0
  6
CONTINUOUS
  0
LAYER
  5
52
100
AcDbSymbolTableRecord
100
AcDbLayerTableRecord
  2
rim
 70
0
  6
CONTINUOUS
  0
LAYER
  5
53
100
AcDbSymbolTableRecord
100
AcDbLayerTableRecord
  2
details
 70
0
  6
CONTINUOUS
  0
ENDTAB
  0
TABLE
  2
STYLE
  5
3
330
0
100
AcDbSymbolTable
 70
     1
  0
STYLE
  5
11
330
3
100
AcDbSymbolTableRecord
100
AcDbTextStyleTableRecord
  2
STANDARD
 70
     0
 40
0.0
 41
1.0
 50
0.0
 71
     0
 42
2.5
  3
txt
  4

  0
ENDTAB
  0
TABLE
  2
VIEW
  5
6
330
0
100
AcDbSymbolTable
 70
     0
  0
ENDTAB
  0
TABLE
  2
UCS
  5
7
330
0
100
AcDbSymbolTable
 70
     0
  0
ENDTAB
  0
TABLE
  2
APPID
  5
9
330
0
100
AcDbSymbolTable
 70
     2
  0
APPID
  5
12
330
9
100
AcDbSymbolTableRecord
100
AcDbRegAppTableRecord
  2
ACAD
 70
     0
  0
ENDTAB
  0
TABLE
  2
DIMSTYLE
  5
A
330
0
100
AcDbSymbolTable
 70
     1
  0
DIMSTYLE
105
27
330
A
100
AcDbSymbolTableRecord
100
AcDbDimStyleTableRecord
  2
ISO-25
 70
     0
  3

  4

  5

  6

  7

 40
1.0
 41
2.5
 42
0.625
 43
3.75
 44
1.25
 45
0.0
 46
0.0
 47
0.0
 48
0.0
140
2.5
141
2.5
142
0.0
143
0.03937007874016
144
1.0
145
0.0
146
1.0
147
0.625
 71
     0
 72
     0
 73
     0
 74
     0
 75
     0
 76
     0
 77
     1
 78
     8
170
     0
171
     3
172
     1
173
     0
174
     0
175
     0
176
     0
177
     0
178
     0
270
     2
271
     2
272
     2
273
     2
274
     3
340
11
275
     0
280
     0
281
     0
282
     0
283
     0
284
     8
285
     0
286
     0
287
     3
288
     0
  0
ENDTAB
  0
TABLE
  2
BLOCK_RECORD
  5
1
330
0
100
AcDbSymbolTable
 70
     1
  0
BLOCK_RECORD
  5
1F
330
1
100
AcDbSymbolTableRecord
100
AcDbBlockTableRecord
  2
*MODEL_SPACE
  0
BLOCK_RECORD
  5
1B
330
1
100
AcDbSymbolTableRecord
100
AcDbBlockTableRecord
  2
*PAPER_SPACE
  0
ENDTAB
  0
ENDSEC
  0
SECTION
  2
BLOCKS
  0
BLOCK
  5
20
330
1F
100
AcDbEntity
  8
0
100
AcDbBlockBegin
  2
*MODEL_SPACE
 70
     0
 10
0.0
 20
0.0
 30
0.0
  3
*MODEL_SPACE
  1

  0
ENDBLK
  5
21
330
1F
100
AcDbEntity
  8
0
100
AcDbBlockEnd
  0
BLOCK
  5
1C
330
1B
100
AcDbEntity
 67
     1
  8
0
100
AcDbBlockBegin
  2
*PAPER_SPACE
  1

  0
ENDBLK
  5
1D
330
1B
100
AcDbEntity
 67
     1
  8
0
100
AcDbBlockEnd
  0
ENDSEC
  0
SECTION
  2
ENTITIES
  0
LINE
  5
100
100
AcDbEntity
  8
outline
 62
1
100
AcDbLine
 10
-1.952693
 20
45.104748
 30
0.0
 11
-3.611843
 21
44.948809
 31
0.0
  0
LINE
  5
101
100
AcDbEntity
  8
outline
 62
1
100
AcDbLine
 10
-3.611843
 20
44.948809
 30
0.0
 11
-5.287504
 21
44.687432
 31
0.0
  0
LINE
  5
102
100
AcDbEntity
  8
outline
 62
1
100
AcDbLine
 10
-5.287504
 20
44.687432
 30
0.0
 11
-6.950160
 21
44.304736
 31
0.0
  0
LINE
  5
103
100
AcDbEntity
  8
outline
 62
1
100
AcDbLine
 10
-6.950160
 20
44.304736
 30
0.0
 11
-8.570296
 21
43.784852
 31
0.0
  0
LINE
  5
104
100
AcDbEntity
  8
outline
 62
1
100
AcDbLine
 10
-8.570296
 20
43.784852
 30
0.0
 11
-10.118395
 21
43.111904
 31
0.0
  0
LINE
  5
105
100
AcDbEntity
  8
outline
 62
1
100
AcDbLine
 10
-10.118395
 20
43.111904
 30
0.0
 11
-11.564945
 21
42.270015
 31
0.0
  0
LINE
  5
106
100
AcDbEntity
  8
outline
 62
1
100
AcDbLine
 10
-11.564945
 20
42.270015
 30
0.0
 11
-12.880430
 21
41.243316
 31
0.0
  0
LINE
  5
107
100
AcDbEntity
  8
outline
 62
1
100
AcDbLine
 10
-12.880430
 20
41.243316
 30
0.0
 11
-14.035332
 21
40.015929
 31
0.0
  0
LINE
  5
108
100
AcDbEntity
  8
outline
 62
1
100
AcDbLine
 10
-14.035332
 20
40.015929
 30
0.0
 11
-14.328809
 21
37.070218
 31
0.0
  0
LINE
  5
109
100
AcDbEntity
  8
outline
 62
1
100
AcDbLine
 10
-14.328809
 20
37.070218
 30
0.0
 11
-14.693931
 21
34.112246
 31
0.0
  0
LINE
  5
10a
100
AcDbEntity
  8
outline
 62
1
100
AcDbLine
 10
-14.693931
 20
34.112246
 30
0.0
 11
-15.007525
 21
32.672696
 31
0.0
  0
LINE
  5
10b
100
AcDbEntity
  8
outline
 62
1
100
AcDbLine
 10
-15.007525
 20
32.672696
 30
0.0
 11
-15.464031
 21
31.282924
 31
0.0
  0
LINE
  5
10c
100
AcDbEntity
  8
outline
 62
1
100
AcDbLine
 10
-15.464031
 20
31.282924
 30
0.0
 11
-16.105116
 21
29.960540
 31
0.0
  0
LINE
  5
10d
100
AcDbEntity
  8
outline
 62
1
100
AcDbLine
 10
-16.105116
 20
29.960540
 30
0.0
 11
-16.972444
 21
28.723165
 31
0.0
  0
LINE
  5
10e
100
AcDbEntity
  8
outline
 62
1
100
AcDbLine
 10
-16.972444
 20
28.723165
 30
0.0
 11
-17.951221
 21
27.484198
 31
0.0
  0
LINE
  5
10f
100
AcDbEntity
  8
outline
 62
1
100
AcDbLine
 10
-17.951221
 20
27.484198
 30
0.0
 11
-19.051665
 21
26.299909
 31
0.0
  0
LINE
  5
110
100
AcDbEntity
  8
outline
 62
1
100
AcDbLine
 10
-19.051665
 20
26.299909
 30
0.0
 11
-20.261174
 21
25.276498
 31
0.0
  0
LINE
  5
111
100
AcDbEntity
  8
outline
 62
1
100
AcDbLine
 10
-20.261174
 20
25.276498
 30
0.0
 11
-21.567137
 21
24.520165
 31
0.0
  0
LINE
  5
112
100
AcDbEntity
  8
outline
 62
1
100
AcDbLine
 10
-21.567137
 20
24.520165
 30
0.0
 11
-23.140743
 21
25.869382
 31
0.0
  0
LINE
  5
113
100
AcDbEntity
  8
outline
 62
1
100
AcDbLine
 10
-23.140743
 20
25.869382
 30
0.0
 11
-24.739227
 21
27.185839
 31
0.0
  0
LINE
  5
114
100
AcDbEntity
  8
outline
 62
1
100
AcDbLine
 10
-24.739227
 20
27.185839
 30
0.0
 11
-26.266408
 21
28.567339
 31
0.0
  0
LINE
  5
115
100
AcDbEntity
  8
outline
 62
1
100
AcDbLine
 10
-26.266408
 20
28.567339
 30
0.0
 11
-27.626096
 21
30.111693
 31
0.0
  0
LINE
  5
116
100
AcDbEntity
  8
outline
 62
1
100
AcDbLine
 10
-27.626096
 20
30.111693
 30
0.0
 11
-28.194082
 21
30.276564
 31
0.0
  0
LINE
  5
117
100
AcDbEntity
  8
outline
 62
1
100
AcDbLine
 10
-28.194082
 20
30.276564
 30
0.0
 11
-28.746281
 21
30.353464
 31
0.0
  0
LINE
  5
118
100
AcDbEntity
  8
outline
 62
1
100
AcDbLine
 10
-28.746281
 20
30.353464
 30
0.0
 11
-29.806993
 21
30.275842
 31
0.0
  0
LINE
  5
119
100
AcDbEntity
  8
outline
 62
1
100
AcDbLine
 10
-29.806993
 20
30.275842
 30
0.0
 11
-30.815593
 21
29.943827
 31
0.0
  0
LINE
  5
11a
100
AcDbEntity
  8
outline
 62
1
100
AcDbLine
 10
-30.815593
 20
29.943827
 30
0.0
 11
-31.779430
 21
29.422410
 31
0.0
  0
LINE
  5
11b
100
AcDbEntity
  8
outline
 62
1
100
AcDbLine
 10
-31.779430
 20
29.422410
 30
0.0
 11
-33.602247
 21
28.071364
 31
0.0
  0
LINE
  5
11c
100
AcDbEntity
  8
outline
 62
1
100
AcDbLine
 10
-33.602247
 20
28.071364
 30
0.0
 11
-35.334290
 21
26.742665
 31
0.0
  0
LINE
  5
11d
100
AcDbEntity
  8
outline
 62
1
100
AcDbLine
 10
-35.334290
 20
26.742665
 30
0.0
 11
-37.186726
 21
24.895078
 31
0.0
  0
LINE
  5
11e
100
AcDbEntity
  8
outline
 62
1
100
AcDbLine
 10
-37.186726
 20
24.895078
 30
0.0
 11
-38.820601
 21
22.811730
 31
0.0
  0
LINE
  5
11f
100
AcDbEntity
  8
outline
 62
1
100
AcDbLine
 10
-38.820601
 20
22.811730
 30
0.0
 11
-40.194899
 21
20.535210
 31
0.0
  0
LINE
  5
120
100
AcDbEntity
  8
outline
 62
1
100
AcDbLine
 10
-40.194899
 20
20.535210
 30
0.0
 11
-40.771888
 21
19.337817
 31
0.0
  0
LINE
  5
121
100
AcDbEntity
  8
outline
 62
1
100
AcDbLine
 10
-40.771888
 20
19.337817
 30
0.0
 11
-41.268605
 21
18.108104
 31
0.0
  0
LINE
  5
122
100
AcDbEntity
  8
outline
 62
1
100
AcDbLine
 10
-41.268605
 20
18.108104
 30
0.0
 11
-41.679918
 21
16.851391
 31
0.0
  0
LINE
  5
123
100
AcDbEntity
  8
outline
 62
1
100
AcDbLine
 10
-41.679918
 20
16.851391
 30
0.0
 11
-42.000703
 21
15.573001
 31
0.0
  0
LINE
  5
124
100
AcDbEntity
  8
outline
 62
1
100
AcDbLine
 10
-42.000703
 20
15.573001
 30
0.0
 11
-42.225832
 21
14.278259
 31
0.0
  0
LINE
  5
125
100
AcDbEntity
  8
outline
 62
1
100
AcDbLine
 10
-42.225832
 20
14.278259
 30
0.0
 11
-42.350179
 21
12.972490
 31
0.0
  0
LINE
  5
126
100
AcDbEntity
  8
outline
 62
1
100
AcDbLine
 10
-42.350179
 20
12.972490
 30
0.0
 11
-42.368608
 21
11.661012
 31
0.0
  0
LINE
  5
127
100
AcDbEntity
  8
outline
 62
1
100
AcDbLine
 10
-42.368608
 20
11.661012
 30
0.0
 11
-42.276008
 21
10.349152
 31
0.0
  0
LINE
  5
128
100
AcDbEntity
  8
outline
 62
1
100
AcDbLine
 10
-42.276008
 20
10.349152
 30
0.0
 11
-42.067246
 21
9.042235
 31
0.0
  0
LINE
  5
129
100
AcDbEntity
  8
outline
 62
1
100
AcDbLine
 10
-42.067246
 20
9.042235
 30
0.0
 11
-41.737195
 21
7.745582
 31
0.0
  0
LINE
  5
12a
100
AcDbEntity
  8
outline
 62
1
100
AcDbLine
 10
-41.737195
 20
7.745582
 30
0.0
 11
-40.942474
 21
7.027761
 31
0.0
  0
LINE
  5
12b
100
AcDbEntity
  8
outline
 62
1
100
AcDbLine
 10
-40.942474
 20
7.027761
 30
0.0
 11
-40.066465
 21
6.408585
 31
0.0
  0
LINE
  5
12c
100
AcDbEntity
  8
outline
 62
1
100
AcDbLine
 10
-40.066465
 20
6.408585
 30
0.0
 11
-38.212917
 21
5.301094
 31
0.0
  0
LINE
  5
12d
100
AcDbEntity
  8
outline
 62
1
100
AcDbLine
 10
-38.212917
 20
5.301094
 30
0.0
 11
-37.306555
 21
4.730232
 31
0.0
  0
LINE
  5
12e
100
AcDbEntity
  8
outline
 62
1
100
AcDbLine
 10
-37.306555
 20
4.730232
 30
0.0
 11
-36.461251
 21
4.092929
 31
0.0
  0
LINE
  5
12f
100
AcDbEntity
  8
outline
 62
1
100
AcDbLine
 10
-36.461251
 20
4.092929
 30
0.0
 11
-35.712586
 21
3.347916
 31
0.0
  0
LINE
  5
130
100
AcDbEntity
  8
outline
 62
1
100
AcDbLine
 10
-35.712586
 20
3.347916
 30
0.0
 11
-35.096154
 21
2.453915
 31
0.0
  0
LINE
  5
131
100
AcDbEntity
  8
outline
 62
1
100
AcDbLine
 10
-35.096154
 20
2.453915
 30
0.0
 11
-34.401416
 21
1.475688
 31
0.0
  0
LINE
  5
132
100
AcDbEntity
  8
outline
 62
1
100
AcDbLine
 10
-34.401416
 20
1.475688
 30
0.0
 11
-33.777976
 21
0.446562
 31
0.0
  0
LINE
  5
133
100
AcDbEntity
  8
outline
 62
1
100
AcDbLine
 10
-33.777976
 20
0.446562
 30
0.0
 11
-33.233210
 21
-0.627492
 31
0.0
  0
LINE
  5
134
100
AcDbEntity
  8
outline
 62
1
100
AcDbLine
 10
-33.233210
 20
-0.627492
 30
0.0
 11
-32.774495
 21
-1.740497
 31
0.0
  0
LINE
  5
135
100
AcDbEntity
  8
outline
 62
1
100
AcDbLine
 10
-32.774495
 20
-1.740497
 30
0.0
 11
-32.409203
 21
-2.886477
 31
0.0
  0
LINE
  5
136
100
AcDbEntity
  8
outline
 62
1
100
AcDbLine
 10
-32.409203
 20
-2.886477
 30
0.0
 11
-32.144710
 21
-4.059461
 31
0.0
  0
LINE
  5
137
100
AcDbEntity
  8
outline
 62
1
100
AcDbLine
 10
-32.144710
 20
-4.059461
 30
0.0
 11
-31.988387
 21
-5.253475
 31
0.0
  0
LINE
  5
138
100
AcDbEntity
  8
outline
 62
1
100
AcDbLine
 10
-31.988387
 20
-5.253475
 30
0.0
 11
-31.947612
 21
-6.462543
 31
0.0
  0
LINE
  5
139
100
AcDbEntity
  8
outline
 62
1
100
AcDbLine
 10
-31.947612
 20
-6.462543
 30
0.0
 11
-33.876031
 21
-7.119382
 31
0.0
  0
LINE
  5
13a
100
AcDbEntity
  8
outline
 62
1
100
AcDbLine
 10
-33.876031
 20
-7.119382
 30
0.0
 11
-35.779453
 21
-7.867296
 31
0.0
  0
LINE
  5
13b
100
AcDbEntity
  8
outline
 62
1
100
AcDbLine
 10
-35.779453
 20
-7.867296
 30
0.0
 11
-37.707234
 21
-8.514764
 31
0.0
  0
LINE
  5
13c
100
AcDbEntity
  8
outline
 62
1
100
AcDbLine
 10
-37.707234
 20
-8.514764
 30
0.0
 11
-38.695681
 21
-8.740974
 31
0.0
  0
LINE
  5
13d
100
AcDbEntity
  8
outline
 62
1
100
AcDbLine
 10
-38.695681
 20
-8.740974
 30
0.0
 11
-39.708723
 21
-8.870252
 31
0.0
  0
LINE
  5
13e
100
AcDbEntity
  8
outline
 62
1
100
AcDbLine
 10
-39.708723
 20
-8.870252
 30
0.0
 11
-40.146557
 21
-9.223941
 31
0.0
  0
LINE
  5
13f
100
AcDbEntity
  8
outline
 62
1
100
AcDbLine
 10
-40.146557
 20
-9.223941
 30
0.0
 11
-40.503591
 21
-9.614551
 31
0.0
  0
LINE
  5
140
100
AcDbEntity
  8
outline
 62
1
100
AcDbLine
 10
-40.503591
 20
-9.614551
 30
0.0
 11
-41.002986
 21
-10.490591
 31
0.0
  0
LINE
  5
141
100
AcDbEntity
  8
outline
 62
1
100
AcDbLine
 10
-41.002986
 20
-10.490591
 30
0.0
 11
-41.262354
 21
-11.466496
 31
0.0
  0
LINE
  5
142
100
AcDbEntity
  8
outline
 62
1
100
AcDbLine
 10
-41.262354
 20
-11.466496
 30
0.0
 11
-41.337140
 21
-12.510390
 31
0.0
  0
LINE
  5
143
100
AcDbEntity
  8
outline
 62
1
100
AcDbLine
 10
-41.337140
 20
-12.510390
 30
0.0
 11
-41.282787
 21
-13.590398
 31
0.0
  0
LINE
  5
144
100
AcDbEntity
  8
outline
 62
1
100
AcDbLine
 10
-41.282787
 20
-13.590398
 30
0.0
 11
-41.154739
 21
-14.674651
 31
0.0
  0
LINE
  5
145
100
AcDbEntity
  8
outline
 62
1
100
AcDbLine
 10
-41.154739
 20
-14.674651
 30
0.0
 11
-40.899348
 21
-16.728377
 31
0.0
  0
LINE
  5
146
100
AcDbEntity
  8
outline
 62
1
100
AcDbLine
 10
-40.899348
 20
-16.728377
 30
0.0
 11
-40.638476
 21
-18.027005
 31
0.0
  0
LINE
  5
147
100
AcDbEntity
  8
outline
 62
1
100
AcDbLine
 10
-40.638476
 20
-18.027005
 30
0.0
 11
-40.292822
 21
-19.314286
 31
0.0
  0
LINE
  5
148
100
AcDbEntity
  8
outline
 62
1
100
AcDbLine
 10
-40.292822
 20
-19.314286
 30
0.0
 11
-39.356609
 21
-21.827240
 31
0.0
  0
LINE
  5
149
100
AcDbEntity
  8
outline
 62
1
100
AcDbLine
 10
-39.356609
 20
-21.827240
 30
0.0
 11
-38.770769
 21
-23.039131
 31
0.0
  0
LINE
  5
14a
100
AcDbEntity
  8
outline
 62
1
100
AcDbLine
 10
-38.770769
 20
-23.039131
 30
0.0
 11
-38.109587
 21
-24.212114
 31
0.0
  0
LINE
  5
14b
100
AcDbEntity
  8
outline
 62
1
100
AcDbLine
 10
-38.109587
 20
-24.212114
 30
0.0
 11
-37.375420
 21
-25.339293
 31
0.0
  0
LINE
  5
14c
100
AcDbEntity
  8
outline
 62
1
100
AcDbLine
 10
-37.375420
 20
-25.339293
 30
0.0
 11
-36.570632
 21
-26.413780
 31
0.0
  0
LINE
  5
14d
100
AcDbEntity
  8
outline
 62
1
100
AcDbLine
 10
-36.570632
 20
-26.413780
 30
0.0
 11
-35.697578
 21
-27.428688
 31
0.0
  0
LINE
  5
14e
100
AcDbEntity
  8
outline
 62
1
100
AcDbLine
 10
-35.697578
 20
-27.428688
 30
0.0
 11
-34.758622
 21
-28.377119
 31
0.0
  0
LINE
  5
14f
100
AcDbEntity
  8
outline
 62
1
100
AcDbLine
 10
-34.758622
 20
-28.377119
 30
0.0
 11
-33.756117
 21
-29.252185
 31
0.0
  0
LINE
  5
150
100
AcDbEntity
  8
outline
 62
1
100
AcDbLine
 10
-33.756117
 20
-29.252185
 30
0.0
 11
-32.692433
 21
-30.046996
 31
0.0
  0
LINE
  5
151
100
AcDbEntity
  8
outline
 62
1
100
AcDbLine
 10
-32.692433
 20
-30.046996
 30
0.0
 11
-31.569920
 21
-30.754663
 31
0.0
  0
LINE
  5
152
100
AcDbEntity
  8
outline
 62
1
100
AcDbLine
 10
-31.569920
 20
-30.754663
 30
0.0
 11
-30.390942
 21
-31.368290
 31
0.0
  0
LINE
  5
153
100
AcDbEntity
  8
outline
 62
1
100
AcDbLine
 10
-30.390942
 20
-31.368290
 30
0.0
 11
-29.157859
 21
-31.880992
 31
0.0
  0
LINE
  5
154
100
AcDbEntity
  8
outline
 62
1
100
AcDbLine
 10
-29.157859
 20
-31.880992
 30
0.0
 11
-27.873029
 21
-32.285877
 31
0.0
  0
LINE
  5
155
100
AcDbEntity
  8
outline
 62
1
100
AcDbLine
 10
-27.873029
 20
-32.285877
 30
0.0
 11
-26.884416
 21
-32.041503
 31
0.0
  0
LINE
  5
156
100
AcDbEntity
  8
outline
 62
1
100
AcDbLine
 10
-26.884416
 20
-32.041503
 30
0.0
 11
-25.955752
 21
-31.649897
 31
0.0
  0
LINE
  5
157
100
AcDbEntity
  8
outline
 62
1
100
AcDbLine
 10
-25.955752
 20
-31.649897
 30
0.0
 11
-24.190980
 21
-30.641749
 31
0.0
  0
LINE
  5
158
100
AcDbEntity
  8
outline
 62
1
100
AcDbLine
 10
-24.190980
 20
-30.641749
 30
0.0
 11
-23.311223
 21
-30.133599
 31
0.0
  0
LINE
  5
159
100
AcDbEntity
  8
outline
 62
1
100
AcDbLine
 10
-23.311223
 20
-30.133599
 30
0.0
 11
-22.404121
 21
-29.694989
 31
0.0
  0
LINE
  5
15a
100
AcDbEntity
  8
outline
 62
1
100
AcDbLine
 10
-22.404121
 20
-29.694989
 30
0.0
 11
-21.447856
 21
-29.380114
 31
0.0
  0
LINE
  5
15b
100
AcDbEntity
  8
outline
 62
1
100
AcDbLine
 10
-21.447856
 20
-29.380114
 30
0.0
 11
-20.420598
 21
-29.243168
 31
0.0
  0
LINE
  5
15c
100
AcDbEntity
  8
outline
 62
1
100
AcDbLine
 10
-20.420598
 20
-29.243168
 30
0.0
 11
-19.143782
 21
-29.068278
 31
0.0
  0
LINE
  5
15d
100
AcDbEntity
  8
outline
 62
1
100
AcDbLine
 10
-19.143782
 20
-29.068278
 30
0.0
 11
-17.837015
 21
-28.992648
 31
0.0
  0
LINE
  5
15e
100
AcDbEntity
  8
outline
 62
1
100
AcDbLine
 10
-17.837015
 20
-28.992648
 30
0.0
 11
-16.519079
 21
-29.021398
 31
0.0
  0
LINE
  5
15f
100
AcDbEntity
  8
outline
 62
1
100
AcDbLine
 10
-16.519079
 20
-29.021398
 30
0.0
 11
-15.208761
 21
-29.159647
 31
0.0
  0
LINE
  5
160
100
AcDbEntity
  8
outline
 62
1
100
AcDbLine
 10
-15.208761
 20
-29.159647
 30
0.0
 11
-13.924844
 21
-29.412516
 31
0.0
  0
LINE
  5
161
100
AcDbEntity
  8
outline
 62
1
100
AcDbLine
 10
-13.924844
 20
-29.412516
 30
0.0
 11
-12.686115
 21
-29.785125
 31
0.0
  0
LINE
  5
162
100
AcDbEntity
  8
outline
 62
1
100
AcDbLine
 10
-12.686115
 20
-29.785125
 30
0.0
 11
-11.511353
 21
-30.282593
 31
0.0
  0
LINE
  5
163
100
AcDbEntity
  8
outline
 62
1
100
AcDbLine
 10
-11.511353
 20
-30.282593
 30
0.0
 11
-10.419348
 21
-30.910043
 31
0.0
  0
LINE
  5
164
100
AcDbEntity
  8
outline
 62
1
100
AcDbLine
 10
-10.419348
 20
-30.910043
 30
0.0
 11
-10.817132
 21
-32.950459
 31
0.0
  0
LINE
  5
165
100
AcDbEntity
  8
outline
 62
1
100
AcDbLine
 10
-10.817132
 20
-32.950459
 30
0.0
 11
-11.152852
 21
-35.010300
 31
0.0
  0
LINE
  5
166
100
AcDbEntity
  8
outline
 62
1
100
AcDbLine
 10
-11.152852
 20
-35.010300
 30
0.0
 11
-11.564995
 21
-37.044076
 31
0.0
  0
LINE
  5
167
100
AcDbEntity
  8
outline
 62
1
100
AcDbLine
 10
-11.564995
 20
-37.044076
 30
0.0
 11
-12.192056
 21
-39.006293
 31
0.0
  0
LINE
  5
168
100
AcDbEntity
  8
outline
 62
1
100
AcDbLine
 10
-12.192056
 20
-39.006293
 30
0.0
 11
-11.879992
 21
-40.044171
 31
0.0
  0
LINE
  5
169
100
AcDbEntity
  8
outline
 62
1
100
AcDbLine
 10
-11.879992
 20
-40.044171
 30
0.0
 11
-11.325933
 21
-40.884355
 31
0.0
  0
LINE
  5
16a
100
AcDbEntity
  8
outline
 62
1
100
AcDbLine
 10
-11.325933
 20
-40.884355
 30
0.0
 11
-10.581750
 21
-41.562942
 31
0.0
  0
LINE
  5
16b
100
AcDbEntity
  8
outline
 62
1
100
AcDbLine
 10
-10.581750
 20
-41.562942
 30
0.0
 11
-9.699312
 21
-42.116024
 31
0.0
  0
LINE
  5
16c
100
AcDbEntity
  8
outline
 62
1
100
AcDbLine
 10
-9.699312
 20
-42.116024
 30
0.0
 11
-7.727151
 21
-42.990066
 31
0.0
  0
LINE
  5
16d
100
AcDbEntity
  8
outline
 62
1
100
AcDbLine
 10
-7.727151
 20
-42.990066
 30
0.0
 11
-5.824418
 21
-43.795252
 31
0.0
  0
LINE
  5
16e
100
AcDbEntity
  8
outline
 62
1
100
AcDbLine
 10
-5.824418
 20
-43.795252
 30
0.0
 11
-3.288287
 21
-44.540688
 31
0.0
  0
LINE
  5
16f
100
AcDbEntity
  8
outline
 62
1
100
AcDbLine
 10
-3.288287
 20
-44.540688
 30
0.0
 11
-0.646498
 21
-44.968147
 31
0.0
  0
LINE
  5
170
100
AcDbEntity
  8
outline
 62
1
100
AcDbLine
 10
-0.646498
 20
-44.968147
 30
0.0
 11
0.695175
 21
-45.058323
 31
0.0
  0
LINE
  5
171
100
AcDbEntity
  8
outline
 62
1
100
AcDbLine
 10
0.695175
 20
-45.058323
 30
0.0
 11
2.040644
 21
-45.063826
 31
0.0
  0
LINE
  5
172
100
AcDbEntity
  8
outline
 62
1
100
AcDbLine
 10
2.040644
 20
-45.063826
 30
0.0
 11
3.382374
 21
-44.982933
 31
0.0
  0
LINE
  5
173
100
AcDbEntity
  8
outline
 62
1
100
AcDbLine
 10
3.382374
 20
-44.982933
 30
0.0
 11
4.712829
 21
-44.813919
 31
0.0
  0
LINE
  5
174
100
AcDbEntity
  8
outline
 62
1
100
AcDbLine
 10
4.712829
 20
-44.813919
 30
0.0
 11
6.024462
 21
-44.555053
 31
0.0
  0
LINE
  5
175
100
AcDbEntity
  8
outline
 62
1
100
AcDbLine
 10
6.024462
 20
-44.555053
 30
0.0
 11
7.309742
 21
-44.204615
 31
0.0
  0
LINE
  5
176
100
AcDbEntity
  8
outline
 62
1
100
AcDbLine
 10
7.309742
 20
-44.204615
 30
0.0
 11
8.561129
 21
-43.760874
 31
0.0
  0
LINE
  5
177
100
AcDbEntity
  8
outline
 62
1
100
AcDbLine
 10
8.561129
 20
-43.760874
 30
0.0
 11
9.771081
 21
-43.222109
 31
0.0
  0
LINE
  5
178
100
AcDbEntity
  8
outline
 62
1
100
AcDbLine
 10
9.771081
 20
-43.222109
 30
0.0
 11
10.932064
 21
-42.586590
 31
0.0
  0
LINE
  5
179
100
AcDbEntity
  8
outline
 62
1
100
AcDbLine
 10
10.932064
 20
-42.586590
 30
0.0
 11
12.036535
 21
-41.852595
 31
0.0
  0
LINE
  5
17a
100
AcDbEntity
  8
outline
 62
1
100
AcDbLine
 10
12.036535
 20
-41.852595
 30
0.0
 11
13.076956
 21
-41.018394
 31
0.0
  0
LINE
  5
17b
100
AcDbEntity
  8
outline
 62
1
100
AcDbLine
 10
13.076956
 20
-41.018394
 30
0.0
 11
14.045791
 21
-40.082265
 31
0.0
  0
LINE
  5
17c
100
AcDbEntity
  8
outline
 62
1
100
AcDbLine
 10
14.045791
 20
-40.082265
 30
0.0
 11
14.308740
 21
-39.056622
 31
0.0
  0
LINE
  5
17d
100
AcDbEntity
  8
outline
 62
1
100
AcDbLine
 10
14.308740
 20
-39.056622
 30
0.0
 11
14.425196
 21
-38.009651
 31
0.0
  0
LINE
  5
17e
100
AcDbEntity
  8
outline
 62
1
100
AcDbLine
 10
14.425196
 20
-38.009651
 30
0.0
 11
14.447661
 21
-35.887678
 31
0.0
  0
LINE
  5
17f
100
AcDbEntity
  8
outline
 62
1
100
AcDbLine
 10
14.447661
 20
-35.887678
 30
0.0
 11
14.468179
 21
-34.830643
 31
0.0
  0
LINE
  5
180
100
AcDbEntity
  8
outline
 62
1
100
AcDbLine
 10
14.468179
 20
-34.830643
 30
0.0
 11
14.571246
 21
-33.788224
 31
0.0
  0
LINE
  5
181
100
AcDbEntity
  8
outline
 62
1
100
AcDbLine
 10
14.571246
 20
-33.788224
 30
0.0
 11
14.814115
 21
-32.769405
 31
0.0
  0
LINE
  5
182
100
AcDbEntity
  8
outline
 62
1
100
AcDbLine
 10
14.814115
 20
-32.769405
 30
0.0
 11
15.254043
 21
-31.783168
 31
0.0
  0
LINE
  5
183
100
AcDbEntity
  8
outline
 62
1
100
AcDbLine
 10
15.254043
 20
-31.783168
 30
0.0
 11
15.756269
 21
-30.644938
 31
0.0
  0
LINE
  5
184
100
AcDbEntity
  8
outline
 62
1
100
AcDbLine
 10
15.756269
 20
-30.644938
 30
0.0
 11
16.352435
 21
-29.538172
 31
0.0
  0
LINE
  5
185
100
AcDbEntity
  8
outline
 62
1
100
AcDbLine
 10
16.352435
 20
-29.538172
 30
0.0
 11
17.036119
 21
-28.476503
 31
0.0
  0
LINE
  5
186
100
AcDbEntity
  8
outline
 62
1
100
AcDbLine
 10
17.036119
 20
-28.476503
 30
0.0
 11
17.800890
 21
-27.473573
 31
0.0
  0
LINE
  5
187
100
AcDbEntity
  8
outline
 62
1
100
AcDbLine
 10
17.800890
 20
-27.473573
 30
0.0
 11
18.640323
 21
-26.543010
 31
0.0
  0
LINE
  5
188
100
AcDbEntity
  8
outline
 62
1
100
AcDbLine
 10
18.640323
 20
-26.543010
 30
0.0
 11
19.547990
 21
-25.698457
 31
0.0
  0
LINE
  5
189
100
AcDbEntity
  8
outline
 62
1
100
AcDbLine
 10
19.547990
 20
-25.698457
 30
0.0
 11
20.517460
 21
-24.953549
 31
0.0
  0
LINE
  5
18a
100
AcDbEntity
  8
outline
 62
1
100
AcDbLine
 10
20.517460
 20
-24.953549
 30
0.0
 11
21.542307
 21
-24.321918
 31
0.0
  0
LINE
  5
18b
100
AcDbEntity
  8
outline
 62
1
100
AcDbLine
 10
21.542307
 20
-24.321918
 30
0.0
 11
23.122241
 21
-25.715295
 31
0.0
  0
LINE
  5
18c
100
AcDbEntity
  8
outline
 62
1
100
AcDbLine
 10
23.122241
 20
-25.715295
 30
0.0
 11
24.751925
 21
-27.064032
 31
0.0
  0
LINE
  5
18d
100
AcDbEntity
  8
outline
 62
1
100
AcDbLine
 10
24.751925
 20
-27.064032
 30
0.0
 11
26.326818
 21
-28.463845
 31
0.0
  0
LINE
  5
18e
100
AcDbEntity
  8
outline
 62
1
100
AcDbLine
 10
26.326818
 20
-28.463845
 30
0.0
 11
27.742377
 21
-30.010460
 31
0.0
  0
LINE
  5
18f
100
AcDbEntity
  8
outline
 62
1
100
AcDbLine
 10
27.742377
 20
-30.010460
 30
0.0
 11
28.899208
 21
-30.192575
 31
0.0
  0
LINE
  5
190
100
AcDbEntity
  8
outline
 62
1
100
AcDbLine
 10
28.899208
 20
-30.192575
 30
0.0
 11
29.987768
 21
-30.063839
 31
0.0
  0
LINE
  5
191
100
AcDbEntity
  8
outline
 62
1
100
AcDbLine
 10
29.987768
 20
-30.063839
 30
0.0
 11
31.017252
 21
-29.688148
 31
0.0
  0
LINE
  5
192
100
AcDbEntity
  8
outline
 62
1
100
AcDbLine
 10
31.017252
 20
-29.688148
 30
0.0
 11
31.996863
 21
-29.129388
 31
0.0
  0
LINE
  5
193
100
AcDbEntity
  8
outline
 62
1
100
AcDbLine
 10
31.996863
 20
-29.129388
 30
0.0
 11
33.843248
 21
-27.718251
 31
0.0
  0
LINE
  5
194
100
AcDbEntity
  8
outline
 62
1
100
AcDbLine
 10
33.843248
 20
-27.718251
 30
0.0
 11
35.600502
 21
-26.341571
 31
0.0
  0
LINE
  5
195
100
AcDbEntity
  8
outline
 62
1
100
AcDbLine
 10
35.600502
 20
-26.341571
 30
0.0
 11
37.353136
 21
-24.547784
 31
0.0
  0
LINE
  5
196
100
AcDbEntity
  8
outline
 62
1
100
AcDbLine
 10
37.353136
 20
-24.547784
 30
0.0
 11
38.894385
 21
-22.543664
 31
0.0
  0
LINE
  5
197
100
AcDbEntity
  8
outline
 62
1
100
AcDbLine
 10
38.894385
 20
-22.543664
 30
0.0
 11
40.192954
 21
-20.365261
 31
0.0
  0
LINE
  5
198
100
AcDbEntity
  8
outline
 62
1
100
AcDbLine
 10
40.192954
 20
-20.365261
 30
0.0
 11
41.217559
 21
-18.048621
 31
0.0
  0
LINE
  5
199
100
AcDbEntity
  8
outline
 62
1
100
AcDbLine
 10
41.217559
 20
-18.048621
 30
0.0
 11
41.936907
 21
-15.629790
 31
0.0
  0
LINE
  5
19a
100
AcDbEntity
  8
outline
 62
1
100
AcDbLine
 10
41.936907
 20
-15.629790
 30
0.0
 11
42.172328
 21
-14.393315
 31
0.0
  0
LINE
  5
19b
100
AcDbEntity
  8
outline
 62
1
100
AcDbLine
 10
42.172328
 20
-14.393315
 30
0.0
 11
42.319705
 21
-13.144809
 31
0.0
  0
LINE
  5
19c
100
AcDbEntity
  8
outline
 62
1
100
AcDbLine
 10
42.319705
 20
-13.144809
 30
0.0
 11
42.375122
 21
-11.888779
 31
0.0
  0
LINE
  5
19d
100
AcDbEntity
  8
outline
 62
1
100
AcDbLine
 10
42.375122
 20
-11.888779
 30
0.0
 11
42.334668
 21
-10.629732
 31
0.0
  0
LINE
  5
19e
100
AcDbEntity
  8
outline
 62
1
100
AcDbLine
 10
42.334668
 20
-10.629732
 30
0.0
 11
42.194432
 21
-9.372170
 31
0.0
  0
LINE
  5
19f
100
AcDbEntity
  8
outline
 62
1
100
AcDbLine
 10
42.194432
 20
-9.372170
 30
0.0
 11
41.950502
 21
-8.120599
 31
0.0
  0
LINE
  5
1a0
100
AcDbEntity
  8
outline
 62
1
100
AcDbLine
 10
41.950502
 20
-8.120599
 30
0.0
 11
41.378660
 21
-7.348729
 31
0.0
  0
LINE
  5
1a1
100
AcDbEntity
  8
outline
 62
1
100
AcDbLine
 10
41.378660
 20
-7.348729
 30
0.0
 11
40.675557
 21
-6.737738
 31
0.0
  0
LINE
  5
1a2
100
AcDbEntity
  8
outline
 62
1
100
AcDbLine
 10
40.675557
 20
-6.737738
 30
0.0
 11
39.882685
 21
-6.235876
 31
0.0
  0
LINE
  5
1a3
100
AcDbEntity
  8
outline
 62
1
100
AcDbLine
 10
39.882685
 20
-6.235876
 30
0.0
 11
39.041527
 21
-5.791388
 31
0.0
  0
LINE
  5
1a4
100
AcDbEntity
  8
outline
 62
1
100
AcDbLine
 10
39.041527
 20
-5.791388
 30
0.0
 11
37.380316
 21
-4.867525
 31
0.0
  0
LINE
  5
1a5
100
AcDbEntity
  8
outline
 62
1
100
AcDbLine
 10
37.380316
 20
-4.867525
 30
0.0
 11
36.643239
 21
-4.284643
 31
0.0
  0
LINE
  5
1a6
100
AcDbEntity
  8
outline
 62
1
100
AcDbLine
 10
36.643239
 20
-4.284643
 30
0.0
 11
36.023835
 21
-3.552127
 31
0.0
  0
LINE
  5
1a7
100
AcDbEntity
  8
outline
 62
1
100
AcDbLine
 10
36.023835
 20
-3.552127
 30
0.0
 11
35.118376
 21
-2.500623
 31
0.0
  0
LINE
  5
1a8
100
AcDbEntity
  8
outline
 62
1
100
AcDbLine
 10
35.118376
 20
-2.500623
 30
0.0
 11
34.313317
 21
-1.370859
 31
0.0
  0
LINE
  5
1a9
100
AcDbEntity
  8
outline
 62
1
100
AcDbLine
 10
34.313317
 20
-1.370859
 30
0.0
 11
33.613948
 21
-0.173111
 31
0.0
  0
LINE
  5
1aa
100
AcDbEntity
  8
outline
 62
1
100
AcDbLine
 10
33.613948
 20
-0.173111
 30
0.0
 11
33.025554
 21
1.082338
 31
0.0
  0
LINE
  5
1ab
100
AcDbEntity
  8
outline
 62
1
100
AcDbLine
 10
33.025554
 20
1.082338
 30
0.0
 11
32.553427
 21
2.385211
 31
0.0
  0
LINE
  5
1ac
100
AcDbEntity
  8
outline
 62
1
100
AcDbLine
 10
32.553427
 20
2.385211
 30
0.0
 11
32.202851
 21
3.725227
 31
0.0
  0
LINE
  5
1ad
100
AcDbEntity
  8
outline
 62
1
100
AcDbLine
 10
32.202851
 20
3.725227
 30
0.0
 11
31.979119
 21
5.092111
 31
0.0
  0
LINE
  5
1ae
100
AcDbEntity
  8
outline
 62
1
100
AcDbLine
 10
31.979119
 20
5.092111
 30
0.0
 11
31.887516
 21
6.475582
 31
0.0
  0
LINE
  5
1af
100
AcDbEntity
  8
outline
 62
1
100
AcDbLine
 10
31.887516
 20
6.475582
 30
0.0
 11
35.822213
 21
7.894279
 31
0.0
  0
LINE
  5
1b0
100
AcDbEntity
  8
outline
 62
1
100
AcDbLine
 10
35.822213
 20
7.894279
 30
0.0
 11
37.801203
 21
8.534768
 31
0.0
  0
LINE
  5
1b1
100
AcDbEntity
  8
outline
 62
1
100
AcDbLine
 10
37.801203
 20
8.534768
 30
0.0
 11
39.825016
 21
8.962665
 31
0.0
  0
LINE
  5
1b2
100
AcDbEntity
  8
outline
 62
1
100
AcDbLine
 10
39.825016
 20
8.962665
 30
0.0
 11
40.566617
 21
9.717722
 31
0.0
  0
LINE
  5
1b3
100
AcDbEntity
  8
outline
 62
1
100
AcDbLine
 10
40.566617
 20
9.717722
 30
0.0
 11
41.027071
 21
10.587390
 31
0.0
  0
LINE
  5
1b4
100
AcDbEntity
  8
outline
 62
1
100
AcDbLine
 10
41.027071
 20
10.587390
 30
0.0
 11
41.260220
 21
11.544146
 31
0.0
  0
LINE
  5
1b5
100
AcDbEntity
  8
outline
 62
1
100
AcDbLine
 10
41.260220
 20
11.544146
 30
0.0
 11
41.319910
 21
12.560459
 31
0.0
  0
LINE
  5
1b6
100
AcDbEntity
  8
outline
 62
1
100
AcDbLine
 10
41.319910
 20
12.560459
 30
0.0
 11
41.134295
 21
14.661680
 31
0.0
  0
LINE
  5
1b7
100
AcDbEntity
  8
outline
 62
1
100
AcDbLine
 10
41.134295
 20
14.661680
 30
0.0
 11
40.900988
 21
16.670860
 31
0.0
  0
LINE
  5
1b8
100
AcDbEntity
  8
outline
 62
1
100
AcDbLine
 10
40.900988
 20
16.670860
 30
0.0
 11
40.315114
 21
19.211531
 31
0.0
  0
LINE
  5
1b9
100
AcDbEntity
  8
outline
 62
1
100
AcDbLine
 10
40.315114
 20
19.211531
 30
0.0
 11
39.410919
 21
21.679206
 31
0.0
  0
LINE
  5
1ba
100
AcDbEntity
  8
outline
 62
1
100
AcDbLine
 10
39.410919
 20
21.679206
 30
0.0
 11
38.206212
 21
24.025085
 31
0.0
  0
LINE
  5
1bb
100
AcDbEntity
  8
outline
 62
1
100
AcDbLine
 10
38.206212
 20
24.025085
 30
0.0
 11
36.718788
 21
26.200367
 31
0.0
  0
LINE
  5
1bc
100
AcDbEntity
  8
outline
 62
1
100
AcDbLine
 10
36.718788
 20
26.200367
 30
0.0
 11
35.874621
 21
27.208786
 31
0.0
  0
LINE
  5
1bd
100
AcDbEntity
  8
outline
 62
1
100
AcDbLine
 10
35.874621
 20
27.208786
 30
0.0
 11
34.966453
 21
28.156254
 31
0.0
  0
LINE
  5
1be
100
AcDbEntity
  8
outline
 62
1
100
AcDbLine
 10
34.966453
 20
28.156254
 30
0.0
 11
33.996509
 21
29.036675
 31
0.0
  0
LINE
  5
1bf
100
AcDbEntity
  8
outline
 62
1
100
AcDbLine
 10
33.996509
 20
29.036675
 30
0.0
 11
32.967010
 21
29.843946
 31
0.0
  0
LINE
  5
1c0
100
AcDbEntity
  8
outline
 62
1
100
AcDbLine
 10
32.967010
 20
29.843946
 30
0.0
 11
31.880183
 21
30.571969
 31
0.0
  0
LINE
  5
1c1
100
AcDbEntity
  8
outline
 62
1
100
AcDbLine
 10
31.880183
 20
30.571969
 30
0.0
 11
30.738259
 21
31.214640
 31
0.0
  0
LINE
  5
1c2
100
AcDbEntity
  8
outline
 62
1
100
AcDbLine
 10
30.738259
 20
31.214640
 30
0.0
 11
29.543457
 21
31.765865
 31
0.0
  0
LINE
  5
1c3
100
AcDbEntity
  8
outline
 62
1
100
AcDbLine
 10
29.543457
 20
31.765865
 30
0.0
 11
28.298002
 21
32.219540
 31
0.0
  0
LINE
  5
1c4
100
AcDbEntity
  8
outline
 62
1
100
AcDbLine
 10
28.298002
 20
32.219540
 30
0.0
 11
27.211079
 21
32.076346
 31
0.0
  0
LINE
  5
1c5
100
AcDbEntity
  8
outline
 62
1
100
AcDbLine
 10
27.211079
 20
32.076346
 30
0.0
 11
26.194385
 21
31.731234
 31
0.0
  0
LINE
  5
1c6
100
AcDbEntity
  8
outline
 62
1
100
AcDbLine
 10
26.194385
 20
31.731234
 30
0.0
 11
25.223975
 21
31.252071
 31
0.0
  0
LINE
  5
1c7
100
AcDbEntity
  8
outline
 62
1
100
AcDbLine
 10
25.223975
 20
31.252071
 30
0.0
 11
24.275909
 21
30.706730
 31
0.0
  0
LINE
  5
1c8
100
AcDbEntity
  8
outline
 62
1
100
AcDbLine
 10
24.275909
 20
30.706730
 30
0.0
 11
23.326242
 21
30.163077
 31
0.0
  0
LINE
  5
1c9
100
AcDbEntity
  8
outline
 62
1
100
AcDbLine
 10
23.326242
 20
30.163077
 30
0.0
 11
22.351032
 21
29.688980
 31
0.0
  0
LINE
  5
1ca
100
AcDbEntity
  8
outline
 62
1
100
AcDbLine
 10
22.351032
 20
29.688980
 30
0.0
 11
21.326337
 21
29.352309
 31
0.0
  0
LINE
  5
1cb
100
AcDbEntity
  8
outline
 62
1
100
AcDbLine
 10
21.326337
 20
29.352309
 30
0.0
 11
20.228210
 21
29.220929
 31
0.0
  0
LINE
  5
1cc
100
AcDbEntity
  8
outline
 62
1
100
AcDbLine
 10
20.228210
 20
29.220929
 30
0.0
 11
18.978005
 21
29.070996
 31
0.0
  0
LINE
  5
1cd
100
AcDbEntity
  8
outline
 62
1
100
AcDbLine
 10
18.978005
 20
29.070996
 30
0.0
 11
17.694484
 21
29.014760
 31
0.0
  0
LINE
  5
1ce
100
AcDbEntity
  8
outline
 62
1
100
AcDbLine
 10
17.694484
 20
29.014760
 30
0.0
 11
16.398248
 21
29.057661
 31
0.0
  0
LINE
  5
1cf
100
AcDbEntity
  8
outline
 62
1
100
AcDbLine
 10
16.398248
 20
29.057661
 30
0.0
 11
15.109901
 21
29.205139
 31
0.0
  0
LINE
  5
1d0
100
AcDbEntity
  8
outline
 62
1
100
AcDbLine
 10
15.109901
 20
29.205139
 30
0.0
 11
13.850041
 21
29.462627
 31
0.0
  0
LINE
  5
1d1
100
AcDbEntity
  8
outline
 62
1
100
AcDbLine
 10
13.850041
 20
29.462627
 30
0.0
 11
12.639280
 21
29.835564
 31
0.0
  0
LINE
  5
1d2
100
AcDbEntity
  8
outline
 62
1
100
AcDbLine
 10
12.639280
 20
29.835564
 30
0.0
 11
11.498213
 21
30.329391
 31
0.0
  0
LINE
  5
1d3
100
AcDbEntity
  8
outline
 62
1
100
AcDbLine
 10
11.498213
 20
30.329391
 30
0.0
 11
10.447446
 21
30.949540
 31
0.0
  0
LINE
  5
1d4
100
AcDbEntity
  8
outline
 62
1
100
AcDbLine
 10
10.447446
 20
30.949540
 30
0.0
 11
10.852901
 21
32.998990
 31
0.0
  0
LINE
  5
1d5
100
AcDbEntity
  8
outline
 62
1
100
AcDbLine
 10
10.852901
 20
32.998990
 30
0.0
 11
11.187690
 21
35.064910
 31
0.0
  0
LINE
  5
1d6
100
AcDbEntity
  8
outline
 62
1
100
AcDbLine
 10
11.187690
 20
35.064910
 30
0.0
 11
11.604357
 21
37.101618
 31
0.0
  0
LINE
  5
1d7
100
AcDbEntity
  8
outline
 62
1
100
AcDbLine
 10
11.604357
 20
37.101618
 30
0.0
 11
11.891061
 21
38.094741
 31
0.0
  0
LINE
  5
1d8
100
AcDbEntity
  8
outline
 62
1
100
AcDbLine
 10
11.891061
 20
38.094741
 30
0.0
 11
12.255432
 21
39.063429
 31
0.0
  0
LINE
  5
1d9
100
AcDbEntity
  8
outline
 62
1
100
AcDbLine
 10
12.255432
 20
39.063429
 30
0.0
 11
11.874717
 21
40.139966
 31
0.0
  0
LINE
  5
1da
100
AcDbEntity
  8
outline
 62
1
100
AcDbLine
 10
11.874717
 20
40.139966
 30
0.0
 11
11.255146
 21
41.007401
 31
0.0
  0
LINE
  5
1db
100
AcDbEntity
  8
outline
 62
1
100
AcDbLine
 10
11.255146
 20
41.007401
 30
0.0
 11
10.447641
 21
41.703917
 31
0.0
  0
LINE
  5
1dc
100
AcDbEntity
  8
outline
 62
1
100
AcDbLine
 10
10.447641
 20
41.703917
 30
0.0
 11
9.503114
 21
42.267704
 31
0.0
  0
LINE
  5
1dd
100
AcDbEntity
  8
outline
 62
1
100
AcDbLine
 10
9.503114
 20
42.267704
 30
0.0
 11
7.406657
 21
43.149829
 31
0.0
  0
LINE
  5
1de
100
AcDbEntity
  8
outline
 62
1
100
AcDbLine
 10
7.406657
 20
43.149829
 30
0.0
 11
5.373110
 21
43.959273
 31
0.0
  0
LINE
  5
1df
100
AcDbEntity
  8
outline
 62
1
100
AcDbLine
 10
5.373110
 20
43.959273
 30
0.0
 11
3.584874
 21
44.477879
 31
0.0
  0
LINE
  5
1e0
100
AcDbEntity
  8
outline
 62
1
100
AcDbLine
 10
3.584874
 20
44.477879
 30
0.0
 11
1.760364
 21
44.854976
 31
0.0
  0
LINE
  5
1e1
100
AcDbEntity
  8
outline
 62
1
100
AcDbLine
 10
1.760364
 20
44.854976
 30
0.0
 11
-0.089227
 21
45.070591
 31
0.0
  0
LINE
  5
1e2
100
AcDbEntity
  8
outline
 62
1
100
AcDbLine
 10
-0.089227
 20
45.070591
 30
0.0
 11
-1.952693
 21
45.104748
 31
0.0
  0
LINE
  5
1e3
100
AcDbEntity
  8
outline
 62
1
100
AcDbLine
 10
-1.952693
 20
45.104748
 30
0.0
 11
-1.952693
 21
45.104748
 31
0.0
  0
LINE
  5
1e4
100
AcDbEntity
  8
rim
 62
1
100
AcDbLine
 10
-37.424498
 20
7.507457
 30
0.0
 11
-35.660528
 21
6.276561
 31
0.0
  0
LINE
  5
1e5
100
AcDbEntity
  8
rim
 62
1
100
AcDbLine
 10
-35.660528
 20
6.276561
 30
0.0
 11
-34.117178
 21
4.815486
 31
0.0
  0
LINE
  5
1e6
100
AcDbEntity
  8
rim
 62
1
100
AcDbLine
 10
-34.117178
 20
4.815486
 30
0.0
 11
-32.795498
 21
3.159394
 31
0.0
  0
LINE
  5
1e7
100
AcDbEntity
  8
rim
 62
1
100
AcDbLine
 10
-32.795498
 20
3.159394
 30
0.0
 11
-31.696533
 21
1.343464
 31
0.0
  0
LINE
  5
1e8
100
AcDbEntity
  8
rim
 62
1
100
AcDbLine
 10
-31.696533
 20
1.343464
 30
0.0
 11
-30.821328
 21
-0.597144
 31
0.0
  0
LINE
  5
1e9
100
AcDbEntity
  8
rim
 62
1
100
AcDbLine
 10
-30.821328
 20
-0.597144
 30
0.0
 11
-30.170930
 21
-2.627256
 31
0.0
  0
LINE
  5
1ea
100
AcDbEntity
  8
rim
 62
1
100
AcDbLine
 10
-30.170930
 20
-2.627256
 30
0.0
 11
-29.746383
 21
-4.711707
 31
0.0
  0
LINE
  5
1eb
100
AcDbEntity
  8
rim
 62
1
100
AcDbLine
 10
-29.746383
 20
-4.711707
 30
0.0
 11
-29.548734
 21
-6.815321
 31
0.0
  0
LINE
  5
1ec
100
AcDbEntity
  8
rim
 62
1
100
AcDbLine
 10
-29.548734
 20
-6.815321
 30
0.0
 11
-29.472591
 21
-7.494748
 31
0.0
  0
LINE
  5
1ed
100
AcDbEntity
  8
rim
 62
1
100
AcDbLine
 10
-29.472591
 20
-7.494748
 30
0.0
 11
-29.501716
 21
-8.081088
 31
0.0
  0
LINE
  5
1ee
100
AcDbEntity
  8
rim
 62
1
100
AcDbLine
 10
-29.501716
 20
-8.081088
 30
0.0
 11
-29.601863
 21
-8.299508
 31
0.0
  0
LINE
  5
1ef
100
AcDbEntity
  8
rim
 62
1
100
AcDbLine
 10
-29.601863
 20
-8.299508
 30
0.0
 11
-29.783656
 21
-8.446851
 31
0.0
  0
LINE
  5
1f0
100
AcDbEntity
  8
rim
 62
1
100
AcDbLine
 10
-29.783656
 20
-8.446851
 30
0.0
 11
-30.065540
 21
-8.507178
 31
0.0
  0
LINE
  5
1f1
100
AcDbEntity
  8
rim
 62
1
100
AcDbLine
 10
-30.065540
 20
-8.507178
 30
0.0
 11
-30.465957
 21
-8.464557
 31
0.0
  0
LINE
  5
1f2
100
AcDbEntity
  8
rim
 62
1
100
AcDbLine
 10
-30.465957
 20
-8.464557
 30
0.0
 11
-31.503279
 21
-8.653319
 31
0.0
  0
LINE
  5
1f3
100
AcDbEntity
  8
rim
 62
1
100
AcDbLine
 10
-31.503279
 20
-8.653319
 30
0.0
 11
-32.500897
 21
-8.978783
 31
0.0
  0
LINE
  5
1f4
100
AcDbEntity
  8
rim
 62
1
100
AcDbLine
 10
-32.500897
 20
-8.978783
 30
0.0
 11
-34.436942
 21
-9.819816
 31
0.0
  0
LINE
  5
1f5
100
AcDbEntity
  8
rim
 62
1
100
AcDbLine
 10
-34.436942
 20
-9.819816
 30
0.0
 11
-35.405322
 21
-10.225387
 31
0.0
  0
LINE
  5
1f6
100
AcDbEntity
  8
rim
 62
1
100
AcDbLine
 10
-35.405322
 20
-10.225387
 30
0.0
 11
-36.393916
 21
-10.547665
 31
0.0
  0
LINE
  5
1f7
100
AcDbEntity
  8
rim
 62
1
100
AcDbLine
 10
-36.393916
 20
-10.547665
 30
0.0
 11
-37.417700
 21
-10.731645
 31
0.0
  0
LINE
  5
1f8
100
AcDbEntity
  8
rim
 62
1
100
AcDbLine
 10
-37.417700
 20
-10.731645
 30
0.0
 11
-38.491651
 21
-10.722332
 31
0.0
  0
LINE
  5
1f9
100
AcDbEntity
  8
rim
 62
1
100
AcDbLine
 10
-38.491651
 20
-10.722332
 30
0.0
 11
-38.832629
 21
-11.059342
 31
0.0
  0
LINE
  5
1fa
100
AcDbEntity
  8
rim
 62
1
100
AcDbLine
 10
-38.832629
 20
-11.059342
 30
0.0
 11
-39.021715
 21
-11.478047
 31
0.0
  0
LINE
  5
1fb
100
AcDbEntity
  8
rim
 62
1
100
AcDbLine
 10
-39.021715
 20
-11.478047
 30
0.0
 11
-39.093233
 21
-11.958592
 31
0.0
  0
LINE
  5
1fc
100
AcDbEntity
  8
rim
 62
1
100
AcDbLine
 10
-39.093233
 20
-11.958592
 30
0.0
 11
-39.081493
 21
-12.481124
 31
0.0
  0
LINE
  5
1fd
100
AcDbEntity
  8
rim
 62
1
100
AcDbLine
 10
-39.081493
 20
-12.481124
 30
0.0
 11
-38.945572
 21
-13.572737
 31
0.0
  0
LINE
  5
1fe
100
AcDbEntity
  8
rim
 62
1
100
AcDbLine
 10
-38.945572
 20
-13.572737
 30
0.0
 11
-38.888518
 21
-14.594068
 31
0.0
  0
LINE
  5
1ff
100
AcDbEntity
  8
rim
 62
1
100
AcDbLine
 10
-38.888518
 20
-14.594068
 30
0.0
 11
-38.586709
 21
-16.796107
 31
0.0
  0
LINE
  5
200
100
AcDbEntity
  8
rim
 62
1
100
AcDbLine
 10
-38.586709
 20
-16.796107
 30
0.0
 11
-38.032845
 21
-18.951751
 31
0.0
  0
LINE
  5
201
100
AcDbEntity
  8
rim
 62
1
100
AcDbLine
 10
-38.032845
 20
-18.951751
 30
0.0
 11
-37.235426
 21
-21.029006
 31
0.0
  0
LINE
  5
202
100
AcDbEntity
  8
rim
 62
1
100
AcDbLine
 10
-37.235426
 20
-21.029006
 30
0.0
 11
-36.202961
 21
-22.995880
 31
0.0
  0
LINE
  5
203
100
AcDbEntity
  8
rim
 62
1
100
AcDbLine
 10
-36.202961
 20
-22.995880
 30
0.0
 11
-34.943948
 21
-24.820379
 31
0.0
  0
LINE
  5
204
100
AcDbEntity
  8
rim
 62
1
100
AcDbLine
 10
-34.943948
 20
-24.820379
 30
0.0
 11
-33.466896
 21
-26.470510
 31
0.0
  0
LINE
  5
205
100
AcDbEntity
  8
rim
 62
1
100
AcDbLine
 10
-33.466896
 20
-26.470510
 30
0.0
 11
-31.780308
 21
-27.914277
 31
0.0
  0
LINE
  5
206
100
AcDbEntity
  8
rim
 62
1
100
AcDbLine
 10
-31.780308
 20
-27.914277
 30
0.0
 11
-29.892684
 21
-29.119693
 31
0.0
  0
LINE
  5
207
100
AcDbEntity
  8
rim
 62
1
100
AcDbLine
 10
-29.892684
 20
-29.119693
 30
0.0
 11
-29.125757
 21
-29.572417
 31
0.0
  0
LINE
  5
208
100
AcDbEntity
  8
rim
 62
1
100
AcDbLine
 10
-29.125757
 20
-29.572417
 30
0.0
 11
-28.272613
 21
-29.915693
 31
0.0
  0
LINE
  5
209
100
AcDbEntity
  8
rim
 62
1
100
AcDbLine
 10
-28.272613
 20
-29.915693
 30
0.0
 11
-27.915901
 21
-30.034610
 31
0.0
  0
LINE
  5
20a
100
AcDbEntity
  8
rim
 62
1
100
AcDbLine
 10
-27.915901
 20
-30.034610
 30
0.0
 11
-27.553607
 21
-29.989513
 31
0.0
  0
LINE
  5
20b
100
AcDbEntity
  8
rim
 62
1
100
AcDbLine
 10
-27.553607
 20
-29.989513
 30
0.0
 11
-26.811628
 21
-29.574590
 31
0.0
  0
LINE
  5
20c
100
AcDbEntity
  8
rim
 62
1
100
AcDbLine
 10
-26.811628
 20
-29.574590
 30
0.0
 11
-26.045403
 21
-29.005540
 31
0.0
  0
LINE
  5
20d
100
AcDbEntity
  8
rim
 62
1
100
AcDbLine
 10
-26.045403
 20
-29.005540
 30
0.0
 11
-25.652798
 21
-28.767787
 31
0.0
  0
LINE
  5
20e
100
AcDbEntity
  8
rim
 62
1
100
AcDbLine
 10
-25.652798
 20
-28.767787
 30
0.0
 11
-25.253656
 21
-28.616985
 31
0.0
  0
LINE
  5
20f
100
AcDbEntity
  8
rim
 62
1
100
AcDbLine
 10
-25.253656
 20
-28.616985
 30
0.0
 11
-23.354975
 21
-27.726136
 31
0.0
  0
LINE
  5
210
100
AcDbEntity
  8
rim
 62
1
100
AcDbLine
 10
-23.354975
 20
-27.726136
 30
0.0
 11
-21.366700
 21
-27.122604
 31
0.0
  0
LINE
  5
211
100
AcDbEntity
  8
rim
 62
1
100
AcDbLine
 10
-21.366700
 20
-27.122604
 30
0.0
 11
-19.318704
 21
-26.793299
 31
0.0
  0
LINE
  5
212
100
AcDbEntity
  8
rim
 62
1
100
AcDbLine
 10
-19.318704
 20
-26.793299
 30
0.0
 11
-17.240868
 21
-26.725136
 31
0.0
  0
LINE
  5
213
100
AcDbEntity
  8
rim
 62
1
100
AcDbLine
 10
-17.240868
 20
-26.725136
 30
0.0
 11
-15.163075
 21
-26.905031
 31
0.0
  0
LINE
  5
214
100
AcDbEntity
  8
rim
 62
1
100
AcDbLine
 10
-15.163075
 20
-26.905031
 30
0.0
 11
-13.115200
 21
-27.319897
 31
0.0
  0
LINE
  5
215
100
AcDbEntity
  8
rim
 62
1
100
AcDbLine
 10
-13.115200
 20
-27.319897
 30
0.0
 11
-11.127125
 21
-27.956647
 31
0.0
  0
LINE
  5
216
100
AcDbEntity
  8
rim
 62
1
100
AcDbLine
 10
-11.127125
 20
-27.956647
 30
0.0
 11
-9.228726
 21
-28.802193
 31
0.0
  0
LINE
  5
217
100
AcDbEntity
  8
rim
 62
1
100
AcDbLine
 10
-9.228726
 20
-28.802193
 30
0.0
 11
-8.537733
 21
-29.115957
 31
0.0
  0
LINE
  5
218
100
AcDbEntity
  8
rim
 62
1
100
AcDbLine
 10
-8.537733
 20
-29.115957
 30
0.0
 11
-7.902519
 21
-29.459715
 31
0.0
  0
LINE
  5
219
100
AcDbEntity
  8
rim
 62
1
100
AcDbLine
 10
-7.902519
 20
-29.459715
 30
0.0
 11
-7.696398
 21
-29.671288
 31
0.0
  0
LINE
  5
21a
100
AcDbEntity
  8
rim
 62
1
100
AcDbLine
 10
-7.696398
 20
-29.671288
 30
0.0
 11
-7.612908
 21
-29.924503
 31
0.0
  0
LINE
  5
21b
100
AcDbEntity
  8
rim
 62
1
100
AcDbLine
 10
-7.612908
 20
-29.924503
 30
0.0
 11
-7.688272
 21
-30.230732
 31
0.0
  0
LINE
  5
21c
100
AcDbEntity
  8
rim
 62
1
100
AcDbLine
 10
-7.688272
 20
-30.230732
 30
0.0
 11
-7.958726
 21
-30.601360
 31
0.0
  0
LINE
  5
21d
100
AcDbEntity
  8
rim
 62
1
100
AcDbLine
 10
-7.958726
 20
-30.601360
 30
0.0
 11
-8.305063
 21
-31.593303
 31
0.0
  0
LINE
  5
21e
100
AcDbEntity
  8
rim
 62
1
100
AcDbLine
 10
-8.305063
 20
-31.593303
 30
0.0
 11
-8.518057
 21
-32.618701
 31
0.0
  0
LINE
  5
21f
100
AcDbEntity
  8
rim
 62
1
100
AcDbLine
 10
-8.518057
 20
-32.618701
 30
0.0
 11
-8.758942
 21
-34.711283
 31
0.0
  0
LINE
  5
220
100
AcDbEntity
  8
rim
 62
1
100
AcDbLine
 10
-8.758942
 20
-34.711283
 30
0.0
 11
-8.894301
 21
-35.749178
 31
0.0
  0
LINE
  5
221
100
AcDbEntity
  8
rim
 62
1
100
AcDbLine
 10
-8.894301
 20
-35.749178
 30
0.0
 11
-9.111248
 21
-36.761944
 31
0.0
  0
LINE
  5
222
100
AcDbEntity
  8
rim
 62
1
100
AcDbLine
 10
-9.111248
 20
-36.761944
 30
0.0
 11
-9.463515
 21
-37.734939
 31
0.0
  0
LINE
  5
223
100
AcDbEntity
  8
rim
 62
1
100
AcDbLine
 10
-9.463515
 20
-37.734939
 30
0.0
 11
-10.004837
 21
-38.653513
 31
0.0
  0
LINE
  5
224
100
AcDbEntity
  8
rim
 62
1
100
AcDbLine
 10
-10.004837
 20
-38.653513
 30
0.0
 11
-9.895281
 21
-39.108147
 31
0.0
  0
LINE
  5
225
100
AcDbEntity
  8
rim
 62
1
100
AcDbLine
 10
-9.895281
 20
-39.108147
 30
0.0
 11
-9.637353
 21
-39.473938
 31
0.0
  0
LINE
  5
226
100
AcDbEntity
  8
rim
 62
1
100
AcDbLine
 10
-9.637353
 20
-39.473938
 30
0.0
 11
-9.265937
 21
-39.770308
 31
0.0
  0
LINE
  5
227
100
AcDbEntity
  8
rim
 62
1
100
AcDbLine
 10
-9.265937
 20
-39.770308
 30
0.0
 11
-8.815914
 21
-40.016683
 31
0.0
  0
LINE
  5
228
100
AcDbEntity
  8
rim
 62
1
100
AcDbLine
 10
-8.815914
 20
-40.016683
 30
0.0
 11
-7.819582
 21
-40.437137
 31
0.0
  0
LINE
  5
229
100
AcDbEntity
  8
rim
 62
1
100
AcDbLine
 10
-7.819582
 20
-40.437137
 30
0.0
 11
-6.927415
 21
-40.890691
 31
0.0
  0
LINE
  5
22a
100
AcDbEntity
  8
rim
 62
1
100
AcDbLine
 10
-6.927415
 20
-40.890691
 30
0.0
 11
-4.862726
 21
-41.744018
 31
0.0
  0
LINE
  5
22b
100
AcDbEntity
  8
rim
 62
1
100
AcDbLine
 10
-4.862726
 20
-41.744018
 30
0.0
 11
-2.710784
 21
-42.353708
 31
0.0
  0
LINE
  5
22c
100
AcDbEntity
  8
rim
 62
1
100
AcDbLine
 10
-2.710784
 20
-42.353708
 30
0.0
 11
-0.504004
 21
-42.710909
 31
0.0
  0
LINE
  5
22d
100
AcDbEntity
  8
rim
 62
1
100
AcDbLine
 10
-0.504004
 20
-42.710909
 30
0.0
 11
1.725208
 21
-42.806771
 31
0.0
  0
LINE
  5
22e
100
AcDbEntity
  8
rim
 62
1
100
AcDbLine
 10
1.725208
 20
-42.806771
 30
0.0
 11
3.944437
 21
-42.632437
 31
0.0
  0
LINE
  5
22f
100
AcDbEntity
  8
rim
 62
1
100
AcDbLine
 10
3.944437
 20
-42.632437
 30
0.0
 11
6.121276
 21
-42.179061
 31
0.0
  0
LINE
  5
230
100
AcDbEntity
  8
rim
 62
1
100
AcDbLine
 10
6.121276
 20
-42.179061
 30
0.0
 11
8.223318
 21
-41.437787
 31
0.0
  0
LINE
  5
231
100
AcDbEntity
  8
rim
 62
1
100
AcDbLine
 10
8.223318
 20
-41.437787
 30
0.0
 11
10.218149
 21
-40.399763
 31
0.0
  0
LINE
  5
232
100
AcDbEntity
  8
rim
 62
1
100
AcDbLine
 10
10.218149
 20
-40.399763
 30
0.0
 11
11.005086
 21
-39.968725
 31
0.0
  0
LINE
  5
233
100
AcDbEntity
  8
rim
 62
1
100
AcDbLine
 10
11.005086
 20
-39.968725
 30
0.0
 11
11.747252
 21
-39.371605
 31
0.0
  0
LINE
  5
234
100
AcDbEntity
  8
rim
 62
1
100
AcDbLine
 10
11.747252
 20
-39.371605
 30
0.0
 11
12.029911
 21
-39.113244
 31
0.0
  0
LINE
  5
235
100
AcDbEntity
  8
rim
 62
1
100
AcDbLine
 10
12.029911
 20
-39.113244
 30
0.0
 11
12.176884
 21
-38.770260
 31
0.0
  0
LINE
  5
236
100
AcDbEntity
  8
rim
 62
1
100
AcDbLine
 10
12.176884
 20
-38.770260
 30
0.0
 11
12.202369
 21
-37.912064
 31
0.0
  0
LINE
  5
237
100
AcDbEntity
  8
rim
 62
1
100
AcDbLine
 10
12.202369
 20
-37.912064
 30
0.0
 11
12.100882
 21
-36.960298
 31
0.0
  0
LINE
  5
238
100
AcDbEntity
  8
rim
 62
1
100
AcDbLine
 10
12.100882
 20
-36.960298
 30
0.0
 11
12.089141
 21
-36.500349
 31
0.0
  0
LINE
  5
239
100
AcDbEntity
  8
rim
 62
1
100
AcDbLine
 10
12.089141
 20
-36.500349
 30
0.0
 11
12.149605
 21
-36.078235
 31
0.0
  0
LINE
  5
23a
100
AcDbEntity
  8
rim
 62
1
100
AcDbLine
 10
12.149605
 20
-36.078235
 30
0.0
 11
12.201692
 21
-34.982123
 31
0.0
  0
LINE
  5
23b
100
AcDbEntity
  8
rim
 62
1
100
AcDbLine
 10
12.201692
 20
-34.982123
 30
0.0
 11
12.337322
 21
-33.903148
 31
0.0
  0
LINE
  5
23c
100
AcDbEntity
  8
rim
 62
1
100
AcDbLine
 10
12.337322
 20
-33.903148
 30
0.0
 11
12.843818
 21
-31.806186
 31
0.0
  0
LINE
  5
23d
100
AcDbEntity
  8
rim
 62
1
100
AcDbLine
 10
12.843818
 20
-31.806186
 30
0.0
 11
13.638299
 21
-29.806484
 31
0.0
  0
LINE
  5
23e
100
AcDbEntity
  8
rim
 62
1
100
AcDbLine
 10
13.638299
 20
-29.806484
 30
0.0
 11
14.689971
 21
-27.923173
 31
0.0
  0
LINE
  5
23f
100
AcDbEntity
  8
rim
 62
1
100
AcDbLine
 10
14.689971
 20
-27.923173
 30
0.0
 11
15.968043
 21
-26.175387
 31
0.0
  0
LINE
  5
240
100
AcDbEntity
  8
rim
 62
1
100
AcDbLine
 10
15.968043
 20
-26.175387
 30
0.0
 11
17.441723
 21
-24.582263
 31
0.0
  0
LINE
  5
241
100
AcDbEntity
  8
rim
 62
1
100
AcDbLine
 10
17.441723
 20
-24.582263
 30
0.0
 11
19.080218
 21
-23.162936
 31
0.0
  0
LINE
  5
242
100
AcDbEntity
  8
rim
 62
1
100
AcDbLine
 10
19.080218
 20
-23.162936
 30
0.0
 11
20.852734
 21
-21.936537
 31
0.0
  0
LINE
  5
243
100
AcDbEntity
  8
rim
 62
1
100
AcDbLine
 10
20.852734
 20
-21.936537
 30
0.0
 11
21.424132
 21
-21.469177
 31
0.0
  0
LINE
  5
244
100
AcDbEntity
  8
rim
 62
1
100
AcDbLine
 10
21.424132
 20
-21.469177
 30
0.0
 11
21.675031
 21
-21.394182
 31
0.0
  0
LINE
  5
245
100
AcDbEntity
  8
rim
 62
1
100
AcDbLine
 10
21.675031
 20
-21.394182
 30
0.0
 11
21.906628
 21
-21.414812
 31
0.0
  0
LINE
  5
246
100
AcDbEntity
  8
rim
 62
1
100
AcDbLine
 10
21.906628
 20
-21.414812
 30
0.0
 11
22.323645
 21
-21.712511
 31
0.0
  0
LINE
  5
247
100
AcDbEntity
  8
rim
 62
1
100
AcDbLine
 10
22.323645
 20
-21.712511
 30
0.0
 11
22.698603
 21
-22.301323
 31
0.0
  0
LINE
  5
248
100
AcDbEntity
  8
rim
 62
1
100
AcDbLine
 10
22.698603
 20
-22.301323
 30
0.0
 11
23.380816
 21
-23.047380
 31
0.0
  0
LINE
  5
249
100
AcDbEntity
  8
rim
 62
1
100
AcDbLine
 10
23.380816
 20
-23.047380
 30
0.0
 11
24.146801
 21
-23.707309
 31
0.0
  0
LINE
  5
24a
100
AcDbEntity
  8
rim
 62
1
100
AcDbLine
 10
24.146801
 20
-23.707309
 30
0.0
 11
25.785264
 21
-24.913555
 31
0.0
  0
LINE
  5
24b
100
AcDbEntity
  8
rim
 62
1
100
AcDbLine
 10
25.785264
 20
-24.913555
 30
0.0
 11
26.585331
 21
-25.532256
 31
0.0
  0
LINE
  5
24c
100
AcDbEntity
  8
rim
 62
1
100
AcDbLine
 10
26.585331
 20
-25.532256
 30
0.0
 11
27.324346
 21
-26.209595
 31
0.0
  0
LINE
  5
24d
100
AcDbEntity
  8
rim
 62
1
100
AcDbLine
 10
27.324346
 20
-26.209595
 30
0.0
 11
27.966103
 21
-26.981770
 31
0.0
  0
LINE
  5
24e
100
AcDbEntity
  8
rim
 62
1
100
AcDbLine
 10
27.966103
 20
-26.981770
 30
0.0
 11
28.474396
 21
-27.884965
 31
0.0
  0
LINE
  5
24f
100
AcDbEntity
  8
rim
 62
1
100
AcDbLine
 10
28.474396
 20
-27.884965
 30
0.0
 11
28.932782
 21
-28.013312
 31
0.0
  0
LINE
  5
250
100
AcDbEntity
  8
rim
 62
1
100
AcDbLine
 10
28.932782
 20
-28.013312
 30
0.0
 11
29.388483
 21
-27.969499
 31
0.0
  0
LINE
  5
251
100
AcDbEntity
  8
rim
 62
1
100
AcDbLine
 10
29.388483
 20
-27.969499
 30
0.0
 11
29.840515
 21
-27.792769
 31
0.0
  0
LINE
  5
252
100
AcDbEntity
  8
rim
 62
1
100
AcDbLine
 10
29.840515
 20
-27.792769
 30
0.0
 11
30.287889
 21
-27.522358
 31
0.0
  0
LINE
  5
253
100
AcDbEntity
  8
rim
 62
1
100
AcDbLine
 10
30.287889
 20
-27.522358
 30
0.0
 11
31.164699
 21
-26.857439
 31
0.0
  0
LINE
  5
254
100
AcDbEntity
  8
rim
 62
1
100
AcDbLine
 10
31.164699
 20
-26.857439
 30
0.0
 11
32.010993
 21
-26.288646
 31
0.0
  0
LINE
  5
255
100
AcDbEntity
  8
rim
 62
1
100
AcDbLine
 10
32.010993
 20
-26.288646
 30
0.0
 11
33.815012
 21
-24.897429
 31
0.0
  0
LINE
  5
256
100
AcDbEntity
  8
rim
 62
1
100
AcDbLine
 10
33.815012
 20
-24.897429
 30
0.0
 11
35.437925
 21
-23.299842
 31
0.0
  0
LINE
  5
257
100
AcDbEntity
  8
rim
 62
1
100
AcDbLine
 10
35.437925
 20
-23.299842
 30
0.0
 11
36.856992
 21
-21.521898
 31
0.0
  0
LINE
  5
258
100
AcDbEntity
  8
rim
 62
1
100
AcDbLine
 10
36.856992
 20
-21.521898
 30
0.0
 11
38.049460
 21
-19.589602
 31
0.0
  0
LINE
  5
259
100
AcDbEntity
  8
rim
 62
1
100
AcDbLine
 10
38.049460
 20
-19.589602
 30
0.0
 11
38.992587
 21
-17.528954
 31
0.0
  0
LINE
  5
25a
100
AcDbEntity
  8
rim
 62
1
100
AcDbLine
 10
38.992587
 20
-17.528954
 30
0.0
 11
39.663618
 21
-15.365966
 31
0.0
  0
LINE
  5
25b
100
AcDbEntity
  8
rim
 62
1
100
AcDbLine
 10
39.663618
 20
-15.365966
 30
0.0
 11
40.039815
 21
-13.126637
 31
0.0
  0
LINE
  5
25c
100
AcDbEntity
  8
rim
 62
1
100
AcDbLine
 10
40.039815
 20
-13.126637
 30
0.0
 11
40.098424
 21
-10.836979
 31
0.0
  0
LINE
  5
25d
100
AcDbEntity
  8
rim
 62
1
100
AcDbLine
 10
40.098424
 20
-10.836979
 30
0.0
 11
40.137898
 21
-9.893900
 31
0.0
  0
LINE
  5
25e
100
AcDbEntity
  8
rim
 62
1
100
AcDbLine
 10
40.137898
 20
-9.893900
 30
0.0
 11
40.055783
 21
-9.523212
 31
0.0
  0
LINE
  5
25f
100
AcDbEntity
  8
rim
 62
1
100
AcDbLine
 10
40.055783
 20
-9.523212
 30
0.0
 11
39.924304
 21
-9.307575
 31
0.0
  0
LINE
  5
260
100
AcDbEntity
  8
rim
 62
1
100
AcDbLine
 10
39.924304
 20
-9.307575
 30
0.0
 11
39.889636
 21
-8.994655
 31
0.0
  0
LINE
  5
261
100
AcDbEntity
  8
rim
 62
1
100
AcDbLine
 10
39.889636
 20
-8.994655
 30
0.0
 11
39.701919
 21
-8.741792
 31
0.0
  0
LINE
  5
262
100
AcDbEntity
  8
rim
 62
1
100
AcDbLine
 10
39.701919
 20
-8.741792
 30
0.0
 11
39.013545
 21
-8.346046
 31
0.0
  0
LINE
  5
263
100
AcDbEntity
  8
rim
 62
1
100
AcDbLine
 10
39.013545
 20
-8.346046
 30
0.0
 11
38.151596
 21
-7.979979
 31
0.0
  0
LINE
  5
264
100
AcDbEntity
  8
rim
 62
1
100
AcDbLine
 10
38.151596
 20
-7.979979
 30
0.0
 11
37.746915
 21
-7.764211
 31
0.0
  0
LINE
  5
265
100
AcDbEntity
  8
rim
 62
1
100
AcDbLine
 10
37.746915
 20
-7.764211
 30
0.0
 11
37.408488
 21
-7.503238
 31
0.0
  0
LINE
  5
266
100
AcDbEntity
  8
rim
 62
1
100
AcDbLine
 10
37.408488
 20
-7.503238
 30
0.0
 11
36.486200
 21
-6.906185
 31
0.0
  0
LINE
  5
267
100
AcDbEntity
  8
rim
 62
1
100
AcDbLine
 10
36.486200
 20
-6.906185
 30
0.0
 11
35.620376
 21
-6.246717
 31
0.0
  0
LINE
  5
268
100
AcDbEntity
  8
rim
 62
1
100
AcDbLine
 10
35.620376
 20
-6.246717
 30
0.0
 11
34.058781
 21
-4.757896
 31
0.0
  0
LINE
  5
269
100
AcDbEntity
  8
rim
 62
1
100
AcDbLine
 10
34.058781
 20
-4.757896
 30
0.0
 11
32.724990
 21
-3.071471
 31
0.0
  0
LINE
  5
26a
100
AcDbEntity
  8
rim
 62
1
100
AcDbLine
 10
32.724990
 20
-3.071471
 30
0.0
 11
31.620293
 21
-1.222145
 31
0.0
  0
LINE
  5
26b
100
AcDbEntity
  8
rim
 62
1
100
AcDbLine
 10
31.620293
 20
-1.222145
 30
0.0
 11
30.745983
 21
0.755386
 31
0.0
  0
LINE
  5
26c
100
AcDbEntity
  8
rim
 62
1
100
AcDbLine
 10
30.745983
 20
0.755386
 30
0.0
 11
30.103349
 21
2.826423
 31
0.0
  0
LINE
  5
26d
100
AcDbEntity
  8
rim
 62
1
100
AcDbLine
 10
30.103349
 20
2.826423
 30
0.0
 11
29.693681
 21
4.956264
 31
0.0
  0
LINE
  5
26e
100
AcDbEntity
  8
rim
 62
1
100
AcDbLine
 10
29.693681
 20
4.956264
 30
0.0
 11
29.518271
 21
7.110212
 31
0.0
  0
LINE
  5
26f
100
AcDbEntity
  8
rim
 62
1
100
AcDbLine
 10
29.518271
 20
7.110212
 30
0.0
 11
29.407073
 21
7.834377
 31
0.0
  0
LINE
  5
270
100
AcDbEntity
  8
rim
 62
1
100
AcDbLine
 10
29.407073
 20
7.834377
 30
0.0
 11
29.467305
 21
8.090243
 31
0.0
  0
LINE
  5
271
100
AcDbEntity
  8
rim
 62
1
100
AcDbLine
 10
29.467305
 20
8.090243
 30
0.0
 11
29.599447
 21
8.282445
 31
0.0
  0
LINE
  5
272
100
AcDbEntity
  8
rim
 62
1
100
AcDbLine
 10
29.599447
 20
8.282445
 30
0.0
 11
30.063527
 21
8.497267
 31
0.0
  0
LINE
  5
273
100
AcDbEntity
  8
rim
 62
1
100
AcDbLine
 10
30.063527
 20
8.497267
 30
0.0
 11
30.767446
 21
8.521679
 31
0.0
  0
LINE
  5
274
100
AcDbEntity
  8
rim
 62
1
100
AcDbLine
 10
30.767446
 20
8.521679
 30
0.0
 11
31.754050
 21
8.743240
 31
0.0
  0
LINE
  5
275
100
AcDbEntity
  8
rim
 62
1
100
AcDbLine
 10
31.754050
 20
8.743240
 30
0.0
 11
32.707594
 21
9.077668
 31
0.0
  0
LINE
  5
276
100
AcDbEntity
  8
rim
 62
1
100
AcDbLine
 10
32.707594
 20
9.077668
 30
0.0
 11
34.568438
 21
9.890276
 31
0.0
  0
LINE
  5
277
100
AcDbEntity
  8
rim
 62
1
100
AcDbLine
 10
34.568438
 20
9.890276
 30
0.0
 11
35.502201
 21
10.271030
 31
0.0
  0
LINE
  5
278
100
AcDbEntity
  8
rim
 62
1
100
AcDbLine
 10
35.502201
 20
10.271030
 30
0.0
 11
36.455833
 21
10.569799
 31
0.0
  0
LINE
  5
279
100
AcDbEntity
  8
rim
 62
1
100
AcDbLine
 10
36.455833
 20
10.569799
 30
0.0
 11
37.442569
 21
10.737874
 31
0.0
  0
LINE
  5
27a
100
AcDbEntity
  8
rim
 62
1
100
AcDbLine
 10
37.442569
 20
10.737874
 30
0.0
 11
38.475641
 21
10.726529
 31
0.0
  0
LINE
  5
27b
100
AcDbEntity
  8
rim
 62
1
100
AcDbLine
 10
38.475641
 20
10.726529
 30
0.0
 11
38.816410
 21
11.062339
 31
0.0
  0
LINE
  5
27c
100
AcDbEntity
  8
rim
 62
1
100
AcDbLine
 10
38.816410
 20
11.062339
 30
0.0
 11
39.005600
 21
11.479924
 31
0.0
  0
LINE
  5
27d
100
AcDbEntity
  8
rim
 62
1
100
AcDbLine
 10
39.005600
 20
11.479924
 30
0.0
 11
39.077409
 21
11.959397
 31
0.0
  0
LINE
  5
27e
100
AcDbEntity
  8
rim
 62
1
100
AcDbLine
 10
39.077409
 20
11.959397
 30
0.0
 11
39.066035
 21
12.480887
 31
0.0
  0
LINE
  5
27f
100
AcDbEntity
  8
rim
 62
1
100
AcDbLine
 10
39.066035
 20
12.480887
 30
0.0
 11
38.930487
 21
13.570403
 31
0.0
  0
LINE
  5
280
100
AcDbEntity
  8
rim
 62
1
100
AcDbLine
 10
38.930487
 20
13.570403
 30
0.0
 11
38.872524
 21
14.589445
 31
0.0
  0
LINE
  5
281
100
AcDbEntity
  8
rim
 62
1
100
AcDbLine
 10
38.872524
 20
14.589445
 30
0.0
 11
38.579490
 21
16.733039
 31
0.0
  0
LINE
  5
282
100
AcDbEntity
  8
rim
 62
1
100
AcDbLine
 10
38.579490
 20
16.733039
 30
0.0
 11
38.049256
 21
18.839568
 31
0.0
  0
LINE
  5
283
100
AcDbEntity
  8
rim
 62
1
100
AcDbLine
 10
38.049256
 20
18.839568
 30
0.0
 11
37.287942
 21
20.877258
 31
0.0
  0
LINE
  5
284
100
AcDbEntity
  8
rim
 62
1
100
AcDbLine
 10
37.287942
 20
20.877258
 30
0.0
 11
36.301672
 21
22.814332
 31
0.0
  0
LINE
  5
285
100
AcDbEntity
  8
rim
 62
1
100
AcDbLine
 10
36.301672
 20
22.814332
 30
0.0
 11
35.096566
 21
24.619022
 31
0.0
  0
LINE
  5
286
100
AcDbEntity
  8
rim
 62
1
100
AcDbLine
 10
35.096566
 20
24.619022
 30
0.0
 11
33.678749
 21
26.259554
 31
0.0
  0
LINE
  5
287
100
AcDbEntity
  8
rim
 62
1
100
AcDbLine
 10
33.678749
 20
26.259554
 30
0.0
 11
32.054343
 21
27.704151
 31
0.0
  0
LINE
  5
288
100
AcDbEntity
  8
rim
 62
1
100
AcDbLine
 10
32.054343
 20
27.704151
 30
0.0
 11
30.229469
 21
28.921042
 31
0.0
  0
LINE
  5
289
100
AcDbEntity
  8
rim
 62
1
100
AcDbLine
 10
30.229469
 20
28.921042
 30
0.0
 11
29.486789
 21
29.319664
 31
0.0
  0
LINE
  5
28a
100
AcDbEntity
  8
rim
 62
1
100
AcDbLine
 10
29.486789
 20
29.319664
 30
0.0
 11
28.552160
 21
29.839752
 31
0.0
  0
LINE
  5
28b
100
AcDbEntity
  8
rim
 62
1
100
AcDbLine
 10
28.552160
 20
29.839752
 30
0.0
 11
28.118683
 21
29.990557
 31
0.0
  0
LINE
  5
28c
100
AcDbEntity
  8
rim
 62
1
100
AcDbLine
 10
28.118683
 20
29.990557
 30
0.0
 11
27.697410
 21
29.972608
 31
0.0
  0
LINE
  5
28d
100
AcDbEntity
  8
rim
 62
1
100
AcDbLine
 10
27.697410
 20
29.972608
 30
0.0
 11
27.286077
 21
29.827266
 31
0.0
  0
LINE
  5
28e
100
AcDbEntity
  8
rim
 62
1
100
AcDbLine
 10
27.286077
 20
29.827266
 30
0.0
 11
26.882426
 21
29.595949
 31
0.0
  0
LINE
  5
28f
100
AcDbEntity
  8
rim
 62
1
100
AcDbLine
 10
26.882426
 20
29.595949
 30
0.0
 11
26.089119
 21
29.040964
 31
0.0
  0
LINE
  5
290
100
AcDbEntity
  8
rim
 62
1
100
AcDbLine
 10
26.089119
 20
29.040964
 30
0.0
 11
25.299399
 21
28.638834
 31
0.0
  0
LINE
  5
291
100
AcDbEntity
  8
rim
 62
1
100
AcDbLine
 10
25.299399
 20
28.638834
 30
0.0
 11
23.356612
 21
27.732472
 31
0.0
  0
LINE
  5
292
100
AcDbEntity
  8
rim
 62
1
100
AcDbLine
 10
23.356612
 20
27.732472
 30
0.0
 11
21.323805
 21
27.126267
 31
0.0
  0
LINE
  5
293
100
AcDbEntity
  8
rim
 62
1
100
AcDbLine
 10
21.323805
 20
27.126267
 30
0.0
 11
19.231700
 21
26.805606
 31
0.0
  0
LINE
  5
294
100
AcDbEntity
  8
rim
 62
1
100
AcDbLine
 10
19.231700
 20
26.805606
 30
0.0
 11
17.111020
 21
26.755876
 31
0.0
  0
LINE
  5
295
100
AcDbEntity
  8
rim
 62
1
100
AcDbLine
 10
17.111020
 20
26.755876
 30
0.0
 11
14.992488
 21
26.962463
 31
0.0
  0
LINE
  5
296
100
AcDbEntity
  8
rim
 62
1
100
AcDbLine
 10
14.992488
 20
26.962463
 30
0.0
 11
12.906821
 21
27.410750
 31
0.0
  0
LINE
  5
297
100
AcDbEntity
  8
rim
 62
1
100
AcDbLine
 10
12.906821
 20
27.410750
 30
0.0
 11
10.884741
 21
28.086125
 31
0.0
  0
LINE
  5
298
100
AcDbEntity
  8
rim
 62
1
100
AcDbLine
 10
10.884741
 20
28.086125
 30
0.0
 11
8.956969
 21
28.973973
 31
0.0
  0
LINE
  5
299
100
AcDbEntity
  8
rim
 62
1
100
AcDbLine
 10
8.956969
 20
28.973973
 30
0.0
 11
8.315686
 21
29.244099
 31
0.0
  0
LINE
  5
29a
100
AcDbEntity
  8
rim
 62
1
100
AcDbLine
 10
8.315686
 20
29.244099
 30
0.0
 11
7.824137
 21
29.568107
 31
0.0
  0
LINE
  5
29b
100
AcDbEntity
  8
rim
 62
1
100
AcDbLine
 10
7.824137
 20
29.568107
 30
0.0
 11
7.688244
 21
29.768804
 31
0.0
  0
LINE
  5
29c
100
AcDbEntity
  8
rim
 62
1
100
AcDbLine
 10
7.688244
 20
29.768804
 30
0.0
 11
7.654265
 21
30.005151
 31
0.0
  0
LINE
  5
29d
100
AcDbEntity
  8
rim
 62
1
100
AcDbLine
 10
7.654265
 20
30.005151
 30
0.0
 11
7.743687
 21
30.284551
 31
0.0
  0
LINE
  5
29e
100
AcDbEntity
  8
rim
 62
1
100
AcDbLine
 10
7.743687
 20
30.284551
 30
0.0
 11
7.978010
 21
30.614390
 31
0.0
  0
LINE
  5
29f
100
AcDbEntity
  8
rim
 62
1
100
AcDbLine
 10
7.978010
 20
30.614390
 30
0.0
 11
8.333907
 21
31.601699
 31
0.0
  0
LINE
  5
2a0
100
AcDbEntity
  8
rim
 62
1
100
AcDbLine
 10
8.333907
 20
31.601699
 30
0.0
 11
8.551793
 21
32.623843
 31
0.0
  0
LINE
  5
2a1
100
AcDbEntity
  8
rim
 62
1
100
AcDbLine
 10
8.551793
 20
32.623843
 30
0.0
 11
8.792966
 21
34.714574
 31
0.0
  0
LINE
  5
2a2
100
AcDbEntity
  8
rim
 62
1
100
AcDbLine
 10
8.792966
 20
34.714574
 30
0.0
 11
8.925972
 21
35.754131
 31
0.0
  0
LINE
  5
2a3
100
AcDbEntity
  8
rim
 62
1
100
AcDbLine
 10
8.925972
 20
35.754131
 30
0.0
 11
9.140396
 21
36.770458
 31
0.0
  0
LINE
  5
2a4
100
AcDbEntity
  8
rim
 62
1
100
AcDbLine
 10
9.140396
 20
36.770458
 30
0.0
 11
9.491099
 21
37.749041
 31
0.0
  0
LINE
  5
2a5
100
AcDbEntity
  8
rim
 62
1
100
AcDbLine
 10
9.491099
 20
37.749041
 30
0.0
 11
10.032941
 21
38.675362
 31
0.0
  0
LINE
  5
2a6
100
AcDbEntity
  8
rim
 62
1
100
AcDbLine
 10
10.032941
 20
38.675362
 30
0.0
 11
9.920385
 21
39.142491
 31
0.0
  0
LINE
  5
2a7
100
AcDbEntity
  8
rim
 62
1
100
AcDbLine
 10
9.920385
 20
39.142491
 30
0.0
 11
9.655917
 21
39.516311
 31
0.0
  0
LINE
  5
2a8
100
AcDbEntity
  8
rim
 62
1
100
AcDbLine
 10
9.655917
 20
39.516311
 30
0.0
 11
9.275349
 21
39.817380
 31
0.0
  0
LINE
  5
2a9
100
AcDbEntity
  8
rim
 62
1
100
AcDbLine
 10
9.275349
 20
39.817380
 30
0.0
 11
8.814489
 21
40.066244
 31
0.0
  0
LINE
  5
2aa
100
AcDbEntity
  8
rim
 62
1
100
AcDbLine
 10
8.814489
 20
40.066244
 30
0.0
 11
7.795153
 21
40.489591
 31
0.0
  0
LINE
  5
2ab
100
AcDbEntity
  8
rim
 62
1
100
AcDbLine
 10
7.795153
 20
40.489591
 30
0.0
 11
6.884399
 21
40.950779
 31
0.0
  0
LINE
  5
2ac
100
AcDbEntity
  8
rim
 62
1
100
AcDbLine
 10
6.884399
 20
40.950779
 30
0.0
 11
4.706380
 21
41.798761
 31
0.0
  0
LINE
  5
2ad
100
AcDbEntity
  8
rim
 62
1
100
AcDbLine
 10
4.706380
 20
41.798761
 30
0.0
 11
2.453911
 21
42.427241
 31
0.0
  0
LINE
  5
2ae
100
AcDbEntity
  8
rim
 62
1
100
AcDbLine
 10
2.453911
 20
42.427241
 30
0.0
 11
0.147887
 21
42.789330
 31
0.0
  0
LINE
  5
2af
100
AcDbEntity
  8
rim
 62
1
100
AcDbLine
 10
0.147887
 20
42.789330
 30
0.0
 11
-1.018684
 21
42.855824
 31
0.0
  0
LINE
  5
2b0
100
AcDbEntity
  8
rim
 62
1
100
AcDbLine
 10
-1.018684
 20
42.855824
 30
0.0
 11
-2.190809
 21
42.838129
 31
0.0
  0
LINE
  5
2b1
100
AcDbEntity
  8
rim
 62
1
100
AcDbLine
 10
-2.190809
 20
42.838129
 30
0.0
 11
-3.528001
 21
42.716536
 31
0.0
  0
LINE
  5
2b2
100
AcDbEntity
  8
rim
 62
1
100
AcDbLine
 10
-3.528001
 20
42.716536
 30
0.0
 11
-4.860078
 21
42.492099
 31
0.0
  0
LINE
  5
2b3
100
AcDbEntity
  8
rim
 62
1
100
AcDbLine
 10
-4.860078
 20
42.492099
 30
0.0
 11
-6.176177
 21
42.167504
 31
0.0
  0
LINE
  5
2b4
100
AcDbEntity
  8
rim
 62
1
100
AcDbLine
 10
-6.176177
 20
42.167504
 30
0.0
 11
-7.465435
 21
41.745446
 31
0.0
  0
LINE
  5
2b5
100
AcDbEntity
  8
rim
 62
1
100
AcDbLine
 10
-7.465435
 20
41.745446
 30
0.0
 11
-8.716986
 21
41.228618
 31
0.0
  0
LINE
  5
2b6
100
AcDbEntity
  8
rim
 62
1
100
AcDbLine
 10
-8.716986
 20
41.228618
 30
0.0
 11
-9.919973
 21
40.619712
 31
0.0
  0
LINE
  5
2b7
100
AcDbEntity
  8
rim
 62
1
100
AcDbLine
 10
-9.919973
 20
40.619712
 30
0.0
 11
-11.063523
 21
39.921418
 31
0.0
  0
LINE
  5
2b8
100
AcDbEntity
  8
rim
 62
1
100
AcDbLine
 10
-11.063523
 20
39.921418
 30
0.0
 11
-12.136780
 21
39.136434
 31
0.0
  0
LINE
  5
2b9
100
AcDbEntity
  8
rim
 62
1
100
AcDbLine
 10
-12.136780
 20
39.136434
 30
0.0
 11
-12.063357
 21
37.206926
 31
0.0
  0
LINE
  5
2ba
100
AcDbEntity
  8
rim
 62
1
100
AcDbLine
 10
-12.063357
 20
37.206926
 30
0.0
 11
-12.187978
 21
35.272564
 31
0.0
  0
LINE
  5
2bb
100
AcDbEntity
  8
rim
 62
1
100
AcDbLine
 10
-12.187978
 20
35.272564
 30
0.0
 11
-12.512393
 21
33.359077
 31
0.0
  0
LINE
  5
2bc
100
AcDbEntity
  8
rim
 62
1
100
AcDbLine
 10
-12.512393
 20
33.359077
 30
0.0
 11
-13.038356
 21
31.492191
 31
0.0
  0
LINE
  5
2bd
100
AcDbEntity
  8
rim
 62
1
100
AcDbLine
 10
-13.038356
 20
31.492191
 30
0.0
 11
-13.767616
 21
29.697636
 31
0.0
  0
LINE
  5
2be
100
AcDbEntity
  8
rim
 62
1
100
AcDbLine
 10
-13.767616
 20
29.697636
 30
0.0
 11
-14.701924
 21
28.001136
 31
0.0
  0
LINE
  5
2bf
100
AcDbEntity
  8
rim
 62
1
100
AcDbLine
 10
-14.701924
 20
28.001136
 30
0.0
 11
-15.843030
 21
26.428419
 31
0.0
  0
LINE
  5
2c0
100
AcDbEntity
  8
rim
 62
1
100
AcDbLine
 10
-15.843030
 20
26.428419
 30
0.0
 11
-17.192684
 21
25.005212
 31
0.0
  0
LINE
  5
2c1
100
AcDbEntity
  8
rim
 62
1
100
AcDbLine
 10
-17.192684
 20
25.005212
 30
0.0
 11
-18.308884
 21
23.998748
 31
0.0
  0
LINE
  5
2c2
100
AcDbEntity
  8
rim
 62
1
100
AcDbLine
 10
-18.308884
 20
23.998748
 30
0.0
 11
-19.493416
 21
23.040923
 31
0.0
  0
LINE
  5
2c3
100
AcDbEntity
  8
rim
 62
1
100
AcDbLine
 10
-19.493416
 20
23.040923
 30
0.0
 11
-20.724822
 21
22.172274
 31
0.0
  0
LINE
  5
2c4
100
AcDbEntity
  8
rim
 62
1
100
AcDbLine
 10
-20.724822
 20
22.172274
 30
0.0
 11
-21.981643
 21
21.433337
 31
0.0
  0
LINE
  5
2c5
100
AcDbEntity
  8
rim
 62
1
100
AcDbLine
 10
-21.981643
 20
21.433337
 30
0.0
 11
-22.636954
 21
22.413340
 31
0.0
  0
LINE
  5
2c6
100
AcDbEntity
  8
rim
 62
1
100
AcDbLine
 10
-22.636954
 20
22.413340
 30
0.0
 11
-23.440102
 21
23.248031
 31
0.0
  0
LINE
  5
2c7
100
AcDbEntity
  8
rim
 62
1
100
AcDbLine
 10
-23.440102
 20
23.248031
 30
0.0
 11
-24.339463
 21
23.987711
 31
0.0
  0
LINE
  5
2c8
100
AcDbEntity
  8
rim
 62
1
100
AcDbLine
 10
-24.339463
 20
23.987711
 30
0.0
 11
-25.283420
 21
24.682680
 31
0.0
  0
LINE
  5
2c9
100
AcDbEntity
  8
rim
 62
1
100
AcDbLine
 10
-25.283420
 20
24.682680
 30
0.0
 11
-26.220347
 21
25.383240
 31
0.0
  0
LINE
  5
2ca
100
AcDbEntity
  8
rim
 62
1
100
AcDbLine
 10
-26.220347
 20
25.383240
 30
0.0
 11
-27.098625
 21
26.139692
 31
0.0
  0
LINE
  5
2cb
100
AcDbEntity
  8
rim
 62
1
100
AcDbLine
 10
-27.098625
 20
26.139692
 30
0.0
 11
-27.866636
 21
27.002329
 31
0.0
  0
LINE
  5
2cc
100
AcDbEntity
  8
rim
 62
1
100
AcDbLine
 10
-27.866636
 20
27.002329
 30
0.0
 11
-28.472754
 21
28.021462
 31
0.0
  0
LINE
  5
2cd
100
AcDbEntity
  8
rim
 62
1
100
AcDbLine
 10
-28.472754
 20
28.021462
 30
0.0
 11
-28.891989
 21
28.175552
 31
0.0
  0
LINE
  5
2ce
100
AcDbEntity
  8
rim
 62
1
100
AcDbLine
 10
-28.891989
 20
28.175552
 30
0.0
 11
-29.309802
 21
28.157829
 31
0.0
  0
LINE
  5
2cf
100
AcDbEntity
  8
rim
 62
1
100
AcDbLine
 10
-29.309802
 20
28.157829
 30
0.0
 11
-29.725284
 21
28.007596
 31
0.0
  0
LINE
  5
2d0
100
AcDbEntity
  8
rim
 62
1
100
AcDbLine
 10
-29.725284
 20
28.007596
 30
0.0
 11
-30.137526
 21
27.764205
 31
0.0
  0
LINE
  5
2d1
100
AcDbEntity
  8
rim
 62
1
100
AcDbLine
 10
-30.137526
 20
27.764205
 30
0.0
 11
-30.948661
 21
27.155257
 31
0.0
  0
LINE
  5
2d2
100
AcDbEntity
  8
rim
 62
1
100
AcDbLine
 10
-30.948661
 20
27.155257
 30
0.0
 11
-31.735948
 21
26.645640
 31
0.0
  0
LINE
  5
2d3
100
AcDbEntity
  8
rim
 62
1
100
AcDbLine
 10
-31.735948
 20
26.645640
 30
0.0
 11
-33.546124
 21
25.286156
 31
0.0
  0
LINE
  5
2d4
100
AcDbEntity
  8
rim
 62
1
100
AcDbLine
 10
-33.546124
 20
25.286156
 30
0.0
 11
-35.188991
 21
23.723059
 31
0.0
  0
LINE
  5
2d5
100
AcDbEntity
  8
rim
 62
1
100
AcDbLine
 10
-35.188991
 20
23.723059
 30
0.0
 11
-36.639221
 21
21.980069
 31
0.0
  0
LINE
  5
2d6
100
AcDbEntity
  8
rim
 62
1
100
AcDbLine
 10
-36.639221
 20
21.980069
 30
0.0
 11
-37.871490
 21
20.080903
 31
0.0
  0
LINE
  5
2d7
100
AcDbEntity
  8
rim
 62
1
100
AcDbLine
 10
-37.871490
 20
20.080903
 30
0.0
 11
-38.860473
 21
18.049275
 31
0.0
  0
LINE
  5
2d8
100
AcDbEntity
  8
rim
 62
1
100
AcDbLine
 10
-38.860473
 20
18.049275
 30
0.0
 11
-39.580837
 21
15.908908
 31
0.0
  0
LINE
  5
2d9
100
AcDbEntity
  8
rim
 62
1
100
AcDbLine
 10
-39.580837
 20
15.908908
 30
0.0
 11
-40.007263
 21
13.683518
 31
0.0
  0
LINE
  5
2da
100
AcDbEntity
  8
rim
 62
1
100
AcDbLine
 10
-40.007263
 20
13.683518
 30
0.0
 11
-40.114420
 21
11.396820
 31
0.0
  0
LINE
  5
2db
100
AcDbEntity
  8
rim
 62
1
100
AcDbLine
 10
-40.114420
 20
11.396820
 30
0.0
 11
-40.126753
 21
10.490458
 31
0.0
  0
LINE
  5
2dc
100
AcDbEntity
  8
rim
 62
1
100
AcDbLine
 10
-40.126753
 20
10.490458
 30
0.0
 11
-40.026646
 21
9.536730
 31
0.0
  0
LINE
  5
2dd
100
AcDbEntity
  8
rim
 62
1
100
AcDbLine
 10
-40.026646
 20
9.536730
 30
0.0
 11
-39.968178
 21
9.150730
 31
0.0
  0
LINE
  5
2de
100
AcDbEntity
  8
rim
 62
1
100
AcDbLine
 10
-39.968178
 20
9.150730
 30
0.0
 11
-39.760398
 21
8.843217
 31
0.0
  0
LINE
  5
2df
100
AcDbEntity
  8
rim
 62
1
100
AcDbLine
 10
-39.760398
 20
8.843217
 30
0.0
 11
-39.439850
 21
8.593857
 31
0.0
  0
LINE
  5
2e0
100
AcDbEntity
  8
rim
 62
1
100
AcDbLine
 10
-39.439850
 20
8.593857
 30
0.0
 11
-39.043071
 21
8.382306
 31
0.0
  0
LINE
  5
2e1
100
AcDbEntity
  8
rim
 62
1
100
AcDbLine
 10
-39.043071
 20
8.382306
 30
0.0
 11
-38.166991
 21
7.991284
 31
0.0
  0
LINE
  5
2e2
100
AcDbEntity
  8
rim
 62
1
100
AcDbLine
 10
-38.166991
 20
7.991284
 30
0.0
 11
-37.760772
 21
7.771137
 31
0.0
  0
LINE
  5
2e3
100
AcDbEntity
  8
rim
 62
1
100
AcDbLine
 10
-37.760772
 20
7.771137
 30
0.0
 11
-37.424487
 21
7.507445
 31
0.0
  0
LINE
  5
2e4
100
AcDbEntity
  8
rim
 62
1
100
AcDbLine
 10
-37.424487
 20
7.507445
 30
0.0
 11
-37.424487
 21
7.507445
 31
0.0
  0
LINE
  5
2e5
100
AcDbEntity
  8
rim
 62
1
100
AcDbLine
 10
-10.995335
 20
37.815564
 30
0.0
 11
-11.009108
 21
35.562984
 31
0.0
  0
LINE
  5
2e6
100
AcDbEntity
  8
rim
 62
1
100
AcDbLine
 10
-11.009108
 20
35.562984
 30
0.0
 11
-11.324353
 21
33.347732
 31
0.0
  0
LINE
  5
2e7
100
AcDbEntity
  8
rim
 62
1
100
AcDbLine
 10
-11.324353
 20
33.347732
 30
0.0
 11
-11.922712
 21
31.197173
 31
0.0
  0
LINE
  5
2e8
100
AcDbEntity
  8
rim
 62
1
100
AcDbLine
 10
-11.922712
 20
31.197173
 30
0.0
 11
-12.785818
 21
29.138678
 31
0.0
  0
LINE
  5
2e9
100
AcDbEntity
  8
rim
 62
1
100
AcDbLine
 10
-12.785818
 20
29.138678
 30
0.0
 11
-13.895299
 21
27.199617
 31
0.0
  0
LINE
  5
2ea
100
AcDbEntity
  8
rim
 62
1
100
AcDbLine
 10
-13.895299
 20
27.199617
 30
0.0
 11
-15.232789
 21
25.407356
 31
0.0
  0
LINE
  5
2eb
100
AcDbEntity
  8
rim
 62
1
100
AcDbLine
 10
-15.232789
 20
25.407356
 30
0.0
 11
-16.779923
 21
23.789266
 31
0.0
  0
LINE
  5
2ec
100
AcDbEntity
  8
rim
 62
1
100
AcDbLine
 10
-16.779923
 20
23.789266
 30
0.0
 11
-18.518327
 21
22.372716
 31
0.0
  0
LINE
  5
2ed
100
AcDbEntity
  8
rim
 62
1
100
AcDbLine
 10
-18.518327
 20
22.372716
 30
0.0
 11
-20.329099
 21
21.056542
 31
0.0
  0
LINE
  5
2ee
100
AcDbEntity
  8
rim
 62
1
100
AcDbLine
 10
-20.329099
 20
21.056542
 30
0.0
 11
-21.285829
 21
20.487054
 31
0.0
  0
LINE
  5
2ef
100
AcDbEntity
  8
rim
 62
1
100
AcDbLine
 10
-21.285829
 20
20.487054
 30
0.0
 11
-22.310688
 21
20.097300
 31
0.0
  0
LINE
  5
2f0
100
AcDbEntity
  8
rim
 62
1
100
AcDbLine
 10
-22.310688
 20
20.097300
 30
0.0
 11
-23.223409
 21
21.333535
 31
0.0
  0
LINE
  5
2f1
100
AcDbEntity
  8
rim
 62
1
100
AcDbLine
 10
-23.223409
 20
21.333535
 30
0.0
 11
-24.254790
 21
22.464614
 31
0.0
  0
LINE
  5
2f2
100
AcDbEntity
  8
rim
 62
1
100
AcDbLine
 10
-24.254790
 20
22.464614
 30
0.0
 11
-25.414348
 21
23.465961
 31
0.0
  0
LINE
  5
2f3
100
AcDbEntity
  8
rim
 62
1
100
AcDbLine
 10
-25.414348
 20
23.465961
 30
0.0
 11
-26.711591
 21
24.312994
 31
0.0
  0
LINE
  5
2f4
100
AcDbEntity
  8
rim
 62
1
100
AcDbLine
 10
-26.711591
 20
24.312994
 30
0.0
 11
-27.411674
 21
24.894790
 31
0.0
  0
LINE
  5
2f5
100
AcDbEntity
  8
rim
 62
1
100
AcDbLine
 10
-27.411674
 20
24.894790
 30
0.0
 11
-28.054969
 21
25.540178
 31
0.0
  0
LINE
  5
2f6
100
AcDbEntity
  8
rim
 62
1
100
AcDbLine
 10
-28.054969
 20
25.540178
 30
0.0
 11
-28.635116
 21
26.242254
 31
0.0
  0
LINE
  5
2f7
100
AcDbEntity
  8
rim
 62
1
100
AcDbLine
 10
-28.635116
 20
26.242254
 30
0.0
 11
-29.145758
 21
26.994105
 31
0.0
  0
LINE
  5
2f8
100
AcDbEntity
  8
rim
 62
1
100
AcDbLine
 10
-29.145758
 20
26.994105
 30
0.0
 11
-30.980290
 21
25.826391
 31
0.0
  0
LINE
  5
2f9
100
AcDbEntity
  8
rim
 62
1
100
AcDbLine
 10
-30.980290
 20
25.826391
 30
0.0
 11
-32.710749
 21
24.480964
 31
0.0
  0
LINE
  5
2fa
100
AcDbEntity
  8
rim
 62
1
100
AcDbLine
 10
-32.710749
 20
24.480964
 30
0.0
 11
-34.300490
 21
22.968287
 31
0.0
  0
LINE
  5
2fb
100
AcDbEntity
  8
rim
 62
1
100
AcDbLine
 10
-34.300490
 20
22.968287
 30
0.0
 11
-35.712874
 21
21.298816
 31
0.0
  0
LINE
  5
2fc
100
AcDbEntity
  8
rim
 62
1
100
AcDbLine
 10
-35.712874
 20
21.298816
 30
0.0
 11
-36.911255
 21
19.483018
 31
0.0
  0
LINE
  5
2fd
100
AcDbEntity
  8
rim
 62
1
100
AcDbLine
 10
-36.911255
 20
19.483018
 30
0.0
 11
-37.858994
 21
17.531347
 31
0.0
  0
LINE
  5
2fe
100
AcDbEntity
  8
rim
 62
1
100
AcDbLine
 10
-37.858994
 20
17.531347
 30
0.0
 11
-38.519444
 21
15.454264
 31
0.0
  0
LINE
  5
2ff
100
AcDbEntity
  8
rim
 62
1
100
AcDbLine
 10
-38.519444
 20
15.454264
 30
0.0
 11
-38.730487
 21
14.371962
 31
0.0
  0
LINE
  5
300
100
AcDbEntity
  8
rim
 62
1
100
AcDbLine
 10
-38.730487
 20
14.371962
 30
0.0
 11
-38.855966
 21
13.262230
 31
0.0
  0
LINE
  5
301
100
AcDbEntity
  8
rim
 62
1
100
AcDbLine
 10
-38.855966
 20
13.262230
 30
0.0
 11
-38.956474
 21
11.810891
 31
0.0
  0
LINE
  5
302
100
AcDbEntity
  8
rim
 62
1
100
AcDbLine
 10
-38.956474
 20
11.810891
 30
0.0
 11
-38.926522
 21
10.378272
 31
0.0
  0
LINE
  5
303
100
AcDbEntity
  8
rim
 62
1
100
AcDbLine
 10
-38.926522
 20
10.378272
 30
0.0
 11
-37.387578
 21
11.199748
 31
0.0
  0
LINE
  5
304
100
AcDbEntity
  8
rim
 62
1
100
AcDbLine
 10
-37.387578
 20
11.199748
 30
0.0
 11
-35.780243
 21
11.833503
 31
0.0
  0
LINE
  5
305
100
AcDbEntity
  8
rim
 62
1
100
AcDbLine
 10
-35.780243
 20
11.833503
 30
0.0
 11
-34.118547
 21
12.296680
 31
0.0
  0
LINE
  5
306
100
AcDbEntity
  8
rim
 62
1
100
AcDbLine
 10
-34.118547
 20
12.296680
 30
0.0
 11
-32.416521
 21
12.606414
 31
0.0
  0
LINE
  5
307
100
AcDbEntity
  8
rim
 62
1
100
AcDbLine
 10
-32.416521
 20
12.606414
 30
0.0
 11
-30.688193
 21
12.779845
 31
0.0
  0
LINE
  5
308
100
AcDbEntity
  8
rim
 62
1
100
AcDbLine
 10
-30.688193
 20
12.779845
 30
0.0
 11
-28.947593
 21
12.834108
 31
0.0
  0
LINE
  5
309
100
AcDbEntity
  8
rim
 62
1
100
AcDbLine
 10
-28.947593
 20
12.834108
 30
0.0
 11
-27.208748
 21
12.786344
 31
0.0
  0
LINE
  5
30a
100
AcDbEntity
  8
rim
 62
1
100
AcDbLine
 10
-27.208748
 20
12.786344
 30
0.0
 11
-25.485688
 21
12.653689
 31
0.0
  0
LINE
  5
30b
100
AcDbEntity
  8
rim
 62
1
100
AcDbLine
 10
-25.485688
 20
12.653689
 30
0.0
 11
-25.188748
 21
12.245990
 31
0.0
  0
LINE
  5
30c
100
AcDbEntity
  8
rim
 62
1
100
AcDbLine
 10
-25.188748
 20
12.245990
 30
0.0
 11
-25.074253
 21
11.804169
 31
0.0
  0
LINE
  5
30d
100
AcDbEntity
  8
rim
 62
1
100
AcDbLine
 10
-25.074253
 20
11.804169
 30
0.0
 11
-25.095759
 21
11.336126
 31
0.0
  0
LINE
  5
30e
100
AcDbEntity
  8
rim
 62
1
100
AcDbLine
 10
-25.095759
 20
11.336126
 30
0.0
 11
-25.206836
 21
10.849755
 31
0.0
  0
LINE
  5
30f
100
AcDbEntity
  8
rim
 62
1
100
AcDbLine
 10
-25.206836
 20
10.849755
 30
0.0
 11
-25.511921
 21
9.853627
 31
0.0
  0
LINE
  5
310
100
AcDbEntity
  8
rim
 62
1
100
AcDbLine
 10
-25.511921
 20
9.853627
 30
0.0
 11
-25.613047
 21
9.359664
 31
0.0
  0
LINE
  5
311
100
AcDbEntity
  8
rim
 62
1
100
AcDbLine
 10
-25.613047
 20
9.359664
 30
0.0
 11
-25.617957
 21
8.878966
 31
0.0
  0
LINE
  5
312
100
AcDbEntity
  8
rim
 62
1
100
AcDbLine
 10
-25.617957
 20
8.878966
 30
0.0
 11
-25.755558
 21
7.490264
 31
0.0
  0
LINE
  5
313
100
AcDbEntity
  8
rim
 62
1
100
AcDbLine
 10
-25.755558
 20
7.490264
 30
0.0
 11
-25.771052
 21
6.097545
 31
0.0
  0
LINE
  5
314
100
AcDbEntity
  8
rim
 62
1
100
AcDbLine
 10
-25.771052
 20
6.097545
 30
0.0
 11
-25.661270
 21
4.713477
 31
0.0
  0
LINE
  5
315
100
AcDbEntity
  8
rim
 62
1
100
AcDbLine
 10
-25.661270
 20
4.713477
 30
0.0
 11
-25.423032
 21
3.350727
 31
0.0
  0
LINE
  5
316
100
AcDbEntity
  8
rim
 62
1
100
AcDbLine
 10
-25.423032
 20
3.350727
 30
0.0
 11
-25.053169
 21
2.021957
 31
0.0
  0
LINE
  5
317
100
AcDbEntity
  8
rim
 62
1
100
AcDbLine
 10
-25.053169
 20
2.021957
 30
0.0
 11
-24.548499
 21
0.739833
 31
0.0
  0
LINE
  5
318
100
AcDbEntity
  8
rim
 62
1
100
AcDbLine
 10
-24.548499
 20
0.739833
 30
0.0
 11
-23.905853
 21
-0.482977
 31
0.0
  0
LINE
  5
319
100
AcDbEntity
  8
rim
 62
1
100
AcDbLine
 10
-23.905853
 20
-0.482977
 30
0.0
 11
-23.122055
 21
-1.633811
 31
0.0
  0
LINE
  5
31a
100
AcDbEntity
  8
rim
 62
1
100
AcDbLine
 10
-23.122055
 20
-1.633811
 30
0.0
 11
-21.642903
 21
-0.618940
 31
0.0
  0
LINE
  5
31b
100
AcDbEntity
  8
rim
 62
1
100
AcDbLine
 10
-21.642903
 20
-0.618940
 30
0.0
 11
-20.383847
 21
0.604231
 31
0.0
  0
LINE
  5
31c
100
AcDbEntity
  8
rim
 62
1
100
AcDbLine
 10
-20.383847
 20
0.604231
 30
0.0
 11
-19.312176
 21
1.995643
 31
0.0
  0
LINE
  5
31d
100
AcDbEntity
  8
rim
 62
1
100
AcDbLine
 10
-19.312176
 20
1.995643
 30
0.0
 11
-18.395163
 21
3.515229
 31
0.0
  0
LINE
  5
31e
100
AcDbEntity
  8
rim
 62
1
100
AcDbLine
 10
-18.395163
 20
3.515229
 30
0.0
 11
-17.600089
 21
5.122933
 31
0.0
  0
LINE
  5
31f
100
AcDbEntity
  8
rim
 62
1
100
AcDbLine
 10
-17.600089
 20
5.122933
 30
0.0
 11
-16.894237
 21
6.778688
 31
0.0
  0
LINE
  5
320
100
AcDbEntity
  8
rim
 62
1
100
AcDbLine
 10
-16.894237
 20
6.778688
 30
0.0
 11
-15.619309
 21
10.074121
 31
0.0
  0
LINE
  5
321
100
AcDbEntity
  8
rim
 62
1
100
AcDbLine
 10
-15.619309
 20
10.074121
 30
0.0
 11
-14.974344
 21
10.091026
 31
0.0
  0
LINE
  5
322
100
AcDbEntity
  8
rim
 62
1
100
AcDbLine
 10
-14.974344
 20
10.091026
 30
0.0
 11
-14.320907
 21
9.997142
 31
0.0
  0
LINE
  5
323
100
AcDbEntity
  8
rim
 62
1
100
AcDbLine
 10
-14.320907
 20
9.997142
 30
0.0
 11
-13.002872
 21
9.573956
 31
0.0
  0
LINE
  5
324
100
AcDbEntity
  8
rim
 62
1
100
AcDbLine
 10
-13.002872
 20
9.573956
 30
0.0
 11
-10.422055
 21
8.464453
 31
0.0
  0
LINE
  5
325
100
AcDbEntity
  8
rim
 62
1
100
AcDbLine
 10
-10.422055
 20
8.464453
 30
0.0
 11
-7.629336
 21
6.998686
 31
0.0
  0
LINE
  5
326
100
AcDbEntity
  8
rim
 62
1
100
AcDbLine
 10
-7.629336
 20
6.998686
 30
0.0
 11
-4.985072
 21
5.274769
 31
0.0
  0
LINE
  5
327
100
AcDbEntity
  8
rim
 62
1
100
AcDbLine
 10
-4.985072
 20
5.274769
 30
0.0
 11
-2.495045
 21
3.331090
 31
0.0
  0
LINE
  5
328
100
AcDbEntity
  8
rim
 62
1
100
AcDbLine
 10
-2.495045
 20
3.331090
 30
0.0
 11
-0.165041
 21
1.206050
 31
0.0
  0
LINE
  5
329
100
AcDbEntity
  8
rim
 62
1
100
AcDbLine
 10
-0.165041
 20
1.206050
 30
0.0
 11
0.303378
 21
3.211165
 31
0.0
  0
LINE
  5
32a
100
AcDbEntity
  8
rim
 62
1
100
AcDbLine
 10
0.303378
 20
3.211165
 30
0.0
 11
0.667704
 21
5.243772
 31
0.0
  0
LINE
  5
32b
100
AcDbEntity
  8
rim
 62
1
100
AcDbLine
 10
0.667704
 20
5.243772
 30
0.0
 11
0.921258
 21
7.295824
 31
0.0
  0
LINE
  5
32c
100
AcDbEntity
  8
rim
 62
1
100
AcDbLine
 10
0.921258
 20
7.295824
 30
0.0
 11
1.057357
 21
9.359275
 31
0.0
  0
LINE
  5
32d
100
AcDbEntity
  8
rim
 62
1
100
AcDbLine
 10
1.057357
 20
9.359275
 30
0.0
 11
1.069323
 21
11.426076
 31
0.0
  0
LINE
  5
32e
100
AcDbEntity
  8
rim
 62
1
100
AcDbLine
 10
1.069323
 20
11.426076
 30
0.0
 11
0.950468
 21
13.488183
 31
0.0
  0
LINE
  5
32f
100
AcDbEntity
  8
rim
 62
1
100
AcDbLine
 10
0.950468
 20
13.488183
 30
0.0
 11
0.694114
 21
15.537545
 31
0.0
  0
LINE
  5
330
100
AcDbEntity
  8
rim
 62
1
100
AcDbLine
 10
0.694114
 20
15.537545
 30
0.0
 11
0.293576
 21
17.566119
 31
0.0
  0
LINE
  5
331
100
AcDbEntity
  8
rim
 62
1
100
AcDbLine
 10
0.293576
 20
17.566119
 30
0.0
 11
-3.322681
 21
16.938513
 31
0.0
  0
LINE
  5
332
100
AcDbEntity
  8
rim
 62
1
100
AcDbLine
 10
-3.322681
 20
16.938513
 30
0.0
 11
-5.175174
 21
16.757756
 31
0.0
  0
LINE
  5
333
100
AcDbEntity
  8
rim
 62
1
100
AcDbLine
 10
-5.175174
 20
16.757756
 30
0.0
 11
-7.028544
 21
16.714872
 31
0.0
  0
LINE
  5
334
100
AcDbEntity
  8
rim
 62
1
100
AcDbLine
 10
-7.028544
 20
16.714872
 30
0.0
 11
-8.861270
 21
16.846743
 31
0.0
  0
LINE
  5
335
100
AcDbEntity
  8
rim
 62
1
100
AcDbLine
 10
-8.861270
 20
16.846743
 30
0.0
 11
-10.651834
 21
17.190253
 31
0.0
  0
LINE
  5
336
100
AcDbEntity
  8
rim
 62
1
100
AcDbLine
 10
-10.651834
 20
17.190253
 30
0.0
 11
-12.378713
 21
17.782290
 31
0.0
  0
LINE
  5
337
100
AcDbEntity
  8
rim
 62
1
100
AcDbLine
 10
-12.378713
 20
17.782290
 30
0.0
 11
-14.020382
 21
18.659730
 31
0.0
  0
LINE
  5
338
100
AcDbEntity
  8
rim
 62
1
100
AcDbLine
 10
-14.020382
 20
18.659730
 30
0.0
 11
-14.138636
 21
19.151240
 31
0.0
  0
LINE
  5
339
100
AcDbEntity
  8
rim
 62
1
100
AcDbLine
 10
-14.138636
 20
19.151240
 30
0.0
 11
-14.105735
 21
19.647452
 31
0.0
  0
LINE
  5
33a
100
AcDbEntity
  8
rim
 62
1
100
AcDbLine
 10
-14.105735
 20
19.647452
 30
0.0
 11
-13.953829
 21
20.144490
 31
0.0
  0
LINE
  5
33b
100
AcDbEntity
  8
rim
 62
1
100
AcDbLine
 10
-13.953829
 20
20.144490
 30
0.0
 11
-13.715066
 21
20.638464
 31
0.0
  0
LINE
  5
33c
100
AcDbEntity
  8
rim
 62
1
100
AcDbLine
 10
-13.715066
 20
20.638464
 30
0.0
 11
-12.534494
 21
22.506114
 31
0.0
  0
LINE
  5
33d
100
AcDbEntity
  8
rim
 62
1
100
AcDbLine
 10
-12.534494
 20
22.506114
 30
0.0
 11
-11.646239
 21
23.639307
 31
0.0
  0
LINE
  5
33e
100
AcDbEntity
  8
rim
 62
1
100
AcDbLine
 10
-11.646239
 20
23.639307
 30
0.0
 11
-10.647423
 21
24.664573
 31
0.0
  0
LINE
  5
33f
100
AcDbEntity
  8
rim
 62
1
100
AcDbLine
 10
-10.647423
 20
24.664573
 30
0.0
 11
-9.552257
 21
25.584527
 31
0.0
  0
LINE
  5
340
100
AcDbEntity
  8
rim
 62
1
100
AcDbLine
 10
-9.552257
 20
25.584527
 30
0.0
 11
-8.374944
 21
26.401791
 31
0.0
  0
LINE
  5
341
100
AcDbEntity
  8
rim
 62
1
100
AcDbLine
 10
-8.374944
 20
26.401791
 30
0.0
 11
-7.129693
 21
27.118977
 31
0.0
  0
LINE
  5
342
100
AcDbEntity
  8
rim
 62
1
100
AcDbLine
 10
-7.129693
 20
27.118977
 30
0.0
 11
-5.830708
 21
27.738706
 31
0.0
  0
LINE
  5
343
100
AcDbEntity
  8
rim
 62
1
100
AcDbLine
 10
-5.830708
 20
27.738706
 30
0.0
 11
-4.492199
 21
28.263595
 31
0.0
  0
LINE
  5
344
100
AcDbEntity
  8
rim
 62
1
100
AcDbLine
 10
-4.492199
 20
28.263595
 30
0.0
 11
-3.128368
 21
28.696258
 31
0.0
  0
LINE
  5
345
100
AcDbEntity
  8
rim
 62
1
100
AcDbLine
 10
-3.128368
 20
28.696258
 30
0.0
 11
-4.579739
 21
31.444016
 31
0.0
  0
LINE
  5
346
100
AcDbEntity
  8
rim
 62
1
100
AcDbLine
 10
-4.579739
 20
31.444016
 30
0.0
 11
-5.417374
 21
32.758630
 31
0.0
  0
LINE
  5
347
100
AcDbEntity
  8
rim
 62
1
100
AcDbLine
 10
-5.417374
 20
32.758630
 30
0.0
 11
-6.338945
 21
34.010889
 31
0.0
  0
LINE
  5
348
100
AcDbEntity
  8
rim
 62
1
100
AcDbLine
 10
-6.338945
 20
34.010889
 30
0.0
 11
-7.351432
 21
35.183661
 31
0.0
  0
LINE
  5
349
100
AcDbEntity
  8
rim
 62
1
100
AcDbLine
 10
-7.351432
 20
35.183661
 30
0.0
 11
-8.461804
 21
36.259808
 31
0.0
  0
LINE
  5
34a
100
AcDbEntity
  8
rim
 62
1
100
AcDbLine
 10
-8.461804
 20
36.259808
 30
0.0
 11
-9.677047
 21
37.222194
 31
0.0
  0
LINE
  5
34b
100
AcDbEntity
  8
rim
 62
1
100
AcDbLine
 10
-9.677047
 20
37.222194
 30
0.0
 11
-11.004132
 21
38.053689
 31
0.0
  0
LINE
  5
34c
100
AcDbEntity
  8
rim
 62
1
100
AcDbLine
 10
-11.004132
 20
38.053689
 30
0.0
 11
-10.995327
 21
37.815564
 31
0.0
  0
LINE
  5
34d
100
AcDbEntity
  8
rim
 62
1
100
AcDbLine
 10
-10.995327
 20
37.815564
 30
0.0
 11
-10.995313
 21
37.815564
 31
0.0
  0
LINE
  5
34e
100
AcDbEntity
  8
rim
 62
1
100
AcDbLine
 10
-29.727835
 20
11.665911
 30
0.0
 11
-31.992147
 21
11.511916
 31
0.0
  0
LINE
  5
34f
100
AcDbEntity
  8
rim
 62
1
100
AcDbLine
 10
-31.992147
 20
11.511916
 30
0.0
 11
-34.221426
 21
11.108787
 31
0.0
  0
LINE
  5
350
100
AcDbEntity
  8
rim
 62
1
100
AcDbLine
 10
-34.221426
 20
11.108787
 30
0.0
 11
-36.375698
 21
10.419773
 31
0.0
  0
LINE
  5
351
100
AcDbEntity
  8
rim
 62
1
100
AcDbLine
 10
-36.375698
 20
10.419773
 30
0.0
 11
-37.412216
 21
9.956578
 31
0.0
  0
LINE
  5
352
100
AcDbEntity
  8
rim
 62
1
100
AcDbLine
 10
-37.412216
 20
9.956578
 30
0.0
 11
-38.414988
 21
9.408133
 31
0.0
  0
LINE
  5
353
100
AcDbEntity
  8
rim
 62
1
100
AcDbLine
 10
-38.414988
 20
9.408133
 30
0.0
 11
-36.432146
 21
8.280867
 31
0.0
  0
LINE
  5
354
100
AcDbEntity
  8
rim
 62
1
100
AcDbLine
 10
-36.432146
 20
8.280867
 30
0.0
 11
-34.632702
 21
6.901052
 31
0.0
  0
LINE
  5
355
100
AcDbEntity
  8
rim
 62
1
100
AcDbLine
 10
-34.632702
 20
6.901052
 30
0.0
 11
-33.032776
 21
5.299923
 31
0.0
  0
LINE
  5
356
100
AcDbEntity
  8
rim
 62
1
100
AcDbLine
 10
-33.032776
 20
5.299923
 30
0.0
 11
-31.648487
 21
3.508712
 31
0.0
  0
LINE
  5
357
100
AcDbEntity
  8
rim
 62
1
100
AcDbLine
 10
-31.648487
 20
3.508712
 30
0.0
 11
-30.495960
 21
1.558655
 31
0.0
  0
LINE
  5
358
100
AcDbEntity
  8
rim
 62
1
100
AcDbLine
 10
-30.495960
 20
1.558655
 30
0.0
 11
-29.591308
 21
-0.519019
 31
0.0
  0
LINE
  5
359
100
AcDbEntity
  8
rim
 62
1
100
AcDbLine
 10
-29.591308
 20
-0.519019
 30
0.0
 11
-28.950658
 21
-2.693076
 31
0.0
  0
LINE
  5
35a
100
AcDbEntity
  8
rim
 62
1
100
AcDbLine
 10
-28.950658
 20
-2.693076
 30
0.0
 11
-28.590127
 21
-4.932284
 31
0.0
  0
LINE
  5
35b
100
AcDbEntity
  8
rim
 62
1
100
AcDbLine
 10
-28.590127
 20
-4.932284
 30
0.0
 11
-28.351054
 21
-7.159028
 31
0.0
  0
LINE
  5
35c
100
AcDbEntity
  8
rim
 62
1
100
AcDbLine
 10
-28.351054
 20
-7.159028
 30
0.0
 11
-28.338523
 21
-8.276340
 31
0.0
  0
LINE
  5
35d
100
AcDbEntity
  8
rim
 62
1
100
AcDbLine
 10
-28.338523
 20
-8.276340
 30
0.0
 11
-28.510761
 21
-9.359645
 31
0.0
  0
LINE
  5
35e
100
AcDbEntity
  8
rim
 62
1
100
AcDbLine
 10
-28.510761
 20
-9.359645
 30
0.0
 11
-30.039462
 21
-9.534476
 31
0.0
  0
LINE
  5
35f
100
AcDbEntity
  8
rim
 62
1
100
AcDbLine
 10
-30.039462
 20
-9.534476
 30
0.0
 11
-31.538226
 21
-9.861811
 31
0.0
  0
LINE
  5
360
100
AcDbEntity
  8
rim
 62
1
100
AcDbLine
 10
-31.538226
 20
-9.861811
 30
0.0
 11
-32.989492
 21
-10.365809
 31
0.0
  0
LINE
  5
361
100
AcDbEntity
  8
rim
 62
1
100
AcDbLine
 10
-32.989492
 20
-10.365809
 30
0.0
 11
-34.375691
 21
-11.070617
 31
0.0
  0
LINE
  5
362
100
AcDbEntity
  8
rim
 62
1
100
AcDbLine
 10
-34.375691
 20
-11.070617
 30
0.0
 11
-36.100828
 21
-11.612698
 31
0.0
  0
LINE
  5
363
100
AcDbEntity
  8
rim
 62
1
100
AcDbLine
 10
-36.100828
 20
-11.612698
 30
0.0
 11
-36.992377
 21
-11.764672
 31
0.0
  0
LINE
  5
364
100
AcDbEntity
  8
rim
 62
1
100
AcDbLine
 10
-36.992377
 20
-11.764672
 30
0.0
 11
-37.894649
 21
-11.829089
 31
0.0
  0
LINE
  5
365
100
AcDbEntity
  8
rim
 62
1
100
AcDbLine
 10
-37.894649
 20
-11.829089
 30
0.0
 11
-37.807305
 21
-14.043439
 31
0.0
  0
LINE
  5
366
100
AcDbEntity
  8
rim
 62
1
100
AcDbLine
 10
-37.807305
 20
-14.043439
 30
0.0
 11
-37.498486
 21
-16.254729
 31
0.0
  0
LINE
  5
367
100
AcDbEntity
  8
rim
 62
1
100
AcDbLine
 10
-37.498486
 20
-16.254729
 30
0.0
 11
-36.961640
 21
-18.424030
 31
0.0
  0
LINE
  5
368
100
AcDbEntity
  8
rim
 62
1
100
AcDbLine
 10
-36.961640
 20
-18.424030
 30
0.0
 11
-36.190211
 21
-20.512401
 31
0.0
  0
LINE
  5
369
100
AcDbEntity
  8
rim
 62
1
100
AcDbLine
 10
-36.190211
 20
-20.512401
 30
0.0
 11
-35.177645
 21
-22.480909
 31
0.0
  0
LINE
  5
36a
100
AcDbEntity
  8
rim
 62
1
100
AcDbLine
 10
-35.177645
 20
-22.480909
 30
0.0
 11
-33.917385
 21
-24.290620
 31
0.0
  0
LINE
  5
36b
100
AcDbEntity
  8
rim
 62
1
100
AcDbLine
 10
-33.917385
 20
-24.290620
 30
0.0
 11
-33.192322
 21
-25.123757
 31
0.0
  0
LINE
  5
36c
100
AcDbEntity
  8
rim
 62
1
100
AcDbLine
 10
-33.192322
 20
-25.123757
 30
0.0
 11
-32.402876
 21
-25.902597
 31
0.0
  0
LINE
  5
36d
100
AcDbEntity
  8
rim
 62
1
100
AcDbLine
 10
-32.402876
 20
-25.902597
 30
0.0
 11
-31.548231
 21
-26.622266
 31
0.0
  0
LINE
  5
36e
100
AcDbEntity
  8
rim
 62
1
100
AcDbLine
 10
-31.548231
 20
-26.622266
 30
0.0
 11
-30.627563
 21
-27.277903
 31
0.0
  0
LINE
  5
36f
100
AcDbEntity
  8
rim
 62
1
100
AcDbLine
 10
-30.627563
 20
-27.277903
 30
0.0
 11
-29.527328
 21
-27.995952
 31
0.0
  0
LINE
  5
370
100
AcDbEntity
  8
rim
 62
1
100
AcDbLine
 10
-29.527328
 20
-27.995952
 30
0.0
 11
-28.404927
 21
-28.612492
 31
0.0
  0
LINE
  5
371
100
AcDbEntity
  8
rim
 62
1
100
AcDbLine
 10
-28.404927
 20
-28.612492
 30
0.0
 11
-28.346589
 21
-26.866947
 31
0.0
  0
LINE
  5
372
100
AcDbEntity
  8
rim
 62
1
100
AcDbLine
 10
-28.346589
 20
-26.866947
 30
0.0
 11
-28.091785
 21
-25.156647
 31
0.0
  0
LINE
  5
373
100
AcDbEntity
  8
rim
 62
1
100
AcDbLine
 10
-28.091785
 20
-25.156647
 30
0.0
 11
-27.662192
 21
-23.485129
 31
0.0
  0
LINE
  5
374
100
AcDbEntity
  8
rim
 62
1
100
AcDbLine
 10
-27.662192
 20
-23.485129
 30
0.0
 11
-27.079493
 21
-21.855934
 31
0.0
  0
LINE
  5
375
100
AcDbEntity
  8
rim
 62
1
100
AcDbLine
 10
-27.079493
 20
-21.855934
 30
0.0
 11
-26.365367
 21
-20.272597
 31
0.0
  0
LINE
  5
376
100
AcDbEntity
  8
rim
 62
1
100
AcDbLine
 10
-26.365367
 20
-20.272597
 30
0.0
 11
-25.541498
 21
-18.738654
 31
0.0
  0
LINE
  5
377
100
AcDbEntity
  8
rim
 62
1
100
AcDbLine
 10
-25.541498
 20
-18.738654
 30
0.0
 11
-24.629564
 21
-17.257650
 31
0.0
  0
LINE
  5
378
100
AcDbEntity
  8
rim
 62
1
100
AcDbLine
 10
-24.629564
 20
-17.257650
 30
0.0
 11
-23.651247
 21
-15.833117
 31
0.0
  0
LINE
  5
379
100
AcDbEntity
  8
rim
 62
1
100
AcDbLine
 10
-23.651247
 20
-15.833117
 30
0.0
 11
-23.153390
 21
-15.780022
 31
0.0
  0
LINE
  5
37a
100
AcDbEntity
  8
rim
 62
1
100
AcDbLine
 10
-23.153390
 20
-15.780022
 30
0.0
 11
-22.715355
 21
-15.899998
 31
0.0
  0
LINE
  5
37b
100
AcDbEntity
  8
rim
 62
1
100
AcDbLine
 10
-22.715355
 20
-15.899998
 30
0.0
 11
-22.321187
 21
-16.150002
 31
0.0
  0
LINE
  5
37c
100
AcDbEntity
  8
rim
 62
1
100
AcDbLine
 10
-22.321187
 20
-16.150002
 30
0.0
 11
-21.954925
 21
-16.486992
 31
0.0
  0
LINE
  5
37d
100
AcDbEntity
  8
rim
 62
1
100
AcDbLine
 10
-21.954925
 20
-16.486992
 30
0.0
 11
-21.242291
 21
-17.249754
 31
0.0
  0
LINE
  5
37e
100
AcDbEntity
  8
rim
 62
1
100
AcDbLine
 10
-21.242291
 20
-17.249754
 30
0.0
 11
-20.864003
 21
-17.589445
 31
0.0
  0
LINE
  5
37f
100
AcDbEntity
  8
rim
 62
1
100
AcDbLine
 10
-20.864003
 20
-17.589445
 30
0.0
 11
-20.449788
 21
-17.843950
 31
0.0
  0
LINE
  5
380
100
AcDbEntity
  8
rim
 62
1
100
AcDbLine
 10
-20.449788
 20
-17.843950
 30
0.0
 11
-19.318216
 21
-18.651351
 31
0.0
  0
LINE
  5
381
100
AcDbEntity
  8
rim
 62
1
100
AcDbLine
 10
-19.318216
 20
-18.651351
 30
0.0
 11
-18.121537
 21
-19.357344
 31
0.0
  0
LINE
  5
382
100
AcDbEntity
  8
rim
 62
1
100
AcDbLine
 10
-18.121537
 20
-19.357344
 30
0.0
 11
-16.868905
 21
-19.952260
 31
0.0
  0
LINE
  5
383
100
AcDbEntity
  8
rim
 62
1
100
AcDbLine
 10
-16.868905
 20
-19.952260
 30
0.0
 11
-15.569480
 21
-20.426419
 31
0.0
  0
LINE
  5
384
100
AcDbEntity
  8
rim
 62
1
100
AcDbLine
 10
-15.569480
 20
-20.426419
 30
0.0
 11
-14.232413
 21
-20.770140
 31
0.0
  0
LINE
  5
385
100
AcDbEntity
  8
rim
 62
1
100
AcDbLine
 10
-14.232413
 20
-20.770140
 30
0.0
 11
-12.866864
 21
-20.973752
 31
0.0
  0
LINE
  5
386
100
AcDbEntity
  8
rim
 62
1
100
AcDbLine
 10
-12.866864
 20
-20.973752
 30
0.0
 11
-11.481988
 21
-21.027578
 31
0.0
  0
LINE
  5
387
100
AcDbEntity
  8
rim
 62
1
100
AcDbLine
 10
-11.481988
 20
-21.027578
 30
0.0
 11
-10.086941
 21
-20.921936
 31
0.0
  0
LINE
  5
388
100
AcDbEntity
  8
rim
 62
1
100
AcDbLine
 10
-10.086941
 20
-20.921936
 30
0.0
 11
-10.235520
 21
-19.122685
 31
0.0
  0
LINE
  5
389
100
AcDbEntity
  8
rim
 62
1
100
AcDbLine
 10
-10.235520
 20
-19.122685
 30
0.0
 11
-10.672405
 21
-17.415672
 31
0.0
  0
LINE
  5
38a
100
AcDbEntity
  8
rim
 62
1
100
AcDbLine
 10
-10.672405
 20
-17.415672
 30
0.0
 11
-11.346403
 21
-15.791376
 31
0.0
  0
LINE
  5
38b
100
AcDbEntity
  8
rim
 62
1
100
AcDbLine
 10
-11.346403
 20
-15.791376
 30
0.0
 11
-12.206320
 21
-14.240272
 31
0.0
  0
LINE
  5
38c
100
AcDbEntity
  8
rim
 62
1
100
AcDbLine
 10
-12.206320
 20
-14.240272
 30
0.0
 11
-13.200961
 21
-12.752842
 31
0.0
  0
LINE
  5
38d
100
AcDbEntity
  8
rim
 62
1
100
AcDbLine
 10
-13.200961
 20
-12.752842
 30
0.0
 11
-14.279135
 21
-11.319559
 31
0.0
  0
LINE
  5
38e
100
AcDbEntity
  8
rim
 62
1
100
AcDbLine
 10
-14.279135
 20
-11.319559
 30
0.0
 11
-16.481298
 21
-8.577361
 31
0.0
  0
LINE
  5
38f
100
AcDbEntity
  8
rim
 62
1
100
AcDbLine
 10
-16.481298
 20
-8.577361
 30
0.0
 11
-16.196002
 21
-8.035210
 31
0.0
  0
LINE
  5
390
100
AcDbEntity
  8
rim
 62
1
100
AcDbLine
 10
-16.196002
 20
-8.035210
 30
0.0
 11
-15.814325
 21
-7.538250
 31
0.0
  0
LINE
  5
391
100
AcDbEntity
  8
rim
 62
1
100
AcDbLine
 10
-15.814325
 20
-7.538250
 30
0.0
 11
-14.848504
 21
-6.646233
 31
0.0
  0
LINE
  5
392
100
AcDbEntity
  8
rim
 62
1
100
AcDbLine
 10
-14.848504
 20
-6.646233
 30
0.0
 11
-12.713874
 21
-5.034115
 31
0.0
  0
LINE
  5
393
100
AcDbEntity
  8
rim
 62
1
100
AcDbLine
 10
-12.713874
 20
-5.034115
 30
0.0
 11
-10.001829
 21
-3.294263
 31
0.0
  0
LINE
  5
394
100
AcDbEntity
  8
rim
 62
1
100
AcDbLine
 10
-10.001829
 20
-3.294263
 30
0.0
 11
-7.136810
 21
-1.822638
 31
0.0
  0
LINE
  5
395
100
AcDbEntity
  8
rim
 62
1
100
AcDbLine
 10
-7.136810
 20
-1.822638
 30
0.0
 11
-4.152426
 21
-0.606170
 31
0.0
  0
LINE
  5
396
100
AcDbEntity
  8
rim
 62
1
100
AcDbLine
 10
-4.152426
 20
-0.606170
 30
0.0
 11
-1.082288
 21
0.368203
 31
0.0
  0
LINE
  5
397
100
AcDbEntity
  8
rim
 62
1
100
AcDbLine
 10
-1.082288
 20
0.368203
 30
0.0
 11
-2.585031
 21
1.785602
 31
0.0
  0
LINE
  5
398
100
AcDbEntity
  8
rim
 62
1
100
AcDbLine
 10
-2.585031
 20
1.785602
 30
0.0
 11
-4.166715
 21
3.122748
 31
0.0
  0
LINE
  5
399
100
AcDbEntity
  8
rim
 62
1
100
AcDbLine
 10
-4.166715
 20
3.122748
 30
0.0
 11
-5.822182
 21
4.370672
 31
0.0
  0
LINE
  5
39a
100
AcDbEntity
  8
rim
 62
1
100
AcDbLine
 10
-5.822182
 20
4.370672
 30
0.0
 11
-7.546281
 21
5.520418
 31
0.0
  0
LINE
  5
39b
100
AcDbEntity
  8
rim
 62
1
100
AcDbLine
 10
-7.546281
 20
5.520418
 30
0.0
 11
-9.333851
 21
6.563020
 31
0.0
  0
LINE
  5
39c
100
AcDbEntity
  8
rim
 62
1
100
AcDbLine
 10
-9.333851
 20
6.563020
 30
0.0
 11
-11.179734
 21
7.489516
 31
0.0
  0
LINE
  5
39d
100
AcDbEntity
  8
rim
 62
1
100
AcDbLine
 10
-11.179734
 20
7.489516
 30
0.0
 11
-13.078782
 21
8.290945
 31
0.0
  0
LINE
  5
39e
100
AcDbEntity
  8
rim
 62
1
100
AcDbLine
 10
-13.078782
 20
8.290945
 30
0.0
 11
-15.025830
 21
8.958341
 31
0.0
  0
LINE
  5
39f
100
AcDbEntity
  8
rim
 62
1
100
AcDbLine
 10
-15.025830
 20
8.958341
 30
0.0
 11
-16.284222
 21
5.509529
 31
0.0
  0
LINE
  5
3a0
100
AcDbEntity
  8
rim
 62
1
100
AcDbLine
 10
-16.284222
 20
5.509529
 30
0.0
 11
-17.053086
 21
3.811633
 31
0.0
  0
LINE
  5
3a1
100
AcDbEntity
  8
rim
 62
1
100
AcDbLine
 10
-17.053086
 20
3.811633
 30
0.0
 11
-17.942955
 21
2.182000
 31
0.0
  0
LINE
  5
3a2
100
AcDbEntity
  8
rim
 62
1
100
AcDbLine
 10
-17.942955
 20
2.182000
 30
0.0
 11
-18.974751
 21
0.658578
 31
0.0
  0
LINE
  5
3a3
100
AcDbEntity
  8
rim
 62
1
100
AcDbLine
 10
-18.974751
 20
0.658578
 30
0.0
 11
-20.169392
 21
-0.720693
 31
0.0
  0
LINE
  5
3a4
100
AcDbEntity
  8
rim
 62
1
100
AcDbLine
 10
-20.169392
 20
-0.720693
 30
0.0
 11
-21.547802
 21
-1.917862
 31
0.0
  0
LINE
  5
3a5
100
AcDbEntity
  8
rim
 62
1
100
AcDbLine
 10
-21.547802
 20
-1.917862
 30
0.0
 11
-23.130899
 21
-2.894992
 31
0.0
  0
LINE
  5
3a6
100
AcDbEntity
  8
rim
 62
1
100
AcDbLine
 10
-23.130899
 20
-2.894992
 30
0.0
 11
-23.630441
 21
-2.732900
 31
0.0
  0
LINE
  5
3a7
100
AcDbEntity
  8
rim
 62
1
100
AcDbLine
 10
-23.630441
 20
-2.732900
 30
0.0
 11
-24.054776
 21
-2.437357
 31
0.0
  0
LINE
  5
3a8
100
AcDbEntity
  8
rim
 62
1
100
AcDbLine
 10
-24.054776
 20
-2.437357
 30
0.0
 11
-24.417551
 21
-2.038239
 31
0.0
  0
LINE
  5
3a9
100
AcDbEntity
  8
rim
 62
1
100
AcDbLine
 10
-24.417551
 20
-2.038239
 30
0.0
 11
-24.732409
 21
-1.565426
 31
0.0
  0
LINE
  5
3aa
100
AcDbEntity
  8
rim
 62
1
100
AcDbLine
 10
-24.732409
 20
-1.565426
 30
0.0
 11
-25.785552
 21
0.465216
 31
0.0
  0
LINE
  5
3ab
100
AcDbEntity
  8
rim
 62
1
100
AcDbLine
 10
-25.785552
 20
0.465216
 30
0.0
 11
-26.295742
 21
1.788198
 31
0.0
  0
LINE
  5
3ac
100
AcDbEntity
  8
rim
 62
1
100
AcDbLine
 10
-26.295742
 20
1.788198
 30
0.0
 11
-26.663585
 21
3.150744
 31
0.0
  0
LINE
  5
3ad
100
AcDbEntity
  8
rim
 62
1
100
AcDbLine
 10
-26.663585
 20
3.150744
 30
0.0
 11
-26.897767
 21
4.542041
 31
0.0
  0
LINE
  5
3ae
100
AcDbEntity
  8
rim
 62
1
100
AcDbLine
 10
-26.897767
 20
4.542041
 30
0.0
 11
-27.006971
 21
5.951269
 31
0.0
  0
LINE
  5
3af
100
AcDbEntity
  8
rim
 62
1
100
AcDbLine
 10
-27.006971
 20
5.951269
 30
0.0
 11
-26.999887
 21
7.367621
 31
0.0
  0
LINE
  5
3b0
100
AcDbEntity
  8
rim
 62
1
100
AcDbLine
 10
-26.999887
 20
7.367621
 30
0.0
 11
-26.885178
 21
8.780279
 31
0.0
  0
LINE
  5
3b1
100
AcDbEntity
  8
rim
 62
1
100
AcDbLine
 10
-26.885178
 20
8.780279
 30
0.0
 11
-26.671538
 21
10.178430
 31
0.0
  0
LINE
  5
3b2
100
AcDbEntity
  8
rim
 62
1
100
AcDbLine
 10
-26.671538
 20
10.178430
 30
0.0
 11
-26.367647
 21
11.551258
 31
0.0
  0
LINE
  5
3b3
100
AcDbEntity
  8
rim
 62
1
100
AcDbLine
 10
-26.367647
 20
11.551258
 30
0.0
 11
-28.046336
 21
11.652421
 31
0.0
  0
LINE
  5
3b4
100
AcDbEntity
  8
rim
 62
1
100
AcDbLine
 10
-28.046336
 20
11.652421
 30
0.0
 11
-29.727855
 21
11.665911
 31
0.0
  0
LINE
  5
3b5
100
AcDbEntity
  8
rim
 62
1
100
AcDbLine
 10
-29.727855
 20
11.665911
 30
0.0
 11
-29.727855
 21
11.665911
 31
0.0
  0
LINE
  5
3b6
100
AcDbEntity
  8
rim
 62
1
100
AcDbLine
 10
-1.126377
 20
-0.787145
 30
0.0
 11
-3.069968
 21
-1.386029
 31
0.0
  0
LINE
  5
3b7
100
AcDbEntity
  8
rim
 62
1
100
AcDbLine
 10
-3.069968
 20
-1.386029
 30
0.0
 11
-4.980500
 21
-2.085364
 31
0.0
  0
LINE
  5
3b8
100
AcDbEntity
  8
rim
 62
1
100
AcDbLine
 10
-4.980500
 20
-2.085364
 30
0.0
 11
-6.849615
 21
-2.887019
 31
0.0
  0
LINE
  5
3b9
100
AcDbEntity
  8
rim
 62
1
100
AcDbLine
 10
-6.849615
 20
-2.887019
 30
0.0
 11
-8.668964
 21
-3.792856
 31
0.0
  0
LINE
  5
3ba
100
AcDbEntity
  8
rim
 62
1
100
AcDbLine
 10
-8.668964
 20
-3.792856
 30
0.0
 11
-10.430191
 21
-4.804742
 31
0.0
  0
LINE
  5
3bb
100
AcDbEntity
  8
rim
 62
1
100
AcDbLine
 10
-10.430191
 20
-4.804742
 30
0.0
 11
-12.124938
 21
-5.924540
 31
0.0
  0
LINE
  5
3bc
100
AcDbEntity
  8
rim
 62
1
100
AcDbLine
 10
-12.124938
 20
-5.924540
 30
0.0
 11
-13.744854
 21
-7.154118
 31
0.0
  0
LINE
  5
3bd
100
AcDbEntity
  8
rim
 62
1
100
AcDbLine
 10
-13.744854
 20
-7.154118
 30
0.0
 11
-15.281585
 21
-8.495339
 31
0.0
  0
LINE
  5
3be
100
AcDbEntity
  8
rim
 62
1
100
AcDbLine
 10
-15.281585
 20
-8.495339
 30
0.0
 11
-12.931868
 21
-11.316207
 31
0.0
  0
LINE
  5
3bf
100
AcDbEntity
  8
rim
 62
1
100
AcDbLine
 10
-12.931868
 20
-11.316207
 30
0.0
 11
-11.848118
 21
-12.830047
 31
0.0
  0
LINE
  5
3c0
100
AcDbEntity
  8
rim
 62
1
100
AcDbLine
 10
-11.848118
 20
-12.830047
 30
0.0
 11
-10.882850
 21
-14.413121
 31
0.0
  0
LINE
  5
3c1
100
AcDbEntity
  8
rim
 62
1
100
AcDbLine
 10
-10.882850
 20
-14.413121
 30
0.0
 11
-10.079369
 21
-16.065660
 31
0.0
  0
LINE
  5
3c2
100
AcDbEntity
  8
rim
 62
1
100
AcDbLine
 10
-10.079369
 20
-16.065660
 30
0.0
 11
-9.480979
 21
-17.787881
 31
0.0
  0
LINE
  5
3c3
100
AcDbEntity
  8
rim
 62
1
100
AcDbLine
 10
-9.480979
 20
-17.787881
 30
0.0
 11
-9.130987
 21
-19.580015
 31
0.0
  0
LINE
  5
3c4
100
AcDbEntity
  8
rim
 62
1
100
AcDbLine
 10
-9.130987
 20
-19.580015
 30
0.0
 11
-9.072697
 21
-21.442284
 31
0.0
  0
LINE
  5
3c5
100
AcDbEntity
  8
rim
 62
1
100
AcDbLine
 10
-9.072697
 20
-21.442284
 30
0.0
 11
-9.438919
 21
-21.792629
 31
0.0
  0
LINE
  5
3c6
100
AcDbEntity
  8
rim
 62
1
100
AcDbLine
 10
-9.438919
 20
-21.792629
 30
0.0
 11
-9.884241
 21
-22.012457
 31
0.0
  0
LINE
  5
3c7
100
AcDbEntity
  8
rim
 62
1
100
AcDbLine
 10
-9.884241
 20
-22.012457
 30
0.0
 11
-10.389370
 21
-22.128453
 31
0.0
  0
LINE
  5
3c8
100
AcDbEntity
  8
rim
 62
1
100
AcDbLine
 10
-10.389370
 20
-22.128453
 30
0.0
 11
-10.935025
 21
-22.167307
 31
0.0
  0
LINE
  5
3c9
100
AcDbEntity
  8
rim
 62
1
100
AcDbLine
 10
-10.935025
 20
-22.167307
 30
0.0
 11
-13.137114
 21
-22.085025
 31
0.0
  0
LINE
  5
3ca
100
AcDbEntity
  8
rim
 62
1
100
AcDbLine
 10
-13.137114
 20
-22.085025
 30
0.0
 11
-14.564436
 21
-21.880479
 31
0.0
  0
LINE
  5
3cb
100
AcDbEntity
  8
rim
 62
1
100
AcDbLine
 10
-14.564436
 20
-21.880479
 30
0.0
 11
-15.953015
 21
-21.526047
 31
0.0
  0
LINE
  5
3cc
100
AcDbEntity
  8
rim
 62
1
100
AcDbLine
 10
-15.953015
 20
-21.526047
 30
0.0
 11
-17.298193
 21
-21.035666
 31
0.0
  0
LINE
  5
3cd
100
AcDbEntity
  8
rim
 62
1
100
AcDbLine
 10
-17.298193
 20
-21.035666
 30
0.0
 11
-18.595323
 21
-20.423284
 31
0.0
  0
LINE
  5
3ce
100
AcDbEntity
  8
rim
 62
1
100
AcDbLine
 10
-18.595323
 20
-20.423284
 30
0.0
 11
-19.839748
 21
-19.702841
 31
0.0
  0
LINE
  5
3cf
100
AcDbEntity
  8
rim
 62
1
100
AcDbLine
 10
-19.839748
 20
-19.702841
 30
0.0
 11
-21.026817
 21
-18.888277
 31
0.0
  0
LINE
  5
3d0
100
AcDbEntity
  8
rim
 62
1
100
AcDbLine
 10
-21.026817
 20
-18.888277
 30
0.0
 11
-22.151873
 21
-17.993536
 31
0.0
  0
LINE
  5
3d1
100
AcDbEntity
  8
rim
 62
1
100
AcDbLine
 10
-22.151873
 20
-17.993536
 30
0.0
 11
-23.210266
 21
-17.032561
 31
0.0
  0
LINE
  5
3d2
100
AcDbEntity
  8
rim
 62
1
100
AcDbLine
 10
-23.210266
 20
-17.032561
 30
0.0
 11
-24.868118
 21
-19.665373
 31
0.0
  0
LINE
  5
3d3
100
AcDbEntity
  8
rim
 62
1
100
AcDbLine
 10
-24.868118
 20
-19.665373
 30
0.0
 11
-25.587094
 21
-21.048623
 31
0.0
  0
LINE
  5
3d4
100
AcDbEntity
  8
rim
 62
1
100
AcDbLine
 10
-25.587094
 20
-21.048623
 30
0.0
 11
-26.209120
 21
-22.472804
 31
0.0
  0
LINE
  5
3d5
100
AcDbEntity
  8
rim
 62
1
100
AcDbLine
 10
-26.209120
 20
-22.472804
 30
0.0
 11
-26.716462
 21
-23.935189
 31
0.0
  0
LINE
  5
3d6
100
AcDbEntity
  8
rim
 62
1
100
AcDbLine
 10
-26.716462
 20
-23.935189
 30
0.0
 11
-27.091389
 21
-25.433050
 31
0.0
  0
LINE
  5
3d7
100
AcDbEntity
  8
rim
 62
1
100
AcDbLine
 10
-27.091389
 20
-25.433050
 30
0.0
 11
-27.316159
 21
-26.963662
 31
0.0
  0
LINE
  5
3d8
100
AcDbEntity
  8
rim
 62
1
100
AcDbLine
 10
-27.316159
 20
-26.963662
 30
0.0
 11
-27.373044
 21
-28.524297
 31
0.0
  0
LINE
  5
3d9
100
AcDbEntity
  8
rim
 62
1
100
AcDbLine
 10
-27.373044
 20
-28.524297
 30
0.0
 11
-25.492473
 21
-27.423862
 31
0.0
  0
LINE
  5
3da
100
AcDbEntity
  8
rim
 62
1
100
AcDbLine
 10
-25.492473
 20
-27.423862
 30
0.0
 11
-23.490750
 21
-26.577266
 31
0.0
  0
LINE
  5
3db
100
AcDbEntity
  8
rim
 62
1
100
AcDbLine
 10
-23.490750
 20
-26.577266
 30
0.0
 11
-21.399444
 21
-25.986129
 31
0.0
  0
LINE
  5
3dc
100
AcDbEntity
  8
rim
 62
1
100
AcDbLine
 10
-21.399444
 20
-25.986129
 30
0.0
 11
-19.250129
 21
-25.652074
 31
0.0
  0
LINE
  5
3dd
100
AcDbEntity
  8
rim
 62
1
100
AcDbLine
 10
-19.250129
 20
-25.652074
 30
0.0
 11
-17.074382
 21
-25.576726
 31
0.0
  0
LINE
  5
3de
100
AcDbEntity
  8
rim
 62
1
100
AcDbLine
 10
-17.074382
 20
-25.576726
 30
0.0
 11
-14.903780
 21
-25.761709
 31
0.0
  0
LINE
  5
3df
100
AcDbEntity
  8
rim
 62
1
100
AcDbLine
 10
-14.903780
 20
-25.761709
 30
0.0
 11
-12.769892
 21
-26.208647
 31
0.0
  0
LINE
  5
3e0
100
AcDbEntity
  8
rim
 62
1
100
AcDbLine
 10
-12.769892
 20
-26.208647
 30
0.0
 11
-10.704294
 21
-26.919159
 31
0.0
  0
LINE
  5
3e1
100
AcDbEntity
  8
rim
 62
1
100
AcDbLine
 10
-10.704294
 20
-26.919159
 30
0.0
 11
-8.313505
 21
-27.945383
 31
0.0
  0
LINE
  5
3e2
100
AcDbEntity
  8
rim
 62
1
100
AcDbLine
 10
-8.313505
 20
-27.945383
 30
0.0
 11
-7.175878
 21
-28.558458
 31
0.0
  0
LINE
  5
3e3
100
AcDbEntity
  8
rim
 62
1
100
AcDbLine
 10
-7.175878
 20
-28.558458
 30
0.0
 11
-6.171099
 21
-29.335686
 31
0.0
  0
LINE
  5
3e4
100
AcDbEntity
  8
rim
 62
1
100
AcDbLine
 10
-6.171099
 20
-29.335686
 30
0.0
 11
-6.787738
 21
-30.745553
 31
0.0
  0
LINE
  5
3e5
100
AcDbEntity
  8
rim
 62
1
100
AcDbLine
 10
-6.787738
 20
-30.745553
 30
0.0
 11
-7.246719
 21
-32.210430
 31
0.0
  0
LINE
  5
3e6
100
AcDbEntity
  8
rim
 62
1
100
AcDbLine
 10
-7.246719
 20
-32.210430
 30
0.0
 11
-7.531693
 21
-33.719599
 31
0.0
  0
LINE
  5
3e7
100
AcDbEntity
  8
rim
 62
1
100
AcDbLine
 10
-7.531693
 20
-33.719599
 30
0.0
 11
-7.626308
 21
-35.262353
 31
0.0
  0
LINE
  5
3e8
100
AcDbEntity
  8
rim
 62
1
100
AcDbLine
 10
-7.626308
 20
-35.262353
 30
0.0
 11
-7.777345
 21
-36.158479
 31
0.0
  0
LINE
  5
3e9
100
AcDbEntity
  8
rim
 62
1
100
AcDbLine
 10
-7.777345
 20
-36.158479
 30
0.0
 11
-8.014098
 21
-37.035423
 31
0.0
  0
LINE
  5
3ea
100
AcDbEntity
  8
rim
 62
1
100
AcDbLine
 10
-8.014098
 20
-37.035423
 30
0.0
 11
-8.711099
 21
-38.710756
 31
0.0
  0
LINE
  5
3eb
100
AcDbEntity
  8
rim
 62
1
100
AcDbLine
 10
-8.711099
 20
-38.710756
 30
0.0
 11
-6.746697
 21
-39.741163
 31
0.0
  0
LINE
  5
3ec
100
AcDbEntity
  8
rim
 62
1
100
AcDbLine
 10
-6.746697
 20
-39.741163
 30
0.0
 11
-4.678505
 21
-40.576750
 31
0.0
  0
LINE
  5
3ed
100
AcDbEntity
  8
rim
 62
1
100
AcDbLine
 10
-4.678505
 20
-40.576750
 30
0.0
 11
-2.535391
 21
-41.193188
 31
0.0
  0
LINE
  5
3ee
100
AcDbEntity
  8
rim
 62
1
100
AcDbLine
 10
-2.535391
 20
-41.193188
 30
0.0
 11
-0.346225
 21
-41.566159
 31
0.0
  0
LINE
  5
3ef
100
AcDbEntity
  8
rim
 62
1
100
AcDbLine
 10
-0.346225
 20
-41.566159
 30
0.0
 11
1.860135
 21
-41.671332
 31
0.0
  0
LINE
  5
3f0
100
AcDbEntity
  8
rim
 62
1
100
AcDbLine
 10
1.860135
 20
-41.671332
 30
0.0
 11
4.054819
 21
-41.484385
 31
0.0
  0
LINE
  5
3f1
100
AcDbEntity
  8
rim
 62
1
100
AcDbLine
 10
4.054819
 20
-41.484385
 30
0.0
 11
6.208962
 21
-40.980988
 31
0.0
  0
LINE
  5
3f2
100
AcDbEntity
  8
rim
 62
1
100
AcDbLine
 10
6.208962
 20
-40.980988
 30
0.0
 11
7.261809
 21
-40.603022
 31
0.0
  0
LINE
  5
3f3
100
AcDbEntity
  8
rim
 62
1
100
AcDbLine
 10
7.261809
 20
-40.603022
 30
0.0
 11
8.293698
 21
-40.136822
 31
0.0
  0
LINE
  5
3f4
100
AcDbEntity
  8
rim
 62
1
100
AcDbLine
 10
8.293698
 20
-40.136822
 30
0.0
 11
9.453863
 21
-39.545357
 31
0.0
  0
LINE
  5
3f5
100
AcDbEntity
  8
rim
 62
1
100
AcDbLine
 10
9.453863
 20
-39.545357
 30
0.0
 11
10.550567
 21
-38.869506
 31
0.0
  0
LINE
  5
3f6
100
AcDbEntity
  8
rim
 62
1
100
AcDbLine
 10
10.550567
 20
-38.869506
 30
0.0
 11
9.071565
 21
-37.947472
 31
0.0
  0
LINE
  5
3f7
100
AcDbEntity
  8
rim
 62
1
100
AcDbLine
 10
9.071565
 20
-37.947472
 30
0.0
 11
7.719605
 21
-36.872041
 31
0.0
  0
LINE
  5
3f8
100
AcDbEntity
  8
rim
 62
1
100
AcDbLine
 10
7.719605
 20
-36.872041
 30
0.0
 11
6.487324
 21
-35.664062
 31
0.0
  0
LINE
  5
3f9
100
AcDbEntity
  8
rim
 62
1
100
AcDbLine
 10
6.487324
 20
-35.664062
 30
0.0
 11
5.367359
 21
-34.344380
 31
0.0
  0
LINE
  5
3fa
100
AcDbEntity
  8
rim
 62
1
100
AcDbLine
 10
5.367359
 20
-34.344380
 30
0.0
 11
4.352346
 21
-32.933839
 31
0.0
  0
LINE
  5
3fb
100
AcDbEntity
  8
rim
 62
1
100
AcDbLine
 10
4.352346
 20
-32.933839
 30
0.0
 11
3.434929
 21
-31.453290
 31
0.0
  0
LINE
  5
3fc
100
AcDbEntity
  8
rim
 62
1
100
AcDbLine
 10
3.434929
 20
-31.453290
 30
0.0
 11
2.607739
 21
-29.923578
 31
0.0
  0
LINE
  5
3fd
100
AcDbEntity
  8
rim
 62
1
100
AcDbLine
 10
2.607739
 20
-29.923578
 30
0.0
 11
1.863415
 21
-28.365547
 31
0.0
  0
LINE
  5
3fe
100
AcDbEntity
  8
rim
 62
1
100
AcDbLine
 10
1.863415
 20
-28.365547
 30
0.0
 11
2.104528
 21
-27.901041
 31
0.0
  0
LINE
  5
3ff
100
AcDbEntity
  8
rim
 62
1
100
AcDbLine
 10
2.104528
 20
-27.901041
 30
0.0
 11
2.464094
 21
-27.572427
 31
0.0
  0
LINE
  5
400
100
AcDbEntity
  8
rim
 62
1
100
AcDbLine
 10
2.464094
 20
-27.572427
 30
0.0
 11
2.912917
 21
-27.344476
 31
0.0
  0
LINE
  5
401
100
AcDbEntity
  8
rim
 62
1
100
AcDbLine
 10
2.912917
 20
-27.344476
 30
0.0
 11
3.421806
 21
-27.181961
 31
0.0
  0
LINE
  5
402
100
AcDbEntity
  8
rim
 62
1
100
AcDbLine
 10
3.421806
 20
-27.181961
 30
0.0
 11
4.503022
 21
-26.912320
 31
0.0
  0
LINE
  5
403
100
AcDbEntity
  8
rim
 62
1
100
AcDbLine
 10
4.503022
 20
-26.912320
 30
0.0
 11
5.016963
 21
-26.734735
 31
0.0
  0
LINE
  5
404
100
AcDbEntity
  8
rim
 62
1
100
AcDbLine
 10
5.016963
 20
-26.734735
 30
0.0
 11
5.474208
 21
-26.481666
 31
0.0
  0
LINE
  5
405
100
AcDbEntity
  8
rim
 62
1
100
AcDbLine
 10
5.474208
 20
-26.481666
 30
0.0
 11
6.699470
 21
-25.908131
 31
0.0
  0
LINE
  5
406
100
AcDbEntity
  8
rim
 62
1
100
AcDbLine
 10
6.699470
 20
-25.908131
 30
0.0
 11
7.868158
 21
-25.228266
 31
0.0
  0
LINE
  5
407
100
AcDbEntity
  8
rim
 62
1
100
AcDbLine
 10
7.868158
 20
-25.228266
 30
0.0
 11
8.969056
 21
-24.446706
 31
0.0
  0
LINE
  5
408
100
AcDbEntity
  8
rim
 62
1
100
AcDbLine
 10
8.969056
 20
-24.446706
 30
0.0
 11
9.990946
 21
-23.568083
 31
0.0
  0
LINE
  5
409
100
AcDbEntity
  8
rim
 62
1
100
AcDbLine
 10
9.990946
 20
-23.568083
 30
0.0
 11
10.922615
 21
-22.597038
 31
0.0
  0
LINE
  5
40a
100
AcDbEntity
  8
rim
 62
1
100
AcDbLine
 10
10.922615
 20
-22.597038
 30
0.0
 11
11.752842
 21
-21.538200
 31
0.0
  0
LINE
  5
40b
100
AcDbEntity
  8
rim
 62
1
100
AcDbLine
 10
11.752842
 20
-21.538200
 30
0.0
 11
12.470412
 21
-20.396204
 31
0.0
  0
LINE
  5
40c
100
AcDbEntity
  8
rim
 62
1
100
AcDbLine
 10
12.470412
 20
-20.396204
 30
0.0
 11
13.064109
 21
-19.175686
 31
0.0
  0
LINE
  5
40d
100
AcDbEntity
  8
rim
 62
1
100
AcDbLine
 10
13.064109
 20
-19.175686
 30
0.0
 11
11.438433
 21
-18.402200
 31
0.0
  0
LINE
  5
40e
100
AcDbEntity
  8
rim
 62
1
100
AcDbLine
 10
11.438433
 20
-18.402200
 30
0.0
 11
9.744575
 21
-17.923545
 31
0.0
  0
LINE
  5
40f
100
AcDbEntity
  8
rim
 62
1
100
AcDbLine
 10
9.744575
 20
-17.923545
 30
0.0
 11
8.000907
 21
-17.691460
 31
0.0
  0
LINE
  5
410
100
AcDbEntity
  8
rim
 62
1
100
AcDbLine
 10
8.000907
 20
-17.691460
 30
0.0
 11
6.225808
 21
-17.657681
 31
0.0
  0
LINE
  5
411
100
AcDbEntity
  8
rim
 62
1
100
AcDbLine
 10
6.225808
 20
-17.657681
 30
0.0
 11
4.437648
 21
-17.773939
 31
0.0
  0
LINE
  5
412
100
AcDbEntity
  8
rim
 62
1
100
AcDbLine
 10
4.437648
 20
-17.773939
 30
0.0
 11
2.654805
 21
-17.991970
 31
0.0
  0
LINE
  5
413
100
AcDbEntity
  8
rim
 62
1
100
AcDbLine
 10
2.654805
 20
-17.991970
 30
0.0
 11
-0.821439
 21
-18.540305
 31
0.0
  0
LINE
  5
414
100
AcDbEntity
  8
rim
 62
1
100
AcDbLine
 10
-0.821439
 20
-18.540305
 30
0.0
 11
-1.163907
 21
-17.991617
 31
0.0
  0
LINE
  5
415
100
AcDbEntity
  8
rim
 62
1
100
AcDbLine
 10
-1.163907
 20
-17.991617
 30
0.0
 11
-1.412827
 21
-17.378794
 31
0.0
  0
LINE
  5
416
100
AcDbEntity
  8
rim
 62
1
100
AcDbLine
 10
-1.412827
 20
-17.378794
 30
0.0
 11
-1.708726
 21
-16.022711
 31
0.0
  0
LINE
  5
417
100
AcDbEntity
  8
rim
 62
1
100
AcDbLine
 10
-1.708726
 20
-16.022711
 30
0.0
 11
-2.043599
 21
-13.222561
 31
0.0
  0
LINE
  5
418
100
AcDbEntity
  8
rim
 62
1
100
AcDbLine
 10
-2.043599
 20
-13.222561
 30
0.0
 11
-2.165838
 21
-10.068979
 31
0.0
  0
LINE
  5
419
100
AcDbEntity
  8
rim
 62
1
100
AcDbLine
 10
-2.165838
 20
-10.068979
 30
0.0
 11
-1.996838
 21
-6.920231
 31
0.0
  0
LINE
  5
41a
100
AcDbEntity
  8
rim
 62
1
100
AcDbLine
 10
-1.996838
 20
-6.920231
 30
0.0
 11
-1.560175
 21
-3.796156
 31
0.0
  0
LINE
  5
41b
100
AcDbEntity
  8
rim
 62
1
100
AcDbLine
 10
-1.560175
 20
-3.796156
 30
0.0
 11
-0.879433
 21
-0.716589
 31
0.0
  0
LINE
  5
41c
100
AcDbEntity
  8
rim
 62
1
100
AcDbLine
 10
-0.879433
 20
-0.716589
 30
0.0
 11
-1.126377
 21
-0.787145
 31
0.0
  0
LINE
  5
41d
100
AcDbEntity
  8
rim
 62
1
100
AcDbLine
 10
-1.126377
 20
-0.787145
 30
0.0
 11
-1.126377
 21
-0.787145
 31
0.0
  0
LINE
  5
41e
100
AcDbEntity
  8
rim
 62
1
100
AcDbLine
 10
23.030081
 20
1.744036
 30
0.0
 11
21.578762
 21
0.712322
 31
0.0
  0
LINE
  5
41f
100
AcDbEntity
  8
rim
 62
1
100
AcDbLine
 10
21.578762
 20
0.712322
 30
0.0
 11
20.342448
 21
-0.517518
 31
0.0
  0
LINE
  5
420
100
AcDbEntity
  8
rim
 62
1
100
AcDbLine
 10
20.342448
 20
-0.517518
 30
0.0
 11
19.289449
 21
-1.906777
 31
0.0
  0
LINE
  5
421
100
AcDbEntity
  8
rim
 62
1
100
AcDbLine
 10
19.289449
 20
-1.906777
 30
0.0
 11
18.388084
 21
-3.416747
 31
0.0
  0
LINE
  5
422
100
AcDbEntity
  8
rim
 62
1
100
AcDbLine
 10
18.388084
 20
-3.416747
 30
0.0
 11
17.606662
 21
-5.008715
 31
0.0
  0
LINE
  5
423
100
AcDbEntity
  8
rim
 62
1
100
AcDbLine
 10
17.606662
 20
-5.008715
 30
0.0
 11
16.913502
 21
-6.643975
 31
0.0
  0
LINE
  5
424
100
AcDbEntity
  8
rim
 62
1
100
AcDbLine
 10
16.913502
 20
-6.643975
 30
0.0
 11
15.665210
 21
-9.889539
 31
0.0
  0
LINE
  5
425
100
AcDbEntity
  8
rim
 62
1
100
AcDbLine
 10
15.665210
 20
-9.889539
 30
0.0
 11
15.052565
 21
-9.916125
 31
0.0
  0
LINE
  5
426
100
AcDbEntity
  8
rim
 62
1
100
AcDbLine
 10
15.052565
 20
-9.916125
 30
0.0
 11
14.430282
 21
-9.834701
 31
0.0
  0
LINE
  5
427
100
AcDbEntity
  8
rim
 62
1
100
AcDbLine
 10
14.430282
 20
-9.834701
 30
0.0
 11
13.171469
 21
-9.442576
 31
0.0
  0
LINE
  5
428
100
AcDbEntity
  8
rim
 62
1
100
AcDbLine
 10
13.171469
 20
-9.442576
 30
0.0
 11
10.699490
 21
-8.404661
 31
0.0
  0
LINE
  5
429
100
AcDbEntity
  8
rim
 62
1
100
AcDbLine
 10
10.699490
 20
-8.404661
 30
0.0
 11
7.837932
 21
-6.922263
 31
0.0
  0
LINE
  5
42a
100
AcDbEntity
  8
rim
 62
1
100
AcDbLine
 10
7.837932
 20
-6.922263
 30
0.0
 11
5.130199
 21
-5.175680
 31
0.0
  0
LINE
  5
42b
100
AcDbEntity
  8
rim
 62
1
100
AcDbLine
 10
5.130199
 20
-5.175680
 30
0.0
 11
2.583578
 21
-3.200943
 31
0.0
  0
LINE
  5
42c
100
AcDbEntity
  8
rim
 62
1
100
AcDbLine
 10
2.583578
 20
-3.200943
 30
0.0
 11
0.205359
 21
-1.034078
 31
0.0
  0
LINE
  5
42d
100
AcDbEntity
  8
rim
 62
1
100
AcDbLine
 10
0.205359
 20
-1.034078
 30
0.0
 11
-0.269565
 21
-3.043624
 31
0.0
  0
LINE
  5
42e
100
AcDbEntity
  8
rim
 62
1
100
AcDbLine
 10
-0.269565
 20
-3.043624
 30
0.0
 11
-0.635900
 21
-5.077978
 31
0.0
  0
LINE
  5
42f
100
AcDbEntity
  8
rim
 62
1
100
AcDbLine
 10
-0.635900
 20
-5.077978
 30
0.0
 11
-0.888441
 21
-7.129801
 31
0.0
  0
LINE
  5
430
100
AcDbEntity
  8
rim
 62
1
100
AcDbLine
 10
-0.888441
 20
-7.129801
 30
0.0
 11
-1.021986
 21
-9.191756
 31
0.0
  0
LINE
  5
431
100
AcDbEntity
  8
rim
 62
1
100
AcDbLine
 10
-1.021986
 20
-9.191756
 30
0.0
 11
-1.031327
 21
-11.256508
 31
0.0
  0
LINE
  5
432
100
AcDbEntity
  8
rim
 62
1
100
AcDbLine
 10
-1.031327
 20
-11.256508
 30
0.0
 11
-0.911259
 21
-13.316713
 31
0.0
  0
LINE
  5
433
100
AcDbEntity
  8
rim
 62
1
100
AcDbLine
 10
-0.911259
 20
-13.316713
 30
0.0
 11
-0.656576
 21
-15.365040
 31
0.0
  0
LINE
  5
434
100
AcDbEntity
  8
rim
 62
1
100
AcDbLine
 10
-0.656576
 20
-15.365040
 30
0.0
 11
-0.262072
 21
-17.394147
 31
0.0
  0
LINE
  5
435
100
AcDbEntity
  8
rim
 62
1
100
AcDbLine
 10
-0.262072
 20
-17.394147
 30
0.0
 11
3.358176
 21
-16.763872
 31
0.0
  0
LINE
  5
436
100
AcDbEntity
  8
rim
 62
1
100
AcDbLine
 10
3.358176
 20
-16.763872
 30
0.0
 11
5.212613
 21
-16.582487
 31
0.0
  0
LINE
  5
437
100
AcDbEntity
  8
rim
 62
1
100
AcDbLine
 10
5.212613
 20
-16.582487
 30
0.0
 11
7.067683
 21
-16.539432
 31
0.0
  0
LINE
  5
438
100
AcDbEntity
  8
rim
 62
1
100
AcDbLine
 10
7.067683
 20
-16.539432
 30
0.0
 11
8.901709
 21
-16.671562
 31
0.0
  0
LINE
  5
439
100
AcDbEntity
  8
rim
 62
1
100
AcDbLine
 10
8.901709
 20
-16.671562
 30
0.0
 11
10.693008
 21
-17.015752
 31
0.0
  0
LINE
  5
43a
100
AcDbEntity
  8
rim
 62
1
100
AcDbLine
 10
10.693008
 20
-17.015752
 30
0.0
 11
12.419900
 21
-17.608862
 31
0.0
  0
LINE
  5
43b
100
AcDbEntity
  8
rim
 62
1
100
AcDbLine
 10
12.419900
 20
-17.608862
 30
0.0
 11
14.060706
 21
-18.487758
 31
0.0
  0
LINE
  5
43c
100
AcDbEntity
  8
rim
 62
1
100
AcDbLine
 10
14.060706
 20
-18.487758
 30
0.0
 11
14.173716
 21
-18.979559
 31
0.0
  0
LINE
  5
43d
100
AcDbEntity
  8
rim
 62
1
100
AcDbLine
 10
14.173716
 20
-18.979559
 30
0.0
 11
14.137553
 21
-19.473916
 31
0.0
  0
LINE
  5
43e
100
AcDbEntity
  8
rim
 62
1
100
AcDbLine
 10
14.137553
 20
-19.473916
 30
0.0
 11
13.984323
 21
-19.967698
 31
0.0
  0
LINE
  5
43f
100
AcDbEntity
  8
rim
 62
1
100
AcDbLine
 10
13.984323
 20
-19.967698
 30
0.0
 11
13.746144
 21
-20.457774
 31
0.0
  0
LINE
  5
440
100
AcDbEntity
  8
rim
 62
1
100
AcDbLine
 10
13.746144
 20
-20.457774
 30
0.0
 11
12.586253
 21
-22.318332
 31
0.0
  0
LINE
  5
441
100
AcDbEntity
  8
rim
 62
1
100
AcDbLine
 10
12.586253
 20
-22.318332
 30
0.0
 11
11.692515
 21
-23.451474
 31
0.0
  0
LINE
  5
442
100
AcDbEntity
  8
rim
 62
1
100
AcDbLine
 10
11.692515
 20
-23.451474
 30
0.0
 11
10.690033
 21
-24.477936
 31
0.0
  0
LINE
  5
443
100
AcDbEntity
  8
rim
 62
1
100
AcDbLine
 10
10.690033
 20
-24.477936
 30
0.0
 11
9.592530
 21
-25.399841
 31
0.0
  0
LINE
  5
444
100
AcDbEntity
  8
rim
 62
1
100
AcDbLine
 10
9.592530
 20
-25.399841
 30
0.0
 11
8.413727
 21
-26.219318
 31
0.0
  0
LINE
  5
445
100
AcDbEntity
  8
rim
 62
1
100
AcDbLine
 10
8.413727
 20
-26.219318
 30
0.0
 11
7.167338
 21
-26.938494
 31
0.0
  0
LINE
  5
446
100
AcDbEntity
  8
rim
 62
1
100
AcDbLine
 10
7.167338
 20
-26.938494
 30
0.0
 11
5.867087
 21
-27.559493
 31
0.0
  0
LINE
  5
447
100
AcDbEntity
  8
rim
 62
1
100
AcDbLine
 10
5.867087
 20
-27.559493
 30
0.0
 11
4.526692
 21
-28.084440
 31
0.0
  0
LINE
  5
448
100
AcDbEntity
  8
rim
 62
1
100
AcDbLine
 10
4.526692
 20
-28.084440
 30
0.0
 11
3.159873
 21
-28.515478
 31
0.0
  0
LINE
  5
449
100
AcDbEntity
  8
rim
 62
1
100
AcDbLine
 10
3.159873
 20
-28.515478
 30
0.0
 11
4.609352
 21
-31.262008
 31
0.0
  0
LINE
  5
44a
100
AcDbEntity
  8
rim
 62
1
100
AcDbLine
 10
4.609352
 20
-31.262008
 30
0.0
 11
5.450798
 21
-32.578386
 31
0.0
  0
LINE
  5
44b
100
AcDbEntity
  8
rim
 62
1
100
AcDbLine
 10
5.450798
 20
-32.578386
 30
0.0
 11
6.377359
 21
-33.833473
 31
0.0
  0
LINE
  5
44c
100
AcDbEntity
  8
rim
 62
1
100
AcDbLine
 10
6.377359
 20
-33.833473
 30
0.0
 11
7.394521
 21
-35.009756
 31
0.0
  0
LINE
  5
44d
100
AcDbEntity
  8
rim
 62
1
100
AcDbLine
 10
7.394521
 20
-35.009756
 30
0.0
 11
8.507770
 21
-36.089710
 31
0.0
  0
LINE
  5
44e
100
AcDbEntity
  8
rim
 62
1
100
AcDbLine
 10
8.507770
 20
-36.089710
 30
0.0
 11
9.722587
 21
-37.055813
 31
0.0
  0
LINE
  5
44f
100
AcDbEntity
  8
rim
 62
1
100
AcDbLine
 10
9.722587
 20
-37.055813
 30
0.0
 11
11.044456
 21
-37.890547
 31
0.0
  0
LINE
  5
450
100
AcDbEntity
  8
rim
 62
1
100
AcDbLine
 10
11.044456
 20
-37.890547
 30
0.0
 11
11.028595
 21
-35.606289
 31
0.0
  0
LINE
  5
451
100
AcDbEntity
  8
rim
 62
1
100
AcDbLine
 10
11.028595
 20
-35.606289
 30
0.0
 11
11.322555
 21
-33.357291
 31
0.0
  0
LINE
  5
452
100
AcDbEntity
  8
rim
 62
1
100
AcDbLine
 10
11.322555
 20
-33.357291
 30
0.0
 11
11.907718
 21
-31.172070
 31
0.0
  0
LINE
  5
453
100
AcDbEntity
  8
rim
 62
1
100
AcDbLine
 10
11.907718
 20
-31.172070
 30
0.0
 11
12.765461
 21
-29.079144
 31
0.0
  0
LINE
  5
454
100
AcDbEntity
  8
rim
 62
1
100
AcDbLine
 10
12.765461
 20
-29.079144
 30
0.0
 11
13.877163
 21
-27.107031
 31
0.0
  0
LINE
  5
455
100
AcDbEntity
  8
rim
 62
1
100
AcDbLine
 10
13.877163
 20
-27.107031
 30
0.0
 11
15.224201
 21
-25.284251
 31
0.0
  0
LINE
  5
456
100
AcDbEntity
  8
rim
 62
1
100
AcDbLine
 10
15.224201
 20
-25.284251
 30
0.0
 11
16.787955
 21
-23.639321
 31
0.0
  0
LINE
  5
457
100
AcDbEntity
  8
rim
 62
1
100
AcDbLine
 10
16.787955
 20
-23.639321
 30
0.0
 11
18.549803
 21
-22.200756
 31
0.0
  0
LINE
  5
458
100
AcDbEntity
  8
rim
 62
1
100
AcDbLine
 10
18.549803
 20
-22.200756
 30
0.0
 11
20.360507
 21
-20.884618
 31
0.0
  0
LINE
  5
459
100
AcDbEntity
  8
rim
 62
1
100
AcDbLine
 10
20.360507
 20
-20.884618
 30
0.0
 11
21.313879
 21
-20.312994
 31
0.0
  0
LINE
  5
45a
100
AcDbEntity
  8
rim
 62
1
100
AcDbLine
 10
21.313879
 20
-20.312994
 30
0.0
 11
22.333345
 21
-19.916520
 31
0.0
  0
LINE
  5
45b
100
AcDbEntity
  8
rim
 62
1
100
AcDbLine
 10
22.333345
 20
-19.916520
 30
0.0
 11
23.202855
 21
-21.063499
 31
0.0
  0
LINE
  5
45c
100
AcDbEntity
  8
rim
 62
1
100
AcDbLine
 10
23.202855
 20
-21.063499
 30
0.0
 11
24.156478
 21
-22.158112
 31
0.0
  0
LINE
  5
45d
100
AcDbEntity
  8
rim
 62
1
100
AcDbLine
 10
24.156478
 20
-22.158112
 30
0.0
 11
25.232617
 21
-23.135143
 31
0.0
  0
LINE
  5
45e
100
AcDbEntity
  8
rim
 62
1
100
AcDbLine
 10
25.232617
 20
-23.135143
 30
0.0
 11
26.469665
 21
-23.929367
 31
0.0
  0
LINE
  5
45f
100
AcDbEntity
  8
rim
 62
1
100
AcDbLine
 10
26.469665
 20
-23.929367
 30
0.0
 11
27.248736
 21
-24.548345
 31
0.0
  0
LINE
  5
460
100
AcDbEntity
  8
rim
 62
1
100
AcDbLine
 10
27.248736
 20
-24.548345
 30
0.0
 11
27.969052
 21
-25.236736
 31
0.0
  0
LINE
  5
461
100
AcDbEntity
  8
rim
 62
1
100
AcDbLine
 10
27.969052
 20
-25.236736
 30
0.0
 11
28.616569
 21
-25.992431
 31
0.0
  0
LINE
  5
462
100
AcDbEntity
  8
rim
 62
1
100
AcDbLine
 10
28.616569
 20
-25.992431
 30
0.0
 11
29.177234
 21
-26.813325
 31
0.0
  0
LINE
  5
463
100
AcDbEntity
  8
rim
 62
1
100
AcDbLine
 10
29.177234
 20
-26.813325
 30
0.0
 11
31.017424
 21
-25.652909
 31
0.0
  0
LINE
  5
464
100
AcDbEntity
  8
rim
 62
1
100
AcDbLine
 10
31.017424
 20
-25.652909
 30
0.0
 11
32.752863
 21
-24.305422
 31
0.0
  0
LINE
  5
465
100
AcDbEntity
  8
rim
 62
1
100
AcDbLine
 10
32.752863
 20
-24.305422
 30
0.0
 11
34.346597
 21
-22.784803
 31
0.0
  0
LINE
  5
466
100
AcDbEntity
  8
rim
 62
1
100
AcDbLine
 10
34.346597
 20
-22.784803
 30
0.0
 11
35.761670
 21
-21.104991
 31
0.0
  0
LINE
  5
467
100
AcDbEntity
  8
rim
 62
1
100
AcDbLine
 10
35.761670
 20
-21.104991
 30
0.0
 11
36.961129
 21
-19.279928
 31
0.0
  0
LINE
  5
468
100
AcDbEntity
  8
rim
 62
1
100
AcDbLine
 10
36.961129
 20
-19.279928
 30
0.0
 11
37.908016
 21
-17.323552
 31
0.0
  0
LINE
  5
469
100
AcDbEntity
  8
rim
 62
1
100
AcDbLine
 10
37.908016
 20
-17.323552
 30
0.0
 11
38.565379
 21
-15.249809
 31
0.0
  0
LINE
  5
46a
100
AcDbEntity
  8
rim
 62
1
100
AcDbLine
 10
38.565379
 20
-15.249809
 30
0.0
 11
38.773941
 21
-14.173278
 31
0.0
  0
LINE
  5
46b
100
AcDbEntity
  8
rim
 62
1
100
AcDbLine
 10
38.773941
 20
-14.173278
 30
0.0
 11
38.896262
 21
-13.072631
 31
0.0
  0
LINE
  5
46c
100
AcDbEntity
  8
rim
 62
1
100
AcDbLine
 10
38.896262
 20
-13.072631
 30
0.0
 11
38.990724
 21
-11.623445
 31
0.0
  0
LINE
  5
46d
100
AcDbEntity
  8
rim
 62
1
100
AcDbLine
 10
38.990724
 20
-11.623445
 30
0.0
 11
38.966820
 21
-10.197492
 31
0.0
  0
LINE
  5
46e
100
AcDbEntity
  8
rim
 62
1
100
AcDbLine
 10
38.966820
 20
-10.197492
 30
0.0
 11
37.428777
 21
-11.019636
 31
0.0
  0
LINE
  5
46f
100
AcDbEntity
  8
rim
 62
1
100
AcDbLine
 10
37.428777
 20
-11.019636
 30
0.0
 11
35.821936
 21
-11.654221
 31
0.0
  0
LINE
  5
470
100
AcDbEntity
  8
rim
 62
1
100
AcDbLine
 10
35.821936
 20
-11.654221
 30
0.0
 11
34.160401
 21
-12.118364
 31
0.0
  0
LINE
  5
471
100
AcDbEntity
  8
rim
 62
1
100
AcDbLine
 10
34.160401
 20
-12.118364
 30
0.0
 11
32.458276
 21
-12.429190
 31
0.0
  0
LINE
  5
472
100
AcDbEntity
  8
rim
 62
1
100
AcDbLine
 10
32.458276
 20
-12.429190
 30
0.0
 11
30.729668
 21
-12.603817
 31
0.0
  0
LINE
  5
473
100
AcDbEntity
  8
rim
 62
1
100
AcDbLine
 10
30.729668
 20
-12.603817
 30
0.0
 11
28.988681
 21
-12.659370
 31
0.0
  0
LINE
  5
474
100
AcDbEntity
  8
rim
 62
1
100
AcDbLine
 10
28.988681
 20
-12.659370
 30
0.0
 11
27.249419
 21
-12.612964
 31
0.0
  0
LINE
  5
475
100
AcDbEntity
  8
rim
 62
1
100
AcDbLine
 10
27.249419
 20
-12.612964
 30
0.0
 11
25.525987
 21
-12.481728
 31
0.0
  0
LINE
  5
476
100
AcDbEntity
  8
rim
 62
1
100
AcDbLine
 10
25.525987
 20
-12.481728
 30
0.0
 11
25.240488
 21
-12.042822
 31
0.0
  0
LINE
  5
477
100
AcDbEntity
  8
rim
 62
1
100
AcDbLine
 10
25.240488
 20
-12.042822
 30
0.0
 11
25.132826
 21
-11.568719
 31
0.0
  0
LINE
  5
478
100
AcDbEntity
  8
rim
 62
1
100
AcDbLine
 10
25.132826
 20
-11.568719
 30
0.0
 11
25.157718
 21
-11.067318
 31
0.0
  0
LINE
  5
479
100
AcDbEntity
  8
rim
 62
1
100
AcDbLine
 10
25.157718
 20
-11.067318
 30
0.0
 11
25.269856
 21
-10.546505
 31
0.0
  0
LINE
  5
47a
100
AcDbEntity
  8
rim
 62
1
100
AcDbLine
 10
25.269856
 20
-10.546505
 30
0.0
 11
25.574721
 21
-9.478229
 31
0.0
  0
LINE
  5
47b
100
AcDbEntity
  8
rim
 62
1
100
AcDbLine
 10
25.574721
 20
-9.478229
 30
0.0
 11
25.676866
 21
-8.946553
 31
0.0
  0
LINE
  5
47c
100
AcDbEntity
  8
rim
 62
1
100
AcDbLine
 10
25.676866
 20
-8.946553
 30
0.0
 11
25.685107
 21
-8.427041
 31
0.0
  0
LINE
  5
47d
100
AcDbEntity
  8
rim
 62
1
100
AcDbLine
 10
25.685107
 20
-8.427041
 30
0.0
 11
25.805178
 21
-7.075030
 31
0.0
  0
LINE
  5
47e
100
AcDbEntity
  8
rim
 62
1
100
AcDbLine
 10
25.805178
 20
-7.075030
 30
0.0
 11
25.804049
 21
-5.720894
 31
0.0
  0
LINE
  5
47f
100
AcDbEntity
  8
rim
 62
1
100
AcDbLine
 10
25.804049
 20
-5.720894
 30
0.0
 11
25.680055
 21
-4.375950
 31
0.0
  0
LINE
  5
480
100
AcDbEntity
  8
rim
 62
1
100
AcDbLine
 10
25.680055
 20
-4.375950
 30
0.0
 11
25.431654
 21
-3.051521
 31
0.0
  0
LINE
  5
481
100
AcDbEntity
  8
rim
 62
1
100
AcDbLine
 10
25.431654
 20
-3.051521
 30
0.0
 11
25.057272
 21
-1.758932
 31
0.0
  0
LINE
  5
482
100
AcDbEntity
  8
rim
 62
1
100
AcDbLine
 10
25.057272
 20
-1.758932
 30
0.0
 11
24.555329
 21
-0.509503
 31
0.0
  0
LINE
  5
483
100
AcDbEntity
  8
rim
 62
1
100
AcDbLine
 10
24.555329
 20
-0.509503
 30
0.0
 11
23.924243
 21
0.685446
 31
0.0
  0
LINE
  5
484
100
AcDbEntity
  8
rim
 62
1
100
AcDbLine
 10
23.924243
 20
0.685446
 30
0.0
 11
23.162435
 21
1.814591
 31
0.0
  0
LINE
  5
485
100
AcDbEntity
  8
rim
 62
1
100
AcDbLine
 10
23.162435
 20
1.814591
 30
0.0
 11
23.030143
 21
1.744036
 31
0.0
  0
LINE
  5
486
100
AcDbEntity
  8
rim
 62
1
100
AcDbLine
 10
23.030143
 20
1.744036
 30
0.0
 11
23.030143
 21
1.744036
 31
0.0
  0
LINE
  5
487
100
AcDbEntity
  8
rim
 62
1
100
AcDbLine
 10
28.436401
 20
28.643341
 30
0.0
 11
28.375912
 21
26.897774
 31
0.0
  0
LINE
  5
488
100
AcDbEntity
  8
rim
 62
1
100
AcDbLine
 10
28.375912
 20
26.897774
 30
0.0
 11
28.119733
 21
25.187101
 31
0.0
  0
LINE
  5
489
100
AcDbEntity
  8
rim
 62
1
100
AcDbLine
 10
28.119733
 20
25.187101
 30
0.0
 11
27.689302
 21
23.515036
 31
0.0
  0
LINE
  5
48a
100
AcDbEntity
  8
rim
 62
1
100
AcDbLine
 10
27.689302
 20
23.515036
 30
0.0
 11
27.106064
 21
21.885302
 31
0.0
  0
LINE
  5
48b
100
AcDbEntity
  8
rim
 62
1
100
AcDbLine
 10
27.106064
 20
21.885302
 30
0.0
 11
26.391464
 21
20.301612
 31
0.0
  0
LINE
  5
48c
100
AcDbEntity
  8
rim
 62
1
100
AcDbLine
 10
26.391464
 20
20.301612
 30
0.0
 11
25.566940
 21
18.767680
 31
0.0
  0
LINE
  5
48d
100
AcDbEntity
  8
rim
 62
1
100
AcDbLine
 10
25.566940
 20
18.767680
 30
0.0
 11
24.653940
 21
17.287227
 31
0.0
  0
LINE
  5
48e
100
AcDbEntity
  8
rim
 62
1
100
AcDbLine
 10
24.653940
 20
17.287227
 30
0.0
 11
23.673901
 21
15.863966
 31
0.0
  0
LINE
  5
48f
100
AcDbEntity
  8
rim
 62
1
100
AcDbLine
 10
23.673901
 20
15.863966
 30
0.0
 11
23.177528
 21
15.816900
 31
0.0
  0
LINE
  5
490
100
AcDbEntity
  8
rim
 62
1
100
AcDbLine
 10
23.177528
 20
15.816900
 30
0.0
 11
22.739943
 21
15.940787
 31
0.0
  0
LINE
  5
491
100
AcDbEntity
  8
rim
 62
1
100
AcDbLine
 10
22.739943
 20
15.940787
 30
0.0
 11
22.345653
 21
16.192620
 31
0.0
  0
LINE
  5
492
100
AcDbEntity
  8
rim
 62
1
100
AcDbLine
 10
22.345653
 20
16.192620
 30
0.0
 11
21.979159
 21
16.529401
 31
0.0
  0
LINE
  5
493
100
AcDbEntity
  8
rim
 62
1
100
AcDbLine
 10
21.979159
 20
16.529401
 30
0.0
 11
21.267584
 21
17.285805
 31
0.0
  0
LINE
  5
494
100
AcDbEntity
  8
rim
 62
1
100
AcDbLine
 10
21.267584
 20
17.285805
 30
0.0
 11
20.891514
 21
17.619420
 31
0.0
  0
LINE
  5
495
100
AcDbEntity
  8
rim
 62
1
100
AcDbLine
 10
20.891514
 20
17.619420
 30
0.0
 11
20.481262
 21
17.865980
 31
0.0
  0
LINE
  5
496
100
AcDbEntity
  8
rim
 62
1
100
AcDbLine
 10
20.481262
 20
17.865980
 30
0.0
 11
19.354713
 21
18.679675
 31
0.0
  0
LINE
  5
497
100
AcDbEntity
  8
rim
 62
1
100
AcDbLine
 10
19.354713
 20
18.679675
 30
0.0
 11
18.158926
 21
19.389718
 31
0.0
  0
LINE
  5
498
100
AcDbEntity
  8
rim
 62
1
100
AcDbLine
 10
18.158926
 20
19.389718
 30
0.0
 11
16.904406
 21
19.986973
 31
0.0
  0
LINE
  5
499
100
AcDbEntity
  8
rim
 62
1
100
AcDbLine
 10
16.904406
 20
19.986973
 30
0.0
 11
15.601654
 21
20.462301
 31
0.0
  0
LINE
  5
49a
100
AcDbEntity
  8
rim
 62
1
100
AcDbLine
 10
15.601654
 20
20.462301
 30
0.0
 11
14.261177
 21
20.806564
 31
0.0
  0
LINE
  5
49b
100
AcDbEntity
  8
rim
 62
1
100
AcDbLine
 10
14.261177
 20
20.806564
 30
0.0
 11
12.893477
 21
21.010627
 31
0.0
  0
LINE
  5
49c
100
AcDbEntity
  8
rim
 62
1
100
AcDbLine
 10
12.893477
 20
21.010627
 30
0.0
 11
11.509053
 21
21.065353
 31
0.0
  0
LINE
  5
49d
100
AcDbEntity
  8
rim
 62
1
100
AcDbLine
 10
11.509053
 20
21.065353
 30
0.0
 11
10.118415
 21
20.961605
 31
0.0
  0
LINE
  5
49e
100
AcDbEntity
  8
rim
 62
1
100
AcDbLine
 10
10.118415
 20
20.961605
 30
0.0
 11
10.267707
 21
19.164372
 31
0.0
  0
LINE
  5
49f
100
AcDbEntity
  8
rim
 62
1
100
AcDbLine
 10
10.267707
 20
19.164372
 30
0.0
 11
10.702200
 21
17.459425
 31
0.0
  0
LINE
  5
4a0
100
AcDbEntity
  8
rim
 62
1
100
AcDbLine
 10
10.702200
 20
17.459425
 30
0.0
 11
11.372192
 21
15.836992
 31
0.0
  0
LINE
  5
4a1
100
AcDbEntity
  8
rim
 62
1
100
AcDbLine
 10
11.372192
 20
15.836992
 30
0.0
 11
12.227983
 21
14.287304
 31
0.0
  0
LINE
  5
4a2
100
AcDbEntity
  8
rim
 62
1
100
AcDbLine
 10
12.227983
 20
14.287304
 30
0.0
 11
13.219876
 21
12.800591
 31
0.0
  0
LINE
  5
4a3
100
AcDbEntity
  8
rim
 62
1
100
AcDbLine
 10
13.219876
 20
12.800591
 30
0.0
 11
14.298171
 21
11.367080
 31
0.0
  0
LINE
  5
4a4
100
AcDbEntity
  8
rim
 62
1
100
AcDbLine
 10
14.298171
 20
11.367080
 30
0.0
 11
16.515165
 21
8.620586
 31
0.0
  0
LINE
  5
4a5
100
AcDbEntity
  8
rim
 62
1
100
AcDbLine
 10
16.515165
 20
8.620586
 30
0.0
 11
16.207808
 21
8.050373
 31
0.0
  0
LINE
  5
4a6
100
AcDbEntity
  8
rim
 62
1
100
AcDbLine
 10
16.207808
 20
8.050373
 30
0.0
 11
15.799672
 21
7.528412
 31
0.0
  0
LINE
  5
4a7
100
AcDbEntity
  8
rim
 62
1
100
AcDbLine
 10
15.799672
 20
7.528412
 30
0.0
 11
14.772691
 21
6.592918
 31
0.0
  0
LINE
  5
4a8
100
AcDbEntity
  8
rim
 62
1
100
AcDbLine
 10
14.772691
 20
6.592918
 30
0.0
 11
12.517303
 21
4.901397
 31
0.0
  0
LINE
  5
4a9
100
AcDbEntity
  8
rim
 62
1
100
AcDbLine
 10
12.517303
 20
4.901397
 30
0.0
 11
9.846237
 21
3.224148
 31
0.0
  0
LINE
  5
4aa
100
AcDbEntity
  8
rim
 62
1
100
AcDbLine
 10
9.846237
 20
3.224148
 30
0.0
 11
7.035882
 21
1.799382
 31
0.0
  0
LINE
  5
4ab
100
AcDbEntity
  8
rim
 62
1
100
AcDbLine
 10
7.035882
 20
1.799382
 30
0.0
 11
4.113146
 21
0.615934
 31
0.0
  0
LINE
  5
4ac
100
AcDbEntity
  8
rim
 62
1
100
AcDbLine
 10
4.113146
 20
0.615934
 30
0.0
 11
1.104942
 21
-0.337353
 31
0.0
  0
LINE
  5
4ad
100
AcDbEntity
  8
rim
 62
1
100
AcDbLine
 10
1.104942
 20
-0.337353
 30
0.0
 11
2.606562
 21
-1.744211
 31
0.0
  0
LINE
  5
4ae
100
AcDbEntity
  8
rim
 62
1
100
AcDbLine
 10
2.606562
 20
-1.744211
 30
0.0
 11
4.184932
 21
-3.075473
 31
0.0
  0
LINE
  5
4af
100
AcDbEntity
  8
rim
 62
1
100
AcDbLine
 10
4.184932
 20
-3.075473
 30
0.0
 11
5.835991
 21
-4.321196
 31
0.0
  0
LINE
  5
4b0
100
AcDbEntity
  8
rim
 62
1
100
AcDbLine
 10
5.835991
 20
-4.321196
 30
0.0
 11
7.555684
 21
-5.471438
 31
0.0
  0
LINE
  5
4b1
100
AcDbEntity
  8
rim
 62
1
100
AcDbLine
 10
7.555684
 20
-5.471438
 30
0.0
 11
9.339955
 21
-6.516250
 31
0.0
  0
LINE
  5
4b2
100
AcDbEntity
  8
rim
 62
1
100
AcDbLine
 10
9.339955
 20
-6.516250
 30
0.0
 11
11.184746
 21
-7.445690
 31
0.0
  0
LINE
  5
4b3
100
AcDbEntity
  8
rim
 62
1
100
AcDbLine
 10
11.184746
 20
-7.445690
 30
0.0
 11
13.086001
 21
-8.249811
 31
0.0
  0
LINE
  5
4b4
100
AcDbEntity
  8
rim
 62
1
100
AcDbLine
 10
13.086001
 20
-8.249811
 30
0.0
 11
15.039665
 21
-8.918672
 31
0.0
  0
LINE
  5
4b5
100
AcDbEntity
  8
rim
 62
1
100
AcDbLine
 10
15.039665
 20
-8.918672
 30
0.0
 11
16.315193
 21
-5.473924
 31
0.0
  0
LINE
  5
4b6
100
AcDbEntity
  8
rim
 62
1
100
AcDbLine
 10
16.315193
 20
-5.473924
 30
0.0
 11
17.086433
 21
-3.776403
 31
0.0
  0
LINE
  5
4b7
100
AcDbEntity
  8
rim
 62
1
100
AcDbLine
 10
17.086433
 20
-3.776403
 30
0.0
 11
17.976156
 21
-2.146386
 31
0.0
  0
LINE
  5
4b8
100
AcDbEntity
  8
rim
 62
1
100
AcDbLine
 10
17.976156
 20
-2.146386
 30
0.0
 11
19.006487
 21
-0.622073
 31
0.0
  0
LINE
  5
4b9
100
AcDbEntity
  8
rim
 62
1
100
AcDbLine
 10
19.006487
 20
-0.622073
 30
0.0
 11
20.199550
 21
0.758341
 31
0.0
  0
LINE
  5
4ba
100
AcDbEntity
  8
rim
 62
1
100
AcDbLine
 10
20.199550
 20
0.758341
 30
0.0
 11
21.577469
 21
1.956651
 31
0.0
  0
LINE
  5
4bb
100
AcDbEntity
  8
rim
 62
1
100
AcDbLine
 10
21.577469
 20
1.956651
 30
0.0
 11
23.162373
 21
2.934661
 31
0.0
  0
LINE
  5
4bc
100
AcDbEntity
  8
rim
 62
1
100
AcDbLine
 10
23.162373
 20
2.934661
 30
0.0
 11
23.646398
 21
2.790073
 31
0.0
  0
LINE
  5
4bd
100
AcDbEntity
  8
rim
 62
1
100
AcDbLine
 10
23.646398
 20
2.790073
 30
0.0
 11
24.057099
 21
2.512513
 31
0.0
  0
LINE
  5
4be
100
AcDbEntity
  8
rim
 62
1
100
AcDbLine
 10
24.057099
 20
2.512513
 30
0.0
 11
24.408023
 21
2.131939
 31
0.0
  0
LINE
  5
4bf
100
AcDbEntity
  8
rim
 62
1
100
AcDbLine
 10
24.408023
 20
2.131939
 30
0.0
 11
24.712718
 21
1.678304
 31
0.0
  0
LINE
  5
4c0
100
AcDbEntity
  8
rim
 62
1
100
AcDbLine
 10
24.712718
 20
1.678304
 30
0.0
 11
25.740202
 21
-0.267768
 31
0.0
  0
LINE
  5
4c1
100
AcDbEntity
  8
rim
 62
1
100
AcDbLine
 10
25.740202
 20
-0.267768
 30
0.0
 11
26.276670
 21
-1.605646
 31
0.0
  0
LINE
  5
4c2
100
AcDbEntity
  8
rim
 62
1
100
AcDbLine
 10
26.276670
 20
-1.605646
 30
0.0
 11
26.664722
 21
-2.985066
 31
0.0
  0
LINE
  5
4c3
100
AcDbEntity
  8
rim
 62
1
100
AcDbLine
 10
26.664722
 20
-2.985066
 30
0.0
 11
26.913690
 21
-4.395071
 31
0.0
  0
LINE
  5
4c4
100
AcDbEntity
  8
rim
 62
1
100
AcDbLine
 10
26.913690
 20
-4.395071
 30
0.0
 11
27.032912
 21
-5.824704
 31
0.0
  0
LINE
  5
4c5
100
AcDbEntity
  8
rim
 62
1
100
AcDbLine
 10
27.032912
 20
-5.824704
 30
0.0
 11
27.031783
 21
-7.263013
 31
0.0
  0
LINE
  5
4c6
100
AcDbEntity
  8
rim
 62
1
100
AcDbLine
 10
27.031783
 20
-7.263013
 30
0.0
 11
26.919530
 21
-8.699036
 31
0.0
  0
LINE
  5
4c7
100
AcDbEntity
  8
rim
 62
1
100
AcDbLine
 10
26.919530
 20
-8.699036
 30
0.0
 11
26.705543
 21
-10.121820
 31
0.0
  0
LINE
  5
4c8
100
AcDbEntity
  8
rim
 62
1
100
AcDbLine
 10
26.705543
 20
-10.121820
 30
0.0
 11
26.399163
 21
-11.520409
 31
0.0
  0
LINE
  5
4c9
100
AcDbEntity
  8
rim
 62
1
100
AcDbLine
 10
26.399163
 20
-11.520409
 30
0.0
 11
29.513183
 21
-11.633955
 31
0.0
  0
LINE
  5
4ca
100
AcDbEntity
  8
rim
 62
1
100
AcDbLine
 10
29.513183
 20
-11.633955
 30
0.0
 11
31.071693
 21
-11.564701
 31
0.0
  0
LINE
  5
4cb
100
AcDbEntity
  8
rim
 62
1
100
AcDbLine
 10
31.071693
 20
-11.564701
 30
0.0
 11
32.616484
 21
-11.392062
 31
0.0
  0
LINE
  5
4cc
100
AcDbEntity
  8
rim
 62
1
100
AcDbLine
 10
32.616484
 20
-11.392062
 30
0.0
 11
34.136522
 21
-11.101526
 31
0.0
  0
LINE
  5
4cd
100
AcDbEntity
  8
rim
 62
1
100
AcDbLine
 10
34.136522
 20
-11.101526
 30
0.0
 11
35.620762
 21
-10.678562
 31
0.0
  0
LINE
  5
4ce
100
AcDbEntity
  8
rim
 62
1
100
AcDbLine
 10
35.620762
 20
-10.678562
 30
0.0
 11
37.058168
 21
-10.108657
 31
0.0
  0
LINE
  5
4cf
100
AcDbEntity
  8
rim
 62
1
100
AcDbLine
 10
37.058168
 20
-10.108657
 30
0.0
 11
38.437704
 21
-9.377284
 31
0.0
  0
LINE
  5
4d0
100
AcDbEntity
  8
rim
 62
1
100
AcDbLine
 10
38.437704
 20
-9.377284
 30
0.0
 11
36.499958
 21
-8.269474
 31
0.0
  0
LINE
  5
4d1
100
AcDbEntity
  8
rim
 62
1
100
AcDbLine
 10
36.499958
 20
-8.269474
 30
0.0
 11
34.734466
 21
-6.924137
 31
0.0
  0
LINE
  5
4d2
100
AcDbEntity
  8
rim
 62
1
100
AcDbLine
 10
34.734466
 20
-6.924137
 30
0.0
 11
33.157425
 21
-5.368675
 31
0.0
  0
LINE
  5
4d3
100
AcDbEntity
  8
rim
 62
1
100
AcDbLine
 10
33.157425
 20
-5.368675
 30
0.0
 11
31.785029
 21
-3.630488
 31
0.0
  0
LINE
  5
4d4
100
AcDbEntity
  8
rim
 62
1
100
AcDbLine
 10
31.785029
 20
-3.630488
 30
0.0
 11
30.633470
 21
-1.736975
 31
0.0
  0
LINE
  5
4d5
100
AcDbEntity
  8
rim
 62
1
100
AcDbLine
 10
30.633470
 20
-1.736975
 30
0.0
 11
29.718943
 21
0.284467
 31
0.0
  0
LINE
  5
4d6
100
AcDbEntity
  8
rim
 62
1
100
AcDbLine
 10
29.718943
 20
0.284467
 30
0.0
 11
29.057642
 21
2.406437
 31
0.0
  0
LINE
  5
4d7
100
AcDbEntity
  8
rim
 62
1
100
AcDbLine
 10
29.057642
 20
2.406437
 30
0.0
 11
28.665760
 21
4.601536
 31
0.0
  0
LINE
  5
4d8
100
AcDbEntity
  8
rim
 62
1
100
AcDbLine
 10
28.665760
 20
4.601536
 30
0.0
 11
28.393901
 21
7.011852
 31
0.0
  0
LINE
  5
4d9
100
AcDbEntity
  8
rim
 62
1
100
AcDbLine
 10
28.393901
 20
7.011852
 30
0.0
 11
28.370109
 21
8.217395
 31
0.0
  0
LINE
  5
4da
100
AcDbEntity
  8
rim
 62
1
100
AcDbLine
 10
28.370109
 20
8.217395
 30
0.0
 11
28.533471
 21
9.390494
 31
0.0
  0
LINE
  5
4db
100
AcDbEntity
  8
rim
 62
1
100
AcDbLine
 10
28.533471
 20
9.390494
 30
0.0
 11
30.055733
 21
9.574116
 31
0.0
  0
LINE
  5
4dc
100
AcDbEntity
  8
rim
 62
1
100
AcDbLine
 10
30.055733
 20
9.574116
 30
0.0
 11
31.552221
 21
9.896121
 31
0.0
  0
LINE
  5
4dd
100
AcDbEntity
  8
rim
 62
1
100
AcDbLine
 10
31.552221
 20
9.896121
 30
0.0
 11
33.001159
 21
10.390851
 31
0.0
  0
LINE
  5
4de
100
AcDbEntity
  8
rim
 62
1
100
AcDbLine
 10
33.001159
 20
10.390851
 30
0.0
 11
34.380763
 21
11.092647
 31
0.0
  0
LINE
  5
4df
100
AcDbEntity
  8
rim
 62
1
100
AcDbLine
 10
34.380763
 20
11.092647
 30
0.0
 11
36.117815
 21
11.643037
 31
0.0
  0
LINE
  5
4e0
100
AcDbEntity
  8
rim
 62
1
100
AcDbLine
 10
36.117815
 20
11.643037
 30
0.0
 11
37.016662
 21
11.797737
 31
0.0
  0
LINE
  5
4e1
100
AcDbEntity
  8
rim
 62
1
100
AcDbLine
 10
37.016662
 20
11.797737
 30
0.0
 11
37.926179
 21
11.868758
 31
0.0
  0
LINE
  5
4e2
100
AcDbEntity
  8
rim
 62
1
100
AcDbLine
 10
37.926179
 20
11.868758
 30
0.0
 11
37.837564
 21
14.078730
 31
0.0
  0
LINE
  5
4e3
100
AcDbEntity
  8
rim
 62
1
100
AcDbLine
 10
37.837564
 20
14.078730
 30
0.0
 11
37.528892
 21
16.286109
 31
0.0
  0
LINE
  5
4e4
100
AcDbEntity
  8
rim
 62
1
100
AcDbLine
 10
37.528892
 20
16.286109
 30
0.0
 11
36.993141
 21
18.452274
 31
0.0
  0
LINE
  5
4e5
100
AcDbEntity
  8
rim
 62
1
100
AcDbLine
 10
36.993141
 20
18.452274
 30
0.0
 11
36.223293
 21
20.538613
 31
0.0
  0
LINE
  5
4e6
100
AcDbEntity
  8
rim
 62
1
100
AcDbLine
 10
36.223293
 20
20.538613
 30
0.0
 11
35.212322
 21
22.506510
 31
0.0
  0
LINE
  5
4e7
100
AcDbEntity
  8
rim
 62
1
100
AcDbLine
 10
35.212322
 20
22.506510
 30
0.0
 11
33.953210
 21
24.317343
 31
0.0
  0
LINE
  5
4e8
100
AcDbEntity
  8
rim
 62
1
100
AcDbLine
 10
33.953210
 20
24.317343
 30
0.0
 11
33.228410
 21
25.151798
 31
0.0
  0
LINE
  5
4e9
100
AcDbEntity
  8
rim
 62
1
100
AcDbLine
 10
33.228410
 20
25.151798
 30
0.0
 11
32.438938
 21
25.932504
 31
0.0
  0
LINE
  5
4ea
100
AcDbEntity
  8
rim
 62
1
100
AcDbLine
 10
32.438938
 20
25.932504
 30
0.0
 11
31.583924
 21
26.654637
 31
0.0
  0
LINE
  5
4eb
100
AcDbEntity
  8
rim
 62
1
100
AcDbLine
 10
31.583924
 20
26.654637
 30
0.0
 11
30.662485
 21
27.313369
 31
0.0
  0
LINE
  5
4ec
100
AcDbEntity
  8
rim
 62
1
100
AcDbLine
 10
30.662485
 20
27.313369
 30
0.0
 11
29.563678
 21
28.033442
 31
0.0
  0
LINE
  5
4ed
100
AcDbEntity
  8
rim
 62
1
100
AcDbLine
 10
29.563678
 20
28.033442
 30
0.0
 11
28.436457
 21
28.643341
 31
0.0
  0
LINE
  5
4ee
100
AcDbEntity
  8
rim
 62
1
100
AcDbLine
 10
28.436457
 20
28.643341
 30
0.0
 11
28.436457
 21
28.643341
 31
0.0
  0
LINE
  5
4ef
100
AcDbEntity
  8
rim
 62
1
100
AcDbLine
 10
-2.114155
 20
41.722578
 30
0.0
 11
-3.224194
 21
41.635901
 31
0.0
  0
LINE
  5
4f0
100
AcDbEntity
  8
rim
 62
1
100
AcDbLine
 10
-3.224194
 20
41.635901
 30
0.0
 11
-4.324804
 21
41.463876
 31
0.0
  0
LINE
  5
4f1
100
AcDbEntity
  8
rim
 62
1
100
AcDbLine
 10
-4.324804
 20
41.463876
 30
0.0
 11
-6.480113
 21
40.884310
 31
0.0
  0
LINE
  5
4f2
100
AcDbEntity
  8
rim
 62
1
100
AcDbLine
 10
-6.480113
 20
40.884310
 30
0.0
 11
-8.544856
 21
40.024938
 31
0.0
  0
LINE
  5
4f3
100
AcDbEntity
  8
rim
 62
1
100
AcDbLine
 10
-8.544856
 20
40.024938
 30
0.0
 11
-10.483808
 21
38.926814
 31
0.0
  0
LINE
  5
4f4
100
AcDbEntity
  8
rim
 62
1
100
AcDbLine
 10
-10.483808
 20
38.926814
 30
0.0
 11
-9.000967
 21
38.003721
 31
0.0
  0
LINE
  5
4f5
100
AcDbEntity
  8
rim
 62
1
100
AcDbLine
 10
-9.000967
 20
38.003721
 30
0.0
 11
-7.646207
 21
36.928297
 31
0.0
  0
LINE
  5
4f6
100
AcDbEntity
  8
rim
 62
1
100
AcDbLine
 10
-7.646207
 20
36.928297
 30
0.0
 11
-6.412044
 21
35.720843
 31
0.0
  0
LINE
  5
4f7
100
AcDbEntity
  8
rim
 62
1
100
AcDbLine
 10
-6.412044
 20
35.720843
 30
0.0
 11
-5.290975
 21
34.401674
 31
0.0
  0
LINE
  5
4f8
100
AcDbEntity
  8
rim
 62
1
100
AcDbLine
 10
-5.290975
 20
34.401674
 30
0.0
 11
-4.275514
 21
32.991099
 31
0.0
  0
LINE
  5
4f9
100
AcDbEntity
  8
rim
 62
1
100
AcDbLine
 10
-4.275514
 20
32.991099
 30
0.0
 11
-3.358168
 21
31.509429
 31
0.0
  0
LINE
  5
4fa
100
AcDbEntity
  8
rim
 62
1
100
AcDbLine
 10
-3.358168
 20
31.509429
 30
0.0
 11
-2.531437
 21
29.976971
 31
0.0
  0
LINE
  5
4fb
100
AcDbEntity
  8
rim
 62
1
100
AcDbLine
 10
-2.531437
 20
29.976971
 30
0.0
 11
-1.787835
 21
28.414036
 31
0.0
  0
LINE
  5
4fc
100
AcDbEntity
  8
rim
 62
1
100
AcDbLine
 10
-1.787835
 20
28.414036
 30
0.0
 11
-2.028898
 21
27.952064
 31
0.0
  0
LINE
  5
4fd
100
AcDbEntity
  8
rim
 62
1
100
AcDbLine
 10
-2.028898
 20
27.952064
 30
0.0
 11
-2.386796
 21
27.624869
 31
0.0
  0
LINE
  5
4fe
100
AcDbEntity
  8
rim
 62
1
100
AcDbLine
 10
-2.386796
 20
27.624869
 30
0.0
 11
-2.832814
 21
27.397534
 31
0.0
  0
LINE
  5
4ff
100
AcDbEntity
  8
rim
 62
1
100
AcDbLine
 10
-2.832814
 20
27.397534
 30
0.0
 11
-3.338246
 21
27.235132
 31
0.0
  0
LINE
  5
500
100
AcDbEntity
  8
rim
 62
1
100
AcDbLine
 10
-3.338246
 20
27.235132
 30
0.0
 11
-4.412508
 21
26.965460
 31
0.0
  0
LINE
  5
501
100
AcDbEntity
  8
rim
 62
1
100
AcDbLine
 10
-4.412508
 20
26.965460
 30
0.0
 11
-4.923923
 21
26.788346
 31
0.0
  0
LINE
  5
502
100
AcDbEntity
  8
rim
 62
1
100
AcDbLine
 10
-4.923923
 20
26.788346
 30
0.0
 11
-5.379909
 21
26.536485
 31
0.0
  0
LINE
  5
503
100
AcDbEntity
  8
rim
 62
1
100
AcDbLine
 10
-5.379909
 20
26.536485
 30
0.0
 11
-6.603204
 21
25.965151
 31
0.0
  0
LINE
  5
504
100
AcDbEntity
  8
rim
 62
1
100
AcDbLine
 10
-6.603204
 20
25.965151
 30
0.0
 11
-7.773518
 21
25.286322
 31
0.0
  0
LINE
  5
505
100
AcDbEntity
  8
rim
 62
1
100
AcDbLine
 10
-7.773518
 20
25.286322
 30
0.0
 11
-8.878135
 21
24.504790
 31
0.0
  0
LINE
  5
506
100
AcDbEntity
  8
rim
 62
1
100
AcDbLine
 10
-8.878135
 20
24.504790
 30
0.0
 11
-9.904349
 21
23.625340
 31
0.0
  0
LINE
  5
507
100
AcDbEntity
  8
rim
 62
1
100
AcDbLine
 10
-9.904349
 20
23.625340
 30
0.0
 11
-10.839442
 21
22.652763
 31
0.0
  0
LINE
  5
508
100
AcDbEntity
  8
rim
 62
1
100
AcDbLine
 10
-10.839442
 20
22.652763
 30
0.0
 11
-11.670705
 21
21.591853
 31
0.0
  0
LINE
  5
509
100
AcDbEntity
  8
rim
 62
1
100
AcDbLine
 10
-11.670705
 20
21.591853
 30
0.0
 11
-12.385427
 21
20.447394
 31
0.0
  0
LINE
  5
50a
100
AcDbEntity
  8
rim
 62
1
100
AcDbLine
 10
-12.385427
 20
20.447394
 30
0.0
 11
-12.970891
 21
19.224175
 31
0.0
  0
LINE
  5
50b
100
AcDbEntity
  8
rim
 62
1
100
AcDbLine
 10
-12.970891
 20
19.224175
 30
0.0
 11
-11.346612
 21
18.449890
 31
0.0
  0
LINE
  5
50c
100
AcDbEntity
  8
rim
 62
1
100
AcDbLine
 10
-11.346612
 20
18.449890
 30
0.0
 11
-9.653990
 21
17.971455
 31
0.0
  0
LINE
  5
50d
100
AcDbEntity
  8
rim
 62
1
100
AcDbLine
 10
-9.653990
 20
17.971455
 30
0.0
 11
-7.911431
 21
17.740214
 31
0.0
  0
LINE
  5
50e
100
AcDbEntity
  8
rim
 62
1
100
AcDbLine
 10
-7.911431
 20
17.740214
 30
0.0
 11
-6.137357
 21
17.707504
 31
0.0
  0
LINE
  5
50f
100
AcDbEntity
  8
rim
 62
1
100
AcDbLine
 10
-6.137357
 20
17.707504
 30
0.0
 11
-4.350176
 21
17.824666
 31
0.0
  0
LINE
  5
510
100
AcDbEntity
  8
rim
 62
1
100
AcDbLine
 10
-4.350176
 20
17.824666
 30
0.0
 11
-2.568310
 21
18.043041
 31
0.0
  0
LINE
  5
511
100
AcDbEntity
  8
rim
 62
1
100
AcDbLine
 10
-2.568310
 20
18.043041
 30
0.0
 11
0.905837
 21
18.588794
 31
0.0
  0
LINE
  5
512
100
AcDbEntity
  8
rim
 62
1
100
AcDbLine
 10
0.905837
 20
18.588794
 30
0.0
 11
1.245893
 21
18.040436
 31
0.0
  0
LINE
  5
513
100
AcDbEntity
  8
rim
 62
1
100
AcDbLine
 10
1.245893
 20
18.040436
 30
0.0
 11
1.494228
 21
17.427743
 31
0.0
  0
LINE
  5
514
100
AcDbEntity
  8
rim
 62
1
100
AcDbLine
 10
1.494228
 20
17.427743
 30
0.0
 11
1.792159
 21
16.071527
 31
0.0
  0
LINE
  5
515
100
AcDbEntity
  8
rim
 62
1
100
AcDbLine
 10
1.792159
 20
16.071527
 30
0.0
 11
2.127998
 21
13.271050
 31
0.0
  0
LINE
  5
516
100
AcDbEntity
  8
rim
 62
1
100
AcDbLine
 10
2.127998
 20
13.271050
 30
0.0
 11
2.248052
 21
10.117307
 31
0.0
  0
LINE
  5
517
100
AcDbEntity
  8
rim
 62
1
100
AcDbLine
 10
2.248052
 20
10.117307
 30
0.0
 11
2.075945
 21
6.969400
 31
0.0
  0
LINE
  5
518
100
AcDbEntity
  8
rim
 62
1
100
AcDbLine
 10
2.075945
 20
6.969400
 30
0.0
 11
1.638819
 21
3.845824
 31
0.0
  0
LINE
  5
519
100
AcDbEntity
  8
rim
 62
1
100
AcDbLine
 10
1.638819
 20
3.845824
 30
0.0
 11
0.963831
 21
0.765078
 31
0.0
  0
LINE
  5
51a
100
AcDbEntity
  8
rim
 62
1
100
AcDbLine
 10
0.963831
 20
0.765078
 30
0.0
 11
2.935422
 21
1.362847
 31
0.0
  0
LINE
  5
51b
100
AcDbEntity
  8
rim
 62
1
100
AcDbLine
 10
2.935422
 20
1.362847
 30
0.0
 11
4.877841
 21
2.064101
 31
0.0
  0
LINE
  5
51c
100
AcDbEntity
  8
rim
 62
1
100
AcDbLine
 10
4.877841
 20
2.064101
 30
0.0
 11
6.781205
 21
2.870769
 31
0.0
  0
LINE
  5
51d
100
AcDbEntity
  8
rim
 62
1
100
AcDbLine
 10
6.781205
 20
2.870769
 30
0.0
 11
8.635616
 21
3.784771
 31
0.0
  0
LINE
  5
51e
100
AcDbEntity
  8
rim
 62
1
100
AcDbLine
 10
8.635616
 20
3.784771
 30
0.0
 11
10.431190
 21
4.808032
 31
0.0
  0
LINE
  5
51f
100
AcDbEntity
  8
rim
 62
1
100
AcDbLine
 10
10.431190
 20
4.808032
 30
0.0
 11
12.158037
 21
5.942484
 31
0.0
  0
LINE
  5
520
100
AcDbEntity
  8
rim
 62
1
100
AcDbLine
 10
12.158037
 20
5.942484
 30
0.0
 11
13.806263
 21
7.190047
 31
0.0
  0
LINE
  5
521
100
AcDbEntity
  8
rim
 62
1
100
AcDbLine
 10
13.806263
 20
7.190047
 30
0.0
 11
15.365984
 21
8.552647
 31
0.0
  0
LINE
  5
522
100
AcDbEntity
  8
rim
 62
1
100
AcDbLine
 10
15.365984
 20
8.552647
 30
0.0
 11
13.005102
 21
11.376557
 31
0.0
  0
LINE
  5
523
100
AcDbEntity
  8
rim
 62
1
100
AcDbLine
 10
13.005102
 20
11.376557
 30
0.0
 11
11.919540
 21
12.894238
 31
0.0
  0
LINE
  5
524
100
AcDbEntity
  8
rim
 62
1
100
AcDbLine
 10
11.919540
 20
12.894238
 30
0.0
 11
10.954447
 21
14.481648
 31
0.0
  0
LINE
  5
525
100
AcDbEntity
  8
rim
 62
1
100
AcDbLine
 10
10.954447
 20
14.481648
 30
0.0
 11
10.152741
 21
16.138216
 31
0.0
  0
LINE
  5
526
100
AcDbEntity
  8
rim
 62
1
100
AcDbLine
 10
10.152741
 20
16.138216
 30
0.0
 11
9.557337
 21
17.863381
 31
0.0
  0
LINE
  5
527
100
AcDbEntity
  8
rim
 62
1
100
AcDbLine
 10
9.557337
 20
17.863381
 30
0.0
 11
9.211149
 21
19.656576
 31
0.0
  0
LINE
  5
528
100
AcDbEntity
  8
rim
 62
1
100
AcDbLine
 10
9.211149
 20
19.656576
 30
0.0
 11
9.157095
 21
21.517230
 31
0.0
  0
LINE
  5
529
100
AcDbEntity
  8
rim
 62
1
100
AcDbLine
 10
9.157095
 20
21.517230
 30
0.0
 11
9.591875
 21
21.860252
 31
0.0
  0
LINE
  5
52a
100
AcDbEntity
  8
rim
 62
1
100
AcDbLine
 10
9.591875
 20
21.860252
 30
0.0
 11
10.098848
 21
22.075771
 31
0.0
  0
LINE
  5
52b
100
AcDbEntity
  8
rim
 62
1
100
AcDbLine
 10
10.098848
 20
22.075771
 30
0.0
 11
10.660411
 21
22.188654
 31
0.0
  0
LINE
  5
52c
100
AcDbEntity
  8
rim
 62
1
100
AcDbLine
 10
10.660411
 20
22.188654
 30
0.0
 11
11.258951
 21
22.223776
 31
0.0
  0
LINE
  5
52d
100
AcDbEntity
  8
rim
 62
1
100
AcDbLine
 10
11.258951
 20
22.223776
 30
0.0
 11
13.670717
 21
22.083978
 31
0.0
  0
LINE
  5
52e
100
AcDbEntity
  8
rim
 62
1
100
AcDbLine
 10
13.670717
 20
22.083978
 30
0.0
 11
15.033154
 21
21.847058
 31
0.0
  0
LINE
  5
52f
100
AcDbEntity
  8
rim
 62
1
100
AcDbLine
 10
15.033154
 20
21.847058
 30
0.0
 11
16.356979
 21
21.474352
 31
0.0
  0
LINE
  5
530
100
AcDbEntity
  8
rim
 62
1
100
AcDbLine
 10
16.356979
 20
21.474352
 30
0.0
 11
17.638564
 21
20.978259
 31
0.0
  0
LINE
  5
531
100
AcDbEntity
  8
rim
 62
1
100
AcDbLine
 10
17.638564
 20
20.978259
 30
0.0
 11
18.874280
 21
20.371182
 31
0.0
  0
LINE
  5
532
100
AcDbEntity
  8
rim
 62
1
100
AcDbLine
 10
18.874280
 20
20.371182
 30
0.0
 11
20.060494
 21
19.665522
 31
0.0
  0
LINE
  5
533
100
AcDbEntity
  8
rim
 62
1
100
AcDbLine
 10
20.060494
 20
19.665522
 30
0.0
 11
21.193582
 21
18.873680
 31
0.0
  0
LINE
  5
534
100
AcDbEntity
  8
rim
 62
1
100
AcDbLine
 10
21.193582
 20
18.873680
 30
0.0
 11
22.269907
 21
18.008054
 31
0.0
  0
LINE
  5
535
100
AcDbEntity
  8
rim
 62
1
100
AcDbLine
 10
22.269907
 20
18.008054
 30
0.0
 11
23.285845
 21
17.081050
 31
0.0
  0
LINE
  5
536
100
AcDbEntity
  8
rim
 62
1
100
AcDbLine
 10
23.285845
 20
17.081050
 30
0.0
 11
24.947589
 21
19.709213
 31
0.0
  0
LINE
  5
537
100
AcDbEntity
  8
rim
 62
1
100
AcDbLine
 10
24.947589
 20
19.709213
 30
0.0
 11
25.668563
 21
21.094755
 31
0.0
  0
LINE
  5
538
100
AcDbEntity
  8
rim
 62
1
100
AcDbLine
 10
25.668563
 20
21.094755
 30
0.0
 11
26.292367
 21
22.522751
 31
0.0
  0
LINE
  5
539
100
AcDbEntity
  8
rim
 62
1
100
AcDbLine
 10
26.292367
 20
22.522751
 30
0.0
 11
26.801081
 21
23.989322
 31
0.0
  0
LINE
  5
53a
100
AcDbEntity
  8
rim
 62
1
100
AcDbLine
 10
26.801081
 20
23.989322
 30
0.0
 11
27.176781
 21
25.490578
 31
0.0
  0
LINE
  5
53b
100
AcDbEntity
  8
rim
 62
1
100
AcDbLine
 10
27.176781
 20
25.490578
 30
0.0
 11
27.401543
 21
27.022635
 31
0.0
  0
LINE
  5
53c
100
AcDbEntity
  8
rim
 62
1
100
AcDbLine
 10
27.401543
 20
27.022635
 30
0.0
 11
27.457442
 21
28.581605
 31
0.0
  0
LINE
  5
53d
100
AcDbEntity
  8
rim
 62
1
100
AcDbLine
 10
27.457442
 20
28.581605
 30
0.0
 11
25.529055
 21
27.453196
 31
0.0
  0
LINE
  5
53e
100
AcDbEntity
  8
rim
 62
1
100
AcDbLine
 10
25.529055
 20
27.453196
 30
0.0
 11
23.479176
 21
26.594027
 31
0.0
  0
LINE
  5
53f
100
AcDbEntity
  8
rim
 62
1
100
AcDbLine
 10
23.479176
 20
26.594027
 30
0.0
 11
21.340389
 21
26.004377
 31
0.0
  0
LINE
  5
540
100
AcDbEntity
  8
rim
 62
1
100
AcDbLine
 10
21.340389
 20
26.004377
 30
0.0
 11
19.145290
 21
25.684529
 31
0.0
  0
LINE
  5
541
100
AcDbEntity
  8
rim
 62
1
100
AcDbLine
 10
19.145290
 20
25.684529
 30
0.0
 11
16.926467
 21
25.634762
 31
0.0
  0
LINE
  5
542
100
AcDbEntity
  8
rim
 62
1
100
AcDbLine
 10
16.926467
 20
25.634762
 30
0.0
 11
14.716509
 21
25.855358
 31
0.0
  0
LINE
  5
543
100
AcDbEntity
  8
rim
 62
1
100
AcDbLine
 10
14.716509
 20
25.855358
 30
0.0
 11
12.548009
 21
26.346597
 31
0.0
  0
LINE
  5
544
100
AcDbEntity
  8
rim
 62
1
100
AcDbLine
 10
12.548009
 20
26.346597
 30
0.0
 11
10.453553
 21
27.108758
 31
0.0
  0
LINE
  5
545
100
AcDbEntity
  8
rim
 62
1
100
AcDbLine
 10
10.453553
 20
27.108758
 30
0.0
 11
8.232171
 21
28.078581
 31
0.0
  0
LINE
  5
546
100
AcDbEntity
  8
rim
 62
1
100
AcDbLine
 10
8.232171
 20
28.078581
 30
0.0
 11
7.176536
 21
28.658700
 31
0.0
  0
LINE
  5
547
100
AcDbEntity
  8
rim
 62
1
100
AcDbLine
 10
7.176536
 20
28.658700
 30
0.0
 11
6.246678
 21
29.392994
 31
0.0
  0
LINE
  5
548
100
AcDbEntity
  8
rim
 62
1
100
AcDbLine
 10
6.246678
 20
29.392994
 30
0.0
 11
6.867124
 21
30.801049
 31
0.0
  0
LINE
  5
549
100
AcDbEntity
  8
rim
 62
1
100
AcDbLine
 10
6.867124
 20
30.801049
 30
0.0
 11
7.331095
 21
32.263990
 31
0.0
  0
LINE
  5
54a
100
AcDbEntity
  8
rim
 62
1
100
AcDbLine
 10
7.331095
 20
32.263990
 30
0.0
 11
7.616658
 21
33.773097
 31
0.0
  0
LINE
  5
54b
100
AcDbEntity
  8
rim
 62
1
100
AcDbLine
 10
7.616658
 20
33.773097
 30
0.0
 11
7.701887
 21
35.319661
 31
0.0
  0
LINE
  5
54c
100
AcDbEntity
  8
rim
 62
1
100
AcDbLine
 10
7.701887
 20
35.319661
 30
0.0
 11
8.092076
 21
37.086634
 31
0.0
  0
LINE
  5
54d
100
AcDbEntity
  8
rim
 62
1
100
AcDbLine
 10
8.092076
 20
37.086634
 30
0.0
 11
8.408518
 21
37.935105
 31
0.0
  0
LINE
  5
54e
100
AcDbEntity
  8
rim
 62
1
100
AcDbLine
 10
8.408518
 20
37.935105
 30
0.0
 11
8.804317
 21
38.750425
 31
0.0
  0
LINE
  5
54f
100
AcDbEntity
  8
rim
 62
1
100
AcDbLine
 10
8.804317
 20
38.750425
 30
0.0
 11
6.233614
 21
40.022920
 31
0.0
  0
LINE
  5
550
100
AcDbEntity
  8
rim
 62
1
100
AcDbLine
 10
6.233614
 20
40.022920
 30
0.0
 11
4.900052
 21
40.555036
 31
0.0
  0
LINE
  5
551
100
AcDbEntity
  8
rim
 62
1
100
AcDbLine
 10
4.900052
 20
40.555036
 30
0.0
 11
3.538875
 21
41.002671
 31
0.0
  0
LINE
  5
552
100
AcDbEntity
  8
rim
 62
1
100
AcDbLine
 10
3.538875
 20
41.002671
 30
0.0
 11
2.153471
 21
41.354537
 31
0.0
  0
LINE
  5
553
100
AcDbEntity
  8
rim
 62
1
100
AcDbLine
 10
2.153471
 20
41.354537
 30
0.0
 11
0.747237
 21
41.599340
 31
0.0
  0
LINE
  5
554
100
AcDbEntity
  8
rim
 62
1
100
AcDbLine
 10
0.747237
 20
41.599340
 30
0.0
 11
-0.676436
 21
41.725784
 31
0.0
  0
LINE
  5
555
100
AcDbEntity
  8
rim
 62
1
100
AcDbLine
 10
-0.676436
 20
41.725784
 30
0.0
 11
-2.114155
 21
41.722566
 31
0.0
  0
LINE
  5
556
100
AcDbEntity
  8
rim
 62
1
100
AcDbLine
 10
-2.114155
 20
41.722566
 30
0.0
 11
-2.114155
 21
41.722566
 31
0.0
  0
SPLINE
  5
557
100
AcDbEntity
  8
details
 62
1
100
AcDbSpline
 70
8
 71
3
 72
8
 73
4
 74
0
 40
0
 40
0
 40
0
 40
0
 40
1
 40
1
 40
1
 40
1
 10
-21.515160
 20
8.346932
 30
0.0
 10
-20.947888
 20
12.747454
 30
0.0
 10
-18.827984
 20
18.763467
 30
0.0
 10
-10.669840
 20
28.829656
 30
0.0
  0
SPLINE
  5
558
100
AcDbEntity
  8
details
 62
1
100
AcDbSpline
 70
8
 71
3
 72
8
 73
4
 74
0
 40
0
 40
0
 40
0
 40
0
 40
1
 40
1
 40
1
 40
1
 10
-18.905313
 20
4.339713
 30
0.0
 10
-19.385091
 20
3.444278
 30
0.0
 10
-20.064493
 20
2.874130
 30
0.0
 10
-20.422867
 20
3.066196
 30
0.0
  0
SPLINE
  5
559
100
AcDbEntity
  8
details
 62
1
100
AcDbSpline
 70
8
 71
3
 72
8
 73
4
 74
0
 40
0
 40
0
 40
0
 40
0
 40
1
 40
1
 40
1
 40
1
 10
-20.422867
 20
3.066196
 30
0.0
 10
-20.781224
 20
3.258254
 30
0.0
 10
-20.682825
 20
4.139784
 30
0.0
 10
-20.203047
 20
5.035224
 30
0.0
  0
SPLINE
  5
55a
100
AcDbEntity
  8
details
 62
1
100
AcDbSpline
 70
8
 71
3
 72
8
 73
4
 74
0
 40
0
 40
0
 40
0
 40
0
 40
1
 40
1
 40
1
 40
1
 10
-20.203047
 20
5.035224
 30
0.0
 10
-19.723286
 20
5.930628
 30
0.0
 10
-19.043856
 20
6.500793
 30
0.0
 10
-18.685496
 20
6.308738
 30
0.0
  0
SPLINE
  5
55b
100
AcDbEntity
  8
details
 62
1
100
AcDbSpline
 70
8
 71
3
 72
8
 73
4
 74
0
 40
0
 40
0
 40
0
 40
0
 40
1
 40
1
 40
1
 40
1
 10
-18.685496
 20
6.308738
 30
0.0
 10
-18.327122
 20
6.116680
 30
0.0
 10
-18.425552
 20
5.235116
 30
0.0
 10
-18.905313
 20
4.339713
 30
0.0
  0
LINE
  5
55c
100
AcDbEntity
  8
details
 62
1
100
AcDbLine
 10
-18.905313
 20
4.339713
 30
0.0
 11
-18.905313
 21
4.339713
 31
0.0
  0
SPLINE
  5
55d
100
AcDbEntity
  8
details
 62
1
100
AcDbSpline
 70
8
 71
3
 72
8
 73
4
 74
0
 40
0
 40
0
 40
0
 40
0
 40
1
 40
1
 40
1
 40
1
 10
-24.671172
 20
5.376281
 30
0.0
 10
-24.639067
 20
4.360919
 30
0.0
 10
-24.283619
 20
3.548325
 30
0.0
 10
-23.877228
 20
3.561220
 30
0.0
  0
SPLINE
  5
55e
100
AcDbEntity
  8
details
 62
1
100
AcDbSpline
 70
8
 71
3
 72
8
 73
4
 74
0
 40
0
 40
0
 40
0
 40
0
 40
1
 40
1
 40
1
 40
1
 10
-23.877228
 20
3.561220
 30
0.0
 10
-23.470850
 20
3.574117
 30
0.0
 10
-23.167444
 20
4.407618
 30
0.0
 10
-23.199553
 20
5.422980
 30
0.0
  0
SPLINE
  5
55f
100
AcDbEntity
  8
details
 62
1
100
AcDbSpline
 70
8
 71
3
 72
8
 73
4
 74
0
 40
0
 40
0
 40
0
 40
0
 40
1
 40
1
 40
1
 40
1
 10
-23.199553
 20
5.422980
 30
0.0
 10
-23.231658
 20
6.438306
 30
0.0
 10
-23.587123
 20
7.250922
 30
0.0
 10
-23.993492
 20
7.238056
 30
0.0
  0
SPLINE
  5
560
100
AcDbEntity
  8
details
 62
1
100
AcDbSpline
 70
8
 71
3
 72
8
 73
4
 74
0
 40
0
 40
0
 40
0
 40
0
 40
1
 40
1
 40
1
 40
1
 10
-23.993492
 20
7.238056
 30
0.0
 10
-24.399886
 20
7.225158
 30
0.0
 10
-24.703281
 20
6.391607
 30
0.0
 10
-24.671172
 20
5.376281
 30
0.0
  0
LINE
  5
561
100
AcDbEntity
  8
details
 62
1
100
AcDbLine
 10
-24.671172
 20
5.376281
 30
0.0
 11
-24.671172
 21
5.376281
 31
0.0
  0
SPLINE
  5
562
100
AcDbEntity
  8
details
 62
1
100
AcDbSpline
 70
8
 71
3
 72
8
 73
4
 74
0
 40
0
 40
0
 40
0
 40
0
 40
1
 40
1
 40
1
 40
1
 10
-25.940961
 20
7.894536
 30
0.0
 10
-24.432099
 20
9.766459
 30
0.0
 10
-22.953811
 20
10.167384
 30
0.0
 10
-21.539107
 20
7.340503
 30
0.0
  0
SPLINE
  5
563
100
AcDbEntity
  8
details
 62
1
100
AcDbSpline
 70
8
 71
3
 72
8
 73
4
 74
0
 40
0
 40
0
 40
0
 40
0
 40
1
 40
1
 40
1
 40
1
 10
-21.539107
 20
7.340503
 30
0.0
 10
-19.328646
 20
9.283563
 30
0.0
 10
-17.781733
 20
9.224090
 30
0.0
 10
-17.203643
 20
6.245449
 30
0.0
  0
SPLINE
  5
564
100
AcDbEntity
  8
details
 62
1
100
AcDbSpline
 70
8
 71
3
 72
8
 73
4
 74
0
 40
0
 40
0
 40
0
 40
0
 40
1
 40
1
 40
1
 40
1
 10
-12.990353
 20
28.802300
 30
0.0
 10
-10.823022
 20
29.549405
 30
0.0
 10
-9.092218
 20
29.692618
 30
0.0
 10
-10.399254
 20
25.610881
 30
0.0
  0
LINE
  5
565
100
AcDbEntity
  8
details
 62
1
100
AcDbLine
 10
-9.327394
 20
35.441152
 30
0.0
 11
-11.331451
 21
29.944363
 31
0.0
  0
LINE
  5
566
100
AcDbEntity
  8
details
 62
1
100
AcDbLine
 10
-6.713621
 20
33.696883
 30
0.0
 11
-9.860590
 21
29.681042
 31
0.0
  0
LINE
  5
567
100
AcDbEntity
  8
details
 62
1
100
AcDbLine
 10
-5.474502
 20
31.257972
 30
0.0
 11
-9.031402
 21
28.132576
 31
0.0
  0
SPLINE
  5
568
100
AcDbEntity
  8
details
 62
1
100
AcDbSpline
 70
8
 71
3
 72
8
 73
4
 74
0
 40
0
 40
0
 40
0
 40
0
 40
1
 40
1
 40
1
 40
1
 10
-10.451829
 20
9.932031
 30
0.0
 10
-6.950710
 20
8.829919
 30
0.0
 10
-3.706588
 20
7.138333
 30
0.0
 10
-0.605386
 20
5.118544
 30
0.0
  0
SPLINE
  5
569
100
AcDbEntity
  8
details
 62
1
100
AcDbSpline
 70
8
 71
3
 72
8
 73
4
 74
0
 40
0
 40
0
 40
0
 40
0
 40
1
 40
1
 40
1
 40
1
 10
-9.855821
 20
12.137981
 30
0.0
 10
-6.583545
 20
11.407982
 30
0.0
 10
-3.293722
 20
10.477953
 30
0.0
 10
0.029391
 20
9.184125
 30
0.0
  0
SPLINE
  5
56a
100
AcDbEntity
  8
details
 62
1
100
AcDbSpline
 70
8
 71
3
 72
8
 73
4
 74
0
 40
0
 40
0
 40
0
 40
0
 40
1
 40
1
 40
1
 40
1
 10
-9.563162
 20
14.576855
 30
0.0
 10
-6.492330
 20
14.432572
 30
0.0
 10
-3.344164
 20
13.971494
 30
0.0
 10
-0.133121
 20
13.241366
 30
0.0
  0
SPLINE
  5
56b
100
AcDbEntity
  8
details
 62
1
100
AcDbSpline
 70
8
 71
3
 72
8
 73
4
 74
0
 40
0
 40
0
 40
0
 40
0
 40
1
 40
1
 40
1
 40
1
 10
-14.569708
 20
13.897151
 30
0.0
 10
-14.822856
 20
16.063859
 30
0.0
 10
-14.333762
 20
17.639771
 30
0.0
 10
-13.717812
 20
19.140654
 30
0.0
  0
SPLINE
  5
56c
100
AcDbEntity
  8
details
 62
1
100
AcDbSpline
 70
8
 71
3
 72
8
 73
4
 74
0
 40
0
 40
0
 40
0
 40
0
 40
1
 40
1
 40
1
 40
1
 10
-22.132008
 20
20.632966
 30
0.0
 10
-23.595434
 20
19.807503
 30
0.0
 10
-24.678818
 20
18.575967
 30
0.0
 10
-25.378489
 20
16.936391
 30
0.0
  0
SPLINE
  5
56d
100
AcDbEntity
  8
details
 62
1
100
AcDbSpline
 70
8
 71
3
 72
8
 73
4
 74
0
 40
0
 40
0
 40
0
 40
0
 40
1
 40
1
 40
1
 40
1
 10
-29.161980
 20
15.271760
 30
0.0
 10
-32.351845
 20
15.799902
 30
0.0
 10
-35.330892
 20
15.843220
 30
0.0
 10
-38.162648
 20
15.551067
 30
0.0
  0
SPLINE
  5
56e
100
AcDbEntity
  8
details
 62
1
100
AcDbSpline
 70
8
 71
3
 72
8
 73
4
 74
0
 40
0
 40
0
 40
0
 40
0
 40
1
 40
1
 40
1
 40
1
 10
-28.484438
 20
18.332691
 30
0.0
 10
-31.248181
 20
19.458524
 30
0.0
 10
-33.904397
 20
20.056039
 30
0.0
 10
-36.455107
 20
20.121602
 30
0.0
  0
SPLINE
  5
56f
100
AcDbEntity
  8
details
 62
1
100
AcDbSpline
 70
8
 71
3
 72
8
 73
4
 74
0
 40
0
 40
0
 40
0
 40
0
 40
1
 40
1
 40
1
 40
1
 10
-26.844696
 20
21.090115
 30
0.0
 10
-28.871590
 20
22.089334
 30
0.0
 10
-30.938566
 20
23.048850
 30
0.0
 10
-33.047378
 20
23.974294
 30
0.0
  0
SPLINE
  5
570
100
AcDbEntity
  8
details
 62
1
100
AcDbSpline
 70
8
 71
3
 72
8
 73
4
 74
0
 40
0
 40
0
 40
0
 40
0
 40
1
 40
1
 40
1
 40
1
 10
-17.939591
 20
-14.542732
 30
0.0
 10
-21.466920
 20
-11.851196
 30
0.0
 10
-25.616987
 20
-7.007303
 30
0.0
 10
-30.255492
 20
5.090952
 30
0.0
  0
SPLINE
  5
571
100
AcDbEntity
  8
details
 62
1
100
AcDbSpline
 70
8
 71
3
 72
8
 73
4
 74
0
 40
0
 40
0
 40
0
 40
0
 40
1
 40
1
 40
1
 40
1
 10
-13.164318
 20
-14.286144
 30
0.0
 10
-12.628736
 20
-15.149360
 30
0.0
 10
-12.474674
 20
-16.022815
 30
0.0
 10
-12.820193
 20
-16.237143
 30
0.0
  0
SPLINE
  5
572
100
AcDbEntity
  8
details
 62
1
100
AcDbSpline
 70
8
 71
3
 72
8
 73
4
 74
0
 40
0
 40
0
 40
0
 40
0
 40
1
 40
1
 40
1
 40
1
 10
-12.820193
 20
-16.237143
 30
0.0
 10
-13.165701
 20
-16.451460
 30
0.0
 10
-13.879929
 20
-15.925480
 30
0.0
 10
-14.415513
 20
-15.062258
 30
0.0
  0
SPLINE
  5
573
100
AcDbEntity
  8
details
 62
1
100
AcDbSpline
 70
8
 71
3
 72
8
 73
4
 74
0
 40
0
 40
0
 40
0
 40
0
 40
1
 40
1
 40
1
 40
1
 10
-14.415513
 20
-15.062258
 30
0.0
 10
-14.951075
 20
-14.199073
 30
0.0
 10
-15.105137
 20
-13.325587
 30
0.0
 10
-14.759632
 20
-13.111267
 30
0.0
  0
SPLINE
  5
574
100
AcDbEntity
  8
details
 62
1
100
AcDbSpline
 70
8
 71
3
 72
8
 73
4
 74
0
 40
0
 40
0
 40
0
 40
0
 40
1
 40
1
 40
1
 40
1
 10
-14.759632
 20
-13.111267
 30
0.0
 10
-14.414119
 20
-12.896933
 30
0.0
 10
-13.699879
 20
-13.422956
 30
0.0
 10
-13.164318
 20
-14.286144
 30
0.0
  0
LINE
  5
575
100
AcDbEntity
  8
details
 62
1
100
AcDbLine
 10
-13.164318
 20
-14.286144
 30
0.0
 11
-13.164318
 21
-14.286144
 31
0.0
  0
SPLINE
  5
576
100
AcDbEntity
  8
details
 62
1
100
AcDbSpline
 70
8
 71
3
 72
8
 73
4
 74
0
 40
0
 40
0
 40
0
 40
0
 40
1
 40
1
 40
1
 40
1
 10
-16.944941
 20
-18.761243
 30
0.0
 10
-16.049557
 20
-19.241120
 30
0.0
 10
-15.168110
 20
-19.339593
 30
0.0
 10
-14.976080
 20
-18.981199
 30
0.0
  0
SPLINE
  5
577
100
AcDbEntity
  8
details
 62
1
100
AcDbSpline
 70
8
 71
3
 72
8
 73
4
 74
0
 40
0
 40
0
 40
0
 40
0
 40
1
 40
1
 40
1
 40
1
 10
-14.976080
 20
-18.981199
 30
0.0
 10
-14.784059
 20
-18.622816
 30
0.0
 10
-15.354190
 20
-17.943307
 30
0.0
 10
-16.249574
 20
-17.463433
 30
0.0
  0
SPLINE
  5
578
100
AcDbEntity
  8
details
 62
1
100
AcDbSpline
 70
8
 71
3
 72
8
 73
4
 74
0
 40
0
 40
0
 40
0
 40
0
 40
1
 40
1
 40
1
 40
1
 10
-16.249574
 20
-17.463433
 30
0.0
 10
-17.144927
 20
-16.983573
 30
0.0
 10
-18.026405
 20
-16.885106
 30
0.0
 10
-18.218446
 20
-17.243469
 30
0.0
  0
SPLINE
  5
579
100
AcDbEntity
  8
details
 62
1
100
AcDbSpline
 70
8
 71
3
 72
8
 73
4
 74
0
 40
0
 40
0
 40
0
 40
0
 40
1
 40
1
 40
1
 40
1
 10
-18.218446
 20
-17.243469
 30
0.0
 10
-18.410473
 20
-17.601863
 30
0.0
 10
-17.840294
 20
-18.281386
 30
0.0
 10
-16.944941
 20
-18.761243
 30
0.0
  0
LINE
  5
57a
100
AcDbEntity
  8
details
 62
1
100
AcDbLine
 10
-16.944941
 20
-18.761243
 30
0.0
 11
-16.944941
 21
-18.761243
 31
0.0
  0
SPLINE
  5
57b
100
AcDbEntity
  8
details
 62
1
100
AcDbSpline
 70
8
 71
3
 72
8
 73
4
 74
0
 40
0
 40
0
 40
0
 40
0
 40
1
 40
1
 40
1
 40
1
 10
-19.760706
 20
-18.601782
 30
0.0
 10
-20.627411
 20
-16.359106
 30
0.0
 10
-20.235477
 20
-14.878410
 30
0.0
 10
-17.079976
 20
-15.066680
 30
0.0
  0
SPLINE
  5
57c
100
AcDbEntity
  8
details
 62
1
100
AcDbSpline
 70
8
 71
3
 72
8
 73
4
 74
0
 40
0
 40
0
 40
0
 40
0
 40
1
 40
1
 40
1
 40
1
 10
-17.079976
 20
-15.066680
 30
0.0
 10
-17.657485
 20
-12.180834
 30
0.0
 10
-16.832521
 20
-10.870908
 30
0.0
 10
-13.963898
 20
-11.859583
 30
0.0
  0
SPLINE
  5
57d
100
AcDbEntity
  8
details
 62
1
100
AcDbSpline
 70
8
 71
3
 72
8
 73
4
 74
0
 40
0
 40
0
 40
0
 40
0
 40
1
 40
1
 40
1
 40
1
 10
-31.392060
 20
3.067652
 30
0.0
 10
-30.955406
 20
5.318169
 30
0.0
 10
-30.214028
 20
6.888696
 30
0.0
 10
-27.332661
 20
3.715903
 30
0.0
  0
LINE
  5
57e
100
AcDbEntity
  8
details
 62
1
100
AcDbLine
 10
-35.309993
 20
9.559294
 30
0.0
 11
-31.551663
 21
5.075336
 31
0.0
  0
LINE
  5
57f
100
AcDbEntity
  8
details
 62
1
100
AcDbLine
 10
-32.492527
 20
10.950754
 30
0.0
 11
-30.588190
 21
6.217478
 31
0.0
  0
LINE
  5
580
100
AcDbEntity
  8
details
 62
1
100
AcDbLine
 10
-29.760805
 20
10.804411
 30
0.0
 11
-28.832584
 21
6.161347
 31
0.0
  0
SPLINE
  5
581
100
AcDbEntity
  8
details
 62
1
100
AcDbSpline
 70
8
 71
3
 72
8
 73
4
 74
0
 40
0
 40
0
 40
0
 40
0
 40
1
 40
1
 40
1
 40
1
 10
-13.780666
 20
-4.169050
 30
0.0
 10
-11.075650
 20
-1.688049
 30
0.0
 10
-7.988630
 20
0.275648
 30
0.0
 10
-4.688843
 20
1.951475
 30
0.0
  0
SPLINE
  5
582
100
AcDbEntity
  8
details
 62
1
100
AcDbSpline
 70
8
 71
3
 72
8
 73
4
 74
0
 40
0
 40
0
 40
0
 40
0
 40
1
 40
1
 40
1
 40
1
 10
-15.393069
 20
-2.549922
 30
0.0
 10
-13.124733
 20
-0.081047
 30
0.0
 10
-10.674392
 20
2.303008
 30
0.0
 10
-7.892347
 20
4.533994
 30
0.0
  0
SPLINE
  5
583
100
AcDbEntity
  8
details
 62
1
100
AcDbSpline
 70
8
 71
3
 72
8
 73
4
 74
0
 40
0
 40
0
 40
0
 40
0
 40
1
 40
1
 40
1
 40
1
 10
-17.358865
 20
-1.077032
 30
0.0
 10
-15.698498
 20
1.510246
 30
0.0
 10
-13.725113
 20
4.006098
 30
0.0
 10
-11.487280
 20
6.421878
 30
0.0
  0
SPLINE
  5
584
100
AcDbEntity
  8
details
 62
1
100
AcDbSpline
 70
8
 71
3
 72
8
 73
4
 74
0
 40
0
 40
0
 40
0
 40
0
 40
1
 40
1
 40
1
 40
1
 10
-19.273497
 20
-5.752684
 30
0.0
 10
-21.276496
 20
-4.888562
 30
0.0
 10
-22.396727
 20
-3.677038
 30
0.0
 10
-23.388557
 20
-2.393167
 30
0.0
  0
SPLINE
  5
585
100
AcDbEntity
  8
details
 62
1
100
AcDbSpline
 70
8
 71
3
 72
8
 73
4
 74
0
 40
0
 40
0
 40
0
 40
0
 40
1
 40
1
 40
1
 40
1
 10
-28.888035
 20
-8.933918
 30
0.0
 10
-28.904884
 20
-10.614015
 30
0.0
 10
-28.380027
 20
-12.168021
 30
0.0
 10
-27.309947
 20
-13.593740
 30
0.0
  0
SPLINE
  5
586
100
AcDbEntity
  8
details
 62
1
100
AcDbSpline
 70
8
 71
3
 72
8
 73
4
 74
0
 40
0
 40
0
 40
0
 40
0
 40
1
 40
1
 40
1
 40
1
 10
-27.760081
 20
-17.702656
 30
0.0
 10
-29.812401
 20
-20.201087
 30
0.0
 10
-31.339440
 20
-22.759361
 30
0.0
 10
-32.502303
 20
-25.357806
 30
0.0
  0
SPLINE
  5
587
100
AcDbEntity
  8
details
 62
1
100
AcDbSpline
 70
8
 71
3
 72
8
 73
4
 74
0
 40
0
 40
0
 40
0
 40
0
 40
1
 40
1
 40
1
 40
1
 10
-30.072152
 20
-15.585422
 30
0.0
 10
-32.429024
 20
-17.415980
 30
0.0
 10
-34.274596
 20
-19.417571
 30
0.0
 10
-35.606730
 20
-21.593769
 30
0.0
  0
SPLINE
  5
588
100
AcDbEntity
  8
details
 62
1
100
AcDbSpline
 70
8
 71
3
 72
8
 73
4
 74
0
 40
0
 40
0
 40
0
 40
0
 40
1
 40
1
 40
1
 40
1
 10
-31.640280
 20
-12.786649
 30
0.0
 10
-33.519079
 20
-14.042383
 30
0.0
 10
-35.383529
 20
-15.352679
 30
0.0
 10
-37.239392
 20
-16.716241
 30
0.0
  0
SPLINE
  5
589
100
AcDbEntity
  8
details
 62
1
100
AcDbSpline
 70
8
 71
3
 72
8
 73
4
 74
0
 40
0
 40
0
 40
0
 40
0
 40
1
 40
1
 40
1
 40
1
 10
3.604088
 20
-22.773952
 30
0.0
 10
-0.490514
 20
-24.482940
 30
0.0
 10
-6.760484
 20
-25.655057
 30
0.0
 10
-19.557131
 20
-23.622992
 30
0.0
  0
SPLINE
  5
58a
100
AcDbEntity
  8
details
 62
1
100
AcDbSpline
 70
8
 71
3
 72
8
 73
4
 74
0
 40
0
 40
0
 40
0
 40
0
 40
1
 40
1
 40
1
 40
1
 10
5.769514
 20
-18.510147
 30
0.0
 10
6.784873
 20
-18.477929
 30
0.0
 10
7.618341
 20
-18.781236
 30
0.0
 10
7.631190
 20
-19.187627
 30
0.0
  0
SPLINE
  5
58b
100
AcDbEntity
  8
details
 62
1
100
AcDbSpline
 70
8
 71
3
 72
8
 73
4
 74
0
 40
0
 40
0
 40
0
 40
0
 40
1
 40
1
 40
1
 40
1
 10
7.631190
 20
-19.187627
 30
0.0
 10
7.644031
 20
-19.594007
 30
0.0
 10
6.831415
 20
-19.949554
 30
0.0
 10
5.816052
 20
-19.981772
 30
0.0
  0
SPLINE
  5
58c
100
AcDbEntity
  8
details
 62
1
100
AcDbSpline
 70
8
 71
3
 72
8
 73
4
 74
0
 40
0
 40
0
 40
0
 40
0
 40
1
 40
1
 40
1
 40
1
 10
5.816052
 20
-19.981772
 30
0.0
 10
4.800730
 20
-20.013991
 30
0.0
 10
3.967237
 20
-19.710670
 30
0.0
 10
3.954382
 20
-19.304295
 30
0.0
  0
SPLINE
  5
58d
100
AcDbEntity
  8
details
 62
1
100
AcDbSpline
 70
8
 71
3
 72
8
 73
4
 74
0
 40
0
 40
0
 40
0
 40
0
 40
1
 40
1
 40
1
 40
1
 10
3.954382
 20
-19.304295
 30
0.0
 10
3.941513
 20
-18.897903
 30
0.0
 10
4.754191
 20
-18.542366
 30
0.0
 10
5.769514
 20
-18.510147
 30
0.0
  0
LINE
  5
58e
100
AcDbEntity
  8
details
 62
1
100
AcDbLine
 10
5.769514
 20
-18.510147
 30
0.0
 11
5.769514
 21
-18.510147
 31
0.0
  0
SPLINE
  5
58f
100
AcDbEntity
  8
details
 62
1
100
AcDbSpline
 70
8
 71
3
 72
8
 73
4
 74
0
 40
0
 40
0
 40
0
 40
0
 40
1
 40
1
 40
1
 40
1
 10
7.754750
 20
-24.021814
 30
0.0
 10
8.618028
 20
-23.486329
 30
0.0
 10
9.144034
 20
-22.772205
 30
0.0
 10
8.929669
 20
-22.426709
 30
0.0
  0
SPLINE
  5
590
100
AcDbEntity
  8
details
 62
1
100
AcDbSpline
 70
8
 71
3
 72
8
 73
4
 74
0
 40
0
 40
0
 40
0
 40
0
 40
1
 40
1
 40
1
 40
1
 10
8.929669
 20
-22.426709
 30
0.0
 10
8.715313
 20
-22.081223
 30
0.0
 10
7.841773
 20
-22.235215
 30
0.0
 10
6.978500
 20
-22.770704
 30
0.0
  0
SPLINE
  5
591
100
AcDbEntity
  8
details
 62
1
100
AcDbSpline
 70
8
 71
3
 72
8
 73
4
 74
0
 40
0
 40
0
 40
0
 40
0
 40
1
 40
1
 40
1
 40
1
 10
6.978500
 20
-22.770704
 30
0.0
 10
6.115253
 20
-23.306172
 30
0.0
 10
5.589239
 20
-24.020321
 30
0.0
 10
5.803567
 20
-24.365815
 30
0.0
  0
SPLINE
  5
592
100
AcDbEntity
  8
details
 62
1
100
AcDbSpline
 70
8
 71
3
 72
8
 73
4
 74
0
 40
0
 40
0
 40
0
 40
0
 40
1
 40
1
 40
1
 40
1
 10
5.803567
 20
-24.365815
 30
0.0
 10
6.017935
 20
-24.711312
 30
0.0
 10
6.891508
 20
-24.557283
 30
0.0
 10
7.754750
 20
-24.021814
 30
0.0
  0
LINE
  5
593
100
AcDbEntity
  8
details
 62
1
100
AcDbLine
 10
7.754750
 20
-24.021814
 30
0.0
 11
7.754750
 21
-24.021814
 31
0.0
  0
SPLINE
  5
594
100
AcDbEntity
  8
details
 62
1
100
AcDbSpline
 70
8
 71
3
 72
8
 73
4
 74
0
 40
0
 40
0
 40
0
 40
0
 40
1
 40
1
 40
1
 40
1
 10
6.208776
 20
-26.380611
 30
0.0
 10
3.833210
 20
-26.009861
 30
0.0
 10
2.746855
 20
-24.930087
 30
0.0
 10
4.487655
 20
-22.291479
 30
0.0
  0
SPLINE
  5
595
100
AcDbEntity
  8
details
 62
1
100
AcDbSpline
 70
8
 71
3
 72
8
 73
4
 74
0
 40
0
 40
0
 40
0
 40
0
 40
1
 40
1
 40
1
 40
1
 10
4.487655
 20
-22.291479
 30
0.0
 10
1.699683
 20
-21.348693
 30
0.0
 10
0.977733
 20
-19.979289
 30
0.0
 10
3.268263
 20
-17.989329
 30
0.0
  0
SPLINE
  5
596
100
AcDbEntity
  8
details
 62
1
100
AcDbSpline
 70
8
 71
3
 72
8
 73
4
 74
0
 40
0
 40
0
 40
0
 40
0
 40
1
 40
1
 40
1
 40
1
 10
-18.373186
 20
-25.618938
 30
0.0
 10
-20.103863
 20
-24.115526
 30
0.0
 10
-21.093289
 20
-22.688213
 30
0.0
 10
-16.904885
 20
-21.779268
 30
0.0
  0
LINE
  5
597
100
AcDbEntity
  8
details
 62
1
100
AcDbLine
 10
-25.954078
 20
-25.766148
 30
0.0
 11
-20.191690
 21
-24.753317
 31
0.0
  0
LINE
  5
598
100
AcDbEntity
  8
details
 62
1
100
AcDbLine
 10
-25.750385
 20
-22.630419
 30
0.0
 11
-20.699081
 21
-23.347854
 31
0.0
  0
LINE
  5
599
100
AcDbEntity
  8
details
 62
1
100
AcDbLine
 10
-24.257785
 20
-20.337852
 30
0.0
 11
-19.772661
 21
-21.855522
 31
0.0
  0
SPLINE
  5
59a
100
AcDbEntity
  8
details
 62
1
100
AcDbSpline
 70
8
 71
3
 72
8
 73
4
 74
0
 40
0
 40
0
 40
0
 40
0
 40
1
 40
1
 40
1
 40
1
 10
-3.300315
 20
-13.985374
 30
0.0
 10
-4.096419
 20
-10.402264
 30
0.0
 10
-4.253521
 20
-6.746975
 30
0.0
 10
-4.054935
 20
-3.051363
 30
0.0
  0
SPLINE
  5
59b
100
AcDbEntity
  8
details
 62
1
100
AcDbSpline
 70
8
 71
3
 72
8
 73
4
 74
0
 40
0
 40
0
 40
0
 40
0
 40
1
 40
1
 40
1
 40
1
 10
-5.508729
 20
-14.572193
 30
0.0
 10
-6.512670
 20
-11.373320
 30
0.0
 10
-7.352151
 20
-8.059235
 30
0.0
 10
-7.893219
 20
-4.534421
 30
0.0
  0
SPLINE
  5
59c
100
AcDbEntity
  8
details
 62
1
100
AcDbSpline
 70
8
 71
3
 72
8
 73
4
 74
0
 40
0
 40
0
 40
0
 40
0
 40
1
 40
1
 40
1
 40
1
 10
-7.767185
 20
-15.538181
 30
0.0
 10
-9.177647
 20
-12.806619
 30
0.0
 10
-10.352425
 20
-9.849693
 30
0.0
 10
-11.325637
 20
-6.703781
 30
0.0
  0
SPLINE
  5
59d
100
AcDbEntity
  8
details
 62
1
100
AcDbSpline
 70
8
 71
3
 72
8
 73
4
 74
0
 40
0
 40
0
 40
0
 40
0
 40
1
 40
1
 40
1
 40
1
 10
-4.675268
 20
-19.534123
 30
0.0
 10
-6.425116
 20
-20.836708
 30
0.0
 10
-8.034443
 20
-21.201096
 30
0.0
 10
-9.642224
 20
-21.418111
 30
0.0
  0
SPLINE
  5
59e
100
AcDbEntity
  8
details
 62
1
100
AcDbSpline
 70
8
 71
3
 72
8
 73
4
 74
0
 40
0
 40
0
 40
0
 40
0
 40
1
 40
1
 40
1
 40
1
 10
-6.727509
 20
-29.451174
 30
0.0
 10
-5.280922
 20
-30.305808
 30
0.0
 10
-3.672690
 20
-30.628278
 30
0.0
 10
-1.902943
 20
-30.414422
 30
0.0
  0
SPLINE
  5
59f
100
AcDbEntity
  8
details
 62
1
100
AcDbSpline
 70
8
 71
3
 72
8
 73
4
 74
0
 40
0
 40
0
 40
0
 40
0
 40
1
 40
1
 40
1
 40
1
 10
1.430421
 20
-32.858709
 30
0.0
 10
2.567965
 20
-35.885285
 30
0.0
 10
4.019973
 20
-38.486875
 30
0.0
 10
5.688863
 20
-40.793169
 30
0.0
  0
SPLINE
  5
5a0
100
AcDbEntity
  8
details
 62
1
100
AcDbSpline
 70
8
 71
3
 72
8
 73
4
 74
0
 40
0
 40
0
 40
0
 40
0
 40
1
 40
1
 40
1
 40
1
 10
-1.559196
 20
-33.802403
 30
0.0
 10
-1.152322
 20
-36.758791
 30
0.0
 10
-0.341681
 20
-39.357903
 30
0.0
 10
0.876895
 20
-41.599664
 30
0.0
  0
SPLINE
  5
5a1
100
AcDbEntity
  8
details
 62
1
100
AcDbSpline
 70
8
 71
3
 72
8
 73
4
 74
0
 40
0
 40
0
 40
0
 40
0
 40
1
 40
1
 40
1
 40
1
 10
-4.767066
 20
-33.761055
 30
0.0
 10
-4.618967
 20
-36.016008
 30
0.0
 10
-4.416445
 20
-38.285817
 30
0.0
 10
-4.163495
 20
-40.574825
 30
0.0
  0
SPLINE
  5
5a2
100
AcDbEntity
  8
details
 62
1
100
AcDbSpline
 70
8
 71
3
 72
8
 73
4
 74
0
 40
0
 40
0
 40
0
 40
0
 40
1
 40
1
 40
1
 40
1
 10
21.545412
 20
-8.170673
 30
0.0
 10
20.978139
 20
-12.571195
 30
0.0
 10
18.858236
 20
-18.587208
 30
0.0
 10
10.700091
 20
-28.653397
 30
0.0
  0
SPLINE
  5
5a3
100
AcDbEntity
  8
details
 62
1
100
AcDbSpline
 70
8
 71
3
 72
8
 73
4
 74
0
 40
0
 40
0
 40
0
 40
0
 40
1
 40
1
 40
1
 40
1
 10
18.935565
 20
-4.163454
 30
0.0
 10
19.415342
 20
-3.268019
 30
0.0
 10
20.094744
 20
-2.697871
 30
0.0
 10
20.453119
 20
-2.889937
 30
0.0
  0
SPLINE
  5
5a4
100
AcDbEntity
  8
details
 62
1
100
AcDbSpline
 70
8
 71
3
 72
8
 73
4
 74
0
 40
0
 40
0
 40
0
 40
0
 40
1
 40
1
 40
1
 40
1
 10
20.453119
 20
-2.889937
 30
0.0
 10
20.811476
 20
-3.081995
 30
0.0
 10
20.713076
 20
-3.963525
 30
0.0
 10
20.233299
 20
-4.858965
 30
0.0
  0
SPLINE
  5
5a5
100
AcDbEntity
  8
details
 62
1
100
AcDbSpline
 70
8
 71
3
 72
8
 73
4
 74
0
 40
0
 40
0
 40
0
 40
0
 40
1
 40
1
 40
1
 40
1
 10
20.233299
 20
-4.858965
 30
0.0
 10
19.753538
 20
-5.754369
 30
0.0
 10
19.074107
 20
-6.324534
 30
0.0
 10
18.715747
 20
-6.132479
 30
0.0
  0
SPLINE
  5
5a6
100
AcDbEntity
  8
details
 62
1
100
AcDbSpline
 70
8
 71
3
 72
8
 73
4
 74
0
 40
0
 40
0
 40
0
 40
0
 40
1
 40
1
 40
1
 40
1
 10
18.715747
 20
-6.132479
 30
0.0
 10
18.357373
 20
-5.940421
 30
0.0
 10
18.455804
 20
-5.058857
 30
0.0
 10
18.935565
 20
-4.163454
 30
0.0
  0
LINE
  5
5a7
100
AcDbEntity
  8
details
 62
1
100
AcDbLine
 10
18.935565
 20
-4.163454
 30
0.0
 11
18.935565
 21
-4.163454
 31
0.0
  0
SPLINE
  5
5a8
100
AcDbEntity
  8
details
 62
1
100
AcDbSpline
 70
8
 71
3
 72
8
 73
4
 74
0
 40
0
 40
0
 40
0
 40
0
 40
1
 40
1
 40
1
 40
1
 10
24.701424
 20
-5.200022
 30
0.0
 10
24.669318
 20
-4.184660
 30
0.0
 10
24.313871
 20
-3.372066
 30
0.0
 10
23.907479
 20
-3.384961
 30
0.0
  0
SPLINE
  5
5a9
100
AcDbEntity
  8
details
 62
1
100
AcDbSpline
 70
8
 71
3
 72
8
 73
4
 74
0
 40
0
 40
0
 40
0
 40
0
 40
1
 40
1
 40
1
 40
1
 10
23.907479
 20
-3.384961
 30
0.0
 10
23.501102
 20
-3.397858
 30
0.0
 10
23.197696
 20
-4.231359
 30
0.0
 10
23.229804
 20
-5.246721
 30
0.0
  0
SPLINE
  5
5aa
100
AcDbEntity
  8
details
 62
1
100
AcDbSpline
 70
8
 71
3
 72
8
 73
4
 74
0
 40
0
 40
0
 40
0
 40
0
 40
1
 40
1
 40
1
 40
1
 10
23.229804
 20
-5.246721
 30
0.0
 10
23.261910
 20
-6.262047
 30
0.0
 10
23.617374
 20
-7.074663
 30
0.0
 10
24.023743
 20
-7.061797
 30
0.0
  0
SPLINE
  5
5ab
100
AcDbEntity
  8
details
 62
1
100
AcDbSpline
 70
8
 71
3
 72
8
 73
4
 74
0
 40
0
 40
0
 40
0
 40
0
 40
1
 40
1
 40
1
 40
1
 10
24.023743
 20
-7.061797
 30
0.0
 10
24.430138
 20
-7.048899
 30
0.0
 10
24.733532
 20
-6.215348
 30
0.0
 10
24.701424
 20
-5.200022
 30
0.0
  0
LINE
  5
5ac
100
AcDbEntity
  8
details
 62
1
100
AcDbLine
 10
24.701424
 20
-5.200022
 30
0.0
 11
24.701424
 21
-5.200022
 31
0.0
  0
SPLINE
  5
5ad
100
AcDbEntity
  8
details
 62
1
100
AcDbSpline
 70
8
 71
3
 72
8
 73
4
 74
0
 40
0
 40
0
 40
0
 40
0
 40
1
 40
1
 40
1
 40
1
 10
25.971212
 20
-7.718277
 30
0.0
 10
24.462351
 20
-9.590200
 30
0.0
 10
22.984062
 20
-9.991125
 30
0.0
 10
21.569358
 20
-7.164244
 30
0.0
  0
SPLINE
  5
5ae
100
AcDbEntity
  8
details
 62
1
100
AcDbSpline
 70
8
 71
3
 72
8
 73
4
 74
0
 40
0
 40
0
 40
0
 40
0
 40
1
 40
1
 40
1
 40
1
 10
21.569358
 20
-7.164244
 30
0.0
 10
19.358898
 20
-9.107304
 30
0.0
 10
17.811984
 20
-9.047831
 30
0.0
 10
17.233894
 20
-6.069190
 30
0.0
  0
SPLINE
  5
5af
100
AcDbEntity
  8
details
 62
1
100
AcDbSpline
 70
8
 71
3
 72
8
 73
4
 74
0
 40
0
 40
0
 40
0
 40
0
 40
1
 40
1
 40
1
 40
1
 10
13.020604
 20
-28.626041
 30
0.0
 10
10.853273
 20
-29.373146
 30
0.0
 10
9.122469
 20
-29.516359
 30
0.0
 10
10.429505
 20
-25.434622
 30
0.0
  0
LINE
  5
5b0
100
AcDbEntity
  8
details
 62
1
100
AcDbLine
 10
9.357645
 20
-35.264893
 30
0.0
 11
11.361702
 21
-29.768104
 31
0.0
  0
LINE
  5
5b1
100
AcDbEntity
  8
details
 62
1
100
AcDbLine
 10
6.743872
 20
-33.520624
 30
0.0
 11
9.890842
 21
-29.504783
 31
0.0
  0
LINE
  5
5b2
100
AcDbEntity
  8
details
 62
1
100
AcDbLine
 10
5.504753
 20
-31.081713
 30
0.0
 11
9.061653
 21
-27.956317
 31
0.0
  0
SPLINE
  5
5b3
100
AcDbEntity
  8
details
 62
1
100
AcDbSpline
 70
8
 71
3
 72
8
 73
4
 74
0
 40
0
 40
0
 40
0
 40
0
 40
1
 40
1
 40
1
 40
1
 10
10.482080
 20
-9.755772
 30
0.0
 10
6.980961
 20
-8.653660
 30
0.0
 10
3.736840
 20
-6.962074
 30
0.0
 10
0.635638
 20
-4.942286
 30
0.0
  0
SPLINE
  5
5b4
100
AcDbEntity
  8
details
 62
1
100
AcDbSpline
 70
8
 71
3
 72
8
 73
4
 74
0
 40
0
 40
0
 40
0
 40
0
 40
1
 40
1
 40
1
 40
1
 10
9.886072
 20
-11.961722
 30
0.0
 10
6.613796
 20
-11.231723
 30
0.0
 10
3.323974
 20
-10.301694
 30
0.0
 10
0.000861
 20
-9.007866
 30
0.0
  0
SPLINE
  5
5b5
100
AcDbEntity
  8
details
 62
1
100
AcDbSpline
 70
8
 71
3
 72
8
 73
4
 74
0
 40
0
 40
0
 40
0
 40
0
 40
1
 40
1
 40
1
 40
1
 10
9.593413
 20
-14.400596
 30
0.0
 10
6.522582
 20
-14.256313
 30
0.0
 10
3.374415
 20
-13.795235
 30
0.0
 10
0.163373
 20
-13.065107
 30
0.0
  0
SPLINE
  5
5b6
100
AcDbEntity
  8
details
 62
1
100
AcDbSpline
 70
8
 71
3
 72
8
 73
4
 74
0
 40
0
 40
0
 40
0
 40
0
 40
1
 40
1
 40
1
 40
1
 10
14.599960
 20
-13.720892
 30
0.0
 10
14.853107
 20
-15.887600
 30
0.0
 10
14.364013
 20
-17.463512
 30
0.0
 10
13.748063
 20
-18.964395
 30
0.0
  0
SPLINE
  5
5b7
100
AcDbEntity
  8
details
 62
1
100
AcDbSpline
 70
8
 71
3
 72
8
 73
4
 74
0
 40
0
 40
0
 40
0
 40
0
 40
1
 40
1
 40
1
 40
1
 10
22.162259
 20
-20.456707
 30
0.0
 10
23.625686
 20
-19.631244
 30
0.0
 10
24.709069
 20
-18.399708
 30
0.0
 10
25.408740
 20
-16.760132
 30
0.0
  0
SPLINE
  5
5b8
100
AcDbEntity
  8
details
 62
1
100
AcDbSpline
 70
8
 71
3
 72
8
 73
4
 74
0
 40
0
 40
0
 40
0
 40
0
 40
1
 40
1
 40
1
 40
1
 10
29.192231
 20
-15.095501
 30
0.0
 10
32.382096
 20
-15.623643
 30
0.0
 10
35.361143
 20
-15.666961
 30
0.0
 10
38.192899
 20
-15.374808
 30
0.0
  0
SPLINE
  5
5b9
100
AcDbEntity
  8
details
 62
1
100
AcDbSpline
 70
8
 71
3
 72
8
 73
4
 74
0
 40
0
 40
0
 40
0
 40
0
 40
1
 40
1
 40
1
 40
1
 10
28.514689
 20
-18.156432
 30
0.0
 10
31.278432
 20
-19.282265
 30
0.0
 10
33.934648
 20
-19.879780
 30
0.0
 10
36.485359
 20
-19.945343
 30
0.0
  0
SPLINE
  5
5ba
100
AcDbEntity
  8
details
 62
1
100
AcDbSpline
 70
8
 71
3
 72
8
 73
4
 74
0
 40
0
 40
0
 40
0
 40
0
 40
1
 40
1
 40
1
 40
1
 10
26.874947
 20
-20.913856
 30
0.0
 10
28.901842
 20
-21.913075
 30
0.0
 10
30.968817
 20
-22.872591
 30
0.0
 10
33.077630
 20
-23.798035
 30
0.0
  0
SPLINE
  5
5bb
100
AcDbEntity
  8
details
 62
1
100
AcDbSpline
 70
8
 71
3
 72
8
 73
4
 74
0
 40
0
 40
0
 40
0
 40
0
 40
1
 40
1
 40
1
 40
1
 10
17.963907
 20
14.579057
 30
0.0
 10
21.491236
 20
11.887520
 30
0.0
 10
25.641303
 20
7.043627
 30
0.0
 10
30.279808
 20
-5.054627
 30
0.0
  0
SPLINE
  5
5bc
100
AcDbEntity
  8
details
 62
1
100
AcDbSpline
 70
8
 71
3
 72
8
 73
4
 74
0
 40
0
 40
0
 40
0
 40
0
 40
1
 40
1
 40
1
 40
1
 10
13.188634
 20
14.322469
 30
0.0
 10
12.653052
 20
15.185685
 30
0.0
 10
12.498990
 20
16.059140
 30
0.0
 10
12.844509
 20
16.273468
 30
0.0
  0
SPLINE
  5
5bd
100
AcDbEntity
  8
details
 62
1
100
AcDbSpline
 70
8
 71
3
 72
8
 73
4
 74
0
 40
0
 40
0
 40
0
 40
0
 40
1
 40
1
 40
1
 40
1
 10
12.844509
 20
16.273468
 30
0.0
 10
13.190017
 20
16.487785
 30
0.0
 10
13.904245
 20
15.961804
 30
0.0
 10
14.439829
 20
15.098583
 30
0.0
  0
SPLINE
  5
5be
100
AcDbEntity
  8
details
 62
1
100
AcDbSpline
 70
8
 71
3
 72
8
 73
4
 74
0
 40
0
 40
0
 40
0
 40
0
 40
1
 40
1
 40
1
 40
1
 10
14.439829
 20
15.098583
 30
0.0
 10
14.975391
 20
14.235397
 30
0.0
 10
15.129454
 20
13.361911
 30
0.0
 10
14.783949
 20
13.147592
 30
0.0
  0
SPLINE
  5
5bf
100
AcDbEntity
  8
details
 62
1
100
AcDbSpline
 70
8
 71
3
 72
8
 73
4
 74
0
 40
0
 40
0
 40
0
 40
0
 40
1
 40
1
 40
1
 40
1
 10
14.783949
 20
13.147592
 30
0.0
 10
14.438435
 20
12.933258
 30
0.0
 10
13.724196
 20
13.459281
 30
0.0
 10
13.188634
 20
14.322469
 30
0.0
  0
LINE
  5
5c0
100
AcDbEntity
  8
details
 62
1
100
AcDbLine
 10
13.188634
 20
14.322469
 30
0.0
 11
13.188634
 21
14.322469
 31
0.0
  0
SPLINE
  5
5c1
100
AcDbEntity
  8
details
 62
1
100
AcDbSpline
 70
8
 71
3
 72
8
 73
4
 74
0
 40
0
 40
0
 40
0
 40
0
 40
1
 40
1
 40
1
 40
1
 10
16.969257
 20
18.797568
 30
0.0
 10
16.073874
 20
19.277444
 30
0.0
 10
15.192426
 20
19.375917
 30
0.0
 10
15.000396
 20
19.017523
 30
0.0
  0
SPLINE
  5
5c2
100
AcDbEntity
  8
details
 62
1
100
AcDbSpline
 70
8
 71
3
 72
8
 73
4
 74
0
 40
0
 40
0
 40
0
 40
0
 40
1
 40
1
 40
1
 40
1
 10
15.000396
 20
19.017523
 30
0.0
 10
14.808375
 20
18.659140
 30
0.0
 10
15.378506
 20
17.979631
 30
0.0
 10
16.273890
 20
17.499757
 30
0.0
  0
SPLINE
  5
5c3
100
AcDbEntity
  8
details
 62
1
100
AcDbSpline
 70
8
 71
3
 72
8
 73
4
 74
0
 40
0
 40
0
 40
0
 40
0
 40
1
 40
1
 40
1
 40
1
 10
16.273890
 20
17.499757
 30
0.0
 10
17.169243
 20
17.019898
 30
0.0
 10
18.050722
 20
16.921431
 30
0.0
 10
18.242763
 20
17.279793
 30
0.0
  0
SPLINE
  5
5c4
100
AcDbEntity
  8
details
 62
1
100
AcDbSpline
 70
8
 71
3
 72
8
 73
4
 74
0
 40
0
 40
0
 40
0
 40
0
 40
1
 40
1
 40
1
 40
1
 10
18.242763
 20
17.279793
 30
0.0
 10
18.434789
 20
17.638187
 30
0.0
 10
17.864610
 20
18.317711
 30
0.0
 10
16.969257
 20
18.797568
 30
0.0
  0
LINE
  5
5c5
100
AcDbEntity
  8
details
 62
1
100
AcDbLine
 10
16.969257
 20
18.797568
 30
0.0
 11
16.969257
 21
18.797568
 31
0.0
  0
SPLINE
  5
5c6
100
AcDbEntity
  8
details
 62
1
100
AcDbSpline
 70
8
 71
3
 72
8
 73
4
 74
0
 40
0
 40
0
 40
0
 40
0
 40
1
 40
1
 40
1
 40
1
 10
19.785022
 20
18.638106
 30
0.0
 10
20.651727
 20
16.395430
 30
0.0
 10
20.259794
 20
14.914735
 30
0.0
 10
17.104292
 20
15.103005
 30
0.0
  0
SPLINE
  5
5c7
100
AcDbEntity
  8
details
 62
1
100
AcDbSpline
 70
8
 71
3
 72
8
 73
4
 74
0
 40
0
 40
0
 40
0
 40
0
 40
1
 40
1
 40
1
 40
1
 10
17.104292
 20
15.103005
 30
0.0
 10
17.681801
 20
12.217159
 30
0.0
 10
16.856837
 20
10.907233
 30
0.0
 10
13.988215
 20
11.895908
 30
0.0
  0
SPLINE
  5
5c8
100
AcDbEntity
  8
details
 62
1
100
AcDbSpline
 70
8
 71
3
 72
8
 73
4
 74
0
 40
0
 40
0
 40
0
 40
0
 40
1
 40
1
 40
1
 40
1
 10
31.416377
 20
-3.031328
 30
0.0
 10
30.979722
 20
-5.281844
 30
0.0
 10
30.238344
 20
-6.852371
 30
0.0
 10
27.356977
 20
-3.679578
 30
0.0
  0
LINE
  5
5c9
100
AcDbEntity
  8
details
 62
1
100
AcDbLine
 10
35.334310
 20
-9.522969
 30
0.0
 11
31.575979
 21
-5.039012
 31
0.0
  0
LINE
  5
5ca
100
AcDbEntity
  8
details
 62
1
100
AcDbLine
 10
32.516843
 20
-10.914429
 30
0.0
 11
30.612506
 21
-6.181154
 31
0.0
  0
LINE
  5
5cb
100
AcDbEntity
  8
details
 62
1
100
AcDbLine
 10
29.785121
 20
-10.768086
 30
0.0
 11
28.856900
 21
-6.125022
 31
0.0
  0
SPLINE
  5
5cc
100
AcDbEntity
  8
details
 62
1
100
AcDbSpline
 70
8
 71
3
 72
8
 73
4
 74
0
 40
0
 40
0
 40
0
 40
0
 40
1
 40
1
 40
1
 40
1
 10
13.804982
 20
4.205375
 30
0.0
 10
11.099967
 20
1.724373
 30
0.0
 10
8.012946
 20
-0.239323
 30
0.0
 10
4.713159
 20
-1.915150
 30
0.0
  0
SPLINE
  5
5cd
100
AcDbEntity
  8
details
 62
1
100
AcDbSpline
 70
8
 71
3
 72
8
 73
4
 74
0
 40
0
 40
0
 40
0
 40
0
 40
1
 40
1
 40
1
 40
1
 10
15.417385
 20
2.586246
 30
0.0
 10
13.149049
 20
0.117372
 30
0.0
 10
10.698709
 20
-2.266683
 30
0.0
 10
7.916664
 20
-4.497670
 30
0.0
  0
SPLINE
  5
5ce
100
AcDbEntity
  8
details
 62
1
100
AcDbSpline
 70
8
 71
3
 72
8
 73
4
 74
0
 40
0
 40
0
 40
0
 40
0
 40
1
 40
1
 40
1
 40
1
 10
17.383181
 20
1.113357
 30
0.0
 10
15.722814
 20
-1.473921
 30
0.0
 10
13.749429
 20
-3.969773
 30
0.0
 10
11.511596
 20
-6.385553
 30
0.0
  0
SPLINE
  5
5cf
100
AcDbEntity
  8
details
 62
1
100
AcDbSpline
 70
8
 71
3
 72
8
 73
4
 74
0
 40
0
 40
0
 40
0
 40
0
 40
1
 40
1
 40
1
 40
1
 10
19.297814
 20
5.789008
 30
0.0
 10
21.300813
 20
4.924886
 30
0.0
 10
22.421043
 20
3.713363
 30
0.0
 10
23.412873
 20
2.429492
 30
0.0
  0
SPLINE
  5
5d0
100
AcDbEntity
  8
details
 62
1
100
AcDbSpline
 70
8
 71
3
 72
8
 73
4
 74
0
 40
0
 40
0
 40
0
 40
0
 40
1
 40
1
 40
1
 40
1
 10
28.912352
 20
8.970243
 30
0.0
 10
28.929200
 20
10.650340
 30
0.0
 10
28.404343
 20
12.204346
 30
0.0
 10
27.334264
 20
13.630065
 30
0.0
  0
SPLINE
  5
5d1
100
AcDbEntity
  8
details
 62
1
100
AcDbSpline
 70
8
 71
3
 72
8
 73
4
 74
0
 40
0
 40
0
 40
0
 40
0
 40
1
 40
1
 40
1
 40
1
 10
27.784397
 20
17.738980
 30
0.0
 10
29.836717
 20
20.237412
 30
0.0
 10
31.363756
 20
22.795686
 30
0.0
 10
32.526619
 20
25.394131
 30
0.0
  0
SPLINE
  5
5d2
100
AcDbEntity
  8
details
 62
1
100
AcDbSpline
 70
8
 71
3
 72
8
 73
4
 74
0
 40
0
 40
0
 40
0
 40
0
 40
1
 40
1
 40
1
 40
1
 10
30.096468
 20
15.621746
 30
0.0
 10
32.453340
 20
17.452305
 30
0.0
 10
34.298913
 20
19.453895
 30
0.0
 10
35.631047
 20
21.630094
 30
0.0
  0
SPLINE
  5
5d3
100
AcDbEntity
  8
details
 62
1
100
AcDbSpline
 70
8
 71
3
 72
8
 73
4
 74
0
 40
0
 40
0
 40
0
 40
0
 40
1
 40
1
 40
1
 40
1
 10
31.664597
 20
12.822974
 30
0.0
 10
33.543395
 20
14.078708
 30
0.0
 10
35.407846
 20
15.389003
 30
0.0
 10
37.263708
 20
16.752566
 30
0.0
  0
SPLINE
  5
5d4
100
AcDbEntity
  8
details
 62
1
100
AcDbSpline
 70
8
 71
3
 72
8
 73
4
 74
0
 40
0
 40
0
 40
0
 40
0
 40
1
 40
1
 40
1
 40
1
 10
-3.529161
 20
22.824173
 30
0.0
 10
0.565441
 20
24.533161
 30
0.0
 10
6.835411
 20
25.705278
 30
0.0
 10
19.632058
 20
23.673213
 30
0.0
  0
SPLINE
  5
5d5
100
AcDbEntity
  8
details
 62
1
100
AcDbSpline
 70
8
 71
3
 72
8
 73
4
 74
0
 40
0
 40
0
 40
0
 40
0
 40
1
 40
1
 40
1
 40
1
 10
-5.694587
 20
18.560368
 30
0.0
 10
-6.709946
 20
18.528150
 30
0.0
 10
-7.543413
 20
18.831457
 30
0.0
 10
-7.556263
 20
19.237848
 30
0.0
  0
SPLINE
  5
5d6
100
AcDbEntity
  8
details
 62
1
100
AcDbSpline
 70
8
 71
3
 72
8
 73
4
 74
0
 40
0
 40
0
 40
0
 40
0
 40
1
 40
1
 40
1
 40
1
 10
-7.556263
 20
19.237848
 30
0.0
 10
-7.569104
 20
19.644229
 30
0.0
 10
-6.756487
 20
19.999775
 30
0.0
 10
-5.741125
 20
20.031994
 30
0.0
  0
SPLINE
  5
5d7
100
AcDbEntity
  8
details
 62
1
100
AcDbSpline
 70
8
 71
3
 72
8
 73
4
 74
0
 40
0
 40
0
 40
0
 40
0
 40
1
 40
1
 40
1
 40
1
 10
-5.741125
 20
20.031994
 30
0.0
 10
-4.725803
 20
20.064212
 30
0.0
 10
-3.892310
 20
19.760891
 30
0.0
 10
-3.879455
 20
19.354516
 30
0.0
  0
SPLINE
  5
5d8
100
AcDbEntity
  8
details
 62
1
100
AcDbSpline
 70
8
 71
3
 72
8
 73
4
 74
0
 40
0
 40
0
 40
0
 40
0
 40
1
 40
1
 40
1
 40
1
 10
-3.879455
 20
19.354516
 30
0.0
 10
-3.866586
 20
18.948125
 30
0.0
 10
-4.679264
 20
18.592587
 30
0.0
 10
-5.694587
 20
18.560368
 30
0.0
  0
LINE
  5
5d9
100
AcDbEntity
  8
details
 62
1
100
AcDbLine
 10
-5.694587
 20
18.560368
 30
0.0
 11
-5.694587
 21
18.560368
 31
0.0
  0
SPLINE
  5
5da
100
AcDbEntity
  8
details
 62
1
100
AcDbSpline
 70
8
 71
3
 72
8
 73
4
 74
0
 40
0
 40
0
 40
0
 40
0
 40
1
 40
1
 40
1
 40
1
 10
-7.679823
 20
24.072036
 30
0.0
 10
-8.543101
 20
23.536550
 30
0.0
 10
-9.069107
 20
22.822426
 30
0.0
 10
-8.854742
 20
22.476930
 30
0.0
  0
SPLINE
  5
5db
100
AcDbEntity
  8
details
 62
1
100
AcDbSpline
 70
8
 71
3
 72
8
 73
4
 74
0
 40
0
 40
0
 40
0
 40
0
 40
1
 40
1
 40
1
 40
1
 10
-8.854742
 20
22.476930
 30
0.0
 10
-8.640386
 20
22.131445
 30
0.0
 10
-7.766846
 20
22.285436
 30
0.0
 10
-6.903573
 20
22.820925
 30
0.0
  0
SPLINE
  5
5dc
100
AcDbEntity
  8
details
 62
1
100
AcDbSpline
 70
8
 71
3
 72
8
 73
4
 74
0
 40
0
 40
0
 40
0
 40
0
 40
1
 40
1
 40
1
 40
1
 10
-6.903573
 20
22.820925
 30
0.0
 10
-6.040326
 20
23.356394
 30
0.0
 10
-5.514312
 20
24.070543
 30
0.0
 10
-5.728640
 20
24.416036
 30
0.0
  0
SPLINE
  5
5dd
100
AcDbEntity
  8
details
 62
1
100
AcDbSpline
 70
8
 71
3
 72
8
 73
4
 74
0
 40
0
 40
0
 40
0
 40
0
 40
1
 40
1
 40
1
 40
1
 10
-5.728640
 20
24.416036
 30
0.0
 10
-5.943007
 20
24.761533
 30
0.0
 10
-6.816581
 20
24.607504
 30
0.0
 10
-7.679823
 20
24.072036
 30
0.0
  0
LINE
  5
5de
100
AcDbEntity
  8
details
 62
1
100
AcDbLine
 10
-7.679823
 20
24.072036
 30
0.0
 11
-7.679823
 21
24.072036
 31
0.0
  0
SPLINE
  5
5df
100
AcDbEntity
  8
details
 62
1
100
AcDbSpline
 70
8
 71
3
 72
8
 73
4
 74
0
 40
0
 40
0
 40
0
 40
0
 40
1
 40
1
 40
1
 40
1
 10
-6.133849
 20
26.430832
 30
0.0
 10
-3.758283
 20
26.060082
 30
0.0
 10
-2.671928
 20
24.980309
 30
0.0
 10
-4.412728
 20
22.341700
 30
0.0
  0
SPLINE
  5
5e0
100
AcDbEntity
  8
details
 62
1
100
AcDbSpline
 70
8
 71
3
 72
8
 73
4
 74
0
 40
0
 40
0
 40
0
 40
0
 40
1
 40
1
 40
1
 40
1
 10
-4.412728
 20
22.341700
 30
0.0
 10
-1.624756
 20
21.398914
 30
0.0
 10
-0.902806
 20
20.029510
 30
0.0
 10
-3.193336
 20
18.039550
 30
0.0
  0
SPLINE
  5
5e1
100
AcDbEntity
  8
details
 62
1
100
AcDbSpline
 70
8
 71
3
 72
8
 73
4
 74
0
 40
0
 40
0
 40
0
 40
0
 40
1
 40
1
 40
1
 40
1
 10
18.448113
 20
25.669159
 30
0.0
 10
20.178790
 20
24.165748
 30
0.0
 10
21.168216
 20
22.738434
 30
0.0
 10
16.979813
 20
21.829489
 30
0.0
  0
LINE
  5
5e2
100
AcDbEntity
  8
details
 62
1
100
AcDbLine
 10
26.029006
 20
25.816369
 30
0.0
 11
20.266618
 21
24.803539
 31
0.0
  0
LINE
  5
5e3
100
AcDbEntity
  8
details
 62
1
100
AcDbLine
 10
25.825312
 20
22.680641
 30
0.0
 11
20.774008
 21
23.398075
 31
0.0
  0
LINE
  5
5e4
100
AcDbEntity
  8
details
 62
1
100
AcDbLine
 10
24.332712
 20
20.388073
 30
0.0
 11
19.847588
 21
21.905743
 31
0.0
  0
SPLINE
  5
5e5
100
AcDbEntity
  8
details
 62
1
100
AcDbSpline
 70
8
 71
3
 72
8
 73
4
 74
0
 40
0
 40
0
 40
0
 40
0
 40
1
 40
1
 40
1
 40
1
 10
3.375242
 20
14.035595
 30
0.0
 10
4.171346
 20
10.452485
 30
0.0
 10
4.328448
 20
6.797197
 30
0.0
 10
4.129862
 20
3.101584
 30
0.0
  0
SPLINE
  5
5e6
100
AcDbEntity
  8
details
 62
1
100
AcDbSpline
 70
8
 71
3
 72
8
 73
4
 74
0
 40
0
 40
0
 40
0
 40
0
 40
1
 40
1
 40
1
 40
1
 10
5.583657
 20
14.622414
 30
0.0
 10
6.587597
 20
11.423541
 30
0.0
 10
7.427079
 20
8.109457
 30
0.0
 10
7.968147
 20
4.584642
 30
0.0
  0
SPLINE
  5
5e7
100
AcDbEntity
  8
details
 62
1
100
AcDbSpline
 70
8
 71
3
 72
8
 73
4
 74
0
 40
0
 40
0
 40
0
 40
0
 40
1
 40
1
 40
1
 40
1
 10
7.842112
 20
15.588402
 30
0.0
 10
9.252574
 20
12.856841
 30
0.0
 10
10.427352
 20
9.899914
 30
0.0
 10
11.400564
 20
6.754002
 30
0.0
  0
SPLINE
  5
5e8
100
AcDbEntity
  8
details
 62
1
100
AcDbSpline
 70
8
 71
3
 72
8
 73
4
 74
0
 40
0
 40
0
 40
0
 40
0
 40
1
 40
1
 40
1
 40
1
 10
4.750195
 20
19.584344
 30
0.0
 10
6.500043
 20
20.886929
 30
0.0
 10
8.109371
 20
21.251318
 30
0.0
 10
9.717151
 20
21.468333
 30
0.0
  0
SPLINE
  5
5e9
100
AcDbEntity
  8
details
 62
1
100
AcDbSpline
 70
8
 71
3
 72
8
 73
4
 74
0
 40
0
 40
0
 40
0
 40
0
 40
1
 40
1
 40
1
 40
1
 10
6.802436
 20
29.501396
 30
0.0
 10
5.355850
 20
30.356030
 30
0.0
 10
3.747618
 20
30.678500
 30
0.0
 10
1.977870
 20
30.464643
 30
0.0
  0
SPLINE
  5
5ea
100
AcDbEntity
  8
details
 62
1
100
AcDbSpline
 70
8
 71
3
 72
8
 73
4
 74
0
 40
0
 40
0
 40
0
 40
0
 40
1
 40
1
 40
1
 40
1
 10
-1.355494
 20
32.908930
 30
0.0
 10
-2.493038
 20
35.935506
 30
0.0
 10
-3.945046
 20
38.537096
 30
0.0
 10
-5.613936
 20
40.843390
 30
0.0
  0
SPLINE
  5
5eb
100
AcDbEntity
  8
details
 62
1
100
AcDbSpline
 70
8
 71
3
 72
8
 73
4
 74
0
 40
0
 40
0
 40
0
 40
0
 40
1
 40
1
 40
1
 40
1
 10
1.634123
 20
33.852625
 30
0.0
 10
1.227249
 20
36.809012
 30
0.0
 10
0.416608
 20
39.408124
 30
0.0
 10
-0.801968
 20
41.649886
 30
0.0
  0
SPLINE
  5
5ec
100
AcDbEntity
  8
details
 62
1
100
AcDbSpline
 70
8
 71
3
 72
8
 73
4
 74
0
 40
0
 40
0
 40
0
 40
0
 40
1
 40
1
 40
1
 40
1
 10
4.841994
 20
33.811276
 30
0.0
 10
4.693895
 20
36.066229
 30
0.0
 10
4.491372
 20
38.336038
 30
0.0
 10
4.238422
 20
40.625046
 30
0.0
  0
ENDSEC
  0
SECTION
  2
OBJECTS
  0
DICTIONARY
  5
C
330
0
100
AcDbDictionary
  3
ACAD_GROUP
350
D
  3
ACAD_MLINESTYLE
350
17
  0
DICTIONARY
  5
D
330
C
100
AcDbDictionary
  0
DICTIONARY
  5
1A
330
C
100
AcDbDictionary
  0
DICTIONARY
  5
17
330
C
100
AcDbDictionary
  3
STANDARD
350
18
  0
DICTIONARY
  5
19
330
C
100
AcDbDictionary
  0
ENDSEC
  0
EOF
