<?xml version="1.0" encoding="UTF-8" standalone="no"?>
<svg
   xmlns:dc="http://purl.org/dc/elements/1.1/"
   xmlns:cc="http://creativecommons.org/ns#"
   xmlns:rdf="http://www.w3.org/1999/02/22-rdf-syntax-ns#"
   xmlns:svg="http://www.w3.org/2000/svg"
   xmlns="http://www.w3.org/2000/svg"
   xmlns:sodipodi="http://sodipodi.sourceforge.net/DTD/sodipodi-0.dtd"
   xmlns:inkscape="http://www.inkscape.org/namespaces/inkscape"
   width="793.700787402"
   height="1122.51968504"
   version="1.1"
   id="svg64"
   sodipodi:docname="nova-labs-cutter.svg"
   inkscape:version="0.92.3 (2405546, 2018-03-11)">
  <metadata
     id="metadata68">
    <rdf:RDF>
      <cc:Work
         rdf:about="">
        <dc:format>image/svg+xml</dc:format>
        <dc:type
           rdf:resource="http://purl.org/dc/dcmitype/StillImage" />
        <dc:title></dc:title>
      </cc:Work>
    </rdf:RDF>
  </metadata>
  <sodipodi:namedview
     pagecolor="#ffffff"
     bordercolor="#666666"
     borderopacity="1"
     objecttolerance="10"
     gridtolerance="10"
     guidetolerance="10"
     inkscape:pageopacity="0"
     inkscape:pageshadow="2"
     inkscape:window-width="3840"
     inkscape:window-height="2024"
     id="namedview66"
     showgrid="false"
     inkscape:zoom="1.6819305"
     inkscape:cx="110.38834"
     inkscape:cy="301.84252"
     inkscape:window-x="0"
     inkscape:window-y="64"
     inkscape:window-maximized="1"
     inkscape:current-layer="g40" />
  <desc
     id="desc2">/home/paenian/data/github/Nova-I3/logos/cookie_cutter/nova-labs-cutter.dxf - scale = 1.000000, origin = (0.000000, 0.000000), method = manual</desc>
  <defs
     id="defs16">
    <marker
       id="DistanceX"
       orient="auto"
       refX="0.0"
       refY="0.0"
       style="overflow:visible">
      <path
         d="M 3,-3 L -3,3 M 0,-5 L  0,5"
         style="stroke:#000000; stroke-width:0.5"
         id="path4" />
    </marker>
    <pattern
       height="8"
       id="Hatch"
       patternUnits="userSpaceOnUse"
       width="8"
       x="0"
       y="0">
      <path
         d="M8 4 l-4,4"
         linecap="square"
         stroke="#000000"
         stroke-width="0.25"
         id="path7" />
      <path
         d="M6 2 l-4,4"
         linecap="square"
         stroke="#000000"
         stroke-width="0.25"
         id="path9" />
      <path
         d="M4 0 l-4,4"
         linecap="square"
         stroke="#000000"
         stroke-width="0.25"
         id="path11" />
    </pattern>
    <symbol
       id="*MODEL_SPACE" />
    <symbol
       id="*PAPER_SPACE" />
  </defs>
  <g
     inkscape:groupmode="layer"
     inkscape:label="0"
     id="g18" />
  <g
     inkscape:groupmode="layer"
     inkscape:label="nova-labs_logo"
     id="g36"
     style="display:none" />
  <g
     inkscape:groupmode="layer"
     inkscape:label="outside_edge"
     id="g40"
     style="display:inline">
    <path
       inkscape:connector-curvature="0"
       d="m -133.47551,1446.1095 -29.92591,-14.9806 -30.04278,-14.6576 -1.55442,-1.8562 -0.9112,-2.0654 -0.34885,-2.2063 0.13261,-2.2789 0.5332,-2.2831 0.8529,-2.2192 2.34141,-3.9731 0.81178,-1.5947 1.201,-1.7916 0.4298,-1.3373 -0.43693,-0.2948 -1.06488,0.063 -3.45824,-0.4311 -3.31689,-1.094 -3.06276,-1.6844 -2.69588,-2.2021 -2.21628,-2.6472 -1.62391,-3.0198 -0.91881,-3.3198 -0.10094,-3.5472 -1.67554,-3.0186 -1.91331,-2.9312 -1.49857,-3.0892 -0.38985,-1.6806 -0.0415,-1.8121 0.12001,-4.0429 0.91525,-3.862 1.60183,-3.6331 2.17974,-3.3565 2.64902,-3.032 3.00963,-2.6596 3.2616,-2.2395 3.4049,-1.7715 -0.79918,-4.1295 0.22069,-4.0657 1.10449,-3.9222 1.85225,-3.6988 2.46398,-3.3956 2.93964,-3.0124 3.27927,-2.5495 3.48285,-2.0067 -1.3219,-2.7461 -0.52733,-2.8629 0.15448,-2.9154 0.72356,-2.9037 1.17989,-2.8277 1.52348,-2.6875 3.6268,-4.6976 2.22216,-2.1077 2.42686,-1.8867 5.17014,-3.1977 -0.45788,-3.6121 0.11579,-3.6397 -31.55053,7.9902 -15.7363,4.1406 -15.62358,4.5512 -3.54128,-7.6786 -4.09402,-7.3821 -9.10679,-14.2762 -9.09939,-14.2957 -4.08475,-7.4065 -3.52831,-7.7128 -0.46658,-2.9777 0.1112,-2.9111 0.61107,-2.8282 1.03305,-2.7287 1.37713,-2.6126 1.64332,-2.4799 3.77366,-4.496 6.77916,-8.5654 7.04131,-8.391 6.96738,-8.4152 6.55735,-8.638 -1.54569,-4.5626 -1.05613,-2.1407 -1.38662,-1.6315 -61.58613,-14.3388 -5.11694,-77.4641 30.20092,-11.3589 15.07434,-5.7145 14.85802,-6.1101 1.20762,-5.72 1.0015,-5.7661 -46.56558,-43.9321 34.33076,-69.60875 31.90426,5.3678 15.93874,2.63508 15.96622,2.16 4.00499,-4.43264 3.85357,-4.57324 -18.22314,-61.45004 65.01786,-42.74281 24.92777,20.82681 12.48158,10.3735 12.72082,9.95465 4.55814,-1.52437 2.11871,-1.06525 1.62885,-1.37622 14.34856,-61.63132 77.4673,-5.11533 11.40119,30.19814 5.73354,15.08245 6.13435,14.90434 5.67483,1.18329 5.7225,0.97418 43.92884,-46.56719 69.60713,34.33237 -2.58847,15.99189 -2.7887,15.96948 -2.63801,15.9661 -2.1364,15.9818 4.43183,3.99911 4.5692,3.85138 15.9185,-4.08938 15.96666,-3.81093 15.9183,-3.97039 15.77339,-4.56772 4.48147,8.21572 4.98232,7.94542 10.57558,15.55427 5.1475,7.84605 4.75679,8.05012 4.14317,8.37278 3.30668,8.81404 -9.05678,12.4706 -9.65362,12.04831 -9.78153,11.9143 -9.44054,12.0688 1.54727,4.5453 1.0674,2.1134 1.37862,1.6244 61.59903,14.3389 5.11694,77.4656 -30.18112,11.3526 -15.07101,5.7113 -14.87954,6.1149 -1.20096,5.7305 -0.99524,5.7765 46.55428,43.9143 -34.33398,69.6039 -15.97944,-2.5832 -15.95765,-2.7879 -15.95512,-2.6349 -15.97188,-2.1246 -3.98224,4.3887 -3.83275,4.5285 18.23766,61.5097 -65.02109,42.7428 -24.93733,-20.8358 -12.48886,-10.3727 -12.72979,-9.9416 -4.5398,1.5264 -2.11492,1.056 -1.62033,1.3737 -14.35017,61.6378 -77.58671,5.1266 -4.8641,-13.9218 -5.37255,-13.7256 -5.49743,-13.681 -5.23875,-13.788 -0.88603,2.5519 -1.22096,2.4065 -3.23435,4.345 -3.93705,3.6678 -4.21509,2.9267 0.88316,4.163 -0.10821,4.1432 -0.98349,4.0292 -1.74262,3.8208 -2.38563,3.5182 -2.91254,3.1214 -3.3233,2.6303 -3.61796,2.0449 -1.34171,0.4738 -0.68683,0.7533 -0.11229,1.0441 0.38194,1.3467 0.082,4.8825 -1.02326,4.6414 -1.98347,4.3093 -2.79862,3.8864 -3.46874,3.3724 -3.99381,2.7676 -4.37382,2.0716 -4.60881,1.2849 -6.37579,1.0131 -6.44676,0.141 -6.44215,-0.5588 -6.36194,-1.0859 -14.99258,29.9836 -0.73897,-0.3695 -0.73898,-0.3695 z"
       style="display:inline;fill:none;stroke:#000000"
       id="path38" />
  </g>
  <g
     inkscape:groupmode="layer"
     inkscape:label="inside_edge"
     id="g44"
     style="display:inline">
    <path
       inkscape:connector-curvature="0"
       d="m 14.68356,805.9192 -67.20118,4.43945 -14.32421,61.52344 -16.03907,5.35938 -48.5039,-40.40625 -56.40039,37.08007 17.9414,60.49805 -6.78053,7.30618 -6.4265,7.6196 -62.35547,-10.41016 -29.78125,60.37696 45.86719,43.26958 -2.15746,9.5882 -1.71363,9.6774 -59.00391,22.2715 4.43945,67.1894 61.4668,14.3106 5.41211,16.0703 -13.75767,16.4388 -13.56069,16.6002 -2.48684,3.5035 -2.8655,3.2692 -2.62927,3.3955 -1.77816,3.8826 0.63506,4.3223 1.61133,4.137 4.21455,7.8962 12.91732,19.5362 6.07201,10.0063 5.44231,10.3598 18.61984,-5.2667 18.76808,-4.7171 18.77921,-4.6763 18.65318,-5.1445 -1.35156,1.0156 -2.09235,1.6914 -1.87427,2.0117 -1.57263,2.2661 -1.18743,2.4549 -0.71867,2.5778 -0.16634,2.6352 0.46956,2.6267 1.18901,2.5526 2.33203,2.6133 -3.43911,0.9779 -3.30008,1.3403 -3.10309,1.6959 -2.84817,2.0449 -2.5353,2.3871 -2.16449,2.7226 -1.73573,3.0514 -1.24903,3.3736 -0.25897,1.6116 0.17342,1.4672 1.27529,2.6245 3.68331,4.869 -6.08942,2.4489 -2.78536,1.6797 -2.55358,1.9766 -2.27762,2.2686 -1.95749,2.5554 -1.5932,2.8373 -1.18474,3.1143 -0.25912,1.6322 0.16689,1.4972 1.25354,2.7019 3.67853,5.0242 -3.89767,0.9503 -3.74469,1.4247 -3.53973,1.9243 -3.28275,2.4487 -2.04992,1.7297 -1.7618,2.069 -1.40823,2.3286 -0.98926,2.5083 -0.50486,2.6083 0.045,2.6285 0.66023,2.569 1.3409,2.4297 1.59918,1.518 1.33454,1.6783 0.73438,1.9463 -0.2013,2.3223 0.17333,3.2217 1.22711,2.7618 2.05249,2.2312 2.64945,1.63 3.018,0.9581 3.15813,0.2156 3.06987,-0.5976 2.75318,-1.4814 5.66406,1.7266 -11.45312,22.9043 52.32617,26.1699 1.11719,0.5586 1.11914,0.5586 14.30078,-28.5977 8.66997,1.7806 8.88862,0.9284 4.12072,-0.061 4.20516,-0.5289 4.13902,-1.0299 3.92235,-1.564 3.55508,-2.1309 3.03727,-2.731 2.36888,-3.3639 1.54997,-4.03 0.49969,-1.8366 0.0706,-1.7597 -0.84471,-3.3422 -1.65721,-3.1962 -1.86723,-3.1582 6.67059,-1.5314 3.14309,-1.2642 2.90806,-1.6253 2.59288,-2.0079 2.19752,-2.4119 1.72197,-2.8376 1.16628,-3.2846 0.5387,-1.8279 0.1216,-1.7552 -0.73509,-3.3371 -1.5844,-3.1808 -1.88767,-3.1139 3.35639,-0.7609 3.21682,-1.2807 2.98147,-1.7566 2.65028,-2.189 2.2233,-2.5775 1.70048,-2.9223 1.08189,-3.2235 0.36748,-3.4809 -0.15727,-2.4408 -0.78198,-2.1954 -2.53731,-4.0103 5.39709,-1.3571 4.97792,-2.4104 2.55267,8.3686 2.89572,8.2644 6.42049,16.337 6.59249,16.2832 5.96441,16.4714 0.14062,0.3691 0.29297,0.7734 67.14844,-4.4394 14.32617,-61.5293 16.03516,-5.3535 48.50391,40.4043 56.40234,-37.0801 -17.96094,-60.5683 6.7855,-7.2727 6.44106,-7.5789 62.35157,10.4082 29.78515,-60.377 -45.8457,-43.246 2.14083,-9.5986 1.69901,-9.6866 59.01172,-22.2734 -4.43945,-67.1914 -61.47461,-14.3106 -5.43164,-16.0351 19.50699,-23.35854 9.52107,-11.86484 9.0403,-12.23761 -3.05266,-7.51163 -3.70484,-7.15975 -4.18483,-6.90058 -4.4926,-6.7341 -9.21972,-13.33956 -4.38272,-6.79085 -4.00169,-6.99517 -15.46378,4.35175 -15.6243,3.74072 -15.6413,3.67838 -15.51476,4.1647 -7.28517,-6.7497 -7.58398,-6.41241 10.41993,-62.41992 -60.37696,-29.78321 -43.25976,45.85742 -9.5406,-2.11478 -9.62542,-1.68795 -22.36719,-59.0625 z"
       style="display:inline;fill:none;stroke:#000000"
       id="path42" />
  </g>
  <g
     inkscape:groupmode="layer"
     inkscape:label="gear_bulb"
     id="g62"
     style="display:inline">
    <path
       inkscape:connector-curvature="0"
       d="m -144.27453,1292.6493 c 0,0 0.0768,-0.1306 0.17185,-0.3231"
       style="fill:none;stroke:#000000"
       id="path20" />
    <path
       inkscape:connector-curvature="0"
       d="m -144.10268,1292.3262 -0.17185,0.3231"
       style="fill:none;stroke:#000000"
       id="path22" />
    <path
       inkscape:connector-curvature="0"
       d="m -160.35019,1319.9708 c 0,0 0.0719,-0.1198 0.16607,-0.309"
       style="fill:none;stroke:#000000"
       id="path24" />
    <path
       inkscape:connector-curvature="0"
       d="m -160.18412,1319.6618 -0.16607,0.309"
       style="fill:none;stroke:#000000"
       id="path26" />
    <path
       inkscape:connector-curvature="0"
       d="m -173.96558,1347.643 c 0,0 0.0777,-0.1305 0.1702,-0.323"
       style="fill:none;stroke:#000000"
       id="path28" />
    <path
       inkscape:connector-curvature="0"
       d="m -173.79538,1347.32 -0.1702,0.323"
       style="fill:none;stroke:#000000"
       id="path30" />
    <path
       inkscape:connector-curvature="0"
       d="m -190.62619,1376.0297 c 0,0 0.0711,-0.1256 0.16607,-0.3156"
       style="fill:none;stroke:#000000"
       id="path32" />
    <path
       inkscape:connector-curvature="0"
       d="m -190.46012,1375.7141 -0.16607,0.3156"
       style="fill:none;stroke:#000000"
       id="path34" />
    <path
       inkscape:connector-curvature="0"
       d="m 10.47285,1352.4442 -2.18844,-6.0297 -2.47907,-5.9811 -5.08014,-11.9666 -2.22613,-6.0607 -1.76688,-6.1623 -1.12015,-6.3017 -0.28594,-6.4785 2.36302,-20.2246 1.24815,-10.071 1.62767,-9.8272 13.28088,-0.4565 13.15434,-1.6165 12.95784,-2.7273 12.69135,-3.789 12.35493,-4.8015 11.94853,-5.765 11.47218,-6.6791 10.92585,-7.5443 10.30957,-8.3603 9.62332,-9.1272 8.86711,-9.8449 8.04095,-10.5135 7.14481,-11.1329 6.17871,-11.7032 5.14265,-12.2244 4.03663,-12.6965 2.82623,-11.128 2.0023,-11.2957 1.18967,-11.4091 0.38832,-11.4681 -0.40174,-11.473 -1.18051,-11.4234 -1.94797,-11.3195 -2.70416,-11.1613 -3.44905,-10.9489 -4.18265,-10.682 -4.90497,-10.361 -5.61599,-9.9854 -6.31571,-9.5558 -7.00416,-9.07166 -7.68129,-8.53331 -8.34716,-7.9406 -8.28027,-7.07946 -8.74279,-6.48749 -9.15992,-5.88217 -9.53164,-5.26346 -9.85793,-4.63138 -10.13884,-3.98594 -10.37432,-3.32711 -10.56441,-2.65491 -10.70908,-1.96933 -10.80833,-1.27039 -10.8622,-0.55806 -10.87063,0.16764 -10.83367,0.9067 -10.7513,1.65914 -10.62351,2.42497 -10.45033,3.20416 -9.81713,3.56688 -9.55638,4.20246 -9.26496,4.80974 -8.94284,5.38871 -8.59006,5.93934 -8.20659,6.46169 -7.79245,6.95571 -7.34762,7.4214 -6.8721,7.8588 -6.36593,8.26783 -5.82904,8.6487 -5.26151,9.0011 -4.66327,9.3252 -4.03436,9.621 -3.37478,9.8886 -2.6845,10.1277 -1.93861,8.9849 -1.41551,9.0812 -0.8972,9.1489 -0.38371,9.1877 0.125,9.1979 0.62888,9.1794 1.12799,9.1321 1.62229,9.056 2.11177,8.9514 2.59647,8.8179 3.07636,8.6557 3.55145,8.4648 4.02174,8.2451 4.48723,7.9968 4.94792,7.7197 5.40381,7.4139 -9.28995,8.8533 -9.13227,9.0953 -4.68639,4.3971 -4.86225,4.1681 -5.10986,3.8424 -5.42923,3.4203 -39.38981,11.6805 -1.89919,-3.153 -2.53758,-3.1876 -1.92468,-3.1543 -0.34148,-1.5434 0.28098,-1.5094 36.31513,-43.6095 -5.66267,-12.6989 -4.84849,-13.0392 -3.9833,-13.3188 -3.06708,-13.5374 -56.94952,-13.2643 -0.0789,-3.6539 -0.62512,-4.0054 -0.10893,-3.6733 0.4711,-1.4984 0.99857,-1.159 53.18163,-20.0794 1.26353,-14.4017 2.35504,-14.2704 3.3269,-14.0959 4.17914,-13.8781 -42.42007,-40.01573 1.76179,-3.20511 1.46571,-3.78287 1.746,-3.23592 1.15822,-1.06138 1.44444,-0.50288 56.13947,9.38219 8.39832,-11.85095 9.23685,-11.21427 10.00485,-10.54045 10.70231,-9.8294 -16.60786,-55.97649 3.16319,-1.88825 3.19912,-2.52367 3.16457,-1.9127 1.5473,-0.33773 1.51221,0.28241 43.57084,36.28764 12.71963,-5.65564 13.0312,-4.81533 13.30998,-3.98759 13.55601,-3.17237 13.25144,-56.87691 3.66364,-0.0803 4.01147,-0.62237 3.68096,-0.10726 1.50455,0.4699 1.16755,0.99514 19.9266,53.0719 14.41522,1.39821 14.27928,2.32908 14.10767,3.28976 13.90046,4.28023 40.07218,-42.47977 3.20511,1.76179 3.78288,1.46571 3.23592,1.74599 1.06137,1.15823 0.50287,1.44443 -9.38055,56.12334 11.86107,8.45559 11.21209,9.30285 10.57744,9.99952 9.95713,10.54565 55.78284,-16.54815 1.89925,3.15333 2.53743,3.18811 1.92458,3.15471 0.34153,1.54354 -0.28082,1.50963 -36.2506,43.53201 5.56615,12.7918 4.84857,13.0314 4.00497,13.2852 3.03535,13.5537 56.99309,13.2756 0.0789,3.6539 0.62511,4.0054 0.10894,3.6733 -0.47111,1.4984 -0.99857,1.159 -53.12676,20.0584 -1.33175,14.4131 -2.33052,14.275 -3.30758,14.0856 -4.26288,13.845 42.47332,40.0625 -1.7622,3.2051 -1.46621,3.7828 -1.74645,3.2359 -1.15838,1.0614 -1.44453,0.503 -56.20241,-9.3919 -4.04366,6.0317 -4.29673,5.8498 -9.26744,11.1823 -10.02409,10.5398 -10.61036,9.9541 16.57397,55.8635 -3.16319,1.8882 -3.1991,2.5237 -3.16458,1.9127 -1.54731,0.3378 -1.51226,-0.2824 -43.58368,-36.2925 -12.72695,5.6715 -13.0477,4.8121 -13.31336,3.9836 -13.52398,3.1863 -13.23691,56.8268 -6.89428,0.5716 -3.41022,0.1975 z"
       style="fill:none;stroke:#000000"
       id="path46" />
    <path
       inkscape:connector-curvature="0"
       d="m -1.03265,1238.4233 -1.8746,-0.1783 -1.91333,0.1029 -1.88638,0.067 -1.79374,-0.2854 1.04965,-8.9784 0.56893,-4.4364 0.91004,-4.0273 8.45249,0.1386 8.41702,-0.497 8.34688,-1.1125 8.24211,-1.708 8.10269,-2.2834 7.92861,-2.8385 7.71989,-3.3736 7.47652,-3.8886 7.19851,-4.3835 6.88584,-4.8582 6.53852,-5.3128 6.15656,-5.7474 5.73995,-6.1618 5.2887,-6.556 4.80277,-6.9302 4.28223,-7.2843 3.77227,-7.4188 3.21703,-7.66 2.66253,-7.8627 2.10875,-8.0276 1.55572,-8.154 1.0034,-8.2426 0.45183,-8.2927 -0.099,-8.3049 -0.64914,-8.2789 -1.19853,-8.2147 -1.74718,-8.1124 -2.2951,-7.9719 -2.84231,-7.7933 -3.38876,-7.5764 -3.93449,-7.3216 -4.47949,-7.0285 -4.5938,-6.3697 -5.00883,-6.0344 -5.3957,-5.6839 -5.75438,-5.3183 -6.0849,-4.9375 -6.38725,-4.54153 -6.66142,-4.13046 -6.90742,-3.70422 -7.12525,-3.26283 -7.31491,-2.80631 -7.4764,-2.33462 -7.6097,-1.8478 -7.71485,-1.34582 -7.79182,-0.8287 -7.84061,-0.29642 -7.86124,0.251 -8.00005,0.70221 -7.91648,1.25921 -7.80427,1.79769 -7.66342,2.31765 -7.49392,2.8191 -7.29578,3.30204 -7.06901,3.76646 -6.81357,4.21238 -6.5295,4.63977 -6.21679,5.0487 -5.87543,5.439 -5.50544,5.8109 -5.10679,6.1643 -4.6795,6.4991 -4.22358,6.8154 -3.73901,7.1133 -3.34889,7.4277 -2.81252,7.6352 -2.27737,7.8069 -1.74342,7.9424 -1.21068,8.0423 -0.67915,8.106 -0.14883,8.1338 0.38029,8.1258 0.90819,8.0818 1.43488,8.0018 1.96037,7.8859 2.48466,7.7341 3.00772,7.5463 3.5296,7.3227 4.05024,7.063 4.56968,6.7675 7.07753,9.0075 -6.41592,6.1381 -3.19981,2.9855 -3.1403,2.3802 -6.10813,-7.4236 -5.53185,-7.8299 -4.94828,-8.1938 -4.3574,-8.515 -3.75926,-8.7936 -3.15381,-9.0298 -2.54108,-9.2232 -1.92105,-9.3742 -1.29374,-9.4825 -0.65914,-9.5484 -0.0173,-9.5716 0.63193,-9.5522 1.2884,-9.4903 1.95217,-9.3858 2.62322,-9.2388 3.30156,-9.0491 3.48125,-8.0119 3.99063,-7.7588 4.47523,-7.4838 4.93505,-7.1868 5.3701,-6.8678 5.78039,-6.5269 6.16588,-6.16402 6.52661,-5.7791 6.86256,-5.37224 7.17373,-4.94342 7.46013,-4.49263 7.72175,-4.01986 7.95859,-3.52513 8.17067,-3.00842 8.35796,-2.46975 8.52048,-1.9091 8.38516,-1.41405 8.45328,-0.87625 8.49137,-0.34596 8.49942,0.17681 8.47744,0.69208 8.42541,1.19981 8.34335,1.70005 8.23126,2.19275 8.08913,2.67795 7.91697,3.15564 7.71476,3.6258 7.48252,4.08845 7.22026,4.54358 6.92795,4.9912 6.6056,5.43131 6.25322,5.8639 6.0089,6.2796 5.57847,6.6429 5.13824,6.9759 4.68817,7.2787 4.22826,7.5513 3.75854,7.7936 3.27898,8.0058 2.7896,8.1877 2.2904,8.3394 1.78135,8.4609 1.2625,8.5521 0.73379,8.6131 0.19528,8.644 -0.35306,8.6446 -0.91124,8.6149 -1.47925,8.5551 -1.86255,8.1263 -2.36331,7.9869 -2.84622,7.8241 -3.31128,7.6381 -3.75849,7.4287 -4.18786,7.196 -4.59936,6.9401 -4.99302,6.6608 -5.36882,6.3582 -5.72679,6.0323 -6.06688,5.683 -6.38915,5.3106 -6.69355,4.9147 -6.9801,4.4956 -7.2488,4.0532 -7.49966,3.5874 -6.99226,2.9173 -7.13984,2.5346 -7.26491,2.1461 -7.36748,1.7513 -7.44756,1.3506 -7.50512,0.9437 -7.54019,0.5309 -7.55275,0.1121 z"
       style="fill:none;stroke:#000000"
       id="path48" />
    <path
       inkscape:connector-curvature="0"
       d="m -144.55975,1409.606 -16.98223,-8.5767 0.92697,-1.9703 0.70173,-2.2275 0.86889,-2.0449 1.42846,-1.4222 4.18909,2.2924 4.48002,2.1154 4.28694,2.1546 3.60985,2.4096 -1.4739,3.8581 -0.80781,1.8888 z"
       style="fill:none;stroke:#000000"
       id="path50" />
    <path
       inkscape:connector-curvature="0"
       d="m -57.46858,1313.3773 -9.09095,-1.3574 -8.876,-2.2082 -8.71184,-2.8623 -8.59846,-3.3196 -17.05995,-7.2247 -8.56305,-3.5117 -8.65284,-3.1824 -7.06407,-2.4376 -7.13214,-1.6673 -0.78787,-1.8996 -1.08139,-1.8191 -2.06002,-3.341 3.22929,-1.4596 3.14388,-1.6603 3.26813,-1.1403 1.74618,-0.15 1.85589,0.2501 10.47047,2.5826 10.24426,3.2846 10.08739,3.7712 9.99984,4.0425 20.01441,8.037 10.15324,3.5638 10.34305,2.9736 1.04051,0.2281 0.79889,0.5834 1.14702,1.8541 1.00283,2.1394 1.40685,1.6674 -0.0205,1.0797 -0.47075,0.7948 -1.86597,0.9605 -4.44598,0.9829 -2.72294,0.3783 -2.74739,0.067 z"
       style="fill:none;stroke:#000000"
       id="path52" />
    <path
       inkscape:connector-curvature="0"
       d="m -73.58025,1340.7161 -9.20025,-1.3893 -8.97575,-2.2485 -8.80438,-2.9071 -8.68615,-3.3657 -17.23009,-7.3055 -8.65019,-3.5392 -8.74447,-3.1964 -6.69059,-2.2548 -6.73677,-1.5453 -0.78849,-1.9113 -1.0965,-1.8312 -2.0217,-3.3544 3.24242,-1.4584 3.15277,-1.661 3.27893,-1.1328 1.7542,-0.14 1.86668,0.266 10.45331,2.5946 10.23229,3.2912 10.07902,3.7734 9.9935,4.0409 20.00146,8.0264 10.14346,3.5565 10.32894,2.9659 1.04474,0.2201 0.80246,0.578 1.1514,1.849 1.00234,2.1399 1.4,1.6709 -0.0332,1.0816 -0.48082,0.7939 -1.87762,0.9556 -4.43094,0.9949 -2.72785,0.3772 -2.75216,0.065 z"
       style="fill:none;stroke:#000000"
       id="path54" />
    <path
       inkscape:connector-curvature="0"
       d="m -87.19478,1368.3614 -9.22635,-1.3828 -8.9897,-2.2464 -8.80862,-2.9083 -8.68309,-3.3683 -17.21185,-7.31 -8.63989,-3.5382 -8.73661,-3.1913 -6.68885,-2.2585 -6.73852,-1.5512 -0.79011,-1.9021 -1.0842,-1.8216 -2.04529,-3.3442 3.18449,-1.4293 3.08572,-1.6506 3.20739,-1.1506 1.71822,-0.1625 1.83132,0.233 10.66184,2.5912 10.43986,3.3453 10.28678,3.8618 10.2026,4.1408 20.42825,8.1682 10.36344,3.5524 10.55485,2.8812 2.22996,3.6568 1.1055,1.8321 0.84233,1.8791 -2.73522,1.6042 -3.17526,0.9049 -3.34489,0.4188 z"
       style="fill:none;stroke:#000000"
       id="path56" />
    <path
       inkscape:connector-curvature="0"
       d="m -103.83086,1396.7652 -9.33802,-1.432 -9.10093,-2.295 -8.91928,-2.9552 -8.79308,-3.4127 -17.42939,-7.387 -8.74722,-3.5689 -8.84284,-3.2155 -6.26729,-2.0658 -6.29834,-1.4149 -0.78777,-1.905 -1.08626,-1.8245 -2.05202,-3.3496 3.19169,-1.4327 3.09889,-1.6495 3.21885,-1.1493 1.72091,-0.1629 1.83068,0.2311 10.47457,2.5486 10.25738,3.2694 10.10749,3.7703 10.02489,4.0514 20.07114,8.0665 10.18084,3.5754 10.36741,2.977 1.04185,0.2307 0.80053,0.5832 1.15018,1.8488 1.00413,2.134 1.40425,1.6692 -0.0286,1.0962 -0.47985,0.801 -1.87824,0.9529 -4.38424,0.963 -2.74371,0.3836 -2.76858,0.068 z"
       style="fill:none;stroke:#000000"
       id="path58" />
    <path
       inkscape:connector-curvature="0"
       d="m -95.86134,1269.234 76.72179,-153.3484 17.334,8.6799 -76.72339,153.3419 z"
       style="fill:none;stroke:#000000"
       id="path60" />
  </g>
</svg>
