  0
SECTION
  2
HEADER
  9
$ACADVER
  1
AC1014
  9
$HANDSEED
  5
FFFF
  9
$MEASUREMENT
 70
     1
  0
ENDSEC
  0
SECTION
  2
TABLES
  0
TABLE
  2
VPORT
  5
8
330
0
100
AcDbSymbolTable
 70
     4
  0
VPORT
  5
2E
330
8
100
AcDbSymbolTableRecord
100
AcDbViewportTableRecord
  2
*ACTIVE
 70
     0
 10
0.0
 20
0.0
 11
1.0
 21
1.0
 12
210.0
 22
148.5
 13
0.0
 23
0.0
 14
10.0
 24
10.0
 15
10.0
 25
10.0
 16
0.0
 26
0.0
 36
1.0
 17
0.0
 27
0.0
 37
0.0
 40
341.0
 41
1.24
 42
50.0
 43
0.0
 44
0.0
 50
0.0
 51
0.0
 71
     0
 72
   100
 73
     1
 74
     3
 75
     0
 76
     0
 77
     0
 78
     0
  0
ENDTAB
  0
TABLE
  2
LTYPE
  5
5
330
0
100
AcDbSymbolTable
 70
     1
  0
LTYPE
  5
14
330
5
100
AcDbSymbolTableRecord
100
AcDbLinetypeTableRecord
  2
BYBLOCK
 70
     0
  3

 72
    65
 73
     0
 40
0.0
  0
LTYPE
  5
15
330
5
100
AcDbSymbolTableRecord
100
AcDbLinetypeTableRecord
  2
BYLAYER
 70
     0
  3

 72
    65
 73
     0
 40
0.0
  0
LTYPE
  5
16
330
5
100
AcDbSymbolTableRecord
100
AcDbLinetypeTableRecord
  2
CONTINUOUS
 70
     0
  3
Solid line
 72
    65
 73
     0
 40
0.0
  0
ENDTAB
  0
TABLE
  2
LAYER
  5
2
100
AcDbSymbolTable
 70
5
  0
LAYER
  5
50
100
AcDbSymbolTableRecord
100
AcDbLayerTableRecord
  2
0
 70
0
  6
CONTINUOUS
  0
LAYER
  5
51
100
AcDbSymbolTableRecord
100
AcDbLayerTableRecord
  2
nova-labs_logo
 70
0
  6
CONTINUOUS
  0
LAYER
  5
52
100
AcDbSymbolTableRecord
100
AcDbLayerTableRecord
  2
outside_edge
 70
0
  6
CONTINUOUS
  0
LAYER
  5
53
100
AcDbSymbolTableRecord
100
AcDbLayerTableRecord
  2
inside_edge
 70
0
  6
CONTINUOUS
  0
LAYER
  5
54
100
AcDbSymbolTableRecord
100
AcDbLayerTableRecord
  2
gear_bulb
 70
0
  6
CONTINUOUS
  0
ENDTAB
  0
TABLE
  2
STYLE
  5
3
330
0
100
AcDbSymbolTable
 70
     1
  0
STYLE
  5
11
330
3
100
AcDbSymbolTableRecord
100
AcDbTextStyleTableRecord
  2
STANDARD
 70
     0
 40
0.0
 41
1.0
 50
0.0
 71
     0
 42
2.5
  3
txt
  4

  0
ENDTAB
  0
TABLE
  2
VIEW
  5
6
330
0
100
AcDbSymbolTable
 70
     0
  0
ENDTAB
  0
TABLE
  2
UCS
  5
7
330
0
100
AcDbSymbolTable
 70
     0
  0
ENDTAB
  0
TABLE
  2
APPID
  5
9
330
0
100
AcDbSymbolTable
 70
     2
  0
APPID
  5
12
330
9
100
AcDbSymbolTableRecord
100
AcDbRegAppTableRecord
  2
ACAD
 70
     0
  0
ENDTAB
  0
TABLE
  2
DIMSTYLE
  5
A
330
0
100
AcDbSymbolTable
 70
     1
  0
DIMSTYLE
105
27
330
A
100
AcDbSymbolTableRecord
100
AcDbDimStyleTableRecord
  2
ISO-25
 70
     0
  3

  4

  5

  6

  7

 40
1.0
 41
2.5
 42
0.625
 43
3.75
 44
1.25
 45
0.0
 46
0.0
 47
0.0
 48
0.0
140
2.5
141
2.5
142
0.0
143
0.03937007874016
144
1.0
145
0.0
146
1.0
147
0.625
 71
     0
 72
     0
 73
     0
 74
     0
 75
     0
 76
     0
 77
     1
 78
     8
170
     0
171
     3
172
     1
173
     0
174
     0
175
     0
176
     0
177
     0
178
     0
270
     2
271
     2
272
     2
273
     2
274
     3
340
11
275
     0
280
     0
281
     0
282
     0
283
     0
284
     8
285
     0
286
     0
287
     3
288
     0
  0
ENDTAB
  0
TABLE
  2
BLOCK_RECORD
  5
1
330
0
100
AcDbSymbolTable
 70
     1
  0
BLOCK_RECORD
  5
1F
330
1
100
AcDbSymbolTableRecord
100
AcDbBlockTableRecord
  2
*MODEL_SPACE
  0
BLOCK_RECORD
  5
1B
330
1
100
AcDbSymbolTableRecord
100
AcDbBlockTableRecord
  2
*PAPER_SPACE
  0
ENDTAB
  0
ENDSEC
  0
SECTION
  2
BLOCKS
  0
BLOCK
  5
20
330
1F
100
AcDbEntity
  8
0
100
AcDbBlockBegin
  2
*MODEL_SPACE
 70
     0
 10
0.0
 20
0.0
 30
0.0
  3
*MODEL_SPACE
  1

  0
ENDBLK
  5
21
330
1F
100
AcDbEntity
  8
0
100
AcDbBlockEnd
  0
BLOCK
  5
1C
330
1B
100
AcDbEntity
 67
     1
  8
0
100
AcDbBlockBegin
  2
*PAPER_SPACE
  1

  0
ENDBLK
  5
1D
330
1B
100
AcDbEntity
 67
     1
  8
0
100
AcDbBlockEnd
  0
ENDSEC
  0
SECTION
  2
ENTITIES
  0
SPLINE
  5
100
100
AcDbEntity
  8
nova-labs_logo
 62
7
100
AcDbSpline
 70
8
 71
3
 72
8
 73
4
 74
0
 40
0
 40
0
 40
0
 40
0
 40
1
 40
1
 40
1
 40
1
 10
33.187359
 20
32.116448
 30
0.0
 10
33.187359
 20
32.116448
 30
0.0
 10
33.207689
 20
32.150986
 30
0.0
 10
33.232828
 20
32.201920
 30
0.0
  0
LWPOLYLINE
  5
101
100
AcDbEntity
  8
nova-labs_logo
 62
7
100
AcDbPolyline
 90
2
 70
0
 10
33.232828
 20
32.201920
 30
0.0
 10
33.187359
 20
32.116448
 30
0.0
  0
SPLINE
  5
102
100
AcDbEntity
  8
nova-labs_logo
 62
7
100
AcDbSpline
 70
8
 71
3
 72
8
 73
4
 74
0
 40
0
 40
0
 40
0
 40
0
 40
1
 40
1
 40
1
 40
1
 10
28.934009
 20
24.887626
 30
0.0
 10
28.934009
 20
24.887626
 30
0.0
 10
28.953027
 20
24.919323
 30
0.0
 10
28.977947
 20
24.969382
 30
0.0
  0
LWPOLYLINE
  5
103
100
AcDbEntity
  8
nova-labs_logo
 62
7
100
AcDbPolyline
 90
2
 70
0
 10
28.977947
 20
24.969382
 30
0.0
 10
28.934009
 20
24.887626
 30
0.0
  0
SPLINE
  5
104
100
AcDbEntity
  8
nova-labs_logo
 62
7
100
AcDbSpline
 70
8
 71
3
 72
8
 73
4
 74
0
 40
0
 40
0
 40
0
 40
0
 40
1
 40
1
 40
1
 40
1
 10
25.331603
 20
17.566015
 30
0.0
 10
25.331603
 20
17.566015
 30
0.0
 10
25.352151
 20
17.600553
 30
0.0
 10
25.376634
 20
17.651487
 30
0.0
  0
LWPOLYLINE
  5
105
100
AcDbEntity
  8
nova-labs_logo
 62
7
100
AcDbPolyline
 90
2
 70
0
 10
25.376634
 20
17.651487
 30
0.0
 10
25.331603
 20
17.566015
 30
0.0
  0
SPLINE
  5
106
100
AcDbEntity
  8
nova-labs_logo
 62
7
100
AcDbSpline
 70
8
 71
3
 72
8
 73
4
 74
0
 40
0
 40
0
 40
0
 40
0
 40
1
 40
1
 40
1
 40
1
 10
20.923484
 20
10.055380
 30
0.0
 10
20.923484
 20
10.055380
 30
0.0
 10
20.942283
 20
10.088607
 30
0.0
 10
20.967422
 20
10.138884
 30
0.0
  0
LWPOLYLINE
  5
107
100
AcDbEntity
  8
nova-labs_logo
 62
7
100
AcDbPolyline
 90
2
 70
0
 10
20.967422
 20
10.138884
 30
0.0
 10
20.923484
 20
10.055380
 30
0.0
  0
LWPOLYLINE
  5
108
100
AcDbEntity
  8
outside_edge
 62
7
100
AcDbPolyline
 90
195
 70
1
 10
36.044600
 20
-8.486560
 30
0.0
 10
28.126703
 20
-4.522955
 30
0.0
 10
20.177883
 20
-0.644781
 30
0.0
 10
19.766611
 20
-0.153667
 30
0.0
 10
19.525523
 20
0.392799
 30
0.0
 10
19.433222
 20
0.976546
 30
0.0
 10
19.468309
 20
1.579498
 30
0.0
 10
19.609384
 20
2.183589
 30
0.0
 10
19.835047
 20
2.770744
 30
0.0
 10
20.454545
 20
3.821962
 30
0.0
 10
20.669329
 20
4.243898
 30
0.0
 10
20.987094
 20
4.717910
 30
0.0
 10
21.100811
 20
5.071740
 30
0.0
 10
20.985207
 20
5.149753
 30
0.0
 10
20.703458
 20
5.133118
 30
0.0
 10
19.788464
 20
5.247189
 30
0.0
 10
18.910871
 20
5.536650
 30
0.0
 10
18.100517
 20
5.982301
 30
0.0
 10
17.387230
 20
6.564934
 30
0.0
 10
16.800841
 20
7.265347
 30
0.0
 10
16.371180
 20
8.064335
 30
0.0
 10
16.128079
 20
8.942694
 30
0.0
 10
16.101371
 20
9.881220
 30
0.0
 10
15.658051
 20
10.679899
 30
0.0
 10
15.151822
 20
11.455452
 30
0.0
 10
14.755325
 20
12.272811
 30
0.0
 10
14.652177
 20
12.717459
 30
0.0
 10
14.641203
 20
13.196908
 30
0.0
 10
14.672957
 20
14.266604
 30
0.0
 10
14.915115
 20
15.288414
 30
0.0
 10
15.338933
 20
16.249681
 30
0.0
 10
15.915656
 20
17.137749
 30
0.0
 10
16.616543
 20
17.939961
 30
0.0
 10
17.412841
 20
18.643660
 30
0.0
 10
18.275805
 20
19.236191
 30
0.0
 10
19.176687
 20
19.704897
 30
0.0
 10
18.965237
 20
20.797480
 30
0.0
 10
19.023626
 20
21.873210
 30
0.0
 10
19.315857
 20
22.910960
 30
0.0
 10
19.805932
 20
23.889602
 30
0.0
 10
20.457859
 20
24.788009
 30
0.0
 10
21.235640
 20
25.585053
 30
0.0
 10
22.103279
 20
26.259609
 30
0.0
 10
23.024782
 20
26.790548
 30
0.0
 10
22.675031
 20
27.517117
 30
0.0
 10
22.535509
 20
28.274583
 30
0.0
 10
22.576380
 20
29.045947
 30
0.0
 10
22.767822
 20
29.814214
 30
0.0
 10
23.080002
 20
30.562386
 30
0.0
 10
23.483090
 20
31.273467
 30
0.0
 10
24.442679
 20
32.516365
 30
0.0
 10
25.030626
 20
33.074038
 30
0.0
 10
25.672734
 20
33.573218
 30
0.0
 10
27.040666
 20
34.419278
 30
0.0
 10
26.919517
 20
35.374978
 30
0.0
 10
26.950153
 20
36.337988
 30
0.0
 10
18.602410
 20
34.223900
 30
0.0
 10
14.438847
 20
33.128387
 30
0.0
 10
10.305108
 20
31.924186
 30
0.0
 10
9.368146
 20
33.955845
 30
0.0
 10
8.284936
 20
35.909016
 30
0.0
 10
5.875430
 20
39.686262
 30
0.0
 10
3.467883
 20
43.468670
 30
0.0
 10
2.387126
 20
45.428292
 30
0.0
 10
1.453594
 20
47.468984
 30
0.0
 10
1.330147
 20
48.256818
 30
0.0
 10
1.359568
 20
49.027070
 30
0.0
 10
1.521246
 20
49.775364
 30
0.0
 10
1.794574
 20
50.497321
 30
0.0
 10
2.158940
 20
51.188568
 30
0.0
 10
2.593736
 20
51.844725
 30
0.0
 10
3.592182
 20
53.034268
 30
0.0
 10
5.385834
 20
55.300552
 30
0.0
 10
7.248849
 20
57.520667
 30
0.0
 10
9.092302
 20
59.747180
 30
0.0
 10
10.827266
 20
62.032651
 30
0.0
 10
10.418304
 20
63.239830
 30
0.0
 10
10.138868
 20
63.806231
 30
0.0
 10
9.771991
 20
64.237890
 30
0.0
 10
-6.522673
 20
68.031716
 30
0.0
 10
-7.876529
 20
88.527419
 30
0.0
 10
0.114132
 20
91.532785
 30
0.0
 10
4.102550
 20
93.044754
 30
0.0
 10
8.033736
 20
94.661400
 30
0.0
 10
8.353252
 20
96.174807
 30
0.0
 10
8.618230
 20
97.700424
 30
0.0
 10
-3.702246
 20
109.324120
 30
0.0
 10
5.381101
 20
127.741432
 30
0.0
 10
13.822436
 20
126.321202
 30
0.0
 10
18.039561
 20
125.624004
 30
0.0
 10
22.263958
 20
125.052505
 30
0.0
 10
23.323612
 20
126.225308
 30
0.0
 10
24.343201
 20
127.435309
 30
0.0
 10
19.521663
 20
143.693965
 30
0.0
 10
36.724304
 20
155.003000
 30
0.0
 10
43.319778
 20
149.492574
 30
0.0
 10
46.622196
 20
146.747918
 30
0.0
 10
49.987911
 20
144.114085
 30
0.0
 10
51.193920
 20
144.517407
 30
0.0
 10
51.754494
 20
144.799254
 30
0.0
 10
52.185461
 20
145.163381
 30
0.0
 10
55.981852
 20
161.470000
 30
0.0
 10
76.478408
 20
162.823430
 30
0.0
 10
79.494974
 20
154.833506
 30
0.0
 10
81.011971
 20
150.842941
 30
0.0
 10
82.635018
 20
146.899502
 30
0.0
 10
84.136483
 20
146.586422
 30
0.0
 10
85.650561
 20
146.328671
 30
0.0
 10
97.273401
 20
158.649574
 30
0.0
 10
115.690287
 20
149.565800
 30
0.0
 10
115.005422
 20
145.334612
 30
0.0
 10
114.267579
 20
141.109356
 30
0.0
 10
113.569604
 20
136.884990
 30
0.0
 10
113.004349
 20
132.656473
 30
0.0
 10
114.176937
 20
131.598376
 30
0.0
 10
115.385872
 20
130.579363
 30
0.0
 10
119.597642
 20
131.661345
 30
0.0
 10
123.822154
 20
132.669655
 30
0.0
 10
128.033870
 20
133.720154
 30
0.0
 10
132.207247
 20
134.928697
 30
0.0
 10
133.392969
 20
132.754954
 30
0.0
 10
134.711207
 20
130.652729
 30
0.0
 10
137.509330
 20
126.537326
 30
0.0
 10
138.871272
 20
124.461392
 30
0.0
 10
140.129838
 20
122.331465
 30
0.0
 10
141.226052
 20
120.116166
 30
0.0
 10
142.100945
 20
117.784120
 30
0.0
 10
139.704673
 20
114.484606
 30
0.0
 10
137.150486
 20
111.296825
 30
0.0
 10
134.562456
 20
108.144488
 30
0.0
 10
132.064647
 20
104.951304
 30
0.0
 10
132.474029
 20
103.748680
 30
0.0
 10
132.756444
 20
103.189515
 30
0.0
 10
133.121204
 20
102.759739
 30
0.0
 10
149.419282
 20
98.965902
 30
0.0
 10
150.773138
 20
78.469773
 30
0.0
 10
142.787717
 20
75.466085
 30
0.0
 10
138.800178
 20
73.954960
 30
0.0
 10
134.863299
 20
72.337074
 30
0.0
 10
134.545547
 20
70.820859
 30
0.0
 10
134.282222
 20
69.292497
 30
0.0
 10
146.599710
 20
57.673500
 30
0.0
 10
137.515510
 20
39.257467
 30
0.0
 10
133.287616
 20
39.940961
 30
0.0
 10
129.065489
 20
40.678583
 30
0.0
 10
124.844030
 20
41.375745
 30
0.0
 10
120.618136
 20
41.937855
 30
0.0
 10
119.564503
 20
40.776679
 30
0.0
 10
118.550420
 20
39.578533
 30
0.0
 10
123.375801
 20
23.304080
 30
0.0
 10
106.172305
 20
11.995046
 30
0.0
 10
99.574303
 20
17.507841
 30
0.0
 10
96.269958
 20
20.252292
 30
0.0
 10
92.901867
 20
22.882680
 30
0.0
 10
91.700712
 20
22.478822
 30
0.0
 10
91.141140
 20
22.199400
 30
0.0
 10
90.712428
 20
21.835945
 30
0.0
 10
86.915612
 20
5.527617
 30
0.0
 10
66.387461
 20
4.171199
 30
0.0
 10
65.100502
 20
7.854675
 30
0.0
 10
63.679015
 20
11.486238
 30
0.0
 10
62.224487
 20
15.106002
 30
0.0
 10
60.838401
 20
18.754081
 30
0.0
 10
60.603971
 20
18.078893
 30
0.0
 10
60.280926
 20
17.442170
 30
0.0
 10
59.425170
 20
16.292557
 30
0.0
 10
58.383492
 20
15.322130
 30
0.0
 10
57.268251
 20
14.547776
 30
0.0
 10
57.501921
 20
13.446302
 30
0.0
 10
57.473288
 20
12.350074
 30
0.0
 10
57.213075
 20
11.284030
 30
0.0
 10
56.752006
 20
10.273107
 30
0.0
 10
56.120807
 20
9.342244
 30
0.0
 10
55.350199
 20
8.516379
 30
0.0
 10
54.470908
 20
7.820448
 30
0.0
 10
53.513658
 20
7.279391
 30
0.0
 10
53.158663
 20
7.154026
 30
0.0
 10
52.976938
 20
6.954739
 30
0.0
 10
52.947230
 20
6.678473
 30
0.0
 10
53.048284
 20
6.322171
 30
0.0
 10
53.069975
 20
5.030344
 30
0.0
 10
52.799236
 20
3.802306
 30
0.0
 10
52.274444
 20
2.662118
 30
0.0
 10
51.533975
 20
1.633848
 30
0.0
 10
50.616205
 20
0.741561
 30
0.0
 10
49.559510
 20
0.009321
 30
0.0
 10
48.402268
 20
-0.538807
 30
0.0
 10
47.182854
 20
-0.878757
 30
0.0
 10
45.495928
 20
-1.146811
 30
0.0
 10
43.790222
 20
-1.184110
 30
0.0
 10
42.085737
 20
-1.036283
 30
0.0
 10
40.402472
 20
-0.748965
 30
0.0
 10
36.435687
 20
-8.682109
 30
0.0
 10
36.240166
 20
-8.584349
 30
0.0
 10
36.044645
 20
-8.486590
 30
0.0
  0
LWPOLYLINE
  5
109
100
AcDbEntity
  8
inside_edge
 62
7
100
AcDbPolyline
 90
183
 70
1
 10
75.245020
 20
160.897125
 30
0.0
 10
57.464710
 20
159.722519
 30
0.0
 10
53.674760
 20
143.444443
 30
0.0
 10
49.431092
 20
142.026441
 30
0.0
 10
36.597768
 20
152.717262
 30
0.0
 10
21.675163
 20
142.906491
 30
0.0
 10
26.422160
 20
126.899716
 30
0.0
 10
24.628143
 20
124.966622
 30
0.0
 10
22.927800
 20
122.950603
 30
0.0
 10
6.429582
 20
125.704958
 30
0.0
 10
-1.450041
 20
109.730220
 30
0.0
 10
10.685653
 20
98.281823
 30
0.0
 10
10.114825
 20
95.744927
 30
0.0
 10
9.661426
 20
93.184461
 30
0.0
 10
-5.950024
 20
87.291796
 30
0.0
 10
-4.775419
 20
69.514587
 30
0.0
 10
11.487671
 20
65.728254
 30
0.0
 10
12.919625
 20
61.476317
 30
0.0
 10
9.279574
 20
57.126874
 30
0.0
 10
5.691642
 20
52.734733
 30
0.0
 10
5.033667
 20
51.807767
 30
0.0
 10
4.275503
 20
50.942808
 30
0.0
 10
3.579841
 20
50.044412
 30
0.0
 10
3.109371
 20
49.017130
 30
0.0
 10
3.277396
 20
47.873516
 30
0.0
 10
3.703727
 20
46.778943
 30
0.0
 10
4.818828
 20
44.689745
 30
0.0
 10
8.236534
 20
39.520798
 30
0.0
 10
9.843087
 20
36.873289
 30
0.0
 10
11.283032
 20
34.132248
 30
0.0
 10
16.209530
 20
35.525753
 30
0.0
 10
21.175252
 20
36.773806
 30
0.0
 10
26.143917
 20
38.011080
 30
0.0
 10
31.079240
 20
39.372239
 30
0.0
 10
30.721639
 20
39.103523
 30
0.0
 10
30.168039
 20
38.655988
 30
0.0
 10
29.672138
 20
38.123739
 30
0.0
 10
29.256046
 20
37.524162
 30
0.0
 10
28.941872
 20
36.874649
 30
0.0
 10
28.751724
 20
36.192588
 30
0.0
 10
28.707713
 20
35.495368
 30
0.0
 10
28.831951
 20
34.800382
 30
0.0
 10
29.146543
 20
34.125015
 30
0.0
 10
29.763559
 20
33.433584
 30
0.0
 10
28.853628
 20
33.174832
 30
0.0
 10
27.980482
 20
32.820211
 30
0.0
 10
27.159456
 20
32.371497
 30
0.0
 10
26.405877
 20
31.830463
 30
0.0
 10
25.735079
 20
31.198879
 30
0.0
 10
25.162391
 20
30.478522
 30
0.0
 10
24.703146
 20
29.671162
 30
0.0
 10
24.372673
 20
28.778571
 30
0.0
 10
24.304153
 20
28.352174
 30
0.0
 10
24.350037
 20
27.963959
 30
0.0
 10
24.687458
 20
27.269557
 30
0.0
 10
25.662000
 20
25.981325
 30
0.0
 10
24.050842
 20
25.333376
 30
0.0
 10
23.313882
 20
24.888945
 30
0.0
 10
22.638248
 20
24.365967
 30
0.0
 10
22.035628
 20
23.765757
 30
0.0
 10
21.517708
 20
23.089635
 30
0.0
 10
21.096173
 20
22.338922
 30
0.0
 10
20.782711
 20
21.514930
 30
0.0
 10
20.714153
 20
21.083075
 30
0.0
 10
20.758308
 20
20.686956
 30
0.0
 10
21.089974
 20
19.972076
 30
0.0
 10
22.063253
 20
18.642754
 30
0.0
 10
21.031993
 20
18.391326
 30
0.0
 10
20.041210
 20
18.014358
 30
0.0
 10
19.104659
 20
17.505236
 30
0.0
 10
18.236097
 20
16.857335
 30
0.0
 10
17.693721
 20
16.399682
 30
0.0
 10
17.227580
 20
15.852257
 30
0.0
 10
16.854984
 20
15.236164
 30
0.0
 10
16.593242
 20
14.572507
 30
0.0
 10
16.459666
 20
13.882392
 30
0.0
 10
16.471564
 20
13.186924
 30
0.0
 10
16.646249
 20
12.507212
 30
0.0
 10
17.001029
 20
11.864356
 30
0.0
 10
17.424145
 20
11.462729
 30
0.0
 10
17.777242
 20
11.018687
 30
0.0
 10
17.971548
 20
10.503710
 30
0.0
 10
17.918286
 20
9.889284
 30
0.0
 10
17.964147
 20
9.036863
 30
0.0
 10
18.288821
 20
8.306136
 30
0.0
 10
18.831875
 20
7.715795
 30
0.0
 10
19.532874
 20
7.284532
 30
0.0
 10
20.331387
 20
7.031038
 30
0.0
 10
21.166977
 20
6.973999
 30
0.0
 10
21.979212
 20
7.132106
 30
0.0
 10
22.707658
 20
7.524054
 30
0.0
 10
24.206274
 20
7.067233
 30
0.0
 10
21.175968
 20
1.007139
 30
0.0
 10
35.020603
 20
-5.916986
 30
0.0
 10
35.316193
 20
-6.064782
 30
0.0
 10
35.612298
 20
-6.212576
 30
0.0
 10
39.396047
 20
1.353886
 30
0.0
 10
41.689976
 20
0.882788
 30
0.0
 10
44.041757
 20
0.637135
 30
0.0
 10
45.132031
 20
0.653248
 30
0.0
 10
46.244646
 20
0.793186
 30
0.0
 10
47.339762
 20
1.065689
 30
0.0
 10
48.377548
 20
1.479481
 30
0.0
 10
49.318163
 20
2.043298
 30
0.0
 10
50.121774
 20
2.765864
 30
0.0
 10
50.748542
 20
3.655909
 30
0.0
 10
51.158636
 20
4.722164
 30
0.0
 10
51.290846
 20
5.208119
 30
0.0
 10
51.309525
 20
5.673691
 30
0.0
 10
51.086029
 20
6.557987
 30
0.0
 10
50.647559
 20
7.403648
 30
0.0
 10
50.153521
 20
8.239263
 30
0.0
 10
51.918448
 20
8.644433
 30
0.0
 10
52.750057
 20
8.978927
 30
0.0
 10
53.519481
 20
9.408949
 30
0.0
 10
54.205514
 20
9.940195
 30
0.0
 10
54.786939
 20
10.578357
 30
0.0
 10
55.242546
 20
11.329125
 30
0.0
 10
55.551124
 20
12.198194
 30
0.0
 10
55.693653
 20
12.681816
 30
0.0
 10
55.725826
 20
13.146212
 30
0.0
 10
55.531336
 20
14.029164
 30
0.0
 10
55.112130
 20
14.870740
 30
0.0
 10
54.612682
 20
15.694623
 30
0.0
 10
55.500727
 20
15.895958
 30
0.0
 10
56.351846
 20
16.234802
 30
0.0
 10
57.140691
 20
16.699582
 30
0.0
 10
57.841911
 20
17.278737
 30
0.0
 10
58.430159
 20
17.960700
 30
0.0
 10
58.880080
 20
18.733903
 30
0.0
 10
59.166330
 20
19.586779
 30
0.0
 10
59.263559
 20
20.507765
 30
0.0
 10
59.221946
 20
21.153554
 30
0.0
 10
59.015049
 20
21.734439
 30
0.0
 10
58.343719
 20
22.795482
 30
0.0
 10
59.771697
 20
23.154561
 30
0.0
 10
61.088772
 20
23.792321
 30
0.0
 10
61.764168
 20
21.578115
 30
0.0
 10
62.530325
 20
19.391496
 30
0.0
 10
64.229080
 20
15.068984
 30
0.0
 10
65.973343
 20
10.760731
 30
0.0
 10
67.551426
 20
6.402684
 30
0.0
 10
67.588632
 20
6.305013
 30
0.0
 10
67.666147
 20
6.100376
 30
0.0
 10
85.432505
 20
7.274981
 30
0.0
 10
89.222971
 20
23.554609
 30
0.0
 10
93.465607
 20
24.971058
 30
0.0
 10
106.298934
 20
14.280756
 30
0.0
 10
121.222053
 20
24.091525
 30
0.0
 10
116.469888
 20
40.116904
 30
0.0
 10
118.265218
 20
42.041134
 30
0.0
 10
119.969415
 20
44.046382
 30
0.0
 10
136.466602
 20
41.292543
 30
0.0
 10
144.347256
 20
57.267281
 30
0.0
 10
132.217248
 20
68.709476
 30
0.0
 10
132.783676
 20
71.249092
 30
0.0
 10
133.233206
 20
73.812008
 30
0.0
 10
148.846724
 20
79.705186
 30
0.0
 10
147.672119
 20
97.482914
 30
0.0
 10
131.406962
 20
101.269247
 30
0.0
 10
129.969840
 20
105.511880
 30
0.0
 10
135.131065
 20
111.692150
 30
0.0
 10
137.650181
 20
114.831389
 30
0.0
 10
140.042094
 20
118.069255
 30
0.0
 10
139.234411
 20
120.056707
 30
0.0
 10
138.254172
 20
121.951057
 30
0.0
 10
137.146936
 20
123.776836
 30
0.0
 10
135.958269
 20
125.558566
 30
0.0
 10
133.518884
 20
129.087992
 30
0.0
 10
132.359290
 20
130.884739
 30
0.0
 10
131.300509
 20
132.735543
 30
0.0
 10
127.209051
 20
131.584144
 30
0.0
 10
123.075121
 20
130.594411
 30
0.0
 10
118.936694
 20
129.621174
 30
0.0
 10
114.831747
 20
128.519263
 30
0.0
 10
112.904212
 20
130.305120
 30
0.0
 10
110.897617
 20
132.001738
 30
0.0
 10
113.654557
 20
148.517009
 30
0.0
 10
97.679819
 20
156.397149
 30
0.0
 10
86.234008
 20
144.264039
 30
0.0
 10
83.709724
 20
144.823576
 30
0.0
 10
81.162998
 20
145.270179
 30
0.0
 10
75.245012
 20
160.897132
 30
0.0
  0
LWPOLYLINE
  5
10a
100
AcDbEntity
  8
gear_bulb
 62
7
100
AcDbPolyline
 90
212
 70
1
 10
74.130936
 20
16.295701
 30
0.0
 10
73.551912
 20
17.891073
 30
0.0
 10
72.895991
 20
19.473570
 30
0.0
 10
71.551871
 20
22.639731
 30
0.0
 10
70.962874
 20
24.243283
 30
0.0
 10
70.495388
 20
25.873745
 30
0.0
 10
70.199015
 20
27.541060
 30
0.0
 10
70.123359
 20
29.255172
 30
0.0
 10
70.748575
 20
34.606271
 30
0.0
 10
71.078816
 20
37.270872
 30
0.0
 10
71.509469
 20
39.870987
 30
0.0
 10
75.023369
 20
39.991784
 30
0.0
 10
78.503789
 20
40.419484
 30
0.0
 10
81.932215
 20
41.141085
 30
0.0
 10
85.290137
 20
42.143584
 30
0.0
 10
88.559044
 20
43.413987
 30
0.0
 10
91.720426
 20
44.939287
 30
0.0
 10
94.755774
 20
46.706486
 30
0.0
 10
97.646571
 20
48.702585
 30
0.0
 10
100.374312
 20
50.914582
 30
0.0
 10
102.920483
 20
53.329476
 30
0.0
 10
105.266573
 20
55.934268
 30
0.0
 10
107.394073
 20
58.715956
 30
0.0
 10
109.284470
 20
61.661541
 30
0.0
 10
110.919254
 20
64.758021
 30
0.0
 10
112.279914
 20
67.992397
 30
0.0
 10
113.347940
 20
71.351668
 30
0.0
 10
114.095713
 20
74.295950
 30
0.0
 10
114.625488
 20
77.284605
 30
0.0
 10
114.940254
 20
80.303262
 30
0.0
 10
115.042997
 20
83.337549
 30
0.0
 10
114.936704
 20
86.373097
 30
0.0
 10
114.624362
 20
89.395535
 30
0.0
 10
114.108960
 20
92.390492
 30
0.0
 10
113.393485
 20
95.343597
 30
0.0
 10
112.480923
 20
98.240480
 30
0.0
 10
111.374263
 20
101.066771
 30
0.0
 10
110.076491
 20
103.808100
 30
0.0
 10
108.590594
 20
106.450094
 30
0.0
 10
106.919562
 20
108.978383
 30
0.0
 10
105.066379
 20
111.378597
 30
0.0
 10
103.034036
 20
113.636367
 30
0.0
 10
100.825516
 20
115.737319
 30
0.0
 10
98.634696
 20
117.610425
 30
0.0
 10
96.321498
 20
119.326907
 30
0.0
 10
93.897936
 20
120.883231
 30
0.0
 10
91.376025
 20
122.275856
 30
0.0
 10
88.767779
 20
123.501242
 30
0.0
 10
86.085211
 20
124.555855
 30
0.0
 10
83.340339
 20
125.436152
 30
0.0
 10
80.545174
 20
126.138597
 30
0.0
 10
77.711730
 20
126.659650
 30
0.0
 10
74.852024
 20
126.995772
 30
0.0
 10
71.978069
 20
127.143427
 30
0.0
 10
69.101881
 20
127.099073
 30
0.0
 10
66.235472
 20
126.859175
 30
0.0
 10
63.390858
 20
126.420193
 30
0.0
 10
60.580052
 20
125.778586
 30
0.0
 10
57.815069
 20
124.930819
 30
0.0
 10
55.217621
 20
123.987083
 30
0.0
 10
52.689161
 20
122.875182
 30
0.0
 10
50.237809
 20
121.602604
 30
0.0
 10
47.871682
 20
120.176842
 30
0.0
 10
45.598894
 20
118.605391
 30
0.0
 10
43.427568
 20
116.895736
 30
0.0
 10
41.365817
 20
115.055372
 30
0.0
 10
39.421759
 20
113.091791
 30
0.0
 10
37.603515
 20
111.012484
 30
0.0
 10
35.919197
 20
108.824941
 30
0.0
 10
34.376929
 20
106.536654
 30
0.0
 10
32.984822
 20
104.155116
 30
0.0
 10
31.750998
 20
101.687817
 30
0.0
 10
30.683573
 20
99.142250
 30
0.0
 10
29.790663
 20
96.525902
 30
0.0
 10
29.080388
 20
93.846270
 30
0.0
 10
28.567465
 20
91.469026
 30
0.0
 10
28.192945
 20
89.066287
 30
0.0
 10
27.955561
 20
86.645656
 30
0.0
 10
27.854038
 20
84.214733
 30
0.0
 10
27.887109
 20
81.781118
 30
0.0
 10
28.053502
 20
79.352412
 30
0.0
 10
28.351949
 20
76.936215
 30
0.0
 10
28.781178
 20
74.540128
 30
0.0
 10
29.339919
 20
72.171751
 30
0.0
 10
30.026900
 20
69.838685
 30
0.0
 10
30.840854
 20
67.548531
 30
0.0
 10
31.780509
 20
65.308889
 30
0.0
 10
32.844594
 20
63.127359
 30
0.0
 10
34.031841
 20
61.011543
 30
0.0
 10
35.340979
 20
58.969040
 30
0.0
 10
36.770737
 20
57.007452
 30
0.0
 10
34.312771
 20
54.665018
 30
0.0
 10
31.896525
 20
52.258542
 30
0.0
 10
30.656583
 20
51.095137
 30
0.0
 10
29.370113
 20
49.992342
 30
0.0
 10
28.018128
 20
48.975695
 30
0.0
 10
26.581646
 20
48.070736
 30
0.0
 10
16.159759
 20
44.980290
 30
0.0
 10
15.657263
 20
45.814499
 30
0.0
 10
14.985861
 20
46.657905
 30
0.0
 10
14.476624
 20
47.492482
 30
0.0
 10
14.386275
 20
47.900825
 30
0.0
 10
14.460616
 20
48.300201
 30
0.0
 10
24.068995
 20
59.838552
 30
0.0
 10
22.570748
 20
63.198456
 30
0.0
 10
21.287918
 20
66.648421
 30
0.0
 10
20.234003
 20
70.172342
 30
0.0
 10
19.422505
 20
73.754112
 30
0.0
 10
4.354610
 20
77.263635
 30
0.0
 10
4.333734
 20
78.230397
 30
0.0
 10
4.168338
 20
79.290161
 30
0.0
 10
4.139516
 20
80.262041
 30
0.0
 10
4.264163
 20
80.658500
 30
0.0
 10
4.528367
 20
80.965156
 30
0.0
 10
18.599339
 20
86.277816
 30
0.0
 10
18.933650
 20
90.088268
 30
0.0
 10
19.556753
 20
93.863985
 30
0.0
 10
20.436995
 20
97.593524
 30
0.0
 10
21.542727
 20
101.265444
 30
0.0
 10
10.319084
 20
111.852933
 30
0.0
 10
10.785222
 20
112.700953
 30
0.0
 10
11.173026
 20
113.701837
 30
0.0
 10
11.634987
 20
114.558007
 30
0.0
 10
11.941433
 20
114.838831
 30
0.0
 10
12.323608
 20
114.971885
 30
0.0
 10
27.177177
 20
112.489514
 30
0.0
 10
29.399233
 20
115.625076
 30
0.0
 10
31.843150
 20
118.592186
 30
0.0
 10
34.490266
 20
121.381012
 30
0.0
 10
37.321919
 20
123.981710
 30
0.0
 10
32.927757
 20
138.792154
 30
0.0
 10
33.764682
 20
139.291755
 30
0.0
 10
34.611118
 20
139.959476
 30
0.0
 10
35.448409
 20
140.465544
 30
0.0
 10
35.857798
 20
140.554902
 30
0.0
 10
36.257904
 20
140.480181
 30
0.0
 10
47.786022
 20
130.879075
 30
0.0
 10
51.151426
 20
132.375464
 30
0.0
 10
54.599264
 20
133.649521
 30
0.0
 10
58.120863
 20
134.704569
 30
0.0
 10
61.707557
 20
135.543925
 30
0.0
 10
65.213666
 20
150.592608
 30
0.0
 10
66.183004
 20
150.613855
 30
0.0
 10
67.244372
 20
150.778523
 30
0.0
 10
68.218292
 20
150.806904
 30
0.0
 10
68.616372
 20
150.682574
 30
0.0
 10
68.925286
 20
150.419277
 30
0.0
 10
74.197532
 20
136.377336
 30
0.0
 10
78.011561
 20
136.007394
 30
0.0
 10
81.789620
 20
135.391159
 30
0.0
 10
85.522275
 20
134.520744
 30
0.0
 10
89.200104
 20
133.388264
 30
0.0
 10
99.802536
 20
144.627705
 30
0.0
 10
100.650554
 20
144.161565
 30
0.0
 10
101.651440
 20
143.773763
 30
0.0
 10
102.507612
 20
143.311802
 30
0.0
 10
102.788432
 20
143.005354
 30
0.0
 10
102.921482
 20
142.623181
 30
0.0
 10
100.439546
 20
127.773881
 30
0.0
 10
103.577788
 20
125.536672
 30
0.0
 10
106.544318
 20
123.075295
 30
0.0
 10
109.342933
 20
120.429588
 30
0.0
 10
111.977423
 20
117.639385
 30
0.0
 10
126.736634
 20
122.017748
 30
0.0
 10
127.239143
 20
121.183430
 30
0.0
 10
127.910504
 20
120.339910
 30
0.0
 10
128.419717
 20
119.505226
 30
0.0
 10
128.510080
 20
119.096832
 30
0.0
 10
128.435781
 20
118.697408
 30
0.0
 10
118.844476
 20
107.179553
 30
0.0
 10
120.317185
 20
103.795057
 30
0.0
 10
121.600036
 20
100.347186
 30
0.0
 10
122.659685
 20
96.832125
 30
0.0
 10
123.462787
 20
93.246061
 30
0.0
 10
138.542210
 20
89.733550
 30
0.0
 10
138.563077
 20
88.766788
 30
0.0
 10
138.728472
 20
87.707024
 30
0.0
 10
138.757294
 20
86.735144
 30
0.0
 10
138.632647
 20
86.338686
 30
0.0
 10
138.368443
 20
86.032030
 30
0.0
 10
124.311988
 20
80.724920
 30
0.0
 10
123.959629
 20
76.911451
 30
0.0
 10
123.343010
 20
73.134526
 30
0.0
 10
122.467881
 20
69.407705
 30
0.0
 10
121.339994
 20
65.744549
 30
0.0
 10
132.577727
 20
55.144678
 30
0.0
 10
132.111478
 20
54.296654
 30
0.0
 10
131.723543
 20
53.295794
 30
0.0
 10
131.261462
 20
52.439637
 30
0.0
 10
130.954973
 20
52.158803
 30
0.0
 10
130.572775
 20
52.025721
 30
0.0
 10
115.702555
 20
54.510659
 30
0.0
 10
114.632668
 20
52.914765
 30
0.0
 10
113.495825
 20
51.366999
 30
0.0
 10
111.043815
 20
48.408346
 30
0.0
 10
108.391608
 20
45.619689
 30
0.0
 10
105.584283
 20
42.986015
 30
0.0
 10
109.969480
 20
28.205458
 30
0.0
 10
109.132553
 20
27.705854
 30
0.0
 10
108.286123
 20
27.038138
 30
0.0
 10
107.448830
 20
26.532068
 30
0.0
 10
107.039436
 20
26.442703
 30
0.0
 10
106.639317
 20
26.517409
 30
0.0
 10
95.107802
 20
36.119818
 30
0.0
 10
91.740463
 20
34.619232
 30
0.0
 10
88.288260
 20
33.346031
 30
0.0
 10
84.765766
 20
32.292017
 30
0.0
 10
81.187546
 20
31.448992
 30
0.0
 10
77.685282
 20
16.413545
 30
0.0
 10
75.861168
 20
16.262308
 30
0.0
 10
74.958883
 20
16.210076
 30
0.0
 10
74.130928
 20
16.295707
 30
0.0
  0
LWPOLYLINE
  5
10b
100
AcDbEntity
  8
gear_bulb
 62
7
100
AcDbPolyline
 90
180
 70
1
 10
71.086775
 20
46.463736
 30
0.0
 10
70.590786
 20
46.510918
 30
0.0
 10
70.084550
 20
46.483701
 30
0.0
 10
69.585446
 20
46.465929
 30
0.0
 10
69.110853
 20
46.541443
 30
0.0
 10
69.388573
 20
48.916983
 30
0.0
 10
69.539102
 20
50.090763
 30
0.0
 10
69.779883
 20
51.156339
 30
0.0
 10
72.016272
 20
51.119649
 30
0.0
 10
74.243273
 20
51.251149
 30
0.0
 10
76.451720
 20
51.545515
 30
0.0
 10
78.632445
 20
51.997423
 30
0.0
 10
80.776280
 20
52.601554
 30
0.0
 10
82.874059
 20
53.352582
 30
0.0
 10
84.916614
 20
54.245186
 30
0.0
 10
86.894777
 20
55.274046
 30
0.0
 10
88.799381
 20
56.433838
 30
0.0
 10
90.621259
 20
57.719240
 30
0.0
 10
92.351244
 20
59.124928
 30
0.0
 10
93.980167
 20
60.645584
 30
0.0
 10
95.498862
 20
62.275882
 30
0.0
 10
96.898163
 20
64.010501
 30
0.0
 10
98.168897
 20
65.844117
 30
0.0
 10
99.301904
 20
67.771410
 30
0.0
 10
100.299983
 20
69.734322
 30
0.0
 10
101.151156
 20
71.761008
 30
0.0
 10
101.855617
 20
73.841369
 30
0.0
 10
102.413558
 20
75.965316
 30
0.0
 10
102.825173
 20
78.122749
 30
0.0
 10
103.090656
 20
80.303582
 30
0.0
 10
103.210203
 20
82.497714
 30
0.0
 10
103.184002
 20
84.695053
 30
0.0
 10
103.012250
 20
86.885506
 30
0.0
 10
102.695140
 20
89.058980
 30
0.0
 10
102.232865
 20
91.205379
 30
0.0
 10
101.625619
 20
93.314610
 30
0.0
 10
100.873593
 20
95.376580
 30
0.0
 10
99.976983
 20
97.381192
 30
0.0
 10
98.935982
 20
99.318353
 30
0.0
 10
97.750783
 20
101.177972
 30
0.0
 10
96.535340
 20
102.863301
 30
0.0
 10
95.210087
 20
104.459903
 30
0.0
 10
93.782476
 20
105.963771
 30
0.0
 10
92.259962
 20
107.370896
 30
0.0
 10
90.649999
 20
108.677270
 30
0.0
 10
88.960040
 20
109.878886
 30
0.0
 10
87.197539
 20
110.971735
 30
0.0
 10
85.369950
 20
111.951810
 30
0.0
 10
83.484727
 20
112.815102
 30
0.0
 10
81.549325
 20
113.557604
 30
0.0
 10
79.571195
 20
114.175307
 30
0.0
 10
77.557794
 20
114.664203
 30
0.0
 10
75.516573
 20
115.020285
 30
0.0
 10
73.454989
 20
115.239544
 30
0.0
 10
71.380493
 20
115.317973
 30
0.0
 10
69.300540
 20
115.251563
 30
0.0
 10
67.183860
 20
115.065768
 30
0.0
 10
65.089291
 20
114.732602
 30
0.0
 10
63.024411
 20
114.256964
 30
0.0
 10
60.996798
 20
113.643753
 30
0.0
 10
59.014031
 20
112.897866
 30
0.0
 10
57.083689
 20
112.024202
 30
0.0
 10
55.213349
 20
111.027658
 30
0.0
 10
53.410591
 20
109.913132
 30
0.0
 10
51.682994
 20
108.685524
 30
0.0
 10
50.038135
 20
107.349730
 30
0.0
 10
48.483594
 20
105.910648
 30
0.0
 10
47.026946
 20
104.373178
 30
0.0
 10
45.675774
 20
102.742217
 30
0.0
 10
44.437656
 20
101.022662
 30
0.0
 10
43.320168
 20
99.219413
 30
0.0
 10
42.330889
 20
97.337367
 30
0.0
 10
41.444828
 20
95.372120
 30
0.0
 10
40.700681
 20
93.351964
 30
0.0
 10
40.098129
 20
91.286409
 30
0.0
 10
39.636848
 20
89.184958
 30
0.0
 10
39.316523
 20
87.057123
 30
0.0
 10
39.136831
 20
84.912409
 30
0.0
 10
39.097453
 20
82.760324
 30
0.0
 10
39.198071
 20
80.610380
 30
0.0
 10
39.438363
 20
78.472080
 30
0.0
 10
39.818009
 20
76.354934
 30
0.0
 10
40.336691
 20
74.268448
 30
0.0
 10
40.994090
 20
72.222134
 30
0.0
 10
41.789883
 20
70.225497
 30
0.0
 10
42.723754
 20
68.288043
 30
0.0
 10
43.795380
 20
66.419283
 30
0.0
 10
45.004442
 20
64.628725
 30
0.0
 10
46.877040
 20
62.245492
 30
0.0
 10
45.179493
 20
60.621453
 30
0.0
 10
44.332878
 20
59.831527
 30
0.0
 10
43.502007
 20
59.201772
 30
0.0
 10
41.885896
 20
61.165933
 30
0.0
 10
40.422262
 20
63.237610
 30
0.0
 10
39.113030
 20
65.405543
 30
0.0
 10
37.960133
 20
67.658467
 30
0.0
 10
36.965496
 20
69.985118
 30
0.0
 10
36.131051
 20
72.374233
 30
0.0
 10
35.458724
 20
74.814548
 30
0.0
 10
34.950446
 20
77.294800
 30
0.0
 10
34.608144
 20
79.803725
 30
0.0
 10
34.433746
 20
82.330058
 30
0.0
 10
34.429178
 20
84.862538
 30
0.0
 10
34.596377
 20
87.389899
 30
0.0
 10
34.937267
 20
89.900878
 30
0.0
 10
35.453779
 20
92.384213
 30
0.0
 10
36.147839
 20
94.828637
 30
0.0
 10
37.021377
 20
97.222889
 30
0.0
 10
37.942457
 20
99.342698
 30
0.0
 10
38.998310
 20
101.395553
 30
0.0
 10
40.182381
 20
103.375640
 30
0.0
 10
41.488113
 20
105.277146
 30
0.0
 10
42.908954
 20
107.094258
 30
0.0
 10
44.438347
 20
108.821164
 30
0.0
 10
46.069738
 20
110.452049
 30
0.0
 10
47.796568
 20
111.981102
 30
0.0
 10
49.612288
 20
113.402508
 30
0.0
 10
51.510337
 20
114.710455
 30
0.0
 10
53.484163
 20
115.899129
 30
0.0
 10
55.527209
 20
116.962718
 30
0.0
 10
57.632921
 20
117.895408
 30
0.0
 10
59.794743
 20
118.691387
 30
0.0
 10
62.006120
 20
119.344840
 30
0.0
 10
64.260497
 20
119.849956
 30
0.0
 10
66.479071
 20
120.224091
 30
0.0
 10
68.715669
 20
120.455932
 30
0.0
 10
70.962344
 20
120.547467
 30
0.0
 10
73.211149
 20
120.500685
 30
0.0
 10
75.454136
 20
120.317574
 30
0.0
 10
77.683360
 20
120.000123
 30
0.0
 10
79.890872
 20
119.550320
 30
0.0
 10
82.068726
 20
118.970153
 30
0.0
 10
84.208975
 20
118.261612
 30
0.0
 10
86.303672
 20
117.426683
 30
0.0
 10
88.344869
 20
116.467357
 30
0.0
 10
90.324621
 20
115.385622
 30
0.0
 10
92.234980
 20
114.183465
 30
0.0
 10
94.068000
 20
112.862876
 30
0.0
 10
95.815731
 20
111.425842
 30
0.0
 10
97.470230
 20
109.874353
 30
0.0
 10
99.060084
 20
108.212870
 30
0.0
 10
100.536056
 20
106.455279
 30
0.0
 10
101.895548
 20
104.609574
 30
0.0
 10
103.135959
 20
102.683752
 30
0.0
 10
104.254687
 20
100.685809
 30
0.0
 10
105.249133
 20
98.623740
 30
0.0
 10
106.116698
 20
96.505545
 30
0.0
 10
106.854779
 20
94.339216
 30
0.0
 10
107.460779
 20
92.132751
 30
0.0
 10
107.932096
 20
89.894143
 30
0.0
 10
108.266131
 20
87.631393
 30
0.0
 10
108.460281
 20
85.352495
 30
0.0
 10
108.511949
 20
83.065444
 30
0.0
 10
108.418534
 20
80.778237
 30
0.0
 10
108.177435
 20
78.498871
 30
0.0
 10
107.786051
 20
76.235341
 30
0.0
 10
107.293252
 20
74.085252
 30
0.0
 10
106.667959
 20
71.972056
 30
0.0
 10
105.914897
 20
69.901922
 30
0.0
 10
105.038787
 20
67.881013
 30
0.0
 10
104.044352
 20
65.915498
 30
0.0
 10
102.936315
 20
64.011546
 30
0.0
 10
101.719402
 20
62.175318
 30
0.0
 10
100.398331
 20
60.412987
 30
0.0
 10
98.977830
 20
58.730715
 30
0.0
 10
97.462618
 20
57.134674
 30
0.0
 10
95.857422
 20
55.631028
 30
0.0
 10
94.166959
 20
54.225943
 30
0.0
 10
92.395959
 20
52.925586
 30
0.0
 10
90.549140
 20
51.736126
 30
0.0
 10
88.631228
 20
50.663728
 30
0.0
 10
86.646944
 20
49.714560
 30
0.0
 10
84.796908
 20
48.942701
 30
0.0
 10
82.907826
 20
48.272071
 30
0.0
 10
80.985652
 20
47.704269
 30
0.0
 10
79.036338
 20
47.240898
 30
0.0
 10
77.065839
 20
46.883558
 30
0.0
 10
75.080108
 20
46.633851
 30
0.0
 10
73.085100
 20
46.493378
 30
0.0
 10
71.086768
 20
46.463738
 30
0.0
  0
LWPOLYLINE
  5
10c
100
AcDbEntity
  8
gear_bulb
 62
7
100
AcDbPolyline
 90
13
 70
1
 10
33.111894
 20
1.171654
 30
0.0
 10
28.618679
 20
3.440890
 30
0.0
 10
28.863942
 20
3.962201
 30
0.0
 10
29.049608
 20
4.551572
 30
0.0
 10
29.279501
 20
5.092604
 30
0.0
 10
29.657447
 20
5.468899
 30
0.0
 10
30.765810
 20
4.862388
 30
0.0
 10
31.951149
 20
4.302676
 30
0.0
 10
33.085403
 20
3.732615
 30
0.0
 10
34.040509
 20
3.095061
 30
0.0
 10
33.650539
 20
2.074280
 30
0.0
 10
33.436806
 20
1.574536
 30
0.0
 10
33.111894
 20
1.171654
 30
0.0
  0
LWPOLYLINE
  5
10d
100
AcDbEntity
  8
gear_bulb
 62
7
100
AcDbPolyline
 90
36
 70
1
 10
56.154767
 20
26.632156
 30
0.0
 10
53.749454
 20
26.991316
 30
0.0
 10
51.401012
 20
27.575565
 30
0.0
 10
49.096005
 20
28.332868
 30
0.0
 10
46.820995
 20
29.211186
 30
0.0
 10
42.307217
 20
31.122724
 30
0.0
 10
40.041575
 20
32.051871
 30
0.0
 10
37.752180
 20
32.893886
 30
0.0
 10
35.883145
 20
33.538834
 30
0.0
 10
33.996098
 20
33.979954
 30
0.0
 10
33.787642
 20
34.482578
 30
0.0
 10
33.501522
 20
34.963878
 30
0.0
 10
32.956476
 20
35.847857
 30
0.0
 10
33.810893
 20
36.234037
 30
0.0
 10
34.642711
 20
36.673307
 30
0.0
 10
35.507404
 20
36.975021
 30
0.0
 10
35.969415
 20
37.014717
 30
0.0
 10
36.460450
 20
36.948532
 30
0.0
 10
39.230763
 20
36.265218
 30
0.0
 10
41.941224
 20
35.396167
 30
0.0
 10
44.610178
 20
34.398367
 30
0.0
 10
47.255969
 20
33.328803
 30
0.0
 10
52.551448
 20
31.202333
 30
0.0
 10
55.237826
 20
30.259400
 30
0.0
 10
57.974425
 20
29.472650
 30
0.0
 10
58.249728
 20
29.412291
 30
0.0
 10
58.461101
 20
29.257930
 30
0.0
 10
58.764582
 20
28.767376
 30
0.0
 10
59.029914
 20
28.201334
 30
0.0
 10
59.402143
 20
27.760156
 30
0.0
 10
59.396716
 20
27.474492
 30
0.0
 10
59.272162
 20
27.264198
 30
0.0
 10
58.778458
 20
27.010061
 30
0.0
 10
57.602125
 20
26.749994
 30
0.0
 10
56.881682
 20
26.649912
 30
0.0
 10
56.154767
 20
26.632156
 30
0.0
  0
LWPOLYLINE
  5
10e
100
AcDbEntity
  8
gear_bulb
 62
7
100
AcDbPolyline
 90
36
 70
1
 10
51.891887
 20
19.398761
 30
0.0
 10
49.457656
 20
19.766363
 30
0.0
 10
47.082822
 20
20.361259
 30
0.0
 10
44.753329
 20
21.130453
 30
0.0
 10
42.455118
 20
22.020947
 30
0.0
 10
37.896324
 20
23.953852
 30
0.0
 10
35.607627
 20
24.890269
 30
0.0
 10
33.293988
 20
25.736002
 30
0.0
 10
31.523768
 20
26.332582
 30
0.0
 10
29.741331
 20
26.741435
 30
0.0
 10
29.532709
 20
27.247119
 30
0.0
 10
29.242595
 20
27.731635
 30
0.0
 10
28.707685
 20
28.619158
 30
0.0
 10
29.565576
 20
29.005036
 30
0.0
 10
30.399746
 20
29.444497
 30
0.0
 10
31.267296
 20
29.744217
 30
0.0
 10
31.731430
 20
29.781259
 30
0.0
 10
32.225321
 20
29.710868
 30
0.0
 10
34.991093
 20
29.024384
 30
0.0
 10
37.698387
 20
28.153581
 30
0.0
 10
40.365128
 20
27.155220
 30
0.0
 10
43.009242
 20
26.086062
 30
0.0
 10
48.301294
 20
23.962403
 30
0.0
 10
50.985083
 20
23.021424
 30
0.0
 10
53.717949
 20
22.236693
 30
0.0
 10
53.994371
 20
22.178443
 30
0.0
 10
54.206687
 20
22.025539
 30
0.0
 10
54.511330
 20
21.536318
 30
0.0
 10
54.776532
 20
20.970122
 30
0.0
 10
55.146949
 20
20.528042
 30
0.0
 10
55.138163
 20
20.241869
 30
0.0
 10
55.010946
 20
20.031799
 30
0.0
 10
54.514161
 20
19.778979
 30
0.0
 10
53.341807
 20
19.515745
 30
0.0
 10
52.620063
 20
19.415953
 30
0.0
 10
51.891887
 20
19.398760
 30
0.0
  0
LWPOLYLINE
  5
10f
100
AcDbEntity
  8
gear_bulb
 62
7
100
AcDbPolyline
 90
32
 70
1
 10
48.289711
 20
12.084276
 30
0.0
 10
45.848573
 20
12.450151
 30
0.0
 10
43.470048
 20
13.044516
 30
0.0
 10
41.139434
 20
13.813993
 30
0.0
 10
38.842033
 20
14.705203
 30
0.0
 10
34.288062
 20
16.639310
 30
0.0
 10
32.002092
 20
17.575450
 30
0.0
 10
29.690531
 20
18.419809
 30
0.0
 10
27.920774
 20
19.017368
 30
0.0
 10
26.137873
 20
19.427804
 30
0.0
 10
25.928823
 20
19.931066
 30
0.0
 10
25.641961
 20
20.413020
 30
0.0
 10
25.100813
 20
21.297842
 30
0.0
 10
25.943375
 20
21.675999
 30
0.0
 10
26.759804
 20
22.112723
 30
0.0
 10
27.608428
 20
22.417175
 30
0.0
 10
28.063040
 20
22.460162
 30
0.0
 10
28.547575
 20
22.398517
 30
0.0
 10
31.368521
 20
21.712925
 30
0.0
 10
34.130734
 20
20.827819
 30
0.0
 10
36.852445
 20
19.806049
 30
0.0
 10
39.551883
 20
18.710468
 30
0.0
 10
44.956856
 20
16.549279
 30
0.0
 10
47.698850
 20
15.609374
 30
0.0
 10
50.491489
 20
14.847065
 30
0.0
 10
51.081499
 20
13.879541
 30
0.0
 10
51.373995
 20
13.394790
 30
0.0
 10
51.596861
 20
12.897614
 30
0.0
 10
50.873169
 20
12.473157
 30
0.0
 10
50.033047
 20
12.233758
 30
0.0
 10
49.148044
 20
12.122952
 30
0.0
 10
48.289711
 20
12.084276
 30
0.0
  0
LWPOLYLINE
  5
110
100
AcDbEntity
  8
gear_bulb
 62
7
100
AcDbPolyline
 90
36
 70
1
 10
43.888082
 20
4.569103
 30
0.0
 10
41.417395
 20
4.948004
 30
0.0
 10
39.009441
 20
5.555220
 30
0.0
 10
36.649550
 20
6.337117
 30
0.0
 10
34.323047
 20
7.240058
 30
0.0
 10
29.711521
 20
9.194536
 30
0.0
 10
27.397152
 20
10.138800
 30
0.0
 10
25.057483
 20
10.989567
 30
0.0
 10
23.399264
 20
11.536146
 30
0.0
 10
21.732828
 20
11.910497
 30
0.0
 10
21.524397
 20
12.414524
 30
0.0
 10
21.236991
 20
12.897268
 30
0.0
 10
20.694061
 20
13.783524
 30
0.0
 10
21.538529
 20
14.162588
 30
0.0
 10
22.358443
 20
14.599024
 30
0.0
 10
23.210098
 20
14.903092
 30
0.0
 10
23.665421
 20
14.946194
 30
0.0
 10
24.149788
 20
14.885053
 30
0.0
 10
26.921185
 20
14.210746
 30
0.0
 10
29.635118
 20
13.345722
 30
0.0
 10
32.309391
 20
12.348155
 30
0.0
 10
34.961809
 20
11.276221
 30
0.0
 10
40.272298
 20
9.141952
 30
0.0
 10
42.965978
 20
8.195967
 30
0.0
 10
45.709021
 20
7.408316
 30
0.0
 10
45.984678
 20
7.347259
 30
0.0
 10
46.196485
 20
7.192954
 30
0.0
 10
46.500803
 20
6.703784
 30
0.0
 10
46.766480
 20
6.139185
 30
0.0
 10
47.138020
 20
5.697531
 30
0.0
 10
47.130450
 20
5.407500
 30
0.0
 10
47.003489
 20
5.195564
 30
0.0
 10
46.506538
 20
4.943454
 30
0.0
 10
45.346541
 20
4.688649
 30
0.0
 10
44.620600
 20
4.587164
 30
0.0
 10
43.888082
 20
4.569103
 30
0.0
  0
LWPOLYLINE
  5
111
100
AcDbEntity
  8
gear_bulb
 62
7
100
AcDbPolyline
 90
5
 70
1
 10
45.996684
 20
38.311764
 30
0.0
 10
66.295989
 20
78.885184
 30
0.0
 10
70.882278
 20
76.588624
 30
0.0
 10
50.582546
 20
36.016911
 30
0.0
 10
45.996684
 20
38.311764
 30
0.0
  0
ENDSEC
  0
SECTION
  2
OBJECTS
  0
DICTIONARY
  5
C
330
0
100
AcDbDictionary
  3
ACAD_GROUP
350
D
  3
ACAD_MLINESTYLE
350
17
  0
DICTIONARY
  5
D
330
C
100
AcDbDictionary
  0
DICTIONARY
  5
1A
330
C
100
AcDbDictionary
  0
DICTIONARY
  5
17
330
C
100
AcDbDictionary
  3
STANDARD
350
18
  0
DICTIONARY
  5
19
330
C
100
AcDbDictionary
  0
ENDSEC
  0
EOF
