  0
SECTION
  2
HEADER
  9
$ACADVER
  1
AC1014
  9
$HANDSEED
  5
FFFF
  9
$MEASUREMENT
 70
     1
  0
ENDSEC
  0
SECTION
  2
TABLES
  0
TABLE
  2
VPORT
  5
8
330
0
100
AcDbSymbolTable
 70
     4
  0
VPORT
  5
2E
330
8
100
AcDbSymbolTableRecord
100
AcDbViewportTableRecord
  2
*ACTIVE
 70
     0
 10
0.0
 20
0.0
 11
1.0
 21
1.0
 12
210.0
 22
148.5
 13
0.0
 23
0.0
 14
10.0
 24
10.0
 15
10.0
 25
10.0
 16
0.0
 26
0.0
 36
1.0
 17
0.0
 27
0.0
 37
0.0
 40
341.0
 41
1.24
 42
50.0
 43
0.0
 44
0.0
 50
0.0
 51
0.0
 71
     0
 72
   100
 73
     1
 74
     3
 75
     0
 76
     0
 77
     0
 78
     0
  0
ENDTAB
  0
TABLE
  2
LTYPE
  5
5
330
0
100
AcDbSymbolTable
 70
     1
  0
LTYPE
  5
14
330
5
100
AcDbSymbolTableRecord
100
AcDbLinetypeTableRecord
  2
BYBLOCK
 70
     0
  3

 72
    65
 73
     0
 40
0.0
  0
LTYPE
  5
15
330
5
100
AcDbSymbolTableRecord
100
AcDbLinetypeTableRecord
  2
BYLAYER
 70
     0
  3

 72
    65
 73
     0
 40
0.0
  0
LTYPE
  5
16
330
5
100
AcDbSymbolTableRecord
100
AcDbLinetypeTableRecord
  2
CONTINUOUS
 70
     0
  3
Solid line
 72
    65
 73
     0
 40
0.0
  0
ENDTAB
  0
TABLE
  2
LAYER
  5
2
100
AcDbSymbolTable
 70
5
  0
LAYER
  5
50
100
AcDbSymbolTableRecord
100
AcDbLayerTableRecord
  2
0
 70
0
  6
CONTINUOUS
  0
LAYER
  5
51
100
AcDbSymbolTableRecord
100
AcDbLayerTableRecord
  2
nova-labs_logo
 70
0
  6
CONTINUOUS
  0
LAYER
  5
52
100
AcDbSymbolTableRecord
100
AcDbLayerTableRecord
  2
outside_edge
 70
0
  6
CONTINUOUS
  0
LAYER
  5
53
100
AcDbSymbolTableRecord
100
AcDbLayerTableRecord
  2
inside_edge
 70
0
  6
CONTINUOUS
  0
LAYER
  5
54
100
AcDbSymbolTableRecord
100
AcDbLayerTableRecord
  2
gear_bulb
 70
0
  6
CONTINUOUS
  0
ENDTAB
  0
TABLE
  2
STYLE
  5
3
330
0
100
AcDbSymbolTable
 70
     1
  0
STYLE
  5
11
330
3
100
AcDbSymbolTableRecord
100
AcDbTextStyleTableRecord
  2
STANDARD
 70
     0
 40
0.0
 41
1.0
 50
0.0
 71
     0
 42
2.5
  3
txt
  4

  0
ENDTAB
  0
TABLE
  2
VIEW
  5
6
330
0
100
AcDbSymbolTable
 70
     0
  0
ENDTAB
  0
TABLE
  2
UCS
  5
7
330
0
100
AcDbSymbolTable
 70
     0
  0
ENDTAB
  0
TABLE
  2
APPID
  5
9
330
0
100
AcDbSymbolTable
 70
     2
  0
APPID
  5
12
330
9
100
AcDbSymbolTableRecord
100
AcDbRegAppTableRecord
  2
ACAD
 70
     0
  0
ENDTAB
  0
TABLE
  2
DIMSTYLE
  5
A
330
0
100
AcDbSymbolTable
 70
     1
  0
DIMSTYLE
105
27
330
A
100
AcDbSymbolTableRecord
100
AcDbDimStyleTableRecord
  2
ISO-25
 70
     0
  3

  4

  5

  6

  7

 40
1.0
 41
2.5
 42
0.625
 43
3.75
 44
1.25
 45
0.0
 46
0.0
 47
0.0
 48
0.0
140
2.5
141
2.5
142
0.0
143
0.03937007874016
144
1.0
145
0.0
146
1.0
147
0.625
 71
     0
 72
     0
 73
     0
 74
     0
 75
     0
 76
     0
 77
     1
 78
     8
170
     0
171
     3
172
     1
173
     0
174
     0
175
     0
176
     0
177
     0
178
     0
270
     2
271
     2
272
     2
273
     2
274
     3
340
11
275
     0
280
     0
281
     0
282
     0
283
     0
284
     8
285
     0
286
     0
287
     3
288
     0
  0
ENDTAB
  0
TABLE
  2
BLOCK_RECORD
  5
1
330
0
100
AcDbSymbolTable
 70
     1
  0
BLOCK_RECORD
  5
1F
330
1
100
AcDbSymbolTableRecord
100
AcDbBlockTableRecord
  2
*MODEL_SPACE
  0
BLOCK_RECORD
  5
1B
330
1
100
AcDbSymbolTableRecord
100
AcDbBlockTableRecord
  2
*PAPER_SPACE
  0
ENDTAB
  0
ENDSEC
  0
SECTION
  2
BLOCKS
  0
BLOCK
  5
20
330
1F
100
AcDbEntity
  8
0
100
AcDbBlockBegin
  2
*MODEL_SPACE
 70
     0
 10
0.0
 20
0.0
 30
0.0
  3
*MODEL_SPACE
  1

  0
ENDBLK
  5
21
330
1F
100
AcDbEntity
  8
0
100
AcDbBlockEnd
  0
BLOCK
  5
1C
330
1B
100
AcDbEntity
 67
     1
  8
0
100
AcDbBlockBegin
  2
*PAPER_SPACE
  1

  0
ENDBLK
  5
1D
330
1B
100
AcDbEntity
 67
     1
  8
0
100
AcDbBlockEnd
  0
ENDSEC
  0
SECTION
  2
ENTITIES
  0
LWPOLYLINE
  5
100
100
AcDbEntity
  8
outside_edge
 62
7
100
AcDbPolyline
 90
195
 70
1
 10
-35.315395
 20
-85.616472
 30
0.0
 10
-43.233292
 20
-81.652855
 30
0.0
 10
-51.182111
 20
-77.774698
 30
0.0
 10
-51.593385
 20
-77.283579
 30
0.0
 10
-51.834473
 20
-76.737108
 30
0.0
 10
-51.926773
 20
-76.153358
 30
0.0
 10
-51.891687
 20
-75.550399
 30
0.0
 10
-51.750611
 20
-74.946329
 30
0.0
 10
-51.524948
 20
-74.359165
 30
0.0
 10
-50.905450
 20
-73.307949
 30
0.0
 10
-50.690666
 20
-72.886018
 30
0.0
 10
-50.372902
 20
-72.411991
 30
0.0
 10
-50.259184
 20
-72.058164
 30
0.0
 10
-50.374788
 20
-71.980164
 30
0.0
 10
-50.656538
 20
-71.996833
 30
0.0
 10
-51.571530
 20
-71.882771
 30
0.0
 10
-52.449124
 20
-71.593317
 30
0.0
 10
-53.259479
 20
-71.147653
 30
0.0
 10
-53.972764
 20
-70.565014
 30
0.0
 10
-54.559155
 20
-69.864609
 30
0.0
 10
-54.988815
 20
-69.065620
 30
0.0
 10
-55.231916
 20
-68.187256
 30
0.0
 10
-55.258623
 20
-67.248726
 30
0.0
 10
-55.701943
 20
-66.450055
 30
0.0
 10
-56.208173
 20
-65.674509
 30
0.0
 10
-56.604670
 20
-64.857158
 30
0.0
 10
-56.707818
 20
-64.412499
 30
0.0
 10
-56.718798
 20
-63.933047
 30
0.0
 10
-56.687045
 20
-62.863364
 30
0.0
 10
-56.444885
 20
-61.841543
 30
0.0
 10
-56.021068
 20
-60.880285
 30
0.0
 10
-55.444345
 20
-59.992211
 30
0.0
 10
-54.743458
 20
-59.189994
 30
0.0
 10
-53.947161
 20
-58.486309
 30
0.0
 10
-53.084196
 20
-57.893774
 30
0.0
 10
-52.183316
 20
-57.425065
 30
0.0
 10
-52.394765
 20
-56.332468
 30
0.0
 10
-52.336375
 20
-55.256751
 30
0.0
 10
-52.044145
 20
-54.219003
 30
0.0
 10
-51.554070
 20
-53.240362
 30
0.0
 10
-50.902142
 20
-52.341943
 30
0.0
 10
-50.124363
 20
-51.544912
 30
0.0
 10
-49.256722
 20
-50.870357
 30
0.0
 10
-48.335218
 20
-50.339417
 30
0.0
 10
-48.684971
 20
-49.612845
 30
0.0
 10
-48.824494
 20
-48.855369
 30
0.0
 10
-48.783621
 20
-48.084003
 30
0.0
 10
-48.592179
 20
-47.315732
 30
0.0
 10
-48.280000
 20
-46.567570
 30
0.0
 10
-47.876912
 20
-45.856502
 30
0.0
 10
-46.917322
 20
-44.613596
 30
0.0
 10
-46.329375
 20
-44.055934
 30
0.0
 10
-45.687268
 20
-43.556744
 30
0.0
 10
-44.319336
 20
-42.710686
 30
0.0
 10
-44.440483
 20
-41.754985
 30
0.0
 10
-44.409847
 20
-40.791981
 30
0.0
 10
-52.757591
 20
-42.906054
 30
0.0
 10
-56.921154
 20
-44.001588
 30
0.0
 10
-61.054893
 20
-45.205760
 30
0.0
 10
-61.991856
 20
-43.174130
 30
0.0
 10
-63.075066
 20
-41.220950
 30
0.0
 10
-65.484571
 20
-37.443705
 30
0.0
 10
-67.892118
 20
-33.661301
 30
0.0
 10
-68.972875
 20
-31.701665
 30
0.0
 10
-69.906407
 20
-29.660986
 30
0.0
 10
-70.029856
 20
-28.873136
 30
0.0
 10
-70.000434
 20
-28.102908
 30
0.0
 10
-69.838755
 20
-27.354613
 30
0.0
 10
-69.565427
 20
-26.632645
 30
0.0
 10
-69.201062
 20
-25.941394
 30
0.0
 10
-68.766267
 20
-25.285254
 30
0.0
 10
-67.767819
 20
-24.095687
 30
0.0
 10
-65.974166
 20
-21.829425
 30
0.0
 10
-64.111153
 20
-19.609307
 30
0.0
 10
-62.267700
 20
-17.382785
 30
0.0
 10
-60.532735
 20
-15.097314
 30
0.0
 10
-60.941699
 20
-13.890126
 30
0.0
 10
-61.221133
 20
-13.323733
 30
0.0
 10
-61.588010
 20
-12.892065
 30
0.0
 10
-77.882673
 20
-9.098257
 30
0.0
 10
-79.236530
 20
11.397452
 30
0.0
 10
-71.245870
 20
14.402828
 30
0.0
 10
-67.257451
 20
15.914789
 30
0.0
 10
-63.326267
 20
17.531420
 30
0.0
 10
-63.006751
 20
19.044837
 30
0.0
 10
-62.741770
 20
20.570451
 30
0.0
 10
-75.062247
 20
32.194152
 30
0.0
 10
-65.978900
 20
50.611467
 30
0.0
 10
-57.537564
 20
49.191237
 30
0.0
 10
-53.320439
 20
48.494039
 30
0.0
 10
-49.096044
 20
47.922539
 30
0.0
 10
-48.036390
 20
49.095341
 30
0.0
 10
-47.016800
 20
50.305344
 30
0.0
 10
-51.838339
 20
66.564001
 30
0.0
 10
-34.635697
 20
77.873036
 30
0.0
 10
-28.040224
 20
72.362609
 30
0.0
 10
-24.737806
 20
69.617954
 30
0.0
 10
-21.372089
 20
66.984119
 30
0.0
 10
-20.166081
 20
67.387442
 30
0.0
 10
-19.605506
 20
67.669290
 30
0.0
 10
-19.174539
 20
68.033415
 30
0.0
 10
-15.378150
 20
84.340035
 30
0.0
 10
5.118407
 20
85.693466
 30
0.0
 10
8.134972
 20
77.703541
 30
0.0
 10
9.651971
 20
73.712976
 30
0.0
 10
11.275018
 20
69.769536
 30
0.0
 10
12.776483
 20
69.456457
 30
0.0
 10
14.290561
 20
69.198706
 30
0.0
 10
25.913400
 20
81.519608
 30
0.0
 10
44.330287
 20
72.435835
 30
0.0
 10
43.645421
 20
68.204648
 30
0.0
 10
42.907577
 20
63.979389
 30
0.0
 10
42.209604
 20
59.755025
 30
0.0
 10
41.644348
 20
55.526507
 30
0.0
 10
42.816936
 20
54.468410
 30
0.0
 10
44.025870
 20
53.449399
 30
0.0
 10
48.237640
 20
54.531380
 30
0.0
 10
52.462152
 20
55.539689
 30
0.0
 10
56.673869
 20
56.590188
 30
0.0
 10
60.847245
 20
57.798731
 30
0.0
 10
62.032967
 20
55.624988
 30
0.0
 10
63.351206
 20
53.522762
 30
0.0
 10
66.149328
 20
49.407362
 30
0.0
 10
67.511271
 20
47.331428
 30
0.0
 10
68.769839
 20
45.201500
 30
0.0
 10
69.866052
 20
42.986202
 30
0.0
 10
70.740945
 20
40.654154
 30
0.0
 10
68.344672
 20
37.354641
 30
0.0
 10
65.790485
 20
34.166859
 30
0.0
 10
63.202455
 20
31.014534
 30
0.0
 10
60.704645
 20
27.821330
 30
0.0
 10
61.114027
 20
26.618720
 30
0.0
 10
61.396443
 20
26.059549
 30
0.0
 10
61.761203
 20
25.629760
 30
0.0
 10
78.059280
 20
21.835926
 30
0.0
 10
79.413137
 20
1.339820
 30
0.0
 10
71.427716
 20
-1.663889
 30
0.0
 10
67.440178
 20
-3.175004
 30
0.0
 10
63.503299
 20
-4.792905
 30
0.0
 10
63.185545
 20
-6.309099
 30
0.0
 10
62.922221
 20
-7.837465
 30
0.0
 10
75.239708
 20
-19.456457
 30
0.0
 10
66.155509
 20
-37.872489
 30
0.0
 10
61.927616
 20
-37.189017
 30
0.0
 10
57.705487
 20
-36.451385
 30
0.0
 10
53.484029
 20
-35.754235
 30
0.0
 10
49.258135
 20
-35.192101
 30
0.0
 10
48.204501
 20
-36.353278
 30
0.0
 10
47.190419
 20
-37.551443
 30
0.0
 10
52.015800
 20
-53.825885
 30
0.0
 10
34.812303
 20
-65.134917
 30
0.0
 10
28.214301
 20
-59.622112
 30
0.0
 10
24.909957
 20
-56.877668
 30
0.0
 10
21.541867
 20
-54.247287
 30
0.0
 10
20.340712
 20
-54.651147
 30
0.0
 10
19.781139
 20
-54.930547
 30
0.0
 10
19.352427
 20
-55.294005
 30
0.0
 10
15.555611
 20
-71.602339
 30
0.0
 10
-4.972539
 20
-72.958752
 30
0.0
 10
-6.259499
 20
-69.275276
 30
0.0
 10
-7.680986
 20
-65.643711
 30
0.0
 10
-9.135515
 20
-62.023946
 30
0.0
 10
-10.521601
 20
-58.375871
 30
0.0
 10
-10.756030
 20
-59.051062
 30
0.0
 10
-11.079075
 20
-59.687781
 30
0.0
 10
-11.934830
 20
-60.837396
 30
0.0
 10
-12.976508
 20
-61.807835
 30
0.0
 10
-14.091751
 20
-62.582191
 30
0.0
 10
-13.858081
 20
-63.683651
 30
0.0
 10
-13.886712
 20
-64.779873
 30
0.0
 10
-14.146927
 20
-65.845932
 30
0.0
 10
-14.607995
 20
-66.856852
 30
0.0
 10
-15.239193
 20
-67.787709
 30
0.0
 10
-16.009803
 20
-68.613580
 30
0.0
 10
-16.889092
 20
-69.309513
 30
0.0
 10
-17.846344
 20
-69.850560
 30
0.0
 10
-18.201338
 20
-69.975919
 30
0.0
 10
-18.383062
 20
-70.175230
 30
0.0
 10
-18.412772
 20
-70.451481
 30
0.0
 10
-18.311717
 20
-70.807796
 30
0.0
 10
-18.290021
 20
-72.099624
 30
0.0
 10
-18.560759
 20
-73.327661
 30
0.0
 10
-19.085552
 20
-74.467830
 30
0.0
 10
-19.826020
 20
-75.496106
 30
0.0
 10
-20.743791
 20
-76.388387
 30
0.0
 10
-21.800487
 20
-77.120648
 30
0.0
 10
-22.957727
 20
-77.668759
 30
0.0
 10
-24.177141
 20
-78.008722
 30
0.0
 10
-25.864069
 20
-78.276771
 30
0.0
 10
-27.569774
 20
-78.314078
 30
0.0
 10
-29.274259
 20
-78.166229
 30
0.0
 10
-30.957523
 20
-77.878917
 30
0.0
 10
-34.924309
 20
-85.812078
 30
0.0
 10
-35.119829
 20
-85.714315
 30
0.0
 10
-35.315350
 20
-85.616551
 30
0.0
  0
SPLINE
  5
101
100
AcDbEntity
  8
gear_bulb
 62
7
100
AcDbSpline
 70
8
 71
3
 72
8
 73
4
 74
0
 40
0
 40
0
 40
0
 40
0
 40
1
 40
1
 40
1
 40
1
 10
-38.172636
 20
-45.013461
 30
0.0
 10
-38.172636
 20
-45.013461
 30
0.0
 10
-38.152316
 20
-44.978906
 30
0.0
 10
-38.127167
 20
-44.927974
 30
0.0
  0
LWPOLYLINE
  5
102
100
AcDbEntity
  8
inside_edge
 62
7
100
AcDbPolyline
 90
183
 70
1
 10
3.885025
 20
83.767212
 30
0.0
 10
-13.895287
 20
82.592607
 30
0.0
 10
-17.685234
 20
66.314530
 30
0.0
 10
-21.928905
 20
64.896528
 30
0.0
 10
-34.762228
 20
75.587348
 30
0.0
 10
-49.684832
 20
65.776580
 30
0.0
 10
-44.937836
 20
49.769804
 30
0.0
 10
-46.731851
 20
47.836710
 30
0.0
 10
-48.432196
 20
45.820691
 30
0.0
 10
-64.930414
 20
48.575046
 30
0.0
 10
-72.810037
 20
32.600309
 30
0.0
 10
-60.674343
 20
21.151899
 30
0.0
 10
-61.245171
 20
18.615021
 30
0.0
 10
-61.698569
 20
16.054542
 30
0.0
 10
-77.310020
 20
10.161875
 30
0.0
 10
-76.135415
 20
-7.615321
 30
0.0
 10
-59.872324
 20
-11.401667
 30
0.0
 10
-58.440370
 20
-15.653601
 30
0.0
 10
-62.080420
 20
-20.003033
 30
0.0
 10
-65.668353
 20
-24.395169
 30
0.0
 10
-66.326329
 20
-25.322137
 30
0.0
 10
-67.084493
 20
-26.187113
 30
0.0
 10
-67.780154
 20
-27.085506
 30
0.0
 10
-68.250625
 20
-28.112777
 30
0.0
 10
-68.082599
 20
-29.256385
 30
0.0
 10
-67.656268
 20
-30.350967
 30
0.0
 10
-66.541168
 20
-32.440170
 30
0.0
 10
-63.123461
 20
-37.609122
 30
0.0
 10
-61.516908
 20
-40.256623
 30
0.0
 10
-60.076964
 20
-42.997653
 30
0.0
 10
-55.150464
 20
-41.604172
 30
0.0
 10
-50.184743
 20
-40.356106
 30
0.0
 10
-45.216077
 20
-39.118835
 30
0.0
 10
-40.280757
 20
-37.757686
 30
0.0
 10
-40.638357
 20
-38.026397
 30
0.0
 10
-41.191958
 20
-38.473913
 30
0.0
 10
-41.687858
 20
-39.006175
 30
0.0
 10
-42.103950
 20
-39.605748
 30
0.0
 10
-42.418124
 20
-40.255273
 30
0.0
 10
-42.608272
 20
-40.937316
 30
0.0
 10
-42.652283
 20
-41.634546
 30
0.0
 10
-42.528045
 20
-42.329527
 30
0.0
 10
-42.213453
 20
-43.004903
 30
0.0
 10
-41.596437
 20
-43.696338
 30
0.0
 10
-42.506368
 20
-43.955074
 30
0.0
 10
-43.379514
 20
-44.309695
 30
0.0
 10
-44.200540
 20
-44.758402
 30
0.0
 10
-44.954119
 20
-45.299449
 30
0.0
 10
-45.624917
 20
-45.931036
 30
0.0
 10
-46.197605
 20
-46.651390
 30
0.0
 10
-46.656850
 20
-47.458740
 30
0.0
 10
-46.987322
 20
-48.351338
 30
0.0
 10
-47.055842
 20
-48.777741
 30
0.0
 10
-47.009958
 20
-49.165937
 30
0.0
 10
-46.672537
 20
-49.860336
 30
0.0
 10
-45.697995
 20
-51.148592
 30
0.0
 10
-47.309154
 20
-51.796531
 30
0.0
 10
-48.046113
 20
-52.240951
 30
0.0
 10
-48.721748
 20
-52.763927
 30
0.0
 10
-49.324368
 20
-53.364160
 30
0.0
 10
-49.842288
 20
-54.040277
 30
0.0
 10
-50.263822
 20
-54.790979
 30
0.0
 10
-50.577284
 20
-55.614971
 30
0.0
 10
-50.645843
 20
-56.046824
 30
0.0
 10
-50.601687
 20
-56.442958
 30
0.0
 10
-50.270021
 20
-57.157836
 30
0.0
 10
-49.296743
 20
-58.487155
 30
0.0
 10
-50.328002
 20
-58.738589
 30
0.0
 10
-51.318784
 20
-59.115541
 30
0.0
 10
-52.255338
 20
-59.624678
 30
0.0
 10
-53.123899
 20
-60.272564
 30
0.0
 10
-53.666274
 20
-60.730213
 30
0.0
 10
-54.132417
 20
-61.277636
 30
0.0
 10
-54.505011
 20
-61.893745
 30
0.0
 10
-54.766752
 20
-62.557399
 30
0.0
 10
-54.900330
 20
-63.247512
 30
0.0
 10
-54.888424
 20
-63.942969
 30
0.0
 10
-54.713738
 20
-64.622684
 30
0.0
 10
-54.358958
 20
-65.265542
 30
0.0
 10
-53.935842
 20
-65.667180
 30
0.0
 10
-53.582745
 20
-66.111230
 30
0.0
 10
-53.388440
 20
-66.626188
 30
0.0
 10
-53.441701
 20
-67.240630
 30
0.0
 10
-53.395840
 20
-68.093038
 30
0.0
 10
-53.071167
 20
-68.823765
 30
0.0
 10
-52.528113
 20
-69.414103
 30
0.0
 10
-51.827113
 20
-69.845374
 30
0.0
 10
-51.028600
 20
-70.098871
 30
0.0
 10
-50.193011
 20
-70.155915
 30
0.0
 10
-49.380775
 20
-69.997800
 30
0.0
 10
-48.652329
 20
-69.605846
 30
0.0
 10
-47.153714
 20
-70.062676
 30
0.0
 10
-50.184018
 20
-76.122772
 30
0.0
 10
-36.339386
 20
-83.046891
 30
0.0
 10
-36.043796
 20
-83.194688
 30
0.0
 10
-35.747690
 20
-83.342484
 30
0.0
 10
-31.963942
 20
-75.776009
 30
0.0
 10
-29.670013
 20
-76.247126
 30
0.0
 10
-27.318232
 20
-76.492765
 30
0.0
 10
-26.227958
 20
-76.476626
 30
0.0
 10
-25.115343
 20
-76.336688
 30
0.0
 10
-24.020227
 20
-76.064193
 30
0.0
 10
-22.982439
 20
-75.650385
 30
0.0
 10
-22.041824
 20
-75.086584
 30
0.0
 10
-21.238213
 20
-74.364007
 30
0.0
 10
-20.611446
 20
-73.473975
 30
0.0
 10
-20.201350
 20
-72.407705
 30
0.0
 10
-20.069141
 20
-71.921771
 30
0.0
 10
-20.050461
 20
-71.456184
 30
0.0
 10
-20.273957
 20
-70.571893
 30
0.0
 10
-20.712427
 20
-69.726232
 30
0.0
 10
-21.206465
 20
-68.890625
 30
0.0
 10
-19.441538
 20
-68.485442
 30
0.0
 10
-18.609929
 20
-68.150956
 30
0.0
 10
-17.840505
 20
-67.720928
 30
0.0
 10
-17.154472
 20
-67.189671
 30
0.0
 10
-16.573045
 20
-66.551523
 30
0.0
 10
-16.117440
 20
-65.800741
 30
0.0
 10
-15.808862
 20
-64.931691
 30
0.0
 10
-15.666331
 20
-64.448059
 30
0.0
 10
-15.634158
 20
-63.983662
 30
0.0
 10
-15.828650
 20
-63.100721
 30
0.0
 10
-16.247856
 20
-62.259135
 30
0.0
 10
-16.747302
 20
-61.435249
 30
0.0
 10
-15.859257
 20
-61.233927
 30
0.0
 10
-15.008140
 20
-60.895075
 30
0.0
 10
-14.219293
 20
-60.430308
 30
0.0
 10
-13.518073
 20
-59.851135
 30
0.0
 10
-12.929825
 20
-59.169172
 30
0.0
 10
-12.479906
 20
-58.395980
 30
0.0
 10
-12.193656
 20
-57.543095
 30
0.0
 10
-12.096427
 20
-56.622107
 30
0.0
 10
-12.138038
 20
-55.976312
 30
0.0
 10
-12.344937
 20
-55.395446
 30
0.0
 10
-13.016267
 20
-54.334387
 30
0.0
 10
-11.588287
 20
-53.975321
 30
0.0
 10
-10.271212
 20
-53.337570
 30
0.0
 10
-9.595818
 20
-55.551762
 30
0.0
 10
-8.829659
 20
-57.738384
 30
0.0
 10
-7.130904
 20
-62.060882
 30
0.0
 10
-5.386642
 20
-66.369146
 30
0.0
 10
-3.808558
 20
-70.727204
 30
0.0
 10
-3.771352
 20
-70.824861
 30
0.0
 10
-3.693837
 20
-71.029490
 30
0.0
 10
14.072521
 20
-69.854899
 30
0.0
 10
17.862987
 20
-53.575271
 30
0.0
 10
22.105623
 20
-52.158825
 30
0.0
 10
34.938949
 20
-62.849129
 30
0.0
 10
49.862068
 20
-53.038352
 30
0.0
 10
45.109903
 20
-37.012990
 30
0.0
 10
46.905233
 20
-35.088755
 30
0.0
 10
48.609430
 20
-33.083504
 30
0.0
 10
65.106616
 20
-35.837340
 30
0.0
 10
72.987270
 20
-19.862592
 30
0.0
 10
60.857262
 20
-8.420421
 30
0.0
 10
61.423690
 20
-5.880792
 30
0.0
 10
61.873220
 20
-3.317879
 30
0.0
 10
77.486738
 20
2.575291
 30
0.0
 10
76.312133
 20
20.353016
 30
0.0
 10
60.046976
 20
24.139362
 30
0.0
 10
58.609854
 20
28.381983
 30
0.0
 10
63.771079
 20
34.562263
 30
0.0
 10
66.290195
 20
37.701502
 30
0.0
 10
68.682108
 20
40.939369
 30
0.0
 10
67.874425
 20
42.926822
 30
0.0
 10
66.894186
 20
44.821172
 30
0.0
 10
65.786950
 20
46.646951
 30
0.0
 10
64.598283
 20
48.428681
 30
0.0
 10
62.158899
 20
51.958106
 30
0.0
 10
60.999304
 20
53.754852
 30
0.0
 10
59.940523
 20
55.605658
 30
0.0
 10
55.849065
 20
54.454257
 30
0.0
 10
51.715136
 20
53.464525
 30
0.0
 10
47.576708
 20
52.491287
 30
0.0
 10
43.471761
 20
51.389377
 30
0.0
 10
41.544227
 20
53.175235
 30
0.0
 10
39.537632
 20
54.871852
 30
0.0
 10
42.294572
 20
71.387122
 30
0.0
 10
26.319835
 20
79.267263
 30
0.0
 10
14.874023
 20
67.134154
 30
0.0
 10
12.349739
 20
67.693690
 30
0.0
 10
9.803014
 20
68.140293
 30
0.0
 10
3.885028
 20
83.767246
 30
0.0
  0
SPLINE
  5
103
100
AcDbEntity
  8
gear_bulb
 62
7
100
AcDbSpline
 70
8
 71
3
 72
8
 73
4
 74
0
 40
0
 40
0
 40
0
 40
0
 40
1
 40
1
 40
1
 40
1
 10
-42.425988
 20
-52.242274
 30
0.0
 10
-42.425988
 20
-52.242274
 30
0.0
 10
-42.406964
 20
-52.210577
 30
0.0
 10
-42.382048
 20
-52.160518
 30
0.0
  0
LWPOLYLINE
  5
104
100
AcDbEntity
  8
gear_bulb
 62
7
100
AcDbPolyline
 90
2
 70
0
 10
-38.127167
 20
-44.927974
 30
0.0
 10
-38.172636
 20
-45.013461
 30
0.0
  0
SPLINE
  5
105
100
AcDbEntity
  8
gear_bulb
 62
7
100
AcDbSpline
 70
8
 71
3
 72
8
 73
4
 74
0
 40
0
 40
0
 40
0
 40
0
 40
1
 40
1
 40
1
 40
1
 10
-46.028393
 20
-59.563877
 30
0.0
 10
-46.028393
 20
-59.563877
 30
0.0
 10
-46.007835
 20
-59.529349
 30
0.0
 10
-45.983361
 20
-59.478417
 30
0.0
  0
LWPOLYLINE
  5
106
100
AcDbEntity
  8
gear_bulb
 62
7
100
AcDbPolyline
 90
2
 70
0
 10
-42.382048
 20
-52.160518
 30
0.0
 10
-42.425988
 20
-52.242274
 30
0.0
  0
SPLINE
  5
107
100
AcDbEntity
  8
gear_bulb
 62
7
100
AcDbSpline
 70
8
 71
3
 72
8
 73
4
 74
0
 40
0
 40
0
 40
0
 40
0
 40
1
 40
1
 40
1
 40
1
 10
-50.436513
 20
-67.074525
 30
0.0
 10
-50.436513
 20
-67.074525
 30
0.0
 10
-50.417701
 20
-67.041293
 30
0.0
 10
-50.392573
 20
-66.991022
 30
0.0
  0
LWPOLYLINE
  5
108
100
AcDbEntity
  8
gear_bulb
 62
7
100
AcDbPolyline
 90
2
 70
0
 10
-45.983361
 20
-59.478417
 30
0.0
 10
-46.028393
 20
-59.563877
 30
0.0
  0
LWPOLYLINE
  5
109
100
AcDbEntity
  8
gear_bulb
 62
7
100
AcDbPolyline
 90
2
 70
0
 10
-50.392573
 20
-66.991022
 30
0.0
 10
-50.436513
 20
-67.074525
 30
0.0
  0
LWPOLYLINE
  5
10a
100
AcDbEntity
  8
gear_bulb
 62
7
100
AcDbPolyline
 90
211
 70
1
 10
2.770942
 20
-60.834195
 30
0.0
 10
2.191917
 20
-59.238836
 30
0.0
 10
1.535996
 20
-57.656337
 30
0.0
 10
0.191876
 20
-54.490174
 30
0.0
 10
-0.397121
 20
-52.886614
 30
0.0
 10
-0.864608
 20
-51.256172
 30
0.0
 10
-1.160981
 20
-49.588847
 30
0.0
 10
-1.236636
 20
-47.874744
 30
0.0
 10
-0.611420
 20
-42.523652
 30
0.0
 10
-0.281181
 20
-39.859033
 30
0.0
 10
0.149474
 20
-37.258920
 30
0.0
 10
3.663373
 20
-37.138138
 30
0.0
 10
7.143792
 20
-36.710439
 30
0.0
 10
10.572221
 20
-35.988841
 30
0.0
 10
13.930141
 20
-34.986334
 30
0.0
 10
17.199049
 20
-33.715937
 30
0.0
 10
20.360431
 20
-32.190615
 30
0.0
 10
23.395779
 20
-30.423436
 30
0.0
 10
26.286576
 20
-28.427340
 30
0.0
 10
29.014317
 20
-26.215344
 30
0.0
 10
31.560487
 20
-23.800439
 30
0.0
 10
33.906576
 20
-21.195642
 30
0.0
 10
36.034078
 20
-18.413946
 30
0.0
 10
37.924475
 20
-15.468366
 30
0.0
 10
39.559259
 20
-12.371894
 30
0.0
 10
40.919919
 20
-9.137522
 30
0.0
 10
41.987944
 20
-5.778239
 30
0.0
 10
42.735717
 20
-2.833956
 30
0.0
 10
43.265492
 20
0.154698
 30
0.0
 10
43.580259
 20
3.173356
 30
0.0
 10
43.683002
 20
6.207624
 30
0.0
 10
43.576708
 20
9.243188
 30
0.0
 10
43.264365
 20
12.265630
 30
0.0
 10
42.748965
 20
15.260581
 30
0.0
 10
42.033489
 20
18.213675
 30
0.0
 10
41.120928
 20
21.110571
 30
0.0
 10
40.014268
 20
23.936850
 30
0.0
 10
38.716495
 20
26.678198
 30
0.0
 10
37.230598
 20
29.320169
 30
0.0
 10
35.559566
 20
31.848474
 30
0.0
 10
33.706382
 20
34.248684
 30
0.0
 10
31.674041
 20
36.506456
 30
0.0
 10
29.465521
 20
38.607406
 30
0.0
 10
27.274700
 20
40.480513
 30
0.0
 10
24.961503
 20
42.196995
 30
0.0
 10
22.537941
 20
43.753319
 30
0.0
 10
20.016028
 20
45.145943
 30
0.0
 10
17.407784
 20
46.371329
 30
0.0
 10
14.725216
 20
47.425942
 30
0.0
 10
11.980344
 20
48.306240
 30
0.0
 10
9.185177
 20
49.008685
 30
0.0
 10
6.351733
 20
49.529737
 30
0.0
 10
3.492029
 20
49.865861
 30
0.0
 10
0.618072
 20
50.013514
 30
0.0
 10
-2.258116
 20
49.969159
 30
0.0
 10
-5.124524
 20
49.729262
 30
0.0
 10
-7.969139
 20
49.290281
 30
0.0
 10
-10.779943
 20
48.648674
 30
0.0
 10
-13.544926
 20
47.800907
 30
0.0
 10
-16.142375
 20
46.857170
 30
0.0
 10
-18.670834
 20
45.745269
 30
0.0
 10
-21.122188
 20
44.472692
 30
0.0
 10
-23.488314
 20
43.046929
 30
0.0
 10
-25.761101
 20
41.475479
 30
0.0
 10
-27.932428
 20
39.765823
 30
0.0
 10
-29.994180
 20
37.925458
 30
0.0
 10
-31.938238
 20
35.961880
 30
0.0
 10
-33.756481
 20
33.882572
 30
0.0
 10
-35.440800
 20
31.695042
 30
0.0
 10
-36.983067
 20
29.406740
 30
0.0
 10
-38.375175
 20
27.025199
 30
0.0
 10
-39.608998
 20
24.557907
 30
0.0
 10
-40.676423
 20
22.012350
 30
0.0
 10
-41.569333
 20
19.395992
 30
0.0
 10
-42.279607
 20
16.716371
 30
0.0
 10
-42.792531
 20
14.339116
 30
0.0
 10
-43.167051
 20
11.936382
 30
0.0
 10
-43.404435
 20
9.515736
 30
0.0
 10
-43.505959
 20
7.084823
 30
0.0
 10
-43.472886
 20
4.651212
 30
0.0
 10
-43.306495
 20
2.222496
 30
0.0
 10
-43.008047
 20
-0.193705
 30
0.0
 10
-42.578816
 20
-2.589772
 30
0.0
 10
-42.020077
 20
-4.958163
 30
0.0
 10
-41.333095
 20
-7.291233
 30
0.0
 10
-40.519141
 20
-9.581387
 30
0.0
 10
-39.579486
 20
-11.821032
 30
0.0
 10
-38.515401
 20
-14.002548
 30
0.0
 10
-37.328155
 20
-16.118368
 30
0.0
 10
-36.019018
 20
-18.160872
 30
0.0
 10
-34.589260
 20
-20.122466
 30
0.0
 10
-37.047226
 20
-22.464902
 30
0.0
 10
-39.463472
 20
-24.871366
 30
0.0
 10
-40.703413
 20
-26.034766
 30
0.0
 10
-41.989883
 20
-27.137576
 30
0.0
 10
-43.341867
 20
-28.154211
 30
0.0
 10
-44.778351
 20
-29.059165
 30
0.0
 10
-55.200238
 20
-32.149631
 30
0.0
 10
-55.702732
 20
-31.315399
 30
0.0
 10
-56.374133
 20
-30.472014
 30
0.0
 10
-56.883371
 20
-29.637438
 30
0.0
 10
-56.973721
 20
-29.229080
 30
0.0
 10
-56.899379
 20
-28.829718
 30
0.0
 10
-47.291001
 20
-17.291371
 30
0.0
 10
-48.789249
 20
-13.931454
 30
0.0
 10
-50.072078
 20
-10.481499
 30
0.0
 10
-51.125993
 20
-6.957567
 30
0.0
 10
-51.937491
 20
-3.375796
 30
0.0
 10
-67.005385
 20
0.133716
 30
0.0
 10
-67.026261
 20
1.100478
 30
0.0
 10
-67.191657
 20
2.160240
 30
0.0
 10
-67.220478
 20
3.132134
 30
0.0
 10
-67.095833
 20
3.528585
 30
0.0
 10
-66.831628
 20
3.835237
 30
0.0
 10
-52.760655
 20
9.147912
 30
0.0
 10
-52.426346
 20
12.958362
 30
0.0
 10
-51.803242
 20
16.734072
 30
0.0
 10
-50.922999
 20
20.463612
 30
0.0
 10
-49.817269
 20
24.135526
 30
0.0
 10
-61.040912
 20
34.723021
 30
0.0
 10
-60.574772
 20
35.571040
 30
0.0
 10
-60.186970
 20
36.571924
 30
0.0
 10
-59.725007
 20
37.428095
 30
0.0
 10
-59.418561
 20
37.708918
 30
0.0
 10
-59.036387
 20
37.841972
 30
0.0
 10
-44.182818
 20
35.359601
 30
0.0
 10
-41.960763
 20
38.495164
 30
0.0
 10
-39.516846
 20
41.462273
 30
0.0
 10
-36.869730
 20
44.251101
 30
0.0
 10
-34.038077
 20
46.851796
 30
0.0
 10
-38.432240
 20
61.662243
 30
0.0
 10
-37.595313
 20
62.161842
 30
0.0
 10
-36.748879
 20
62.829563
 30
0.0
 10
-35.911586
 20
63.335632
 30
0.0
 10
-35.502196
 20
63.424989
 30
0.0
 10
-35.102091
 20
63.350268
 30
0.0
 10
-23.573973
 20
53.749164
 30
0.0
 10
-20.208571
 20
55.245552
 30
0.0
 10
-16.760732
 20
56.519608
 30
0.0
 10
-13.239134
 20
57.574658
 30
0.0
 10
-9.652439
 20
58.414014
 30
0.0
 10
-6.146329
 20
73.462696
 30
0.0
 10
-5.176991
 20
73.483942
 30
0.0
 10
-4.115623
 20
73.648611
 30
0.0
 10
-3.141702
 20
73.676990
 30
0.0
 10
-2.743623
 20
73.552663
 30
0.0
 10
-2.434709
 20
73.289365
 30
0.0
 10
2.837537
 20
59.247425
 30
0.0
 10
6.651564
 20
58.877482
 30
0.0
 10
10.429624
 20
58.261246
 30
0.0
 10
14.162278
 20
57.390830
 30
0.0
 10
17.840108
 20
56.258353
 30
0.0
 10
28.442539
 20
67.497792
 30
0.0
 10
29.290558
 20
67.031652
 30
0.0
 10
30.291445
 20
66.643849
 30
0.0
 10
31.147615
 20
66.181889
 30
0.0
 10
31.428436
 20
65.875441
 30
0.0
 10
31.561487
 20
65.493269
 30
0.0
 10
29.079550
 20
50.643969
 30
0.0
 10
32.217791
 20
48.406760
 30
0.0
 10
35.184323
 20
45.945381
 30
0.0
 10
37.982938
 20
43.299675
 30
0.0
 10
40.617428
 20
40.509472
 30
0.0
 10
55.376638
 20
44.887836
 30
0.0
 10
55.879148
 20
44.053518
 30
0.0
 10
56.550510
 20
43.209997
 30
0.0
 10
57.059722
 20
42.375313
 30
0.0
 10
57.150085
 20
41.966919
 30
0.0
 10
57.075784
 20
41.567496
 30
0.0
 10
47.484480
 20
30.049651
 30
0.0
 10
48.957190
 20
26.665154
 30
0.0
 10
50.240041
 20
23.217263
 30
0.0
 10
51.299689
 20
19.702220
 30
0.0
 10
52.102792
 20
16.116137
 30
0.0
 10
67.182214
 20
12.603635
 30
0.0
 10
67.203090
 20
11.636874
 30
0.0
 10
67.368484
 20
10.577112
 30
0.0
 10
67.397307
 20
9.605218
 30
0.0
 10
67.272659
 20
9.208766
 30
0.0
 10
67.008454
 20
8.902114
 30
0.0
 10
52.951999
 20
3.594996
 30
0.0
 10
52.599640
 20
-0.218470
 30
0.0
 10
51.983024
 20
-3.995397
 30
0.0
 10
51.107893
 20
-7.722212
 30
0.0
 10
49.980006
 20
-11.385369
 30
0.0
 10
61.217739
 20
-21.985239
 30
0.0
 10
60.751490
 20
-22.833255
 30
0.0
 10
60.363555
 20
-23.834120
 30
0.0
 10
59.901474
 20
-24.690286
 30
0.0
 10
59.594985
 20
-24.971114
 30
0.0
 10
59.212787
 20
-25.104200
 30
0.0
 10
44.342566
 20
-22.619260
 30
0.0
 10
43.272681
 20
-24.215147
 30
0.0
 10
42.135838
 20
-25.762906
 30
0.0
 10
39.683828
 20
-28.721557
 30
0.0
 10
37.031620
 20
-31.510212
 30
0.0
 10
34.224296
 20
-34.143901
 30
0.0
 10
38.609492
 20
-48.924452
 30
0.0
 10
37.772565
 20
-49.424038
 30
0.0
 10
36.926136
 20
-50.091767
 30
0.0
 10
36.088841
 20
-50.597836
 30
0.0
 10
35.679449
 20
-50.687212
 30
0.0
 10
35.279330
 20
-50.612494
 30
0.0
 10
23.747815
 20
-41.010103
 30
0.0
 10
20.380476
 20
-42.510687
 30
0.0
 10
16.928272
 20
-43.783889
 30
0.0
 10
13.405779
 20
-44.837883
 30
0.0
 10
9.827559
 20
-45.680925
 30
0.0
 10
6.325293
 20
-60.716349
 30
0.0
 10
4.501182
 20
-60.867585
 30
0.0
 10
3.598894
 20
-60.919840
 30
0.0
  0
LWPOLYLINE
  5
10b
100
AcDbEntity
  8
gear_bulb
 62
7
100
AcDbPolyline
 90
180
 70
1
 10
-0.273222
 20
-30.666165
 30
0.0
 10
-0.769210
 20
-30.618990
 30
0.0
 10
-1.275445
 20
-30.646215
 30
0.0
 10
-1.774550
 20
-30.663942
 30
0.0
 10
-2.249144
 20
-30.588430
 30
0.0
 10
-1.971424
 20
-28.212895
 30
0.0
 10
-1.820894
 20
-27.039098
 30
0.0
 10
-1.580113
 20
-25.973541
 30
0.0
 10
0.656275
 20
-26.010212
 30
0.0
 10
2.883278
 20
-25.878715
 30
0.0
 10
5.091724
 20
-25.584366
 30
0.0
 10
7.272449
 20
-25.132457
 30
0.0
 10
9.416285
 20
-24.528308
 30
0.0
 10
11.514063
 20
-23.777288
 30
0.0
 10
13.556618
 20
-22.884690
 30
0.0
 10
15.534780
 20
-21.855831
 30
0.0
 10
17.439386
 20
-20.696030
 30
0.0
 10
19.261264
 20
-19.410631
 30
0.0
 10
20.991248
 20
-18.004953
 30
0.0
 10
22.620171
 20
-16.484286
 30
0.0
 10
24.138866
 20
-14.853977
 30
0.0
 10
25.538168
 20
-13.119369
 30
0.0
 10
26.808901
 20
-11.285753
 30
0.0
 10
27.941908
 20
-9.358449
 30
0.0
 10
28.939987
 20
-7.395558
 30
0.0
 10
29.791160
 20
-5.368850
 30
0.0
 10
30.495621
 20
-3.288510
 30
0.0
 10
31.053561
 20
-1.164541
 30
0.0
 10
31.465179
 20
0.992871
 30
0.0
 10
31.730662
 20
3.173726
 30
0.0
 10
31.850208
 20
5.367836
 30
0.0
 10
31.824015
 20
7.565174
 30
0.0
 10
31.652263
 20
9.755633
 30
0.0
 10
31.335152
 20
11.929106
 30
0.0
 10
30.872877
 20
14.075512
 30
0.0
 10
30.265632
 20
16.184744
 30
0.0
 10
29.513604
 20
18.246721
 30
0.0
 10
28.616995
 20
20.251310
 30
0.0
 10
27.575994
 20
22.188484
 30
0.0
 10
26.390796
 20
24.048108
 30
0.0
 10
25.175353
 20
25.733424
 30
0.0
 10
23.850100
 20
27.330026
 30
0.0
 10
22.422488
 20
28.833891
 30
0.0
 10
20.899975
 20
30.241024
 30
0.0
 10
19.290011
 20
31.547405
 30
0.0
 10
17.600052
 20
32.749018
 30
0.0
 10
15.837551
 20
33.841869
 30
0.0
 10
14.009963
 20
34.821943
 30
0.0
 10
12.124740
 20
35.685234
 30
0.0
 10
10.189337
 20
36.427737
 30
0.0
 10
8.211206
 20
37.045438
 30
0.0
 10
6.197806
 20
37.534335
 30
0.0
 10
4.156586
 20
37.890417
 30
0.0
 10
2.095000
 20
38.109677
 30
0.0
 10
0.020505
 20
38.188105
 30
0.0
 10
-2.059448
 20
38.121695
 30
0.0
 10
-4.176128
 20
37.935901
 30
0.0
 10
-6.270696
 20
37.602735
 30
0.0
 10
-8.335576
 20
37.127097
 30
0.0
 10
-10.363189
 20
36.513885
 30
0.0
 10
-12.345956
 20
35.767998
 30
0.0
 10
-14.276298
 20
34.894333
 30
0.0
 10
-16.146640
 20
33.897791
 30
0.0
 10
-17.949397
 20
32.783265
 30
0.0
 10
-19.676994
 20
31.555660
 30
0.0
 10
-21.321853
 20
30.219858
 30
0.0
 10
-22.876394
 20
28.780789
 30
0.0
 10
-24.333041
 20
27.243322
 30
0.0
 10
-25.684213
 20
25.612351
 30
0.0
 10
-26.922330
 20
23.892797
 30
0.0
 10
-28.039819
 20
22.089556
 30
0.0
 10
-29.029099
 20
20.207495
 30
0.0
 10
-29.915160
 20
18.242250
 30
0.0
 10
-30.659305
 20
16.222103
 30
0.0
 10
-31.261860
 20
14.156527
 30
0.0
 10
-31.723140
 20
12.055101
 30
0.0
 10
-32.043465
 20
9.927242
 30
0.0
 10
-32.223157
 20
7.782530
 30
0.0
 10
-32.262535
 20
5.630462
 30
0.0
 10
-32.161917
 20
3.480510
 30
0.0
 10
-31.921625
 20
1.342201
 30
0.0
 10
-31.541979
 20
-0.774942
 30
0.0
 10
-31.023298
 20
-2.861420
 30
0.0
 10
-30.365898
 20
-4.907734
 30
0.0
 10
-29.570106
 20
-6.904359
 30
0.0
 10
-28.636233
 20
-8.841823
 30
0.0
 10
-27.564607
 20
-10.710575
 30
0.0
 10
-26.355545
 20
-12.501143
 30
0.0
 10
-24.482949
 20
-14.884377
 30
0.0
 10
-26.180494
 20
-16.508416
 30
0.0
 10
-27.027111
 20
-17.298330
 30
0.0
 10
-27.857982
 20
-17.928091
 30
0.0
 10
-29.474091
 20
-15.963930
 30
0.0
 10
-30.937727
 20
-13.892269
 30
0.0
 10
-32.246959
 20
-11.724326
 30
0.0
 10
-33.399854
 20
-9.471399
 30
0.0
 10
-34.394492
 20
-7.144759
 30
0.0
 10
-35.228937
 20
-4.755625
 30
0.0
 10
-35.901265
 20
-2.315320
 30
0.0
 10
-36.409543
 20
0.164937
 30
0.0
 10
-36.751845
 20
2.673849
 30
0.0
 10
-36.926242
 20
5.200196
 30
0.0
 10
-36.930819
 20
7.732682
 30
0.0
 10
-36.763621
 20
10.260035
 30
0.0
 10
-36.422732
 20
12.771010
 30
0.0
 10
-35.906221
 20
15.254336
 30
0.0
 10
-35.212160
 20
17.698769
 30
0.0
 10
-34.338622
 20
20.093010
 30
0.0
 10
-33.417542
 20
22.212825
 30
0.0
 10
-32.361688
 20
24.265674
 30
0.0
 10
-31.177616
 20
26.245763
 30
0.0
 10
-29.871884
 20
28.147271
 30
0.0
 10
-28.451045
 20
29.964376
 30
0.0
 10
-26.921651
 20
31.691285
 30
0.0
 10
-25.290261
 20
33.322182
 30
0.0
 10
-23.563429
 20
34.851236
 30
0.0
 10
-21.747710
 20
36.272641
 30
0.0
 10
-19.849661
 20
37.580587
 30
0.0
 10
-17.875835
 20
38.769262
 30
0.0
 10
-15.832788
 20
39.832850
 30
0.0
 10
-13.727078
 20
40.765541
 30
0.0
 10
-11.565255
 20
41.561519
 30
0.0
 10
-9.353878
 20
42.214973
 30
0.0
 10
-7.099501
 20
42.720089
 30
0.0
 10
-4.880928
 20
43.094223
 30
0.0
 10
-2.644331
 20
43.326065
 30
0.0
 10
-0.397656
 20
43.417600
 30
0.0
 10
1.851149
 20
43.370819
 30
0.0
 10
4.094139
 20
43.187706
 30
0.0
 10
6.323362
 20
42.870256
 30
0.0
 10
8.530873
 20
42.420451
 30
0.0
 10
10.708727
 20
41.840286
 30
0.0
 10
12.848976
 20
41.131745
 30
0.0
 10
14.943675
 20
40.296816
 30
0.0
 10
16.984872
 20
39.337489
 30
0.0
 10
18.964622
 20
38.255754
 30
0.0
 10
20.874982
 20
37.053598
 30
0.0
 10
22.708002
 20
35.733010
 30
0.0
 10
24.455734
 20
34.295976
 30
0.0
 10
26.110232
 20
32.744485
 30
0.0
 10
27.700086
 20
31.083008
 30
0.0
 10
29.176057
 20
29.325407
 30
0.0
 10
30.535549
 20
27.479700
 30
0.0
 10
31.775961
 20
25.553878
 30
0.0
 10
32.894688
 20
23.555930
 30
0.0
 10
33.889135
 20
21.493873
 30
0.0
 10
34.756699
 20
19.375672
 30
0.0
 10
35.494780
 20
17.209343
 30
0.0
 10
36.100782
 20
15.002876
 30
0.0
 10
36.572097
 20
12.764263
 30
0.0
 10
36.906134
 20
10.501520
 30
0.0
 10
37.100282
 20
8.222638
 30
0.0
 10
37.151950
 20
5.935579
 30
0.0
 10
37.058536
 20
3.648362
 30
0.0
 10
36.817438
 20
1.369003
 30
0.0
 10
36.426053
 20
-0.894534
 30
0.0
 10
35.933253
 20
-3.044617
 30
0.0
 10
35.307961
 20
-5.157818
 30
0.0
 10
34.554898
 20
-7.227944
 30
0.0
 10
33.678789
 20
-9.248858
 30
0.0
 10
32.684355
 20
-11.214369
 30
0.0
 10
31.576317
 20
-13.118310
 30
0.0
 10
30.359403
 20
-14.954545
 30
0.0
 10
29.038333
 20
-16.716882
 30
0.0
 10
27.617833
 20
-18.399155
 30
0.0
 10
26.102620
 20
-19.995201
 30
0.0
 10
24.497424
 20
-21.498829
 30
0.0
 10
22.806962
 20
-22.903925
 30
0.0
 10
21.035960
 20
-24.204272
 30
0.0
 10
19.189142
 20
-25.393733
 30
0.0
 10
17.271230
 20
-26.466142
 30
0.0
 10
15.286945
 20
-27.415309
 30
0.0
 10
13.436910
 20
-28.187178
 30
0.0
 10
11.547827
 20
-28.857791
 30
0.0
 10
9.625653
 20
-29.425613
 30
0.0
 10
7.676340
 20
-29.888978
 30
0.0
 10
5.705840
 20
-30.246324
 30
0.0
 10
3.720110
 20
-30.496011
 30
0.0
 10
1.725102
 20
-30.636479
 30
0.0
 10
-0.273230
 20
-30.666138
 30
0.0
  0
LWPOLYLINE
  5
10c
100
AcDbEntity
  8
gear_bulb
 62
7
100
AcDbPolyline
 90
12
 70
1
 10
-38.248101
 20
-75.958254
 30
0.0
 10
-42.741316
 20
-73.689002
 30
0.0
 10
-42.496055
 20
-73.167694
 30
0.0
 10
-42.310389
 20
-72.578334
 30
0.0
 10
-42.080495
 20
-72.037288
 30
0.0
 10
-41.702548
 20
-71.660997
 30
0.0
 10
-40.594185
 20
-72.267528
 30
0.0
 10
-39.408846
 20
-72.827228
 30
0.0
 10
-38.274593
 20
-73.397299
 30
0.0
 10
-37.319487
 20
-74.034839
 30
0.0
 10
-37.709456
 20
-75.055628
 30
0.0
 10
-37.923190
 20
-75.555373
 30
0.0
  0
LWPOLYLINE
  5
10d
100
AcDbEntity
  8
gear_bulb
 62
7
100
AcDbPolyline
 90
36
 70
1
 10
-15.205228
 20
-50.497744
 30
0.0
 10
-17.610542
 20
-50.138599
 30
0.0
 10
-19.958984
 20
-49.554346
 30
0.0
 10
-22.263992
 20
-48.797029
 30
0.0
 10
-24.539001
 20
-47.918718
 30
0.0
 10
-29.052779
 20
-46.007183
 30
0.0
 10
-31.318420
 20
-45.078045
 30
0.0
 10
-33.607817
 20
-44.236035
 30
0.0
 10
-35.476852
 20
-43.591087
 30
0.0
 10
-37.363897
 20
-43.149947
 30
0.0
 10
-37.572355
 20
-42.647345
 30
0.0
 10
-37.858472
 20
-42.166041
 30
0.0
 10
-38.403519
 20
-41.282068
 30
0.0
 10
-37.549103
 20
-40.895882
 30
0.0
 10
-36.717285
 20
-40.456595
 30
0.0
 10
-35.852592
 20
-40.154890
 30
0.0
 10
-35.390582
 20
-40.115203
 30
0.0
 10
-34.899544
 20
-40.181375
 30
0.0
 10
-32.129233
 20
-40.864688
 30
0.0
 10
-29.418772
 20
-41.733739
 30
0.0
 10
-26.749817
 20
-42.731535
 30
0.0
 10
-24.104026
 20
-43.801113
 30
0.0
 10
-18.808547
 20
-45.927570
 30
0.0
 10
-16.122168
 20
-46.870492
 30
0.0
 10
-13.385570
 20
-47.657257
 30
0.0
 10
-13.110268
 20
-47.717608
 30
0.0
 10
-12.898895
 20
-47.871966
 30
0.0
 10
-12.595413
 20
-48.362530
 30
0.0
 10
-12.330081
 20
-48.928580
 30
0.0
 10
-11.957852
 20
-49.369746
 30
0.0
 10
-11.963276
 20
-49.655416
 30
0.0
 10
-12.087828
 20
-49.865707
 30
0.0
 10
-12.581533
 20
-50.119840
 30
0.0
 10
-13.757865
 20
-50.379899
 30
0.0
 10
-14.478310
 20
-50.479990
 30
0.0
 10
-15.205223
 20
-50.497717
 30
0.0
  0
LWPOLYLINE
  5
10e
100
AcDbEntity
  8
gear_bulb
 62
7
100
AcDbPolyline
 90
36
 70
1
 10
-19.468108
 20
-57.731135
 30
0.0
 10
-21.902341
 20
-57.363549
 30
0.0
 10
-24.277174
 20
-56.768634
 30
0.0
 10
-26.606667
 20
-55.999463
 30
0.0
 10
-28.904877
 20
-55.108955
 30
0.0
 10
-33.463672
 20
-53.176042
 30
0.0
 10
-35.752368
 20
-52.239628
 30
0.0
 10
-38.066009
 20
-51.393914
 30
0.0
 10
-39.836228
 20
-50.797332
 30
0.0
 10
-41.618665
 20
-50.388471
 30
0.0
 10
-41.827286
 20
-49.882773
 30
0.0
 10
-42.117402
 20
-49.398268
 30
0.0
 10
-42.652310
 20
-48.510750
 30
0.0
 10
-41.794419
 20
-48.124881
 30
0.0
 10
-40.960249
 20
-47.685408
 30
0.0
 10
-40.092699
 20
-47.385688
 30
0.0
 10
-39.628567
 20
-47.348647
 30
0.0
 10
-39.134674
 20
-47.419026
 30
0.0
 10
-36.368903
 20
-48.105514
 30
0.0
 10
-33.661609
 20
-48.976310
 30
0.0
 10
-30.994869
 20
-49.974689
 30
0.0
 10
-28.350755
 20
-51.043844
 30
0.0
 10
-23.058702
 20
-53.167496
 30
0.0
 10
-20.374912
 20
-54.108486
 30
0.0
 10
-17.642046
 20
-54.893214
 30
0.0
 10
-17.365625
 20
-54.951449
 30
0.0
 10
-17.153308
 20
-55.104378
 30
0.0
 10
-16.848667
 20
-55.593592
 30
0.0
 10
-16.583464
 20
-56.159774
 30
0.0
 10
-16.213048
 20
-56.601867
 30
0.0
 10
-16.221832
 20
-56.888040
 30
0.0
 10
-16.349049
 20
-57.098093
 30
0.0
 10
-16.845836
 20
-57.350929
 30
0.0
 10
-18.018188
 20
-57.614162
 30
0.0
 10
-18.739932
 20
-57.713963
 30
0.0
 10
-19.468108
 20
-57.731161
 30
0.0
  0
LWPOLYLINE
  5
10f
100
AcDbEntity
  8
gear_bulb
 62
7
100
AcDbPolyline
 90
31
 70
1
 10
-23.070286
 20
-65.045620
 30
0.0
 10
-25.511424
 20
-64.679755
 30
0.0
 10
-27.889949
 20
-64.085395
 30
0.0
 10
-30.220563
 20
-63.315907
 30
0.0
 10
-32.517964
 20
-62.424711
 30
0.0
 10
-37.071932
 20
-60.490607
 30
0.0
 10
-39.357903
 20
-59.554458
 30
0.0
 10
-41.669465
 20
-58.710093
 30
0.0
 10
-43.439223
 20
-58.112532
 30
0.0
 10
-45.222123
 20
-57.702110
 30
0.0
 10
-45.431173
 20
-57.198846
 30
0.0
 10
-45.718034
 20
-56.716881
 30
0.0
 10
-46.259184
 20
-55.832061
 30
0.0
 10
-45.416621
 20
-55.453892
 30
0.0
 10
-44.600191
 20
-55.017171
 30
0.0
 10
-43.751569
 20
-54.712742
 30
0.0
 10
-43.296956
 20
-54.669747
 30
0.0
 10
-42.812420
 20
-54.731395
 30
0.0
 10
-39.991474
 20
-55.416983
 30
0.0
 10
-37.229262
 20
-56.302094
 30
0.0
 10
-34.507551
 20
-57.323862
 30
0.0
 10
-31.808113
 20
-58.419448
 30
0.0
 10
-26.403139
 20
-60.580618
 30
0.0
 10
-23.661145
 20
-61.520524
 30
0.0
 10
-20.868508
 20
-62.282841
 30
0.0
 10
-20.278497
 20
-63.250370
 30
0.0
 10
-19.986001
 20
-63.735113
 30
0.0
 10
-19.763134
 20
-64.232291
 30
0.0
 10
-20.486828
 20
-64.656736
 30
0.0
 10
-21.326949
 20
-64.896157
 30
0.0
 10
-22.211951
 20
-65.006965
 30
0.0
  0
LWPOLYLINE
  5
110
100
AcDbEntity
  8
gear_bulb
 62
7
100
AcDbPolyline
 90
36
 70
1
 10
-27.471915
 20
-72.560792
 30
0.0
 10
-29.942600
 20
-72.181909
 30
0.0
 10
-32.350554
 20
-71.574690
 30
0.0
 10
-34.710447
 20
-70.792794
 30
0.0
 10
-37.036949
 20
-69.889850
 30
0.0
 10
-41.648475
 20
-67.935373
 30
0.0
 10
-43.962844
 20
-66.991102
 30
0.0
 10
-46.302512
 20
-66.140334
 30
0.0
 10
-47.960732
 20
-65.593758
 30
0.0
 10
-49.627168
 20
-65.219399
 30
0.0
 10
-49.835599
 20
-64.715367
 30
0.0
 10
-50.123005
 20
-64.232635
 30
0.0
 10
-50.665936
 20
-63.346387
 30
0.0
 10
-49.821468
 20
-62.967318
 30
0.0
 10
-49.001553
 20
-62.530888
 30
0.0
 10
-48.149899
 20
-62.226802
 30
0.0
 10
-47.694575
 20
-62.183702
 30
0.0
 10
-47.210207
 20
-62.244847
 30
0.0
 10
-44.438811
 20
-62.919164
 30
0.0
 10
-41.724879
 20
-63.784193
 30
0.0
 10
-39.050606
 20
-64.781751
 30
0.0
 10
-36.398187
 20
-65.853684
 30
0.0
 10
-31.087698
 20
-67.987946
 30
0.0
 10
-28.394017
 20
-68.933937
 30
0.0
 10
-25.650973
 20
-69.721602
 30
0.0
 10
-25.375317
 20
-69.782641
 30
0.0
 10
-25.163510
 20
-69.936946
 30
0.0
 10
-24.859192
 20
-70.426108
 30
0.0
 10
-24.593516
 20
-70.990729
 30
0.0
 10
-24.221974
 20
-71.432371
 30
0.0
 10
-24.229542
 20
-71.722407
 30
0.0
 10
-24.356502
 20
-71.934339
 30
0.0
 10
-24.853453
 20
-72.186460
 30
0.0
 10
-26.013450
 20
-72.441254
 30
0.0
 10
-26.739390
 20
-72.542748
 30
0.0
 10
-27.471910
 20
-72.560740
 30
0.0
  0
LWPOLYLINE
  5
111
100
AcDbEntity
  8
gear_bulb
 62
7
100
AcDbPolyline
 90
4
 70
1
 10
-25.363313
 20
-38.818162
 30
0.0
 10
-5.064006
 20
1.755268
 30
0.0
 10
-0.477718
 20
-0.541289
 30
0.0
 10
-20.777449
 20
-41.113000
 30
0.0
  0
ENDSEC
  0
SECTION
  2
OBJECTS
  0
DICTIONARY
  5
C
330
0
100
AcDbDictionary
  3
ACAD_GROUP
350
D
  3
ACAD_MLINESTYLE
350
17
  0
DICTIONARY
  5
D
330
C
100
AcDbDictionary
  0
DICTIONARY
  5
1A
330
C
100
AcDbDictionary
  0
DICTIONARY
  5
17
330
C
100
AcDbDictionary
  3
STANDARD
350
18
  0
DICTIONARY
  5
19
330
C
100
AcDbDictionary
  0
ENDSEC
  0
EOF
