  0
SECTION
  2
HEADER
  9
$ACADVER
  1
AC1014
  9
$HANDSEED
  5
FFFF
  9
$MEASUREMENT
 70
     1
  0
ENDSEC
  0
SECTION
  2
TABLES
  0
TABLE
  2
VPORT
  5
8
330
0
100
AcDbSymbolTable
 70
     4
  0
VPORT
  5
2E
330
8
100
AcDbSymbolTableRecord
100
AcDbViewportTableRecord
  2
*ACTIVE
 70
     0
 10
0.0
 20
0.0
 11
1.0
 21
1.0
 12
210.0
 22
148.5
 13
0.0
 23
0.0
 14
10.0
 24
10.0
 15
10.0
 25
10.0
 16
0.0
 26
0.0
 36
1.0
 17
0.0
 27
0.0
 37
0.0
 40
341.0
 41
1.24
 42
50.0
 43
0.0
 44
0.0
 50
0.0
 51
0.0
 71
     0
 72
   100
 73
     1
 74
     3
 75
     0
 76
     0
 77
     0
 78
     0
  0
ENDTAB
  0
TABLE
  2
LTYPE
  5
5
330
0
100
AcDbSymbolTable
 70
     1
  0
LTYPE
  5
14
330
5
100
AcDbSymbolTableRecord
100
AcDbLinetypeTableRecord
  2
BYBLOCK
 70
     0
  3

 72
    65
 73
     0
 40
0.0
  0
LTYPE
  5
15
330
5
100
AcDbSymbolTableRecord
100
AcDbLinetypeTableRecord
  2
BYLAYER
 70
     0
  3

 72
    65
 73
     0
 40
0.0
  0
LTYPE
  5
16
330
5
100
AcDbSymbolTableRecord
100
AcDbLinetypeTableRecord
  2
CONTINUOUS
 70
     0
  3
Solid line
 72
    65
 73
     0
 40
0.0
  0
ENDTAB
  0
TABLE
  2
LAYER
  5
2
100
AcDbSymbolTable
 70
2
  0
LAYER
  5
50
100
AcDbSymbolTableRecord
100
AcDbLayerTableRecord
  2
0
 70
0
  6
CONTINUOUS
  0
LAYER
  5
51
100
AcDbSymbolTableRecord
100
AcDbLayerTableRecord
  2
Layer_1
 70
0
  6
CONTINUOUS
  0
ENDTAB
  0
TABLE
  2
STYLE
  5
3
330
0
100
AcDbSymbolTable
 70
     1
  0
STYLE
  5
11
330
3
100
AcDbSymbolTableRecord
100
AcDbTextStyleTableRecord
  2
STANDARD
 70
     0
 40
0.0
 41
1.0
 50
0.0
 71
     0
 42
2.5
  3
txt
  4

  0
ENDTAB
  0
TABLE
  2
VIEW
  5
6
330
0
100
AcDbSymbolTable
 70
     0
  0
ENDTAB
  0
TABLE
  2
UCS
  5
7
330
0
100
AcDbSymbolTable
 70
     0
  0
ENDTAB
  0
TABLE
  2
APPID
  5
9
330
0
100
AcDbSymbolTable
 70
     2
  0
APPID
  5
12
330
9
100
AcDbSymbolTableRecord
100
AcDbRegAppTableRecord
  2
ACAD
 70
     0
  0
ENDTAB
  0
TABLE
  2
DIMSTYLE
  5
A
330
0
100
AcDbSymbolTable
 70
     1
  0
DIMSTYLE
105
27
330
A
100
AcDbSymbolTableRecord
100
AcDbDimStyleTableRecord
  2
ISO-25
 70
     0
  3

  4

  5

  6

  7

 40
1.0
 41
2.5
 42
0.625
 43
3.75
 44
1.25
 45
0.0
 46
0.0
 47
0.0
 48
0.0
140
2.5
141
2.5
142
0.0
143
0.03937007874016
144
1.0
145
0.0
146
1.0
147
0.625
 71
     0
 72
     0
 73
     0
 74
     0
 75
     0
 76
     0
 77
     1
 78
     8
170
     0
171
     3
172
     1
173
     0
174
     0
175
     0
176
     0
177
     0
178
     0
270
     2
271
     2
272
     2
273
     2
274
     3
340
11
275
     0
280
     0
281
     0
282
     0
283
     0
284
     8
285
     0
286
     0
287
     3
288
     0
  0
ENDTAB
  0
TABLE
  2
BLOCK_RECORD
  5
1
330
0
100
AcDbSymbolTable
 70
     1
  0
BLOCK_RECORD
  5
1F
330
1
100
AcDbSymbolTableRecord
100
AcDbBlockTableRecord
  2
*MODEL_SPACE
  0
BLOCK_RECORD
  5
1B
330
1
100
AcDbSymbolTableRecord
100
AcDbBlockTableRecord
  2
*PAPER_SPACE
  0
ENDTAB
  0
ENDSEC
  0
SECTION
  2
BLOCKS
  0
BLOCK
  5
20
330
1F
100
AcDbEntity
  8
0
100
AcDbBlockBegin
  2
*MODEL_SPACE
 70
     0
 10
0.0
 20
0.0
 30
0.0
  3
*MODEL_SPACE
  1

  0
ENDBLK
  5
21
330
1F
100
AcDbEntity
  8
0
100
AcDbBlockEnd
  0
BLOCK
  5
1C
330
1B
100
AcDbEntity
 67
     1
  8
0
100
AcDbBlockBegin
  2
*PAPER_SPACE
  1

  0
ENDBLK
  5
1D
330
1B
100
AcDbEntity
 67
     1
  8
0
100
AcDbBlockEnd
  0
ENDSEC
  0
SECTION
  2
ENTITIES
  0
SPLINE
  5
100
100
AcDbEntity
  8
Layer_1
 62
7
100
AcDbSpline
 70
8
 71
3
 72
8
 73
4
 74
0
 40
0
 40
0
 40
0
 40
0
 40
1
 40
1
 40
1
 40
1
 10
588.213770
 20
-272.434350
 30
0.0
 10
588.215559
 20
-271.539997
 30
0.0
 10
587.739454
 20
-270.712814
 30
0.0
 10
586.965218
 20
-270.265120
 30
0.0
  0
SPLINE
  5
101
100
AcDbEntity
  8
Layer_1
 62
7
100
AcDbSpline
 70
8
 71
3
 72
8
 73
4
 74
0
 40
0
 40
0
 40
0
 40
0
 40
1
 40
1
 40
1
 40
1
 10
586.965218
 20
-270.265120
 30
0.0
 10
586.190982
 20
-269.817427
 30
0.0
 10
585.236568
 20
-269.817427
 30
0.0
 10
584.462332
 20
-270.265120
 30
0.0
  0
SPLINE
  5
102
100
AcDbEntity
  8
Layer_1
 62
7
100
AcDbSpline
 70
8
 71
3
 72
8
 73
4
 74
0
 40
0
 40
0
 40
0
 40
0
 40
1
 40
1
 40
1
 40
1
 10
584.462332
 20
-270.265120
 30
0.0
 10
583.688096
 20
-270.712814
 30
0.0
 10
583.211991
 20
-271.539997
 30
0.0
 10
583.213780
 20
-272.434350
 30
0.0
  0
SPLINE
  5
103
100
AcDbEntity
  8
Layer_1
 62
7
100
AcDbSpline
 70
8
 71
3
 72
8
 73
4
 74
0
 40
0
 40
0
 40
0
 40
0
 40
1
 40
1
 40
1
 40
1
 10
583.213780
 20
-272.434350
 30
0.0
 10
583.211991
 20
-273.328703
 30
0.0
 10
583.688096
 20
-274.155886
 30
0.0
 10
584.462332
 20
-274.603580
 30
0.0
  0
SPLINE
  5
104
100
AcDbEntity
  8
Layer_1
 62
7
100
AcDbSpline
 70
8
 71
3
 72
8
 73
4
 74
0
 40
0
 40
0
 40
0
 40
0
 40
1
 40
1
 40
1
 40
1
 10
584.462332
 20
-274.603580
 30
0.0
 10
585.236568
 20
-275.051273
 30
0.0
 10
586.190982
 20
-275.051273
 30
0.0
 10
586.965218
 20
-274.603580
 30
0.0
  0
SPLINE
  5
105
100
AcDbEntity
  8
Layer_1
 62
7
100
AcDbSpline
 70
8
 71
3
 72
8
 73
4
 74
0
 40
0
 40
0
 40
0
 40
0
 40
1
 40
1
 40
1
 40
1
 10
586.965218
 20
-274.603580
 30
0.0
 10
587.739454
 20
-274.155886
 30
0.0
 10
588.215559
 20
-273.328703
 30
0.0
 10
588.213770
 20
-272.434350
 30
0.0
  0
SPLINE
  5
106
100
AcDbEntity
  8
Layer_1
 62
7
100
AcDbSpline
 70
8
 71
3
 72
8
 73
4
 74
0
 40
0
 40
0
 40
0
 40
0
 40
1
 40
1
 40
1
 40
1
 10
487.961310
 20
-92.431160
 30
0.0
 10
487.961748
 20
-91.537704
 30
0.0
 10
487.485346
 20
-90.711930
 30
0.0
 10
486.711664
 20
-90.265076
 30
0.0
  0
SPLINE
  5
107
100
AcDbEntity
  8
Layer_1
 62
7
100
AcDbSpline
 70
8
 71
3
 72
8
 73
4
 74
0
 40
0
 40
0
 40
0
 40
0
 40
1
 40
1
 40
1
 40
1
 10
486.711664
 20
-90.265076
 30
0.0
 10
485.937981
 20
-89.818221
 30
0.0
 10
484.984639
 20
-89.818221
 30
0.0
 10
484.210956
 20
-90.265076
 30
0.0
  0
SPLINE
  5
108
100
AcDbEntity
  8
Layer_1
 62
7
100
AcDbSpline
 70
8
 71
3
 72
8
 73
4
 74
0
 40
0
 40
0
 40
0
 40
0
 40
1
 40
1
 40
1
 40
1
 10
484.210956
 20
-90.265076
 30
0.0
 10
483.437274
 20
-90.711930
 30
0.0
 10
482.960872
 20
-91.537704
 30
0.0
 10
482.961310
 20
-92.431160
 30
0.0
  0
SPLINE
  5
109
100
AcDbEntity
  8
Layer_1
 62
7
100
AcDbSpline
 70
8
 71
3
 72
8
 73
4
 74
0
 40
0
 40
0
 40
0
 40
0
 40
1
 40
1
 40
1
 40
1
 10
482.961310
 20
-92.431160
 30
0.0
 10
482.960872
 20
-93.324616
 30
0.0
 10
483.437274
 20
-94.150390
 30
0.0
 10
484.210956
 20
-94.597244
 30
0.0
  0
SPLINE
  5
10a
100
AcDbEntity
  8
Layer_1
 62
7
100
AcDbSpline
 70
8
 71
3
 72
8
 73
4
 74
0
 40
0
 40
0
 40
0
 40
0
 40
1
 40
1
 40
1
 40
1
 10
484.210956
 20
-94.597244
 30
0.0
 10
484.984639
 20
-95.044099
 30
0.0
 10
485.937981
 20
-95.044099
 30
0.0
 10
486.711664
 20
-94.597244
 30
0.0
  0
SPLINE
  5
10b
100
AcDbEntity
  8
Layer_1
 62
7
100
AcDbSpline
 70
8
 71
3
 72
8
 73
4
 74
0
 40
0
 40
0
 40
0
 40
0
 40
1
 40
1
 40
1
 40
1
 10
486.711664
 20
-94.597244
 30
0.0
 10
487.485346
 20
-94.150390
 30
0.0
 10
487.961748
 20
-93.324616
 30
0.0
 10
487.961310
 20
-92.431160
 30
0.0
  0
LWPOLYLINE
  5
10c
100
AcDbEntity
  8
Layer_1
 62
7
100
AcDbPolyline
 90
1
 70
1
 10
588.213770
 20
-272.434350
 30
0.0
  0
SPLINE
  5
10d
100
AcDbEntity
  8
Layer_1
 62
7
100
AcDbSpline
 70
8
 71
3
 72
8
 73
4
 74
0
 40
0
 40
0
 40
0
 40
0
 40
1
 40
1
 40
1
 40
1
 10
679.712450
 20
-262.434350
 30
0.0
 10
676.399035
 20
-262.433522
 30
0.0
 10
673.713536
 20
-259.747016
 30
0.0
 10
673.713950
 20
-256.433600
 30
0.0
  0
SPLINE
  5
10e
100
AcDbEntity
  8
Layer_1
 62
7
100
AcDbSpline
 70
8
 71
3
 72
8
 73
4
 74
0
 40
0
 40
0
 40
0
 40
0
 40
1
 40
1
 40
1
 40
1
 10
673.713950
 20
-256.433600
 30
0.0
 10
673.714364
 20
-253.120185
 30
0.0
 10
676.400535
 20
-250.434351
 30
0.0
 10
679.713950
 20
-250.434351
 30
0.0
  0
SPLINE
  5
10f
100
AcDbEntity
  8
Layer_1
 62
7
100
AcDbSpline
 70
8
 71
3
 72
8
 73
4
 74
0
 40
0
 40
0
 40
0
 40
0
 40
1
 40
1
 40
1
 40
1
 10
679.713950
 20
-250.434351
 30
0.0
 10
683.027366
 20
-250.434351
 30
0.0
 10
685.713536
 20
-253.120185
 30
0.0
 10
685.713950
 20
-256.433600
 30
0.0
  0
SPLINE
  5
110
100
AcDbEntity
  8
Layer_1
 62
7
100
AcDbSpline
 70
8
 71
3
 72
8
 73
4
 74
0
 40
0
 40
0
 40
0
 40
0
 40
1
 40
1
 40
1
 40
1
 10
685.713950
 20
-256.433600
 30
0.0
 10
685.714364
 20
-259.747016
 30
0.0
 10
683.028865
 20
-262.433522
 30
0.0
 10
679.715450
 20
-262.434350
 30
0.0
  0
LWPOLYLINE
  5
111
100
AcDbEntity
  8
Layer_1
 62
7
100
AcDbPolyline
 90
1
 70
1
 10
487.961310
 20
-92.431160
 30
0.0
  0
SPLINE
  5
112
100
AcDbEntity
  8
Layer_1
 62
7
100
AcDbSpline
 70
8
 71
3
 72
8
 73
4
 74
0
 40
0
 40
0
 40
0
 40
0
 40
1
 40
1
 40
1
 40
1
 10
487.961310
 20
-272.431160
 30
0.0
 10
487.961748
 20
-271.537704
 30
0.0
 10
487.485346
 20
-270.711930
 30
0.0
 10
486.711664
 20
-270.265076
 30
0.0
  0
SPLINE
  5
113
100
AcDbEntity
  8
Layer_1
 62
7
100
AcDbSpline
 70
8
 71
3
 72
8
 73
4
 74
0
 40
0
 40
0
 40
0
 40
0
 40
1
 40
1
 40
1
 40
1
 10
486.711664
 20
-270.265076
 30
0.0
 10
485.937981
 20
-269.818221
 30
0.0
 10
484.984639
 20
-269.818221
 30
0.0
 10
484.210956
 20
-270.265076
 30
0.0
  0
SPLINE
  5
114
100
AcDbEntity
  8
Layer_1
 62
7
100
AcDbSpline
 70
8
 71
3
 72
8
 73
4
 74
0
 40
0
 40
0
 40
0
 40
0
 40
1
 40
1
 40
1
 40
1
 10
484.210956
 20
-270.265076
 30
0.0
 10
483.437274
 20
-270.711930
 30
0.0
 10
482.960872
 20
-271.537704
 30
0.0
 10
482.961310
 20
-272.431160
 30
0.0
  0
SPLINE
  5
115
100
AcDbEntity
  8
Layer_1
 62
7
100
AcDbSpline
 70
8
 71
3
 72
8
 73
4
 74
0
 40
0
 40
0
 40
0
 40
0
 40
1
 40
1
 40
1
 40
1
 10
482.961310
 20
-272.431160
 30
0.0
 10
482.960872
 20
-273.324616
 30
0.0
 10
483.437274
 20
-274.150390
 30
0.0
 10
484.210956
 20
-274.597244
 30
0.0
  0
SPLINE
  5
116
100
AcDbEntity
  8
Layer_1
 62
7
100
AcDbSpline
 70
8
 71
3
 72
8
 73
4
 74
0
 40
0
 40
0
 40
0
 40
0
 40
1
 40
1
 40
1
 40
1
 10
484.210956
 20
-274.597244
 30
0.0
 10
484.984639
 20
-275.044099
 30
0.0
 10
485.937981
 20
-275.044099
 30
0.0
 10
486.711664
 20
-274.597244
 30
0.0
  0
SPLINE
  5
117
100
AcDbEntity
  8
Layer_1
 62
7
100
AcDbSpline
 70
8
 71
3
 72
8
 73
4
 74
0
 40
0
 40
0
 40
0
 40
0
 40
1
 40
1
 40
1
 40
1
 10
486.711664
 20
-274.597244
 30
0.0
 10
487.485346
 20
-274.150390
 30
0.0
 10
487.961748
 20
-273.324616
 30
0.0
 10
487.961310
 20
-272.431160
 30
0.0
  0
LWPOLYLINE
  5
118
100
AcDbEntity
  8
Layer_1
 62
7
100
AcDbPolyline
 90
2
 70
0
 10
679.715450
 20
-262.434350
 30
0.0
 10
679.712450
 20
-262.434350
 30
0.0
  0
SPLINE
  5
119
100
AcDbEntity
  8
Layer_1
 62
7
100
AcDbSpline
 70
8
 71
3
 72
8
 73
4
 74
0
 40
0
 40
0
 40
0
 40
0
 40
1
 40
1
 40
1
 40
1
 10
593.061310
 20
-247.431160
 30
0.0
 10
593.061310
 20
-246.895260
 30
0.0
 10
592.775411
 20
-246.400068
 30
0.0
 10
592.311308
 20
-246.132118
 30
0.0
  0
SPLINE
  5
11a
100
AcDbEntity
  8
Layer_1
 62
7
100
AcDbSpline
 70
8
 71
3
 72
8
 73
4
 74
0
 40
0
 40
0
 40
0
 40
0
 40
1
 40
1
 40
1
 40
1
 10
592.311308
 20
-246.132118
 30
0.0
 10
591.847204
 20
-245.864167
 30
0.0
 10
591.275406
 20
-245.864167
 30
0.0
 10
590.811303
 20
-246.132118
 30
0.0
  0
SPLINE
  5
11b
100
AcDbEntity
  8
Layer_1
 62
7
100
AcDbSpline
 70
8
 71
3
 72
8
 73
4
 74
0
 40
0
 40
0
 40
0
 40
0
 40
1
 40
1
 40
1
 40
1
 10
590.811303
 20
-246.132118
 30
0.0
 10
590.347199
 20
-246.400068
 30
0.0
 10
590.061300
 20
-246.895260
 30
0.0
 10
590.061300
 20
-247.431160
 30
0.0
  0
SPLINE
  5
11c
100
AcDbEntity
  8
Layer_1
 62
7
100
AcDbSpline
 70
8
 71
3
 72
8
 73
4
 74
0
 40
0
 40
0
 40
0
 40
0
 40
1
 40
1
 40
1
 40
1
 10
590.061300
 20
-247.431160
 30
0.0
 10
590.061300
 20
-247.967060
 30
0.0
 10
590.347199
 20
-248.462252
 30
0.0
 10
590.811303
 20
-248.730202
 30
0.0
  0
SPLINE
  5
11d
100
AcDbEntity
  8
Layer_1
 62
7
100
AcDbSpline
 70
8
 71
3
 72
8
 73
4
 74
0
 40
0
 40
0
 40
0
 40
0
 40
1
 40
1
 40
1
 40
1
 10
590.811303
 20
-248.730202
 30
0.0
 10
591.275406
 20
-248.998153
 30
0.0
 10
591.847204
 20
-248.998153
 30
0.0
 10
592.311308
 20
-248.730202
 30
0.0
  0
SPLINE
  5
11e
100
AcDbEntity
  8
Layer_1
 62
7
100
AcDbSpline
 70
8
 71
3
 72
8
 73
4
 74
0
 40
0
 40
0
 40
0
 40
0
 40
1
 40
1
 40
1
 40
1
 10
592.311308
 20
-248.730202
 30
0.0
 10
592.775411
 20
-248.462252
 30
0.0
 10
593.061310
 20
-247.967060
 30
0.0
 10
593.061310
 20
-247.431160
 30
0.0
  0
LWPOLYLINE
  5
11f
100
AcDbEntity
  8
Layer_1
 62
7
100
AcDbPolyline
 90
1
 70
1
 10
487.961310
 20
-272.431160
 30
0.0
  0
SPLINE
  5
120
100
AcDbEntity
  8
Layer_1
 62
7
100
AcDbSpline
 70
8
 71
3
 72
8
 73
4
 74
0
 40
0
 40
0
 40
0
 40
0
 40
1
 40
1
 40
1
 40
1
 10
487.961310
 20
-252.431160
 30
0.0
 10
487.961748
 20
-251.537704
 30
0.0
 10
487.485346
 20
-250.711930
 30
0.0
 10
486.711664
 20
-250.265076
 30
0.0
  0
SPLINE
  5
121
100
AcDbEntity
  8
Layer_1
 62
7
100
AcDbSpline
 70
8
 71
3
 72
8
 73
4
 74
0
 40
0
 40
0
 40
0
 40
0
 40
1
 40
1
 40
1
 40
1
 10
486.711664
 20
-250.265076
 30
0.0
 10
485.937981
 20
-249.818221
 30
0.0
 10
484.984639
 20
-249.818221
 30
0.0
 10
484.210956
 20
-250.265076
 30
0.0
  0
SPLINE
  5
122
100
AcDbEntity
  8
Layer_1
 62
7
100
AcDbSpline
 70
8
 71
3
 72
8
 73
4
 74
0
 40
0
 40
0
 40
0
 40
0
 40
1
 40
1
 40
1
 40
1
 10
484.210956
 20
-250.265076
 30
0.0
 10
483.437274
 20
-250.711930
 30
0.0
 10
482.960872
 20
-251.537704
 30
0.0
 10
482.961310
 20
-252.431160
 30
0.0
  0
SPLINE
  5
123
100
AcDbEntity
  8
Layer_1
 62
7
100
AcDbSpline
 70
8
 71
3
 72
8
 73
4
 74
0
 40
0
 40
0
 40
0
 40
0
 40
1
 40
1
 40
1
 40
1
 10
482.961310
 20
-252.431160
 30
0.0
 10
482.960872
 20
-253.324616
 30
0.0
 10
483.437274
 20
-254.150390
 30
0.0
 10
484.210956
 20
-254.597244
 30
0.0
  0
SPLINE
  5
124
100
AcDbEntity
  8
Layer_1
 62
7
100
AcDbSpline
 70
8
 71
3
 72
8
 73
4
 74
0
 40
0
 40
0
 40
0
 40
0
 40
1
 40
1
 40
1
 40
1
 10
484.210956
 20
-254.597244
 30
0.0
 10
484.984639
 20
-255.044099
 30
0.0
 10
485.937981
 20
-255.044099
 30
0.0
 10
486.711664
 20
-254.597244
 30
0.0
  0
SPLINE
  5
125
100
AcDbEntity
  8
Layer_1
 62
7
100
AcDbSpline
 70
8
 71
3
 72
8
 73
4
 74
0
 40
0
 40
0
 40
0
 40
0
 40
1
 40
1
 40
1
 40
1
 10
486.711664
 20
-254.597244
 30
0.0
 10
487.485346
 20
-254.150390
 30
0.0
 10
487.961748
 20
-253.324616
 30
0.0
 10
487.961310
 20
-252.431160
 30
0.0
  0
LWPOLYLINE
  5
126
100
AcDbEntity
  8
Layer_1
 62
7
100
AcDbPolyline
 90
1
 70
1
 10
593.061310
 20
-247.431160
 30
0.0
  0
SPLINE
  5
127
100
AcDbEntity
  8
Layer_1
 62
7
100
AcDbSpline
 70
8
 71
3
 72
8
 73
4
 74
0
 40
0
 40
0
 40
0
 40
0
 40
1
 40
1
 40
1
 40
1
 10
487.961310
 20
-172.431160
 30
0.0
 10
487.961748
 20
-171.537704
 30
0.0
 10
487.485346
 20
-170.711930
 30
0.0
 10
486.711664
 20
-170.265076
 30
0.0
  0
SPLINE
  5
128
100
AcDbEntity
  8
Layer_1
 62
7
100
AcDbSpline
 70
8
 71
3
 72
8
 73
4
 74
0
 40
0
 40
0
 40
0
 40
0
 40
1
 40
1
 40
1
 40
1
 10
486.711664
 20
-170.265076
 30
0.0
 10
485.937981
 20
-169.818221
 30
0.0
 10
484.984639
 20
-169.818221
 30
0.0
 10
484.210956
 20
-170.265076
 30
0.0
  0
SPLINE
  5
129
100
AcDbEntity
  8
Layer_1
 62
7
100
AcDbSpline
 70
8
 71
3
 72
8
 73
4
 74
0
 40
0
 40
0
 40
0
 40
0
 40
1
 40
1
 40
1
 40
1
 10
484.210956
 20
-170.265076
 30
0.0
 10
483.437274
 20
-170.711930
 30
0.0
 10
482.960872
 20
-171.537704
 30
0.0
 10
482.961310
 20
-172.431160
 30
0.0
  0
SPLINE
  5
12a
100
AcDbEntity
  8
Layer_1
 62
7
100
AcDbSpline
 70
8
 71
3
 72
8
 73
4
 74
0
 40
0
 40
0
 40
0
 40
0
 40
1
 40
1
 40
1
 40
1
 10
482.961310
 20
-172.431160
 30
0.0
 10
482.960872
 20
-173.324616
 30
0.0
 10
483.437274
 20
-174.150390
 30
0.0
 10
484.210956
 20
-174.597244
 30
0.0
  0
SPLINE
  5
12b
100
AcDbEntity
  8
Layer_1
 62
7
100
AcDbSpline
 70
8
 71
3
 72
8
 73
4
 74
0
 40
0
 40
0
 40
0
 40
0
 40
1
 40
1
 40
1
 40
1
 10
484.210956
 20
-174.597244
 30
0.0
 10
484.984639
 20
-175.044099
 30
0.0
 10
485.937981
 20
-175.044099
 30
0.0
 10
486.711664
 20
-174.597244
 30
0.0
  0
SPLINE
  5
12c
100
AcDbEntity
  8
Layer_1
 62
7
100
AcDbSpline
 70
8
 71
3
 72
8
 73
4
 74
0
 40
0
 40
0
 40
0
 40
0
 40
1
 40
1
 40
1
 40
1
 10
486.711664
 20
-174.597244
 30
0.0
 10
487.485346
 20
-174.150390
 30
0.0
 10
487.961748
 20
-173.324616
 30
0.0
 10
487.961310
 20
-172.431160
 30
0.0
  0
LWPOLYLINE
  5
12d
100
AcDbEntity
  8
Layer_1
 62
7
100
AcDbPolyline
 90
1
 70
1
 10
487.961310
 20
-252.431160
 30
0.0
  0
SPLINE
  5
12e
100
AcDbEntity
  8
Layer_1
 62
7
100
AcDbSpline
 70
8
 71
3
 72
8
 73
4
 74
0
 40
0
 40
0
 40
0
 40
0
 40
1
 40
1
 40
1
 40
1
 10
688.213780
 20
-272.434350
 30
0.0
 10
688.215569
 20
-271.539997
 30
0.0
 10
687.739464
 20
-270.712814
 30
0.0
 10
686.965228
 20
-270.265120
 30
0.0
  0
SPLINE
  5
12f
100
AcDbEntity
  8
Layer_1
 62
7
100
AcDbSpline
 70
8
 71
3
 72
8
 73
4
 74
0
 40
0
 40
0
 40
0
 40
0
 40
1
 40
1
 40
1
 40
1
 10
686.965228
 20
-270.265120
 30
0.0
 10
686.190992
 20
-269.817427
 30
0.0
 10
685.236578
 20
-269.817427
 30
0.0
 10
684.462342
 20
-270.265120
 30
0.0
  0
SPLINE
  5
130
100
AcDbEntity
  8
Layer_1
 62
7
100
AcDbSpline
 70
8
 71
3
 72
8
 73
4
 74
0
 40
0
 40
0
 40
0
 40
0
 40
1
 40
1
 40
1
 40
1
 10
684.462342
 20
-270.265120
 30
0.0
 10
683.688106
 20
-270.712814
 30
0.0
 10
683.212001
 20
-271.539997
 30
0.0
 10
683.213790
 20
-272.434350
 30
0.0
  0
SPLINE
  5
131
100
AcDbEntity
  8
Layer_1
 62
7
100
AcDbSpline
 70
8
 71
3
 72
8
 73
4
 74
0
 40
0
 40
0
 40
0
 40
0
 40
1
 40
1
 40
1
 40
1
 10
683.213790
 20
-272.434350
 30
0.0
 10
683.212001
 20
-273.328703
 30
0.0
 10
683.688106
 20
-274.155886
 30
0.0
 10
684.462342
 20
-274.603580
 30
0.0
  0
SPLINE
  5
132
100
AcDbEntity
  8
Layer_1
 62
7
100
AcDbSpline
 70
8
 71
3
 72
8
 73
4
 74
0
 40
0
 40
0
 40
0
 40
0
 40
1
 40
1
 40
1
 40
1
 10
684.462342
 20
-274.603580
 30
0.0
 10
685.236578
 20
-275.051273
 30
0.0
 10
686.190992
 20
-275.051273
 30
0.0
 10
686.965228
 20
-274.603580
 30
0.0
  0
SPLINE
  5
133
100
AcDbEntity
  8
Layer_1
 62
7
100
AcDbSpline
 70
8
 71
3
 72
8
 73
4
 74
0
 40
0
 40
0
 40
0
 40
0
 40
1
 40
1
 40
1
 40
1
 10
686.965228
 20
-274.603580
 30
0.0
 10
687.739464
 20
-274.155886
 30
0.0
 10
688.215569
 20
-273.328703
 30
0.0
 10
688.213780
 20
-272.434350
 30
0.0
  0
LWPOLYLINE
  5
134
100
AcDbEntity
  8
Layer_1
 62
7
100
AcDbPolyline
 90
1
 70
1
 10
487.961310
 20
-172.431160
 30
0.0
  0
SPLINE
  5
135
100
AcDbEntity
  8
Layer_1
 62
7
100
AcDbSpline
 70
8
 71
3
 72
8
 73
4
 74
0
 40
0
 40
0
 40
0
 40
0
 40
1
 40
1
 40
1
 40
1
 10
516.961310
 20
-247.431160
 30
0.0
 10
516.961897
 20
-246.894870
 30
0.0
 10
516.676128
 20
-246.399067
 30
0.0
 10
516.211785
 20
-246.130752
 30
0.0
  0
SPLINE
  5
136
100
AcDbEntity
  8
Layer_1
 62
7
100
AcDbSpline
 70
8
 71
3
 72
8
 73
4
 74
0
 40
0
 40
0
 40
0
 40
0
 40
1
 40
1
 40
1
 40
1
 10
516.211785
 20
-246.130752
 30
0.0
 10
515.747442
 20
-245.862437
 30
0.0
 10
515.175178
 20
-245.862437
 30
0.0
 10
514.710835
 20
-246.130752
 30
0.0
  0
SPLINE
  5
137
100
AcDbEntity
  8
Layer_1
 62
7
100
AcDbSpline
 70
8
 71
3
 72
8
 73
4
 74
0
 40
0
 40
0
 40
0
 40
0
 40
1
 40
1
 40
1
 40
1
 10
514.710835
 20
-246.130752
 30
0.0
 10
514.246492
 20
-246.399067
 30
0.0
 10
513.960723
 20
-246.894870
 30
0.0
 10
513.961310
 20
-247.431160
 30
0.0
  0
SPLINE
  5
138
100
AcDbEntity
  8
Layer_1
 62
7
100
AcDbSpline
 70
8
 71
3
 72
8
 73
4
 74
0
 40
0
 40
0
 40
0
 40
0
 40
1
 40
1
 40
1
 40
1
 10
513.961310
 20
-247.431160
 30
0.0
 10
513.960723
 20
-247.967450
 30
0.0
 10
514.246492
 20
-248.463253
 30
0.0
 10
514.710835
 20
-248.731568
 30
0.0
  0
SPLINE
  5
139
100
AcDbEntity
  8
Layer_1
 62
7
100
AcDbSpline
 70
8
 71
3
 72
8
 73
4
 74
0
 40
0
 40
0
 40
0
 40
0
 40
1
 40
1
 40
1
 40
1
 10
514.710835
 20
-248.731568
 30
0.0
 10
515.175178
 20
-248.999883
 30
0.0
 10
515.747442
 20
-248.999883
 30
0.0
 10
516.211785
 20
-248.731568
 30
0.0
  0
SPLINE
  5
13a
100
AcDbEntity
  8
Layer_1
 62
7
100
AcDbSpline
 70
8
 71
3
 72
8
 73
4
 74
0
 40
0
 40
0
 40
0
 40
0
 40
1
 40
1
 40
1
 40
1
 10
516.211785
 20
-248.731568
 30
0.0
 10
516.676128
 20
-248.463253
 30
0.0
 10
516.961897
 20
-247.967450
 30
0.0
 10
516.961310
 20
-247.431160
 30
0.0
  0
LWPOLYLINE
  5
13b
100
AcDbEntity
  8
Layer_1
 62
7
100
AcDbPolyline
 90
1
 70
1
 10
688.213780
 20
-272.434350
 30
0.0
  0
SPLINE
  5
13c
100
AcDbEntity
  8
Layer_1
 62
7
100
AcDbSpline
 70
8
 71
3
 72
8
 73
4
 74
0
 40
0
 40
0
 40
0
 40
0
 40
1
 40
1
 40
1
 40
1
 10
653.714040
 20
-238.284370
 30
0.0
 10
653.177750
 20
-238.284957
 30
0.0
 10
652.681947
 20
-237.999188
 30
0.0
 10
652.413632
 20
-237.534845
 30
0.0
  0
SPLINE
  5
13d
100
AcDbEntity
  8
Layer_1
 62
7
100
AcDbSpline
 70
8
 71
3
 72
8
 73
4
 74
0
 40
0
 40
0
 40
0
 40
0
 40
1
 40
1
 40
1
 40
1
 10
652.413632
 20
-237.534845
 30
0.0
 10
652.145317
 20
-237.070502
 30
0.0
 10
652.145317
 20
-236.498238
 30
0.0
 10
652.413632
 20
-236.033895
 30
0.0
  0
SPLINE
  5
13e
100
AcDbEntity
  8
Layer_1
 62
7
100
AcDbSpline
 70
8
 71
3
 72
8
 73
4
 74
0
 40
0
 40
0
 40
0
 40
0
 40
1
 40
1
 40
1
 40
1
 10
652.413632
 20
-236.033895
 30
0.0
 10
652.681947
 20
-235.569552
 30
0.0
 10
653.177750
 20
-235.283783
 30
0.0
 10
653.714040
 20
-235.284370
 30
0.0
  0
SPLINE
  5
13f
100
AcDbEntity
  8
Layer_1
 62
7
100
AcDbSpline
 70
8
 71
3
 72
8
 73
4
 74
0
 40
0
 40
0
 40
0
 40
0
 40
1
 40
1
 40
1
 40
1
 10
653.714040
 20
-235.284370
 30
0.0
 10
653.714040
 20
-235.284370
 30
0.0
 10
658.714060
 20
-235.284350
 30
0.0
 10
658.714060
 20
-235.284350
 30
0.0
  0
SPLINE
  5
140
100
AcDbEntity
  8
Layer_1
 62
7
100
AcDbSpline
 70
8
 71
3
 72
8
 73
4
 74
0
 40
0
 40
0
 40
0
 40
0
 40
1
 40
1
 40
1
 40
1
 10
658.714060
 20
-235.284350
 30
0.0
 10
659.249958
 20
-235.284350
 30
0.0
 10
659.745149
 20
-235.570248
 30
0.0
 10
660.013098
 20
-236.034350
 30
0.0
  0
SPLINE
  5
141
100
AcDbEntity
  8
Layer_1
 62
7
100
AcDbSpline
 70
8
 71
3
 72
8
 73
4
 74
0
 40
0
 40
0
 40
0
 40
0
 40
1
 40
1
 40
1
 40
1
 10
660.013098
 20
-236.034350
 30
0.0
 10
660.281047
 20
-236.498452
 30
0.0
 10
660.281047
 20
-237.070248
 30
0.0
 10
660.013098
 20
-237.534350
 30
0.0
  0
SPLINE
  5
142
100
AcDbEntity
  8
Layer_1
 62
7
100
AcDbSpline
 70
8
 71
3
 72
8
 73
4
 74
0
 40
0
 40
0
 40
0
 40
0
 40
1
 40
1
 40
1
 40
1
 10
660.013098
 20
-237.534350
 30
0.0
 10
659.745149
 20
-237.998452
 30
0.0
 10
659.249958
 20
-238.284350
 30
0.0
 10
658.714060
 20
-238.284350
 30
0.0
  0
LWPOLYLINE
  5
143
100
AcDbEntity
  8
Layer_1
 62
7
100
AcDbPolyline
 90
1
 70
1
 10
516.961310
 20
-247.431160
 30
0.0
  0
SPLINE
  5
144
100
AcDbEntity
  8
Layer_1
 62
7
100
AcDbSpline
 70
8
 71
3
 72
8
 73
4
 74
0
 40
0
 40
0
 40
0
 40
0
 40
1
 40
1
 40
1
 40
1
 10
653.713810
 20
-207.284110
 30
0.0
 10
653.177912
 20
-207.284115
 30
0.0
 10
652.682718
 20
-206.998222
 30
0.0
 10
652.414764
 20
-206.534123
 30
0.0
  0
SPLINE
  5
145
100
AcDbEntity
  8
Layer_1
 62
7
100
AcDbSpline
 70
8
 71
3
 72
8
 73
4
 74
0
 40
0
 40
0
 40
0
 40
0
 40
1
 40
1
 40
1
 40
1
 10
652.414764
 20
-206.534123
 30
0.0
 10
652.146811
 20
-206.070024
 30
0.0
 10
652.146805
 20
-205.498227
 30
0.0
 10
652.414749
 20
-205.034123
 30
0.0
  0
SPLINE
  5
146
100
AcDbEntity
  8
Layer_1
 62
7
100
AcDbSpline
 70
8
 71
3
 72
8
 73
4
 74
0
 40
0
 40
0
 40
0
 40
0
 40
1
 40
1
 40
1
 40
1
 10
652.414749
 20
-205.034123
 30
0.0
 10
652.682694
 20
-204.570019
 30
0.0
 10
653.177882
 20
-204.284115
 30
0.0
 10
653.713780
 20
-204.284110
 30
0.0
  0
LWPOLYLINE
  5
147
100
AcDbEntity
  8
Layer_1
 62
7
100
AcDbPolyline
 90
2
 70
0
 10
658.714060
 20
-238.284350
 30
0.0
 10
653.714040
 20
-238.284370
 30
0.0
  0
SPLINE
  5
148
100
AcDbEntity
  8
Layer_1
 62
7
100
AcDbSpline
 70
8
 71
3
 72
8
 73
4
 74
0
 40
0
 40
0
 40
0
 40
0
 40
1
 40
1
 40
1
 40
1
 10
658.713770
 20
-204.284090
 30
0.0
 10
659.249668
 20
-204.284090
 30
0.0
 10
659.744859
 20
-204.569988
 30
0.0
 10
660.012808
 20
-205.034090
 30
0.0
  0
SPLINE
  5
149
100
AcDbEntity
  8
Layer_1
 62
7
100
AcDbSpline
 70
8
 71
3
 72
8
 73
4
 74
0
 40
0
 40
0
 40
0
 40
0
 40
1
 40
1
 40
1
 40
1
 10
660.012808
 20
-205.034090
 30
0.0
 10
660.280757
 20
-205.498192
 30
0.0
 10
660.280757
 20
-206.069988
 30
0.0
 10
660.012808
 20
-206.534090
 30
0.0
  0
SPLINE
  5
14a
100
AcDbEntity
  8
Layer_1
 62
7
100
AcDbSpline
 70
8
 71
3
 72
8
 73
4
 74
0
 40
0
 40
0
 40
0
 40
0
 40
1
 40
1
 40
1
 40
1
 10
660.012808
 20
-206.534090
 30
0.0
 10
659.744859
 20
-206.998192
 30
0.0
 10
659.249668
 20
-207.284090
 30
0.0
 10
658.713770
 20
-207.284090
 30
0.0
  0
LWPOLYLINE
  5
14b
100
AcDbEntity
  8
Layer_1
 62
7
100
AcDbPolyline
 90
2
 70
0
 10
653.713780
 20
-204.284110
 30
0.0
 10
658.713770
 20
-204.284090
 30
0.0
  0
SPLINE
  5
14c
100
AcDbEntity
  8
Layer_1
 62
7
100
AcDbSpline
 70
8
 71
3
 72
8
 73
4
 74
0
 40
0
 40
0
 40
0
 40
0
 40
1
 40
1
 40
1
 40
1
 10
639.463930
 20
-207.842230
 30
0.0
 10
640.295423
 20
-207.764909
 30
0.0
 10
641.132297
 20
-207.764905
 30
0.0
 10
641.963790
 20
-207.842220
 30
0.0
  0
SPLINE
  5
14d
100
AcDbEntity
  8
Layer_1
 62
7
100
AcDbSpline
 70
8
 71
3
 72
8
 73
4
 74
0
 40
0
 40
0
 40
0
 40
0
 40
1
 40
1
 40
1
 40
1
 10
641.963790
 20
-207.842220
 30
0.0
 10
647.064278
 20
-207.367869
 30
0.0
 10
651.993848
 20
-209.821113
 30
0.0
 10
654.691007
 20
-214.176031
 30
0.0
  0
SPLINE
  5
14e
100
AcDbEntity
  8
Layer_1
 62
7
100
AcDbSpline
 70
8
 71
3
 72
8
 73
4
 74
0
 40
0
 40
0
 40
0
 40
0
 40
1
 40
1
 40
1
 40
1
 10
654.691007
 20
-214.176031
 30
0.0
 10
657.388166
 20
-218.530950
 30
0.0
 10
657.388215
 20
-224.037225
 30
0.0
 10
654.691134
 20
-228.392192
 30
0.0
  0
SPLINE
  5
14f
100
AcDbEntity
  8
Layer_1
 62
7
100
AcDbSpline
 70
8
 71
3
 72
8
 73
4
 74
0
 40
0
 40
0
 40
0
 40
0
 40
1
 40
1
 40
1
 40
1
 10
654.691134
 20
-228.392192
 30
0.0
 10
651.994052
 20
-232.747158
 30
0.0
 10
647.064526
 20
-235.200490
 30
0.0
 10
641.964030
 20
-234.726230
 30
0.0
  0
SPLINE
  5
150
100
AcDbEntity
  8
Layer_1
 62
7
100
AcDbSpline
 70
8
 71
3
 72
8
 73
4
 74
0
 40
0
 40
0
 40
0
 40
0
 40
1
 40
1
 40
1
 40
1
 10
641.964030
 20
-234.726230
 30
0.0
 10
641.132458
 20
-234.803566
 30
0.0
 10
640.295503
 20
-234.803569
 30
0.0
 10
639.463930
 20
-234.726240
 30
0.0
  0
SPLINE
  5
151
100
AcDbEntity
  8
Layer_1
 62
7
100
AcDbSpline
 70
8
 71
3
 72
8
 73
4
 74
0
 40
0
 40
0
 40
0
 40
0
 40
1
 40
1
 40
1
 40
1
 10
639.463930
 20
-234.726240
 30
0.0
 10
634.363438
 20
-235.200546
 30
0.0
 10
629.433890
 20
-232.747258
 30
0.0
 10
626.736770
 20
-228.392315
 30
0.0
  0
SPLINE
  5
152
100
AcDbEntity
  8
Layer_1
 62
7
100
AcDbSpline
 70
8
 71
3
 72
8
 73
4
 74
0
 40
0
 40
0
 40
0
 40
0
 40
1
 40
1
 40
1
 40
1
 10
626.736770
 20
-228.392315
 30
0.0
 10
624.039649
 20
-224.037373
 30
0.0
 10
624.039649
 20
-218.531097
 30
0.0
 10
626.736770
 20
-214.176155
 30
0.0
  0
SPLINE
  5
153
100
AcDbEntity
  8
Layer_1
 62
7
100
AcDbSpline
 70
8
 71
3
 72
8
 73
4
 74
0
 40
0
 40
0
 40
0
 40
0
 40
1
 40
1
 40
1
 40
1
 10
626.736770
 20
-214.176155
 30
0.0
 10
629.433890
 20
-209.821212
 30
0.0
 10
634.363438
 20
-207.367924
 30
0.0
 10
639.463930
 20
-207.842230
 30
0.0
  0
LWPOLYLINE
  5
154
100
AcDbEntity
  8
Layer_1
 62
7
100
AcDbPolyline
 90
2
 70
0
 10
658.713770
 20
-207.284090
 30
0.0
 10
653.713810
 20
-207.284110
 30
0.0
  0
SPLINE
  5
155
100
AcDbEntity
  8
Layer_1
 62
7
100
AcDbSpline
 70
8
 71
3
 72
8
 73
4
 74
0
 40
0
 40
0
 40
0
 40
0
 40
1
 40
1
 40
1
 40
1
 10
593.061310
 20
-145.581160
 30
0.0
 10
593.061310
 20
-145.045260
 30
0.0
 10
592.775411
 20
-144.550068
 30
0.0
 10
592.311308
 20
-144.282118
 30
0.0
  0
SPLINE
  5
156
100
AcDbEntity
  8
Layer_1
 62
7
100
AcDbSpline
 70
8
 71
3
 72
8
 73
4
 74
0
 40
0
 40
0
 40
0
 40
0
 40
1
 40
1
 40
1
 40
1
 10
592.311308
 20
-144.282118
 30
0.0
 10
591.847204
 20
-144.014167
 30
0.0
 10
591.275406
 20
-144.014167
 30
0.0
 10
590.811303
 20
-144.282118
 30
0.0
  0
SPLINE
  5
157
100
AcDbEntity
  8
Layer_1
 62
7
100
AcDbSpline
 70
8
 71
3
 72
8
 73
4
 74
0
 40
0
 40
0
 40
0
 40
0
 40
1
 40
1
 40
1
 40
1
 10
590.811303
 20
-144.282118
 30
0.0
 10
590.347199
 20
-144.550068
 30
0.0
 10
590.061300
 20
-145.045260
 30
0.0
 10
590.061300
 20
-145.581160
 30
0.0
  0
SPLINE
  5
158
100
AcDbEntity
  8
Layer_1
 62
7
100
AcDbSpline
 70
8
 71
3
 72
8
 73
4
 74
0
 40
0
 40
0
 40
0
 40
0
 40
1
 40
1
 40
1
 40
1
 10
590.061300
 20
-145.581160
 30
0.0
 10
590.061300
 20
-146.117060
 30
0.0
 10
590.347199
 20
-146.612252
 30
0.0
 10
590.811303
 20
-146.880202
 30
0.0
  0
SPLINE
  5
159
100
AcDbEntity
  8
Layer_1
 62
7
100
AcDbSpline
 70
8
 71
3
 72
8
 73
4
 74
0
 40
0
 40
0
 40
0
 40
0
 40
1
 40
1
 40
1
 40
1
 10
590.811303
 20
-146.880202
 30
0.0
 10
591.275406
 20
-147.148153
 30
0.0
 10
591.847204
 20
-147.148153
 30
0.0
 10
592.311308
 20
-146.880202
 30
0.0
  0
SPLINE
  5
15a
100
AcDbEntity
  8
Layer_1
 62
7
100
AcDbSpline
 70
8
 71
3
 72
8
 73
4
 74
0
 40
0
 40
0
 40
0
 40
0
 40
1
 40
1
 40
1
 40
1
 10
592.311308
 20
-146.880202
 30
0.0
 10
592.775411
 20
-146.612252
 30
0.0
 10
593.061310
 20
-146.117060
 30
0.0
 10
593.061310
 20
-145.581160
 30
0.0
  0
LWPOLYLINE
  5
15b
100
AcDbEntity
  8
Layer_1
 62
7
100
AcDbPolyline
 90
1
 70
1
 10
639.463930
 20
-207.842230
 30
0.0
  0
SPLINE
  5
15c
100
AcDbEntity
  8
Layer_1
 62
7
100
AcDbSpline
 70
8
 71
3
 72
8
 73
4
 74
0
 40
0
 40
0
 40
0
 40
0
 40
1
 40
1
 40
1
 40
1
 10
516.961310
 20
-145.581160
 30
0.0
 10
516.961897
 20
-145.044870
 30
0.0
 10
516.676128
 20
-144.549067
 30
0.0
 10
516.211785
 20
-144.280752
 30
0.0
  0
SPLINE
  5
15d
100
AcDbEntity
  8
Layer_1
 62
7
100
AcDbSpline
 70
8
 71
3
 72
8
 73
4
 74
0
 40
0
 40
0
 40
0
 40
0
 40
1
 40
1
 40
1
 40
1
 10
516.211785
 20
-144.280752
 30
0.0
 10
515.747442
 20
-144.012437
 30
0.0
 10
515.175178
 20
-144.012437
 30
0.0
 10
514.710835
 20
-144.280752
 30
0.0
  0
SPLINE
  5
15e
100
AcDbEntity
  8
Layer_1
 62
7
100
AcDbSpline
 70
8
 71
3
 72
8
 73
4
 74
0
 40
0
 40
0
 40
0
 40
0
 40
1
 40
1
 40
1
 40
1
 10
514.710835
 20
-144.280752
 30
0.0
 10
514.246492
 20
-144.549067
 30
0.0
 10
513.960723
 20
-145.044870
 30
0.0
 10
513.961310
 20
-145.581160
 30
0.0
  0
SPLINE
  5
15f
100
AcDbEntity
  8
Layer_1
 62
7
100
AcDbSpline
 70
8
 71
3
 72
8
 73
4
 74
0
 40
0
 40
0
 40
0
 40
0
 40
1
 40
1
 40
1
 40
1
 10
513.961310
 20
-145.581160
 30
0.0
 10
513.960723
 20
-146.117450
 30
0.0
 10
514.246492
 20
-146.613253
 30
0.0
 10
514.710835
 20
-146.881568
 30
0.0
  0
SPLINE
  5
160
100
AcDbEntity
  8
Layer_1
 62
7
100
AcDbSpline
 70
8
 71
3
 72
8
 73
4
 74
0
 40
0
 40
0
 40
0
 40
0
 40
1
 40
1
 40
1
 40
1
 10
514.710835
 20
-146.881568
 30
0.0
 10
515.175178
 20
-147.149883
 30
0.0
 10
515.747442
 20
-147.149883
 30
0.0
 10
516.211785
 20
-146.881568
 30
0.0
  0
SPLINE
  5
161
100
AcDbEntity
  8
Layer_1
 62
7
100
AcDbSpline
 70
8
 71
3
 72
8
 73
4
 74
0
 40
0
 40
0
 40
0
 40
0
 40
1
 40
1
 40
1
 40
1
 10
516.211785
 20
-146.881568
 30
0.0
 10
516.676128
 20
-146.613253
 30
0.0
 10
516.961897
 20
-146.117450
 30
0.0
 10
516.961310
 20
-145.581160
 30
0.0
  0
LWPOLYLINE
  5
162
100
AcDbEntity
  8
Layer_1
 62
7
100
AcDbPolyline
 90
1
 70
1
 10
593.061310
 20
-145.581160
 30
0.0
  0
LWPOLYLINE
  5
163
100
AcDbEntity
  8
Layer_1
 62
7
100
AcDbPolyline
 90
1
 70
1
 10
516.961310
 20
-145.581160
 30
0.0
  0
SPLINE
  5
164
100
AcDbEntity
  8
Layer_1
 62
7
100
AcDbSpline
 70
8
 71
3
 72
8
 73
4
 74
0
 40
0
 40
0
 40
0
 40
0
 40
1
 40
1
 40
1
 40
1
 10
589.851670
 20
-139.310020
 30
0.0
 10
594.829270
 20
-137.953020
 30
0.0
 10
599.327920
 20
-142.657480
 30
0.0
 10
597.749750
 20
-147.569440
 30
0.0
  0
LWPOLYLINE
  5
165
100
AcDbEntity
  8
Layer_1
 62
7
100
AcDbPolyline
 90
2
 70
0
 10
552.739310
 20
-100.499660
 30
0.0
 10
589.851670
 20
-139.310020
 30
0.0
  0
SPLINE
  5
166
100
AcDbEntity
  8
Layer_1
 62
7
100
AcDbSpline
 70
8
 71
3
 72
8
 73
4
 74
0
 40
0
 40
0
 40
0
 40
0
 40
1
 40
1
 40
1
 40
1
 10
654.281760
 20
-201.029380
 30
0.0
 10
657.500620
 20
-198.028980
 30
0.0
 10
662.708090
 20
-199.026990
 30
0.0
 10
664.589600
 20
-203.004830
 30
0.0
  0
SPLINE
  5
167
100
AcDbEntity
  8
Layer_1
 62
7
100
AcDbSpline
 70
8
 71
3
 72
8
 73
4
 74
0
 40
0
 40
0
 40
0
 40
0
 40
1
 40
1
 40
1
 40
1
 10
664.589600
 20
-203.004830
 30
0.0
 10
666.471110
 20
-206.982660
 30
0.0
 10
663.939270
 20
-211.641370
 30
0.0
 10
659.577930
 20
-212.226390
 30
0.0
  0
LWPOLYLINE
  5
168
100
AcDbEntity
  8
Layer_1
 62
7
100
AcDbPolyline
 90
3
 70
0
 10
597.749750
 20
-147.569440
 30
0.0
 10
648.870820
 20
-201.029410
 30
0.0
 10
654.281760
 20
-201.029380
 30
0.0
  0
SPLINE
  5
169
100
AcDbEntity
  8
Layer_1
 62
7
100
AcDbSpline
 70
8
 71
3
 72
8
 73
4
 74
0
 40
0
 40
0
 40
0
 40
0
 40
1
 40
1
 40
1
 40
1
 10
691.277630
 20
-245.376430
 30
0.0
 10
694.124770
 20
-248.353850
 30
0.0
 10
695.713770
 20
-252.314720
 30
0.0
 10
695.713760
 20
-256.434340
 30
0.0
  0
LWPOLYLINE
  5
16a
100
AcDbEntity
  8
Layer_1
 62
7
100
AcDbPolyline
 90
2
 70
0
 10
659.577930
 20
-212.226390
 30
0.0
 10
691.277630
 20
-245.376430
 30
0.0
  0
SPLINE
  5
16b
100
AcDbEntity
  8
Layer_1
 62
7
100
AcDbSpline
 70
8
 71
3
 72
8
 73
4
 74
0
 40
0
 40
0
 40
0
 40
0
 40
1
 40
1
 40
1
 40
1
 10
695.713760
 20
-272.434350
 30
0.0
 10
695.713760
 20
-278.056050
 30
0.0
 10
691.081230
 20
-282.573070
 30
0.0
 10
685.461320
 20
-282.431160
 30
0.0
  0
LWPOLYLINE
  5
16c
100
AcDbEntity
  8
Layer_1
 62
7
100
AcDbPolyline
 90
2
 70
0
 10
695.713760
 20
-256.434340
 30
0.0
 10
695.713760
 20
-272.434350
 30
0.0
  0
SPLINE
  5
16d
100
AcDbEntity
  8
Layer_1
 62
7
100
AcDbSpline
 70
8
 71
3
 72
8
 73
4
 74
0
 40
0
 40
0
 40
0
 40
0
 40
1
 40
1
 40
1
 40
1
 10
625.713770
 20
-244.934350
 30
0.0
 10
621.571630
 20
-244.934350
 30
0.0
 10
618.213770
 20
-248.292210
 30
0.0
 10
618.213770
 20
-252.434350
 30
0.0
  0
SPLINE
  5
16e
100
AcDbEntity
  8
Layer_1
 62
7
100
AcDbSpline
 70
8
 71
3
 72
8
 73
4
 74
0
 40
0
 40
0
 40
0
 40
0
 40
1
 40
1
 40
1
 40
1
 10
618.213770
 20
-252.434350
 30
0.0
 10
618.213770
 20
-256.576490
 30
0.0
 10
621.571630
 20
-259.934350
 30
0.0
 10
625.713770
 20
-259.934350
 30
0.0
  0
LWPOLYLINE
  5
16f
100
AcDbEntity
  8
Layer_1
 62
7
100
AcDbPolyline
 90
5
 70
0
 10
685.461320
 20
-282.431160
 30
0.0
 10
645.713790
 20
-282.431160
 30
0.0
 10
645.713790
 20
-242.434350
 30
0.0
 10
625.713770
 20
-242.434350
 30
0.0
 10
625.713770
 20
-244.934350
 30
0.0
  0
SPLINE
  5
170
100
AcDbEntity
  8
Layer_1
 62
7
100
AcDbSpline
 70
8
 71
3
 72
8
 73
4
 74
0
 40
0
 40
0
 40
0
 40
0
 40
1
 40
1
 40
1
 40
1
 10
485.461310
 20
-282.431160
 30
0.0
 10
479.938460
 20
-282.431160
 30
0.0
 10
475.461310
 20
-277.954010
 30
0.0
 10
475.461310
 20
-272.431160
 30
0.0
  0
LWPOLYLINE
  5
171
100
AcDbEntity
  8
Layer_1
 62
7
100
AcDbPolyline
 90
3
 70
0
 10
625.713770
 20
-259.934350
 30
0.0
 10
625.713770
 20
-282.431160
 30
0.0
 10
485.461310
 20
-282.431160
 30
0.0
  0
SPLINE
  5
172
100
AcDbEntity
  8
Layer_1
 62
7
100
AcDbSpline
 70
8
 71
3
 72
8
 73
4
 74
0
 40
0
 40
0
 40
0
 40
0
 40
1
 40
1
 40
1
 40
1
 10
475.461310
 20
-92.431160
 30
0.0
 10
475.461310
 20
-89.669730
 30
0.0
 10
476.828480
 20
-86.930250
 30
0.0
 10
478.638120
 20
-85.120610
 30
0.0
  0
SPLINE
  5
173
100
AcDbEntity
  8
Layer_1
 62
7
100
AcDbSpline
 70
8
 71
3
 72
8
 73
4
 74
0
 40
0
 40
0
 40
0
 40
0
 40
1
 40
1
 40
1
 40
1
 10
532.461310
 20
-202.431160
 30
0.0
 10
532.461536
 20
-201.716478
 30
0.0
 10
532.080388
 20
-201.055988
 30
0.0
 10
531.461493
 20
-200.698582
 30
0.0
  0
SPLINE
  5
174
100
AcDbEntity
  8
Layer_1
 62
7
100
AcDbSpline
 70
8
 71
3
 72
8
 73
4
 74
0
 40
0
 40
0
 40
0
 40
0
 40
1
 40
1
 40
1
 40
1
 10
531.461493
 20
-200.698582
 30
0.0
 10
530.842598
 20
-200.341176
 30
0.0
 10
530.080022
 20
-200.341176
 30
0.0
 10
529.461127
 20
-200.698582
 30
0.0
  0
SPLINE
  5
175
100
AcDbEntity
  8
Layer_1
 62
7
100
AcDbSpline
 70
8
 71
3
 72
8
 73
4
 74
0
 40
0
 40
0
 40
0
 40
0
 40
1
 40
1
 40
1
 40
1
 10
529.461127
 20
-200.698582
 30
0.0
 10
528.842232
 20
-201.055988
 30
0.0
 10
528.461084
 20
-201.716478
 30
0.0
 10
528.461310
 20
-202.431160
 30
0.0
  0
SPLINE
  5
176
100
AcDbEntity
  8
Layer_1
 62
7
100
AcDbSpline
 70
8
 71
3
 72
8
 73
4
 74
0
 40
0
 40
0
 40
0
 40
0
 40
1
 40
1
 40
1
 40
1
 10
528.461310
 20
-202.431160
 30
0.0
 10
528.461084
 20
-203.145842
 30
0.0
 10
528.842232
 20
-203.806332
 30
0.0
 10
529.461127
 20
-204.163738
 30
0.0
  0
SPLINE
  5
177
100
AcDbEntity
  8
Layer_1
 62
7
100
AcDbSpline
 70
8
 71
3
 72
8
 73
4
 74
0
 40
0
 40
0
 40
0
 40
0
 40
1
 40
1
 40
1
 40
1
 10
529.461127
 20
-204.163738
 30
0.0
 10
530.080022
 20
-204.521144
 30
0.0
 10
530.842598
 20
-204.521144
 30
0.0
 10
531.461493
 20
-204.163738
 30
0.0
  0
SPLINE
  5
178
100
AcDbEntity
  8
Layer_1
 62
7
100
AcDbSpline
 70
8
 71
3
 72
8
 73
4
 74
0
 40
0
 40
0
 40
0
 40
0
 40
1
 40
1
 40
1
 40
1
 10
531.461493
 20
-204.163738
 30
0.0
 10
532.080388
 20
-203.806332
 30
0.0
 10
532.461536
 20
-203.145842
 30
0.0
 10
532.461310
 20
-202.431160
 30
0.0
  0
LWPOLYLINE
  5
179
100
AcDbEntity
  8
Layer_1
 62
7
100
AcDbPolyline
 90
2
 70
0
 10
475.461310
 20
-272.431160
 30
0.0
 10
475.461310
 20
-92.431160
 30
0.0
  0
SPLINE
  5
17a
100
AcDbEntity
  8
Layer_1
 62
7
100
AcDbSpline
 70
8
 71
3
 72
8
 73
4
 74
0
 40
0
 40
0
 40
0
 40
0
 40
1
 40
1
 40
1
 40
1
 10
582.461300
 20
-202.431160
 30
0.0
 10
582.462916
 20
-201.715555
 30
0.0
 10
582.082073
 20
-201.053616
 30
0.0
 10
581.462609
 20
-200.695346
 30
0.0
  0
SPLINE
  5
17b
100
AcDbEntity
  8
Layer_1
 62
7
100
AcDbSpline
 70
8
 71
3
 72
8
 73
4
 74
0
 40
0
 40
0
 40
0
 40
0
 40
1
 40
1
 40
1
 40
1
 10
581.462609
 20
-200.695346
 30
0.0
 10
580.843144
 20
-200.337076
 30
0.0
 10
580.079466
 20
-200.337076
 30
0.0
 10
579.460001
 20
-200.695346
 30
0.0
  0
SPLINE
  5
17c
100
AcDbEntity
  8
Layer_1
 62
7
100
AcDbSpline
 70
8
 71
3
 72
8
 73
4
 74
0
 40
0
 40
0
 40
0
 40
0
 40
1
 40
1
 40
1
 40
1
 10
579.460001
 20
-200.695346
 30
0.0
 10
578.840537
 20
-201.053616
 30
0.0
 10
578.459694
 20
-201.715555
 30
0.0
 10
578.461310
 20
-202.431160
 30
0.0
  0
SPLINE
  5
17d
100
AcDbEntity
  8
Layer_1
 62
7
100
AcDbSpline
 70
8
 71
3
 72
8
 73
4
 74
0
 40
0
 40
0
 40
0
 40
0
 40
1
 40
1
 40
1
 40
1
 10
578.461310
 20
-202.431160
 30
0.0
 10
578.459694
 20
-203.146765
 30
0.0
 10
578.840537
 20
-203.808704
 30
0.0
 10
579.460001
 20
-204.166974
 30
0.0
  0
SPLINE
  5
17e
100
AcDbEntity
  8
Layer_1
 62
7
100
AcDbSpline
 70
8
 71
3
 72
8
 73
4
 74
0
 40
0
 40
0
 40
0
 40
0
 40
1
 40
1
 40
1
 40
1
 10
579.460001
 20
-204.166974
 30
0.0
 10
580.079466
 20
-204.525244
 30
0.0
 10
580.843144
 20
-204.525244
 30
0.0
 10
581.462609
 20
-204.166974
 30
0.0
  0
SPLINE
  5
17f
100
AcDbEntity
  8
Layer_1
 62
7
100
AcDbSpline
 70
8
 71
3
 72
8
 73
4
 74
0
 40
0
 40
0
 40
0
 40
0
 40
1
 40
1
 40
1
 40
1
 10
581.462609
 20
-204.166974
 30
0.0
 10
582.082073
 20
-203.808704
 30
0.0
 10
582.462916
 20
-203.146765
 30
0.0
 10
582.461300
 20
-202.431160
 30
0.0
  0
LWPOLYLINE
  5
180
100
AcDbEntity
  8
Layer_1
 62
7
100
AcDbPolyline
 90
1
 70
1
 10
532.461310
 20
-202.431160
 30
0.0
  0
SPLINE
  5
181
100
AcDbEntity
  8
Layer_1
 62
7
100
AcDbSpline
 70
8
 71
3
 72
8
 73
4
 74
0
 40
0
 40
0
 40
0
 40
0
 40
1
 40
1
 40
1
 40
1
 10
532.461310
 20
-50.431160
 30
0.0
 10
532.461536
 20
-49.716478
 30
0.0
 10
532.080388
 20
-49.055988
 30
0.0
 10
531.461493
 20
-48.698582
 30
0.0
  0
SPLINE
  5
182
100
AcDbEntity
  8
Layer_1
 62
7
100
AcDbSpline
 70
8
 71
3
 72
8
 73
4
 74
0
 40
0
 40
0
 40
0
 40
0
 40
1
 40
1
 40
1
 40
1
 10
531.461493
 20
-48.698582
 30
0.0
 10
530.842598
 20
-48.341176
 30
0.0
 10
530.080022
 20
-48.341176
 30
0.0
 10
529.461127
 20
-48.698582
 30
0.0
  0
SPLINE
  5
183
100
AcDbEntity
  8
Layer_1
 62
7
100
AcDbSpline
 70
8
 71
3
 72
8
 73
4
 74
0
 40
0
 40
0
 40
0
 40
0
 40
1
 40
1
 40
1
 40
1
 10
529.461127
 20
-48.698582
 30
0.0
 10
528.842232
 20
-49.055988
 30
0.0
 10
528.461084
 20
-49.716478
 30
0.0
 10
528.461310
 20
-50.431160
 30
0.0
  0
SPLINE
  5
184
100
AcDbEntity
  8
Layer_1
 62
7
100
AcDbSpline
 70
8
 71
3
 72
8
 73
4
 74
0
 40
0
 40
0
 40
0
 40
0
 40
1
 40
1
 40
1
 40
1
 10
528.461310
 20
-50.431160
 30
0.0
 10
528.461084
 20
-51.145842
 30
0.0
 10
528.842232
 20
-51.806332
 30
0.0
 10
529.461127
 20
-52.163738
 30
0.0
  0
SPLINE
  5
185
100
AcDbEntity
  8
Layer_1
 62
7
100
AcDbSpline
 70
8
 71
3
 72
8
 73
4
 74
0
 40
0
 40
0
 40
0
 40
0
 40
1
 40
1
 40
1
 40
1
 10
529.461127
 20
-52.163738
 30
0.0
 10
530.080022
 20
-52.521144
 30
0.0
 10
530.842598
 20
-52.521144
 30
0.0
 10
531.461493
 20
-52.163738
 30
0.0
  0
SPLINE
  5
186
100
AcDbEntity
  8
Layer_1
 62
7
100
AcDbSpline
 70
8
 71
3
 72
8
 73
4
 74
0
 40
0
 40
0
 40
0
 40
0
 40
1
 40
1
 40
1
 40
1
 10
531.461493
 20
-52.163738
 30
0.0
 10
532.080388
 20
-51.806332
 30
0.0
 10
532.461536
 20
-51.145842
 30
0.0
 10
532.461310
 20
-50.431160
 30
0.0
  0
LWPOLYLINE
  5
187
100
AcDbEntity
  8
Layer_1
 62
7
100
AcDbPolyline
 90
1
 70
1
 10
582.461300
 20
-202.431160
 30
0.0
  0
LWPOLYLINE
  5
188
100
AcDbEntity
  8
Layer_1
 62
7
100
AcDbPolyline
 90
1
 70
1
 10
532.461310
 20
-50.431160
 30
0.0
  0
LWPOLYLINE
  5
189
100
AcDbEntity
  8
Layer_1
 62
7
100
AcDbPolyline
 90
2
 70
0
 10
523.638120
 20
-43.120610
 30
0.0
 10
478.638120
 20
-85.120610
 30
0.0
  0
SPLINE
  5
18a
100
AcDbEntity
  8
Layer_1
 62
7
100
AcDbSpline
 70
8
 71
3
 72
8
 73
4
 74
0
 40
0
 40
0
 40
0
 40
0
 40
1
 40
1
 40
1
 40
1
 10
540.186120
 20
-48.101360
 30
0.0
 10
539.357012
 20
-44.640583
 30
0.0
 10
536.751158
 20
-41.881181
 30
0.0
 10
533.343462
 20
-40.855506
 30
0.0
  0
SPLINE
  5
18b
100
AcDbEntity
  8
Layer_1
 62
7
100
AcDbSpline
 70
8
 71
3
 72
8
 73
4
 74
0
 40
0
 40
0
 40
0
 40
0
 40
1
 40
1
 40
1
 40
1
 10
533.343462
 20
-40.855506
 30
0.0
 10
529.935767
 20
-39.829830
 30
0.0
 10
526.239731
 20
-40.692438
 30
0.0
 10
523.638120
 20
-43.120610
 30
0.0
  0
LWPOLYLINE
  5
18c
100
AcDbEntity
  8
Layer_1
 62
7
100
AcDbPolyline
 90
2
 70
0
 10
552.739310
 20
-100.499660
 30
0.0
 10
540.186120
 20
-48.101360
 30
0.0
  0
SPLINE
  5
18d
100
AcDbEntity
  8
Layer_1
 62
7
100
AcDbSpline
 70
8
 71
3
 72
8
 73
4
 74
0
 40
0
 40
0
 40
0
 40
0
 40
1
 40
1
 40
1
 40
1
 10
625.713770
 20
-244.934350
 30
0.0
 10
623.034278
 20
-244.934350
 30
0.0
 10
620.558325
 20
-246.363842
 30
0.0
 10
619.218579
 20
-248.684350
 30
0.0
  0
SPLINE
  5
18e
100
AcDbEntity
  8
Layer_1
 62
7
100
AcDbSpline
 70
8
 71
3
 72
8
 73
4
 74
0
 40
0
 40
0
 40
0
 40
0
 40
1
 40
1
 40
1
 40
1
 10
619.218579
 20
-248.684350
 30
0.0
 10
617.878834
 20
-251.004858
 30
0.0
 10
617.878834
 20
-253.863842
 30
0.0
 10
619.218579
 20
-256.184350
 30
0.0
  0
SPLINE
  5
18f
100
AcDbEntity
  8
Layer_1
 62
7
100
AcDbSpline
 70
8
 71
3
 72
8
 73
4
 74
0
 40
0
 40
0
 40
0
 40
0
 40
1
 40
1
 40
1
 40
1
 10
619.218579
 20
-256.184350
 30
0.0
 10
620.558325
 20
-258.504858
 30
0.0
 10
623.034278
 20
-259.934350
 30
0.0
 10
625.713770
 20
-259.934350
 30
0.0
  0
SPLINE
  5
190
100
AcDbEntity
  8
Layer_1
 62
7
100
AcDbSpline
 70
8
 71
3
 72
8
 73
4
 74
0
 40
0
 40
0
 40
0
 40
0
 40
1
 40
1
 40
1
 40
1
 10
653.712930
 20
-238.284370
 30
0.0
 10
653.176619
 20
-238.284989
 30
0.0
 10
652.680782
 20
-237.999226
 30
0.0
 10
652.412448
 20
-237.534870
 30
0.0
  0
SPLINE
  5
191
100
AcDbEntity
  8
Layer_1
 62
7
100
AcDbSpline
 70
8
 71
3
 72
8
 73
4
 74
0
 40
0
 40
0
 40
0
 40
0
 40
1
 40
1
 40
1
 40
1
 10
652.412448
 20
-237.534870
 30
0.0
 10
652.144113
 20
-237.070514
 30
0.0
 10
652.144113
 20
-236.498226
 30
0.0
 10
652.412448
 20
-236.033870
 30
0.0
  0
SPLINE
  5
192
100
AcDbEntity
  8
Layer_1
 62
7
100
AcDbSpline
 70
8
 71
3
 72
8
 73
4
 74
0
 40
0
 40
0
 40
0
 40
0
 40
1
 40
1
 40
1
 40
1
 10
652.412448
 20
-236.033870
 30
0.0
 10
652.680782
 20
-235.569514
 30
0.0
 10
653.176619
 20
-235.283751
 30
0.0
 10
653.712930
 20
-235.284370
 30
0.0
  0
SPLINE
  5
193
100
AcDbEntity
  8
Layer_1
 62
7
100
AcDbSpline
 70
8
 71
3
 72
8
 73
4
 74
0
 40
0
 40
0
 40
0
 40
0
 40
1
 40
1
 40
1
 40
1
 10
653.712930
 20
-235.284370
 30
0.0
 10
653.712930
 20
-235.284370
 30
0.0
 10
658.712950
 20
-235.284350
 30
0.0
 10
658.712950
 20
-235.284350
 30
0.0
  0
SPLINE
  5
194
100
AcDbEntity
  8
Layer_1
 62
7
100
AcDbSpline
 70
8
 71
3
 72
8
 73
4
 74
0
 40
0
 40
0
 40
0
 40
0
 40
1
 40
1
 40
1
 40
1
 10
658.712950
 20
-235.284350
 30
0.0
 10
659.248848
 20
-235.284350
 30
0.0
 10
659.744039
 20
-235.570248
 30
0.0
 10
660.011988
 20
-236.034350
 30
0.0
  0
SPLINE
  5
195
100
AcDbEntity
  8
Layer_1
 62
7
100
AcDbSpline
 70
8
 71
3
 72
8
 73
4
 74
0
 40
0
 40
0
 40
0
 40
0
 40
1
 40
1
 40
1
 40
1
 10
660.011988
 20
-236.034350
 30
0.0
 10
660.279937
 20
-236.498452
 30
0.0
 10
660.279937
 20
-237.070248
 30
0.0
 10
660.011988
 20
-237.534350
 30
0.0
  0
SPLINE
  5
196
100
AcDbEntity
  8
Layer_1
 62
7
100
AcDbSpline
 70
8
 71
3
 72
8
 73
4
 74
0
 40
0
 40
0
 40
0
 40
0
 40
1
 40
1
 40
1
 40
1
 10
660.011988
 20
-237.534350
 30
0.0
 10
659.744039
 20
-237.998452
 30
0.0
 10
659.248848
 20
-238.284350
 30
0.0
 10
658.712950
 20
-238.284350
 30
0.0
  0
LWPOLYLINE
  5
197
100
AcDbEntity
  8
Layer_1
 62
7
100
AcDbPolyline
 90
2
 70
0
 10
625.713770
 20
-242.434350
 30
0.0
 10
625.713770
 20
-244.934350
 30
0.0
  0
SPLINE
  5
198
100
AcDbEntity
  8
Layer_1
 62
7
100
AcDbSpline
 70
8
 71
3
 72
8
 73
4
 74
0
 40
0
 40
0
 40
0
 40
0
 40
1
 40
1
 40
1
 40
1
 10
653.712700
 20
-207.284110
 30
0.0
 10
653.176802
 20
-207.284115
 30
0.0
 10
652.681608
 20
-206.998222
 30
0.0
 10
652.413654
 20
-206.534123
 30
0.0
  0
SPLINE
  5
199
100
AcDbEntity
  8
Layer_1
 62
7
100
AcDbSpline
 70
8
 71
3
 72
8
 73
4
 74
0
 40
0
 40
0
 40
0
 40
0
 40
1
 40
1
 40
1
 40
1
 10
652.413654
 20
-206.534123
 30
0.0
 10
652.145701
 20
-206.070024
 30
0.0
 10
652.145695
 20
-205.498227
 30
0.0
 10
652.413639
 20
-205.034123
 30
0.0
  0
SPLINE
  5
19a
100
AcDbEntity
  8
Layer_1
 62
7
100
AcDbSpline
 70
8
 71
3
 72
8
 73
4
 74
0
 40
0
 40
0
 40
0
 40
0
 40
1
 40
1
 40
1
 40
1
 10
652.413639
 20
-205.034123
 30
0.0
 10
652.681584
 20
-204.570019
 30
0.0
 10
653.176772
 20
-204.284115
 30
0.0
 10
653.712670
 20
-204.284110
 30
0.0
  0
SPLINE
  5
19b
100
AcDbEntity
  8
Layer_1
 62
7
100
AcDbSpline
 70
8
 71
3
 72
8
 73
4
 74
0
 40
0
 40
0
 40
0
 40
0
 40
1
 40
1
 40
1
 40
1
 10
653.712670
 20
-204.284110
 30
0.0
 10
653.712670
 20
-204.284110
 30
0.0
 10
658.712660
 20
-204.284090
 30
0.0
 10
658.712660
 20
-204.284090
 30
0.0
  0
SPLINE
  5
19c
100
AcDbEntity
  8
Layer_1
 62
7
100
AcDbSpline
 70
8
 71
3
 72
8
 73
4
 74
0
 40
0
 40
0
 40
0
 40
0
 40
1
 40
1
 40
1
 40
1
 10
658.712660
 20
-204.284090
 30
0.0
 10
659.248689
 20
-204.283894
 30
0.0
 10
659.744084
 20
-204.569750
 30
0.0
 10
660.012155
 20
-205.033932
 30
0.0
  0
SPLINE
  5
19d
100
AcDbEntity
  8
Layer_1
 62
7
100
AcDbSpline
 70
8
 71
3
 72
8
 73
4
 74
0
 40
0
 40
0
 40
0
 40
0
 40
1
 40
1
 40
1
 40
1
 10
660.012155
 20
-205.033932
 30
0.0
 10
660.280226
 20
-205.498114
 30
0.0
 10
660.280226
 20
-206.070066
 30
0.0
 10
660.012155
 20
-206.534248
 30
0.0
  0
SPLINE
  5
19e
100
AcDbEntity
  8
Layer_1
 62
7
100
AcDbSpline
 70
8
 71
3
 72
8
 73
4
 74
0
 40
0
 40
0
 40
0
 40
0
 40
1
 40
1
 40
1
 40
1
 10
660.012155
 20
-206.534248
 30
0.0
 10
659.744084
 20
-206.998430
 30
0.0
 10
659.248689
 20
-207.284286
 30
0.0
 10
658.712660
 20
-207.284090
 30
0.0
  0
LWPOLYLINE
  5
19f
100
AcDbEntity
  8
Layer_1
 62
7
100
AcDbPolyline
 90
2
 70
0
 10
658.712950
 20
-238.284350
 30
0.0
 10
653.712930
 20
-238.284370
 30
0.0
  0
SPLINE
  5
1a0
100
AcDbEntity
  8
Layer_1
 62
7
100
AcDbSpline
 70
8
 71
3
 72
8
 73
4
 74
0
 40
0
 40
0
 40
0
 40
0
 40
1
 40
1
 40
1
 40
1
 10
622.692360
 20
-238.284370
 30
0.0
 10
622.156049
 20
-238.284989
 30
0.0
 10
621.660212
 20
-237.999226
 30
0.0
 10
621.391878
 20
-237.534870
 30
0.0
  0
SPLINE
  5
1a1
100
AcDbEntity
  8
Layer_1
 62
7
100
AcDbSpline
 70
8
 71
3
 72
8
 73
4
 74
0
 40
0
 40
0
 40
0
 40
0
 40
1
 40
1
 40
1
 40
1
 10
621.391878
 20
-237.534870
 30
0.0
 10
621.123543
 20
-237.070514
 30
0.0
 10
621.123543
 20
-236.498226
 30
0.0
 10
621.391878
 20
-236.033870
 30
0.0
  0
SPLINE
  5
1a2
100
AcDbEntity
  8
Layer_1
 62
7
100
AcDbSpline
 70
8
 71
3
 72
8
 73
4
 74
0
 40
0
 40
0
 40
0
 40
0
 40
1
 40
1
 40
1
 40
1
 10
621.391878
 20
-236.033870
 30
0.0
 10
621.660212
 20
-235.569514
 30
0.0
 10
622.156049
 20
-235.283751
 30
0.0
 10
622.692360
 20
-235.284370
 30
0.0
  0
SPLINE
  5
1a3
100
AcDbEntity
  8
Layer_1
 62
7
100
AcDbSpline
 70
8
 71
3
 72
8
 73
4
 74
0
 40
0
 40
0
 40
0
 40
0
 40
1
 40
1
 40
1
 40
1
 10
622.692360
 20
-235.284370
 30
0.0
 10
622.692360
 20
-235.284370
 30
0.0
 10
627.692380
 20
-235.284350
 30
0.0
 10
627.692380
 20
-235.284350
 30
0.0
  0
SPLINE
  5
1a4
100
AcDbEntity
  8
Layer_1
 62
7
100
AcDbSpline
 70
8
 71
3
 72
8
 73
4
 74
0
 40
0
 40
0
 40
0
 40
0
 40
1
 40
1
 40
1
 40
1
 10
627.692380
 20
-235.284350
 30
0.0
 10
628.228278
 20
-235.284350
 30
0.0
 10
628.723469
 20
-235.570248
 30
0.0
 10
628.991418
 20
-236.034350
 30
0.0
  0
SPLINE
  5
1a5
100
AcDbEntity
  8
Layer_1
 62
7
100
AcDbSpline
 70
8
 71
3
 72
8
 73
4
 74
0
 40
0
 40
0
 40
0
 40
0
 40
1
 40
1
 40
1
 40
1
 10
628.991418
 20
-236.034350
 30
0.0
 10
629.259367
 20
-236.498452
 30
0.0
 10
629.259367
 20
-237.070248
 30
0.0
 10
628.991418
 20
-237.534350
 30
0.0
  0
SPLINE
  5
1a6
100
AcDbEntity
  8
Layer_1
 62
7
100
AcDbSpline
 70
8
 71
3
 72
8
 73
4
 74
0
 40
0
 40
0
 40
0
 40
0
 40
1
 40
1
 40
1
 40
1
 10
628.991418
 20
-237.534350
 30
0.0
 10
628.723469
 20
-237.998452
 30
0.0
 10
628.228278
 20
-238.284350
 30
0.0
 10
627.692380
 20
-238.284350
 30
0.0
  0
LWPOLYLINE
  5
1a7
100
AcDbEntity
  8
Layer_1
 62
7
100
AcDbPolyline
 90
2
 70
0
 10
658.712660
 20
-207.284090
 30
0.0
 10
653.712700
 20
-207.284110
 30
0.0
  0
SPLINE
  5
1a8
100
AcDbEntity
  8
Layer_1
 62
7
100
AcDbSpline
 70
8
 71
3
 72
8
 73
4
 74
0
 40
0
 40
0
 40
0
 40
0
 40
1
 40
1
 40
1
 40
1
 10
622.692130
 20
-207.284110
 30
0.0
 10
622.156232
 20
-207.284115
 30
0.0
 10
621.661038
 20
-206.998222
 30
0.0
 10
621.393084
 20
-206.534123
 30
0.0
  0
SPLINE
  5
1a9
100
AcDbEntity
  8
Layer_1
 62
7
100
AcDbSpline
 70
8
 71
3
 72
8
 73
4
 74
0
 40
0
 40
0
 40
0
 40
0
 40
1
 40
1
 40
1
 40
1
 10
621.393084
 20
-206.534123
 30
0.0
 10
621.125131
 20
-206.070024
 30
0.0
 10
621.125125
 20
-205.498227
 30
0.0
 10
621.393069
 20
-205.034123
 30
0.0
  0
SPLINE
  5
1aa
100
AcDbEntity
  8
Layer_1
 62
7
100
AcDbSpline
 70
8
 71
3
 72
8
 73
4
 74
0
 40
0
 40
0
 40
0
 40
0
 40
1
 40
1
 40
1
 40
1
 10
621.393069
 20
-205.034123
 30
0.0
 10
621.661014
 20
-204.570019
 30
0.0
 10
622.156202
 20
-204.284115
 30
0.0
 10
622.692100
 20
-204.284110
 30
0.0
  0
SPLINE
  5
1ab
100
AcDbEntity
  8
Layer_1
 62
7
100
AcDbSpline
 70
8
 71
3
 72
8
 73
4
 74
0
 40
0
 40
0
 40
0
 40
0
 40
1
 40
1
 40
1
 40
1
 10
622.692100
 20
-204.284110
 30
0.0
 10
622.692100
 20
-204.284110
 30
0.0
 10
627.692090
 20
-204.284090
 30
0.0
 10
627.692090
 20
-204.284090
 30
0.0
  0
SPLINE
  5
1ac
100
AcDbEntity
  8
Layer_1
 62
7
100
AcDbSpline
 70
8
 71
3
 72
8
 73
4
 74
0
 40
0
 40
0
 40
0
 40
0
 40
1
 40
1
 40
1
 40
1
 10
627.692090
 20
-204.284090
 30
0.0
 10
628.228119
 20
-204.283894
 30
0.0
 10
628.723514
 20
-204.569750
 30
0.0
 10
628.991585
 20
-205.033932
 30
0.0
  0
SPLINE
  5
1ad
100
AcDbEntity
  8
Layer_1
 62
7
100
AcDbSpline
 70
8
 71
3
 72
8
 73
4
 74
0
 40
0
 40
0
 40
0
 40
0
 40
1
 40
1
 40
1
 40
1
 10
628.991585
 20
-205.033932
 30
0.0
 10
629.259656
 20
-205.498114
 30
0.0
 10
629.259656
 20
-206.070066
 30
0.0
 10
628.991585
 20
-206.534248
 30
0.0
  0
SPLINE
  5
1ae
100
AcDbEntity
  8
Layer_1
 62
7
100
AcDbSpline
 70
8
 71
3
 72
8
 73
4
 74
0
 40
0
 40
0
 40
0
 40
0
 40
1
 40
1
 40
1
 40
1
 10
628.991585
 20
-206.534248
 30
0.0
 10
628.723514
 20
-206.998430
 30
0.0
 10
628.228119
 20
-207.284286
 30
0.0
 10
627.692090
 20
-207.284090
 30
0.0
  0
LWPOLYLINE
  5
1af
100
AcDbEntity
  8
Layer_1
 62
7
100
AcDbPolyline
 90
2
 70
0
 10
627.692380
 20
-238.284350
 30
0.0
 10
622.692360
 20
-238.284370
 30
0.0
  0
LWPOLYLINE
  5
1b0
100
AcDbEntity
  8
Layer_1
 62
7
100
AcDbPolyline
 90
2
 70
0
 10
627.692090
 20
-207.284090
 30
0.0
 10
622.692130
 20
-207.284110
 30
0.0
  0
ENDSEC
  0
SECTION
  2
OBJECTS
  0
DICTIONARY
  5
C
330
0
100
AcDbDictionary
  3
ACAD_GROUP
350
D
  3
ACAD_MLINESTYLE
350
17
  0
DICTIONARY
  5
D
330
C
100
AcDbDictionary
  0
DICTIONARY
  5
1A
330
C
100
AcDbDictionary
  0
DICTIONARY
  5
17
330
C
100
AcDbDictionary
  3
STANDARD
350
18
  0
DICTIONARY
  5
19
330
C
100
AcDbDictionary
  0
ENDSEC
  0
EOF
