  0
SECTION
  2
HEADER
  9
$ACADVER
  1
AC1014
  9
$HANDSEED
  5
FFFF
  9
$MEASUREMENT
 70
     1
  0
ENDSEC
  0
SECTION
  2
TABLES
  0
TABLE
  2
VPORT
  5
8
330
0
100
AcDbSymbolTable
 70
     4
  0
VPORT
  5
2E
330
8
100
AcDbSymbolTableRecord
100
AcDbViewportTableRecord
  2
*ACTIVE
 70
     0
 10
0.0
 20
0.0
 11
1.0
 21
1.0
 12
210.0
 22
148.5
 13
0.0
 23
0.0
 14
10.0
 24
10.0
 15
10.0
 25
10.0
 16
0.0
 26
0.0
 36
1.0
 17
0.0
 27
0.0
 37
0.0
 40
341.0
 41
1.24
 42
50.0
 43
0.0
 44
0.0
 50
0.0
 51
0.0
 71
     0
 72
   100
 73
     1
 74
     3
 75
     0
 76
     0
 77
     0
 78
     0
  0
ENDTAB
  0
TABLE
  2
LTYPE
  5
5
330
0
100
AcDbSymbolTable
 70
     1
  0
LTYPE
  5
14
330
5
100
AcDbSymbolTableRecord
100
AcDbLinetypeTableRecord
  2
BYBLOCK
 70
     0
  3

 72
    65
 73
     0
 40
0.0
  0
LTYPE
  5
15
330
5
100
AcDbSymbolTableRecord
100
AcDbLinetypeTableRecord
  2
BYLAYER
 70
     0
  3

 72
    65
 73
     0
 40
0.0
  0
LTYPE
  5
16
330
5
100
AcDbSymbolTableRecord
100
AcDbLinetypeTableRecord
  2
CONTINUOUS
 70
     0
  3
Solid line
 72
    65
 73
     0
 40
0.0
  0
ENDTAB
  0
TABLE
  2
LAYER
  5
2
100
AcDbSymbolTable
 70
2
  0
LAYER
  5
50
100
AcDbSymbolTableRecord
100
AcDbLayerTableRecord
  2
0
 70
0
  6
CONTINUOUS
  0
LAYER
  5
51
100
AcDbSymbolTableRecord
100
AcDbLayerTableRecord
  2
Layer_1
 70
0
  6
CONTINUOUS
  0
ENDTAB
  0
TABLE
  2
STYLE
  5
3
330
0
100
AcDbSymbolTable
 70
     1
  0
STYLE
  5
11
330
3
100
AcDbSymbolTableRecord
100
AcDbTextStyleTableRecord
  2
STANDARD
 70
     0
 40
0.0
 41
1.0
 50
0.0
 71
     0
 42
2.5
  3
txt
  4

  0
ENDTAB
  0
TABLE
  2
VIEW
  5
6
330
0
100
AcDbSymbolTable
 70
     0
  0
ENDTAB
  0
TABLE
  2
UCS
  5
7
330
0
100
AcDbSymbolTable
 70
     0
  0
ENDTAB
  0
TABLE
  2
APPID
  5
9
330
0
100
AcDbSymbolTable
 70
     2
  0
APPID
  5
12
330
9
100
AcDbSymbolTableRecord
100
AcDbRegAppTableRecord
  2
ACAD
 70
     0
  0
ENDTAB
  0
TABLE
  2
DIMSTYLE
  5
A
330
0
100
AcDbSymbolTable
 70
     1
  0
DIMSTYLE
105
27
330
A
100
AcDbSymbolTableRecord
100
AcDbDimStyleTableRecord
  2
ISO-25
 70
     0
  3

  4

  5

  6

  7

 40
1.0
 41
2.5
 42
0.625
 43
3.75
 44
1.25
 45
0.0
 46
0.0
 47
0.0
 48
0.0
140
2.5
141
2.5
142
0.0
143
0.03937007874016
144
1.0
145
0.0
146
1.0
147
0.625
 71
     0
 72
     0
 73
     0
 74
     0
 75
     0
 76
     0
 77
     1
 78
     8
170
     0
171
     3
172
     1
173
     0
174
     0
175
     0
176
     0
177
     0
178
     0
270
     2
271
     2
272
     2
273
     2
274
     3
340
11
275
     0
280
     0
281
     0
282
     0
283
     0
284
     8
285
     0
286
     0
287
     3
288
     0
  0
ENDTAB
  0
TABLE
  2
BLOCK_RECORD
  5
1
330
0
100
AcDbSymbolTable
 70
     1
  0
BLOCK_RECORD
  5
1F
330
1
100
AcDbSymbolTableRecord
100
AcDbBlockTableRecord
  2
*MODEL_SPACE
  0
BLOCK_RECORD
  5
1B
330
1
100
AcDbSymbolTableRecord
100
AcDbBlockTableRecord
  2
*PAPER_SPACE
  0
ENDTAB
  0
ENDSEC
  0
SECTION
  2
BLOCKS
  0
BLOCK
  5
20
330
1F
100
AcDbEntity
  8
0
100
AcDbBlockBegin
  2
*MODEL_SPACE
 70
     0
 10
0.0
 20
0.0
 30
0.0
  3
*MODEL_SPACE
  1

  0
ENDBLK
  5
21
330
1F
100
AcDbEntity
  8
0
100
AcDbBlockEnd
  0
BLOCK
  5
1C
330
1B
100
AcDbEntity
 67
     1
  8
0
100
AcDbBlockBegin
  2
*PAPER_SPACE
  1

  0
ENDBLK
  5
1D
330
1B
100
AcDbEntity
 67
     1
  8
0
100
AcDbBlockEnd
  0
ENDSEC
  0
SECTION
  2
ENTITIES
  0
SPLINE
  5
100
100
AcDbEntity
  8
Layer_1
 62
7
100
AcDbSpline
 70
8
 71
3
 72
8
 73
4
 74
0
 40
0
 40
0
 40
0
 40
0
 40
1
 40
1
 40
1
 40
1
 10
649.473740
 20
-199.784090
 30
0.0
 10
652.168815
 20
-199.852146
 30
0.0
 10
654.777200
 20
-198.829139
 30
0.0
 10
656.707425
 20
-196.947040
 30
0.0
  0
SPLINE
  5
101
100
AcDbEntity
  8
Layer_1
 62
7
100
AcDbSpline
 70
8
 71
3
 72
8
 73
4
 74
0
 40
0
 40
0
 40
0
 40
0
 40
1
 40
1
 40
1
 40
1
 10
656.707425
 20
-196.947040
 30
0.0
 10
658.637651
 20
-195.064942
 30
0.0
 10
659.726179
 20
-192.483215
 30
0.0
 10
659.726180
 20
-189.787280
 30
0.0
  0
SPLINE
  5
102
100
AcDbEntity
  8
Layer_1
 62
7
100
AcDbSpline
 70
8
 71
3
 72
8
 73
4
 74
0
 40
0
 40
0
 40
0
 40
0
 40
1
 40
1
 40
1
 40
1
 10
649.726200
 20
-173.787270
 30
0.0
 10
649.728708
 20
-171.642004
 30
0.0
 10
648.585662
 20
-169.658623
 30
0.0
 10
646.728224
 20
-168.585265
 30
0.0
  0
SPLINE
  5
103
100
AcDbEntity
  8
Layer_1
 62
7
100
AcDbSpline
 70
8
 71
3
 72
8
 73
4
 74
0
 40
0
 40
0
 40
0
 40
0
 40
1
 40
1
 40
1
 40
1
 10
646.728224
 20
-168.585265
 30
0.0
 10
644.870786
 20
-167.511907
 30
0.0
 10
642.581604
 20
-167.511907
 30
0.0
 10
640.724166
 20
-168.585265
 30
0.0
  0
SPLINE
  5
104
100
AcDbEntity
  8
Layer_1
 62
7
100
AcDbSpline
 70
8
 71
3
 72
8
 73
4
 74
0
 40
0
 40
0
 40
0
 40
0
 40
1
 40
1
 40
1
 40
1
 10
640.724166
 20
-168.585265
 30
0.0
 10
638.866728
 20
-169.658623
 30
0.0
 10
637.723682
 20
-171.642004
 30
0.0
 10
637.726190
 20
-173.787270
 30
0.0
  0
SPLINE
  5
105
100
AcDbEntity
  8
Layer_1
 62
7
100
AcDbSpline
 70
8
 71
3
 72
8
 73
4
 74
0
 40
0
 40
0
 40
0
 40
0
 40
1
 40
1
 40
1
 40
1
 10
637.726190
 20
-173.787270
 30
0.0
 10
637.723682
 20
-175.932536
 30
0.0
 10
638.866728
 20
-177.915917
 30
0.0
 10
640.724166
 20
-178.989275
 30
0.0
  0
SPLINE
  5
106
100
AcDbEntity
  8
Layer_1
 62
7
100
AcDbSpline
 70
8
 71
3
 72
8
 73
4
 74
0
 40
0
 40
0
 40
0
 40
0
 40
1
 40
1
 40
1
 40
1
 10
640.724166
 20
-178.989275
 30
0.0
 10
642.581604
 20
-180.062633
 30
0.0
 10
644.870786
 20
-180.062633
 30
0.0
 10
646.728224
 20
-178.989275
 30
0.0
  0
SPLINE
  5
107
100
AcDbEntity
  8
Layer_1
 62
7
100
AcDbSpline
 70
8
 71
3
 72
8
 73
4
 74
0
 40
0
 40
0
 40
0
 40
0
 40
1
 40
1
 40
1
 40
1
 10
646.728224
 20
-178.989275
 30
0.0
 10
648.585662
 20
-177.915917
 30
0.0
 10
649.728708
 20
-175.932536
 30
0.0
 10
649.726200
 20
-173.787270
 30
0.0
  0
LWPOLYLINE
  5
108
100
AcDbEntity
  8
Layer_1
 62
7
100
AcDbPolyline
 90
4
 70
0
 10
659.726180
 20
-182.751530
 30
0.0
 10
659.726180
 20
-179.787280
 30
0.0
 10
659.726180
 20
-189.787280
 30
0.0
 10
659.726180
 20
-173.787270
 30
0.0
  0
SPLINE
  5
109
100
AcDbEntity
  8
Layer_1
 62
7
100
AcDbSpline
 70
8
 71
3
 72
8
 73
4
 74
0
 40
0
 40
0
 40
0
 40
0
 40
1
 40
1
 40
1
 40
1
 10
451.973730
 20
-9.784090
 30
0.0
 10
451.974168
 20
-8.890634
 30
0.0
 10
451.497766
 20
-8.064860
 30
0.0
 10
450.724084
 20
-7.618006
 30
0.0
  0
SPLINE
  5
10a
100
AcDbEntity
  8
Layer_1
 62
7
100
AcDbSpline
 70
8
 71
3
 72
8
 73
4
 74
0
 40
0
 40
0
 40
0
 40
0
 40
1
 40
1
 40
1
 40
1
 10
450.724084
 20
-7.618006
 30
0.0
 10
449.950401
 20
-7.171151
 30
0.0
 10
448.997059
 20
-7.171151
 30
0.0
 10
448.223376
 20
-7.618006
 30
0.0
  0
SPLINE
  5
10b
100
AcDbEntity
  8
Layer_1
 62
7
100
AcDbSpline
 70
8
 71
3
 72
8
 73
4
 74
0
 40
0
 40
0
 40
0
 40
0
 40
1
 40
1
 40
1
 40
1
 10
448.223376
 20
-7.618006
 30
0.0
 10
447.449694
 20
-8.064860
 30
0.0
 10
446.973292
 20
-8.890634
 30
0.0
 10
446.973730
 20
-9.784090
 30
0.0
  0
SPLINE
  5
10c
100
AcDbEntity
  8
Layer_1
 62
7
100
AcDbSpline
 70
8
 71
3
 72
8
 73
4
 74
0
 40
0
 40
0
 40
0
 40
0
 40
1
 40
1
 40
1
 40
1
 10
446.973730
 20
-9.784090
 30
0.0
 10
446.973292
 20
-10.677546
 30
0.0
 10
447.449694
 20
-11.503320
 30
0.0
 10
448.223376
 20
-11.950174
 30
0.0
  0
SPLINE
  5
10d
100
AcDbEntity
  8
Layer_1
 62
7
100
AcDbSpline
 70
8
 71
3
 72
8
 73
4
 74
0
 40
0
 40
0
 40
0
 40
0
 40
1
 40
1
 40
1
 40
1
 10
448.223376
 20
-11.950174
 30
0.0
 10
448.997059
 20
-12.397029
 30
0.0
 10
449.950401
 20
-12.397029
 30
0.0
 10
450.724084
 20
-11.950174
 30
0.0
  0
SPLINE
  5
10e
100
AcDbEntity
  8
Layer_1
 62
7
100
AcDbSpline
 70
8
 71
3
 72
8
 73
4
 74
0
 40
0
 40
0
 40
0
 40
0
 40
1
 40
1
 40
1
 40
1
 10
450.724084
 20
-11.950174
 30
0.0
 10
451.497766
 20
-11.503320
 30
0.0
 10
451.974168
 20
-10.677546
 30
0.0
 10
451.973730
 20
-9.784090
 30
0.0
  0
LWPOLYLINE
  5
10f
100
AcDbEntity
  8
Layer_1
 62
7
100
AcDbPolyline
 90
1
 70
1
 10
649.726200
 20
-173.787270
 30
0.0
  0
SPLINE
  5
110
100
AcDbEntity
  8
Layer_1
 62
7
100
AcDbSpline
 70
8
 71
3
 72
8
 73
4
 74
0
 40
0
 40
0
 40
0
 40
0
 40
1
 40
1
 40
1
 40
1
 10
451.973730
 20
-189.784090
 30
0.0
 10
451.974168
 20
-188.890634
 30
0.0
 10
451.497766
 20
-188.064860
 30
0.0
 10
450.724084
 20
-187.618006
 30
0.0
  0
SPLINE
  5
111
100
AcDbEntity
  8
Layer_1
 62
7
100
AcDbSpline
 70
8
 71
3
 72
8
 73
4
 74
0
 40
0
 40
0
 40
0
 40
0
 40
1
 40
1
 40
1
 40
1
 10
450.724084
 20
-187.618006
 30
0.0
 10
449.950401
 20
-187.171151
 30
0.0
 10
448.997059
 20
-187.171151
 30
0.0
 10
448.223376
 20
-187.618006
 30
0.0
  0
SPLINE
  5
112
100
AcDbEntity
  8
Layer_1
 62
7
100
AcDbSpline
 70
8
 71
3
 72
8
 73
4
 74
0
 40
0
 40
0
 40
0
 40
0
 40
1
 40
1
 40
1
 40
1
 10
448.223376
 20
-187.618006
 30
0.0
 10
447.449694
 20
-188.064860
 30
0.0
 10
446.973292
 20
-188.890634
 30
0.0
 10
446.973730
 20
-189.784090
 30
0.0
  0
SPLINE
  5
113
100
AcDbEntity
  8
Layer_1
 62
7
100
AcDbSpline
 70
8
 71
3
 72
8
 73
4
 74
0
 40
0
 40
0
 40
0
 40
0
 40
1
 40
1
 40
1
 40
1
 10
446.973730
 20
-189.784090
 30
0.0
 10
446.973292
 20
-190.677546
 30
0.0
 10
447.449694
 20
-191.503320
 30
0.0
 10
448.223376
 20
-191.950174
 30
0.0
  0
SPLINE
  5
114
100
AcDbEntity
  8
Layer_1
 62
7
100
AcDbSpline
 70
8
 71
3
 72
8
 73
4
 74
0
 40
0
 40
0
 40
0
 40
0
 40
1
 40
1
 40
1
 40
1
 10
448.223376
 20
-191.950174
 30
0.0
 10
448.997059
 20
-192.397029
 30
0.0
 10
449.950401
 20
-192.397029
 30
0.0
 10
450.724084
 20
-191.950174
 30
0.0
  0
SPLINE
  5
115
100
AcDbEntity
  8
Layer_1
 62
7
100
AcDbSpline
 70
8
 71
3
 72
8
 73
4
 74
0
 40
0
 40
0
 40
0
 40
0
 40
1
 40
1
 40
1
 40
1
 10
450.724084
 20
-191.950174
 30
0.0
 10
451.497766
 20
-191.503320
 30
0.0
 10
451.974168
 20
-190.677546
 30
0.0
 10
451.973730
 20
-189.784090
 30
0.0
  0
LWPOLYLINE
  5
116
100
AcDbEntity
  8
Layer_1
 62
7
100
AcDbPolyline
 90
1
 70
1
 10
451.973730
 20
-9.784090
 30
0.0
  0
SPLINE
  5
117
100
AcDbEntity
  8
Layer_1
 62
7
100
AcDbSpline
 70
8
 71
3
 72
8
 73
4
 74
0
 40
0
 40
0
 40
0
 40
0
 40
1
 40
1
 40
1
 40
1
 10
451.973730
 20
-169.784090
 30
0.0
 10
451.974168
 20
-168.890634
 30
0.0
 10
451.497766
 20
-168.064860
 30
0.0
 10
450.724084
 20
-167.618006
 30
0.0
  0
SPLINE
  5
118
100
AcDbEntity
  8
Layer_1
 62
7
100
AcDbSpline
 70
8
 71
3
 72
8
 73
4
 74
0
 40
0
 40
0
 40
0
 40
0
 40
1
 40
1
 40
1
 40
1
 10
450.724084
 20
-167.618006
 30
0.0
 10
449.950401
 20
-167.171151
 30
0.0
 10
448.997059
 20
-167.171151
 30
0.0
 10
448.223376
 20
-167.618006
 30
0.0
  0
SPLINE
  5
119
100
AcDbEntity
  8
Layer_1
 62
7
100
AcDbSpline
 70
8
 71
3
 72
8
 73
4
 74
0
 40
0
 40
0
 40
0
 40
0
 40
1
 40
1
 40
1
 40
1
 10
448.223376
 20
-167.618006
 30
0.0
 10
447.449694
 20
-168.064860
 30
0.0
 10
446.973292
 20
-168.890634
 30
0.0
 10
446.973730
 20
-169.784090
 30
0.0
  0
SPLINE
  5
11a
100
AcDbEntity
  8
Layer_1
 62
7
100
AcDbSpline
 70
8
 71
3
 72
8
 73
4
 74
0
 40
0
 40
0
 40
0
 40
0
 40
1
 40
1
 40
1
 40
1
 10
446.973730
 20
-169.784090
 30
0.0
 10
446.973292
 20
-170.677546
 30
0.0
 10
447.449694
 20
-171.503320
 30
0.0
 10
448.223376
 20
-171.950174
 30
0.0
  0
SPLINE
  5
11b
100
AcDbEntity
  8
Layer_1
 62
7
100
AcDbSpline
 70
8
 71
3
 72
8
 73
4
 74
0
 40
0
 40
0
 40
0
 40
0
 40
1
 40
1
 40
1
 40
1
 10
448.223376
 20
-171.950174
 30
0.0
 10
448.997059
 20
-172.397029
 30
0.0
 10
449.950401
 20
-172.397029
 30
0.0
 10
450.724084
 20
-171.950174
 30
0.0
  0
SPLINE
  5
11c
100
AcDbEntity
  8
Layer_1
 62
7
100
AcDbSpline
 70
8
 71
3
 72
8
 73
4
 74
0
 40
0
 40
0
 40
0
 40
0
 40
1
 40
1
 40
1
 40
1
 10
450.724084
 20
-171.950174
 30
0.0
 10
451.497766
 20
-171.503320
 30
0.0
 10
451.974168
 20
-170.677546
 30
0.0
 10
451.973730
 20
-169.784090
 30
0.0
  0
LWPOLYLINE
  5
11d
100
AcDbEntity
  8
Layer_1
 62
7
100
AcDbPolyline
 90
1
 70
1
 10
451.973730
 20
-189.784090
 30
0.0
  0
SPLINE
  5
11e
100
AcDbEntity
  8
Layer_1
 62
7
100
AcDbSpline
 70
8
 71
3
 72
8
 73
4
 74
0
 40
0
 40
0
 40
0
 40
0
 40
1
 40
1
 40
1
 40
1
 10
451.973730
 20
-89.784090
 30
0.0
 10
451.974168
 20
-88.890634
 30
0.0
 10
451.497766
 20
-88.064860
 30
0.0
 10
450.724084
 20
-87.618006
 30
0.0
  0
SPLINE
  5
11f
100
AcDbEntity
  8
Layer_1
 62
7
100
AcDbSpline
 70
8
 71
3
 72
8
 73
4
 74
0
 40
0
 40
0
 40
0
 40
0
 40
1
 40
1
 40
1
 40
1
 10
450.724084
 20
-87.618006
 30
0.0
 10
449.950401
 20
-87.171151
 30
0.0
 10
448.997059
 20
-87.171151
 30
0.0
 10
448.223376
 20
-87.618006
 30
0.0
  0
SPLINE
  5
120
100
AcDbEntity
  8
Layer_1
 62
7
100
AcDbSpline
 70
8
 71
3
 72
8
 73
4
 74
0
 40
0
 40
0
 40
0
 40
0
 40
1
 40
1
 40
1
 40
1
 10
448.223376
 20
-87.618006
 30
0.0
 10
447.449694
 20
-88.064860
 30
0.0
 10
446.973292
 20
-88.890634
 30
0.0
 10
446.973730
 20
-89.784090
 30
0.0
  0
SPLINE
  5
121
100
AcDbEntity
  8
Layer_1
 62
7
100
AcDbSpline
 70
8
 71
3
 72
8
 73
4
 74
0
 40
0
 40
0
 40
0
 40
0
 40
1
 40
1
 40
1
 40
1
 10
446.973730
 20
-89.784090
 30
0.0
 10
446.973292
 20
-90.677546
 30
0.0
 10
447.449694
 20
-91.503320
 30
0.0
 10
448.223376
 20
-91.950174
 30
0.0
  0
SPLINE
  5
122
100
AcDbEntity
  8
Layer_1
 62
7
100
AcDbSpline
 70
8
 71
3
 72
8
 73
4
 74
0
 40
0
 40
0
 40
0
 40
0
 40
1
 40
1
 40
1
 40
1
 10
448.223376
 20
-91.950174
 30
0.0
 10
448.997059
 20
-92.397029
 30
0.0
 10
449.950401
 20
-92.397029
 30
0.0
 10
450.724084
 20
-91.950174
 30
0.0
  0
SPLINE
  5
123
100
AcDbEntity
  8
Layer_1
 62
7
100
AcDbSpline
 70
8
 71
3
 72
8
 73
4
 74
0
 40
0
 40
0
 40
0
 40
0
 40
1
 40
1
 40
1
 40
1
 10
450.724084
 20
-91.950174
 30
0.0
 10
451.497766
 20
-91.503320
 30
0.0
 10
451.974168
 20
-90.677546
 30
0.0
 10
451.973730
 20
-89.784090
 30
0.0
  0
LWPOLYLINE
  5
124
100
AcDbEntity
  8
Layer_1
 62
7
100
AcDbPolyline
 90
1
 70
1
 10
451.973730
 20
-169.784090
 30
0.0
  0
SPLINE
  5
125
100
AcDbEntity
  8
Layer_1
 62
7
100
AcDbSpline
 70
8
 71
3
 72
8
 73
4
 74
0
 40
0
 40
0
 40
0
 40
0
 40
1
 40
1
 40
1
 40
1
 10
652.226200
 20
-189.787280
 30
0.0
 10
652.227989
 20
-188.892927
 30
0.0
 10
651.751884
 20
-188.065744
 30
0.0
 10
650.977648
 20
-187.618050
 30
0.0
  0
SPLINE
  5
126
100
AcDbEntity
  8
Layer_1
 62
7
100
AcDbSpline
 70
8
 71
3
 72
8
 73
4
 74
0
 40
0
 40
0
 40
0
 40
0
 40
1
 40
1
 40
1
 40
1
 10
650.977648
 20
-187.618050
 30
0.0
 10
650.203412
 20
-187.170357
 30
0.0
 10
649.248998
 20
-187.170357
 30
0.0
 10
648.474762
 20
-187.618050
 30
0.0
  0
SPLINE
  5
127
100
AcDbEntity
  8
Layer_1
 62
7
100
AcDbSpline
 70
8
 71
3
 72
8
 73
4
 74
0
 40
0
 40
0
 40
0
 40
0
 40
1
 40
1
 40
1
 40
1
 10
648.474762
 20
-187.618050
 30
0.0
 10
647.700526
 20
-188.065744
 30
0.0
 10
647.224421
 20
-188.892927
 30
0.0
 10
647.226210
 20
-189.787280
 30
0.0
  0
SPLINE
  5
128
100
AcDbEntity
  8
Layer_1
 62
7
100
AcDbSpline
 70
8
 71
3
 72
8
 73
4
 74
0
 40
0
 40
0
 40
0
 40
0
 40
1
 40
1
 40
1
 40
1
 10
647.226210
 20
-189.787280
 30
0.0
 10
647.224421
 20
-190.681633
 30
0.0
 10
647.700526
 20
-191.508816
 30
0.0
 10
648.474762
 20
-191.956510
 30
0.0
  0
SPLINE
  5
129
100
AcDbEntity
  8
Layer_1
 62
7
100
AcDbSpline
 70
8
 71
3
 72
8
 73
4
 74
0
 40
0
 40
0
 40
0
 40
0
 40
1
 40
1
 40
1
 40
1
 10
648.474762
 20
-191.956510
 30
0.0
 10
649.248998
 20
-192.404203
 30
0.0
 10
650.203412
 20
-192.404203
 30
0.0
 10
650.977648
 20
-191.956510
 30
0.0
  0
SPLINE
  5
12a
100
AcDbEntity
  8
Layer_1
 62
7
100
AcDbSpline
 70
8
 71
3
 72
8
 73
4
 74
0
 40
0
 40
0
 40
0
 40
0
 40
1
 40
1
 40
1
 40
1
 10
650.977648
 20
-191.956510
 30
0.0
 10
651.751884
 20
-191.508816
 30
0.0
 10
652.227989
 20
-190.681633
 30
0.0
 10
652.226200
 20
-189.787280
 30
0.0
  0
LWPOLYLINE
  5
12b
100
AcDbEntity
  8
Layer_1
 62
7
100
AcDbPolyline
 90
1
 70
1
 10
451.973730
 20
-89.784090
 30
0.0
  0
SPLINE
  5
12c
100
AcDbEntity
  8
Layer_1
 62
7
100
AcDbSpline
 70
8
 71
3
 72
8
 73
4
 74
0
 40
0
 40
0
 40
0
 40
0
 40
1
 40
1
 40
1
 40
1
 10
552.226190
 20
-189.787280
 30
0.0
 10
552.227979
 20
-188.892927
 30
0.0
 10
551.751874
 20
-188.065744
 30
0.0
 10
550.977638
 20
-187.618050
 30
0.0
  0
SPLINE
  5
12d
100
AcDbEntity
  8
Layer_1
 62
7
100
AcDbSpline
 70
8
 71
3
 72
8
 73
4
 74
0
 40
0
 40
0
 40
0
 40
0
 40
1
 40
1
 40
1
 40
1
 10
550.977638
 20
-187.618050
 30
0.0
 10
550.203402
 20
-187.170357
 30
0.0
 10
549.248988
 20
-187.170357
 30
0.0
 10
548.474752
 20
-187.618050
 30
0.0
  0
SPLINE
  5
12e
100
AcDbEntity
  8
Layer_1
 62
7
100
AcDbSpline
 70
8
 71
3
 72
8
 73
4
 74
0
 40
0
 40
0
 40
0
 40
0
 40
1
 40
1
 40
1
 40
1
 10
548.474752
 20
-187.618050
 30
0.0
 10
547.700516
 20
-188.065744
 30
0.0
 10
547.224411
 20
-188.892927
 30
0.0
 10
547.226200
 20
-189.787280
 30
0.0
  0
SPLINE
  5
12f
100
AcDbEntity
  8
Layer_1
 62
7
100
AcDbSpline
 70
8
 71
3
 72
8
 73
4
 74
0
 40
0
 40
0
 40
0
 40
0
 40
1
 40
1
 40
1
 40
1
 10
547.226200
 20
-189.787280
 30
0.0
 10
547.224411
 20
-190.681633
 30
0.0
 10
547.700516
 20
-191.508816
 30
0.0
 10
548.474752
 20
-191.956510
 30
0.0
  0
SPLINE
  5
130
100
AcDbEntity
  8
Layer_1
 62
7
100
AcDbSpline
 70
8
 71
3
 72
8
 73
4
 74
0
 40
0
 40
0
 40
0
 40
0
 40
1
 40
1
 40
1
 40
1
 10
548.474752
 20
-191.956510
 30
0.0
 10
549.248988
 20
-192.404203
 30
0.0
 10
550.203402
 20
-192.404203
 30
0.0
 10
550.977638
 20
-191.956510
 30
0.0
  0
SPLINE
  5
131
100
AcDbEntity
  8
Layer_1
 62
7
100
AcDbSpline
 70
8
 71
3
 72
8
 73
4
 74
0
 40
0
 40
0
 40
0
 40
0
 40
1
 40
1
 40
1
 40
1
 10
550.977638
 20
-191.956510
 30
0.0
 10
551.751874
 20
-191.508816
 30
0.0
 10
552.227979
 20
-190.681633
 30
0.0
 10
552.226190
 20
-189.787280
 30
0.0
  0
LWPOLYLINE
  5
132
100
AcDbEntity
  8
Layer_1
 62
7
100
AcDbPolyline
 90
1
 70
1
 10
652.226200
 20
-189.787280
 30
0.0
  0
LWPOLYLINE
  5
133
100
AcDbEntity
  8
Layer_1
 62
7
100
AcDbPolyline
 90
1
 70
1
 10
552.226190
 20
-189.787280
 30
0.0
  0
SPLINE
  5
134
100
AcDbEntity
  8
Layer_1
 62
7
100
AcDbSpline
 70
8
 71
3
 72
8
 73
4
 74
0
 40
0
 40
0
 40
0
 40
0
 40
1
 40
1
 40
1
 40
1
 10
439.473730
 20
-189.784090
 30
0.0
 10
439.473730
 20
-192.436255
 30
0.0
 10
440.527298
 20
-194.979794
 30
0.0
 10
442.402662
 20
-196.855158
 30
0.0
  0
SPLINE
  5
135
100
AcDbEntity
  8
Layer_1
 62
7
100
AcDbSpline
 70
8
 71
3
 72
8
 73
4
 74
0
 40
0
 40
0
 40
0
 40
0
 40
1
 40
1
 40
1
 40
1
 10
442.402662
 20
-196.855158
 30
0.0
 10
444.278026
 20
-198.730522
 30
0.0
 10
446.821565
 20
-199.784090
 30
0.0
 10
449.473730
 20
-199.784090
 30
0.0
  0
LWPOLYLINE
  5
136
100
AcDbEntity
  8
Layer_1
 62
7
100
AcDbPolyline
 90
2
 70
0
 10
439.473730
 20
-9.784090
 30
0.0
 10
439.473730
 20
-189.784090
 30
0.0
  0
SPLINE
  5
137
100
AcDbEntity
  8
Layer_1
 62
7
100
AcDbSpline
 70
8
 71
3
 72
8
 73
4
 74
0
 40
0
 40
0
 40
0
 40
0
 40
1
 40
1
 40
1
 40
1
 10
449.473730
 20
0.215910
 30
0.0
 10
446.821565
 20
0.215910
 30
0.0
 10
444.278026
 20
-0.837658
 30
0.0
 10
442.402662
 20
-2.713022
 30
0.0
  0
SPLINE
  5
138
100
AcDbEntity
  8
Layer_1
 62
7
100
AcDbSpline
 70
8
 71
3
 72
8
 73
4
 74
0
 40
0
 40
0
 40
0
 40
0
 40
1
 40
1
 40
1
 40
1
 10
442.402662
 20
-2.713022
 30
0.0
 10
440.527298
 20
-4.588386
 30
0.0
 10
439.473730
 20
-7.131925
 30
0.0
 10
439.473730
 20
-9.784090
 30
0.0
  0
SPLINE
  5
139
100
AcDbEntity
  8
Layer_1
 62
7
100
AcDbSpline
 70
8
 71
3
 72
8
 73
4
 74
0
 40
0
 40
0
 40
0
 40
0
 40
1
 40
1
 40
1
 40
1
 10
659.726180
 20
-173.787270
 30
0.0
 10
659.726185
 20
-169.667652
 30
0.0
 10
658.137192
 20
-165.706780
 30
0.0
 10
655.290050
 20
-162.729360
 30
0.0
  0
LWPOLYLINE
  5
13a
100
AcDbEntity
  8
Layer_1
 62
7
100
AcDbPolyline
 90
2
 70
0
 10
449.473730
 20
0.215910
 30
0.0
 10
499.473730
 20
0.215910
 30
0.0
  0
LWPOLYLINE
  5
13b
100
AcDbEntity
  8
Layer_1
 62
7
100
AcDbPolyline
 90
2
 70
0
 10
643.727540
 20
-179.787280
 30
0.0
 10
643.724540
 20
-179.787280
 30
0.0
  0
LWPOLYLINE
  5
13c
100
AcDbEntity
  8
Layer_1
 62
7
100
AcDbPolyline
 90
2
 70
0
 10
643.727540
 20
-179.787280
 30
0.0
 10
643.724540
 20
-179.787280
 30
0.0
  0
LWPOLYLINE
  5
13d
100
AcDbEntity
  8
Layer_1
 62
7
100
AcDbPolyline
 90
3
 70
0
 10
589.726190
 20
-159.787280
 30
0.0
 10
609.726210
 20
-159.787280
 30
0.0
 10
609.726210
 20
-179.787280
 30
0.0
  0
SPLINE
  5
13e
100
AcDbEntity
  8
Layer_1
 62
7
100
AcDbSpline
 70
8
 71
3
 72
8
 73
4
 74
0
 40
0
 40
0
 40
0
 40
0
 40
1
 40
1
 40
1
 40
1
 10
586.726210
 20
-121.637300
 30
0.0
 10
586.190312
 20
-121.637300
 30
0.0
 10
585.695121
 20
-121.923198
 30
0.0
 10
585.427172
 20
-122.387300
 30
0.0
  0
SPLINE
  5
13f
100
AcDbEntity
  8
Layer_1
 62
7
100
AcDbSpline
 70
8
 71
3
 72
8
 73
4
 74
0
 40
0
 40
0
 40
0
 40
0
 40
1
 40
1
 40
1
 40
1
 10
585.427172
 20
-122.387300
 30
0.0
 10
585.159223
 20
-122.851402
 30
0.0
 10
585.159223
 20
-123.423198
 30
0.0
 10
585.427172
 20
-123.887300
 30
0.0
  0
SPLINE
  5
140
100
AcDbEntity
  8
Layer_1
 62
7
100
AcDbSpline
 70
8
 71
3
 72
8
 73
4
 74
0
 40
0
 40
0
 40
0
 40
0
 40
1
 40
1
 40
1
 40
1
 10
585.427172
 20
-123.887300
 30
0.0
 10
585.695121
 20
-124.351402
 30
0.0
 10
586.190312
 20
-124.637300
 30
0.0
 10
586.726210
 20
-124.637300
 30
0.0
  0
SPLINE
  5
141
100
AcDbEntity
  8
Layer_1
 62
7
100
AcDbSpline
 70
8
 71
3
 72
8
 73
4
 74
0
 40
0
 40
0
 40
0
 40
0
 40
1
 40
1
 40
1
 40
1
 10
586.726210
 20
-124.637300
 30
0.0
 10
586.726210
 20
-124.637300
 30
0.0
 10
591.726200
 20
-124.637300
 30
0.0
 10
591.726200
 20
-124.637300
 30
0.0
  0
SPLINE
  5
142
100
AcDbEntity
  8
Layer_1
 62
7
100
AcDbSpline
 70
8
 71
3
 72
8
 73
4
 74
0
 40
0
 40
0
 40
0
 40
0
 40
1
 40
1
 40
1
 40
1
 10
591.726200
 20
-124.637300
 30
0.0
 10
592.262098
 20
-124.637300
 30
0.0
 10
592.757289
 20
-124.351402
 30
0.0
 10
593.025238
 20
-123.887300
 30
0.0
  0
SPLINE
  5
143
100
AcDbEntity
  8
Layer_1
 62
7
100
AcDbSpline
 70
8
 71
3
 72
8
 73
4
 74
0
 40
0
 40
0
 40
0
 40
0
 40
1
 40
1
 40
1
 40
1
 10
593.025238
 20
-123.887300
 30
0.0
 10
593.293187
 20
-123.423198
 30
0.0
 10
593.293187
 20
-122.851402
 30
0.0
 10
593.025238
 20
-122.387300
 30
0.0
  0
SPLINE
  5
144
100
AcDbEntity
  8
Layer_1
 62
7
100
AcDbSpline
 70
8
 71
3
 72
8
 73
4
 74
0
 40
0
 40
0
 40
0
 40
0
 40
1
 40
1
 40
1
 40
1
 10
593.025238
 20
-122.387300
 30
0.0
 10
592.757289
 20
-121.923198
 30
0.0
 10
592.262098
 20
-121.637300
 30
0.0
 10
591.726200
 20
-121.637300
 30
0.0
  0
LWPOLYLINE
  5
145
100
AcDbEntity
  8
Layer_1
 62
7
100
AcDbPolyline
 90
2
 70
0
 10
591.726200
 20
-121.637300
 30
0.0
 10
586.726210
 20
-121.637300
 30
0.0
  0
SPLINE
  5
146
100
AcDbEntity
  8
Layer_1
 62
7
100
AcDbSpline
 70
8
 71
3
 72
8
 73
4
 74
0
 40
0
 40
0
 40
0
 40
0
 40
1
 40
1
 40
1
 40
1
 10
622.726190
 20
-121.637020
 30
0.0
 10
622.726190
 20
-121.637020
 30
0.0
 10
617.726200
 20
-121.637040
 30
0.0
 10
617.726200
 20
-121.637040
 30
0.0
  0
SPLINE
  5
147
100
AcDbEntity
  8
Layer_1
 62
7
100
AcDbSpline
 70
8
 71
3
 72
8
 73
4
 74
0
 40
0
 40
0
 40
0
 40
0
 40
1
 40
1
 40
1
 40
1
 10
617.726200
 20
-121.637040
 30
0.0
 10
617.190302
 20
-121.637045
 30
0.0
 10
616.695114
 20
-121.922949
 30
0.0
 10
616.427169
 20
-122.387053
 30
0.0
  0
SPLINE
  5
148
100
AcDbEntity
  8
Layer_1
 62
7
100
AcDbSpline
 70
8
 71
3
 72
8
 73
4
 74
0
 40
0
 40
0
 40
0
 40
0
 40
1
 40
1
 40
1
 40
1
 10
616.427169
 20
-122.387053
 30
0.0
 10
616.159225
 20
-122.851157
 30
0.0
 10
616.159231
 20
-123.422954
 30
0.0
 10
616.427184
 20
-123.887053
 30
0.0
  0
SPLINE
  5
149
100
AcDbEntity
  8
Layer_1
 62
7
100
AcDbSpline
 70
8
 71
3
 72
8
 73
4
 74
0
 40
0
 40
0
 40
0
 40
0
 40
1
 40
1
 40
1
 40
1
 10
616.427184
 20
-123.887053
 30
0.0
 10
616.695138
 20
-124.351152
 30
0.0
 10
617.190332
 20
-124.637045
 30
0.0
 10
617.726230
 20
-124.637040
 30
0.0
  0
LWPOLYLINE
  5
14a
100
AcDbEntity
  8
Layer_1
 62
7
100
AcDbPolyline
 90
1
 70
1
 10
591.726200
 20
-121.637300
 30
0.0
  0
SPLINE
  5
14b
100
AcDbEntity
  8
Layer_1
 62
7
100
AcDbSpline
 70
8
 71
3
 72
8
 73
4
 74
0
 40
0
 40
0
 40
0
 40
0
 40
1
 40
1
 40
1
 40
1
 10
622.726190
 20
-124.637020
 30
0.0
 10
623.262088
 20
-124.637020
 30
0.0
 10
623.757279
 20
-124.351122
 30
0.0
 10
624.025228
 20
-123.887020
 30
0.0
  0
SPLINE
  5
14c
100
AcDbEntity
  8
Layer_1
 62
7
100
AcDbSpline
 70
8
 71
3
 72
8
 73
4
 74
0
 40
0
 40
0
 40
0
 40
0
 40
1
 40
1
 40
1
 40
1
 10
624.025228
 20
-123.887020
 30
0.0
 10
624.293177
 20
-123.422918
 30
0.0
 10
624.293177
 20
-122.851122
 30
0.0
 10
624.025228
 20
-122.387020
 30
0.0
  0
SPLINE
  5
14d
100
AcDbEntity
  8
Layer_1
 62
7
100
AcDbSpline
 70
8
 71
3
 72
8
 73
4
 74
0
 40
0
 40
0
 40
0
 40
0
 40
1
 40
1
 40
1
 40
1
 10
624.025228
 20
-122.387020
 30
0.0
 10
623.757279
 20
-121.922918
 30
0.0
 10
623.262088
 20
-121.637020
 30
0.0
 10
622.726190
 20
-121.637020
 30
0.0
  0
LWPOLYLINE
  5
14e
100
AcDbEntity
  8
Layer_1
 62
7
100
AcDbPolyline
 90
2
 70
0
 10
617.726230
 20
-124.637040
 30
0.0
 10
622.726190
 20
-124.637020
 30
0.0
  0
SPLINE
  5
14f
100
AcDbEntity
  8
Layer_1
 62
7
100
AcDbSpline
 70
8
 71
3
 72
8
 73
4
 74
0
 40
0
 40
0
 40
0
 40
0
 40
1
 40
1
 40
1
 40
1
 10
586.726480
 20
-155.637300
 30
0.0
 10
586.726480
 20
-155.637300
 30
0.0
 10
591.726500
 20
-155.637280
 30
0.0
 10
591.726500
 20
-155.637280
 30
0.0
  0
SPLINE
  5
150
100
AcDbEntity
  8
Layer_1
 62
7
100
AcDbSpline
 70
8
 71
3
 72
8
 73
4
 74
0
 40
0
 40
0
 40
0
 40
0
 40
1
 40
1
 40
1
 40
1
 10
591.726500
 20
-155.637280
 30
0.0
 10
592.262398
 20
-155.637280
 30
0.0
 10
592.757589
 20
-155.351382
 30
0.0
 10
593.025538
 20
-154.887280
 30
0.0
  0
SPLINE
  5
151
100
AcDbEntity
  8
Layer_1
 62
7
100
AcDbSpline
 70
8
 71
3
 72
8
 73
4
 74
0
 40
0
 40
0
 40
0
 40
0
 40
1
 40
1
 40
1
 40
1
 10
593.025538
 20
-154.887280
 30
0.0
 10
593.293487
 20
-154.423178
 30
0.0
 10
593.293487
 20
-153.851382
 30
0.0
 10
593.025538
 20
-153.387280
 30
0.0
  0
SPLINE
  5
152
100
AcDbEntity
  8
Layer_1
 62
7
100
AcDbSpline
 70
8
 71
3
 72
8
 73
4
 74
0
 40
0
 40
0
 40
0
 40
0
 40
1
 40
1
 40
1
 40
1
 10
593.025538
 20
-153.387280
 30
0.0
 10
592.757589
 20
-152.923178
 30
0.0
 10
592.262398
 20
-152.637280
 30
0.0
 10
591.726500
 20
-152.637280
 30
0.0
  0
SPLINE
  5
153
100
AcDbEntity
  8
Layer_1
 62
7
100
AcDbSpline
 70
8
 71
3
 72
8
 73
4
 74
0
 40
0
 40
0
 40
0
 40
0
 40
1
 40
1
 40
1
 40
1
 10
591.726500
 20
-152.637280
 30
0.0
 10
591.726500
 20
-152.637280
 30
0.0
 10
586.726450
 20
-152.637300
 30
0.0
 10
586.726450
 20
-152.637300
 30
0.0
  0
SPLINE
  5
154
100
AcDbEntity
  8
Layer_1
 62
7
100
AcDbSpline
 70
8
 71
3
 72
8
 73
4
 74
0
 40
0
 40
0
 40
0
 40
0
 40
1
 40
1
 40
1
 40
1
 10
586.726450
 20
-152.637300
 30
0.0
 10
586.190160
 20
-152.636718
 30
0.0
 10
585.694359
 20
-152.922493
 30
0.0
 10
585.426049
 20
-153.386838
 30
0.0
  0
SPLINE
  5
155
100
AcDbEntity
  8
Layer_1
 62
7
100
AcDbSpline
 70
8
 71
3
 72
8
 73
4
 74
0
 40
0
 40
0
 40
0
 40
0
 40
1
 40
1
 40
1
 40
1
 10
585.426049
 20
-153.386838
 30
0.0
 10
585.157740
 20
-153.851184
 30
0.0
 10
585.157745
 20
-154.423448
 30
0.0
 10
585.426064
 20
-154.887788
 30
0.0
  0
SPLINE
  5
156
100
AcDbEntity
  8
Layer_1
 62
7
100
AcDbSpline
 70
8
 71
3
 72
8
 73
4
 74
0
 40
0
 40
0
 40
0
 40
0
 40
1
 40
1
 40
1
 40
1
 10
585.426064
 20
-154.887788
 30
0.0
 10
585.694384
 20
-155.352128
 30
0.0
 10
586.190190
 20
-155.637893
 30
0.0
 10
586.726480
 20
-155.637300
 30
0.0
  0
LWPOLYLINE
  5
157
100
AcDbEntity
  8
Layer_1
 62
7
100
AcDbPolyline
 90
1
 70
1
 10
622.726190
 20
-121.637020
 30
0.0
  0
SPLINE
  5
158
100
AcDbEntity
  8
Layer_1
 62
7
100
AcDbSpline
 70
8
 71
3
 72
8
 73
4
 74
0
 40
0
 40
0
 40
0
 40
0
 40
1
 40
1
 40
1
 40
1
 10
617.726460
 20
-155.637300
 30
0.0
 10
617.190170
 20
-155.637887
 30
0.0
 10
616.694367
 20
-155.352118
 30
0.0
 10
616.426052
 20
-154.887775
 30
0.0
  0
SPLINE
  5
159
100
AcDbEntity
  8
Layer_1
 62
7
100
AcDbSpline
 70
8
 71
3
 72
8
 73
4
 74
0
 40
0
 40
0
 40
0
 40
0
 40
1
 40
1
 40
1
 40
1
 10
616.426052
 20
-154.887775
 30
0.0
 10
616.157737
 20
-154.423432
 30
0.0
 10
616.157737
 20
-153.851168
 30
0.0
 10
616.426052
 20
-153.386825
 30
0.0
  0
SPLINE
  5
15a
100
AcDbEntity
  8
Layer_1
 62
7
100
AcDbSpline
 70
8
 71
3
 72
8
 73
4
 74
0
 40
0
 40
0
 40
0
 40
0
 40
1
 40
1
 40
1
 40
1
 10
616.426052
 20
-153.386825
 30
0.0
 10
616.694367
 20
-152.922482
 30
0.0
 10
617.190170
 20
-152.636713
 30
0.0
 10
617.726460
 20
-152.637300
 30
0.0
  0
SPLINE
  5
15b
100
AcDbEntity
  8
Layer_1
 62
7
100
AcDbSpline
 70
8
 71
3
 72
8
 73
4
 74
0
 40
0
 40
0
 40
0
 40
0
 40
1
 40
1
 40
1
 40
1
 10
617.726460
 20
-152.637300
 30
0.0
 10
617.726460
 20
-152.637300
 30
0.0
 10
622.726480
 20
-152.637280
 30
0.0
 10
622.726480
 20
-152.637280
 30
0.0
  0
SPLINE
  5
15c
100
AcDbEntity
  8
Layer_1
 62
7
100
AcDbSpline
 70
8
 71
3
 72
8
 73
4
 74
0
 40
0
 40
0
 40
0
 40
0
 40
1
 40
1
 40
1
 40
1
 10
622.726480
 20
-152.637280
 30
0.0
 10
623.262378
 20
-152.637280
 30
0.0
 10
623.757569
 20
-152.923178
 30
0.0
 10
624.025518
 20
-153.387280
 30
0.0
  0
SPLINE
  5
15d
100
AcDbEntity
  8
Layer_1
 62
7
100
AcDbSpline
 70
8
 71
3
 72
8
 73
4
 74
0
 40
0
 40
0
 40
0
 40
0
 40
1
 40
1
 40
1
 40
1
 10
624.025518
 20
-153.387280
 30
0.0
 10
624.293467
 20
-153.851382
 30
0.0
 10
624.293467
 20
-154.423178
 30
0.0
 10
624.025518
 20
-154.887280
 30
0.0
  0
SPLINE
  5
15e
100
AcDbEntity
  8
Layer_1
 62
7
100
AcDbSpline
 70
8
 71
3
 72
8
 73
4
 74
0
 40
0
 40
0
 40
0
 40
0
 40
1
 40
1
 40
1
 40
1
 10
624.025518
 20
-154.887280
 30
0.0
 10
623.757569
 20
-155.351382
 30
0.0
 10
623.262378
 20
-155.637280
 30
0.0
 10
622.726480
 20
-155.637280
 30
0.0
  0
LWPOLYLINE
  5
15f
100
AcDbEntity
  8
Layer_1
 62
7
100
AcDbPolyline
 90
1
 70
1
 10
586.726480
 20
-155.637300
 30
0.0
  0
SPLINE
  5
160
100
AcDbEntity
  8
Layer_1
 62
7
100
AcDbSpline
 70
8
 71
3
 72
8
 73
4
 74
0
 40
0
 40
0
 40
0
 40
0
 40
1
 40
1
 40
1
 40
1
 10
605.976210
 20
-125.195150
 30
0.0
 10
611.076698
 20
-124.720799
 30
0.0
 10
616.006268
 20
-127.174043
 30
0.0
 10
618.703427
 20
-131.528961
 30
0.0
  0
SPLINE
  5
161
100
AcDbEntity
  8
Layer_1
 62
7
100
AcDbSpline
 70
8
 71
3
 72
8
 73
4
 74
0
 40
0
 40
0
 40
0
 40
0
 40
1
 40
1
 40
1
 40
1
 10
618.703427
 20
-131.528961
 30
0.0
 10
621.400586
 20
-135.883880
 30
0.0
 10
621.400635
 20
-141.390155
 30
0.0
 10
618.703554
 20
-145.745122
 30
0.0
  0
SPLINE
  5
162
100
AcDbEntity
  8
Layer_1
 62
7
100
AcDbSpline
 70
8
 71
3
 72
8
 73
4
 74
0
 40
0
 40
0
 40
0
 40
0
 40
1
 40
1
 40
1
 40
1
 10
618.703554
 20
-145.745122
 30
0.0
 10
616.006472
 20
-150.100088
 30
0.0
 10
611.076946
 20
-152.553420
 30
0.0
 10
605.976450
 20
-152.079160
 30
0.0
  0
SPLINE
  5
163
100
AcDbEntity
  8
Layer_1
 62
7
100
AcDbSpline
 70
8
 71
3
 72
8
 73
4
 74
0
 40
0
 40
0
 40
0
 40
0
 40
1
 40
1
 40
1
 40
1
 10
605.976450
 20
-152.079160
 30
0.0
 10
605.144878
 20
-152.156496
 30
0.0
 10
604.307923
 20
-152.156499
 30
0.0
 10
603.476350
 20
-152.079170
 30
0.0
  0
SPLINE
  5
164
100
AcDbEntity
  8
Layer_1
 62
7
100
AcDbSpline
 70
8
 71
3
 72
8
 73
4
 74
0
 40
0
 40
0
 40
0
 40
0
 40
1
 40
1
 40
1
 40
1
 10
603.476350
 20
-152.079170
 30
0.0
 10
598.375858
 20
-152.553476
 30
0.0
 10
593.446310
 20
-150.100188
 30
0.0
 10
590.749190
 20
-145.745245
 30
0.0
  0
SPLINE
  5
165
100
AcDbEntity
  8
Layer_1
 62
7
100
AcDbSpline
 70
8
 71
3
 72
8
 73
4
 74
0
 40
0
 40
0
 40
0
 40
0
 40
1
 40
1
 40
1
 40
1
 10
590.749190
 20
-145.745245
 30
0.0
 10
588.052069
 20
-141.390303
 30
0.0
 10
588.052069
 20
-135.884027
 30
0.0
 10
590.749190
 20
-131.529085
 30
0.0
  0
SPLINE
  5
166
100
AcDbEntity
  8
Layer_1
 62
7
100
AcDbSpline
 70
8
 71
3
 72
8
 73
4
 74
0
 40
0
 40
0
 40
0
 40
0
 40
1
 40
1
 40
1
 40
1
 10
590.749190
 20
-131.529085
 30
0.0
 10
593.446310
 20
-127.174142
 30
0.0
 10
598.375858
 20
-124.720854
 30
0.0
 10
603.476350
 20
-125.195160
 30
0.0
  0
SPLINE
  5
167
100
AcDbEntity
  8
Layer_1
 62
7
100
AcDbSpline
 70
8
 71
3
 72
8
 73
4
 74
0
 40
0
 40
0
 40
0
 40
0
 40
1
 40
1
 40
1
 40
1
 10
603.476350
 20
-125.195160
 30
0.0
 10
604.307843
 20
-125.117839
 30
0.0
 10
605.144717
 20
-125.117835
 30
0.0
 10
605.976210
 20
-125.195150
 30
0.0
  0
LWPOLYLINE
  5
168
100
AcDbEntity
  8
Layer_1
 62
7
100
AcDbPolyline
 90
2
 70
0
 10
622.726480
 20
-155.637280
 30
0.0
 10
617.726460
 20
-155.637300
 30
0.0
  0
SPLINE
  5
169
100
AcDbEntity
  8
Layer_1
 62
7
100
AcDbSpline
 70
8
 71
3
 72
8
 73
4
 74
0
 40
0
 40
0
 40
0
 40
0
 40
1
 40
1
 40
1
 40
1
 10
623.590350
 20
-129.579320
 30
0.0
 10
626.372325
 20
-129.206151
 30
0.0
 10
628.600507
 20
-127.089369
 30
0.0
 10
629.115745
 20
-124.330172
 30
0.0
  0
SPLINE
  5
16a
100
AcDbEntity
  8
Layer_1
 62
7
100
AcDbSpline
 70
8
 71
3
 72
8
 73
4
 74
0
 40
0
 40
0
 40
0
 40
0
 40
1
 40
1
 40
1
 40
1
 10
629.115745
 20
-124.330172
 30
0.0
 10
629.630983
 20
-121.570975
 30
0.0
 10
628.316874
 20
-118.792724
 30
0.0
 10
625.857048
 20
-117.440728
 30
0.0
  0
SPLINE
  5
16b
100
AcDbEntity
  8
Layer_1
 62
7
100
AcDbSpline
 70
8
 71
3
 72
8
 73
4
 74
0
 40
0
 40
0
 40
0
 40
0
 40
1
 40
1
 40
1
 40
1
 10
625.857048
 20
-117.440728
 30
0.0
 10
623.397221
 20
-116.088732
 30
0.0
 10
620.347404
 20
-116.468437
 30
0.0
 10
618.294180
 20
-118.382310
 30
0.0
  0
LWPOLYLINE
  5
16c
100
AcDbEntity
  8
Layer_1
 62
7
100
AcDbPolyline
 90
1
 70
1
 10
605.976210
 20
-125.195150
 30
0.0
  0
LWPOLYLINE
  5
16d
100
AcDbEntity
  8
Layer_1
 62
7
100
AcDbPolyline
 90
2
 70
0
 10
612.883240
 20
-118.382340
 30
0.0
 10
618.294180
 20
-118.382310
 30
0.0
  0
SPLINE
  5
16e
100
AcDbEntity
  8
Layer_1
 62
7
100
AcDbSpline
 70
8
 71
3
 72
8
 73
4
 74
0
 40
0
 40
0
 40
0
 40
0
 40
1
 40
1
 40
1
 40
1
 10
480.973730
 20
-164.784090
 30
0.0
 10
480.974317
 20
-164.247800
 30
0.0
 10
480.688548
 20
-163.751997
 30
0.0
 10
480.224205
 20
-163.483682
 30
0.0
  0
SPLINE
  5
16f
100
AcDbEntity
  8
Layer_1
 62
7
100
AcDbSpline
 70
8
 71
3
 72
8
 73
4
 74
0
 40
0
 40
0
 40
0
 40
0
 40
1
 40
1
 40
1
 40
1
 10
480.224205
 20
-163.483682
 30
0.0
 10
479.759862
 20
-163.215367
 30
0.0
 10
479.187598
 20
-163.215367
 30
0.0
 10
478.723255
 20
-163.483682
 30
0.0
  0
SPLINE
  5
170
100
AcDbEntity
  8
Layer_1
 62
7
100
AcDbSpline
 70
8
 71
3
 72
8
 73
4
 74
0
 40
0
 40
0
 40
0
 40
0
 40
1
 40
1
 40
1
 40
1
 10
478.723255
 20
-163.483682
 30
0.0
 10
478.258912
 20
-163.751997
 30
0.0
 10
477.973143
 20
-164.247800
 30
0.0
 10
477.973730
 20
-164.784090
 30
0.0
  0
SPLINE
  5
171
100
AcDbEntity
  8
Layer_1
 62
7
100
AcDbSpline
 70
8
 71
3
 72
8
 73
4
 74
0
 40
0
 40
0
 40
0
 40
0
 40
1
 40
1
 40
1
 40
1
 10
477.973730
 20
-164.784090
 30
0.0
 10
477.973143
 20
-165.320380
 30
0.0
 10
478.258912
 20
-165.816183
 30
0.0
 10
478.723255
 20
-166.084498
 30
0.0
  0
SPLINE
  5
172
100
AcDbEntity
  8
Layer_1
 62
7
100
AcDbSpline
 70
8
 71
3
 72
8
 73
4
 74
0
 40
0
 40
0
 40
0
 40
0
 40
1
 40
1
 40
1
 40
1
 10
478.723255
 20
-166.084498
 30
0.0
 10
479.187598
 20
-166.352813
 30
0.0
 10
479.759862
 20
-166.352813
 30
0.0
 10
480.224205
 20
-166.084498
 30
0.0
  0
SPLINE
  5
173
100
AcDbEntity
  8
Layer_1
 62
7
100
AcDbSpline
 70
8
 71
3
 72
8
 73
4
 74
0
 40
0
 40
0
 40
0
 40
0
 40
1
 40
1
 40
1
 40
1
 10
480.224205
 20
-166.084498
 30
0.0
 10
480.688548
 20
-165.816183
 30
0.0
 10
480.974317
 20
-165.320380
 30
0.0
 10
480.973730
 20
-164.784090
 30
0.0
  0
LWPOLYLINE
  5
174
100
AcDbEntity
  8
Layer_1
 62
7
100
AcDbPolyline
 90
2
 70
0
 10
623.590350
 20
-129.579320
 30
0.0
 10
655.290050
 20
-162.729360
 30
0.0
  0
SPLINE
  5
175
100
AcDbEntity
  8
Layer_1
 62
7
100
AcDbSpline
 70
8
 71
3
 72
8
 73
4
 74
0
 40
0
 40
0
 40
0
 40
0
 40
1
 40
1
 40
1
 40
1
 10
557.073730
 20
-164.784090
 30
0.0
 10
557.073730
 20
-164.248190
 30
0.0
 10
556.787831
 20
-163.752998
 30
0.0
 10
556.323728
 20
-163.485048
 30
0.0
  0
SPLINE
  5
176
100
AcDbEntity
  8
Layer_1
 62
7
100
AcDbSpline
 70
8
 71
3
 72
8
 73
4
 74
0
 40
0
 40
0
 40
0
 40
0
 40
1
 40
1
 40
1
 40
1
 10
556.323728
 20
-163.485048
 30
0.0
 10
555.859624
 20
-163.217097
 30
0.0
 10
555.287826
 20
-163.217097
 30
0.0
 10
554.823723
 20
-163.485048
 30
0.0
  0
SPLINE
  5
177
100
AcDbEntity
  8
Layer_1
 62
7
100
AcDbSpline
 70
8
 71
3
 72
8
 73
4
 74
0
 40
0
 40
0
 40
0
 40
0
 40
1
 40
1
 40
1
 40
1
 10
554.823723
 20
-163.485048
 30
0.0
 10
554.359619
 20
-163.752998
 30
0.0
 10
554.073720
 20
-164.248190
 30
0.0
 10
554.073720
 20
-164.784090
 30
0.0
  0
SPLINE
  5
178
100
AcDbEntity
  8
Layer_1
 62
7
100
AcDbSpline
 70
8
 71
3
 72
8
 73
4
 74
0
 40
0
 40
0
 40
0
 40
0
 40
1
 40
1
 40
1
 40
1
 10
554.073720
 20
-164.784090
 30
0.0
 10
554.073720
 20
-165.319990
 30
0.0
 10
554.359619
 20
-165.815182
 30
0.0
 10
554.823723
 20
-166.083132
 30
0.0
  0
SPLINE
  5
179
100
AcDbEntity
  8
Layer_1
 62
7
100
AcDbSpline
 70
8
 71
3
 72
8
 73
4
 74
0
 40
0
 40
0
 40
0
 40
0
 40
1
 40
1
 40
1
 40
1
 10
554.823723
 20
-166.083132
 30
0.0
 10
555.287826
 20
-166.351083
 30
0.0
 10
555.859624
 20
-166.351083
 30
0.0
 10
556.323728
 20
-166.083132
 30
0.0
  0
SPLINE
  5
17a
100
AcDbEntity
  8
Layer_1
 62
7
100
AcDbSpline
 70
8
 71
3
 72
8
 73
4
 74
0
 40
0
 40
0
 40
0
 40
0
 40
1
 40
1
 40
1
 40
1
 10
556.323728
 20
-166.083132
 30
0.0
 10
556.787831
 20
-165.815182
 30
0.0
 10
557.073730
 20
-165.319990
 30
0.0
 10
557.073730
 20
-164.784090
 30
0.0
  0
LWPOLYLINE
  5
17b
100
AcDbEntity
  8
Layer_1
 62
7
100
AcDbPolyline
 90
1
 70
1
 10
480.973730
 20
-164.784090
 30
0.0
  0
SPLINE
  5
17c
100
AcDbEntity
  8
Layer_1
 62
7
100
AcDbSpline
 70
8
 71
3
 72
8
 73
4
 74
0
 40
0
 40
0
 40
0
 40
0
 40
1
 40
1
 40
1
 40
1
 10
480.973730
 20
-62.934090
 30
0.0
 10
480.974317
 20
-62.397800
 30
0.0
 10
480.688548
 20
-61.901997
 30
0.0
 10
480.224205
 20
-61.633682
 30
0.0
  0
SPLINE
  5
17d
100
AcDbEntity
  8
Layer_1
 62
7
100
AcDbSpline
 70
8
 71
3
 72
8
 73
4
 74
0
 40
0
 40
0
 40
0
 40
0
 40
1
 40
1
 40
1
 40
1
 10
480.224205
 20
-61.633682
 30
0.0
 10
479.759862
 20
-61.365367
 30
0.0
 10
479.187598
 20
-61.365367
 30
0.0
 10
478.723255
 20
-61.633682
 30
0.0
  0
SPLINE
  5
17e
100
AcDbEntity
  8
Layer_1
 62
7
100
AcDbSpline
 70
8
 71
3
 72
8
 73
4
 74
0
 40
0
 40
0
 40
0
 40
0
 40
1
 40
1
 40
1
 40
1
 10
478.723255
 20
-61.633682
 30
0.0
 10
478.258912
 20
-61.901997
 30
0.0
 10
477.973143
 20
-62.397800
 30
0.0
 10
477.973730
 20
-62.934090
 30
0.0
  0
SPLINE
  5
17f
100
AcDbEntity
  8
Layer_1
 62
7
100
AcDbSpline
 70
8
 71
3
 72
8
 73
4
 74
0
 40
0
 40
0
 40
0
 40
0
 40
1
 40
1
 40
1
 40
1
 10
477.973730
 20
-62.934090
 30
0.0
 10
477.973143
 20
-63.470380
 30
0.0
 10
478.258912
 20
-63.966183
 30
0.0
 10
478.723255
 20
-64.234498
 30
0.0
  0
SPLINE
  5
180
100
AcDbEntity
  8
Layer_1
 62
7
100
AcDbSpline
 70
8
 71
3
 72
8
 73
4
 74
0
 40
0
 40
0
 40
0
 40
0
 40
1
 40
1
 40
1
 40
1
 10
478.723255
 20
-64.234498
 30
0.0
 10
479.187598
 20
-64.502813
 30
0.0
 10
479.759862
 20
-64.502813
 30
0.0
 10
480.224205
 20
-64.234498
 30
0.0
  0
SPLINE
  5
181
100
AcDbEntity
  8
Layer_1
 62
7
100
AcDbSpline
 70
8
 71
3
 72
8
 73
4
 74
0
 40
0
 40
0
 40
0
 40
0
 40
1
 40
1
 40
1
 40
1
 10
480.224205
 20
-64.234498
 30
0.0
 10
480.688548
 20
-63.966183
 30
0.0
 10
480.974317
 20
-63.470380
 30
0.0
 10
480.973730
 20
-62.934090
 30
0.0
  0
LWPOLYLINE
  5
182
100
AcDbEntity
  8
Layer_1
 62
7
100
AcDbPolyline
 90
1
 70
1
 10
557.073730
 20
-164.784090
 30
0.0
  0
SPLINE
  5
183
100
AcDbEntity
  8
Layer_1
 62
7
100
AcDbSpline
 70
8
 71
3
 72
8
 73
4
 74
0
 40
0
 40
0
 40
0
 40
0
 40
1
 40
1
 40
1
 40
1
 10
557.073730
 20
-62.934090
 30
0.0
 10
557.073730
 20
-62.398190
 30
0.0
 10
556.787831
 20
-61.902998
 30
0.0
 10
556.323728
 20
-61.635048
 30
0.0
  0
SPLINE
  5
184
100
AcDbEntity
  8
Layer_1
 62
7
100
AcDbSpline
 70
8
 71
3
 72
8
 73
4
 74
0
 40
0
 40
0
 40
0
 40
0
 40
1
 40
1
 40
1
 40
1
 10
556.323728
 20
-61.635048
 30
0.0
 10
555.859624
 20
-61.367097
 30
0.0
 10
555.287826
 20
-61.367097
 30
0.0
 10
554.823723
 20
-61.635048
 30
0.0
  0
SPLINE
  5
185
100
AcDbEntity
  8
Layer_1
 62
7
100
AcDbSpline
 70
8
 71
3
 72
8
 73
4
 74
0
 40
0
 40
0
 40
0
 40
0
 40
1
 40
1
 40
1
 40
1
 10
554.823723
 20
-61.635048
 30
0.0
 10
554.359619
 20
-61.902998
 30
0.0
 10
554.073720
 20
-62.398190
 30
0.0
 10
554.073720
 20
-62.934090
 30
0.0
  0
SPLINE
  5
186
100
AcDbEntity
  8
Layer_1
 62
7
100
AcDbSpline
 70
8
 71
3
 72
8
 73
4
 74
0
 40
0
 40
0
 40
0
 40
0
 40
1
 40
1
 40
1
 40
1
 10
554.073720
 20
-62.934090
 30
0.0
 10
554.073720
 20
-63.469990
 30
0.0
 10
554.359619
 20
-63.965182
 30
0.0
 10
554.823723
 20
-64.233132
 30
0.0
  0
SPLINE
  5
187
100
AcDbEntity
  8
Layer_1
 62
7
100
AcDbSpline
 70
8
 71
3
 72
8
 73
4
 74
0
 40
0
 40
0
 40
0
 40
0
 40
1
 40
1
 40
1
 40
1
 10
554.823723
 20
-64.233132
 30
0.0
 10
555.287826
 20
-64.501083
 30
0.0
 10
555.859624
 20
-64.501083
 30
0.0
 10
556.323728
 20
-64.233132
 30
0.0
  0
SPLINE
  5
188
100
AcDbEntity
  8
Layer_1
 62
7
100
AcDbSpline
 70
8
 71
3
 72
8
 73
4
 74
0
 40
0
 40
0
 40
0
 40
0
 40
1
 40
1
 40
1
 40
1
 10
556.323728
 20
-64.233132
 30
0.0
 10
556.787831
 20
-63.965182
 30
0.0
 10
557.073730
 20
-63.469990
 30
0.0
 10
557.073730
 20
-62.934090
 30
0.0
  0
LWPOLYLINE
  5
189
100
AcDbEntity
  8
Layer_1
 62
7
100
AcDbPolyline
 90
1
 70
1
 10
480.973730
 20
-62.934090
 30
0.0
  0
SPLINE
  5
18a
100
AcDbEntity
  8
Layer_1
 62
7
100
AcDbSpline
 70
8
 71
3
 72
8
 73
4
 74
0
 40
0
 40
0
 40
0
 40
0
 40
1
 40
1
 40
1
 40
1
 10
561.762170
 20
-64.922370
 30
0.0
 10
562.491527
 20
-62.652286
 30
0.0
 10
561.919433
 20
-60.165082
 30
0.0
 10
560.271543
 20
-58.441800
 30
0.0
  0
SPLINE
  5
18b
100
AcDbEntity
  8
Layer_1
 62
7
100
AcDbSpline
 70
8
 71
3
 72
8
 73
4
 74
0
 40
0
 40
0
 40
0
 40
0
 40
1
 40
1
 40
1
 40
1
 10
560.271543
 20
-58.441800
 30
0.0
 10
558.623653
 20
-56.718518
 30
0.0
 10
556.164510
 20
-56.035806
 30
0.0
 10
553.864090
 20
-56.662950
 30
0.0
  0
LWPOLYLINE
  5
18c
100
AcDbEntity
  8
Layer_1
 62
7
100
AcDbPolyline
 90
1
 70
1
 10
557.073730
 20
-62.934090
 30
0.0
  0
LWPOLYLINE
  5
18d
100
AcDbEntity
  8
Layer_1
 62
7
100
AcDbPolyline
 90
2
 70
0
 10
499.473730
 20
0.215910
 30
0.0
 10
553.864090
 20
-56.662950
 30
0.0
  0
LWPOLYLINE
  5
18e
100
AcDbEntity
  8
Layer_1
 62
7
100
AcDbPolyline
 90
2
 70
0
 10
561.762170
 20
-64.922370
 30
0.0
 10
612.883240
 20
-118.382340
 30
0.0
  0
LWPOLYLINE
  5
18f
100
AcDbEntity
  8
Layer_1
 62
7
100
AcDbPolyline
 90
2
 70
0
 10
589.726190
 20
-179.787280
 30
0.0
 10
589.726190
 20
-199.784090
 30
0.0
  0
LWPOLYLINE
  5
190
100
AcDbEntity
  8
Layer_1
 62
7
100
AcDbPolyline
 90
2
 70
0
 10
609.726210
 20
-179.787280
 30
0.0
 10
609.726210
 20
-199.784090
 30
0.0
  0
LWPOLYLINE
  5
191
100
AcDbEntity
  8
Layer_1
 62
7
100
AcDbPolyline
 90
2
 70
0
 10
649.473740
 20
-199.784090
 30
0.0
 10
609.726210
 20
-199.784090
 30
0.0
  0
SPLINE
  5
192
100
AcDbEntity
  8
Layer_1
 62
7
100
AcDbSpline
 70
8
 71
3
 72
8
 73
4
 74
0
 40
0
 40
0
 40
0
 40
0
 40
1
 40
1
 40
1
 40
1
 10
589.726190
 20
-162.287280
 30
0.0
 10
587.046698
 20
-162.287280
 30
0.0
 10
584.570745
 20
-163.716772
 30
0.0
 10
583.230999
 20
-166.037280
 30
0.0
  0
SPLINE
  5
193
100
AcDbEntity
  8
Layer_1
 62
7
100
AcDbSpline
 70
8
 71
3
 72
8
 73
4
 74
0
 40
0
 40
0
 40
0
 40
0
 40
1
 40
1
 40
1
 40
1
 10
583.230999
 20
-166.037280
 30
0.0
 10
581.891254
 20
-168.357788
 30
0.0
 10
581.891254
 20
-171.216772
 30
0.0
 10
583.230999
 20
-173.537280
 30
0.0
  0
SPLINE
  5
194
100
AcDbEntity
  8
Layer_1
 62
7
100
AcDbSpline
 70
8
 71
3
 72
8
 73
4
 74
0
 40
0
 40
0
 40
0
 40
0
 40
1
 40
1
 40
1
 40
1
 10
583.230999
 20
-173.537280
 30
0.0
 10
584.570745
 20
-175.857788
 30
0.0
 10
587.046698
 20
-177.287280
 30
0.0
 10
589.726190
 20
-177.287280
 30
0.0
  0
LWPOLYLINE
  5
195
100
AcDbEntity
  8
Layer_1
 62
7
100
AcDbPolyline
 90
2
 70
0
 10
589.726190
 20
-199.784090
 30
0.0
 10
449.473730
 20
-199.784090
 30
0.0
  0
LWPOLYLINE
  5
196
100
AcDbEntity
  8
Layer_1
 62
7
100
AcDbPolyline
 90
2
 70
0
 10
589.726190
 20
-179.787280
 30
0.0
 10
589.726190
 20
-177.287280
 30
0.0
  0
LWPOLYLINE
  5
197
100
AcDbEntity
  8
Layer_1
 62
7
100
AcDbPolyline
 90
2
 70
0
 10
589.726190
 20
-162.287280
 30
0.0
 10
589.726190
 20
-159.787280
 30
0.0
  0
ENDSEC
  0
SECTION
  2
OBJECTS
  0
DICTIONARY
  5
C
330
0
100
AcDbDictionary
  3
ACAD_GROUP
350
D
  3
ACAD_MLINESTYLE
350
17
  0
DICTIONARY
  5
D
330
C
100
AcDbDictionary
  0
DICTIONARY
  5
1A
330
C
100
AcDbDictionary
  0
DICTIONARY
  5
17
330
C
100
AcDbDictionary
  3
STANDARD
350
18
  0
DICTIONARY
  5
19
330
C
100
AcDbDictionary
  0
ENDSEC
  0
EOF
