  0
SECTION
  2
HEADER
  9
$ACADVER
  1
AC1014
  9
$HANDSEED
  5
FFFF
  9
$MEASUREMENT
 70
     1
  0
ENDSEC
  0
SECTION
  2
TABLES
  0
TABLE
  2
VPORT
  5
8
330
0
100
AcDbSymbolTable
 70
     4
  0
VPORT
  5
2E
330
8
100
AcDbSymbolTableRecord
100
AcDbViewportTableRecord
  2
*ACTIVE
 70
     0
 10
0.0
 20
0.0
 11
1.0
 21
1.0
 12
210.0
 22
148.5
 13
0.0
 23
0.0
 14
10.0
 24
10.0
 15
10.0
 25
10.0
 16
0.0
 26
0.0
 36
1.0
 17
0.0
 27
0.0
 37
0.0
 40
341.0
 41
1.24
 42
50.0
 43
0.0
 44
0.0
 50
0.0
 51
0.0
 71
     0
 72
   100
 73
     1
 74
     3
 75
     0
 76
     0
 77
     0
 78
     0
  0
ENDTAB
  0
TABLE
  2
LTYPE
  5
5
330
0
100
AcDbSymbolTable
 70
     1
  0
LTYPE
  5
14
330
5
100
AcDbSymbolTableRecord
100
AcDbLinetypeTableRecord
  2
BYBLOCK
 70
     0
  3

 72
    65
 73
     0
 40
0.0
  0
LTYPE
  5
15
330
5
100
AcDbSymbolTableRecord
100
AcDbLinetypeTableRecord
  2
BYLAYER
 70
     0
  3

 72
    65
 73
     0
 40
0.0
  0
LTYPE
  5
16
330
5
100
AcDbSymbolTableRecord
100
AcDbLinetypeTableRecord
  2
CONTINUOUS
 70
     0
  3
Solid line
 72
    65
 73
     0
 40
0.0
  0
ENDTAB
  0
TABLE
  2
LAYER
  5
2
100
AcDbSymbolTable
 70
1
  0
LAYER
  5
50
100
AcDbSymbolTableRecord
100
AcDbLayerTableRecord
  2
0
 70
0
  6
CONTINUOUS
  0
ENDTAB
  0
TABLE
  2
STYLE
  5
3
330
0
100
AcDbSymbolTable
 70
     1
  0
STYLE
  5
11
330
3
100
AcDbSymbolTableRecord
100
AcDbTextStyleTableRecord
  2
STANDARD
 70
     0
 40
0.0
 41
1.0
 50
0.0
 71
     0
 42
2.5
  3
txt
  4

  0
ENDTAB
  0
TABLE
  2
VIEW
  5
6
330
0
100
AcDbSymbolTable
 70
     0
  0
ENDTAB
  0
TABLE
  2
UCS
  5
7
330
0
100
AcDbSymbolTable
 70
     0
  0
ENDTAB
  0
TABLE
  2
APPID
  5
9
330
0
100
AcDbSymbolTable
 70
     2
  0
APPID
  5
12
330
9
100
AcDbSymbolTableRecord
100
AcDbRegAppTableRecord
  2
ACAD
 70
     0
  0
ENDTAB
  0
TABLE
  2
DIMSTYLE
  5
A
330
0
100
AcDbSymbolTable
 70
     1
  0
DIMSTYLE
105
27
330
A
100
AcDbSymbolTableRecord
100
AcDbDimStyleTableRecord
  2
ISO-25
 70
     0
  3

  4

  5

  6

  7

 40
1.0
 41
2.5
 42
0.625
 43
3.75
 44
1.25
 45
0.0
 46
0.0
 47
0.0
 48
0.0
140
2.5
141
2.5
142
0.0
143
0.03937007874016
144
1.0
145
0.0
146
1.0
147
0.625
 71
     0
 72
     0
 73
     0
 74
     0
 75
     0
 76
     0
 77
     1
 78
     8
170
     0
171
     3
172
     1
173
     0
174
     0
175
     0
176
     0
177
     0
178
     0
270
     2
271
     2
272
     2
273
     2
274
     3
340
11
275
     0
280
     0
281
     0
282
     0
283
     0
284
     8
285
     0
286
     0
287
     3
288
     0
  0
ENDTAB
  0
TABLE
  2
BLOCK_RECORD
  5
1
330
0
100
AcDbSymbolTable
 70
     1
  0
BLOCK_RECORD
  5
1F
330
1
100
AcDbSymbolTableRecord
100
AcDbBlockTableRecord
  2
*MODEL_SPACE
  0
BLOCK_RECORD
  5
1B
330
1
100
AcDbSymbolTableRecord
100
AcDbBlockTableRecord
  2
*PAPER_SPACE
  0
ENDTAB
  0
ENDSEC
  0
SECTION
  2
BLOCKS
  0
BLOCK
  5
20
330
1F
100
AcDbEntity
  8
0
100
AcDbBlockBegin
  2
*MODEL_SPACE
 70
     0
 10
0.0
 20
0.0
 30
0.0
  3
*MODEL_SPACE
  1

  0
ENDBLK
  5
21
330
1F
100
AcDbEntity
  8
0
100
AcDbBlockEnd
  0
BLOCK
  5
1C
330
1B
100
AcDbEntity
 67
     1
  8
0
100
AcDbBlockBegin
  2
*PAPER_SPACE
  1

  0
ENDBLK
  5
1D
330
1B
100
AcDbEntity
 67
     1
  8
0
100
AcDbBlockEnd
  0
ENDSEC
  0
SECTION
  2
ENTITIES
  0
SPLINE
  5
100
100
AcDbEntity
  8
0
 62
7
100
AcDbSpline
 70
8
 71
3
 72
8
 73
4
 74
0
 40
0
 40
0
 40
0
 40
0
 40
1
 40
1
 40
1
 40
1
 10
217.500003
 20
0.000000
 30
0.0
 10
217.500003
 20
0.893164
 30
0.0
 10
217.023506
 20
1.718482
 30
0.0
 10
216.250003
 20
2.165064
 30
0.0
  0
SPLINE
  5
101
100
AcDbEntity
  8
0
 62
7
100
AcDbSpline
 70
8
 71
3
 72
8
 73
4
 74
0
 40
0
 40
0
 40
0
 40
0
 40
1
 40
1
 40
1
 40
1
 10
216.250003
 20
2.165064
 30
0.0
 10
215.476500
 20
2.611646
 30
0.0
 10
214.523506
 20
2.611646
 30
0.0
 10
213.750003
 20
2.165064
 30
0.0
  0
SPLINE
  5
102
100
AcDbEntity
  8
0
 62
7
100
AcDbSpline
 70
8
 71
3
 72
8
 73
4
 74
0
 40
0
 40
0
 40
0
 40
0
 40
1
 40
1
 40
1
 40
1
 10
213.750003
 20
2.165064
 30
0.0
 10
212.976500
 20
1.718482
 30
0.0
 10
212.500003
 20
0.893164
 30
0.0
 10
212.500003
 20
0.000000
 30
0.0
  0
SPLINE
  5
103
100
AcDbEntity
  8
0
 62
7
100
AcDbSpline
 70
8
 71
3
 72
8
 73
4
 74
0
 40
0
 40
0
 40
0
 40
0
 40
1
 40
1
 40
1
 40
1
 10
212.500003
 20
0.000000
 30
0.0
 10
212.500003
 20
-0.893164
 30
0.0
 10
212.976500
 20
-1.718482
 30
0.0
 10
213.750003
 20
-2.165064
 30
0.0
  0
SPLINE
  5
104
100
AcDbEntity
  8
0
 62
7
100
AcDbSpline
 70
8
 71
3
 72
8
 73
4
 74
0
 40
0
 40
0
 40
0
 40
0
 40
1
 40
1
 40
1
 40
1
 10
213.750003
 20
-2.165064
 30
0.0
 10
214.523506
 20
-2.611646
 30
0.0
 10
215.476500
 20
-2.611646
 30
0.0
 10
216.250003
 20
-2.165064
 30
0.0
  0
SPLINE
  5
105
100
AcDbEntity
  8
0
 62
7
100
AcDbSpline
 70
8
 71
3
 72
8
 73
4
 74
0
 40
0
 40
0
 40
0
 40
0
 40
1
 40
1
 40
1
 40
1
 10
216.250003
 20
-2.165064
 30
0.0
 10
217.023506
 20
-1.718482
 30
0.0
 10
217.500003
 20
-0.893164
 30
0.0
 10
217.500003
 20
0.000000
 30
0.0
  0
SPLINE
  5
106
100
AcDbEntity
  8
0
 62
7
100
AcDbSpline
 70
8
 71
3
 72
8
 73
4
 74
0
 40
0
 40
0
 40
0
 40
0
 40
1
 40
1
 40
1
 40
1
 10
97.500000
 20
50.000000
 30
0.0
 10
97.500000
 20
50.535898
 30
0.0
 10
97.214101
 20
51.031089
 30
0.0
 10
96.750000
 20
51.299038
 30
0.0
  0
SPLINE
  5
107
100
AcDbEntity
  8
0
 62
7
100
AcDbSpline
 70
8
 71
3
 72
8
 73
4
 74
0
 40
0
 40
0
 40
0
 40
0
 40
1
 40
1
 40
1
 40
1
 10
96.750000
 20
51.299038
 30
0.0
 10
96.285898
 20
51.566987
 30
0.0
 10
95.714102
 20
51.566987
 30
0.0
 10
95.250000
 20
51.299038
 30
0.0
  0
SPLINE
  5
108
100
AcDbEntity
  8
0
 62
7
100
AcDbSpline
 70
8
 71
3
 72
8
 73
4
 74
0
 40
0
 40
0
 40
0
 40
0
 40
1
 40
1
 40
1
 40
1
 10
95.250000
 20
51.299038
 30
0.0
 10
94.785898
 20
51.031089
 30
0.0
 10
94.500000
 20
50.535898
 30
0.0
 10
94.500000
 20
50.000000
 30
0.0
  0
SPLINE
  5
109
100
AcDbEntity
  8
0
 62
7
100
AcDbSpline
 70
8
 71
3
 72
8
 73
4
 74
0
 40
0
 40
0
 40
0
 40
0
 40
1
 40
1
 40
1
 40
1
 10
94.500000
 20
50.000000
 30
0.0
 10
94.500000
 20
49.464102
 30
0.0
 10
94.785898
 20
48.968911
 30
0.0
 10
95.250000
 20
48.700962
 30
0.0
  0
SPLINE
  5
10a
100
AcDbEntity
  8
0
 62
7
100
AcDbSpline
 70
8
 71
3
 72
8
 73
4
 74
0
 40
0
 40
0
 40
0
 40
0
 40
1
 40
1
 40
1
 40
1
 10
95.250000
 20
48.700962
 30
0.0
 10
95.714102
 20
48.433013
 30
0.0
 10
96.285898
 20
48.433013
 30
0.0
 10
96.750000
 20
48.700962
 30
0.0
  0
SPLINE
  5
10b
100
AcDbEntity
  8
0
 62
7
100
AcDbSpline
 70
8
 71
3
 72
8
 73
4
 74
0
 40
0
 40
0
 40
0
 40
0
 40
1
 40
1
 40
1
 40
1
 10
96.750000
 20
48.700962
 30
0.0
 10
97.214102
 20
48.968911
 30
0.0
 10
97.500000
 20
49.464102
 30
0.0
 10
97.500000
 20
50.000000
 30
0.0
  0
LWPOLYLINE
  5
10c
100
AcDbEntity
  8
0
 62
7
100
AcDbPolyline
 90
1
 70
1
 10
217.500003
 20
0.000000
 30
0.0
  0
SPLINE
  5
10d
100
AcDbEntity
  8
0
 62
7
100
AcDbSpline
 70
8
 71
3
 72
8
 73
4
 74
0
 40
0
 40
0
 40
0
 40
0
 40
1
 40
1
 40
1
 40
1
 10
36.500000
 20
50.000000
 30
0.0
 10
36.500000
 20
50.535898
 30
0.0
 10
36.214102
 20
51.031089
 30
0.0
 10
35.750000
 20
51.299038
 30
0.0
  0
SPLINE
  5
10e
100
AcDbEntity
  8
0
 62
7
100
AcDbSpline
 70
8
 71
3
 72
8
 73
4
 74
0
 40
0
 40
0
 40
0
 40
0
 40
1
 40
1
 40
1
 40
1
 10
35.750000
 20
51.299038
 30
0.0
 10
35.285898
 20
51.566987
 30
0.0
 10
34.714102
 20
51.566987
 30
0.0
 10
34.250000
 20
51.299038
 30
0.0
  0
SPLINE
  5
10f
100
AcDbEntity
  8
0
 62
7
100
AcDbSpline
 70
8
 71
3
 72
8
 73
4
 74
0
 40
0
 40
0
 40
0
 40
0
 40
1
 40
1
 40
1
 40
1
 10
34.250000
 20
51.299038
 30
0.0
 10
33.785898
 20
51.031089
 30
0.0
 10
33.500000
 20
50.535898
 30
0.0
 10
33.500000
 20
50.000000
 30
0.0
  0
SPLINE
  5
110
100
AcDbEntity
  8
0
 62
7
100
AcDbSpline
 70
8
 71
3
 72
8
 73
4
 74
0
 40
0
 40
0
 40
0
 40
0
 40
1
 40
1
 40
1
 40
1
 10
33.500000
 20
50.000000
 30
0.0
 10
33.500000
 20
49.464102
 30
0.0
 10
33.785899
 20
48.968911
 30
0.0
 10
34.250000
 20
48.700962
 30
0.0
  0
SPLINE
  5
111
100
AcDbEntity
  8
0
 62
7
100
AcDbSpline
 70
8
 71
3
 72
8
 73
4
 74
0
 40
0
 40
0
 40
0
 40
0
 40
1
 40
1
 40
1
 40
1
 10
34.250000
 20
48.700962
 30
0.0
 10
34.714102
 20
48.433013
 30
0.0
 10
35.285898
 20
48.433013
 30
0.0
 10
35.750000
 20
48.700962
 30
0.0
  0
SPLINE
  5
112
100
AcDbEntity
  8
0
 62
7
100
AcDbSpline
 70
8
 71
3
 72
8
 73
4
 74
0
 40
0
 40
0
 40
0
 40
0
 40
1
 40
1
 40
1
 40
1
 10
35.750000
 20
48.700962
 30
0.0
 10
36.214102
 20
48.968911
 30
0.0
 10
36.500000
 20
49.464102
 30
0.0
 10
36.500000
 20
50.000000
 30
0.0
  0
LWPOLYLINE
  5
113
100
AcDbEntity
  8
0
 62
7
100
AcDbPolyline
 90
1
 70
1
 10
97.500000
 20
50.000000
 30
0.0
  0
SPLINE
  5
114
100
AcDbEntity
  8
0
 62
7
100
AcDbSpline
 70
8
 71
3
 72
8
 73
4
 74
0
 40
0
 40
0
 40
0
 40
0
 40
1
 40
1
 40
1
 40
1
 10
105.000000
 20
0.000000
 30
0.0
 10
105.000000
 20
0.893164
 30
0.0
 10
104.523503
 20
1.718482
 30
0.0
 10
103.750000
 20
2.165064
 30
0.0
  0
SPLINE
  5
115
100
AcDbEntity
  8
0
 62
7
100
AcDbSpline
 70
8
 71
3
 72
8
 73
4
 74
0
 40
0
 40
0
 40
0
 40
0
 40
1
 40
1
 40
1
 40
1
 10
103.750000
 20
2.165064
 30
0.0
 10
102.976497
 20
2.611646
 30
0.0
 10
102.023503
 20
2.611646
 30
0.0
 10
101.250000
 20
2.165064
 30
0.0
  0
SPLINE
  5
116
100
AcDbEntity
  8
0
 62
7
100
AcDbSpline
 70
8
 71
3
 72
8
 73
4
 74
0
 40
0
 40
0
 40
0
 40
0
 40
1
 40
1
 40
1
 40
1
 10
101.250000
 20
2.165064
 30
0.0
 10
100.476497
 20
1.718482
 30
0.0
 10
100.000000
 20
0.893164
 30
0.0
 10
100.000000
 20
0.000000
 30
0.0
  0
SPLINE
  5
117
100
AcDbEntity
  8
0
 62
7
100
AcDbSpline
 70
8
 71
3
 72
8
 73
4
 74
0
 40
0
 40
0
 40
0
 40
0
 40
1
 40
1
 40
1
 40
1
 10
100.000000
 20
0.000000
 30
0.0
 10
100.000000
 20
-0.893164
 30
0.0
 10
100.476497
 20
-1.718482
 30
0.0
 10
101.250000
 20
-2.165064
 30
0.0
  0
SPLINE
  5
118
100
AcDbEntity
  8
0
 62
7
100
AcDbSpline
 70
8
 71
3
 72
8
 73
4
 74
0
 40
0
 40
0
 40
0
 40
0
 40
1
 40
1
 40
1
 40
1
 10
101.250000
 20
-2.165064
 30
0.0
 10
102.023503
 20
-2.611646
 30
0.0
 10
102.976497
 20
-2.611646
 30
0.0
 10
103.750000
 20
-2.165064
 30
0.0
  0
SPLINE
  5
119
100
AcDbEntity
  8
0
 62
7
100
AcDbSpline
 70
8
 71
3
 72
8
 73
4
 74
0
 40
0
 40
0
 40
0
 40
0
 40
1
 40
1
 40
1
 40
1
 10
103.750000
 20
-2.165064
 30
0.0
 10
104.523503
 20
-1.718482
 30
0.0
 10
105.000000
 20
-0.893164
 30
0.0
 10
105.000000
 20
0.000000
 30
0.0
  0
LWPOLYLINE
  5
11a
100
AcDbEntity
  8
0
 62
7
100
AcDbPolyline
 90
1
 70
1
 10
36.500000
 20
50.000000
 30
0.0
  0
SPLINE
  5
11b
100
AcDbEntity
  8
0
 62
7
100
AcDbSpline
 70
8
 71
3
 72
8
 73
4
 74
0
 40
0
 40
0
 40
0
 40
0
 40
1
 40
1
 40
1
 40
1
 10
2.500000
 20
20.000000
 30
0.0
 10
2.500000
 20
20.893164
 30
0.0
 10
2.023503
 20
21.718482
 30
0.0
 10
1.250000
 20
22.165063
 30
0.0
  0
SPLINE
  5
11c
100
AcDbEntity
  8
0
 62
7
100
AcDbSpline
 70
8
 71
3
 72
8
 73
4
 74
0
 40
0
 40
0
 40
0
 40
0
 40
1
 40
1
 40
1
 40
1
 10
1.250000
 20
22.165063
 30
0.0
 10
0.476497
 20
22.611645
 30
0.0
 10
-0.476497
 20
22.611645
 30
0.0
 10
-1.250000
 20
22.165063
 30
0.0
  0
SPLINE
  5
11d
100
AcDbEntity
  8
0
 62
7
100
AcDbSpline
 70
8
 71
3
 72
8
 73
4
 74
0
 40
0
 40
0
 40
0
 40
0
 40
1
 40
1
 40
1
 40
1
 10
-1.250000
 20
22.165063
 30
0.0
 10
-2.023503
 20
21.718482
 30
0.0
 10
-2.500000
 20
20.893164
 30
0.0
 10
-2.500000
 20
20.000000
 30
0.0
  0
SPLINE
  5
11e
100
AcDbEntity
  8
0
 62
7
100
AcDbSpline
 70
8
 71
3
 72
8
 73
4
 74
0
 40
0
 40
0
 40
0
 40
0
 40
1
 40
1
 40
1
 40
1
 10
-2.500000
 20
20.000000
 30
0.0
 10
-2.500000
 20
19.106836
 30
0.0
 10
-2.023503
 20
18.281518
 30
0.0
 10
-1.250000
 20
17.834936
 30
0.0
  0
SPLINE
  5
11f
100
AcDbEntity
  8
0
 62
7
100
AcDbSpline
 70
8
 71
3
 72
8
 73
4
 74
0
 40
0
 40
0
 40
0
 40
0
 40
1
 40
1
 40
1
 40
1
 10
-1.250000
 20
17.834936
 30
0.0
 10
-0.476497
 20
17.388354
 30
0.0
 10
0.476497
 20
17.388354
 30
0.0
 10
1.250000
 20
17.834936
 30
0.0
  0
SPLINE
  5
120
100
AcDbEntity
  8
0
 62
7
100
AcDbSpline
 70
8
 71
3
 72
8
 73
4
 74
0
 40
0
 40
0
 40
0
 40
0
 40
1
 40
1
 40
1
 40
1
 10
1.250000
 20
17.834936
 30
0.0
 10
2.023503
 20
18.281518
 30
0.0
 10
2.500000
 20
19.106836
 30
0.0
 10
2.500000
 20
20.000000
 30
0.0
  0
LWPOLYLINE
  5
121
100
AcDbEntity
  8
0
 62
7
100
AcDbPolyline
 90
1
 70
1
 10
105.000000
 20
0.000000
 30
0.0
  0
SPLINE
  5
122
100
AcDbEntity
  8
0
 62
7
100
AcDbSpline
 70
8
 71
3
 72
8
 73
4
 74
0
 40
0
 40
0
 40
0
 40
0
 40
1
 40
1
 40
1
 40
1
 10
2.500000
 20
97.500000
 30
0.0
 10
2.500000
 20
98.393164
 30
0.0
 10
2.023503
 20
99.218482
 30
0.0
 10
1.250000
 20
99.665064
 30
0.0
  0
SPLINE
  5
123
100
AcDbEntity
  8
0
 62
7
100
AcDbSpline
 70
8
 71
3
 72
8
 73
4
 74
0
 40
0
 40
0
 40
0
 40
0
 40
1
 40
1
 40
1
 40
1
 10
1.250000
 20
99.665064
 30
0.0
 10
0.476497
 20
100.111646
 30
0.0
 10
-0.476497
 20
100.111646
 30
0.0
 10
-1.250000
 20
99.665064
 30
0.0
  0
SPLINE
  5
124
100
AcDbEntity
  8
0
 62
7
100
AcDbSpline
 70
8
 71
3
 72
8
 73
4
 74
0
 40
0
 40
0
 40
0
 40
0
 40
1
 40
1
 40
1
 40
1
 10
-1.250000
 20
99.665064
 30
0.0
 10
-2.023503
 20
99.218482
 30
0.0
 10
-2.500000
 20
98.393164
 30
0.0
 10
-2.500000
 20
97.500000
 30
0.0
  0
SPLINE
  5
125
100
AcDbEntity
  8
0
 62
7
100
AcDbSpline
 70
8
 71
3
 72
8
 73
4
 74
0
 40
0
 40
0
 40
0
 40
0
 40
1
 40
1
 40
1
 40
1
 10
-2.500000
 20
97.500000
 30
0.0
 10
-2.500000
 20
96.606836
 30
0.0
 10
-2.023503
 20
95.781518
 30
0.0
 10
-1.250000
 20
95.334936
 30
0.0
  0
SPLINE
  5
126
100
AcDbEntity
  8
0
 62
7
100
AcDbSpline
 70
8
 71
3
 72
8
 73
4
 74
0
 40
0
 40
0
 40
0
 40
0
 40
1
 40
1
 40
1
 40
1
 10
-1.250000
 20
95.334936
 30
0.0
 10
-0.476497
 20
94.888354
 30
0.0
 10
0.476497
 20
94.888354
 30
0.0
 10
1.250000
 20
95.334936
 30
0.0
  0
SPLINE
  5
127
100
AcDbEntity
  8
0
 62
7
100
AcDbSpline
 70
8
 71
3
 72
8
 73
4
 74
0
 40
0
 40
0
 40
0
 40
0
 40
1
 40
1
 40
1
 40
1
 10
1.250000
 20
95.334936
 30
0.0
 10
2.023503
 20
95.781518
 30
0.0
 10
2.500000
 20
96.606836
 30
0.0
 10
2.500000
 20
97.500000
 30
0.0
  0
LWPOLYLINE
  5
128
100
AcDbEntity
  8
0
 62
7
100
AcDbPolyline
 90
1
 70
1
 10
2.500000
 20
20.000000
 30
0.0
  0
SPLINE
  5
129
100
AcDbEntity
  8
0
 62
7
100
AcDbSpline
 70
8
 71
3
 72
8
 73
4
 74
0
 40
0
 40
0
 40
0
 40
0
 40
1
 40
1
 40
1
 40
1
 10
2.500000
 20
0.000000
 30
0.0
 10
2.500000
 20
0.893164
 30
0.0
 10
2.023503
 20
1.718482
 30
0.0
 10
1.250000
 20
2.165064
 30
0.0
  0
SPLINE
  5
12a
100
AcDbEntity
  8
0
 62
7
100
AcDbSpline
 70
8
 71
3
 72
8
 73
4
 74
0
 40
0
 40
0
 40
0
 40
0
 40
1
 40
1
 40
1
 40
1
 10
1.250000
 20
2.165064
 30
0.0
 10
0.476497
 20
2.611646
 30
0.0
 10
-0.476497
 20
2.611646
 30
0.0
 10
-1.250000
 20
2.165064
 30
0.0
  0
SPLINE
  5
12b
100
AcDbEntity
  8
0
 62
7
100
AcDbSpline
 70
8
 71
3
 72
8
 73
4
 74
0
 40
0
 40
0
 40
0
 40
0
 40
1
 40
1
 40
1
 40
1
 10
-1.250000
 20
2.165064
 30
0.0
 10
-2.023503
 20
1.718482
 30
0.0
 10
-2.500000
 20
0.893164
 30
0.0
 10
-2.500000
 20
0.000000
 30
0.0
  0
SPLINE
  5
12c
100
AcDbEntity
  8
0
 62
7
100
AcDbSpline
 70
8
 71
3
 72
8
 73
4
 74
0
 40
0
 40
0
 40
0
 40
0
 40
1
 40
1
 40
1
 40
1
 10
-2.500000
 20
0.000000
 30
0.0
 10
-2.500000
 20
-0.893164
 30
0.0
 10
-2.023503
 20
-1.718482
 30
0.0
 10
-1.250000
 20
-2.165064
 30
0.0
  0
SPLINE
  5
12d
100
AcDbEntity
  8
0
 62
7
100
AcDbSpline
 70
8
 71
3
 72
8
 73
4
 74
0
 40
0
 40
0
 40
0
 40
0
 40
1
 40
1
 40
1
 40
1
 10
-1.250000
 20
-2.165064
 30
0.0
 10
-0.476497
 20
-2.611646
 30
0.0
 10
0.476497
 20
-2.611646
 30
0.0
 10
1.250000
 20
-2.165064
 30
0.0
  0
SPLINE
  5
12e
100
AcDbEntity
  8
0
 62
7
100
AcDbSpline
 70
8
 71
3
 72
8
 73
4
 74
0
 40
0
 40
0
 40
0
 40
0
 40
1
 40
1
 40
1
 40
1
 10
1.250000
 20
-2.165064
 30
0.0
 10
2.023503
 20
-1.718482
 30
0.0
 10
2.500000
 20
-0.893164
 30
0.0
 10
2.500000
 20
0.000000
 30
0.0
  0
LWPOLYLINE
  5
12f
100
AcDbEntity
  8
0
 62
7
100
AcDbPolyline
 90
1
 70
1
 10
2.500000
 20
97.500000
 30
0.0
  0
LWPOLYLINE
  5
130
100
AcDbEntity
  8
0
 62
7
100
AcDbPolyline
 90
1
 70
1
 10
2.500000
 20
0.000000
 30
0.0
  0
SPLINE
  5
131
100
AcDbEntity
  8
0
 62
7
100
AcDbSpline
 70
8
 71
3
 72
8
 73
4
 74
0
 40
0
 40
0
 40
0
 40
0
 40
1
 40
1
 40
1
 40
1
 10
0.000000
 20
-10.000010
 30
0.0
 10
-5.522848
 20
-10.000010
 30
0.0
 10
-10.000000
 20
-5.522837
 30
0.0
 10
-10.000000
 20
-0.000004
 30
0.0
  0
LWPOLYLINE
  5
132
100
AcDbEntity
  8
0
 62
7
100
AcDbPolyline
 90
4
 70
0
 10
142.368101
 20
110.222897
 30
0.0
 10
225.000000
 20
10.000003
 30
0.0
 10
225.000000
 20
-10.000010
 30
0.0
 10
0.000000
 20
-10.000010
 30
0.0
  0
LWPOLYLINE
  5
133
100
AcDbEntity
  8
0
 62
7
100
AcDbPolyline
 90
2
 70
0
 10
-10.000000
 20
-0.000004
 30
0.0
 10
-10.000000
 20
107.500001
 30
0.0
  0
SPLINE
  5
134
100
AcDbEntity
  8
0
 62
7
100
AcDbSpline
 70
8
 71
3
 72
8
 73
4
 74
0
 40
0
 40
0
 40
0
 40
0
 40
1
 40
1
 40
1
 40
1
 10
-0.000000
 20
117.500000
 30
0.0
 10
-5.522847
 20
117.500000
 30
0.0
 10
-10.000000
 20
113.022848
 30
0.0
 10
-10.000000
 20
107.500000
 30
0.0
  0
SPLINE
  5
135
100
AcDbEntity
  8
0
 62
7
100
AcDbSpline
 70
8
 71
3
 72
8
 73
4
 74
0
 40
0
 40
0
 40
0
 40
0
 40
1
 40
1
 40
1
 40
1
 10
142.368101
 20
110.222895
 30
0.0
 10
138.568840
 20
114.830957
 30
0.0
 10
132.909027
 20
117.500000
 30
0.0
 10
126.936706
 20
117.500000
 30
0.0
  0
SPLINE
  5
136
100
AcDbEntity
  8
0
 62
7
100
AcDbSpline
 70
8
 71
3
 72
8
 73
4
 74
0
 40
0
 40
0
 40
0
 40
0
 40
1
 40
1
 40
1
 40
1
 10
36.700000
 20
25.000000
 30
0.0
 10
36.700240
 20
25.607511
 30
0.0
 10
36.376274
 20
26.168977
 30
0.0
 10
35.850194
 20
26.472802
 30
0.0
  0
SPLINE
  5
137
100
AcDbEntity
  8
0
 62
7
100
AcDbSpline
 70
8
 71
3
 72
8
 73
4
 74
0
 40
0
 40
0
 40
0
 40
0
 40
1
 40
1
 40
1
 40
1
 10
35.850194
 20
26.472802
 30
0.0
 10
35.324113
 20
26.776627
 30
0.0
 10
34.675887
 20
26.776627
 30
0.0
 10
34.149806
 20
26.472802
 30
0.0
  0
SPLINE
  5
138
100
AcDbEntity
  8
0
 62
7
100
AcDbSpline
 70
8
 71
3
 72
8
 73
4
 74
0
 40
0
 40
0
 40
0
 40
0
 40
1
 40
1
 40
1
 40
1
 10
34.149806
 20
26.472802
 30
0.0
 10
33.623726
 20
26.168977
 30
0.0
 10
33.299760
 20
25.607511
 30
0.0
 10
33.300000
 20
25.000000
 30
0.0
  0
SPLINE
  5
139
100
AcDbEntity
  8
0
 62
7
100
AcDbSpline
 70
8
 71
3
 72
8
 73
4
 74
0
 40
0
 40
0
 40
0
 40
0
 40
1
 40
1
 40
1
 40
1
 10
33.300000
 20
25.000000
 30
0.0
 10
33.299760
 20
24.392489
 30
0.0
 10
33.623726
 20
23.831023
 30
0.0
 10
34.149806
 20
23.527198
 30
0.0
  0
SPLINE
  5
13a
100
AcDbEntity
  8
0
 62
7
100
AcDbSpline
 70
8
 71
3
 72
8
 73
4
 74
0
 40
0
 40
0
 40
0
 40
0
 40
1
 40
1
 40
1
 40
1
 10
34.149806
 20
23.527198
 30
0.0
 10
34.675887
 20
23.223373
 30
0.0
 10
35.324113
 20
23.223373
 30
0.0
 10
35.850194
 20
23.527198
 30
0.0
  0
SPLINE
  5
13b
100
AcDbEntity
  8
0
 62
7
100
AcDbSpline
 70
8
 71
3
 72
8
 73
4
 74
0
 40
0
 40
0
 40
0
 40
0
 40
1
 40
1
 40
1
 40
1
 10
35.850194
 20
23.527198
 30
0.0
 10
36.376274
 20
23.831023
 30
0.0
 10
36.700240
 20
24.392489
 30
0.0
 10
36.700000
 20
25.000000
 30
0.0
  0
LWPOLYLINE
  5
13c
100
AcDbEntity
  8
0
 62
7
100
AcDbPolyline
 90
2
 70
0
 10
0.000000
 20
117.500000
 30
0.0
 10
126.936706
 20
117.500000
 30
0.0
  0
SPLINE
  5
13d
100
AcDbEntity
  8
0
 62
7
100
AcDbSpline
 70
8
 71
3
 72
8
 73
4
 74
0
 40
0
 40
0
 40
0
 40
0
 40
1
 40
1
 40
1
 40
1
 10
138.550000
 20
25.000000
 30
0.0
 10
138.550240
 20
25.607511
 30
0.0
 10
138.226274
 20
26.168977
 30
0.0
 10
137.700194
 20
26.472802
 30
0.0
  0
SPLINE
  5
13e
100
AcDbEntity
  8
0
 62
7
100
AcDbSpline
 70
8
 71
3
 72
8
 73
4
 74
0
 40
0
 40
0
 40
0
 40
0
 40
1
 40
1
 40
1
 40
1
 10
137.700194
 20
26.472802
 30
0.0
 10
137.174113
 20
26.776627
 30
0.0
 10
136.525887
 20
26.776627
 30
0.0
 10
135.999806
 20
26.472802
 30
0.0
  0
SPLINE
  5
13f
100
AcDbEntity
  8
0
 62
7
100
AcDbSpline
 70
8
 71
3
 72
8
 73
4
 74
0
 40
0
 40
0
 40
0
 40
0
 40
1
 40
1
 40
1
 40
1
 10
135.999806
 20
26.472802
 30
0.0
 10
135.473726
 20
26.168977
 30
0.0
 10
135.149760
 20
25.607511
 30
0.0
 10
135.150000
 20
25.000000
 30
0.0
  0
SPLINE
  5
140
100
AcDbEntity
  8
0
 62
7
100
AcDbSpline
 70
8
 71
3
 72
8
 73
4
 74
0
 40
0
 40
0
 40
0
 40
0
 40
1
 40
1
 40
1
 40
1
 10
135.150000
 20
25.000000
 30
0.0
 10
135.149760
 20
24.392489
 30
0.0
 10
135.473726
 20
23.831023
 30
0.0
 10
135.999806
 20
23.527198
 30
0.0
  0
SPLINE
  5
141
100
AcDbEntity
  8
0
 62
7
100
AcDbSpline
 70
8
 71
3
 72
8
 73
4
 74
0
 40
0
 40
0
 40
0
 40
0
 40
1
 40
1
 40
1
 40
1
 10
135.999806
 20
23.527198
 30
0.0
 10
136.525887
 20
23.223373
 30
0.0
 10
137.174113
 20
23.223373
 30
0.0
 10
137.700194
 20
23.527198
 30
0.0
  0
SPLINE
  5
142
100
AcDbEntity
  8
0
 62
7
100
AcDbSpline
 70
8
 71
3
 72
8
 73
4
 74
0
 40
0
 40
0
 40
0
 40
0
 40
1
 40
1
 40
1
 40
1
 10
137.700194
 20
23.527198
 30
0.0
 10
138.226274
 20
23.831023
 30
0.0
 10
138.550240
 20
24.392489
 30
0.0
 10
138.550000
 20
25.000000
 30
0.0
  0
LWPOLYLINE
  5
143
100
AcDbEntity
  8
0
 62
7
100
AcDbPolyline
 90
1
 70
1
 10
36.700000
 20
25.000000
 30
0.0
  0
SPLINE
  5
144
100
AcDbEntity
  8
0
 62
7
100
AcDbSpline
 70
8
 71
3
 72
8
 73
4
 74
0
 40
0
 40
0
 40
0
 40
0
 40
1
 40
1
 40
1
 40
1
 10
36.700000
 20
101.300000
 30
0.0
 10
36.700240
 20
101.907511
 30
0.0
 10
36.376274
 20
102.468977
 30
0.0
 10
35.850194
 20
102.772802
 30
0.0
  0
SPLINE
  5
145
100
AcDbEntity
  8
0
 62
7
100
AcDbSpline
 70
8
 71
3
 72
8
 73
4
 74
0
 40
0
 40
0
 40
0
 40
0
 40
1
 40
1
 40
1
 40
1
 10
35.850194
 20
102.772802
 30
0.0
 10
35.324113
 20
103.076627
 30
0.0
 10
34.675887
 20
103.076627
 30
0.0
 10
34.149806
 20
102.772802
 30
0.0
  0
SPLINE
  5
146
100
AcDbEntity
  8
0
 62
7
100
AcDbSpline
 70
8
 71
3
 72
8
 73
4
 74
0
 40
0
 40
0
 40
0
 40
0
 40
1
 40
1
 40
1
 40
1
 10
34.149806
 20
102.772802
 30
0.0
 10
33.623726
 20
102.468977
 30
0.0
 10
33.299760
 20
101.907511
 30
0.0
 10
33.300000
 20
101.300000
 30
0.0
  0
SPLINE
  5
147
100
AcDbEntity
  8
0
 62
7
100
AcDbSpline
 70
8
 71
3
 72
8
 73
4
 74
0
 40
0
 40
0
 40
0
 40
0
 40
1
 40
1
 40
1
 40
1
 10
33.300000
 20
101.300000
 30
0.0
 10
33.299760
 20
100.692489
 30
0.0
 10
33.623726
 20
100.131023
 30
0.0
 10
34.149806
 20
99.827198
 30
0.0
  0
SPLINE
  5
148
100
AcDbEntity
  8
0
 62
7
100
AcDbSpline
 70
8
 71
3
 72
8
 73
4
 74
0
 40
0
 40
0
 40
0
 40
0
 40
1
 40
1
 40
1
 40
1
 10
34.149806
 20
99.827198
 30
0.0
 10
34.675887
 20
99.523373
 30
0.0
 10
35.324113
 20
99.523373
 30
0.0
 10
35.850194
 20
99.827198
 30
0.0
  0
SPLINE
  5
149
100
AcDbEntity
  8
0
 62
7
100
AcDbSpline
 70
8
 71
3
 72
8
 73
4
 74
0
 40
0
 40
0
 40
0
 40
0
 40
1
 40
1
 40
1
 40
1
 10
35.850194
 20
99.827198
 30
0.0
 10
36.376274
 20
100.131023
 30
0.0
 10
36.700240
 20
100.692489
 30
0.0
 10
36.700000
 20
101.300000
 30
0.0
  0
LWPOLYLINE
  5
14a
100
AcDbEntity
  8
0
 62
7
100
AcDbPolyline
 90
1
 70
1
 10
138.550000
 20
25.000000
 30
0.0
  0
SPLINE
  5
14b
100
AcDbEntity
  8
0
 62
7
100
AcDbSpline
 70
8
 71
3
 72
8
 73
4
 74
0
 40
0
 40
0
 40
0
 40
0
 40
1
 40
1
 40
1
 40
1
 10
138.550000
 20
101.300000
 30
0.0
 10
138.550240
 20
101.907511
 30
0.0
 10
138.226274
 20
102.468977
 30
0.0
 10
137.700194
 20
102.772802
 30
0.0
  0
SPLINE
  5
14c
100
AcDbEntity
  8
0
 62
7
100
AcDbSpline
 70
8
 71
3
 72
8
 73
4
 74
0
 40
0
 40
0
 40
0
 40
0
 40
1
 40
1
 40
1
 40
1
 10
137.700194
 20
102.772802
 30
0.0
 10
137.174113
 20
103.076627
 30
0.0
 10
136.525887
 20
103.076627
 30
0.0
 10
135.999806
 20
102.772802
 30
0.0
  0
SPLINE
  5
14d
100
AcDbEntity
  8
0
 62
7
100
AcDbSpline
 70
8
 71
3
 72
8
 73
4
 74
0
 40
0
 40
0
 40
0
 40
0
 40
1
 40
1
 40
1
 40
1
 10
135.999806
 20
102.772802
 30
0.0
 10
135.473726
 20
102.468977
 30
0.0
 10
135.149760
 20
101.907511
 30
0.0
 10
135.150000
 20
101.300000
 30
0.0
  0
SPLINE
  5
14e
100
AcDbEntity
  8
0
 62
7
100
AcDbSpline
 70
8
 71
3
 72
8
 73
4
 74
0
 40
0
 40
0
 40
0
 40
0
 40
1
 40
1
 40
1
 40
1
 10
135.150000
 20
101.300000
 30
0.0
 10
135.149760
 20
100.692489
 30
0.0
 10
135.473726
 20
100.131023
 30
0.0
 10
135.999806
 20
99.827198
 30
0.0
  0
SPLINE
  5
14f
100
AcDbEntity
  8
0
 62
7
100
AcDbSpline
 70
8
 71
3
 72
8
 73
4
 74
0
 40
0
 40
0
 40
0
 40
0
 40
1
 40
1
 40
1
 40
1
 10
135.999806
 20
99.827198
 30
0.0
 10
136.525887
 20
99.523373
 30
0.0
 10
137.174113
 20
99.523373
 30
0.0
 10
137.700194
 20
99.827198
 30
0.0
  0
SPLINE
  5
150
100
AcDbEntity
  8
0
 62
7
100
AcDbSpline
 70
8
 71
3
 72
8
 73
4
 74
0
 40
0
 40
0
 40
0
 40
0
 40
1
 40
1
 40
1
 40
1
 10
137.700194
 20
99.827198
 30
0.0
 10
138.226274
 20
100.131023
 30
0.0
 10
138.550240
 20
100.692489
 30
0.0
 10
138.550000
 20
101.300000
 30
0.0
  0
LWPOLYLINE
  5
151
100
AcDbEntity
  8
0
 62
7
100
AcDbPolyline
 90
1
 70
1
 10
36.700000
 20
101.300000
 30
0.0
  0
LWPOLYLINE
  5
152
100
AcDbEntity
  8
0
 62
7
100
AcDbPolyline
 90
1
 70
1
 10
138.550000
 20
101.300000
 30
0.0
  0
LWPOLYLINE
  5
153
100
AcDbEntity
  8
0
 62
7
100
AcDbPolyline
 90
4
 70
1
 10
151.000000
 20
25.000000
 30
0.0
 10
156.000002
 20
25.000000
 30
0.0
 10
156.000002
 20
22.000000
 30
0.0
 10
151.000000
 20
22.000000
 30
0.0
  0
LWPOLYLINE
  5
154
100
AcDbEntity
  8
0
 62
7
100
AcDbPolyline
 90
4
 70
1
 10
151.000000
 20
38.000000
 30
0.0
 10
156.000002
 20
38.000000
 30
0.0
 10
156.000002
 20
41.000001
 30
0.0
 10
151.000000
 20
41.000001
 30
0.0
  0
LWPOLYLINE
  5
155
100
AcDbEntity
  8
0
 62
7
100
AcDbPolyline
 90
4
 70
1
 10
191.000000
 20
38.000000
 30
0.0
 10
186.000003
 20
38.000000
 30
0.0
 10
186.000003
 20
41.000001
 30
0.0
 10
191.000000
 20
41.000001
 30
0.0
  0
LWPOLYLINE
  5
156
100
AcDbEntity
  8
0
 62
7
100
AcDbPolyline
 90
4
 70
1
 10
191.000000
 20
25.000000
 30
0.0
 10
186.000003
 20
25.000000
 30
0.0
 10
186.000003
 20
22.000000
 30
0.0
 10
191.000000
 20
22.000000
 30
0.0
  0
LWPOLYLINE
  5
157
100
AcDbEntity
  8
0
 62
7
100
AcDbPolyline
 90
5
 70
1
 10
206.594901
 20
18.986749
 30
0.0
 10
209.808839
 20
15.156526
 30
0.0
 10
212.106972
 20
17.084889
 30
0.0
 10
208.893034
 20
20.915111
 30
0.0
 10
206.594901
 20
18.986749
 30
0.0
  0
LWPOLYLINE
  5
158
100
AcDbEntity
  8
0
 62
7
100
AcDbPolyline
 90
5
 70
1
 10
173.721887
 20
59.259073
 30
0.0
 10
176.935825
 20
55.428851
 30
0.0
 10
179.233958
 20
57.357213
 30
0.0
 10
176.020020
 20
61.187436
 30
0.0
 10
173.721887
 20
59.259073
 30
0.0
  0
LWPOLYLINE
  5
159
100
AcDbEntity
  8
0
 62
7
100
AcDbPolyline
 90
5
 70
1
 10
150.170392
 20
87.583621
 30
0.0
 10
153.384330
 20
83.753399
 30
0.0
 10
155.682464
 20
85.681762
 30
0.0
 10
152.468526
 20
89.511984
 30
0.0
 10
150.170392
 20
87.583621
 30
0.0
  0
LWPOLYLINE
  5
15a
100
AcDbEntity
  8
0
 62
7
100
AcDbPolyline
 90
5
 70
1
 10
12.000000
 20
110.000000
 30
0.0
 10
10.000000
 20
110.000000
 30
0.0
 10
10.000000
 20
105.000000
 30
0.0
 10
12.000000
 20
105.000000
 30
0.0
 10
12.000000
 20
110.000000
 30
0.0
  0
LWPOLYLINE
  5
15b
100
AcDbEntity
  8
0
 62
7
100
AcDbPolyline
 90
5
 70
1
 10
12.000000
 20
95.000001
 30
0.0
 10
10.000000
 20
95.000001
 30
0.0
 10
10.000000
 20
90.000002
 30
0.0
 10
12.000000
 20
90.000002
 30
0.0
 10
12.000000
 20
95.000001
 30
0.0
  0
LWPOLYLINE
  5
15c
100
AcDbEntity
  8
0
 62
7
100
AcDbPolyline
 90
5
 70
1
 10
18.000000
 20
110.000002
 30
0.0
 10
20.000000
 20
110.000002
 30
0.0
 10
20.000000
 20
105.000002
 30
0.0
 10
18.000000
 20
105.000002
 30
0.0
 10
18.000000
 20
110.000002
 30
0.0
  0
LWPOLYLINE
  5
15d
100
AcDbEntity
  8
0
 62
7
100
AcDbPolyline
 90
5
 70
1
 10
18.000000
 20
95.000001
 30
0.0
 10
20.000000
 20
95.000001
 30
0.0
 10
20.000000
 20
90.000001
 30
0.0
 10
18.000000
 20
90.000001
 30
0.0
 10
18.000000
 20
95.000001
 30
0.0
  0
ENDSEC
  0
SECTION
  2
OBJECTS
  0
DICTIONARY
  5
C
330
0
100
AcDbDictionary
  3
ACAD_GROUP
350
D
  3
ACAD_MLINESTYLE
350
17
  0
DICTIONARY
  5
D
330
C
100
AcDbDictionary
  0
DICTIONARY
  5
1A
330
C
100
AcDbDictionary
  0
DICTIONARY
  5
17
330
C
100
AcDbDictionary
  3
STANDARD
350
18
  0
DICTIONARY
  5
19
330
C
100
AcDbDictionary
  0
ENDSEC
  0
EOF
